<svg id="mondv3" xmlns="http://www.w3.org/2000/svg" viewBox="0 0 523 523">
  <defs>
    <style>
      .cls-1 {
        fill: #fff;
      }

      .cls-2 {
        fill: #b3b3b3;
      }

      .cls-3, .cls-5 {
        fill: #ccc;
      }

      .cls-3 {
        stroke: #f2f2f2;
      }

      .cls-3, .cls-4, .cls-5 {
        stroke-miterlimit: 10;
      }

      .cls-4 {
        fill: gray;
      }

      .cls-4, .cls-5 {
        stroke: #e6e6e6;
      }
    </style>
  </defs>
  <g>
    <path class="cls-1" d="M902.5,791.75a261.252,261.252,0,1,1,184.731-76.519A259.537,259.537,0,0,1,902.5,791.75Z" transform="translate(-641 -269)"/>
    <path d="M902.5,269.5a260.177,260.177,0,1,1-101.593,20.51A259.379,259.379,0,0,1,902.5,269.5m0-.5C758.078,269,641,386.078,641,530.5S758.078,792,902.5,792,1164,674.922,1164,530.5,1046.922,269,902.5,269Z" transform="translate(-641 -269)"/>
  </g>
  <g>
    <path class="cls-2" d="M901.516,786.5c-31.829,0-50.308-5.562-58.152-17.506-11.68-17.783,1.64-48.554,18.5-87.511,18.106-41.826,40.639-93.88,40.639-149.994,0-56.038-22.493-108.228-40.567-150.164-16.938-39.3-30.316-70.341-18.522-88.268,7.881-11.978,26.342-17.557,58.1-17.557a256.055,256.055,0,0,1,181.716,74.835,254.458,254.458,0,0,1,0,361.33A256.055,256.055,0,0,1,901.516,786.5Z" transform="translate(-641 -269)"/>
    <path class="cls-2" d="M901.516,276a256.569,256.569,0,0,1,236.329,155.745A253.826,253.826,0,0,1,1082.88,711.31,256.432,256.432,0,0,1,901.516,786c-31.646,0-49.991-5.491-57.735-17.281-11.531-17.557,1.742-48.218,18.546-87.037,18.125-41.868,40.681-93.975,40.681-150.192,0-56.142-22.516-108.385-40.607-150.362-16.879-39.162-30.21-70.094-18.564-87.8C851.617,281.507,869.945,276,901.516,276m0-1c-142.2,0,.492,115.105.492,256.49S759.312,787,901.516,787,1159,672.385,1159,531,1043.721,275,901.516,275Z" transform="translate(-641 -269)"/>
  </g>
  <rect class="cls-3" x="195.64" y="39" width="87.36" height="57" rx="28.5"/>
  <rect class="cls-1" x="178" y="39" width="87.36" height="57" rx="28.5"/>
  <rect class="cls-3" x="330" y="137" width="85.511" height="57" rx="28.5"/>
  <rect class="cls-3" x="241" y="317" width="104" height="57" rx="28.5"/>
  <rect class="cls-1" x="355.489" y="137" width="85.511" height="57" rx="28.5"/>
  <rect class="cls-1" x="200" y="317" width="104" height="57" rx="28.5"/>
  <rect class="cls-3" x="283" y="403" width="88.593" height="57" rx="28.5"/>
  <rect class="cls-1" x="309.407" y="403" width="88.593" height="57" rx="28.5"/>
  <rect class="cls-3" x="346" y="243" width="84.741" height="57" rx="28.5"/>
  <rect class="cls-1" x="371.259" y="243" width="84.741" height="57" rx="28.5"/>
  <rect class="cls-4" x="76.444" y="328" width="89.556" height="57" rx="28.5"/>
  <rect class="cls-4" x="132" y="419.5" width="91.317" height="57" rx="28.5"/>
  <rect class="cls-5" x="191" y="186.5" width="85.502" height="57" rx="28.5"/>
  <rect class="cls-4" x="100.285" y="84.5" width="99.715" height="57" rx="28.5"/>
  <rect class="cls-2" x="42" y="328" width="89.556" height="57" rx="28.5"/>
  <rect class="cls-4" x="56.444" y="236" width="89.556" height="57" rx="28.5"/>
  <rect class="cls-2" x="22" y="236" width="89.556" height="57" rx="28.5"/>
  <rect class="cls-2" x="209.498" y="186" width="85.502" height="57" rx="28.5"/>
  <rect class="cls-2" x="72" y="84" width="99.715" height="57" rx="28.5"/>
  <rect class="cls-2" x="166.683" y="419" width="91.317" height="57" rx="28.5"/>
</svg>
