<svg id="Ebene_1" data-name="Ebene 1" xmlns="http://www.w3.org/2000/svg" viewBox="0 0 421 421">
  <defs>
    <style>
      .cls-1 {
        fill: #fff;
      }

      .cls-2 {
        fill: #666;
      }

      .cls-3 {
        fill: #ccc;
      }

      .cls-4 {
        fill: #f2f2f2;
      }

      .cls-5 {
        fill: #b3b3b3;
      }
    </style>
  </defs>
  <g>
    <circle class="cls-1" cx="210.5" cy="210.5" r="210.5"/>
    <path class="cls-2" d="M886.5,259a206.845,206.845,0,1,1-80.767,16.305A206.2,206.2,0,0,1,886.5,259m0-3C770.244,256,676,350.244,676,466.5S770.244,677,886.5,677,1097,582.756,1097,466.5,1002.756,256,886.5,256Z" transform="translate(-676 -256)"/>
  </g>
  <path class="cls-3" d="M1094,466.994c0,56.161-21,102.416-55.1,139.816-11.2,12.285-25,22.978-38.372,33.6-7.652,6.077-15.593,9.483-24.53,13.6-26.811,12.337-58.855,18.4-89.11,20.988-7.11.608-1.654-22.125,4.427-51.381,1.275-6.132-37.388-1.976-40.34-9.881-2.538-6.8-.988-8.642,0-15.809,2.132-15.463,50.829-1.4,49.2-13.834-1.008-7.671,3.552-32.472-1.968-37.547-14.289-13.138-46.243-1.47-46.243-16.8,0-33.6,56.04-2.849,57.066-28.655,1.679-42.2-55.1-18.773-50.178-49.4,6.355-39.57,62.969,16.2,62.969-32.608,0-40.612-55.3-10.48-58.05-46.44-.984-12.845-4.353-18.631,7.871-25.691,13.424-7.751,45.87-3.892,50.179-6.916,2.944-2.066,3.469-26.545,1.968-30.631-3.551-9.667-52.147,4.94-53.131-9.881C869.063,275.521,859.532,259,886.89,259,1001.274,259,1094,352.122,1094,466.994Z" transform="translate(-676 -256)"/>
  <g>
    <circle class="cls-3" cx="177.5" cy="66.5" r="21.5"/>
    <path class="cls-1" d="M853.5,302A20.5,20.5,0,1,1,833,322.5,20.523,20.523,0,0,1,853.5,302m0-1A21.5,21.5,0,1,0,875,322.5,21.5,21.5,0,0,0,853.5,301Z" transform="translate(-676 -256)"/>
  </g>
  <g>
    <circle class="cls-3" cx="161.5" cy="165.5" r="21.5"/>
    <path class="cls-1" d="M837.5,401A20.5,20.5,0,1,1,817,421.5,20.523,20.523,0,0,1,837.5,401m0-1A21.5,21.5,0,1,0,859,421.5,21.5,21.5,0,0,0,837.5,400Z" transform="translate(-676 -256)"/>
  </g>
  <g>
    <circle class="cls-3" cx="48.5" cy="172.5" r="21.5"/>
    <path class="cls-1" d="M724.5,408A20.5,20.5,0,1,1,704,428.5,20.523,20.523,0,0,1,724.5,408m0-1A21.5,21.5,0,1,0,746,428.5,21.5,21.5,0,0,0,724.5,407Z" transform="translate(-676 -256)"/>
  </g>
  <g>
    <circle class="cls-3" cx="135.5" cy="238.5" r="21.5"/>
    <path class="cls-1" d="M811.5,474A20.5,20.5,0,1,1,791,494.5,20.523,20.523,0,0,1,811.5,474m0-1A21.5,21.5,0,1,0,833,494.5,21.5,21.5,0,0,0,811.5,473Z" transform="translate(-676 -256)"/>
  </g>
  <g>
    <circle class="cls-4" cx="363.5" cy="184.5" r="21.5"/>
    <path class="cls-5" d="M1039.5,420a20.5,20.5,0,1,1-20.5,20.5,20.523,20.523,0,0,1,20.5-20.5m0-1a21.5,21.5,0,1,0,21.5,21.5,21.5,21.5,0,0,0-21.5-21.5Z" transform="translate(-676 -256)"/>
  </g>
  <g>
    <circle class="cls-4" cx="283.5" cy="326.5" r="21.5"/>
    <path class="cls-5" d="M959.5,562A20.5,20.5,0,1,1,939,582.5,20.523,20.523,0,0,1,959.5,562m0-1A21.5,21.5,0,1,0,981,582.5,21.5,21.5,0,0,0,959.5,561Z" transform="translate(-676 -256)"/>
  </g>
  <g>
    <circle class="cls-3" cx="98.5" cy="107.5" r="21.5"/>
    <path class="cls-1" d="M774.5,343A20.5,20.5,0,1,1,754,363.5,20.523,20.523,0,0,1,774.5,343m0-1A21.5,21.5,0,1,0,796,363.5,21.5,21.5,0,0,0,774.5,342Z" transform="translate(-676 -256)"/>
  </g>
  <g>
    <circle class="cls-4" cx="293.5" cy="129.5" r="21.5"/>
    <path class="cls-5" d="M969.5,365A20.5,20.5,0,1,1,949,385.5,20.523,20.523,0,0,1,969.5,365m0-1A21.5,21.5,0,1,0,991,385.5,21.5,21.5,0,0,0,969.5,364Z" transform="translate(-676 -256)"/>
  </g>
  <g>
    <circle class="cls-3" cx="98.5" cy="298.5" r="21.5"/>
    <path class="cls-1" d="M774.5,534A20.5,20.5,0,1,1,754,554.5,20.523,20.523,0,0,1,774.5,534m0-1A21.5,21.5,0,1,0,796,554.5,21.5,21.5,0,0,0,774.5,533Z" transform="translate(-676 -256)"/>
  </g>
  <g>
    <circle class="cls-3" cx="195.5" cy="307.5" r="21.5"/>
    <path class="cls-1" d="M871.5,543A20.5,20.5,0,1,1,851,563.5,20.523,20.523,0,0,1,871.5,543m0-1A21.5,21.5,0,1,0,893,563.5,21.5,21.5,0,0,0,871.5,542Z" transform="translate(-676 -256)"/>
  </g>
  <g>
    <circle class="cls-4" cx="299.5" cy="244.5" r="21.5"/>
    <path class="cls-5" d="M975.5,480A20.5,20.5,0,1,1,955,500.5,20.523,20.523,0,0,1,975.5,480m0-1A21.5,21.5,0,1,0,997,500.5,21.5,21.5,0,0,0,975.5,479Z" transform="translate(-676 -256)"/>
  </g>
  <g>
    <circle class="cls-4" cx="225.5" cy="28.5" r="21.5"/>
    <path class="cls-5" d="M901.5,264A20.5,20.5,0,1,1,881,284.5,20.523,20.523,0,0,1,901.5,264m0-1A21.5,21.5,0,1,0,923,284.5,21.5,21.5,0,0,0,901.5,263Z" transform="translate(-676 -256)"/>
  </g>
</svg>
