<svg xmlns="http://www.w3.org/2000/svg" viewBox="0 0 676 676">
  <defs>
    <style>
      .cls-1 {
        fill: #f1b075;
      }

      .cls-2 {
        fill: #a4703f;
      }

      .cls-3 {
        opacity: 0.47;
      }
    </style>
  </defs>
  <g id="moon">
    <g id="fill">
      <circle class="cls-1" cx="338.5" cy="338.5" r="338"/>
    </g>
    <path class="cls-2" d="M123.5,135.5s27-50,69-36,51,48,49,79,14,96,34,108,8,80-13,109-97,19-111-20,30-70,29-93-11-67-47-95S120.5,139.5,123.5,135.5Z" transform="translate(0.5 0.5)"/>
    <path class="cls-2" d="M76.5,223.5s-68,33-37,71,79,21,84,9S135.5,196.5,76.5,223.5Z" transform="translate(0.5 0.5)"/>
    <path class="cls-2" d="M398.5,59.5s-112,47-63,144,111,38,111,38,31-43,80,18,82-51,82-51,20-49-75-83-84-62-84-62S463.5,2.5,398.5,59.5Z" transform="translate(0.5 0.5)"/>
    <path class="cls-2" d="M467.5,529.5s-54-6-47,40,61,20,61,5S491.5,546.5,467.5,529.5Z" transform="translate(0.5 0.5)"/>
    <path class="cls-2" d="M366.14,338.14s70.44-62.31,112.63-.66,33.39,19.37,66,31.79,50.45,45.62,39.89,68-75.3,63.86-105.6,45.15-3.23-73.1-22.91-87-50.28-17.46-67.49-9.48S340.88,355.08,366.14,338.14Z" transform="translate(0.5 0.5)"/>
    <path class="cls-2" d="M331.5,475.5s-59-17-66,27-40,43-56,46-41,53,5,69,99-9,106-18S411.5,494.5,331.5,475.5Z" transform="translate(0.5 0.5)"/>
    <path class="cls-2" d="M299.5,59.5c-13.1-6.81-50,11-31,32S324.5,72.5,299.5,59.5Z" transform="translate(0.5 0.5)"/>
    <path class="cls-2" d="M89.94,378c-18.83-10.58-71.86,17.08-44.55,49.69S125.87,398.2,89.94,378Z" transform="translate(0.5 0.5)"/>
    <path class="cls-2" d="M637.92,335.77c-4.64-20.58-56.1-48.8-60.91-10S646.77,375.05,637.92,335.77Z" transform="translate(0.5 0.5)"/>
  </g>
  <g id="shadow" transform="rotate(180)" style="transform-origin: center">
    <path class="cls-3" d="M149.5,333.5c.9-115,54.35-334,188-334C150.83-.5-.5,151.05-.5,338s151.33,338.5,338,338.5C203.85,676.5,148.5,461.5,149.5,333.5Z" transform="translate(0.5 0.5)"/>
  </g>
</svg>
