<svg xmlns="http://www.w3.org/2000/svg" viewBox="0 0 799.76 730.63"><defs><style>.cls-1,.cls-5{fill:#333;}.cls-1,.cls-146,.cls-147,.cls-152,.cls-21,.cls-22,.cls-36,.cls-4,.cls-5,.cls-50,.cls-51,.cls-52,.cls-56{stroke:#000;}.cls-1,.cls-10,.cls-11,.cls-12,.cls-13,.cls-14,.cls-146,.cls-147,.cls-15,.cls-152,.cls-153,.cls-154,.cls-155,.cls-156,.cls-16,.cls-17,.cls-2,.cls-20,.cls-21,.cls-22,.cls-23,.cls-30,.cls-32,.cls-34,.cls-35,.cls-36,.cls-4,.cls-5,.cls-50,.cls-51,.cls-52,.cls-53,.cls-54,.cls-55,.cls-56,.cls-6,.cls-65,.cls-7,.cls-8,.cls-9,.cls-94{stroke-miterlimit:10;}.cls-2{font-size:14px;fill:lime;}.cls-11,.cls-2,.cls-53,.cls-54,.cls-55,.cls-6,.cls-7,.cls-8{stroke:#333;}.cls-155,.cls-156,.cls-2,.cls-36{stroke-width:0.5px;}.cls-14,.cls-148,.cls-155,.cls-19,.cls-2,.cls-3,.cls-31{font-family:MyriadPro-Regular, Myriad Pro;}.cls-155,.cls-3{font-size:11.22px;}.cls-10,.cls-112,.cls-124,.cls-13,.cls-131,.cls-14,.cls-140,.cls-146,.cls-153,.cls-154,.cls-155,.cls-156,.cls-16,.cls-18,.cls-19,.cls-20,.cls-3,.cls-57,.cls-66,.cls-75,.cls-95,.cls-99{fill:#fff;}.cls-22,.cls-4,.cls-6,.cls-7{fill:#1a1a1a;}.cls-11,.cls-12,.cls-13,.cls-14,.cls-15,.cls-16,.cls-23,.cls-4,.cls-5,.cls-50,.cls-6,.cls-8{stroke-width:0.25px;}.cls-11,.cls-56,.cls-9{fill:#4d4d4d;}.cls-23,.cls-34,.cls-35,.cls-9{stroke:#1a1a1a;}.cls-10,.cls-12,.cls-13,.cls-20,.cls-65{stroke:#4d4d4d;}.cls-12,.cls-152,.cls-157{fill:#0071bc;}.cls-14{font-size:4.27px;}.cls-14,.cls-153,.cls-155,.cls-156{stroke:#0071bc;}.cls-15,.cls-23{fill:#ed1c24;}.cls-15{stroke:#666;}.cls-16{stroke:#ed1c24;}.cls-17,.cls-32,.cls-51{fill:none;}.cls-17{stroke:#fff;}.cls-19{font-size:7.48px;}.cls-20{stroke-width:0.75px;opacity:0.79;}.cls-21,.cls-53{fill:gray;}.cls-23,.cls-57{font-size:7px;}.cls-23{font-family:Arial-BoldMT, Arial;font-weight:700;letter-spacing:-0.14em;}.cls-24{letter-spacing:-0.06em;}.cls-25{letter-spacing:-0.13em;}.cls-26{letter-spacing:-0.14em;}.cls-27{letter-spacing:-0.06em;}.cls-28{letter-spacing:-0.05em;}.cls-29{letter-spacing:-0.08em;}.cls-154,.cls-30,.cls-32{stroke:#ccc;}.cls-31{font-size:6.41px;}.cls-31,.cls-33,.cls-35,.cls-52{fill:#ccc;}.cls-34,.cls-36{fill:#999;}.cls-37{font-size:5px;letter-spacing:-0.11em;}.cls-112,.cls-124,.cls-131,.cls-140,.cls-37,.cls-57,.cls-66,.cls-75,.cls-95,.cls-99{font-family:ArialMT, Arial;}.cls-38{letter-spacing:-0.06em;}.cls-39{letter-spacing:-0.05em;}.cls-40{letter-spacing:-0.09em;}.cls-41{letter-spacing:-0.08em;}.cls-42{letter-spacing:-0.14em;}.cls-43{letter-spacing:-0.06em;}.cls-44{letter-spacing:-0.14em;}.cls-45{letter-spacing:-0.14em;}.cls-46{letter-spacing:-0.07em;}.cls-47{letter-spacing:-0.06em;}.cls-48{letter-spacing:-0.05em;}.cls-49{letter-spacing:-0.07em;}.cls-50,.cls-55{fill:red;}.cls-54{fill:#e6e6e6;}.cls-57{letter-spacing:-0.03em;}.cls-58{letter-spacing:-0.03em;}.cls-59{letter-spacing:-0.02em;}.cls-60{letter-spacing:0em;}.cls-61{letter-spacing:-0.04em;}.cls-62{letter-spacing:-0.05em;}.cls-63{letter-spacing:0em;}.cls-64{letter-spacing:-0.04em;}.cls-65{fill:#f2f2f2;}.cls-148,.cls-66{font-size:25.64px;}.cls-66{letter-spacing:-0.08em;}.cls-67{letter-spacing:-0.09em;}.cls-68{letter-spacing:-0.09em;}.cls-69{letter-spacing:-0.09em;}.cls-70{letter-spacing:-0.08em;}.cls-71{letter-spacing:-0.09em;}.cls-72{letter-spacing:-0.09em;}.cls-73{letter-spacing:-0.1em;}.cls-74{letter-spacing:-0.09em;}.cls-112,.cls-124,.cls-131,.cls-140,.cls-75,.cls-95,.cls-99{font-size:12.82px;}.cls-75{letter-spacing:-0.08em;}.cls-76{letter-spacing:-0.09em;}.cls-77{letter-spacing:-0.11em;}.cls-78{letter-spacing:-0.08em;}.cls-79{letter-spacing:-0.04em;}.cls-80{letter-spacing:-0.04em;}.cls-81{letter-spacing:-0.05em;}.cls-82{letter-spacing:-0.04em;}.cls-83{letter-spacing:-0.03em;}.cls-84{letter-spacing:-0.03em;}.cls-85{letter-spacing:-0.04em;}.cls-86{letter-spacing:-0.05em;}.cls-87{letter-spacing:-0.04em;}.cls-88{letter-spacing:-0.04em;}.cls-89{letter-spacing:-0.05em;}.cls-90{letter-spacing:-0.02em;}.cls-91{letter-spacing:-0.04em;}.cls-92{letter-spacing:-0.02em;}.cls-93{letter-spacing:-0.07em;}.cls-94{fill:#22b573;stroke:#999;}.cls-95{letter-spacing:-0.03em;}.cls-96{letter-spacing:-0.05em;}.cls-97{letter-spacing:-0.03em;}.cls-98{letter-spacing:-0.03em;}.cls-99{letter-spacing:-0.13em;}.cls-100{letter-spacing:-0.04em;}.cls-101{letter-spacing:-0.05em;}.cls-102{letter-spacing:-0.04em;}.cls-103{letter-spacing:-0.03em;}.cls-104{letter-spacing:-0.04em;}.cls-105{letter-spacing:-0.04em;}.cls-106{letter-spacing:-0.03em;}.cls-107{letter-spacing:-0.06em;}.cls-108{letter-spacing:-0.05em;}.cls-109{letter-spacing:-0.1em;}.cls-110{letter-spacing:-0.04em;}.cls-111{letter-spacing:-0.03em;}.cls-112{letter-spacing:-0.04em;}.cls-113{letter-spacing:-0.04em;}.cls-114{letter-spacing:-0.04em;}.cls-115{letter-spacing:-0.04em;}.cls-116{letter-spacing:-0.03em;}.cls-117{letter-spacing:-0.04em;}.cls-118{letter-spacing:-0.03em;}.cls-119{letter-spacing:-0.04em;}.cls-120{letter-spacing:-0.04em;}.cls-121{letter-spacing:-0.04em;}.cls-122{letter-spacing:-0.04em;}.cls-123{letter-spacing:-0.04em;}.cls-124{letter-spacing:-0.09em;}.cls-125{letter-spacing:0em;}.cls-126{letter-spacing:-0.04em;}.cls-127{letter-spacing:-0.04em;}.cls-128{letter-spacing:-0.05em;}.cls-129{letter-spacing:-0.05em;}.cls-130{letter-spacing:-0.03em;}.cls-131,.cls-142{letter-spacing:-0.04em;}.cls-132{letter-spacing:-0.05em;}.cls-133{letter-spacing:-0.04em;}.cls-134{letter-spacing:-0.05em;}.cls-135{letter-spacing:-0.01em;}.cls-136{letter-spacing:-0.05em;}.cls-137{letter-spacing:-0.04em;}.cls-138{letter-spacing:-0.04em;}.cls-139{letter-spacing:-0.04em;}.cls-140{letter-spacing:-0.04em;}.cls-141{letter-spacing:-0.04em;}.cls-143{letter-spacing:-0.03em;}.cls-144{letter-spacing:-0.04em;}.cls-145{letter-spacing:-0.07em;}.cls-147{stroke-width:2px;}.cls-149{letter-spacing:0em;}.cls-150{letter-spacing:0em;}.cls-151{letter-spacing:-0.01em;}</style></defs><g id="Bildschirm"><g id="Bildschirmrahmen"><path id="Aussenrand" class="cls-1" d="M15.44.5H671.7a4.11,4.11,0,0,1,4.11,4.11V404a4.11,4.11,0,0,1-4.11,4.11H8.42A4.11,4.11,0,0,1,4.31,404V11.63A11.13,11.13,0,0,1,15.44.5Z"/><path id="Innenrand" class="cls-1" d="M209,104.75H857.77a2.12,2.12,0,0,1,2,2.21V488.74a2.12,2.12,0,0,1-2,2.21H209a2.12,2.12,0,0,1-2-2.21V107A2.12,2.12,0,0,1,209,104.75Z" transform="translate(-194.19 -96.5)"/><text class="cls-2" transform="translate(327.48 405.99) scale(0.91 1)">THM</text></g><text class="cls-3" transform="translate(20.69 405.43) scale(0.91 1)">4K</text></g><g id="Tastatur"><path class="cls-4" d="M205,504.57H850.89a10.67,10.67,0,0,1,9.9,6.66L983,812.3a10.69,10.69,0,0,1-9.9,14.7H264.46A10.69,10.69,0,0,1,254,818.39L194.52,517.32A10.68,10.68,0,0,1,205,504.57Z" transform="translate(-194.19 -96.5)"/><path class="cls-5" d="M215,504.57H860.89a10.67,10.67,0,0,1,9.9,6.66L993,812.3a10.69,10.69,0,0,1-9.9,14.7H274.46A10.69,10.69,0,0,1,264,818.39L204.52,517.32A10.68,10.68,0,0,1,215,504.57Z" transform="translate(-194.19 -96.5)"/><polygon class="cls-5" points="707.81 630.5 80.81 628.5 37.81 428.5 655.81 426.5 707.81 630.5"/><g id="Mauspad"><path class="cls-6" d="M642.39,820H487.61A11.61,11.61,0,0,1,476,808.39V726H654v82.39A11.61,11.61,0,0,1,642.39,820Z" transform="translate(-194.19 -96.5)"/><path class="cls-7" d="M476,796.3h89V820H488a12,12,0,0,1-12-12Z" transform="translate(-194.19 -96.5)"/><path class="cls-7" d="M565,796.3h89V808a12,12,0,0,1-12,12H565Z" transform="translate(-194.19 -96.5)"/></g><g id="Tasten"><path d="M239.13,525.75a4.86,4.86,0,0,0-2.24,1.51c-.87,1.08-.91,1.72-.93,10.23l0,9.06,1.47,1.37,1.46,1.36,12.78,0,12.79,0,1.38-1.16,1.43-1.15.14-8.95c.15-7.59.07-9.07-.54-10.11-1.33-2.36-1.5-2.4-14.46-2.5C245.87,525.4,239.91,525.55,239.13,525.75Z" transform="translate(-194.19 -96.5)"/><path d="M272.48,525.93c-2.93,1.2-3,1.48-3.17,10.58s.07,10.71,2,12c1.2.8,1.85.84,13.64.87,12.83,0,13.56-.06,15-1.73.69-.72.78-1.92.8-10.07,0-8.7,0-9.3-.85-10.26a5.93,5.93,0,0,0-2.5-1.49C294.94,525.22,274.08,525.3,272.48,525.93Z" transform="translate(-194.19 -96.5)"/><path d="M308.89,525.45a5.35,5.35,0,0,0-2.25,1.39c-.87,1-.91,1.6-.93,10,0,9.74.2,10.7,2.44,11.66.65.28,5.48.45,13.52.47l12.52,0,1.38-1.15,1.43-1.16.15-8.82c.14-7.35.06-9-.5-10.11-1.29-2.48-1.42-2.52-14.5-2.63C315.63,525.1,309.67,525.25,308.89,525.45Z" transform="translate(-194.19 -96.5)"/><path d="M347,525.68c-3.63,1.07-3.89,1.91-3.91,11.65,0,8.67.28,10.11,2.18,11.39.86.56,2.63.65,13.43.67,8,0,12.78-.14,13.43-.42,2.24-1,2.46-1.91,2.48-11.65,0-8.43,0-9-.84-10a5.91,5.91,0,0,0-2.5-1.48C369.69,525.44,348.32,525.28,347,525.68Z" transform="translate(-194.19 -96.5)"/><path d="M383,525.12a5.51,5.51,0,0,0-2.25,1.39c-.86,1-.91,1.56-.93,10.31,0,8.15.07,9.35.76,10.07,1.42,1.68,2.16,1.76,15,1.78,11.79,0,12.44,0,13.65-.81,1.94-1.27,2.21-2.83,2.05-12-.15-11.66.54-11.14-15.74-11.13A124.3,124.3,0,0,0,383,525.12Z" transform="translate(-194.19 -96.5)"/><path d="M421.65,525a5.74,5.74,0,0,0-3.42,3.11c-.13.43-.18,4.75-.1,9.54l.11,8.71,1.42,1.16,1.38,1.16,12.78,0,12.79,0,1.47-1.35,1.47-1.36,0-8.95c0-8.1-.07-9-.85-10.18a4,4,0,0,0-2.46-1.69C444.71,524.83,423.77,524.63,421.65,525Z" transform="translate(-194.19 -96.5)"/><path d="M459.1,523.45a5.31,5.31,0,0,0-2.24,1.39c-.87,1-.91,1.56-.93,10.3,0,8.15.07,9.35.76,10.07,1.42,1.68,2.15,1.76,15.11,1.79l12.52,0,1.34-1.15,1.34-1.16,0-9.54c0-12.91,1-12.1-15.44-12.1C465.5,523.06,459.88,523.25,459.1,523.45Z" transform="translate(-194.19 -96.5)"/><path d="M496.62,523.49a4.75,4.75,0,0,0-3.24,2.47c-.3.75-.44,3.91-.37,10l.12,8.91,1.42,1.16,1.38,1.16,12.78,0,12.78,0,1.47-1.35,1.47-1.36,0-8.83c0-9.38-.15-10.3-2.09-11.5-1-.65-2.42-.73-13-.83C502.84,523.3,497.1,523.37,496.62,523.49Z" transform="translate(-194.19 -96.5)"/><path d="M533.85,523.71a5.45,5.45,0,0,0-2.25,1.39c-.87,1-.91,1.6-.93,10.23,0,5.51.16,9.47.42,9.94,1.07,1.8,2.24,2,15.1,2s14-.13,15.12-1.93c.26-.47.44-4.43.45-9.94,0-8.63,0-9.23-.84-10.19a5.91,5.91,0,0,0-2.5-1.48C556.43,523.24,535.75,523.19,533.85,523.71Z" transform="translate(-194.19 -96.5)"/><path d="M572.8,523.58c-3.76,1.23-3.89,1.63-3.91,12.17l0,8.83,1.47,1.36,1.46,1.36,12.78,0,12.78,0,1.39-1.15,1.42-1.16.15-8.91c.15-9.58,0-10.58-2-11.82-1-.64-2.38-.73-13-.83C578.8,523.43,573.14,523.46,572.8,523.58Z" transform="translate(-194.19 -96.5)"/><path d="M608.05,523.47a8.77,8.77,0,0,0-2,1.24c-1,.83-1,1-1,10.42l0,9.55,1.34,1.16,1.33,1.16,12.53,0c13,0,13.68,0,15.11-1.72.7-.72.78-1.92.8-10.07,0-8.71,0-9.3-.84-10.27a5.91,5.91,0,0,0-2.5-1.48C630.67,523,609.51,523,608.05,523.47Z" transform="translate(-194.19 -96.5)"/><path d="M645,523.45a4.15,4.15,0,0,0-2.25,1.68c-.78,1.15-.86,2-.88,10.18l0,9,1.47,1.36,1.46,1.36,12.78,0,12.79,0,1.38-1.15,1.43-1.16.14-9c.15-7.59.07-9.07-.54-10.1-1.33-2.36-1.5-2.4-14.46-2.51A128.43,128.43,0,0,0,645,523.45Z" transform="translate(-194.19 -96.5)"/><path d="M683.47,523.64c-2.94,1.19-3,1.47-3.17,10.58s.06,10.7,2,12c1.21.81,1.86.85,13.64.87,12.83,0,13.56-.05,15-1.73.69-.72.78-1.91.8-10.06,0-8.71,0-9.31-.84-10.27a5.89,5.89,0,0,0-2.51-1.48C705.92,522.92,685.07,523,683.47,523.64Z" transform="translate(-194.19 -96.5)"/><path d="M720.18,523.58a5.3,5.3,0,0,0-2.25,1.4c-.87,1-.91,1.59-.93,10,0,9.75.2,10.71,2.44,11.67.65.28,5.44.45,13.43.47,13.77,0,13.86,0,15-2.61.91-2,.9-16.94,0-18.7-1.24-2.39-1.42-2.44-14.46-2.54C726.91,523.24,721,523.38,720.18,523.58Z" transform="translate(-194.19 -96.5)"/><path d="M755.52,523.31a5.2,5.2,0,0,0-3.41,3.47c-.14.72-.19,5-.11,9.59l.11,8.31,1.43,1.16,1.38,1.16,12.52,0c8,0,12.87-.13,13.51-.41,2.25-1,2.47-1.91,2.49-11.66,0-8.43,0-9-.85-10a5.71,5.71,0,0,0-2.5-1.49C778.58,523.12,757.6,523,755.52,523.31Z" transform="translate(-194.19 -96.5)"/><path d="M788.45,523.71a5.51,5.51,0,0,0-2.25,1.39c-.86,1-.91,1.56-.92,10.31,0,8.15.06,9.35.75,10.07,1.42,1.68,2.16,1.76,15,1.78,11.79,0,12.44,0,13.65-.81,2-1.27,2.21-2.83,2.05-12-.15-11.66.54-11.14-15.74-11.13A124.3,124.3,0,0,0,788.45,523.71Z" transform="translate(-194.19 -96.5)"/><path d="M822.24,523.62a5.72,5.72,0,0,0-3.41,3.11c-.13.43-.19,4.75-.11,9.54l.11,8.71,1.43,1.16,1.38,1.16,12.78,0,12.78,0,1.47-1.35,1.47-1.36,0-9.07c0-8.46,0-9.14-.84-10.22a5.33,5.33,0,0,0-2.51-1.57C845.3,523.42,824.32,523.26,822.24,523.62Z" transform="translate(-194.19 -96.5)"/><path d="M250.25,555.36l-1.47,1.35,0,12.55c0,13.9,0,13.82,2.83,14.94,2,1.23,25.43,1.4,27.54.06,2.86-1.12,2.86-1,2.88-14.94l0-12.54-1.47-1.36-1.46-1.36-13.69,0-13.69,0Z" transform="translate(-194.19 -96.5)"/><path d="M288,555a6.83,6.83,0,0,0-1.73,1.24c-.82.83-.86,1.51-1,13.34-.11,13.7-.11,13.9,2.48,15.14,1.38.64,2.8.69,14.81.63l13.34-.09,1.26-1.32,1.25-1.28,0-12.62,0-12.62L317,556.05l-1.47-1.36h-13.3C294.88,554.69,288.49,554.83,288,555Z" transform="translate(-194.19 -96.5)"/><path d="M323.28,555.24a4.58,4.58,0,0,0-1.81,1.84c-.26.56-.45,6.11-.46,12.86,0,11.06,0,11.94.84,13.14,1.33,2,2.58,2.2,16.92,2.07l12.82-.09,1.3-1.16,1.34-1.19,0-12.78c0-11.55-.06-12.91-.75-13.67-1.47-1.68-2.12-1.76-15.72-1.79C325.49,554.45,324.62,554.49,323.28,555.24Z" transform="translate(-194.19 -96.5)"/><path d="M360.53,555.53a5.11,5.11,0,0,0-1.86,2.07c-.78,2.08-.7,23.57.12,25.37,1.08,2.4,2,2.56,16.15,2.59,6.86,0,13-.14,13.56-.34a6.83,6.83,0,0,0,2-1.27c.87-.88.91-1.28.94-13.7,0-11.54-.06-12.9-.75-13.66-1.47-1.68-2.11-1.77-15.72-1.79C362.86,554.77,361.78,554.85,360.53,555.53Z" transform="translate(-194.19 -96.5)"/><path d="M397.84,555.08c-2.17,1.19-2.38,2.55-2.24,15.49.11,12.7.19,13.14,3,14,1.81.6,25.65.65,27.46,0,2.64-.83,2.68-1,2.71-14.93,0-7.91-.15-13-.41-13.43-1.07-1.83-2.15-2-16.06-2C400.08,554.28,399.13,554.32,397.84,555.08Z" transform="translate(-194.19 -96.5)"/><path d="M436.68,554.83c-2.38,1.19-2.38,1.11-2.41,14.93,0,12.42,0,12.82.88,13.7a6.74,6.74,0,0,0,2,1.29c.56.2,6.69.37,13.56.38,14.16,0,15.07-.13,16.15-2.52.91-2,1-23.57.09-25.61-1.16-2.51-1.72-2.6-16.31-2.62C442,554.4,437.24,554.51,436.68,554.83Z" transform="translate(-194.19 -96.5)"/><path d="M478.4,554.92C476,556.11,476,556,476,569.86l0,12.78,1.34,1.2L478.6,585l12.83.15c14.33.18,15.59,0,16.93-2,.82-1.2.87-2.07.89-13.14,0-6.75-.15-12.3-.41-12.86A4.58,4.58,0,0,0,507,555.3c-1.33-.76-2.2-.81-14.59-.83C483.67,554.49,479,554.6,478.4,554.92Z" transform="translate(-194.19 -96.5)"/><path d="M514.76,555.17l-1.47,1.36,0,12.62,0,12.62,1.25,1.28,1.25,1.32,13.34.15c12,.1,13.43.06,14.82-.57a5.28,5.28,0,0,0,2-1.72c.69-1.23.82-24.16.18-25.72a4.72,4.72,0,0,0-1.81-1.84c-1.34-.76-2.2-.8-14.72-.83l-13.35,0Z" transform="translate(-194.19 -96.5)"/><path d="M553.21,554.24l-1.47,1.35,0,12.55c0,13.9,0,13.82,2.82,14.94,2.07.8,25.48.85,27.55.06,2.85-1.12,2.85-1,2.88-14.94l0-12.54-1.47-1.36-1.46-1.36-13.69,0-13.69,0Z" transform="translate(-194.19 -96.5)"/><path d="M595.54,553.35a5.26,5.26,0,0,0-1.86,1.43c-.86,1-.91,1.4-.93,13.5,0,13.82,0,13.74,2.82,14.86,2.16.85,26,.85,27.81,0C626,581.93,626,582,626,568.26l0-12.54-1.46-1.36L623.09,553h-13.3C602.45,553,596,553.15,595.54,553.35Z" transform="translate(-194.19 -96.5)"/><path d="M635.05,554.09a4.73,4.73,0,0,0-1.82,1.83c-.26.56-.44,6.12-.45,12.87,0,11.06,0,11.94.83,13.14,1.34,2,2.59,2.2,17,2.07l12.91-.09,1.26-1.32,1.25-1.28,0-12.38c0-8-.14-12.66-.44-13.3-1.08-2.2-1.77-2.28-16-2.31C637.25,553.3,636.39,553.33,635.05,554.09Z" transform="translate(-194.19 -96.5)"/><path d="M673.31,554.93c-2.42,1.19-2.51,1.83-2.53,14.82,0,11.1,0,12,.83,13.18,1.34,2,2.59,2.2,16.93,2.07l12.82-.09,1.3-1.16,1.34-1.2,0-12.78c0-11.54-.07-12.9-.76-13.66-1.46-1.68-2.11-1.76-15.71-1.79C676.85,554.34,674.26,554.41,673.31,554.93Z" transform="translate(-194.19 -96.5)"/><path d="M714.74,555.58a5,5,0,0,0-1.86,2.07c-.31.84-.49,5.23-.5,12.62,0,9.83.06,11.58.71,12.78,1.2,2.4,2,2.52,16,2.55,6.87,0,13-.13,13.56-.33a7,7,0,0,0,2-1.27c.87-.88.91-1.28.94-13.7,0-11.55-.06-12.91-.75-13.67-1.47-1.68-2.12-1.76-15.72-1.79C717.07,554.82,716,554.9,714.74,555.58Z" transform="translate(-194.19 -96.5)"/><path d="M751.26,552.11c-2.37,1.24-2.37,1.16-2.4,15,0,12.42,0,12.82.88,13.7a6.86,6.86,0,0,0,2,1.28c.61.21,13.43.39,31.14.43,27.8,0,30.22,0,31.61-.66,2.59-1.19,2.59-1.39,2.53-15.14l-.1-12.5-1.21-1.08L814.52,552l-31.21-.14C761.07,551.73,751.87,551.84,751.26,552.11Z" transform="translate(-194.19 -96.5)"/><path d="M823.37,553.38l-1.47,1.35,0,12.55c0,13.9,0,13.82,2.82,14.94,2.07.8,25.47.85,27.54.06,2.86-1.12,2.86-1,2.88-14.94l0-12.54-1.47-1.36-1.46-1.36-13.69,0-13.69,0Z" transform="translate(-194.19 -96.5)"/><path d="M258.53,589.19c-2.08,1.07-2.16,1.59-2.23,14.53,0,13.19.06,13.75,2.39,14.87,1.68.88,38.77.95,40.46.12,2.37-1.16,2.51-2.07,2.4-15.46l-.1-12.22L300,589.87l-1.38-1.16-19.56,0C263.71,588.68,259.35,588.79,258.53,589.19Z" transform="translate(-194.19 -96.5)"/><path d="M307.39,590.07l-1.34,1,0,13.06,0,13.11,1,.84a6.59,6.59,0,0,0,2.5,1.28c1.94.52,23.92.57,25.95.05A5.87,5.87,0,0,0,338,618c.82-1,.87-1.52.89-13.78l0-12.78-1.24-1.16-1.25-1.16-13.82,0-13.82,0Z" transform="translate(-194.19 -96.5)"/><path d="M343.65,590.37l-1.25,1.15,0,12.94,0,13,1,.84a6.59,6.59,0,0,0,2.5,1.28c1.9.52,23.92.57,25.91,0a7.62,7.62,0,0,0,2.59-1.43l1-1,0-12.78,0-12.78L374,590.43l-1.38-1.17-13.86,0-13.86,0Z" transform="translate(-194.19 -96.5)"/><path d="M380.23,589.43l-1.34,1.16,0,12.86,0,12.86,1.21,1.13c1.68,1.56,3.06,1.68,16.71,1.55,12.86-.1,13.47-.22,14.68-2.53.61-1.16.66-3.08.59-13.58l-.1-12.22-1.43-1.17-1.38-1.16-13.77,0-13.78,0Z" transform="translate(-194.19 -96.5)"/><path d="M418.63,589.58l-1.34,1.24,0,12.78,0,12.78,1.21,1.12c1.68,1.57,3.06,1.69,16.92,1.56,12.83-.1,13-.14,14.43-2.33.6-.92.69-2.76.72-13.34l0-12.27-1.47-1.36-1.46-1.36-13.82,0-13.82,0Z" transform="translate(-194.19 -96.5)"/><path d="M456.93,589.13c-1.82,1.36-1.9,2-1.93,14.86l0,12.46,1.2,1.12c1.68,1.56,3.06,1.69,16.93,1.55,10.49-.09,12-.17,13-.81,2-1.23,2.11-1.91,2.14-14.69,0-13.07-.1-13.71-2.43-14.71-.69-.28-5.7-.45-14.51-.47C459.18,588.42,457.75,588.5,456.93,589.13Z" transform="translate(-194.19 -96.5)"/><path d="M495.14,588.92a4.81,4.81,0,0,0-1.6,1.56c-.65,1-.74,2.63-.76,13.14,0,12.78.06,13.46,2.08,14.7,1,.64,2.51.73,13,.87,14,.19,15.07.07,16.84-1.53l1.3-1.23,0-12.31c0-8.7-.14-12.66-.49-13.38-1-2.12-1.76-2.2-16.19-2.19C501.36,588.54,495.7,588.69,495.14,588.92Z" transform="translate(-194.19 -96.5)"/><path d="M533.1,589.9l-1.47,1.35,0,12.22c0,13,0,13.67,2.08,14.91,1,.64,2.51.72,13,.86,13.86.19,15.24.07,16.93-1.48l1.21-1.12,0-12.78,0-12.78-1.34-1.24-1.33-1.24-13.82,0-13.82,0Z" transform="translate(-194.19 -96.5)"/><path d="M569.7,589.77l-1.43,1.15-.15,12.22c-.11,10.35,0,12.43.53,13.55,1.25,2.44,1.42,2.48,14.46,2.62,13.86.19,15.24.07,16.93-1.48l1.21-1.12,0-12.86,0-12.86L600,589.83l-1.34-1.17-13.78,0-13.77,0Z" transform="translate(-194.19 -96.5)"/><path d="M605.19,590.83,603.76,592l0,12.78,0,12.78,1,1a7.5,7.5,0,0,0,2.59,1.45c2.07.52,24,.56,26,.05a6,6,0,0,0,2.51-1.47c.82-1,.87-1.52.89-13.78l0-12.79-1.25-1.16-1.25-1.16-13.86,0-13.86,0Z" transform="translate(-194.19 -96.5)"/><path d="M642.73,591l-1.25,1.16,0,12.94,0,13,1,.84a6.75,6.75,0,0,0,2.5,1.29c1.9.52,23.92.56,25.91,0a7.74,7.74,0,0,0,2.59-1.44l1-1,.15-11c.2-12.9.07-14.18-1.61-15.74l-1.21-1.12-13.9,0-13.9,0Z" transform="translate(-194.19 -96.5)"/><path d="M686.28,591.08,685,592.24,685,605c0,12.26,0,12.78.83,13.78a5.91,5.91,0,0,0,2.5,1.48c2.08.53,24,.57,26,.06a7.79,7.79,0,0,0,2.6-1.44l1-1,0-12.79,0-12.78-1.42-1.16L715.25,590l-13.86,0-13.86,0Z" transform="translate(-194.19 -96.5)"/><path d="M725.91,590.15l-1.34,1.15,0,12.87,0,12.86,1.21,1.12c1.68,1.56,3.06,1.68,16.93,1.55,13-.09,13.21-.13,14.47-2.57.56-1.11.65-3.19.58-13.54l-.1-12.22-1.42-1.16-1.38-1.16L741,589l-13.77,0Z" transform="translate(-194.19 -96.5)"/><path d="M769.69,586.82c-2.33,1.44-2.38,1.68-2.4,14.22s0,12.82,2.21,14.34c1.08.77,2,.85,7.47,1l6.22.13,0,15.78,0,15.74,1.25,1.28,1.25,1.32,15.93.27c17.62.31,18.27.27,19.87-2l1-1.36.06-28.72c.06-31.51.15-30.55-2.48-32-1.13-.6-3.41-.68-25.18-.73C771.94,586.07,770.9,586.11,769.69,586.82Z" transform="translate(-194.19 -96.5)"/><path d="M830.23,585.74c-2.12,1.07-2.16,1.59-2.23,14.89l0,12.42,1.29,1.24c1.77,1.61,2.84,1.73,16.84,1.6,12.95-.1,13.47-.22,14.6-2.53.73-1.44.78-24.49,0-25.93-1-2.12-1.77-2.2-16.19-2.23C834.38,585.22,831,585.34,830.23,585.74Z" transform="translate(-194.19 -96.5)"/><path d="M267.34,622.14a4.87,4.87,0,0,0-2.25,1.51c-.86,1.12-.91,1.67-.93,13.42,0,13.3.06,13.94,2.43,14.94,1.47.64,51.65.7,52.94.11C322,651,322,651,322,637.34c0-12.14,0-12.66-.83-13.66a5.89,5.89,0,0,0-2.51-1.48C316.66,621.67,269.29,621.62,267.34,622.14Z" transform="translate(-194.19 -96.5)"/><path d="M329.23,625.43a5.83,5.83,0,0,0-3.42,3.07c-.13.48-.18,6.27-.11,12.94l.11,12.14,1.42,1.16,1.38,1.17,13.77,0,13.78,0,1.34-1.24,1.34-1.23,0-12.66c0-11-.07-12.75-.67-13.59-1.42-1.88-2.67-2-15.8-2C335.66,625.24,329.75,625.35,329.23,625.43Z" transform="translate(-194.19 -96.5)"/><path d="M365.69,623.5c-3.8,1.11-3.89,1.51-3.91,15,0,12.26.14,13.46,2.17,14.78.91.56,2.76.65,14.68.67l13.69,0,1.34-1.16,1.34-1.15,0-13c0-12.94,0-13-.93-13.82a9.77,9.77,0,0,0-2.2-1.24C390.69,623.27,367,623.06,365.69,623.5Z" transform="translate(-194.19 -96.5)"/><path d="M403.63,623.85c-2.85,1.19-2.76.79-2.83,14.73-.06,7.79.1,12.94.36,13.38,1.16,2,1.68,2.08,16.14,2.11,13,0,13.61,0,14.69-.81,1.9-1.35,2.12-2.83,2-15.33-.1-12.27-.15-12.55-2.22-13.83C430.41,623.3,405.53,623.05,403.63,623.85Z" transform="translate(-194.19 -96.5)"/><path d="M444,623.13c-2.76,1.16-2.76,1.08-2.79,15.14l0,12.74,1.34,1.16,1.34,1.16,13.77,0,13.77,0,1.39-1.16,1.43-1.15.15-12.23c.16-13.18,0-14.1-2.13-15.42C470.83,622.55,446,622.3,444,623.13Z" transform="translate(-194.19 -96.5)"/><path d="M483.17,623.65a5.33,5.33,0,0,0-2.24,1.4c-.87,1-.91,1.51-.94,13.7,0,11.34.06,12.7.75,13.46,1.47,1.68,2.12,1.76,16,1.79l13.43,0,1.38-1.16,1.43-1.15.15-12.31c.16-13.18.07-13.94-2-15.22-1-.64-2.37-.72-13.85-.83C490.26,623.31,484,623.42,483.17,623.65Z" transform="translate(-194.19 -96.5)"/><path d="M521,622.65a5.37,5.37,0,0,0-2.25,1.4c-.87,1-.91,1.55-.93,13.42,0,13.38.05,14.06,2.34,15,.78.32,5,.49,14.51.51l13.43,0,1.47-1.36,1.47-1.35L551,638c0-11.46,0-12.38-.83-13.58a3.94,3.94,0,0,0-2.46-1.68C545.7,622.18,522.9,622.14,521,622.65Z" transform="translate(-194.19 -96.5)"/><path d="M558.87,622.88a4.1,4.1,0,0,0-2.25,1.67c-.82,1.2-.87,2.08-.89,13.38,0,13.18.06,13.82,2.43,14.83,1.42.6,26.9.65,28.33,0,2.37-1,2.46-1.59,2.49-15,0-11.83,0-12.39-.84-13.39a5.91,5.91,0,0,0-2.5-1.48C583.61,622.37,560.81,622.36,558.87,622.88Z" transform="translate(-194.19 -96.5)"/><path d="M596.14,622.68a4.15,4.15,0,0,0-2.25,1.68c-.82,1.19-.87,2.07-.89,13.58l0,12.34,1.46,1.36,1.47,1.36,13.47,0c14,0,14.59,0,16.07-1.73.69-.76.78-2.11.8-13.46,0-12.14,0-12.66-.84-13.66a5.85,5.85,0,0,0-2.5-1.48C620.88,622.17,598.08,622.17,596.14,622.68Z" transform="translate(-194.19 -96.5)"/><path d="M633.62,622.52a4.71,4.71,0,0,0-3.2,2.47c-.35.76-.49,4.84-.42,13.38l.11,12.31,1.42,1.16,1.38,1.16,13.43,0c13.9,0,14.55,0,16-1.73.69-.76.78-2.11.8-13.42,0-11-.06-12.7-.66-13.54-1.42-1.88-2.67-2-15.8-2C640,622.34,634.09,622.44,633.62,622.52Z" transform="translate(-194.19 -96.5)"/><path d="M670,623.92a5.1,5.1,0,0,0-3.38,3.47c-.17.68-.23,6.51-.15,12.94l.1,11.75,1.43,1.16,1.37,1.16,13.78,0,13.77,0,1.34-1.16,1.35-1.16,0-12.94c0-12.94,0-13-.92-13.82-1.85-1.56-3-1.68-15.59-1.67C676.41,623.74,670.49,623.85,670,623.92Z" transform="translate(-194.19 -96.5)"/><path d="M708.56,625a5.72,5.72,0,0,0-2.16,1.36l-1.25,1.19L705,638.61c-.2,13.1-.07,14.18,1.69,15.74l1.3,1.12,13.73,0,13.73,0,1.34-1.15,1.34-1.16,0-12.94,0-12.94-1.33-1.2-1.3-1.16-13-.07C715.34,624.85,709,624.87,708.56,625Z" transform="translate(-194.19 -96.5)"/><path d="M745.94,623.22a9.08,9.08,0,0,0-2,1.23c-1,.84-1,.88-1,13.82l0,13,1.33,1.16,1.34,1.16,13.77,0,13.78,0,1.38-1.15,1.43-1.16.15-12.22c.15-10.39.07-12.42-.49-13.5-1.29-2.52-1.33-2.52-15.58-2.63C751.9,622.87,746.63,623,745.94,623.22Z" transform="translate(-194.19 -96.5)"/><path d="M839.93,620.37a5.3,5.3,0,0,0-2.25,1.4c-.87,1-.91,1.55-.93,13.42,0,13.46,0,14.06,2.43,15.06.69.28,5.65.45,14.16.47s13.47-.14,14.16-.41c2.38-1,2.47-1.64,2.49-14.94,0-11.7,0-12.3-.83-13.42a5.25,5.25,0,0,0-2.5-1.56C864.67,619.9,841.87,619.86,839.93,620.37Z" transform="translate(-194.19 -96.5)"/><path d="M276.64,655.69a5.38,5.38,0,0,0-1.86,1.43c-.86,1-.9,1.4-.93,13.5,0,13.62,0,13.58,2.56,14.83,1,.52,3.89.6,17,.63,10.11,0,16.19-.13,17.06-.41,2.63-.83,2.68-1,2.71-15,0-13.78,0-13.7-2.44-14.86C309.59,655.27,278.07,655.13,276.64,655.69Z" transform="translate(-194.19 -96.5)"/><path d="M325.93,659.17a4.66,4.66,0,0,0-1.82,1.83c-.26.56-.44,6.11-.46,12.79,0,13,.06,13.54,2.57,14.74,1.12.56,3.28.61,14.72.55l13.43-.1,1.25-1.31,1.26-1.28,0-12.62,0-12.62-1.47-1.36L354,658.43l-13.3,0C328.13,658.38,327.27,658.41,325.93,659.17Z" transform="translate(-194.19 -96.5)"/><path d="M364.2,658.28a5.41,5.41,0,0,0-1.86,1.43c-.86,1-.91,1.4-.93,13.54,0,11.79,0,12.55.84,13.47,1.55,1.88,2.37,2,16.57,1.87l13.3-.1,1.26-1.31,1.25-1.28,0-12.58,0-12.58-1.25-1.28-1.25-1.32L378.63,658C371.2,658,364.68,658.08,364.2,658.28Z" transform="translate(-194.19 -96.5)"/><path d="M403.79,657.84a5.33,5.33,0,0,0-1.86,1.44c-.86,1-.91,1.39-.93,13.58l0,12.54,1.24,1.28,1.25,1.32,13.56.15c12.91.1,13.56.06,14.94-.69a4.62,4.62,0,0,0,1.82-1.84c.26-.56.45-6.07.46-12.74s-.15-12.18-.41-12.74A4.58,4.58,0,0,0,432,658.3c-1.33-.76-2.15-.81-14.38-.79C410.53,657.5,404.27,657.64,403.79,657.84Z" transform="translate(-194.19 -96.5)"/><path d="M443.6,658.5c-2.38,1.19-2.38,1.11-2.41,14.93,0,12.43,0,12.83.88,13.71a6.91,6.91,0,0,0,2,1.28c.56.2,6.69.37,13.55.38,13.82,0,14.9-.13,16.11-2.32,1-1.76,1.09-24.25.1-26-1.29-2.32-1.9-2.4-16.28-2.43C448.87,658.07,444.16,658.18,443.6,658.5Z" transform="translate(-194.19 -96.5)"/><path d="M480,658.21c-2.16,1.2-2.38,2.56-2.23,15.5.1,12.7.19,13.14,3,14,1.81.6,25.65.65,27.46,0,2.64-.83,2.68-1,2.71-15,0-11.43-.06-12.79-.75-13.55-1.46-1.68-2.11-1.76-15.71-1.79C482.28,657.42,481.33,657.46,480,658.21Z" transform="translate(-194.19 -96.5)"/><path d="M517.31,658.93c-2.42,1.19-2.51,1.83-2.53,14.82,0,11.1,0,12,.83,13.18,1.34,2,2.59,2.2,16.93,2.07l12.82-.09,1.3-1.16,1.34-1.2,0-12.78c0-13.58,0-13.38-2.13-14.74-.95-.6-2.51-.69-14.25-.71C520.85,658.34,518.26,658.41,517.31,658.93Z" transform="translate(-194.19 -96.5)"/><path d="M552.94,658.35a4.68,4.68,0,0,0-1.82,1.84c-.26.56-.44,6.07-.46,12.74s.15,12.18.41,12.74a4.65,4.65,0,0,0,1.81,1.84c1.38.76,2,.81,14.94.75l13.56-.09,1.25-1.32,1.26-1.27,0-12.59,0-12.58-1.25-1.28-1.25-1.32-13.56-.15C555,657.56,554.32,657.6,552.94,658.35Z" transform="translate(-194.19 -96.5)"/><path d="M590.79,658.84a5.33,5.33,0,0,0-1.86,1.44c-.86,1-.91,1.39-.93,13.58l0,12.54,1.24,1.28,1.25,1.32,13.3.15c14.21.14,15,.07,16.59-1.81.82-.92.87-1.67.89-13.42,0-13.62,0-13.58-2.56-14.82-1-.48-3.5-.61-14.12-.59C597.49,658.5,591.27,658.64,590.79,658.84Z" transform="translate(-194.19 -96.5)"/><path d="M627.19,659.12c-2.16,1.35-2.12,1.15-2.19,14.74l0,12.78,1.34,1.2L627.6,689l12.83.15c14.33.18,15.59,0,16.93-2,.82-1.2.87-2.07.89-13.18,0-9.87-.11-12.1-.62-13.06-1.29-2.32-1.9-2.4-16.28-2.43C629.69,658.45,628.14,658.52,627.19,659.12Z" transform="translate(-194.19 -96.5)"/><path d="M665,658.24c-2.38,1.19-2.38,1.11-2.41,14.82,0,14,0,14.18,2.65,15,.82.28,6,.45,13.82.47,14.12,0,15-.13,16.11-2.53.91-2,1-23.56.09-25.6-1.16-2.52-1.72-2.6-16.31-2.63C670.27,657.81,665.56,657.92,665,658.24Z" transform="translate(-194.19 -96.5)"/><path d="M704.35,658.25c-2.37,1.2-2.5,1.83-2.53,14.74,0,9.94.06,12,.67,13,1.2,2.2,2.28,2.36,16.1,2.39,6.86,0,13-.14,13.56-.33a7,7,0,0,0,2-1.28c.86-.88.91-1.27.93-13.7,0-11.54-.06-12.9-.75-13.66-1.47-1.68-2.11-1.76-15.71-1.79C707.9,657.66,705.31,657.73,704.35,658.25Z" transform="translate(-194.19 -96.5)"/><path d="M748,656.7a4.63,4.63,0,0,0-1.81,1.83c-.27.56-.45,6.07-.46,12.75s.15,12.18.4,12.74a4.72,4.72,0,0,0,1.81,1.84c1.39.76,2.21.8,26.56.85,14.59,0,25.56-.11,26.17-.31a7,7,0,0,0,2-1.27c.86-.88.91-1.28.93-13.7,0-13.9,0-13.82-2.43-15-.65-.33-8.46-.46-26.34-.5C750.23,655.91,749.41,655.94,748,656.7Z" transform="translate(-194.19 -96.5)"/><path d="M810.54,654.93a4.66,4.66,0,0,0-1.82,1.83c-.26.56-.44,6.07-.46,12.74s.15,12.19.41,12.75a4.65,4.65,0,0,0,1.81,1.84c1.38.76,2,.8,14.94.75l13.56-.1,1.25-1.31,1.26-1.28,0-12.58,0-12.58-1.25-1.28L839,654.38l-13.56-.14C812.57,654.13,811.92,654.17,810.54,654.93Z" transform="translate(-194.19 -96.5)"/><path d="M852.54,656.14a5.42,5.42,0,0,0-1.86,1.44c-.86,1-.91,1.4-.93,13.5,0,13.62,0,13.58,2.56,14.82,1.86.89,26.21.93,28.07.06,2.59-1.23,2.59-1.19,2.62-14.86l0-12.5-1.25-1.28L880.53,656,867,655.89C859.54,655.84,853,656,852.54,656.14Z" transform="translate(-194.19 -96.5)"/><path d="M281.88,693.65a4.81,4.81,0,0,0-1.6,1.56c-.65,1-.74,2.63-.76,13.38,0,11.7,0,12.3.83,13.42a5.24,5.24,0,0,0,2.51,1.56c2.15.56,49,.66,51.12.1a5.87,5.87,0,0,0,2.51-1.47c.82-1,.86-1.52.89-13.66,0-13.7,0-13.62-2.43-14.78C333.7,693.15,283.22,693.09,281.88,693.65Z" transform="translate(-194.19 -96.5)"/><path d="M347,694.49l-1.43,1.15-.15,12.23c-.11,10.34,0,12.42.53,13.54,1.25,2.44,1.33,2.48,15.11,2.62,13.51.19,15.11,0,16.58-1.76.87-1,.91-1.52.94-13.78l0-12.78-1.33-1.16-1.34-1.16-13.77,0-13.78,0Z" transform="translate(-194.19 -96.5)"/><path d="M388.46,694.45l-1.34,1.15,0,12.95c0,12.94,0,13,1,13.82,1.76,1.56,3,1.68,15.45,1.71,12.87,0,13.95-.1,15.72-2,.83-.84.87-1.44.89-13.66l0-12.78-1.42-1.16-1.38-1.16-13.78,0-13.77,0Z" transform="translate(-194.19 -96.5)"/><path d="M426.05,694.6l-1.34,1.23,0,12.78,0,12.79,1.2,1.12c1.69,1.56,3.07,1.68,16.93,1.55,12.82-.1,13-.14,14.43-2.33.6-.92.69-2.76.71-13.34l0-12.26-1.47-1.36L455,693.41l-13.82,0-13.82,0Z" transform="translate(-194.19 -96.5)"/><path d="M476.92,694.22c-2.12,1.08-2.16,1.6-2.23,14.86,0,11.94,0,12.46.83,13.46A5.91,5.91,0,0,0,478,724c2.29.57,167.11.89,168.8.3a9.77,9.77,0,0,0,2.2-1.24c1-.83,1-.87,1-13.82l0-12.94-1.25-1.16L647.53,694l-84.81-.17C493.2,693.74,477.78,693.78,476.92,694.22Z" transform="translate(-194.19 -96.5)"/><path d="M658.51,692.15l-1.34,1.16,0,12.86,0,12.86,1.21,1.12c1.68,1.57,3.06,1.69,16.92,1.56,13-.1,13.22-.14,14.47-2.57.57-1.12.66-3.2.59-13.54l-.11-12.23-1.42-1.16-1.38-1.16-13.77,0-13.78,0Z" transform="translate(-194.19 -96.5)"/><path d="M698,691.44c-2.38,1.19-2.38,1.11-2.41,14.81l0,12.74,1.21,1.12c1.68,1.57,3.06,1.69,16.92,1.56,10.49-.1,12-.18,13-.82,2-1.23,2.12-1.91,2.14-14.89l0-12.23-1.47-1.36L725.89,691l-13.52,0C703.35,691,698.51,691.12,698,691.44Z" transform="translate(-194.19 -96.5)"/><path d="M735.07,691.37a4.81,4.81,0,0,0-1.6,1.56c-.65,1-.74,2.63-.76,13.26,0,11.26,0,12.18.83,13.38a3.94,3.94,0,0,0,2.46,1.68c2.24.61,31.18.66,32.82.07a9.77,9.77,0,0,0,2.2-1.24c1-.83,1-.87,1-13.82l0-12.94-1.34-1.16L769.35,691H752.64C742.36,691,735.63,691.13,735.07,691.37Z" transform="translate(-194.19 -96.5)"/><path d="M776.33,692.26,775,693.42l0,13,0,13,1.29,1a7.09,7.09,0,0,0,2.72,1.25c.78.16,6.91.21,13.69.15,13.51-.1,13.64-.14,14.94-2.61.57-1.08.66-3.12.55-13.5L808,693.48l-1.42-1.16-1.38-1.16-13.77,0-13.78,0Z" transform="translate(-194.19 -96.5)"/><path d="M816.79,691.66c-2.38,1.19-2.38,1.11-2.4,14.81l0,12.74,1.21,1.12c1.68,1.56,3.06,1.69,16.92,1.56,10.5-.1,12-.18,13-.82,2-1.23,2.12-1.91,2.15-14.89l0-12.23-1.46-1.36-1.47-1.36-13.52,0C822.19,691.23,817.35,691.34,816.79,691.66Z" transform="translate(-194.19 -96.5)"/><path d="M861.15,691.79a4.81,4.81,0,0,0-1.6,1.56c-.65,1-.74,2.63-.77,13.38,0,11.7,0,12.3.84,13.42a5.29,5.29,0,0,0,2.5,1.57c2.12.52,24.4.56,26.52,0a5.2,5.2,0,0,0,2.5-1.56c.83-1.11.87-1.71.89-13.42,0-13.3,0-13.94-2.43-14.94C888.26,691.29,862.44,691.24,861.15,691.79Z" transform="translate(-194.19 -96.5)"/><rect class="cls-8" x="47.81" y="400.5" width="27" height="17"/><rect class="cls-8" x="579.81" y="399.5" width="27" height="17"/></g></g><g id="Taskleiste"><polyline id="HomeIcon" class="cls-9" points="18.7 374.68 72.67 374.68 612.41 374.68 661.86 374.68 662.04 393.38 18.7 393.38 18.7 374.68"/><g id="WindowsIcon"><polygon class="cls-10" points="21.6 381.44 21.6 384.29 25.52 384.29 25.52 380.67 21.6 381.44"/><polygon class="cls-10" points="25.52 384.29 29.58 384.37 29.58 380.02 25.52 380.67 25.52 384.29"/><polygon class="cls-10" points="21.6 386.73 21.6 384.1 25.52 384.1 25.52 387.44 21.6 386.73"/><polygon class="cls-10" points="25.52 384.1 29.58 384.03 29.58 388.04 25.52 387.44 25.52 384.1"/></g><g id="WordIconaufLeiste"><polyline id="WordIconFeld" class="cls-11" points="33.85 375.22 47.44 375.22 47.44 392.31 33.85 392.31 33.85 375.22 47.44 375.22"/><rect class="cls-12" x="38.05" y="379.22" width="5.56" height="7.21"/><polygon class="cls-13" points="38.05 379.22 43.61 376.31 43.61 379.22 38.05 379.22"/><line class="cls-12" x1="41.19" y1="377.89" x2="43.44" y2="377.89"/><line class="cls-12" x1="41.19" y1="378.42" x2="43.44" y2="378.42"/><line class="cls-12" x1="41.19" y1="378.96" x2="43.44" y2="378.96"/><text class="cls-14" transform="translate(39.26 384.06) scale(0.91 1)">W</text></g><g id="WordIconaufLeiste-2" data-name="WordIconaufLeiste"><polyline id="WordIconFeld-2" data-name="WordIconFeld" class="cls-11" points="47.88 375.22 61.47 375.22 61.47 392.31 47.88 392.31 47.88 375.22 61.47 375.22"/></g><g id="YoutubeIconLeiste"><rect class="cls-15" x="49.42" y="379.29" width="10.16" height="7.34" rx="3.67"/><path class="cls-16" d="M247.63,478.16v2.52c0,.09.06.15.12.12l2.46-1.3a.16.16,0,0,0,0-.28l-2.48-1.17S247.63,478.08,247.63,478.16Z" transform="translate(-194.19 -96.5)"/></g><g id="WLAN"><path class="cls-17" d="M790.51,484.27h0a3.54,3.54,0,0,1,3.46-3.61h.7" transform="translate(-194.19 -96.5)"/><path class="cls-17" d="M787.17,484.27h0c0-4,2.79-7.21,6.24-7.21h1.26" transform="translate(-194.19 -96.5)"/><path class="cls-17" d="M788.9,484.27h0c0-3,2.15-5.41,4.8-5.41h1" transform="translate(-194.19 -96.5)"/><ellipse class="cls-18" cx="599.28" cy="386.57" rx="1.05" ry="1.2"/></g><polyline id="Dropdown" class="cls-17" points="577.79 387.7 582.04 383.3 586.28 387.7"/><text class="cls-19" transform="translate(636.31 381.99) scale(0.91 1)">06:00<tspan x="-8.45" y="8.97">25.06.2021</tspan></text><g id="Lautstaerke"><polygon class="cls-17" points="613.6 389.37 607.25 386.13 607.25 383.34 613.6 380.56 613.6 389.37"/><path class="cls-17" d="M809.52,478.91h0a3.6,3.6,0,0,1,.25,3.45l-.25.56" transform="translate(-194.19 -96.5)"/><path class="cls-17" d="M810.09,477.59h0a4.5,4.5,0,0,1,.45,6.27l-.45.56" transform="translate(-194.19 -96.5)"/></g></g><g id="youtube-Fenster"><g id="YoutubeIconLeiste-2" data-name="YoutubeIconLeiste"><polyline id="FensterWordausgewaehlt" class="cls-20" points="48.37 374.68 62 374.68 62 391.78 48.37 391.78 48.37 374.68 62 374.68"/><rect class="cls-15" x="49.42" y="379.29" width="10.16" height="7.34" rx="3.67"/><path class="cls-16" d="M247.63,478.16v2.52c0,.09.06.15.12.12l2.46-1.3a.16.16,0,0,0,0-.28l-2.48-1.17S247.63,478.08,247.63,478.16Z" transform="translate(-194.19 -96.5)"/></g><polygon class="cls-21" points="18.7 9.31 66.39 9.31 661.86 9.31 661.86 374.68 18.7 374.68 18.7 9.31"/><g id="ObereLeisteYoutube"><polyline id="youtubeLeiste" class="cls-22" points="18.7 44.73 661.86 44.73 661.86 27.21 18.7 27.21 18.7 44.73"/><g id="Hamburgermenu"><line class="cls-17" x1="23.54" y1="32.55" x2="31.03" y2="32.55"/><line class="cls-17" x1="23.54" y1="34.69" x2="31.03" y2="34.69"/><line class="cls-17" x1="23.54" y1="36.82" x2="31.03" y2="36.82"/></g><g id="YoutubeIconLeiste-3" data-name="YoutubeIconLeiste"><rect class="cls-15" x="40.81" y="31.5" width="12" height="7" rx="1.93"/><path class="cls-16" d="M240,129.88v2.52c0,.09.06.15.12.12l2.46-1.3a.16.16,0,0,0,0-.28l-2.48-1.17S240,129.8,240,129.88Z" transform="translate(-194.19 -96.5)"/><text class="cls-23" transform="translate(52.91 36.78) scale(0.91 1)">Y<tspan class="cls-24" x="3.72" y="0">o</tspan><tspan class="cls-25" x="7.57" y="0">u</tspan><tspan class="cls-26" x="10.92" y="0">T</tspan><tspan class="cls-27" x="14.25" y="0">u</tspan><tspan class="cls-28" x="18.1" y="0">b</tspan><tspan class="cls-29" x="22.01" y="0">e</tspan></text></g><g id="Suche"><rect id="Suchefeld" class="cls-30" x="251.9" y="30.41" width="159.66" height="10.68"/><text class="cls-31" transform="translate(254.07 37.28) scale(0.91 1)">Suchen</text><g id="Suchlinse"><rect class="cls-32" x="401.8" y="30.41" width="9.75" height="10.68"/><path class="cls-33" d="M598.51,131.43a1.31,1.31,0,0,1-.27-.8h0v-.54l0-.1a3.08,3.08,0,0,1,.45-.93h0a.39.39,0,0,1,.17-.14h0c.23-.14.32-.14.8-.14h.81a1.84,1.84,0,0,1,1,1l.13.31,0,.07a3.15,3.15,0,0,1,.17,1.4h0l-.19.52,1.5,2.26-.39.33-1.7-2.14h-.21a2.09,2.09,0,0,1-.55-.08h0a1.65,1.65,0,0,1-.36-.16l-.36-.17-.56-.31h0A1.17,1.17,0,0,1,598.51,131.43Z" transform="translate(-194.19 -96.5)"/><ellipse class="cls-30" cx="600.06" cy="130.6" rx="1.04" ry="1.57" transform="translate(-162.84 265.8) rotate(-34.45)"/></g></g><g id="Profil"><ellipse class="cls-34" cx="653.46" cy="36.29" rx="6.29" ry="6.94"/><ellipse cx="653.22" cy="33.89" rx="2.42" ry="2.67"/><path d="M843.73,137.13l.88-3.75a1,1,0,0,1,.9-.86h2.94a1.34,1.34,0,0,1,1.19.92l1.57,3.75a.78.78,0,0,1-.27,1h0a7.08,7.08,0,0,1-6.83,0h0A.94.94,0,0,1,843.73,137.13Z" transform="translate(-194.19 -96.5)"/></g><g id="Gloeckchen"><path class="cls-35" d="M830.39,126.79a.86.86,0,0,1,1.19-.07l1,.82h0a5.87,5.87,0,0,0,1,3.35l.25.66c.57.81.24,1.52-.57,2h-4.06c-.86-.51-1.3-1.2-.69-2l.21-.56a4.63,4.63,0,0,0,.85-2.38l0-.68a1,1,0,0,1,.28-.66Z" transform="translate(-194.19 -96.5)"/><path class="cls-32" d="M831,133.59h0a2.61,2.61,0,0,1,.74,0h0" transform="translate(-194.19 -96.5)"/></g><g id="Tab"><polygon class="cls-36" points="18.7 27.21 23.54 10.94 69.87 10.94 75.59 27.21 18.7 27.21"/><g id="YoutubeIconLeiste-4" data-name="YoutubeIconLeiste"><rect class="cls-15" x="22.81" y="15.5" width="12" height="7" rx="1.93"/><path class="cls-16" d="M222,114.39v2.52c0,.09.06.15.12.12l2.46-1.3a.16.16,0,0,0,0-.28l-2.48-1.17S222,114.31,222,114.39Z" transform="translate(-194.19 -96.5)"/><text class="cls-37" transform="translate(36.35 19.86) scale(0.91 1)">(<tspan class="cls-38" x="1.09" y="0">+</tspan><tspan class="cls-39" x="3.71" y="0">9</tspan><tspan class="cls-40" x="6.27" y="0">9</tspan><tspan class="cls-41" x="8.58" y="0">) </tspan><tspan class="cls-42" x="10.8" y="0">Y</tspan><tspan class="cls-43" x="13.44" y="0">o</tspan><tspan class="cls-44" x="15.91" y="0">u</tspan><tspan class="cls-45" x="17.97" y="0">T</tspan><tspan class="cls-46" x="20.33" y="0">u</tspan><tspan class="cls-47" x="22.77" y="0">b</tspan><tspan class="cls-41" x="25.25" y="0">e - </tspan><tspan class="cls-48" x="30.79" y="0">V</tspan><tspan class="cls-49" x="33.86" y="0">i</tspan><tspan class="cls-41" x="34.61" y="0">...</tspan></text></g></g><g id="xButton"><path class="cls-50" d="M840.15,106.35v5c0,.76,1.13,1.38,2.52,1.39l13,.05v-6.41Z" transform="translate(-194.19 -96.5)"/><text class="cls-19" transform="translate(651.79 15.71) scale(0.91 1)">X</text></g><g id="Verkleinern"><rect class="cls-51" x="639.24" y="10.38" width="3.82" height="2.93"/><rect class="cls-51" x="636.77" y="12.26" width="3.82" height="2.93"/></g><line id="Minimieren" class="cls-52" x1="628.23" y1="13.05" x2="633.53" y2="13.05"/><g id="newTab"><line class="cls-52" x1="78.45" y1="17.44" x2="82.8" y2="17.44"/><line class="cls-52" x1="80.59" y1="15.72" x2="80.59" y2="19.49"/></g></g><g id="Video"><rect class="cls-1" x="43.37" y="60.33" width="458.65" height="237.17"/><g id="Zeitleiste"><rect class="cls-53" x="43.31" y="274" width="457" height="3"/><rect class="cls-54" x="43.31" y="274" width="52" height="3"/><rect class="cls-55" x="43.31" y="274" width="5" height="3"/></g><rect class="cls-56" x="43.31" y="277" width="458" height="20"/><polygon id="play" class="cls-10" points="45.81 280.5 45.81 292.94 55.07 286.72 45.81 280.5"/><g id="nextVideo"><polygon class="cls-10" points="60.31 283.5 60.31 290.94 65.81 287.22 60.31 283.5"/><rect class="cls-10" x="67.31" y="283" width="2" height="9"/></g><g id="Lautstaerke-2" data-name="Lautstaerke"><polygon class="cls-10" points="89.31 295 84.56 292 79.81 292 79.81 283 84.56 283 89.31 279 89.31 295"/><path class="cls-17" d="M284.5,382v2.74h0a1.93,1.93,0,0,0,0-2.74Z" transform="translate(-194.19 -96.5)"/><path class="cls-17" d="M284.5,377.5l1.35,1.4a6.73,6.73,0,0,1,.34,8.94l-1.32,1.59" transform="translate(-194.19 -96.5)"/></g><text class="cls-57" transform="translate(97.94 288.56)">0<tspan class="cls-58" x="3.68" y="0">:</tspan><tspan class="cls-59" x="5.45" y="0">0</tspan><tspan class="cls-60" x="9.21" y="0">2</tspan><tspan class="cls-61" x="13.12" y="0">/</tspan><tspan class="cls-62" x="14.76" y="0">1</tspan><tspan x="18.31" y="0">0</tspan><tspan class="cls-58" x="21.99" y="0">:</tspan><tspan class="cls-63" x="23.75" y="0">0</tspan><tspan class="cls-64" x="27.66" y="0">0</tspan></text><path id="Einstellungen" class="cls-65" d="M640.25,375.26a8.08,8.08,0,0,0-2.08-.14,5.27,5.27,0,0,0-1.34.2c-.15,0-.16.05-.21.23a2.86,2.86,0,0,0,0,1.06,3.71,3.71,0,0,1,0,.55s0,0-.06,0a3.88,3.88,0,0,0-1.08.66s-.06.05-.08.05a.47.47,0,0,1-.19-.1l-.55-.43A3.43,3.43,0,0,0,634,377c-.12,0-.12,0-.25.08a8,8,0,0,0-1.1,1.39,6.31,6.31,0,0,0-.79,1.6l-.06.21v0c0,.15.26.29.86.59a2.13,2.13,0,0,1,.55.31s0,0,0,.09a1.59,1.59,0,0,0,0,.37,4.7,4.7,0,0,0,.08,1c0,.05,0,.06,0,.08s-.18.13-.63.31a2.38,2.38,0,0,0-.79.4l0,.05,0,.1c0,.15.12.43.19.61a7.78,7.78,0,0,0,1.59,2.56c.06.05.07.06.12.06a.57.57,0,0,0,.31-.09,5,5,0,0,0,.62-.41,1.9,1.9,0,0,1,.5-.32s.05,0,.11.06a4.44,4.44,0,0,0,1.2.68c.08,0,.09,0,.1.13a3.7,3.7,0,0,1-.05.5c-.11.76-.12,1,0,1.18l0,.06.21.05a5.62,5.62,0,0,0,1.57.16,7.45,7.45,0,0,0,1.87-.27c.15,0,.17-.06.2-.21a2.46,2.46,0,0,0,0-.87,1.4,1.4,0,0,1,0-.58v-.06l.08,0a2.35,2.35,0,0,0,.51-.24,3.6,3.6,0,0,0,.71-.46s0,0,0,0,.2.1.58.41a4,4,0,0,0,.64.47.79.79,0,0,0,.23.08,2.26,2.26,0,0,0,.46-.44,8.56,8.56,0,0,0,1.2-1.92,4.21,4.21,0,0,0,.28-.72c.08-.28.08-.29,0-.36s-.29-.26-.79-.49-.56-.27-.59-.33,0-.05,0-.11a3,3,0,0,0,0-.78,3,3,0,0,0,0-.57c0-.06,0-.08.06-.13a2.9,2.9,0,0,1,.53-.24,4.32,4.32,0,0,0,.67-.3.43.43,0,0,0,.21-.17,3.22,3.22,0,0,0-.15-.59,8,8,0,0,0-1.58-2.8c-.06-.05-.06-.05-.12-.05s-.4.11-1,.53a1.46,1.46,0,0,1-.51.3.21.21,0,0,1-.09-.06,4.55,4.55,0,0,0-1-.59l-.17-.06s-.06,0-.07-.11a4.77,4.77,0,0,1,.08-.64,4.38,4.38,0,0,0,.08-.75.66.66,0,0,0,0-.28l0,0-.14,0Zm-1,5.42a1.34,1.34,0,0,1,.64.55,1.17,1.17,0,0,1,.15.39,1.61,1.61,0,0,1,0,.78,1.38,1.38,0,0,1-.86,1.07,1.72,1.72,0,0,1-1.13-.06,1.32,1.32,0,0,1-.91-1.53,2,2,0,0,1,.2-.61,1.33,1.33,0,0,1,1-.73,2.19,2.19,0,0,1,.57,0Z" transform="translate(-194.19 -96.5)"/><rect id="KinoModusButton" class="cls-17" x="460.31" y="283" width="12" height="6"/><g id="Fullscreen"><polyline class="cls-17" points="491.77 285.19 491.77 281.5 487.69 281.5"/><polyline class="cls-17" points="482.81 285.81 482.81 289.5 486.89 289.5"/><polyline class="cls-17" points="491.77 285.81 491.77 289.5 487.69 289.5"/><polyline class="cls-17" points="482.81 285.19 482.81 281.5 486.89 281.5"/></g></g><g id="Videodaten"><text class="cls-66" transform="translate(42.29 320.25) scale(0.91 1)">V<tspan class="cls-67" x="14.96" y="0">i</tspan><tspan class="cls-68" x="18.37" y="0">d</tspan><tspan class="cls-69" x="30.22" y="0">e</tspan><tspan class="cls-70" x="42.17" y="0">o </tspan><tspan class="cls-71" x="59.25" y="0">T</tspan><tspan class="cls-72" x="72.6" y="0">i</tspan><tspan class="cls-73" x="75.87" y="0">t</tspan><tspan class="cls-74" x="80.4" y="0">e</tspan><tspan class="cls-70" x="92.33" y="0">l</tspan></text><text class="cls-75" transform="translate(42.6 342.85) scale(0.91 1)">3<tspan class="cls-76" x="6.07" y="0">1</tspan><tspan class="cls-77" x="12.09" y="0">4</tspan><tspan class="cls-78" x="17.76" y="0">1</tspan><tspan class="cls-79" x="23.81" y="0">5</tspan><tspan class="cls-80" x="30.46" y="0">9 </tspan><tspan class="cls-81" x="40.2" y="0">A</tspan><tspan class="cls-82" x="48.16" y="0">u</tspan><tspan class="cls-83" x="54.77" y="0">f</tspan><tspan class="cls-84" x="57.89" y="0">r</tspan><tspan class="cls-85" x="61.84" y="0">u</tspan><tspan class="cls-86" x="68.44" y="0">f</tspan><tspan class="cls-80" x="71.42" y="0">e </tspan><tspan class="cls-87" x="81.16" y="0">0</tspan><tspan class="cls-88" x="87.8" y="0">3</tspan><tspan class="cls-89" x="94.4" y="0">.</tspan><tspan class="cls-90" x="97.38" y="0">0</tspan><tspan class="cls-91" x="104.3" y="0">6</tspan><tspan class="cls-92" x="110.88" y="0">.</tspan><tspan class="cls-88" x="114.17" y="0">20</tspan><tspan class="cls-93" x="127.39" y="0">2</tspan><tspan class="cls-80" x="133.63" y="0">1</tspan></text></g><g id="ProfilUploader"><ellipse class="cls-94" cx="54.98" cy="358.93" rx="10.4" ry="11.48"/><text class="cls-95" transform="translate(70.62 365.42) scale(0.91 1)">M<tspan class="cls-96" x="10.31" y="0">P</tspan><tspan class="cls-80" x="18.26" y="0">M </tspan><tspan class="cls-97" x="31.55" y="0">W</tspan><tspan class="cls-98" x="43.22" y="0">U</tspan><tspan class="cls-80" x="52.07" y="0">M </tspan><tspan class="cls-88" x="65.37" y="0">20</tspan><tspan class="cls-93" x="78.58" y="0">2</tspan><tspan class="cls-80" x="84.83" y="0">1</tspan></text></g><g id="EmpfohleneVideos"><rect class="cls-18" x="530.33" y="60.59" width="54.67" height="35.79"/><rect class="cls-18" x="530.33" y="117.75" width="54.67" height="35.79"/><rect class="cls-18" x="530.33" y="174.37" width="54.67" height="35.79"/><rect class="cls-18" x="530.33" y="226.72" width="54.67" height="35.79"/><rect class="cls-18" x="530.33" y="283.87" width="54.67" height="35.79"/><rect class="cls-18" x="530.33" y="340.5" width="54.67" height="33.65"/><text class="cls-99" transform="translate(587.59 70) scale(0.91 1)">T<tspan class="cls-100" x="6.22" y="0">u</tspan><tspan class="cls-101" x="12.78" y="0">t</tspan><tspan class="cls-102" x="15.73" y="0">o</tspan><tspan class="cls-103" x="22.38" y="0">r</tspan><tspan class="cls-104" x="26.3" y="0">i</tspan><tspan class="cls-105" x="28.62" y="0">a</tspan><tspan class="cls-80" x="35.2" y="0">l </tspan><tspan class="cls-106" x="40.66" y="0">M</tspan><tspan class="cls-107" x="50.92" y="0">a</tspan><tspan class="cls-108" x="57.28" y="0">y</tspan><tspan class="cls-80" x="63.02" y="0">a </tspan><tspan class="cls-109"><tspan x="0" y="15.38">-</tspan><tspan class="cls-110" x="2.99" y="15.38">T</tspan><tspan class="cls-111" x="10.32" y="15.38">H</tspan><tspan class="cls-80" x="19.2" y="15.38">M</tspan></tspan></text><text class="cls-112" transform="translate(587.59 127.16) scale(0.91 1)">U<tspan class="cls-113" x="8.74" y="0">n</tspan><tspan class="cls-82" x="15.31" y="0">s</tspan><tspan class="cls-114" x="21.19" y="0">e</tspan><tspan class="cls-115" x="27.81" y="0">r</tspan><tspan class="cls-80" x="31.54" y="0">e </tspan><tspan class="cls-116"><tspan x="0" y="15.38">H</tspan><tspan class="cls-117" x="8.84" y="15.38">o</tspan><tspan class="cls-118" x="15.51" y="15.38">c</tspan><tspan class="cls-119" x="21.51" y="15.38">h</tspan><tspan class="cls-120" x="28.08" y="15.38">s</tspan><tspan class="cls-118" x="33.96" y="15.38">c</tspan><tspan class="cls-121" x="39.96" y="15.38">h</tspan><tspan class="cls-122" x="46.51" y="15.38">u</tspan><tspan class="cls-123" x="53.08" y="15.38">l</tspan><tspan class="cls-80" x="55.41" y="15.38">e - </tspan></tspan><tspan class="cls-110"><tspan x="0" y="30.77">T</tspan><tspan class="cls-111" x="7.33" y="30.77">H</tspan><tspan class="cls-80" x="16.21" y="30.77">M</tspan></tspan></text><text class="cls-124" transform="translate(587.59 183.78) scale(0.91 1)">V<tspan class="cls-102" x="7.45" y="0">o</tspan><tspan class="cls-125" x="14.1" y="0">r</tspan><tspan class="cls-126" x="18.33" y="0">t</tspan><tspan class="cls-127" x="21.43" y="0">r</tspan><tspan class="cls-105" x="25.21" y="0">a</tspan><tspan class="cls-80" x="31.79" y="0">g </tspan><tspan class="cls-128" x="41.54" y="0">z</tspan><tspan class="cls-80" x="47.31" y="0">u </tspan><tspan class="cls-80"><tspan x="0" y="15.38">I</tspan><tspan class="cls-129" x="3.09" y="15.38">EE</tspan><tspan x="18.92" y="15.38">E - </tspan><tspan class="cls-110" x="36.96" y="15.38">T</tspan><tspan class="cls-130" x="44.3" y="15.38">H</tspan><tspan x="53.17" y="15.38">M</tspan></tspan></text><text class="cls-131" transform="translate(587.59 236.66) scale(0.91 1)">Z<tspan class="cls-132" x="7.27" y="0">u</tspan><tspan x="13.82" y="0">k</tspan><tspan class="cls-133" x="19.67" y="0">u</tspan><tspan class="cls-134" x="26.22" y="0">n</tspan><tspan class="cls-135" x="32.75" y="0">f</tspan><tspan class="cls-80" x="36.18" y="0">t </tspan><tspan class="cls-136" x="42.35" y="0">v</tspan><tspan class="cls-137" x="48.06" y="0">o</tspan><tspan class="cls-80" x="54.7" y="0">n </tspan><tspan class="cls-138"><tspan x="0" y="15.38">K</tspan><tspan class="cls-80" x="8.09" y="15.38">I - </tspan><tspan class="cls-110" x="21.15" y="15.38">T</tspan><tspan class="cls-130" x="28.48" y="15.38">H</tspan><tspan class="cls-139" x="37.36" y="15.38">M</tspan></tspan></text><path class="cls-18" d="M782.69,389.79v-9.18h6v1.08h-4.91v2.81h4.6v1.08h-4.6v3.12h5.11v1.09Z" transform="translate(-194.19 -96.5)"/><path class="cls-18" d="M789.67,381.91v-1.3h1v1.3Zm0,7.88v-6.65h1v6.65Z" transform="translate(-194.19 -96.5)"/><path class="cls-18" d="M791.75,389.79v-6.65h.92v.94a2.1,2.1,0,0,1,1.91-1.09,2.36,2.36,0,0,1,1,.21,1.72,1.72,0,0,1,.69.57,2.28,2.28,0,0,1,.31.83,6.82,6.82,0,0,1,.06,1.1v4.09h-1v-4.05a3.31,3.31,0,0,0-.12-1,1.07,1.07,0,0,0-.42-.54,1.21,1.21,0,0,0-.71-.21,1.6,1.6,0,0,0-1.13.46,2.45,2.45,0,0,0-.47,1.74v3.63Z" transform="translate(-194.19 -96.5)"/><path class="cls-18" d="M797.68,389.79v-9.18h1v9.18Z" transform="translate(-194.19 -96.5)"/><path class="cls-18" d="M799.46,386.46a3.61,3.61,0,0,1,.93-2.73,2.62,2.62,0,0,1,1.89-.74,2.56,2.56,0,0,1,2,.9,3.6,3.6,0,0,1,.79,2.48,4.85,4.85,0,0,1-.35,2,2.61,2.61,0,0,1-1,1.14,2.78,2.78,0,0,1-1.46.41,2.57,2.57,0,0,1-2-.9A3.82,3.82,0,0,1,799.46,386.46Zm1,0a3.06,3.06,0,0,0,.5,1.92,1.57,1.57,0,0,0,1.27.63,1.55,1.55,0,0,0,1.27-.64,3.14,3.14,0,0,0,.5-1.95,2.9,2.9,0,0,0-.51-1.86,1.54,1.54,0,0,0-1.26-.64,1.57,1.57,0,0,0-1.27.63A3,3,0,0,0,800.51,386.46Z" transform="translate(-194.19 -96.5)"/><path class="cls-18" d="M805.7,390.34l1,.16a1.13,1.13,0,0,0,.35.74,1.57,1.57,0,0,0,1,.31,1.67,1.67,0,0,0,1.09-.31,1.54,1.54,0,0,0,.52-.88,7.4,7.4,0,0,0,.08-1.44,2,2,0,0,1-1.67.87,2.19,2.19,0,0,1-1.92-1,4.12,4.12,0,0,1-.68-2.38,4.77,4.77,0,0,1,.31-1.75,2.72,2.72,0,0,1,.9-1.24,2.25,2.25,0,0,1,1.4-.44,2.09,2.09,0,0,1,1.75.95v-.8h.95v5.74a5.94,5.94,0,0,1-.29,2.2,2.17,2.17,0,0,1-.91,1,2.89,2.89,0,0,1-1.53.37,2.7,2.7,0,0,1-1.74-.53A1.92,1.92,0,0,1,805.7,390.34Zm.85-4a3,3,0,0,0,.47,1.91,1.44,1.44,0,0,0,1.18.6,1.47,1.47,0,0,0,1.18-.59,3.07,3.07,0,0,0,.47-1.88,2.91,2.91,0,0,0-.49-1.84,1.46,1.46,0,0,0-1.18-.62,1.43,1.43,0,0,0-1.16.61A3,3,0,0,0,806.55,386.34Z" transform="translate(-194.19 -96.5)"/><path class="cls-18" d="M811.71,390.34l1,.16a1.08,1.08,0,0,0,.34.74,1.57,1.57,0,0,0,1,.31,1.67,1.67,0,0,0,1.09-.31,1.54,1.54,0,0,0,.52-.88,7.4,7.4,0,0,0,.08-1.44,2,2,0,0,1-1.67.87,2.19,2.19,0,0,1-1.92-1,4.12,4.12,0,0,1-.68-2.38,4.77,4.77,0,0,1,.31-1.75,2.67,2.67,0,0,1,.91-1.24,2.2,2.2,0,0,1,1.39-.44,2.09,2.09,0,0,1,1.75.95v-.8h1v5.74a5.94,5.94,0,0,1-.29,2.2,2.17,2.17,0,0,1-.91,1,2.89,2.89,0,0,1-1.53.37,2.7,2.7,0,0,1-1.74-.53A1.92,1.92,0,0,1,811.71,390.34Zm.85-4a3,3,0,0,0,.47,1.91,1.44,1.44,0,0,0,1.18.6,1.47,1.47,0,0,0,1.18-.59,3.07,3.07,0,0,0,.47-1.88,2.91,2.91,0,0,0-.49-1.84,1.46,1.46,0,0,0-1.18-.62,1.43,1.43,0,0,0-1.16.61A3,3,0,0,0,812.56,386.34Z" transform="translate(-194.19 -96.5)"/><path class="cls-18" d="M822,387.65l1.06.14a2.88,2.88,0,0,1-.93,1.58,2.57,2.57,0,0,1-1.72.57,2.64,2.64,0,0,1-2.1-.9,3.78,3.78,0,0,1-.77-2.52,4,4,0,0,1,.78-2.61,2.55,2.55,0,0,1,2-.92,2.46,2.46,0,0,1,2,.91,3.82,3.82,0,0,1,.76,2.55v.3h-4.49a2.66,2.66,0,0,0,.56,1.68,1.57,1.57,0,0,0,1.26.58,1.43,1.43,0,0,0,.95-.33A2.07,2.07,0,0,0,822,387.65Zm-3.35-1.83H822a2.31,2.31,0,0,0-.38-1.25,1.52,1.52,0,0,0-1.27-.66,1.58,1.58,0,0,0-1.18.52A2.2,2.2,0,0,0,818.68,385.82Z" transform="translate(-194.19 -96.5)"/><path class="cls-18" d="M823.89,389.79v-6.65h.92v.94a2.11,2.11,0,0,1,1.92-1.09,2.39,2.39,0,0,1,1,.21,1.69,1.69,0,0,1,.68.57,2.28,2.28,0,0,1,.32.83,6.82,6.82,0,0,1,.06,1.1v4.09h-1v-4.05a3.31,3.31,0,0,0-.12-1,1,1,0,0,0-.43-.54,1.21,1.21,0,0,0-.71-.21,1.57,1.57,0,0,0-1.12.46,2.4,2.4,0,0,0-.48,1.74v3.63Z" transform="translate(-194.19 -96.5)"/><path class="cls-18" d="M832.72,381.91v-1.3h1v1.3Zm0,7.88v-6.65h1v6.65Z" transform="translate(-194.19 -96.5)"/><path class="cls-18" d="M834.8,389.79v-6.65h.92v.94a2.1,2.1,0,0,1,1.91-1.09,2.33,2.33,0,0,1,1,.21,1.66,1.66,0,0,1,.69.57,2.28,2.28,0,0,1,.31.83,6.82,6.82,0,0,1,.06,1.1v4.09h-1v-4.05a3.31,3.31,0,0,0-.12-1,1.07,1.07,0,0,0-.42-.54,1.21,1.21,0,0,0-.71-.21,1.6,1.6,0,0,0-1.13.46,2.45,2.45,0,0,0-.47,1.74v3.63Z" transform="translate(-194.19 -96.5)"/><path class="cls-18" d="M782.34,400.7a5.33,5.33,0,0,1,1.11-3.58,3.83,3.83,0,0,1,4.94-.68,3.79,3.79,0,0,1,1.41,1.69,6,6,0,0,1,.49,2.46,5.88,5.88,0,0,1-.51,2.5,3.72,3.72,0,0,1-1.45,1.67,3.81,3.81,0,0,1-2,.57,3.66,3.66,0,0,1-2.1-.63,4,4,0,0,1-1.4-1.71A5.72,5.72,0,0,1,782.34,400.7Zm1.13,0a3.88,3.88,0,0,0,.81,2.61,2.63,2.63,0,0,0,4.07,0,4.17,4.17,0,0,0,.8-2.73,5.12,5.12,0,0,0-.34-2,2.79,2.79,0,0,0-1-1.29,2.55,2.55,0,0,0-1.49-.46,2.67,2.67,0,0,0-2,.88A4.24,4.24,0,0,0,783.47,400.72Z" transform="translate(-194.19 -96.5)"/><path class="cls-18" d="M791.22,405.17v-6.65h.91v1a2.13,2.13,0,0,1,1.92-1.1,2.22,2.22,0,0,1,1,.22,1.6,1.6,0,0,1,.68.56,2.41,2.41,0,0,1,.32.84,6.67,6.67,0,0,1,.06,1.09v4.09h-1v-4a3.27,3.27,0,0,0-.12-1,1.09,1.09,0,0,0-.42-.55,1.32,1.32,0,0,0-.72-.2,1.53,1.53,0,0,0-1.12.46,2.37,2.37,0,0,0-.47,1.73v3.63Z" transform="translate(-194.19 -96.5)"/><path class="cls-18" d="M797.15,405.17V396h1v9.18Z" transform="translate(-194.19 -96.5)"/><path class="cls-18" d="M799.24,397.29V396h1v1.3Zm0,7.88v-6.65h1v6.65Z" transform="translate(-194.19 -96.5)"/><path class="cls-18" d="M801.32,405.17v-6.65h.91v1a2.13,2.13,0,0,1,1.92-1.1,2.22,2.22,0,0,1,1,.22,1.54,1.54,0,0,1,.68.56,2.41,2.41,0,0,1,.32.84,6.67,6.67,0,0,1,.06,1.09v4.09h-1v-4a3.27,3.27,0,0,0-.12-1,1.09,1.09,0,0,0-.42-.55,1.32,1.32,0,0,0-.72-.2,1.53,1.53,0,0,0-1.12.46,2.37,2.37,0,0,0-.47,1.73v3.63Z" transform="translate(-194.19 -96.5)"/><path class="cls-18" d="M811.41,403l1.06.14a2.94,2.94,0,0,1-.93,1.59,2.91,2.91,0,0,1-3.82-.34,3.78,3.78,0,0,1-.77-2.52,3.92,3.92,0,0,1,.78-2.6,2.53,2.53,0,0,1,2-.93,2.46,2.46,0,0,1,2,.91,3.84,3.84,0,0,1,.76,2.55v.3H808a2.66,2.66,0,0,0,.56,1.68,1.57,1.57,0,0,0,1.26.58,1.42,1.42,0,0,0,.95-.32A2.15,2.15,0,0,0,811.41,403Zm-3.35-1.82h3.36A2.38,2.38,0,0,0,811,400a1.58,1.58,0,0,0-2.45-.13A2.18,2.18,0,0,0,808.06,401.21Z" transform="translate(-194.19 -96.5)"/><path class="cls-18" d="M816.25,405.17V396h2.86a6.81,6.81,0,0,1,1.48.13,2.84,2.84,0,0,1,1.22.66,3.76,3.76,0,0,1,1,1.57,6.66,6.66,0,0,1,.33,2.18,7.27,7.27,0,0,1-.22,1.85,4.78,4.78,0,0,1-.57,1.34,3.07,3.07,0,0,1-.76.83,2.67,2.67,0,0,1-1,.46,4.92,4.92,0,0,1-1.34.16Zm1.1-1.08h1.77a4,4,0,0,0,1.29-.17,1.8,1.8,0,0,0,.75-.48,2.89,2.89,0,0,0,.6-1.16,6.06,6.06,0,0,0,.22-1.77,4.72,4.72,0,0,0-.42-2.21,2.28,2.28,0,0,0-1-1,4,4,0,0,0-1.42-.18h-1.74Z" transform="translate(-194.19 -96.5)"/><path class="cls-18" d="M824.11,397.29V396h1v1.3Zm0,7.88v-6.65h1v6.65Z" transform="translate(-194.19 -96.5)"/><path class="cls-18" d="M830.35,403l1.06.14a2.94,2.94,0,0,1-.93,1.59,2.9,2.9,0,0,1-3.81-.34,3.73,3.73,0,0,1-.78-2.52,3.92,3.92,0,0,1,.78-2.6,2.54,2.54,0,0,1,2-.93,2.46,2.46,0,0,1,2,.91,3.84,3.84,0,0,1,.76,2.55v.3H827a2.66,2.66,0,0,0,.56,1.68,1.57,1.57,0,0,0,1.26.58,1.42,1.42,0,0,0,1-.32A2.15,2.15,0,0,0,830.35,403ZM827,401.21h3.37A2.47,2.47,0,0,0,830,400a1.53,1.53,0,0,0-1.26-.65,1.55,1.55,0,0,0-1.19.52A2.18,2.18,0,0,0,827,401.21Z" transform="translate(-194.19 -96.5)"/><path class="cls-18" d="M832.22,405.17v-6.65h.91v1a2.13,2.13,0,0,1,1.92-1.1,2.22,2.22,0,0,1,1,.22,1.6,1.6,0,0,1,.68.56,2.41,2.41,0,0,1,.32.84,6.67,6.67,0,0,1,.06,1.09v4.09h-1v-4a3.27,3.27,0,0,0-.12-1,1.09,1.09,0,0,0-.42-.55,1.32,1.32,0,0,0-.72-.2,1.53,1.53,0,0,0-1.12.46,2.37,2.37,0,0,0-.47,1.73v3.63Z" transform="translate(-194.19 -96.5)"/><path class="cls-18" d="M837.76,403.19l1-.18a1.41,1.41,0,0,0,1.56,1.38,1.5,1.5,0,0,0,1-.31,1,1,0,0,0,.34-.74.69.69,0,0,0-.3-.6,3.91,3.91,0,0,0-1-.39,9.44,9.44,0,0,1-1.55-.54,1.55,1.55,0,0,1-.66-.63,1.81,1.81,0,0,1-.22-.89,1.94,1.94,0,0,1,.18-.83,1.82,1.82,0,0,1,.5-.63,2.31,2.31,0,0,1,.65-.32,2.84,2.84,0,0,1,.88-.14,3.2,3.2,0,0,1,1.25.23,1.67,1.67,0,0,1,.79.61,2.44,2.44,0,0,1,.35,1l-1,.15a1.18,1.18,0,0,0-.39-.8,1.32,1.32,0,0,0-.92-.29,1.58,1.58,0,0,0-1,.25.8.8,0,0,0-.3.61.63.63,0,0,0,.13.39.88.88,0,0,0,.39.3c.1,0,.4.14.9.29a12,12,0,0,1,1.51.52,1.54,1.54,0,0,1,.67.59,1.73,1.73,0,0,1,.25,1,2,2,0,0,1-1.16,1.83,2.89,2.89,0,0,1-1.27.27,2.64,2.64,0,0,1-1.79-.54A2.56,2.56,0,0,1,837.76,403.19Z" transform="translate(-194.19 -96.5)"/><path class="cls-18" d="M843.27,402.42v-1.14h3.14v1.14Z" transform="translate(-194.19 -96.5)"/><path class="cls-18" d="M784.77,419.55l.15,1a3.32,3.32,0,0,1-.77.1,1.63,1.63,0,0,1-.87-.19,1.12,1.12,0,0,1-.43-.51,4.62,4.62,0,0,1-.12-1.33v-3.83H782v-.87h.75v-1.65l1-.68v2.33h1v.87h-1v3.89a2,2,0,0,0,.06.62.41.41,0,0,0,.17.22.67.67,0,0,0,.35.08A2.93,2.93,0,0,0,784.77,419.55Z" transform="translate(-194.19 -96.5)"/><path class="cls-18" d="M789.32,418.41l1.06.15a2.88,2.88,0,0,1-.93,1.58,2.57,2.57,0,0,1-1.72.57,2.6,2.6,0,0,1-2.09-.9,3.73,3.73,0,0,1-.78-2.52,4,4,0,0,1,.78-2.61,2.56,2.56,0,0,1,2-.92,2.48,2.48,0,0,1,2,.9,3.87,3.87,0,0,1,.76,2.56v.3h-4.49a2.66,2.66,0,0,0,.56,1.68,1.6,1.6,0,0,0,1.26.58,1.43,1.43,0,0,0,1-.33A2.06,2.06,0,0,0,789.32,418.41ZM786,416.59h3.36a2.38,2.38,0,0,0-.38-1.26,1.53,1.53,0,0,0-1.27-.65,1.58,1.58,0,0,0-1.18.52A2.2,2.2,0,0,0,786,416.59Z" transform="translate(-194.19 -96.5)"/><path class="cls-18" d="M791.18,420.55v-6.64h.92v.94a2.11,2.11,0,0,1,1.92-1.09,2.39,2.39,0,0,1,1,.21,1.69,1.69,0,0,1,.68.57,2.28,2.28,0,0,1,.32.83,6.82,6.82,0,0,1,.06,1.1v4.08h-1v-4a3.31,3.31,0,0,0-.12-1,1,1,0,0,0-.43-.54,1.19,1.19,0,0,0-.71-.21,1.57,1.57,0,0,0-1.12.46,2.39,2.39,0,0,0-.48,1.73v3.63Z" transform="translate(-194.19 -96.5)"/><path class="cls-18" d="M799.61,417.8v-1.13h3.14v1.13Z" transform="translate(-194.19 -96.5)"/><path class="cls-18" d="M808.49,420.55v-8.09h-2.74v-1.08h6.59v1.08h-2.75v8.09Z" transform="translate(-194.19 -96.5)"/><path class="cls-18" d="M813.05,420.55v-9.17h1.1v3.77h4.32v-3.77h1.1v9.17h-1.1v-4.32h-4.32v4.32Z" transform="translate(-194.19 -96.5)"/><path class="cls-18" d="M821,420.55v-9.17h1.65l2,6.5c.18.6.32,1.05.4,1.35.09-.33.24-.82.44-1.47l2-6.38H829v9.17h-1.06v-7.68l-2.41,7.68h-1l-2.4-7.81v7.81Z" transform="translate(-194.19 -96.5)"/><text class="cls-140" transform="translate(587.59 350.44) scale(0.91 1)">S<tspan class="cls-139" x="8.05" y="0">p</tspan><tspan class="cls-141" x="14.7" y="0">o</tspan><tspan class="cls-125" x="21.35" y="0">r</tspan><tspan class="cls-139" x="25.58" y="0">t</tspan><tspan class="cls-142" x="28.67" y="0">ku</tspan><tspan class="cls-143" x="41.09" y="0">r</tspan><tspan class="cls-80" x="44.96" y="0">s </tspan><tspan class="cls-144"><tspan x="0" y="15.38">2</tspan><tspan class="cls-145" x="6.61" y="15.38">0</tspan><tspan class="cls-78" x="12.87" y="15.38">1</tspan><tspan class="cls-80" x="18.92" y="15.38">5 - </tspan><tspan class="cls-110" x="35.54" y="15.38">T</tspan><tspan class="cls-130" x="42.87" y="15.38">H</tspan><tspan class="cls-139" x="51.75" y="15.38">M</tspan></tspan></text></g></g><g id="word-Fenster"><polygon class="cls-52" points="18.7 9.31 66.39 9.31 661.86 9.31 661.86 374.68 18.7 374.68 18.7 9.31"/><g id="Dokument"><rect id="Papier" class="cls-146" x="72.67" y="26.94" width="539.73" height="347.74"/><g id="Schreibtext"><line class="cls-147" x1="104.57" y1="98.52" x2="578.23" y2="98.52"/><line class="cls-147" x1="103.61" y1="154.61" x2="577.26" y2="154.61"/><line class="cls-147" x1="104.57" y1="111.87" x2="528.39" y2="111.87"/><line class="cls-147" x1="103.61" y1="125.23" x2="476.63" y2="125.23"/></g><text class="cls-148" transform="translate(234.04 60.08) scale(0.91 1)">Like a <tspan class="cls-149" x="75.33" y="0">B</tspan><tspan x="89.33" y="0">osch </tspan><tspan class="cls-150" x="153.78" y="0">A</tspan><tspan x="169.4" y="0">nal</tspan><tspan class="cls-151" x="202.04" y="0">y</tspan><tspan x="213.96" y="0">se</tspan></text></g><g id="ObereLeisteWord"><polyline id="blaueLeiste" class="cls-152" points="18.7 27.1 661.86 27.1 661.86 9.58 18.7 9.58 18.7 27.1"/><g id="Suche-2" data-name="Suche"><rect id="Suchefeld-2" data-name="Suchefeld" class="cls-153" x="260.6" y="12.79" width="159.66" height="10.68"/><text class="cls-31" transform="translate(270.04 19.11) scale(0.91 1)">Suche</text><g id="Suchlinse-2" data-name="Suchlinse"><path class="cls-33" d="M456.76,113.8a1.24,1.24,0,0,1-.27-.79h0v-.55l0-.1a3.2,3.2,0,0,1,.45-.93h0a.34.34,0,0,1,.18-.13h0c.22-.14.31-.14.8-.14h.81a1.73,1.73,0,0,1,.94,1l.13.3,0,.07a3,3,0,0,1,.17,1.4h0l-.19.52,1.5,2.27-.39.32-1.7-2.13H459a1.77,1.77,0,0,1-.56-.08h0a2.75,2.75,0,0,1-.36-.15l-.36-.17-.55-.31h0A1.31,1.31,0,0,1,456.76,113.8Z" transform="translate(-194.19 -96.5)"/><ellipse class="cls-154" cx="458.3" cy="112.97" rx="1.04" ry="1.57" transform="translate(-177.73 182.53) rotate(-34.45)"/></g></g><g id="UeberschrifteninMenueLeiste"><text class="cls-155" transform="translate(23.04 21.48) scale(0.91 1)">WORD</text><rect class="cls-156" x="66.84" y="15.19" width="31.93" height="4.27" rx="2.14"/><rect class="cls-156" x="125.86" y="15.19" width="31.93" height="4.27" rx="2.14"/><rect class="cls-156" x="180.05" y="15.19" width="31.93" height="4.27" rx="2.14"/><rect class="cls-156" x="466.47" y="15.19" width="31.93" height="4.27" rx="2.14"/><rect class="cls-156" x="537.1" y="15.19" width="31.93" height="4.27" rx="2.14"/><rect class="cls-156" x="607.74" y="15.19" width="31.93" height="4.27" rx="2.14"/></g><g id="xButton-2" data-name="xButton"><path class="cls-50" d="M840.15,106.35v5c0,.76,1.13,1.38,2.52,1.39l13,.05v-6.41Z" transform="translate(-194.19 -96.5)"/><text class="cls-19" transform="translate(651.79 15.71) scale(0.91 1)">X</text></g></g><g id="WordIconaufLeiste-3" data-name="WordIconaufLeiste"><polyline id="FensterWordausgewaehlt-2" data-name="FensterWordausgewaehlt" class="cls-20" points="33.85 375.22 47.48 375.22 47.48 392.31 33.85 392.31 33.85 375.22 47.48 375.22"/><rect class="cls-157" x="38.05" y="379.22" width="5.56" height="7.21"/><polygon class="cls-18" points="38.05 379.22 43.61 376.31 43.61 379.22 38.05 379.22"/><line class="cls-12" x1="41.19" y1="377.89" x2="43.44" y2="377.89"/><line class="cls-12" x1="41.19" y1="378.42" x2="43.44" y2="378.42"/><line class="cls-12" x1="41.19" y1="378.96" x2="43.44" y2="378.96"/><text class="cls-14" transform="translate(39.26 384.06) scale(0.91 1)">W</text></g></g></svg>