<svg xmlns="http://www.w3.org/2000/svg" viewBox="0 0 799.762 730.625"><defs><style>.cls-1,.cls-5{fill:#333;}.cls-1,.cls-146,.cls-147,.cls-152,.cls-21,.cls-22,.cls-36,.cls-4,.cls-5,.cls-50,.cls-51,.cls-52,.cls-56{stroke:#000;}.cls-1,.cls-10,.cls-11,.cls-12,.cls-13,.cls-14,.cls-146,.cls-147,.cls-15,.cls-152,.cls-153,.cls-154,.cls-155,.cls-156,.cls-16,.cls-17,.cls-2,.cls-20,.cls-21,.cls-22,.cls-23,.cls-30,.cls-32,.cls-34,.cls-35,.cls-36,.cls-4,.cls-5,.cls-50,.cls-51,.cls-52,.cls-53,.cls-54,.cls-55,.cls-56,.cls-6,.cls-65,.cls-7,.cls-8,.cls-9,.cls-94{stroke-miterlimit:10;}.cls-2{font-size:14px;fill:lime;}.cls-11,.cls-2,.cls-53,.cls-54,.cls-55,.cls-6,.cls-7,.cls-8{stroke:#333;}.cls-155,.cls-156,.cls-2,.cls-36{stroke-width:0.5px;}.cls-14,.cls-148,.cls-155,.cls-19,.cls-2,.cls-3,.cls-31{font-family:MyriadPro-Regular, Myriad Pro;}.cls-155,.cls-3{font-size:11.217px;}.cls-10,.cls-112,.cls-124,.cls-13,.cls-131,.cls-14,.cls-140,.cls-146,.cls-153,.cls-154,.cls-155,.cls-156,.cls-16,.cls-18,.cls-19,.cls-20,.cls-3,.cls-57,.cls-66,.cls-75,.cls-95,.cls-99{fill:#fff;}.cls-22,.cls-4,.cls-6,.cls-7{fill:#1a1a1a;}.cls-11,.cls-12,.cls-13,.cls-14,.cls-15,.cls-16,.cls-23,.cls-4,.cls-5,.cls-50,.cls-6,.cls-8{stroke-width:0.25px;}.cls-11,.cls-56,.cls-9{fill:#4d4d4d;}.cls-23,.cls-34,.cls-35,.cls-9{stroke:#1a1a1a;}.cls-10,.cls-12,.cls-13,.cls-20,.cls-65{stroke:#4d4d4d;}.cls-12,.cls-152,.cls-157{fill:#0071bc;}.cls-14{font-size:4.273px;}.cls-14,.cls-153,.cls-155,.cls-156{stroke:#0071bc;}.cls-15,.cls-23{fill:#ed1c24;}.cls-15{stroke:#666;}.cls-16{stroke:#ed1c24;}.cls-17,.cls-32,.cls-51{fill:none;}.cls-17{stroke:#fff;}.cls-19{font-size:7.478px;}.cls-20{stroke-width:0.75px;opacity:0.79;}.cls-21,.cls-53{fill:gray;}.cls-23,.cls-57{font-size:7px;}.cls-23{font-family:Arial-BoldMT, Arial;font-weight:700;letter-spacing:-0.135em;}.cls-24{letter-spacing:-0.061em;}.cls-25{letter-spacing:-0.132em;}.cls-26{letter-spacing:-0.135em;}.cls-27{letter-spacing:-0.061em;}.cls-28{letter-spacing:-0.053em;}.cls-29{letter-spacing:-0.084em;}.cls-154,.cls-30,.cls-32{stroke:#ccc;}.cls-31{font-size:6.41px;}.cls-31,.cls-33,.cls-35,.cls-52{fill:#ccc;}.cls-34,.cls-36{fill:#999;}.cls-37{font-size:5px;letter-spacing:-0.114em;}.cls-112,.cls-124,.cls-131,.cls-140,.cls-37,.cls-57,.cls-66,.cls-75,.cls-95,.cls-99{font-family:ArialMT, Arial;}.cls-38{letter-spacing:-0.061em;}.cls-39{letter-spacing:-0.045em;}.cls-40{letter-spacing:-0.093em;}.cls-41{letter-spacing:-0.084em;}.cls-42{letter-spacing:-0.138em;}.cls-43{letter-spacing:-0.063em;}.cls-44{letter-spacing:-0.144em;}.cls-45{letter-spacing:-0.139em;}.cls-46{letter-spacing:-0.067em;}.cls-47{letter-spacing:-0.062em;}.cls-48{letter-spacing:-0.054em;}.cls-49{letter-spacing:-0.071em;}.cls-50,.cls-55{fill:red;}.cls-54{fill:#e6e6e6;}.cls-57{letter-spacing:-0.03em;}.cls-58{letter-spacing:-0.026em;}.cls-59{letter-spacing:-0.019em;}.cls-60{letter-spacing:0.003em;}.cls-61{letter-spacing:-0.043em;}.cls-62{letter-spacing:-0.05em;}.cls-63{letter-spacing:0.001em;}.cls-64{letter-spacing:-0.037em;}.cls-65{fill:#f2f2f2;}.cls-148,.cls-66{font-size:25.64px;}.cls-66{letter-spacing:-0.083em;}.cls-67{letter-spacing:-0.089em;}.cls-68{letter-spacing:-0.094em;}.cls-69{letter-spacing:-0.09em;}.cls-70{letter-spacing:-0.084em;}.cls-71{letter-spacing:-0.09em;}.cls-72{letter-spacing:-0.095em;}.cls-73{letter-spacing:-0.101em;}.cls-74{letter-spacing:-0.091em;}.cls-112,.cls-124,.cls-131,.cls-140,.cls-75,.cls-95,.cls-99{font-size:12.82px;}.cls-75{letter-spacing:-0.083em;}.cls-76{letter-spacing:-0.086em;}.cls-77{letter-spacing:-0.114em;}.cls-78{letter-spacing:-0.084em;}.cls-79{letter-spacing:-0.038em;}.cls-80{letter-spacing:-0.037em;}.cls-81{letter-spacing:-0.046em;}.cls-82{letter-spacing:-0.041em;}.cls-83{letter-spacing:-0.034em;}.cls-84{letter-spacing:-0.025em;}.cls-85{letter-spacing:-0.041em;}.cls-86{letter-spacing:-0.046em;}.cls-87{letter-spacing:-0.039em;}.cls-88{letter-spacing:-0.041em;}.cls-89{letter-spacing:-0.046em;}.cls-90{letter-spacing:-0.017em;}.cls-91{letter-spacing:-0.043em;}.cls-92{letter-spacing:-0.021em;}.cls-93{letter-spacing:-0.069em;}.cls-94{fill:#22b573;stroke:#999;}.cls-95{letter-spacing:-0.029em;}.cls-96{letter-spacing:-0.047em;}.cls-97{letter-spacing:-0.033em;}.cls-98{letter-spacing:-0.031em;}.cls-99{letter-spacing:-0.125em;}.cls-100{letter-spacing:-0.045em;}.cls-101{letter-spacing:-0.047em;}.cls-102{letter-spacing:-0.038em;}.cls-103{letter-spacing:-0.027em;}.cls-104{letter-spacing:-0.041em;}.cls-105{letter-spacing:-0.043em;}.cls-106{letter-spacing:-0.033em;}.cls-107{letter-spacing:-0.06em;}.cls-108{letter-spacing:-0.052em;}.cls-109{letter-spacing:-0.1em;}.cls-110{letter-spacing:-0.039em;}.cls-111{letter-spacing:-0.03em;}.cls-112{letter-spacing:-0.04em;}.cls-113{letter-spacing:-0.044em;}.cls-114{letter-spacing:-0.04em;}.cls-115{letter-spacing:-0.042em;}.cls-116{letter-spacing:-0.033em;}.cls-117{letter-spacing:-0.036em;}.cls-118{letter-spacing:-0.032em;}.cls-119{letter-spacing:-0.043em;}.cls-120{letter-spacing:-0.042em;}.cls-121{letter-spacing:-0.045em;}.cls-122{letter-spacing:-0.044em;}.cls-123{letter-spacing:-0.04em;}.cls-124{letter-spacing:-0.085em;}.cls-125{letter-spacing:-0.003em;}.cls-126{letter-spacing:-0.036em;}.cls-127{letter-spacing:-0.038em;}.cls-128{letter-spacing:-0.049em;}.cls-129{letter-spacing:-0.05em;}.cls-130{letter-spacing:-0.03em;}.cls-131,.cls-142{letter-spacing:-0.044em;}.cls-132{letter-spacing:-0.045em;}.cls-133{letter-spacing:-0.045em;}.cls-134{letter-spacing:-0.047em;}.cls-135{letter-spacing:-0.01em;}.cls-136{letter-spacing:-0.054em;}.cls-137{letter-spacing:-0.038em;}.cls-138{letter-spacing:-0.036em;}.cls-139{letter-spacing:-0.037em;}.cls-140{letter-spacing:-0.039em;}.cls-141{letter-spacing:-0.038em;}.cls-143{letter-spacing:-0.03em;}.cls-144{letter-spacing:-0.041em;}.cls-145{letter-spacing:-0.068em;}.cls-147{stroke-width:2px;}.cls-149{letter-spacing:0.004em;}.cls-150{letter-spacing:-0.003em;}.cls-151{letter-spacing:-0.006em;}</style></defs><g id="Bildschirm"><g id="Bildschirmrahmen"><path id="Aussenrand" class="cls-1" d="M15.442.5H671.7a4.109,4.109,0,0,1,4.109,4.109V403.96a4.109,4.109,0,0,1-4.109,4.109H8.421a4.109,4.109,0,0,1-4.109-4.109V11.63A11.13,11.13,0,0,1,15.442.5Z"/><path id="Innenrand" class="cls-1" d="M209.017,104.745h648.75a2.121,2.121,0,0,1,2.017,2.211v381.78a2.121,2.121,0,0,1-2.017,2.211H209.017A2.121,2.121,0,0,1,207,488.736V106.956A2.121,2.121,0,0,1,209.017,104.745Z" transform="translate(-194.188 -96.5)"/><text class="cls-2" transform="translate(327.484 405.989) scale(0.906 1)">THM</text></g><text class="cls-3" transform="translate(20.686 405.431) scale(0.906 1)">4K</text></g><g id="Tastatur"><path class="cls-4" d="M205,504.568H850.893a10.685,10.685,0,0,1,9.9,6.666L983.03,812.3A10.685,10.685,0,0,1,973.13,827H264.463a10.683,10.683,0,0,1-10.482-8.615L194.519,517.324A10.686,10.686,0,0,1,205,504.568Z" transform="translate(-194.188 -96.5)"/><path class="cls-5" d="M215,504.568H860.893a10.685,10.685,0,0,1,9.9,6.666L993.03,812.3A10.685,10.685,0,0,1,983.13,827H274.463a10.683,10.683,0,0,1-10.482-8.615L204.519,517.324A10.686,10.686,0,0,1,215,504.568Z" transform="translate(-194.188 -96.5)"/><polygon class="cls-5" points="707.812 630.5 80.812 628.5 37.812 428.5 655.812 426.5 707.812 630.5"/><g id="Mauspad"><path class="cls-6" d="M642.391,820H487.609A11.608,11.608,0,0,1,476,808.391V726H654v82.391A11.608,11.608,0,0,1,642.391,820Z" transform="translate(-194.188 -96.5)"/><path class="cls-7" d="M476,796.3h89V820H487.957A11.957,11.957,0,0,1,476,808.043Z" transform="translate(-194.188 -96.5)"/><path class="cls-7" d="M565,796.3h89v11.739A11.957,11.957,0,0,1,642.043,820H565Z" transform="translate(-194.188 -96.5)"/></g><g id="Tasten"><path d="M239.135,525.749a4.908,4.908,0,0,0-2.248,1.514c-.866,1.077-.911,1.716-.927,10.224l-.018,9.067,1.465,1.361,1.466,1.361,12.781.026,12.781.025,1.385-1.156,1.427-1.155.147-8.948c.145-7.589.061-9.067-.541-10.107-1.334-2.359-1.507-2.4-14.461-2.5C245.872,525.4,239.913,525.551,239.135,525.749Z" transform="translate(-194.188 -96.5)"/><path d="M272.485,525.934c-2.939,1.193-3.026,1.472-3.173,10.579-.191,9.147.065,10.706,2,11.988,1.208.8,1.855.842,13.644.866,12.824.025,13.559-.054,14.987-1.728.692-.718.781-1.916.8-10.065.017-8.708-.025-9.307-.843-10.268a5.9,5.9,0,0,0-2.5-1.482C294.94,525.22,274.084,525.3,272.485,525.934Z" transform="translate(-194.188 -96.5)"/><path d="M308.888,525.447a5.36,5.36,0,0,0-2.248,1.394c-.866,1-.91,1.6-.927,10.024-.019,9.747.195,10.706,2.439,11.669.647.281,5.483.45,13.514.466l12.523.025,1.384-1.156L337,546.713l.147-8.827c.144-7.35.061-8.988-.5-10.107-1.291-2.479-1.42-2.519-14.5-2.625C315.625,525.1,309.666,525.249,308.888,525.447Z" transform="translate(-194.188 -96.5)"/><path d="M347.019,525.677c-3.629,1.072-3.89,1.91-3.909,11.656-.018,8.669.282,10.107,2.179,11.389.863.561,2.633.644,13.428.666,7.989.016,12.782-.135,13.43-.413,2.248-.954,2.465-1.913,2.485-11.659.016-8.428-.026-9.028-.844-9.988a5.9,5.9,0,0,0-2.5-1.483C369.689,525.442,348.315,525.28,347.019,525.677Z" transform="translate(-194.188 -96.5)"/><path d="M382.98,525.12a5.374,5.374,0,0,0-2.249,1.394c-.865,1-.909,1.556-.927,10.3-.016,8.149.068,9.347.758,10.068,1.421,1.68,2.155,1.761,14.98,1.787,11.788.023,12.436-.016,13.647-.812,1.945-1.275,2.207-2.832,2.053-11.98-.15-11.664.54-11.143-15.739-11.135C389.371,524.734,383.757,524.922,382.98,525.12Z" transform="translate(-194.188 -96.5)"/><path d="M421.651,525.026a5.763,5.763,0,0,0-3.418,3.109c-.13.439-.182,4.753-.105,9.547l.113,8.708,1.422,1.161,1.38,1.162,12.781.025,12.782.025,1.471-1.355,1.47-1.355.018-8.948c.016-8.109-.068-9.028-.843-10.188a3.942,3.942,0,0,0-2.458-1.682C444.71,524.832,423.768,524.631,421.651,525.026Z" transform="translate(-194.188 -96.5)"/><path d="M459.1,523.447a5.37,5.37,0,0,0-2.248,1.394c-.866,1-.91,1.556-.927,10.3-.016,8.149.068,9.347.757,10.068,1.422,1.68,2.156,1.761,15.11,1.787l12.522.025,1.341-1.156L487,544.713l.019-9.547c.025-12.9,1.017-12.1-15.435-12.093C465.5,523.061,459.882,523.249,459.1,523.447Z" transform="translate(-194.188 -96.5)"/><path d="M496.623,523.486a4.794,4.794,0,0,0-3.244,2.47c-.3.759-.439,3.914-.365,9.986l.112,8.908,1.423,1.161,1.379,1.161,12.782.025,12.781.026,1.471-1.356,1.471-1.355.017-8.828c.019-9.387-.152-10.306-2.093-11.508-.992-.641-2.417-.724-13-.825C502.841,523.3,497.1,523.367,496.623,523.486Z" transform="translate(-194.188 -96.5)"/><path d="M533.848,523.71A5.36,5.36,0,0,0,531.6,525.1c-.865,1-.91,1.6-.927,10.224-.011,5.512.154,9.467.412,9.947,1.076,1.8,2.242,1.962,15.11,1.987s14.034-.132,15.117-1.927c.26-.479.44-4.433.451-9.946.017-8.628-.025-9.227-.843-10.187a5.887,5.887,0,0,0-2.5-1.483C556.433,523.236,535.749,523.2,533.848,523.71Z" transform="translate(-194.188 -96.5)"/><path d="M572.8,523.577c-3.76,1.231-3.89,1.63-3.911,12.176l-.017,8.827,1.465,1.361L571.8,547.3l12.781.026,12.782.025,1.384-1.156,1.427-1.155.147-8.908c.149-9.586-.022-10.585-2.006-11.827-.992-.642-2.374-.724-13-.825C578.8,523.429,573.143,523.458,572.8,523.577Z" transform="translate(-194.188 -96.5)"/><path d="M608.046,523.473a8.813,8.813,0,0,0-2.032,1.234c-1,.837-1,1.037-1.014,10.424l-.019,9.547,1.336,1.161L607.654,547l12.522.025c12.954.025,13.689-.053,15.117-1.728.692-.718.781-1.916.8-10.065.017-8.707-.025-9.307-.843-10.267a5.9,5.9,0,0,0-2.5-1.483C630.673,522.959,609.515,522.957,608.046,523.473Z" transform="translate(-194.188 -96.5)"/><path d="M645,523.453a4.122,4.122,0,0,0-2.248,1.673c-.78,1.157-.868,2.036-.884,10.185l-.018,8.947,1.466,1.361,1.465,1.361,12.782.026,12.781.025,1.384-1.156,1.427-1.155.148-8.948c.144-7.589.061-9.067-.542-10.107-1.334-2.359-1.506-2.4-14.46-2.5C651.567,523.107,645.823,523.215,645,523.453Z" transform="translate(-194.188 -96.5)"/><path d="M683.468,523.638c-2.938,1.192-3.025,1.472-3.173,10.579-.19,9.147.066,10.705,2.006,11.987,1.208.8,1.855.843,13.644.866,12.824.025,13.558-.053,14.987-1.728.692-.718.781-1.916.8-10.065.017-8.708-.025-9.307-.843-10.267a5.9,5.9,0,0,0-2.5-1.483C705.924,522.923,685.067,523,683.468,523.638Z" transform="translate(-194.188 -96.5)"/><path d="M720.175,523.583a5.358,5.358,0,0,0-2.248,1.393c-.865,1-.91,1.6-.927,10.025-.019,9.746.2,10.705,2.439,11.668.647.281,5.44.45,13.428.466,13.775.027,13.861.028,15.032-2.606.911-2,.9-16.935-.006-18.7-1.248-2.4-1.42-2.439-14.461-2.545C726.912,523.236,720.953,523.384,720.175,523.583Z" transform="translate(-194.188 -96.5)"/><path d="M755.523,523.314a5.211,5.211,0,0,0-3.418,3.468c-.131.719-.182,5.033-.105,9.587l.113,8.309,1.423,1.161L754.915,547l12.523.025c8.031.016,12.868-.135,13.516-.413,2.247-.954,2.465-1.912,2.484-11.659.017-8.428-.025-9.028-.843-9.988a5.907,5.907,0,0,0-2.5-1.483C778.582,523.12,757.6,522.958,755.523,523.314Z" transform="translate(-194.188 -96.5)"/><path d="M788.451,523.711A5.358,5.358,0,0,0,786.2,525.1c-.866,1-.91,1.557-.927,10.3-.016,8.149.068,9.348.757,10.068,1.422,1.681,2.156,1.762,14.98,1.787,11.789.024,12.436-.015,13.647-.812,1.946-1.274,2.208-2.831,2.053-11.979-.149-11.664.54-11.144-15.739-11.136C794.843,523.324,789.229,523.513,788.451,523.711Z" transform="translate(-194.188 -96.5)"/><path d="M822.244,523.616a5.753,5.753,0,0,0-3.417,3.109c-.131.439-.182,4.753-.105,9.547l.112,8.708,1.423,1.161,1.379,1.161,12.782.025,12.781.026L848.67,546l1.471-1.355.018-9.067c.016-8.468-.025-9.148-.844-10.228a5.217,5.217,0,0,0-2.5-1.563C845.3,523.422,824.318,523.261,822.244,523.616Z" transform="translate(-194.188 -96.5)"/><path d="M250.25,555.358l-1.471,1.355-.024,12.543c-.028,13.9-.028,13.821,2.82,14.945,2.038,1.226,25.432,1.4,27.549.054,2.852-1.113,2.852-1.033,2.88-14.934l.024-12.542-1.465-1.361-1.465-1.361-13.689-.027L251.721,554Z" transform="translate(-194.188 -96.5)"/><path d="M288.014,554.993a6.646,6.646,0,0,0-1.73,1.235c-.822.837-.866,1.516-1.019,13.339-.114,13.7-.114,13.9,2.474,15.144,1.381.642,2.806.685,14.81.629l13.343-.094,1.255-1.315,1.255-1.276.025-12.623.025-12.622-1.466-1.361-1.465-1.361-13.3.013C294.88,554.687,288.489,554.834,288.014,554.993Z" transform="translate(-194.188 -96.5)"/><path d="M323.283,555.244a4.648,4.648,0,0,0-1.817,1.834c-.261.559-.444,6.111-.458,12.861-.022,11.065.02,11.944.838,13.144,1.335,2.04,2.586,2.2,16.923,2.07l12.825-.094,1.3-1.156,1.341-1.2.026-12.782c.022-11.544-.061-12.9-.751-13.663-1.465-1.68-2.112-1.761-15.714-1.788C325.487,554.449,324.623,554.488,323.283,555.244Z" transform="translate(-194.188 -96.5)"/><path d="M360.53,555.529a5.188,5.188,0,0,0-1.861,2.073c-.781,2.076-.694,23.566.123,25.365,1.074,2.4,1.981,2.561,16.144,2.589,6.866.013,13-.134,13.559-.333a6.917,6.917,0,0,0,1.989-1.274c.866-.877.91-1.277.934-13.7.023-11.544-.061-12.9-.75-13.662-1.465-1.681-2.112-1.762-15.714-1.789C362.863,554.774,361.783,554.852,360.53,555.529Z" transform="translate(-194.188 -96.5)"/><path d="M397.835,555.076c-2.161,1.194-2.38,2.552-2.232,15.494.1,12.7.189,13.143,2.994,14.027,1.813.6,25.649.65,27.463.054,2.636-.834,2.68-1.033,2.707-14.934.016-7.909-.147-12.942-.4-13.422-1.076-1.84-2.155-1.962-16.06-1.989C400.082,554.282,399.132,554.32,397.835,555.076Z" transform="translate(-194.188 -96.5)"/><path d="M436.679,554.827c-2.377,1.194-2.377,1.114-2.4,14.935-.025,12.423.018,12.822.88,13.7a6.9,6.9,0,0,0,1.983,1.282c.561.2,6.693.373,13.558.386,14.164.028,15.071-.13,16.155-2.524.911-2.036,1-23.566.094-25.605-1.161-2.519-1.722-2.6-16.317-2.629C441.948,554.4,437.241,554.509,436.679,554.827Z" transform="translate(-194.188 -96.5)"/><path d="M478.4,554.921c-2.377,1.194-2.377,1.114-2.4,14.935l-.025,12.782,1.336,1.2L478.6,585l12.825.145c14.335.188,15.588.031,16.93-2,.823-1.2.868-2.075.89-13.14.013-6.75-.148-12.3-.406-12.863a4.657,4.657,0,0,0-1.81-1.841c-1.338-.761-2.2-.8-14.594-.828C483.673,554.492,478.966,554.6,478.4,554.921Z" transform="translate(-194.188 -96.5)"/><path d="M514.762,555.17l-1.471,1.355-.025,12.623-.025,12.622,1.25,1.281,1.249,1.321,13.343.146c12,.1,13.429.066,14.812-.57a5.209,5.209,0,0,0,2.033-1.714c.693-1.237.825-24.165.18-25.724a4.637,4.637,0,0,0-1.81-1.841c-1.337-.761-2.2-.8-14.723-.828l-13.342-.026Z" transform="translate(-194.188 -96.5)"/><path d="M553.209,554.239l-1.471,1.355-.025,12.543c-.027,13.9-.027,13.821,2.821,14.945,2.071.8,25.475.849,27.549.054,2.852-1.113,2.852-1.033,2.879-14.934l.025-12.542-1.465-1.361-1.466-1.361-13.688-.027-13.688-.027Z" transform="translate(-194.188 -96.5)"/><path d="M595.544,553.345a5.325,5.325,0,0,0-1.86,1.434c-.865,1.037-.909,1.4-.933,13.5-.028,13.821-.027,13.741,2.82,14.865,2.158.843,26.037.85,27.809.015,2.593-1.233,2.593-1.193,2.62-14.894l.025-12.543-1.466-1.361L623.094,553l-13.3.014C602.453,553,596.019,553.146,595.544,553.345Z" transform="translate(-194.188 -96.5)"/><path d="M635.05,554.091a4.647,4.647,0,0,0-1.817,1.833c-.26.559-.444,6.111-.457,12.862-.022,11.064.019,11.943.837,13.143,1.335,2.04,2.587,2.2,16.966,2.071l12.911-.094,1.255-1.316L666,581.314l.024-12.383c.016-8.029-.147-12.663-.448-13.3-1.075-2.2-1.766-2.281-16.016-2.309C637.254,553.3,636.39,553.334,635.05,554.091Z" transform="translate(-194.188 -96.5)"/><path d="M673.31,554.931c-2.421,1.194-2.508,1.833-2.534,14.815-.022,11.105.02,11.983.838,13.183,1.334,2.04,2.586,2.2,16.922,2.071l12.825-.094,1.3-1.156,1.341-1.2.025-12.782c.023-11.544-.061-12.9-.75-13.663-1.465-1.681-2.112-1.762-15.714-1.789C676.852,554.339,674.261,554.414,673.31,554.931Z" transform="translate(-194.188 -96.5)"/><path d="M714.739,555.575a5.18,5.18,0,0,0-1.861,2.073c-.3.839-.486,5.232-.5,12.622-.02,9.827.063,11.584.709,12.784,1.2,2.4,1.981,2.52,16.058,2.548,6.866.014,13-.134,13.559-.333A6.9,6.9,0,0,0,744.693,584c.865-.877.909-1.276.934-13.7.023-11.544-.061-12.9-.75-13.663-1.465-1.68-2.113-1.762-15.715-1.788C717.072,554.821,715.992,554.9,714.739,555.575Z" transform="translate(-194.188 -96.5)"/><path d="M751.264,552.115c-2.377,1.233-2.377,1.153-2.4,14.974-.025,12.423.018,12.823.88,13.7a6.9,6.9,0,0,0,1.983,1.282c.605.2,13.429.386,31.133.421,27.808.055,30.226.02,31.61-.656,2.593-1.193,2.593-1.393,2.534-15.134l-.105-12.5-1.207-1.081L814.525,552l-31.22-.142C761.067,551.735,751.87,551.836,751.264,552.115Z" transform="translate(-194.188 -96.5)"/><path d="M823.371,553.379l-1.471,1.355-.025,12.543c-.027,13.9-.027,13.821,2.821,14.945,2.071.8,25.475.849,27.549.054,2.852-1.113,2.852-1.033,2.879-14.934l.025-12.542-1.465-1.361-1.466-1.361-13.688-.027-13.688-.027Z" transform="translate(-194.188 -96.5)"/><path d="M258.529,589.188c-2.075,1.075-2.162,1.594-2.231,14.536-.026,13.182.059,13.741,2.389,14.864,1.682.882,38.774.956,40.46.12,2.377-1.154,2.509-2.072,2.406-15.454l-.106-12.223-1.423-1.161-1.379-1.162-19.561-.038C263.712,588.679,259.35,588.791,258.529,589.188Z" transform="translate(-194.188 -96.5)"/><path d="M307.389,590.067l-1.341,1.036-.026,13.061-.026,13.1.992.841a6.606,6.606,0,0,0,2.5,1.283c1.942.523,23.921.567,25.952.052a5.9,5.9,0,0,0,2.507-1.473c.822-1,.867-1.517.891-13.78l.025-12.782-1.25-1.161-1.25-1.161-13.818-.027-13.818-.027Z" transform="translate(-194.188 -96.5)"/><path d="M343.652,590.365l-1.255,1.156-.026,12.942-.025,12.982.991.841a6.613,6.613,0,0,0,2.5,1.283c1.9.523,23.921.567,25.909.052a7.68,7.68,0,0,0,2.593-1.433l1.039-1.037.025-12.782.025-12.782-1.422-1.162-1.38-1.161-13.861-.027-13.861-.028Z" transform="translate(-194.188 -96.5)"/><path d="M380.234,589.434l-1.341,1.156-.026,12.862-.025,12.862,1.207,1.121c1.681,1.561,3.062,1.684,16.708,1.551,12.868-.094,13.473-.213,14.686-2.527.607-1.158.654-3.075.588-13.58l-.105-12.224-1.423-1.161-1.379-1.161-13.775-.027-13.774-.028Z" transform="translate(-194.188 -96.5)"/><path d="M418.632,589.583l-1.341,1.236-.026,12.782-.025,12.783,1.207,1.12c1.681,1.562,3.063,1.684,16.924,1.552,12.825-.1,13.041-.134,14.427-2.328.606-.918.7-2.755.717-13.341l.024-12.263-1.465-1.361-1.466-1.361-13.817-.027-13.818-.027Z" transform="translate(-194.188 -96.5)"/><path d="M456.929,589.134c-1.816,1.355-1.9,1.954-1.929,14.856l-.025,12.463,1.207,1.121c1.681,1.561,3.063,1.683,16.924,1.551,10.493-.1,12-.176,13-.813,2.032-1.234,2.12-1.913,2.145-14.7.026-13.062-.1-13.7-2.432-14.7-.691-.281-5.7-.451-14.508-.468C459.176,588.42,457.751,588.5,456.929,589.134Z" transform="translate(-194.188 -96.5)"/><path d="M495.137,588.925a4.823,4.823,0,0,0-1.6,1.554c-.65,1-.739,2.635-.76,13.141-.025,12.782.06,13.461,2.087,14.7.992.641,2.5.724,13,.864,13.99.188,15.07.07,16.843-1.524l1.3-1.236.024-12.3c.018-8.708-.147-12.663-.491-13.383-1.033-2.119-1.766-2.2-16.189-2.189C501.356,588.538,495.7,588.686,495.137,588.925Z" transform="translate(-194.188 -96.5)"/><path d="M533.1,589.9l-1.471,1.355-.024,12.223c-.026,12.982.059,13.661,2.086,14.9.992.641,2.5.724,13,.864,13.86.187,15.242.07,16.929-1.484l1.212-1.116.025-12.783.025-12.782-1.336-1.241-1.336-1.241-13.818-.027-13.818-.027Z" transform="translate(-194.188 -96.5)"/><path d="M569.7,589.765l-1.427,1.156-.154,12.223c-.106,10.345-.024,12.423.535,13.542,1.247,2.439,1.42,2.48,14.46,2.625,13.861.187,15.243.07,16.93-1.484l1.211-1.116.026-12.863.025-12.862-1.336-1.161-1.336-1.161-13.775-.027-13.775-.027Z" transform="translate(-194.188 -96.5)"/><path d="M605.192,590.834l-1.427,1.156-.026,12.782-.025,12.782,1.035,1.041a7.687,7.687,0,0,0,2.588,1.443c2.071.523,23.964.567,26.037.051a5.889,5.889,0,0,0,2.508-1.473c.822-1,.866-1.516.891-13.779l.025-12.782-1.25-1.161-1.25-1.161-13.861-.027-13.861-.028Z" transform="translate(-194.188 -96.5)"/><path d="M642.731,591.012l-1.255,1.156-.025,12.942-.026,12.982.992.841a6.615,6.615,0,0,0,2.5,1.283c1.9.523,23.922.567,25.909.051a7.691,7.691,0,0,0,2.594-1.432l1.038-1.037.151-11.024c.2-12.9.071-14.181-1.61-15.742l-1.206-1.121-13.9-.027-13.9-.028Z" transform="translate(-194.188 -96.5)"/><path d="M686.275,591.08l-1.254,1.156L685,605.019c-.024,12.263.018,12.782.837,13.782a5.883,5.883,0,0,0,2.5,1.483c2.072.524,23.965.567,26.038.052a7.694,7.694,0,0,0,2.594-1.433L718,617.866l.026-12.782.025-12.782-1.423-1.162-1.379-1.161-13.861-.027-13.861-.027Z" transform="translate(-194.188 -96.5)"/><path d="M725.906,590.149l-1.341,1.156-.025,12.862-.026,12.862,1.207,1.121c1.681,1.561,3.063,1.684,16.924,1.551,13.041-.094,13.214-.133,14.471-2.568.563-1.117.654-3.194.588-13.54L757.6,591.37l-1.422-1.161-1.38-1.161-13.774-.028-13.775-.027Z" transform="translate(-194.188 -96.5)"/><path d="M769.69,586.824c-2.335,1.433-2.378,1.673-2.4,14.216-.068,12.462.018,12.822,2.217,14.344,1.078.761,1.941.843,7.468.974l6.218.132-.031,15.778-.031,15.738,1.25,1.281,1.249,1.321,15.933.271c17.618.314,18.265.276,19.867-1.958l1-1.356.057-28.721c.062-31.516.147-30.557-2.484-32-1.122-.6-3.41-.686-25.173-.729C771.937,586.07,770.9,586.107,769.69,586.824Z" transform="translate(-194.188 -96.5)"/><path d="M830.232,585.736c-2.118,1.074-2.163,1.593-2.232,14.895l-.025,12.423,1.293,1.24c1.768,1.6,2.847,1.724,16.838,1.591,12.954-.094,13.473-.213,14.6-2.527.737-1.437.782-24.485.051-25.924-1.032-2.119-1.766-2.2-16.188-2.229C834.378,585.225,831.01,585.338,830.232,585.736Z" transform="translate(-194.188 -96.5)"/><path d="M267.343,622.136a4.9,4.9,0,0,0-2.248,1.513c-.866,1.117-.91,1.676-.934,13.42-.026,13.3.059,13.941,2.432,14.944,1.467.642,51.643.7,52.94.1,2.463-1.153,2.463-1.073,2.49-14.774.024-12.144-.018-12.663-.837-13.663a5.893,5.893,0,0,0-2.5-1.483C316.656,621.674,269.287,621.62,267.343,622.136Z" transform="translate(-194.188 -96.5)"/><path d="M329.23,625.429a5.818,5.818,0,0,0-3.417,3.069c-.13.479-.185,6.271-.112,12.942l.106,12.144,1.422,1.161,1.38,1.161,13.775.027,13.774.027,1.341-1.235,1.341-1.236.025-12.662c.022-11.025-.061-12.743-.664-13.583-1.421-1.88-2.673-2.043-15.8-2.029C335.665,625.242,329.749,625.35,329.23,625.429Z" transform="translate(-194.188 -96.5)"/><path d="M365.693,623.5c-3.8,1.111-3.889,1.511-3.916,15.052-.024,12.263.146,13.462,2.173,14.784.906.561,2.762.644,14.68.668l13.688.027,1.341-1.156L395,651.716l.026-12.943c.025-12.942.025-12.982-.923-13.822a9.874,9.874,0,0,0-2.2-1.243C390.7,623.266,367.032,623.06,365.693,623.5Z" transform="translate(-194.188 -96.5)"/><path d="M403.632,623.847c-2.852,1.193-2.765.793-2.836,14.734-.058,7.789.1,12.942.363,13.382,1.161,2,1.679,2.081,16.145,2.109,13.041.026,13.6-.013,14.683-.81,1.9-1.354,2.121-2.831,1.973-15.335-.1-12.263-.147-12.543-2.218-13.825C430.405,623.3,405.534,623.052,403.632,623.847Z" transform="translate(-194.188 -96.5)"/><path d="M444.011,623.135c-2.766,1.153-2.765,1.073-2.793,15.134l-.025,12.742,1.336,1.161,1.336,1.161,13.775.027,13.775.027,1.384-1.155,1.427-1.156.154-12.223c.155-13.181.027-14.1-2.129-15.423C470.828,622.549,446.042,622.3,444.011,623.135Z" transform="translate(-194.188 -96.5)"/><path d="M483.174,623.655a5.35,5.35,0,0,0-2.248,1.394c-.865,1.036-.91,1.516-.934,13.7-.022,11.344.062,12.7.751,13.463,1.465,1.68,2.112,1.762,16.017,1.789l13.429.027,1.384-1.156L513,651.715l.154-12.3c.155-13.182.071-13.941-2-15.223-.991-.642-2.373-.724-13.859-.827C490.257,623.309,483.952,623.417,483.174,623.655Z" transform="translate(-194.188 -96.5)"/><path d="M520.958,622.655a5.362,5.362,0,0,0-2.249,1.393c-.865,1.037-.909,1.556-.933,13.42-.026,13.382.059,14.061,2.345,15.024.777.321,5.052.489,14.508.508l13.429.027,1.471-1.356L551,650.316l.024-12.343c.023-11.464-.018-12.383-.836-13.583a3.942,3.942,0,0,0-2.458-1.682C545.7,622.184,522.9,622.139,520.958,622.655Z" transform="translate(-194.188 -96.5)"/><path d="M558.868,622.878a4.121,4.121,0,0,0-2.249,1.674c-.823,1.2-.868,2.075-.89,13.379-.026,13.182.059,13.822,2.432,14.825,1.424.6,26.9.652,28.326.056,2.377-.994,2.465-1.593,2.491-15.055.024-11.823-.018-12.382-.837-13.383a5.9,5.9,0,0,0-2.5-1.483C583.611,622.368,560.812,622.363,558.868,622.878Z" transform="translate(-194.188 -96.5)"/><path d="M596.139,622.682a4.127,4.127,0,0,0-2.249,1.673c-.822,1.2-.867,2.076-.89,13.58l-.024,12.343,1.465,1.361L595.907,653l13.472.027c13.947.027,14.6-.051,16.067-1.726.692-.758.781-2.116.8-13.46.024-12.143-.018-12.663-.836-13.663a5.907,5.907,0,0,0-2.5-1.483C620.883,622.172,598.083,622.167,596.139,622.682Z" transform="translate(-194.188 -96.5)"/><path d="M633.615,622.523a4.708,4.708,0,0,0-3.2,2.471c-.347.758-.484,4.832-.415,13.38l.105,12.3,1.423,1.161L632.907,653l13.43.027c13.9.027,14.552-.052,16.023-1.726.692-.758.781-2.116.8-13.42.022-11.025-.061-12.7-.664-13.543-1.422-1.88-2.673-2.042-15.8-2.028C639.963,622.336,634.09,622.444,633.615,622.523Z" transform="translate(-194.188 -96.5)"/><path d="M669.976,623.924a5.074,5.074,0,0,0-3.375,3.469c-.174.679-.228,6.51-.155,12.942l.107,11.744,1.422,1.161,1.38,1.161,13.774.027,13.775.027,1.341-1.155,1.341-1.156.025-12.942c.026-12.942.026-12.982-.922-13.823-1.854-1.561-2.976-1.683-15.585-1.668C676.411,623.737,670.5,623.845,669.976,623.924Z" transform="translate(-194.188 -96.5)"/><path d="M708.564,624.993a5.66,5.66,0,0,0-2.162,1.353l-1.254,1.2L705,638.607c-.2,13.1-.071,14.18,1.7,15.741l1.294,1.121,13.731.028,13.732.027,1.34-1.156,1.341-1.156.026-12.942.025-12.942-1.336-1.2-1.293-1.161-13.04-.066C715.344,624.846,709.039,624.874,708.564,624.993Z" transform="translate(-194.188 -96.5)"/><path d="M745.936,623.22a8.782,8.782,0,0,0-2.032,1.235c-1,.836-1,.876-1.021,13.819l-.025,12.942,1.336,1.161,1.336,1.161,13.775.027,13.774.027,1.384-1.156,1.428-1.155.153-12.223c.15-10.385.068-12.423-.491-13.5-1.291-2.519-1.334-2.519-15.583-2.628C751.9,622.873,746.627,622.982,745.936,623.22Z" transform="translate(-194.188 -96.5)"/><path d="M839.927,620.372a5.367,5.367,0,0,0-2.249,1.394c-.865,1.037-.909,1.556-.933,13.42-.026,13.461.059,14.06,2.432,15.064.69.281,5.655.45,14.162.467s13.473-.133,14.164-.411c2.377-.994,2.465-1.633,2.491-14.935.023-11.7-.019-12.3-.837-13.423a5.215,5.215,0,0,0-2.5-1.563C864.67,619.9,841.871,619.857,839.927,620.372Z" transform="translate(-194.188 -96.5)"/><path d="M276.645,655.689a5.3,5.3,0,0,0-1.86,1.434c-.866,1.037-.91,1.4-.933,13.5-.027,13.621-.027,13.581,2.561,14.824,1.035.522,3.885.607,16.969.633,10.1.02,16.193-.128,17.057-.406,2.636-.833,2.679-1.033,2.707-15.014.027-13.781.027-13.7-2.432-14.864C309.592,655.274,278.071,655.132,276.645,655.689Z" transform="translate(-194.188 -96.5)"/><path d="M325.928,659.17A4.648,4.648,0,0,0,324.111,661c-.261.558-.444,6.11-.457,12.781-.026,12.982.059,13.541,2.561,14.745,1.122.561,3.281.605,14.724.548l13.429-.093,1.255-1.316,1.255-1.276.025-12.622.025-12.623-1.466-1.361L354,658.426l-13.3-.026C328.132,658.375,327.268,658.413,325.928,659.17Z" transform="translate(-194.188 -96.5)"/><path d="M364.2,658.28a5.334,5.334,0,0,0-1.86,1.434c-.865,1.037-.909,1.4-.933,13.54-.023,11.783.018,12.542.837,13.463,1.551,1.88,2.371,1.962,16.578,1.87l13.3-.093,1.255-1.316,1.255-1.276.025-12.583.025-12.582-1.25-1.281-1.25-1.321-13.558-.106C371.2,657.974,364.678,658.081,364.2,658.28Z" transform="translate(-194.188 -96.5)"/><path d="M403.793,657.842a5.314,5.314,0,0,0-1.859,1.435c-.866,1.036-.91,1.4-.934,13.579l-.025,12.543,1.25,1.28,1.25,1.321,13.558.147c12.911.1,13.559.066,14.942-.69a4.648,4.648,0,0,0,1.817-1.834c.26-.558.444-6.071.457-12.741s-.148-12.184-.406-12.744a4.657,4.657,0,0,0-1.81-1.841c-1.338-.761-2.158-.8-14.378-.787C410.53,657.5,404.269,657.643,403.793,657.842Z" transform="translate(-194.188 -96.5)"/><path d="M443.6,658.5c-2.377,1.194-2.377,1.114-2.4,14.935-.025,12.423.018,12.822.879,13.7a6.92,6.92,0,0,0,1.984,1.282c.561.2,6.693.373,13.558.386,13.818.028,14.9-.13,16.111-2.325,1-1.755,1.085-24.244.1-26-1.291-2.319-1.9-2.4-16.274-2.428C448.865,658.069,444.158,658.18,443.6,658.5Z" transform="translate(-194.188 -96.5)"/><path d="M480.029,658.215c-2.162,1.194-2.38,2.552-2.233,15.494.1,12.7.19,13.142,3,14.027,1.812.6,25.648.649,27.463.054,2.636-.834,2.679-1.033,2.707-15.014.022-11.424-.061-12.783-.751-13.543-1.465-1.681-2.112-1.762-15.714-1.789C482.276,657.42,481.326,657.458,480.029,658.215Z" transform="translate(-194.188 -96.5)"/><path d="M517.31,658.931c-2.421,1.194-2.508,1.833-2.534,14.815-.022,11.105.02,11.983.838,13.183,1.334,2.04,2.586,2.2,16.922,2.071l12.825-.094,1.3-1.156,1.341-1.2.025-12.782c-.016-13.582.027-13.382-2.13-14.744-.948-.6-2.5-.684-14.248-.707C520.852,658.339,518.261,658.414,517.31,658.931Z" transform="translate(-194.188 -96.5)"/><path d="M552.938,658.353a4.648,4.648,0,0,0-1.817,1.834c-.26.558-.444,6.07-.457,12.741s.149,12.184.407,12.743a4.646,4.646,0,0,0,1.81,1.842c1.38.761,2.028.8,14.939.748l13.559-.093,1.255-1.316,1.254-1.275.025-12.583.025-12.583-1.25-1.28-1.249-1.321-13.559-.147C554.969,657.558,554.322,657.6,552.938,658.353Z" transform="translate(-194.188 -96.5)"/><path d="M590.793,658.842a5.314,5.314,0,0,0-1.859,1.435c-.866,1.036-.91,1.4-.934,13.579l-.025,12.543,1.25,1.28,1.25,1.321,13.3.146c14.206.148,15.027.07,16.585-1.8.822-.917.867-1.676.89-13.419.027-13.622.027-13.582-2.561-14.825-1.036-.481-3.5-.606-14.119-.587C597.487,658.5,591.269,658.643,590.793,658.842Z" transform="translate(-194.188 -96.5)"/><path d="M627.188,659.12c-2.162,1.354-2.118,1.155-2.188,14.736l-.025,12.782,1.336,1.2L627.6,689l12.825.145c14.335.188,15.588.031,16.93-2,.823-1.2.868-2.075.89-13.18.019-9.866-.106-12.1-.622-13.063-1.291-2.319-1.895-2.4-16.274-2.429C629.694,658.446,628.139,658.523,627.188,659.12Z" transform="translate(-194.188 -96.5)"/><path d="M665,658.241c-2.377,1.193-2.377,1.114-2.4,14.815-.027,13.98.015,14.18,2.648,15.024.82.281,6.044.452,13.817.467,14.12.028,15.027-.13,16.111-2.525.911-2.035,1-23.565.094-25.6-1.161-2.519-1.722-2.6-16.317-2.629C670.266,657.812,665.559,657.922,665,658.241Z" transform="translate(-194.188 -96.5)"/><path d="M704.355,658.252c-2.378,1.194-2.509,1.833-2.534,14.735-.02,9.946.063,12.024.665,13.023,1.205,2.2,2.284,2.362,16.1,2.389,6.866.013,13-.134,13.559-.333a6.9,6.9,0,0,0,1.989-1.274c.865-.877.909-1.277.934-13.7.023-11.544-.061-12.9-.75-13.663-1.465-1.681-2.113-1.762-15.715-1.789C707.9,657.66,705.306,657.735,704.355,658.252Z" transform="translate(-194.188 -96.5)"/><path d="M748.022,656.7a4.648,4.648,0,0,0-1.817,1.834c-.26.559-.444,6.071-.457,12.741s.149,12.184.407,12.744a4.65,4.65,0,0,0,1.81,1.841c1.38.761,2.2.8,26.554.851,14.6.029,25.563-.109,26.168-.308a6.9,6.9,0,0,0,1.989-1.274c.866-.877.91-1.277.934-13.7.028-13.9.027-13.821-2.432-14.984-.647-.321-8.462-.457-26.339-.492C750.226,655.905,749.406,655.944,748.022,656.7Z" transform="translate(-194.188 -96.5)"/><path d="M810.538,654.928a4.648,4.648,0,0,0-1.817,1.834c-.26.558-.444,6.07-.457,12.741s.149,12.184.407,12.743a4.638,4.638,0,0,0,1.81,1.841c1.38.762,2.028.8,14.939.749l13.559-.093,1.255-1.316,1.254-1.276.025-12.582.025-12.583-1.25-1.28-1.249-1.321-13.559-.147C812.569,654.133,811.922,654.172,810.538,654.928Z" transform="translate(-194.188 -96.5)"/><path d="M852.544,656.144a5.329,5.329,0,0,0-1.86,1.435c-.865,1.037-.909,1.4-.933,13.5-.027,13.622-.027,13.582,2.561,14.825,1.855.882,26.209.931,28.068.055,2.593-1.233,2.593-1.193,2.62-14.854l.025-12.5-1.25-1.28L880.525,656l-13.558-.107C859.54,655.839,853.019,655.946,852.544,656.144Z" transform="translate(-194.188 -96.5)"/><path d="M281.878,693.65a4.837,4.837,0,0,0-1.6,1.555c-.65,1-.739,2.635-.76,13.38-.024,11.7.018,12.3.837,13.423a5.209,5.209,0,0,0,2.5,1.563c2.158.564,48.966.656,51.126.1a5.9,5.9,0,0,0,2.507-1.473c.823-1,.867-1.516.891-13.659.027-13.7.027-13.621-2.432-14.785C333.7,693.154,283.218,693.094,281.878,693.65Z" transform="translate(-194.188 -96.5)"/><path d="M346.977,694.487l-1.427,1.156-.154,12.223c-.106,10.345-.024,12.423.535,13.542,1.247,2.439,1.334,2.479,15.108,2.627,13.515.186,15.113-.011,16.585-1.765.866-1,.91-1.516.934-13.779l.025-12.783-1.336-1.161-1.336-1.161-13.775-.027-13.775-.027Z" transform="translate(-194.188 -96.5)"/><path d="M388.457,694.448l-1.341,1.156-.026,12.942c-.025,12.942-.026,12.982.966,13.822,1.767,1.562,2.976,1.684,15.455,1.709,12.868.025,13.948-.093,15.722-1.966.822-.838.866-1.437.891-13.66l.025-12.782-1.423-1.161-1.379-1.162-13.775-.027-13.775-.027Z" transform="translate(-194.188 -96.5)"/><path d="M426.05,694.6l-1.341,1.235-.026,12.783-.025,12.782,1.207,1.121c1.681,1.561,3.062,1.683,16.924,1.551,12.825-.094,13.041-.134,14.427-2.328.606-.918.7-2.755.717-13.34l.024-12.263-1.465-1.361-1.466-1.361-13.817-.028-13.818-.027Z" transform="translate(-194.188 -96.5)"/><path d="M476.918,694.222c-2.118,1.075-2.162,1.594-2.232,14.855-.023,11.944.019,12.463.837,13.463a5.887,5.887,0,0,0,2.5,1.483c2.287.564,167.108.89,168.793.294a9.909,9.909,0,0,0,2.205-1.234c.951-.837.951-.877.977-13.819l.026-12.942-1.25-1.161L647.526,694l-84.807-.168C493.2,693.735,477.782,693.785,476.918,694.222Z" transform="translate(-194.188 -96.5)"/><path d="M658.513,692.154l-1.341,1.155-.026,12.863-.025,12.862,1.207,1.121c1.681,1.561,3.062,1.683,16.924,1.551,13.04-.094,13.213-.134,14.47-2.568.564-1.117.654-3.194.588-13.54l-.1-12.223-1.423-1.162-1.379-1.161-13.775-.027L659.854,691Z" transform="translate(-194.188 -96.5)"/><path d="M697.949,691.436c-2.378,1.194-2.377,1.114-2.4,14.815l-.026,12.742,1.207,1.121c1.681,1.561,3.063,1.684,16.924,1.552,10.493-.1,12-.176,13-.814,2.032-1.234,2.12-1.913,2.145-14.895l.024-12.223-1.465-1.361-1.465-1.361-13.516-.027C703.347,691.008,698.511,691.118,697.949,691.436Z" transform="translate(-194.188 -96.5)"/><path d="M735.067,691.372a4.823,4.823,0,0,0-1.6,1.554c-.65,1-.739,2.635-.76,13.261-.023,11.264.019,12.183.837,13.383A3.94,3.94,0,0,0,736,721.252c2.244.6,31.175.661,32.817.065a9.83,9.83,0,0,0,2.205-1.234c.951-.837.951-.877.977-13.819l.026-12.942-1.337-1.161L769.353,691l-16.711.007C742.365,690.987,735.628,691.133,735.067,691.372Z" transform="translate(-194.188 -96.5)"/><path d="M776.331,692.264l-1.341,1.155-.026,12.982-.025,12.982,1.293,1.042a7.2,7.2,0,0,0,2.718,1.243c.777.162,6.909.214,13.688.147,13.516-.093,13.645-.133,14.946-2.607.563-1.077.654-3.114.545-13.5l-.106-12.223-1.422-1.162-1.38-1.161-13.775-.027-13.774-.027Z" transform="translate(-194.188 -96.5)"/><path d="M816.791,691.656c-2.377,1.193-2.377,1.113-2.4,14.814l-.025,12.743,1.207,1.121c1.681,1.561,3.062,1.683,16.923,1.551,10.494-.1,12-.176,13-.813,2.032-1.234,2.12-1.913,2.146-14.895l.024-12.223-1.466-1.361-1.465-1.362-13.516-.026C822.19,691.227,817.353,691.337,816.791,691.656Z" transform="translate(-194.188 -96.5)"/><path d="M861.146,691.794a4.847,4.847,0,0,0-1.6,1.555c-.649,1-.739,2.635-.76,13.38-.023,11.7.019,12.3.837,13.423a5.209,5.209,0,0,0,2.5,1.563c2.115.524,24.4.568,26.513.052a5.206,5.206,0,0,0,2.508-1.552c.822-1.117.867-1.716.89-13.42.026-13.3-.059-13.941-2.432-14.944C888.265,691.289,862.443,691.238,861.146,691.794Z" transform="translate(-194.188 -96.5)"/><rect class="cls-8" x="47.812" y="400.5" width="27" height="17"/><rect class="cls-8" x="579.812" y="399.5" width="27" height="17"/></g></g><g id="Taskleiste"><polyline id="HomeIcon" class="cls-9" points="18.698 374.683 72.674 374.683 612.408 374.683 661.859 374.683 662.045 393.379 18.698 393.379 18.698 374.683"/><g id="WindowsIcon"><polygon class="cls-10" points="21.6 381.44 21.6 384.293 25.52 384.293 25.52 380.669 21.6 381.44"/><polygon class="cls-10" points="25.52 384.293 29.583 384.365 29.583 380.025 25.52 380.669 25.52 384.293"/><polygon class="cls-10" points="21.6 386.731 21.6 384.097 25.52 384.097 25.52 387.443 21.6 386.731"/><polygon class="cls-10" points="25.52 384.097 29.583 384.031 29.583 388.037 25.52 387.443 25.52 384.097"/></g><g id="WordIconaufLeiste"><polyline id="WordIconFeld" class="cls-11" points="33.854 375.217 47.442 375.217 47.442 392.311 33.854 392.311 33.854 375.217 47.442 375.217"/><rect class="cls-12" x="38.05" y="379.223" width="5.564" height="7.211"/><polygon class="cls-13" points="38.05 379.223 43.614 376.309 43.614 379.223 38.05 379.223"/><line class="cls-12" x1="41.195" y1="377.888" x2="43.44" y2="377.888"/><line class="cls-12" x1="41.195" y1="378.422" x2="43.44" y2="378.422"/><line class="cls-12" x1="41.195" y1="378.956" x2="43.44" y2="378.956"/><text class="cls-14" transform="translate(39.26 384.063) scale(0.906 1)">W</text></g><g id="WordIconaufLeiste-2" data-name="WordIconaufLeiste"><polyline id="WordIconFeld-2" data-name="WordIconFeld" class="cls-11" points="47.884 375.217 61.473 375.217 61.473 392.311 47.884 392.311 47.884 375.217 61.473 375.217"/></g><g id="YoutubeIconLeiste"><rect class="cls-15" x="49.42" y="379.29" width="10.16" height="7.345" rx="3.672"/><path class="cls-16" d="M247.63,478.157v2.523c0,.089.061.15.119.12l2.462-1.3a.164.164,0,0,0,0-.281l-2.473-1.172C247.683,478.023,247.63,478.078,247.63,478.157Z" transform="translate(-194.188 -96.5)"/></g><g id="WLAN"><path class="cls-17" d="M790.507,484.27h0a3.535,3.535,0,0,1,3.461-3.6h.7" transform="translate(-194.188 -96.5)"/><path class="cls-17" d="M787.171,484.27h0c0-3.983,2.791-7.211,6.234-7.211h1.265" transform="translate(-194.188 -96.5)"/><path class="cls-17" d="M788.9,484.27h0c0-2.987,2.147-5.408,4.795-5.408h.973" transform="translate(-194.188 -96.5)"/><ellipse class="cls-18" cx="599.276" cy="386.568" rx="1.049" ry="1.202"/></g><polyline id="Dropdown" class="cls-17" points="577.788 387.703 582.036 383.296 586.283 387.703"/><text class="cls-19" transform="translate(636.312 381.989) scale(0.906 1)">06:00<tspan x="-8.447" y="8.974">25.06.2021</tspan></text><g id="Lautstaerke"><polygon class="cls-17" points="613.602 389.373 607.255 386.125 607.255 383.342 613.602 380.559 613.602 389.373"/><path class="cls-17" d="M809.521,478.914h0a3.618,3.618,0,0,1,.248,3.449l-.248.552" transform="translate(-194.188 -96.5)"/><path class="cls-17" d="M810.093,477.593h0a4.512,4.512,0,0,1,.451,6.27l-.451.56" transform="translate(-194.188 -96.5)"/></g></g><g id="youtube-Fenster"><g id="YoutubeIconLeiste-2" data-name="YoutubeIconLeiste"><polyline id="FensterWordausgewaehlt" class="cls-20" points="48.368 374.683 61.999 374.683 61.999 391.776 48.368 391.776 48.368 374.683 61.999 374.683"/><rect class="cls-15" x="49.42" y="379.29" width="10.16" height="7.345" rx="3.672"/><path class="cls-16" d="M247.63,478.157v2.523c0,.089.061.15.119.12l2.462-1.3a.164.164,0,0,0,0-.281l-2.473-1.172C247.683,478.023,247.63,478.078,247.63,478.157Z" transform="translate(-194.188 -96.5)"/></g><polygon class="cls-21" points="18.698 9.314 66.391 9.314 661.859 9.314 661.859 374.683 18.698 374.683 18.698 9.314"/><g id="ObereLeisteYoutube"><polyline id="youtubeLeiste" class="cls-22" points="18.698 44.731 661.859 44.731 661.859 27.208 18.698 27.208 18.698 44.731"/><g id="Hamburgermenu"><line class="cls-17" x1="23.536" y1="32.55" x2="31.035" y2="32.55"/><line class="cls-17" x1="23.536" y1="34.687" x2="31.035" y2="34.687"/><line class="cls-17" x1="23.536" y1="36.823" x2="31.035" y2="36.823"/></g><g id="YoutubeIconLeiste-3" data-name="YoutubeIconLeiste"><rect class="cls-15" x="40.812" y="31.5" width="12" height="7" rx="1.935"/><path class="cls-16" d="M240,129.881V132.4c0,.089.061.15.119.12l2.463-1.3a.164.164,0,0,0,0-.281l-2.472-1.172C240.053,129.747,240,129.8,240,129.881Z" transform="translate(-194.188 -96.5)"/><text class="cls-23" transform="translate(52.908 36.784) scale(0.906 1)">Y<tspan class="cls-24" x="3.722" y="0">o</tspan><tspan class="cls-25" x="7.571" y="0">u</tspan><tspan class="cls-26" x="10.922" y="0">T</tspan><tspan class="cls-27" x="14.252" y="0">u</tspan><tspan class="cls-28" x="18.103" y="0">b</tspan><tspan class="cls-29" x="22.01" y="0">e</tspan></text></g><g id="Suche"><rect id="Suchefeld" class="cls-30" x="251.895" y="30.413" width="159.658" height="10.683"/><text class="cls-31" transform="translate(254.073 37.275) scale(0.906 1)">Suchen</text><g id="Suchlinse"><rect class="cls-32" x="401.803" y="30.413" width="9.75" height="10.683"/><path class="cls-33" d="M598.513,131.432a1.285,1.285,0,0,1-.271-.8h0v-.549l.027-.093a3,3,0,0,1,.447-.932h0a.371.371,0,0,1,.176-.136h0c.225-.139.318-.141.8-.141h.808a1.793,1.793,0,0,1,.949.992l.124.3.025.068a3.146,3.146,0,0,1,.17,1.406h0l-.195.516,1.5,2.267-.4.324-1.7-2.135-.2,0a1.9,1.9,0,0,1-.554-.077l-.008,0a1.776,1.776,0,0,1-.366-.154l-.354-.168-.557-.31h0A1.291,1.291,0,0,1,598.513,131.432Z" transform="translate(-194.188 -96.5)"/><ellipse class="cls-30" cx="600.058" cy="130.595" rx="1.044" ry="1.573" transform="translate(-162.845 265.803) rotate(-34.445)"/></g></g><g id="Profil"><ellipse class="cls-34" cx="653.459" cy="36.289" rx="6.29" ry="6.944"/><ellipse cx="653.217" cy="33.885" rx="2.419" ry="2.671"/><path d="M843.73,137.131l.879-3.748a1.008,1.008,0,0,1,.9-.861h2.935a1.35,1.35,0,0,1,1.193.915l1.57,3.752a.786.786,0,0,1-.27.97h0a7.082,7.082,0,0,1-6.832,0h0A.933.933,0,0,1,843.73,137.131Z" transform="translate(-194.188 -96.5)"/></g><g id="Gloeckchen"><path class="cls-35" d="M830.391,126.793a.859.859,0,0,1,1.187-.075l1,.822h0a5.839,5.839,0,0,0,1.037,3.347l.246.66c.574.817.244,1.528-.568,2.043h-4.06c-.863-.506-1.3-1.2-.694-2.043l.208-.555a4.62,4.62,0,0,0,.853-2.386l.047-.672a1.07,1.07,0,0,1,.288-.664Z" transform="translate(-194.188 -96.5)"/><path class="cls-32" d="M830.956,133.59h0a2.522,2.522,0,0,1,.742-.006l.036.006" transform="translate(-194.188 -96.5)"/></g><g id="Tab"><polygon class="cls-36" points="18.698 27.208 23.536 10.939 69.866 10.939 75.588 27.208 18.698 27.208"/><g id="YoutubeIconLeiste-4" data-name="YoutubeIconLeiste"><rect class="cls-15" x="22.812" y="15.5" width="12" height="7" rx="1.935"/><path class="cls-16" d="M222,114.39v2.523c0,.089.061.151.119.12l2.463-1.3a.163.163,0,0,0,0-.28l-2.472-1.172C222.053,114.256,222,114.312,222,114.39Z" transform="translate(-194.188 -96.5)"/><text class="cls-37" transform="translate(36.35 19.861) scale(0.906 1)">(<tspan class="cls-38" x="1.094" y="0">+</tspan><tspan class="cls-39" x="3.711" y="0">9</tspan><tspan class="cls-40" x="6.265" y="0">9</tspan><tspan class="cls-41" x="8.581" y="0">) </tspan><tspan class="cls-42" x="10.796" y="0">Y</tspan><tspan class="cls-43" x="13.441" y="0">o</tspan><tspan class="cls-44" x="15.906" y="0">u</tspan><tspan class="cls-45" x="17.967" y="0">T</tspan><tspan class="cls-46" x="20.326" y="0">u</tspan><tspan class="cls-47" x="22.773" y="0">b</tspan><tspan class="cls-41" x="25.246" y="0">e - </tspan><tspan class="cls-48" x="30.79" y="0">V</tspan><tspan class="cls-49" x="33.857" y="0">i</tspan><tspan class="cls-41" x="34.615" y="0">...</tspan></text></g></g><g id="xButton"><path class="cls-50" d="M840.148,106.348v4.972c0,.763,1.128,1.383,2.526,1.388l12.956.05v-6.41Z" transform="translate(-194.188 -96.5)"/><text class="cls-19" transform="translate(651.788 15.708) scale(0.906 1)">X</text></g><g id="Verkleinern"><rect class="cls-51" x="639.239" y="10.382" width="3.819" height="2.926"/><rect class="cls-51" x="636.768" y="12.263" width="3.819" height="2.926"/></g><line id="Minimieren" class="cls-52" x1="628.227" y1="13.053" x2="633.528" y2="13.053"/><g id="newTab"><line class="cls-52" x1="78.448" y1="17.439" x2="82.803" y2="17.439"/><line class="cls-52" x1="80.594" y1="15.724" x2="80.594" y2="19.486"/></g></g><g id="Video"><rect class="cls-1" x="43.372" y="60.327" width="458.654" height="237.17"/><g id="Zeitleiste"><rect class="cls-53" x="43.312" y="274" width="457" height="3"/><rect class="cls-54" x="43.312" y="274" width="52" height="3"/><rect class="cls-55" x="43.312" y="274" width="5" height="3"/></g><rect class="cls-56" x="43.312" y="277" width="458" height="20"/><polygon id="play" class="cls-10" points="45.812 280.5 45.812 292.935 55.073 286.717 45.812 280.5"/><g id="nextVideo"><polygon class="cls-10" points="60.312 283.5 60.312 290.935 65.812 287.217 60.312 283.5"/><rect class="cls-10" x="67.312" y="283" width="2" height="9"/></g><g id="Lautstaerke-2" data-name="Lautstaerke"><polygon class="cls-10" points="89.312 295 84.562 292 79.812 292 79.812 283 84.562 283 89.312 279 89.312 295"/><path class="cls-17" d="M284.5,382v2.739h0a1.921,1.921,0,0,0,0-2.739Z" transform="translate(-194.188 -96.5)"/><path class="cls-17" d="M284.5,377.5l1.349,1.4a6.719,6.719,0,0,1,.34,8.934l-1.319,1.6" transform="translate(-194.188 -96.5)"/></g><text class="cls-57" transform="translate(97.942 288.555)">0<tspan class="cls-58" x="3.683" y="0">:</tspan><tspan class="cls-59" x="5.447" y="0">0</tspan><tspan class="cls-60" x="9.206" y="0">2</tspan><tspan class="cls-61" x="13.122" y="0">/</tspan><tspan class="cls-62" x="14.762" y="0">1</tspan><tspan x="18.306" y="0">0</tspan><tspan class="cls-58" x="21.989" y="0">:</tspan><tspan class="cls-63" x="23.753" y="0">0</tspan><tspan class="cls-64" x="27.656" y="0">0</tspan></text><path id="Einstellungen" class="cls-65" d="M640.254,375.263a8.067,8.067,0,0,0-2.087-.147,5.811,5.811,0,0,0-1.338.2c-.151.046-.161.057-.212.235a2.934,2.934,0,0,0-.023,1.055,3.9,3.9,0,0,1,.025.55c-.006.043-.008.044-.055.055a3.922,3.922,0,0,0-1.087.657.161.161,0,0,1-.072.05.459.459,0,0,1-.191-.1c-.083-.056-.146-.105-.552-.43a2.739,2.739,0,0,0-.646-.438c-.121-.045-.119-.046-.245.074a7.786,7.786,0,0,0-1.1,1.393,6.63,6.63,0,0,0-.791,1.6l-.064.213.016.051c.045.148.254.289.858.583a2.078,2.078,0,0,1,.551.316c.029.034.03.04.016.087a1.832,1.832,0,0,0-.04.373,4.885,4.885,0,0,0,.081,1.031c.014.048.014.062,0,.082-.049.065-.177.128-.628.308a2.458,2.458,0,0,0-.788.394l-.053.055.024.1a6.012,6.012,0,0,0,.188.6,7.732,7.732,0,0,0,1.593,2.559c.06.057.065.06.119.063a.573.573,0,0,0,.3-.089,4.6,4.6,0,0,0,.621-.413,1.857,1.857,0,0,1,.507-.314c.038,0,.043,0,.1.054a4.74,4.74,0,0,0,1.2.684c.087.025.1.037.1.133a2.872,2.872,0,0,1-.05.5c-.108.756-.117,1.019-.039,1.181l.027.056.21.055a5.73,5.73,0,0,0,1.57.157,7.52,7.52,0,0,0,1.871-.267c.153-.048.171-.066.2-.213a2.334,2.334,0,0,0-.044-.87,1.739,1.739,0,0,1-.041-.577l.017-.061.076-.024a2.713,2.713,0,0,0,.515-.239,3.582,3.582,0,0,0,.7-.462.118.118,0,0,1,.053-.034c.062,0,.2.1.578.4a4.877,4.877,0,0,0,.648.475.728.728,0,0,0,.23.079,2.431,2.431,0,0,0,.456-.441,8.527,8.527,0,0,0,1.2-1.922,4.6,4.6,0,0,0,.274-.719c.081-.275.082-.286.032-.362-.089-.135-.29-.258-.793-.488-.421-.193-.558-.271-.584-.328a.248.248,0,0,1,.006-.112,3.283,3.283,0,0,0,.036-.776,3.137,3.137,0,0,0-.056-.575c-.019-.063-.01-.082.059-.132a3.032,3.032,0,0,1,.535-.237,4.617,4.617,0,0,0,.666-.3.51.51,0,0,0,.212-.176,3.231,3.231,0,0,0-.153-.59,7.993,7.993,0,0,0-1.578-2.8c-.057-.051-.061-.054-.119-.057-.166-.012-.4.114-.983.537a1.519,1.519,0,0,1-.5.3c-.015,0-.049-.023-.1-.066a4.3,4.3,0,0,0-1-.583,1.121,1.121,0,0,0-.167-.059c-.046,0-.064-.034-.069-.112a3.527,3.527,0,0,1,.074-.641,4.932,4.932,0,0,0,.084-.751.647.647,0,0,0-.04-.277l-.018-.036-.147-.041Zm-.965,5.418a1.324,1.324,0,0,1,.639.547,1.163,1.163,0,0,1,.151.4,1.653,1.653,0,0,1-.038.775,1.4,1.4,0,0,1-.858,1.067,1.656,1.656,0,0,1-1.129-.052,1.325,1.325,0,0,1-.913-1.538,2.338,2.338,0,0,1,.2-.611,1.328,1.328,0,0,1,.963-.72,1.874,1.874,0,0,1,.568.008A3.17,3.17,0,0,1,639.289,380.681Z" transform="translate(-194.188 -96.5)"/><rect id="KinoModusButton" class="cls-17" x="460.312" y="283" width="12" height="6"/><g id="Fullscreen"><polyline class="cls-17" points="491.768 285.191 491.768 281.5 487.693 281.5"/><polyline class="cls-17" points="482.812 285.809 482.812 289.5 486.887 289.5"/><polyline class="cls-17" points="491.768 285.809 491.768 289.5 487.693 289.5"/><polyline class="cls-17" points="482.812 285.191 482.812 281.5 486.887 281.5"/></g></g><g id="Videodaten"><text class="cls-66" transform="translate(42.288 320.254) scale(0.906 1)">V<tspan class="cls-67" x="14.963" y="0">i</tspan><tspan class="cls-68" x="18.367" y="0">d</tspan><tspan class="cls-69" x="30.217" y="0">e</tspan><tspan class="cls-70" x="42.174" y="0">o </tspan><tspan class="cls-71" x="59.25" y="0">T</tspan><tspan class="cls-72" x="72.604" y="0">i</tspan><tspan class="cls-73" x="75.867" y="0">t</tspan><tspan class="cls-74" x="80.404" y="0">e</tspan><tspan class="cls-70" x="92.333" y="0">l</tspan></text><text class="cls-75" transform="translate(42.604 342.847) scale(0.906 1)">3<tspan class="cls-76" x="6.068" y="0">1</tspan><tspan class="cls-77" x="12.093" y="0">4</tspan><tspan class="cls-78" x="17.76" y="0">1</tspan><tspan class="cls-79" x="23.808" y="0">5</tspan><tspan class="cls-80" x="30.456" y="0">9 </tspan><tspan class="cls-81" x="40.199" y="0">A</tspan><tspan class="cls-82" x="48.161" y="0">u</tspan><tspan class="cls-83" x="54.766" y="0">f</tspan><tspan class="cls-84" x="57.895" y="0">r</tspan><tspan class="cls-85" x="61.838" y="0">u</tspan><tspan class="cls-86" x="68.444" y="0">f</tspan><tspan class="cls-80" x="71.42" y="0">e </tspan><tspan class="cls-87" x="81.162" y="0">0</tspan><tspan class="cls-88" x="87.796" y="0">3</tspan><tspan class="cls-89" x="94.405" y="0">.</tspan><tspan class="cls-90" x="97.381" y="0">0</tspan><tspan class="cls-91" x="104.295" y="0">6</tspan><tspan class="cls-92" x="110.879" y="0">.</tspan><tspan class="cls-88" x="114.174" y="0">20</tspan><tspan class="cls-93" x="127.393" y="0">2</tspan><tspan class="cls-80" x="133.634" y="0">1</tspan></text></g><g id="ProfilUploader"><ellipse class="cls-94" cx="54.984" cy="358.925" rx="10.402" ry="11.485"/><text class="cls-95" transform="translate(70.623 365.421) scale(0.906 1)">M<tspan class="cls-96" x="10.312" y="0">P</tspan><tspan class="cls-80" x="18.256" y="0">M </tspan><tspan class="cls-97" x="31.548" y="0">W</tspan><tspan class="cls-98" x="43.22" y="0">U</tspan><tspan class="cls-80" x="52.074" y="0">M </tspan><tspan class="cls-88" x="65.366" y="0">20</tspan><tspan class="cls-93" x="78.584" y="0">2</tspan><tspan class="cls-80" x="84.826" y="0">1</tspan></text></g><g id="EmpfohleneVideos"><rect class="cls-18" x="530.329" y="60.594" width="54.671" height="35.789"/><rect class="cls-18" x="530.329" y="117.749" width="54.671" height="35.789"/><rect class="cls-18" x="530.329" y="174.371" width="54.671" height="35.789"/><rect class="cls-18" x="530.329" y="226.719" width="54.671" height="35.789"/><rect class="cls-18" x="530.329" y="283.875" width="54.671" height="35.789"/><rect class="cls-18" x="530.329" y="340.496" width="54.671" height="33.652"/><text class="cls-99" transform="translate(587.587 70.004) scale(0.906 1)">T<tspan class="cls-100" x="6.222" y="0">u</tspan><tspan class="cls-101" x="12.776" y="0">t</tspan><tspan class="cls-102" x="15.733" y="0">o</tspan><tspan class="cls-103" x="22.377" y="0">r</tspan><tspan class="cls-104" x="26.301" y="0">i</tspan><tspan class="cls-105" x="28.617" y="0">a</tspan><tspan class="cls-80" x="35.202" y="0">l </tspan><tspan class="cls-106" x="40.663" y="0">M</tspan><tspan class="cls-107" x="50.92" y="0">a</tspan><tspan class="cls-108" x="57.277" y="0">y</tspan><tspan class="cls-80" x="63.016" y="0">a </tspan><tspan class="cls-109"><tspan x="0" y="15.384">-</tspan><tspan class="cls-110" x="2.991" y="15.384">T</tspan><tspan class="cls-111" x="10.323" y="15.384">H</tspan><tspan class="cls-80" x="19.201" y="15.384">M</tspan></tspan></text><text class="cls-112" transform="translate(587.587 127.16) scale(0.906 1)">U<tspan class="cls-113" x="8.74" y="0">n</tspan><tspan class="cls-82" x="15.309" y="0">s</tspan><tspan class="cls-114" x="21.195" y="0">e</tspan><tspan class="cls-115" x="27.807" y="0">r</tspan><tspan class="cls-80" x="31.54" y="0">e </tspan><tspan class="cls-116"><tspan x="0" y="15.384">H</tspan><tspan class="cls-117" x="8.841" y="15.384">o</tspan><tspan class="cls-118" x="15.506" y="15.384">c</tspan><tspan class="cls-119" x="21.508" y="15.384">h</tspan><tspan class="cls-120" x="28.083" y="15.384">s</tspan><tspan class="cls-118" x="33.956" y="15.384">c</tspan><tspan class="cls-121" x="39.959" y="15.384">h</tspan><tspan class="cls-122" x="46.514" y="15.384">u</tspan><tspan class="cls-123" x="53.079" y="15.384">l</tspan><tspan class="cls-80" x="55.415" y="15.384">e - </tspan></tspan><tspan class="cls-110"><tspan x="0" y="30.769">T</tspan><tspan class="cls-111" x="7.332" y="30.769">H</tspan><tspan class="cls-80" x="16.21" y="30.769">M</tspan></tspan></text><text class="cls-124" transform="translate(587.587 183.782) scale(0.906 1)">V<tspan class="cls-102" x="7.455" y="0">o</tspan><tspan class="cls-125" x="14.099" y="0">r</tspan><tspan class="cls-126" x="18.334" y="0">t</tspan><tspan class="cls-127" x="21.43" y="0">r</tspan><tspan class="cls-105" x="25.209" y="0">a</tspan><tspan class="cls-80" x="31.794" y="0">g </tspan><tspan class="cls-128" x="41.536" y="0">z</tspan><tspan class="cls-80" x="47.314" y="0">u </tspan><tspan class="cls-80"><tspan x="0" y="15.384">I</tspan><tspan class="cls-129" x="3.087" y="15.384">EE</tspan><tspan x="18.917" y="15.384">E - </tspan><tspan class="cls-110" x="36.964" y="15.384">T</tspan><tspan class="cls-130" x="44.296" y="15.384">H</tspan><tspan x="53.173" y="15.384">M</tspan></tspan></text><text class="cls-131" transform="translate(587.587 236.664) scale(0.906 1)">Z<tspan class="cls-132" x="7.269" y="0">u</tspan><tspan x="13.82" y="0">k</tspan><tspan class="cls-133" x="19.668" y="0">u</tspan><tspan class="cls-134" x="26.225" y="0">n</tspan><tspan class="cls-135" x="32.748" y="0">f</tspan><tspan class="cls-80" x="36.175" y="0">t </tspan><tspan class="cls-136" x="42.35" y="0">v</tspan><tspan class="cls-137" x="48.064" y="0">o</tspan><tspan class="cls-80" x="54.701" y="0">n </tspan><tspan class="cls-138"><tspan x="0" y="15.384">K</tspan><tspan class="cls-80" x="8.09" y="15.384">I - </tspan><tspan class="cls-110" x="21.148" y="15.384">T</tspan><tspan class="cls-130" x="28.48" y="15.384">H</tspan><tspan class="cls-139" x="37.357" y="15.384">M</tspan></tspan></text><path class="cls-18" d="M782.694,389.786v-9.177h6.01v1.083h-4.91V384.5h4.6v1.076h-4.6V388.7h5.1v1.083Z" transform="translate(-194.188 -96.5)"/><path class="cls-18" d="M789.672,381.905v-1.3h1.021v1.3Zm0,7.881v-6.647h1.021v6.647Z" transform="translate(-194.188 -96.5)"/><path class="cls-18" d="M791.747,389.786v-6.647h.919v.944a2.114,2.114,0,0,1,1.916-1.1,2.316,2.316,0,0,1,1,.216,1.606,1.606,0,0,1,.683.567,2.3,2.3,0,0,1,.317.833,7.054,7.054,0,0,1,.057,1.094v4.088h-1.021v-4.044a3.3,3.3,0,0,0-.119-1.029,1.06,1.06,0,0,0-.422-.545,1.248,1.248,0,0,0-.712-.2,1.563,1.563,0,0,0-1.125.457,2.4,2.4,0,0,0-.473,1.733v3.631Z" transform="translate(-194.188 -96.5)"/><path class="cls-18" d="M797.682,389.786v-9.177H798.7v9.177Z" transform="translate(-194.188 -96.5)"/><path class="cls-18" d="M799.458,386.462a3.622,3.622,0,0,1,.93-2.735,2.642,2.642,0,0,1,1.893-.739,2.573,2.573,0,0,1,2.03.9,3.633,3.633,0,0,1,.788,2.481,4.787,4.787,0,0,1-.349,2.019,2.605,2.605,0,0,1-1.015,1.142,2.727,2.727,0,0,1-1.454.408,2.58,2.58,0,0,1-2.044-.9A3.816,3.816,0,0,1,799.458,386.462Zm1.049,0a3.045,3.045,0,0,0,.5,1.913,1.579,1.579,0,0,0,2.534,0,3.108,3.108,0,0,0,.5-1.946,2.947,2.947,0,0,0-.507-1.869,1.582,1.582,0,0,0-2.532,0A3.029,3.029,0,0,0,800.507,386.462Z" transform="translate(-194.188 -96.5)"/><path class="cls-18" d="M805.7,390.337l.992.163a1.075,1.075,0,0,0,.346.738,1.582,1.582,0,0,0,1.038.314,1.693,1.693,0,0,0,1.094-.314,1.556,1.556,0,0,0,.521-.876,7.99,7.99,0,0,0,.074-1.446,2.029,2.029,0,0,1-1.667.87,2.2,2.2,0,0,1-1.922-.989,4.085,4.085,0,0,1-.68-2.372,4.812,4.812,0,0,1,.312-1.756,2.727,2.727,0,0,1,.9-1.243,2.277,2.277,0,0,1,1.392-.438,2.1,2.1,0,0,1,1.757.951v-.8h.942v5.746a5.96,5.96,0,0,1-.287,2.2,2.22,2.22,0,0,1-.907,1.023,2.9,2.9,0,0,1-1.528.376,2.689,2.689,0,0,1-1.741-.535A1.893,1.893,0,0,1,805.7,390.337Zm.844-3.993a3.108,3.108,0,0,0,.471,1.909,1.46,1.46,0,0,0,2.359,0,3,3,0,0,0,.476-1.875,2.932,2.932,0,0,0-.49-1.841,1.465,1.465,0,0,0-1.182-.619,1.423,1.423,0,0,0-1.157.61A2.915,2.915,0,0,0,806.547,386.344Z" transform="translate(-194.188 -96.5)"/><path class="cls-18" d="M811.713,390.337l.992.163a1.079,1.079,0,0,0,.346.738,1.582,1.582,0,0,0,1.038.314,1.693,1.693,0,0,0,1.094-.314,1.563,1.563,0,0,0,.522-.876,8.023,8.023,0,0,0,.073-1.446,2.029,2.029,0,0,1-1.667.87,2.2,2.2,0,0,1-1.922-.989,4.085,4.085,0,0,1-.68-2.372,4.812,4.812,0,0,1,.312-1.756,2.727,2.727,0,0,1,.9-1.243,2.277,2.277,0,0,1,1.392-.438,2.1,2.1,0,0,1,1.758.951v-.8h.941v5.746a5.96,5.96,0,0,1-.287,2.2,2.22,2.22,0,0,1-.907,1.023,2.9,2.9,0,0,1-1.528.376,2.684,2.684,0,0,1-1.74-.535A1.894,1.894,0,0,1,811.713,390.337Zm.845-3.993a3.109,3.109,0,0,0,.47,1.909,1.46,1.46,0,0,0,2.359,0,3,3,0,0,0,.476-1.875,2.926,2.926,0,0,0-.49-1.841,1.465,1.465,0,0,0-1.182-.619,1.424,1.424,0,0,0-1.157.61A2.915,2.915,0,0,0,812.558,386.344Z" transform="translate(-194.188 -96.5)"/><path class="cls-18" d="M822.033,387.646l1.054.143a2.878,2.878,0,0,1-.924,1.584,2.9,2.9,0,0,1-3.818-.335,3.739,3.739,0,0,1-.774-2.519,3.925,3.925,0,0,1,.782-2.605,2.534,2.534,0,0,1,2.03-.926,2.463,2.463,0,0,1,1.973.908,3.85,3.85,0,0,1,.765,2.553c0,.068,0,.167,0,.3h-4.491a2.712,2.712,0,0,0,.562,1.678,1.6,1.6,0,0,0,1.258.582,1.466,1.466,0,0,0,.958-.325A2.182,2.182,0,0,0,822.033,387.646Zm-3.351-1.823h3.362a2.413,2.413,0,0,0-.385-1.258,1.515,1.515,0,0,0-1.265-.651,1.545,1.545,0,0,0-1.182.52A2.168,2.168,0,0,0,818.682,385.823Z" transform="translate(-194.188 -96.5)"/><path class="cls-18" d="M823.894,389.786v-6.647h.918v.944a2.116,2.116,0,0,1,1.916-1.1,2.313,2.313,0,0,1,1,.216,1.6,1.6,0,0,1,.683.567,2.287,2.287,0,0,1,.317.833,7.054,7.054,0,0,1,.057,1.094v4.088h-1.02v-4.044a3.3,3.3,0,0,0-.12-1.029,1.06,1.06,0,0,0-.422-.545,1.242,1.242,0,0,0-.711-.2,1.565,1.565,0,0,0-1.126.457,2.41,2.41,0,0,0-.473,1.733v3.631Z" transform="translate(-194.188 -96.5)"/><path class="cls-18" d="M832.724,381.905v-1.3h1.02v1.3Zm0,7.881v-6.647h1.02v6.647Z" transform="translate(-194.188 -96.5)"/><path class="cls-18" d="M834.8,389.786v-6.647h.919v.944a2.115,2.115,0,0,1,1.916-1.1,2.313,2.313,0,0,1,1,.216,1.6,1.6,0,0,1,.683.567,2.287,2.287,0,0,1,.317.833,7.054,7.054,0,0,1,.057,1.094v4.088H838.67v-4.044a3.3,3.3,0,0,0-.119-1.029,1.06,1.06,0,0,0-.422-.545,1.245,1.245,0,0,0-.712-.2,1.563,1.563,0,0,0-1.125.457,2.41,2.41,0,0,0-.473,1.733v3.631Z" transform="translate(-194.188 -96.5)"/><path class="cls-18" d="M782.337,400.7a5.311,5.311,0,0,1,1.111-3.577,3.61,3.61,0,0,1,2.869-1.293,3.7,3.7,0,0,1,2.075.608,3.846,3.846,0,0,1,1.409,1.693,5.982,5.982,0,0,1,.485,2.463,5.885,5.885,0,0,1-.511,2.5,3.713,3.713,0,0,1-1.445,1.668,3.827,3.827,0,0,1-2.019.566,3.652,3.652,0,0,1-2.1-.626,3.9,3.9,0,0,1-1.4-1.709A5.631,5.631,0,0,1,782.337,400.7Zm1.134.019a3.924,3.924,0,0,0,.807,2.614,2.64,2.64,0,0,0,4.071-.01,4.161,4.161,0,0,0,.8-2.735,5.137,5.137,0,0,0-.342-1.956,2.852,2.852,0,0,0-1-1.3,2.53,2.53,0,0,0-1.483-.46,2.679,2.679,0,0,0-2.01.886A4.225,4.225,0,0,0,783.471,400.719Z" transform="translate(-194.188 -96.5)"/><path class="cls-18" d="M791.215,405.17v-6.648h.919v.945a2.113,2.113,0,0,1,1.916-1.095,2.3,2.3,0,0,1,1,.216,1.6,1.6,0,0,1,.683.566,2.3,2.3,0,0,1,.317.833,7.069,7.069,0,0,1,.057,1.095v4.088h-1.021v-4.044a3.3,3.3,0,0,0-.119-1.029,1.06,1.06,0,0,0-.422-.545,1.245,1.245,0,0,0-.712-.2,1.563,1.563,0,0,0-1.125.457,2.408,2.408,0,0,0-.473,1.733v3.631Z" transform="translate(-194.188 -96.5)"/><path class="cls-18" d="M797.154,405.17v-9.177h1.02v9.177Z" transform="translate(-194.188 -96.5)"/><path class="cls-18" d="M799.24,397.289v-1.3h1.021v1.3Zm0,7.881v-6.648h1.021v6.648Z" transform="translate(-194.188 -96.5)"/><path class="cls-18" d="M801.315,405.17v-6.648h.919v.945a2.113,2.113,0,0,1,1.916-1.095,2.3,2.3,0,0,1,1,.216,1.6,1.6,0,0,1,.683.566,2.3,2.3,0,0,1,.317.833,7.069,7.069,0,0,1,.057,1.095v4.088h-1.02v-4.044a3.3,3.3,0,0,0-.12-1.029,1.06,1.06,0,0,0-.422-.545,1.242,1.242,0,0,0-.711-.2,1.565,1.565,0,0,0-1.126.457,2.408,2.408,0,0,0-.473,1.733v3.631Z" transform="translate(-194.188 -96.5)"/><path class="cls-18" d="M811.413,403.029l1.054.144a2.878,2.878,0,0,1-.924,1.584,2.9,2.9,0,0,1-3.818-.335,3.737,3.737,0,0,1-.774-2.52,3.919,3.919,0,0,1,.782-2.6,2.533,2.533,0,0,1,2.03-.926,2.465,2.465,0,0,1,1.973.907,3.853,3.853,0,0,1,.765,2.554c0,.067,0,.167,0,.3h-4.491a2.718,2.718,0,0,0,.561,1.678,1.6,1.6,0,0,0,1.259.582,1.461,1.461,0,0,0,.958-.326A2.172,2.172,0,0,0,811.413,403.029Zm-3.351-1.822h3.362a2.419,2.419,0,0,0-.385-1.258,1.515,1.515,0,0,0-1.265-.651,1.547,1.547,0,0,0-1.182.519A2.167,2.167,0,0,0,808.062,401.207Z" transform="translate(-194.188 -96.5)"/><path class="cls-18" d="M816.246,405.17v-9.177h2.862a6.281,6.281,0,0,1,1.48.132,2.719,2.719,0,0,1,1.219.657,3.749,3.749,0,0,1,.984,1.568,6.745,6.745,0,0,1,.326,2.181,7.061,7.061,0,0,1-.221,1.854,4.7,4.7,0,0,1-.567,1.336,3.214,3.214,0,0,1-.757.833,2.961,2.961,0,0,1-.992.46,5.173,5.173,0,0,1-1.335.156Zm1.1-1.083h1.775a3.945,3.945,0,0,0,1.29-.169,1.809,1.809,0,0,0,.745-.476,2.972,2.972,0,0,0,.61-1.161,6.248,6.248,0,0,0,.218-1.768,4.644,4.644,0,0,0-.428-2.213,2.236,2.236,0,0,0-1.04-1.036,3.925,3.925,0,0,0-1.423-.188h-1.747Z" transform="translate(-194.188 -96.5)"/><path class="cls-18" d="M824.105,397.289v-1.3h1.021v1.3Zm0,7.881v-6.648h1.021v6.648Z" transform="translate(-194.188 -96.5)"/><path class="cls-18" d="M830.354,403.029l1.055.144a2.885,2.885,0,0,1-.925,1.584,2.593,2.593,0,0,1-1.723.563,2.622,2.622,0,0,1-2.095-.9,3.742,3.742,0,0,1-.774-2.52,3.924,3.924,0,0,1,.782-2.6,2.536,2.536,0,0,1,2.03-.926,2.465,2.465,0,0,1,1.973.907,3.847,3.847,0,0,1,.765,2.554c0,.067,0,.167,0,.3h-4.49a2.705,2.705,0,0,0,.561,1.678,1.6,1.6,0,0,0,1.259.582,1.463,1.463,0,0,0,.958-.326A2.179,2.179,0,0,0,830.354,403.029ZM827,401.207h3.362a2.409,2.409,0,0,0-.385-1.258,1.514,1.514,0,0,0-1.265-.651,1.55,1.55,0,0,0-1.182.519A2.173,2.173,0,0,0,827,401.207Z" transform="translate(-194.188 -96.5)"/><path class="cls-18" d="M832.215,405.17v-6.648h.919v.945a2.113,2.113,0,0,1,1.916-1.095,2.3,2.3,0,0,1,1,.216,1.6,1.6,0,0,1,.683.566,2.3,2.3,0,0,1,.317.833,7.069,7.069,0,0,1,.057,1.095v4.088h-1.021v-4.044a3.3,3.3,0,0,0-.119-1.029,1.06,1.06,0,0,0-.422-.545,1.245,1.245,0,0,0-.712-.2,1.563,1.563,0,0,0-1.125.457,2.408,2.408,0,0,0-.473,1.733v3.631Z" transform="translate(-194.188 -96.5)"/><path class="cls-18" d="M837.757,403.186l1.009-.175a1.611,1.611,0,0,0,.473,1.026,1.55,1.55,0,0,0,1.086.357,1.487,1.487,0,0,0,1.043-.317.978.978,0,0,0,.34-.741.7.7,0,0,0-.3-.6,4.162,4.162,0,0,0-1.043-.381,8.959,8.959,0,0,1-1.557-.542,1.573,1.573,0,0,1-.657-.632,1.805,1.805,0,0,1-.224-.893,1.856,1.856,0,0,1,.184-.823,1.784,1.784,0,0,1,.5-.629,2.024,2.024,0,0,1,.649-.328,2.81,2.81,0,0,1,.882-.135,3.174,3.174,0,0,1,1.244.226,1.7,1.7,0,0,1,.791.609,2.543,2.543,0,0,1,.351,1.03l-1,.151a1.248,1.248,0,0,0-.394-.8,1.354,1.354,0,0,0-.922-.288,1.547,1.547,0,0,0-1,.257.771.771,0,0,0-.3.6.662.662,0,0,0,.125.394.909.909,0,0,0,.391.3c.1.042.4.137.9.288a11.741,11.741,0,0,1,1.511.522,1.578,1.578,0,0,1,.672.592,1.785,1.785,0,0,1,.243.964,2.028,2.028,0,0,1-.3,1.061,1.981,1.981,0,0,1-.858.77,2.881,2.881,0,0,1-1.27.272,2.638,2.638,0,0,1-1.789-.538A2.58,2.58,0,0,1,837.757,403.186Z" transform="translate(-194.188 -96.5)"/><path class="cls-18" d="M843.274,402.416v-1.134h3.136v1.134Z" transform="translate(-194.188 -96.5)"/><path class="cls-18" d="M784.769,419.547l.148.995a3.507,3.507,0,0,1-.771.1,1.611,1.611,0,0,1-.862-.195,1.054,1.054,0,0,1-.431-.51,4.433,4.433,0,0,1-.125-1.331v-3.824h-.749v-.876h.749v-1.646l1.015-.677v2.323h1.026v.876h-1.026v3.888a2.2,2.2,0,0,0,.053.619.471.471,0,0,0,.176.22.641.641,0,0,0,.349.081A3.052,3.052,0,0,0,784.769,419.547Z" transform="translate(-194.188 -96.5)"/><path class="cls-18" d="M789.323,418.414l1.055.144a2.893,2.893,0,0,1-.924,1.584,2.6,2.6,0,0,1-1.724.563,2.625,2.625,0,0,1-2.1-.9,3.742,3.742,0,0,1-.774-2.52,3.919,3.919,0,0,1,.783-2.6,2.529,2.529,0,0,1,2.029-.926,2.464,2.464,0,0,1,1.973.907,3.848,3.848,0,0,1,.766,2.554c0,.067,0,.167-.006.3h-4.49a2.712,2.712,0,0,0,.561,1.677,1.6,1.6,0,0,0,1.259.582,1.463,1.463,0,0,0,.958-.325A2.184,2.184,0,0,0,789.323,418.414Zm-3.35-1.822h3.361a2.4,2.4,0,0,0-.385-1.258,1.51,1.51,0,0,0-1.264-.651,1.547,1.547,0,0,0-1.183.519A2.167,2.167,0,0,0,785.973,416.592Z" transform="translate(-194.188 -96.5)"/><path class="cls-18" d="M791.184,420.555v-6.648h.919v.945a2.112,2.112,0,0,1,1.916-1.095,2.3,2.3,0,0,1,1,.216,1.6,1.6,0,0,1,.683.566,2.312,2.312,0,0,1,.317.833,7.06,7.06,0,0,1,.057,1.095v4.088h-1.021v-4.044a3.316,3.316,0,0,0-.119-1.03,1.058,1.058,0,0,0-.422-.544,1.248,1.248,0,0,0-.712-.2,1.567,1.567,0,0,0-1.125.457,2.407,2.407,0,0,0-.473,1.734v3.631Z" transform="translate(-194.188 -96.5)"/><path class="cls-18" d="M799.612,417.8v-1.134h3.135V417.8Z" transform="translate(-194.188 -96.5)"/><path class="cls-18" d="M808.487,420.555v-8.094h-2.738v-1.083h6.588v1.083h-2.75v8.094Z" transform="translate(-194.188 -96.5)"/><path class="cls-18" d="M813.047,420.555v-9.177h1.1v3.768h4.321v-3.768h1.1v9.177h-1.1v-4.326h-4.321v4.326Z" transform="translate(-194.188 -96.5)"/><path class="cls-18" d="M821.02,420.555v-9.177h1.655l1.968,6.5c.181.6.313,1.058.4,1.357q.143-.5.442-1.47l1.991-6.385h1.479v9.177h-1.06v-7.681l-2.415,7.681h-.992l-2.4-7.813v7.813Z" transform="translate(-194.188 -96.5)"/><text class="cls-140" transform="translate(587.587 350.441) scale(0.906 1)">S<tspan class="cls-139" x="8.047" y="0">p</tspan><tspan class="cls-141" x="14.702" y="0">o</tspan><tspan class="cls-125" x="21.346" y="0">r</tspan><tspan class="cls-139" x="25.581" y="0">t</tspan><tspan class="cls-142" x="28.669" y="0">ku</tspan><tspan class="cls-143" x="41.086" y="0">r</tspan><tspan class="cls-80" x="44.964" y="0">s </tspan><tspan class="cls-144"><tspan x="0" y="15.384">2</tspan><tspan class="cls-145" x="6.609" y="15.384">0</tspan><tspan class="cls-78" x="12.868" y="15.384">1</tspan><tspan class="cls-80" x="18.917" y="15.384">5 - </tspan><tspan class="cls-110" x="35.542" y="15.384">T</tspan><tspan class="cls-130" x="42.875" y="15.384">H</tspan><tspan class="cls-139" x="51.752" y="15.384">M</tspan></tspan></text></g></g><g id="word-Fenster"><polygon class="cls-52" points="18.698 9.314 66.391 9.314 661.859 9.314 661.859 374.683 18.698 374.683 18.698 9.314"/><g id="Dokument"><rect id="Papier" class="cls-146" x="72.674" y="26.941" width="539.733" height="347.742"/><g id="Schreibtext"><line class="cls-147" x1="104.574" y1="98.519" x2="578.227" y2="98.519"/><line class="cls-147" x1="103.607" y1="154.607" x2="577.259" y2="154.607"/><line class="cls-147" x1="104.574" y1="111.874" x2="528.394" y2="111.874"/><line class="cls-147" x1="103.607" y1="125.228" x2="476.626" y2="125.228"/></g><text class="cls-148" transform="translate(231.575 60.079) scale(0.906 1)"><tspan xml:space="preserve">Like a  </tspan><tspan class="cls-149" x="80.763" y="0">B</tspan><tspan x="94.762" y="0">osch </tspan><tspan class="cls-150" x="159.22" y="0">A</tspan><tspan x="174.835" y="0">nal</tspan><tspan class="cls-151" x="207.475" y="0">y</tspan><tspan x="219.397" y="0">se</tspan></text></g><g id="ObereLeisteWord"><polyline id="blaueLeiste" class="cls-152" points="18.698 27.104 661.859 27.104 661.859 9.581 18.698 9.581 18.698 27.104"/><g id="Suche-2" data-name="Suche"><rect id="Suchefeld-2" data-name="Suchefeld" class="cls-153" x="260.604" y="12.786" width="159.658" height="10.683"/><text class="cls-31" transform="translate(270.038 19.114) scale(0.906 1)">Suche</text><g id="Suchlinse-2" data-name="Suchlinse"><path class="cls-33" d="M456.756,113.805a1.288,1.288,0,0,1-.271-.8h0v-.548l.027-.093a3.014,3.014,0,0,1,.447-.933h0a.377.377,0,0,1,.176-.136h0c.225-.139.318-.141.8-.141h.808a1.8,1.8,0,0,1,.949.992l.124.3.025.067a3.148,3.148,0,0,1,.17,1.407h0l-.195.515,1.5,2.267-.395.324-1.7-2.134-.2,0a1.831,1.831,0,0,1-.554-.077l-.008,0a1.78,1.78,0,0,1-.366-.155l-.354-.168-.557-.31h0A1.277,1.277,0,0,1,456.756,113.805Z" transform="translate(-194.188 -96.5)"/><ellipse class="cls-154" cx="458.301" cy="112.968" rx="1.044" ry="1.573" transform="translate(-177.729 182.532) rotate(-34.445)"/></g></g><g id="UeberschrifteninMenueLeiste"><text class="cls-155" transform="translate(23.041 21.482) scale(0.906 1)">WORD</text><rect class="cls-156" x="66.837" y="15.19" width="31.932" height="4.273" rx="2.137"/><rect class="cls-156" x="125.862" y="15.19" width="31.932" height="4.273" rx="2.137"/><rect class="cls-156" x="180.049" y="15.19" width="31.932" height="4.273" rx="2.137"/><rect class="cls-156" x="466.466" y="15.19" width="31.932" height="4.273" rx="2.137"/><rect class="cls-156" x="537.102" y="15.19" width="31.932" height="4.273" rx="2.137"/><rect class="cls-156" x="607.739" y="15.19" width="31.932" height="4.273" rx="2.137"/></g><g id="xButton-2" data-name="xButton"><path class="cls-50" d="M840.148,106.348v4.972c0,.763,1.128,1.383,2.526,1.388l12.956.05v-6.41Z" transform="translate(-194.188 -96.5)"/><text class="cls-19" transform="translate(651.788 15.708) scale(0.906 1)">X</text></g></g><g id="WordIconaufLeiste-3" data-name="WordIconaufLeiste"><polyline id="FensterWordausgewaehlt-2" data-name="FensterWordausgewaehlt" class="cls-20" points="33.854 375.217 47.484 375.217 47.484 392.311 33.854 392.311 33.854 375.217 47.484 375.217"/><rect class="cls-157" x="38.05" y="379.223" width="5.564" height="7.211"/><polygon class="cls-18" points="38.05 379.223 43.614 376.309 43.614 379.223 38.05 379.223"/><line class="cls-12" x1="41.195" y1="377.888" x2="43.44" y2="377.888"/><line class="cls-12" x1="41.195" y1="378.422" x2="43.44" y2="378.422"/><line class="cls-12" x1="41.195" y1="378.956" x2="43.44" y2="378.956"/><text class="cls-14" transform="translate(39.26 384.063) scale(0.906 1)">W</text></g></g></svg>