<svg xmlns="http://www.w3.org/2000/svg" viewBox="0 0 799.762 730.625"><defs><style>.cls-1,.cls-6{fill:#333;}.cls-1,.cls-19,.cls-24,.cls-25,.cls-26,.cls-4,.cls-5,.cls-6,.cls-88{stroke:#000;}.cls-1,.cls-10,.cls-11,.cls-12,.cls-129,.cls-130,.cls-131,.cls-133,.cls-16,.cls-19,.cls-2,.cls-20,.cls-21,.cls-22,.cls-24,.cls-25,.cls-26,.cls-4,.cls-5,.cls-6,.cls-7,.cls-8,.cls-88,.cls-9{stroke-miterlimit:10;}.cls-2{font-size:14px;}.cls-2,.cls-26,.cls-94{fill:lime;}.cls-12,.cls-129,.cls-130,.cls-2,.cls-7,.cls-8,.cls-9{stroke:#333;}.cls-131,.cls-2,.cls-21{stroke-width:0.5px;}.cls-132,.cls-18,.cls-2,.cls-3,.cls-90{font-family:MyriadPro-Regular, Myriad Pro;}.cls-3{font-size:11.217px;}.cls-11,.cls-12,.cls-17,.cls-18,.cls-24,.cls-3{fill:#fff;}.cls-22,.cls-4{fill:gray;}.cls-5,.cls-7,.cls-8{fill:#1a1a1a;}.cls-12,.cls-129,.cls-130,.cls-133,.cls-5,.cls-6,.cls-7,.cls-9{stroke-width:0.25px;}.cls-10,.cls-131,.cls-19,.cls-89{fill:#4d4d4d;}.cls-10{stroke:#1a1a1a;}.cls-11,.cls-20{stroke:#4d4d4d;}.cls-12{opacity:0.79;}.cls-13{fill:#42210b;}.cls-14,.cls-90{font-size:6px;}.cls-14,.cls-27{fill:#f7931e;}.cls-125,.cls-14,.cls-27,.cls-29,.cls-63{font-family:ArialMT, Arial;}.cls-14{letter-spacing:-0.003em;}.cls-15{letter-spacing:-0.037em;}.cls-130,.cls-133,.cls-16,.cls-21,.cls-25{fill:none;}.cls-16{stroke:#fff;}.cls-18{font-size:7.478px;}.cls-132,.cls-20,.cls-23,.cls-29,.cls-63,.cls-88{fill:#ccc;}.cls-131,.cls-133,.cls-21,.cls-22{stroke:#ccc;}.cls-27{font-size:10.986px;letter-spacing:-0.026em;}.cls-28{letter-spacing:-0.037em;}.cls-29{font-size:5.667px;letter-spacing:-0.024em;}.cls-30{letter-spacing:-0.032em;}.cls-31{letter-spacing:-0.025em;}.cls-32{letter-spacing:-0.037em;}.cls-33{letter-spacing:-0.022em;}.cls-34{letter-spacing:-0.026em;}.cls-35{letter-spacing:-0.027em;}.cls-36{letter-spacing:-0.012em;}.cls-37{letter-spacing:-0.024em;}.cls-38{letter-spacing:-0.027em;}.cls-39{letter-spacing:-0.033em;}.cls-40{letter-spacing:-0.025em;}.cls-41{letter-spacing:-0.037em;}.cls-42{letter-spacing:-0.015em;}.cls-43{letter-spacing:-0.027em;}.cls-44{letter-spacing:-0.025em;}.cls-45{letter-spacing:-0.026em;}.cls-46{letter-spacing:-0.007em;}.cls-47{letter-spacing:-0.023em;}.cls-48{letter-spacing:-0.017em;}.cls-49{letter-spacing:-0.028em;}.cls-50{letter-spacing:-0.012em;}.cls-51{letter-spacing:-0.024em;}.cls-52{letter-spacing:0.003em;}.cls-53{letter-spacing:-0.029em;}.cls-54{letter-spacing:-0.028em;}.cls-55{letter-spacing:-0.031em;}.cls-56{letter-spacing:-0.033em;}.cls-57{letter-spacing:-0.027em;}.cls-58{letter-spacing:-0.027em;}.cls-59{letter-spacing:-0.044em;}.cls-60{letter-spacing:0.007em;}.cls-61{letter-spacing:-0.03em;}.cls-62{letter-spacing:-0.007em;}.cls-125,.cls-63{font-size:5px;}.cls-63{letter-spacing:-0.026em;}.cls-64{letter-spacing:-0.016em;}.cls-65{letter-spacing:-0.019em;}.cls-66{letter-spacing:-0.037em;}.cls-67{letter-spacing:-0.02em;}.cls-68{letter-spacing:-0.025em;}.cls-69{letter-spacing:-0.026em;}.cls-70{letter-spacing:-0.037em;}.cls-71{letter-spacing:-0.003em;}.cls-72{letter-spacing:-0.022em;}.cls-73{letter-spacing:-0.025em;}.cls-74{letter-spacing:-0.029em;}.cls-75{letter-spacing:-0.026em;}.cls-76{letter-spacing:-0.032em;}.cls-77{letter-spacing:-0.007em;}.cls-78{letter-spacing:-0.018em;}.cls-79{letter-spacing:0.025em;}.cls-80{letter-spacing:-0.062em;}.cls-81{letter-spacing:-0.019em;}.cls-82{letter-spacing:-0.012em;}.cls-83{letter-spacing:-0.023em;}.cls-84{letter-spacing:-0.013em;}.cls-85{letter-spacing:-0.023em;}.cls-86{letter-spacing:-0.028em;}.cls-87{letter-spacing:-0.076em;}.cls-91{letter-spacing:-0.045em;}.cls-92{letter-spacing:0.004em;}.cls-93{letter-spacing:-0.013em;}.cls-95{fill:#fbb03b;}.cls-96{fill:#2e3192;}.cls-97{fill:#1b1464;}.cls-98{fill:#662d91;}.cls-99{fill:#93278f;}.cls-100{fill:#9e005d;}.cls-101{fill:#d4145a;}.cls-102{fill:#ed1e79;}.cls-103{fill:#c7b299;}.cls-104{fill:#998675;}.cls-105{fill:#736357;}.cls-106{fill:#534741;}.cls-107{fill:#fcee21;}.cls-108{fill:#d9e021;}.cls-109{fill:#8cc63f;}.cls-110{fill:#39b54a;}.cls-111{fill:#009245;}.cls-112{fill:#006837;}.cls-113{fill:#22b573;}.cls-114{fill:#00a99d;}.cls-115{fill:#29abe2;}.cls-116{fill:#0071bc;}.cls-117,.cls-129{fill:red;}.cls-118{fill:#ff0;}.cls-119{fill:aqua;}.cls-120{fill:blue;}.cls-121{fill:#f0f;}.cls-122{fill:#c1272d;}.cls-123{fill:#ed1c24;}.cls-124{fill:#f15a24;}.cls-125{letter-spacing:-0.027em;}.cls-126{letter-spacing:-0.015em;}.cls-127{letter-spacing:-0.016em;}.cls-128{letter-spacing:-0.037em;}.cls-132{font-size:3px;}</style></defs><g id="Bildschirm"><g id="Bildschirmrahmen"><path id="Aussenrand" class="cls-1" d="M15.442.5H671.7a4.109,4.109,0,0,1,4.109,4.109V403.96a4.109,4.109,0,0,1-4.109,4.109H8.421a4.109,4.109,0,0,1-4.109-4.109V11.63A11.13,11.13,0,0,1,15.442.5Z"/><path id="Innenrand" class="cls-1" d="M209.017,104.745h648.75a2.121,2.121,0,0,1,2.017,2.211v381.78a2.121,2.121,0,0,1-2.017,2.211H209.017A2.121,2.121,0,0,1,207,488.736V106.956A2.121,2.121,0,0,1,209.017,104.745Z" transform="translate(-194.188 -96.5)"/><text class="cls-2" transform="translate(327.484 405.989) scale(0.906 1)">THM</text></g><text class="cls-3" transform="translate(20.686 405.431) scale(0.906 1)">4K</text><rect id="BildschirmIntern" class="cls-4" x="18.812" y="13.5" width="643" height="380"/></g><g id="Tastatur"><path class="cls-5" d="M205,504.568H850.893a10.685,10.685,0,0,1,9.9,6.666L983.03,812.3A10.685,10.685,0,0,1,973.13,827H264.463a10.683,10.683,0,0,1-10.482-8.615L194.519,517.324A10.686,10.686,0,0,1,205,504.568Z" transform="translate(-194.188 -96.5)"/><path class="cls-6" d="M215,504.568H860.893a10.685,10.685,0,0,1,9.9,6.666L993.03,812.3A10.685,10.685,0,0,1,983.13,827H274.463a10.683,10.683,0,0,1-10.482-8.615L204.519,517.324A10.686,10.686,0,0,1,215,504.568Z" transform="translate(-194.188 -96.5)"/><polygon class="cls-6" points="707.812 630.5 80.812 628.5 37.812 428.5 655.812 426.5 707.812 630.5"/><g id="Mauspad"><path class="cls-7" d="M642.391,820H487.609A11.608,11.608,0,0,1,476,808.391V726H654v82.391A11.608,11.608,0,0,1,642.391,820Z" transform="translate(-194.188 -96.5)"/><path class="cls-8" d="M476,796.3h89V820H487.957A11.957,11.957,0,0,1,476,808.043Z" transform="translate(-194.188 -96.5)"/><path class="cls-8" d="M565,796.3h89v11.739A11.957,11.957,0,0,1,642.043,820H565Z" transform="translate(-194.188 -96.5)"/></g><g id="Tasten"><path d="M239.135,525.749a4.908,4.908,0,0,0-2.248,1.514c-.866,1.077-.911,1.716-.927,10.224l-.018,9.067,1.465,1.361,1.466,1.361,12.781.026,12.781.025,1.385-1.156,1.427-1.155.147-8.948c.145-7.589.061-9.067-.541-10.107-1.334-2.359-1.507-2.4-14.461-2.5C245.872,525.4,239.913,525.551,239.135,525.749Z" transform="translate(-194.188 -96.5)"/><path d="M272.485,525.934c-2.939,1.193-3.026,1.472-3.173,10.579-.191,9.147.065,10.706,2,11.988,1.208.8,1.855.842,13.644.866,12.824.025,13.559-.054,14.987-1.728.692-.718.781-1.916.8-10.065.017-8.708-.025-9.307-.843-10.268a5.9,5.9,0,0,0-2.5-1.482C294.94,525.22,274.084,525.3,272.485,525.934Z" transform="translate(-194.188 -96.5)"/><path d="M308.888,525.447a5.36,5.36,0,0,0-2.248,1.394c-.866,1-.91,1.6-.927,10.024-.019,9.747.195,10.706,2.439,11.669.647.281,5.483.45,13.514.466l12.523.025,1.384-1.156L337,546.713l.147-8.827c.144-7.35.061-8.988-.5-10.107-1.291-2.479-1.42-2.519-14.5-2.625C315.625,525.1,309.666,525.249,308.888,525.447Z" transform="translate(-194.188 -96.5)"/><path d="M347.019,525.677c-3.629,1.072-3.89,1.91-3.909,11.656-.018,8.669.282,10.107,2.179,11.389.863.561,2.633.644,13.428.666,7.989.016,12.782-.135,13.43-.413,2.248-.954,2.465-1.913,2.485-11.659.016-8.428-.026-9.028-.844-9.988a5.9,5.9,0,0,0-2.5-1.483C369.689,525.442,348.315,525.28,347.019,525.677Z" transform="translate(-194.188 -96.5)"/><path d="M382.98,525.12a5.374,5.374,0,0,0-2.249,1.394c-.865,1-.909,1.556-.927,10.3-.016,8.149.068,9.347.758,10.068,1.421,1.68,2.155,1.761,14.98,1.787,11.788.023,12.436-.016,13.647-.812,1.945-1.275,2.207-2.832,2.053-11.98-.15-11.664.54-11.143-15.739-11.135C389.371,524.734,383.757,524.922,382.98,525.12Z" transform="translate(-194.188 -96.5)"/><path d="M421.651,525.026a5.763,5.763,0,0,0-3.418,3.109c-.13.439-.182,4.753-.105,9.547l.113,8.708,1.422,1.161,1.38,1.162,12.781.025,12.782.025,1.471-1.355,1.47-1.355.018-8.948c.016-8.109-.068-9.028-.843-10.188a3.942,3.942,0,0,0-2.458-1.682C444.71,524.832,423.768,524.631,421.651,525.026Z" transform="translate(-194.188 -96.5)"/><path d="M459.1,523.447a5.37,5.37,0,0,0-2.248,1.394c-.866,1-.91,1.556-.927,10.3-.016,8.149.068,9.347.757,10.068,1.422,1.68,2.156,1.761,15.11,1.787l12.522.025,1.341-1.156L487,544.713l.019-9.547c.025-12.9,1.017-12.1-15.435-12.093C465.5,523.061,459.882,523.249,459.1,523.447Z" transform="translate(-194.188 -96.5)"/><path d="M496.623,523.486a4.794,4.794,0,0,0-3.244,2.47c-.3.759-.439,3.914-.365,9.986l.112,8.908,1.423,1.161,1.379,1.161,12.782.025,12.781.026,1.471-1.356,1.471-1.355.017-8.828c.019-9.387-.152-10.306-2.093-11.508-.992-.641-2.417-.724-13-.825C502.841,523.3,497.1,523.367,496.623,523.486Z" transform="translate(-194.188 -96.5)"/><path d="M533.848,523.71A5.36,5.36,0,0,0,531.6,525.1c-.865,1-.91,1.6-.927,10.224-.011,5.512.154,9.467.412,9.947,1.076,1.8,2.242,1.962,15.11,1.987s14.034-.132,15.117-1.927c.26-.479.44-4.433.451-9.946.017-8.628-.025-9.227-.843-10.187a5.887,5.887,0,0,0-2.5-1.483C556.433,523.236,535.749,523.2,533.848,523.71Z" transform="translate(-194.188 -96.5)"/><path d="M572.8,523.577c-3.76,1.231-3.89,1.63-3.911,12.176l-.017,8.827,1.465,1.361L571.8,547.3l12.781.026,12.782.025,1.384-1.156,1.427-1.155.147-8.908c.149-9.586-.022-10.585-2.006-11.827-.992-.642-2.374-.724-13-.825C578.8,523.429,573.143,523.458,572.8,523.577Z" transform="translate(-194.188 -96.5)"/><path d="M608.046,523.473a8.813,8.813,0,0,0-2.032,1.234c-1,.837-1,1.037-1.014,10.424l-.019,9.547,1.336,1.161L607.654,547l12.522.025c12.954.025,13.689-.053,15.117-1.728.692-.718.781-1.916.8-10.065.017-8.707-.025-9.307-.843-10.267a5.9,5.9,0,0,0-2.5-1.483C630.673,522.959,609.515,522.957,608.046,523.473Z" transform="translate(-194.188 -96.5)"/><path d="M645,523.453a4.122,4.122,0,0,0-2.248,1.673c-.78,1.157-.868,2.036-.884,10.185l-.018,8.947,1.466,1.361,1.465,1.361,12.782.026,12.781.025,1.384-1.156,1.427-1.155.148-8.948c.144-7.589.061-9.067-.542-10.107-1.334-2.359-1.506-2.4-14.46-2.5C651.567,523.107,645.823,523.215,645,523.453Z" transform="translate(-194.188 -96.5)"/><path d="M683.468,523.638c-2.938,1.192-3.025,1.472-3.173,10.579-.19,9.147.066,10.705,2.006,11.987,1.208.8,1.855.843,13.644.866,12.824.025,13.558-.053,14.987-1.728.692-.718.781-1.916.8-10.065.017-8.708-.025-9.307-.843-10.267a5.9,5.9,0,0,0-2.5-1.483C705.924,522.923,685.067,523,683.468,523.638Z" transform="translate(-194.188 -96.5)"/><path d="M720.175,523.583a5.358,5.358,0,0,0-2.248,1.393c-.865,1-.91,1.6-.927,10.025-.019,9.746.2,10.705,2.439,11.668.647.281,5.44.45,13.428.466,13.775.027,13.861.028,15.032-2.606.911-2,.9-16.935-.006-18.7-1.248-2.4-1.42-2.439-14.461-2.545C726.912,523.236,720.953,523.384,720.175,523.583Z" transform="translate(-194.188 -96.5)"/><path d="M755.523,523.314a5.211,5.211,0,0,0-3.418,3.468c-.131.719-.182,5.033-.105,9.587l.113,8.309,1.423,1.161L754.915,547l12.523.025c8.031.016,12.868-.135,13.516-.413,2.247-.954,2.465-1.912,2.484-11.659.017-8.428-.025-9.028-.843-9.988a5.907,5.907,0,0,0-2.5-1.483C778.582,523.12,757.6,522.958,755.523,523.314Z" transform="translate(-194.188 -96.5)"/><path d="M788.451,523.711A5.358,5.358,0,0,0,786.2,525.1c-.866,1-.91,1.557-.927,10.3-.016,8.149.068,9.348.757,10.068,1.422,1.681,2.156,1.762,14.98,1.787,11.789.024,12.436-.015,13.647-.812,1.946-1.274,2.208-2.831,2.053-11.979-.149-11.664.54-11.144-15.739-11.136C794.843,523.324,789.229,523.513,788.451,523.711Z" transform="translate(-194.188 -96.5)"/><path d="M822.244,523.616a5.753,5.753,0,0,0-3.417,3.109c-.131.439-.182,4.753-.105,9.547l.112,8.708,1.423,1.161,1.379,1.161,12.782.025,12.781.026L848.67,546l1.471-1.355.018-9.067c.016-8.468-.025-9.148-.844-10.228a5.217,5.217,0,0,0-2.5-1.563C845.3,523.422,824.318,523.261,822.244,523.616Z" transform="translate(-194.188 -96.5)"/><path d="M250.25,555.358l-1.471,1.355-.024,12.543c-.028,13.9-.028,13.821,2.82,14.945,2.038,1.226,25.432,1.4,27.549.054,2.852-1.113,2.852-1.033,2.88-14.934l.024-12.542-1.465-1.361-1.465-1.361-13.689-.027L251.721,554Z" transform="translate(-194.188 -96.5)"/><path d="M288.014,554.993a6.646,6.646,0,0,0-1.73,1.235c-.822.837-.866,1.516-1.019,13.339-.114,13.7-.114,13.9,2.474,15.144,1.381.642,2.806.685,14.81.629l13.343-.094,1.255-1.315,1.255-1.276.025-12.623.025-12.622-1.466-1.361-1.465-1.361-13.3.013C294.88,554.687,288.489,554.834,288.014,554.993Z" transform="translate(-194.188 -96.5)"/><path d="M323.283,555.244a4.648,4.648,0,0,0-1.817,1.834c-.261.559-.444,6.111-.458,12.861-.022,11.065.02,11.944.838,13.144,1.335,2.04,2.586,2.2,16.923,2.07l12.825-.094,1.3-1.156,1.341-1.2.026-12.782c.022-11.544-.061-12.9-.751-13.663-1.465-1.68-2.112-1.761-15.714-1.788C325.487,554.449,324.623,554.488,323.283,555.244Z" transform="translate(-194.188 -96.5)"/><path d="M360.53,555.529a5.188,5.188,0,0,0-1.861,2.073c-.781,2.076-.694,23.566.123,25.365,1.074,2.4,1.981,2.561,16.144,2.589,6.866.013,13-.134,13.559-.333a6.917,6.917,0,0,0,1.989-1.274c.866-.877.91-1.277.934-13.7.023-11.544-.061-12.9-.75-13.662-1.465-1.681-2.112-1.762-15.714-1.789C362.863,554.774,361.783,554.852,360.53,555.529Z" transform="translate(-194.188 -96.5)"/><path d="M397.835,555.076c-2.161,1.194-2.38,2.552-2.232,15.494.1,12.7.189,13.143,2.994,14.027,1.813.6,25.649.65,27.463.054,2.636-.834,2.68-1.033,2.707-14.934.016-7.909-.147-12.942-.4-13.422-1.076-1.84-2.155-1.962-16.06-1.989C400.082,554.282,399.132,554.32,397.835,555.076Z" transform="translate(-194.188 -96.5)"/><path d="M436.679,554.827c-2.377,1.194-2.377,1.114-2.4,14.935-.025,12.423.018,12.822.88,13.7a6.9,6.9,0,0,0,1.983,1.282c.561.2,6.693.373,13.558.386,14.164.028,15.071-.13,16.155-2.524.911-2.036,1-23.566.094-25.605-1.161-2.519-1.722-2.6-16.317-2.629C441.948,554.4,437.241,554.509,436.679,554.827Z" transform="translate(-194.188 -96.5)"/><path d="M478.4,554.921c-2.377,1.194-2.377,1.114-2.4,14.935l-.025,12.782,1.336,1.2L478.6,585l12.825.145c14.335.188,15.588.031,16.93-2,.823-1.2.868-2.075.89-13.14.013-6.75-.148-12.3-.406-12.863a4.657,4.657,0,0,0-1.81-1.841c-1.338-.761-2.2-.8-14.594-.828C483.673,554.492,478.966,554.6,478.4,554.921Z" transform="translate(-194.188 -96.5)"/><path d="M514.762,555.17l-1.471,1.355-.025,12.623-.025,12.622,1.25,1.281,1.249,1.321,13.343.146c12,.1,13.429.066,14.812-.57a5.209,5.209,0,0,0,2.033-1.714c.693-1.237.825-24.165.18-25.724a4.637,4.637,0,0,0-1.81-1.841c-1.337-.761-2.2-.8-14.723-.828l-13.342-.026Z" transform="translate(-194.188 -96.5)"/><path d="M553.209,554.239l-1.471,1.355-.025,12.543c-.027,13.9-.027,13.821,2.821,14.945,2.071.8,25.475.849,27.549.054,2.852-1.113,2.852-1.033,2.879-14.934l.025-12.542-1.465-1.361-1.466-1.361-13.688-.027-13.688-.027Z" transform="translate(-194.188 -96.5)"/><path d="M595.544,553.345a5.325,5.325,0,0,0-1.86,1.434c-.865,1.037-.909,1.4-.933,13.5-.028,13.821-.027,13.741,2.82,14.865,2.158.843,26.037.85,27.809.015,2.593-1.233,2.593-1.193,2.62-14.894l.025-12.543-1.466-1.361L623.094,553l-13.3.014C602.453,553,596.019,553.146,595.544,553.345Z" transform="translate(-194.188 -96.5)"/><path d="M635.05,554.091a4.647,4.647,0,0,0-1.817,1.833c-.26.559-.444,6.111-.457,12.862-.022,11.064.019,11.943.837,13.143,1.335,2.04,2.587,2.2,16.966,2.071l12.911-.094,1.255-1.316L666,581.314l.024-12.383c.016-8.029-.147-12.663-.448-13.3-1.075-2.2-1.766-2.281-16.016-2.309C637.254,553.3,636.39,553.334,635.05,554.091Z" transform="translate(-194.188 -96.5)"/><path d="M673.31,554.931c-2.421,1.194-2.508,1.833-2.534,14.815-.022,11.105.02,11.983.838,13.183,1.334,2.04,2.586,2.2,16.922,2.071l12.825-.094,1.3-1.156,1.341-1.2.025-12.782c.023-11.544-.061-12.9-.75-13.663-1.465-1.681-2.112-1.762-15.714-1.789C676.852,554.339,674.261,554.414,673.31,554.931Z" transform="translate(-194.188 -96.5)"/><path d="M714.739,555.575a5.18,5.18,0,0,0-1.861,2.073c-.3.839-.486,5.232-.5,12.622-.02,9.827.063,11.584.709,12.784,1.2,2.4,1.981,2.52,16.058,2.548,6.866.014,13-.134,13.559-.333A6.9,6.9,0,0,0,744.693,584c.865-.877.909-1.276.934-13.7.023-11.544-.061-12.9-.75-13.663-1.465-1.68-2.113-1.762-15.715-1.788C717.072,554.821,715.992,554.9,714.739,555.575Z" transform="translate(-194.188 -96.5)"/><path d="M751.264,552.115c-2.377,1.233-2.377,1.153-2.4,14.974-.025,12.423.018,12.823.88,13.7a6.9,6.9,0,0,0,1.983,1.282c.605.2,13.429.386,31.133.421,27.808.055,30.226.02,31.61-.656,2.593-1.193,2.593-1.393,2.534-15.134l-.105-12.5-1.207-1.081L814.525,552l-31.22-.142C761.067,551.735,751.87,551.836,751.264,552.115Z" transform="translate(-194.188 -96.5)"/><path d="M823.371,553.379l-1.471,1.355-.025,12.543c-.027,13.9-.027,13.821,2.821,14.945,2.071.8,25.475.849,27.549.054,2.852-1.113,2.852-1.033,2.879-14.934l.025-12.542-1.465-1.361-1.466-1.361-13.688-.027-13.688-.027Z" transform="translate(-194.188 -96.5)"/><path d="M258.529,589.188c-2.075,1.075-2.162,1.594-2.231,14.536-.026,13.182.059,13.741,2.389,14.864,1.682.882,38.774.956,40.46.12,2.377-1.154,2.509-2.072,2.406-15.454l-.106-12.223-1.423-1.161-1.379-1.162-19.561-.038C263.712,588.679,259.35,588.791,258.529,589.188Z" transform="translate(-194.188 -96.5)"/><path d="M307.389,590.067l-1.341,1.036-.026,13.061-.026,13.1.992.841a6.606,6.606,0,0,0,2.5,1.283c1.942.523,23.921.567,25.952.052a5.9,5.9,0,0,0,2.507-1.473c.822-1,.867-1.517.891-13.78l.025-12.782-1.25-1.161-1.25-1.161-13.818-.027-13.818-.027Z" transform="translate(-194.188 -96.5)"/><path d="M343.652,590.365l-1.255,1.156-.026,12.942-.025,12.982.991.841a6.613,6.613,0,0,0,2.5,1.283c1.9.523,23.921.567,25.909.052a7.68,7.68,0,0,0,2.593-1.433l1.039-1.037.025-12.782.025-12.782-1.422-1.162-1.38-1.161-13.861-.027-13.861-.028Z" transform="translate(-194.188 -96.5)"/><path d="M380.234,589.434l-1.341,1.156-.026,12.862-.025,12.862,1.207,1.121c1.681,1.561,3.062,1.684,16.708,1.551,12.868-.094,13.473-.213,14.686-2.527.607-1.158.654-3.075.588-13.58l-.105-12.224-1.423-1.161-1.379-1.161-13.775-.027-13.774-.028Z" transform="translate(-194.188 -96.5)"/><path d="M418.632,589.583l-1.341,1.236-.026,12.782-.025,12.783,1.207,1.12c1.681,1.562,3.063,1.684,16.924,1.552,12.825-.1,13.041-.134,14.427-2.328.606-.918.7-2.755.717-13.341l.024-12.263-1.465-1.361-1.466-1.361-13.817-.027-13.818-.027Z" transform="translate(-194.188 -96.5)"/><path d="M456.929,589.134c-1.816,1.355-1.9,1.954-1.929,14.856l-.025,12.463,1.207,1.121c1.681,1.561,3.063,1.683,16.924,1.551,10.493-.1,12-.176,13-.813,2.032-1.234,2.12-1.913,2.145-14.7.026-13.062-.1-13.7-2.432-14.7-.691-.281-5.7-.451-14.508-.468C459.176,588.42,457.751,588.5,456.929,589.134Z" transform="translate(-194.188 -96.5)"/><path d="M495.137,588.925a4.823,4.823,0,0,0-1.6,1.554c-.65,1-.739,2.635-.76,13.141-.025,12.782.06,13.461,2.087,14.7.992.641,2.5.724,13,.864,13.99.188,15.07.07,16.843-1.524l1.3-1.236.024-12.3c.018-8.708-.147-12.663-.491-13.383-1.033-2.119-1.766-2.2-16.189-2.189C501.356,588.538,495.7,588.686,495.137,588.925Z" transform="translate(-194.188 -96.5)"/><path d="M533.1,589.9l-1.471,1.355-.024,12.223c-.026,12.982.059,13.661,2.086,14.9.992.641,2.5.724,13,.864,13.86.187,15.242.07,16.929-1.484l1.212-1.116.025-12.783.025-12.782-1.336-1.241-1.336-1.241-13.818-.027-13.818-.027Z" transform="translate(-194.188 -96.5)"/><path d="M569.7,589.765l-1.427,1.156-.154,12.223c-.106,10.345-.024,12.423.535,13.542,1.247,2.439,1.42,2.48,14.46,2.625,13.861.187,15.243.07,16.93-1.484l1.211-1.116.026-12.863.025-12.862-1.336-1.161-1.336-1.161-13.775-.027-13.775-.027Z" transform="translate(-194.188 -96.5)"/><path d="M605.192,590.834l-1.427,1.156-.026,12.782-.025,12.782,1.035,1.041a7.687,7.687,0,0,0,2.588,1.443c2.071.523,23.964.567,26.037.051a5.889,5.889,0,0,0,2.508-1.473c.822-1,.866-1.516.891-13.779l.025-12.782-1.25-1.161-1.25-1.161-13.861-.027-13.861-.028Z" transform="translate(-194.188 -96.5)"/><path d="M642.731,591.012l-1.255,1.156-.025,12.942-.026,12.982.992.841a6.615,6.615,0,0,0,2.5,1.283c1.9.523,23.922.567,25.909.051a7.691,7.691,0,0,0,2.594-1.432l1.038-1.037.151-11.024c.2-12.9.071-14.181-1.61-15.742l-1.206-1.121-13.9-.027-13.9-.028Z" transform="translate(-194.188 -96.5)"/><path d="M686.275,591.08l-1.254,1.156L685,605.019c-.024,12.263.018,12.782.837,13.782a5.883,5.883,0,0,0,2.5,1.483c2.072.524,23.965.567,26.038.052a7.694,7.694,0,0,0,2.594-1.433L718,617.866l.026-12.782.025-12.782-1.423-1.162-1.379-1.161-13.861-.027-13.861-.027Z" transform="translate(-194.188 -96.5)"/><path d="M725.906,590.149l-1.341,1.156-.025,12.862-.026,12.862,1.207,1.121c1.681,1.561,3.063,1.684,16.924,1.551,13.041-.094,13.214-.133,14.471-2.568.563-1.117.654-3.194.588-13.54L757.6,591.37l-1.422-1.161-1.38-1.161-13.774-.028-13.775-.027Z" transform="translate(-194.188 -96.5)"/><path d="M769.69,586.824c-2.335,1.433-2.378,1.673-2.4,14.216-.068,12.462.018,12.822,2.217,14.344,1.078.761,1.941.843,7.468.974l6.218.132-.031,15.778-.031,15.738,1.25,1.281,1.249,1.321,15.933.271c17.618.314,18.265.276,19.867-1.958l1-1.356.057-28.721c.062-31.516.147-30.557-2.484-32-1.122-.6-3.41-.686-25.173-.729C771.937,586.07,770.9,586.107,769.69,586.824Z" transform="translate(-194.188 -96.5)"/><path d="M830.232,585.736c-2.118,1.074-2.163,1.593-2.232,14.895l-.025,12.423,1.293,1.24c1.768,1.6,2.847,1.724,16.838,1.591,12.954-.094,13.473-.213,14.6-2.527.737-1.437.782-24.485.051-25.924-1.032-2.119-1.766-2.2-16.188-2.229C834.378,585.225,831.01,585.338,830.232,585.736Z" transform="translate(-194.188 -96.5)"/><path d="M267.343,622.136a4.9,4.9,0,0,0-2.248,1.513c-.866,1.117-.91,1.676-.934,13.42-.026,13.3.059,13.941,2.432,14.944,1.467.642,51.643.7,52.94.1,2.463-1.153,2.463-1.073,2.49-14.774.024-12.144-.018-12.663-.837-13.663a5.893,5.893,0,0,0-2.5-1.483C316.656,621.674,269.287,621.62,267.343,622.136Z" transform="translate(-194.188 -96.5)"/><path d="M329.23,625.429a5.818,5.818,0,0,0-3.417,3.069c-.13.479-.185,6.271-.112,12.942l.106,12.144,1.422,1.161,1.38,1.161,13.775.027,13.774.027,1.341-1.235,1.341-1.236.025-12.662c.022-11.025-.061-12.743-.664-13.583-1.421-1.88-2.673-2.043-15.8-2.029C335.665,625.242,329.749,625.35,329.23,625.429Z" transform="translate(-194.188 -96.5)"/><path d="M365.693,623.5c-3.8,1.111-3.889,1.511-3.916,15.052-.024,12.263.146,13.462,2.173,14.784.906.561,2.762.644,14.68.668l13.688.027,1.341-1.156L395,651.716l.026-12.943c.025-12.942.025-12.982-.923-13.822a9.874,9.874,0,0,0-2.2-1.243C390.7,623.266,367.032,623.06,365.693,623.5Z" transform="translate(-194.188 -96.5)"/><path d="M403.632,623.847c-2.852,1.193-2.765.793-2.836,14.734-.058,7.789.1,12.942.363,13.382,1.161,2,1.679,2.081,16.145,2.109,13.041.026,13.6-.013,14.683-.81,1.9-1.354,2.121-2.831,1.973-15.335-.1-12.263-.147-12.543-2.218-13.825C430.405,623.3,405.534,623.052,403.632,623.847Z" transform="translate(-194.188 -96.5)"/><path d="M444.011,623.135c-2.766,1.153-2.765,1.073-2.793,15.134l-.025,12.742,1.336,1.161,1.336,1.161,13.775.027,13.775.027,1.384-1.155,1.427-1.156.154-12.223c.155-13.181.027-14.1-2.129-15.423C470.828,622.549,446.042,622.3,444.011,623.135Z" transform="translate(-194.188 -96.5)"/><path d="M483.174,623.655a5.35,5.35,0,0,0-2.248,1.394c-.865,1.036-.91,1.516-.934,13.7-.022,11.344.062,12.7.751,13.463,1.465,1.68,2.112,1.762,16.017,1.789l13.429.027,1.384-1.156L513,651.715l.154-12.3c.155-13.182.071-13.941-2-15.223-.991-.642-2.373-.724-13.859-.827C490.257,623.309,483.952,623.417,483.174,623.655Z" transform="translate(-194.188 -96.5)"/><path d="M520.958,622.655a5.362,5.362,0,0,0-2.249,1.393c-.865,1.037-.909,1.556-.933,13.42-.026,13.382.059,14.061,2.345,15.024.777.321,5.052.489,14.508.508l13.429.027,1.471-1.356L551,650.316l.024-12.343c.023-11.464-.018-12.383-.836-13.583a3.942,3.942,0,0,0-2.458-1.682C545.7,622.184,522.9,622.139,520.958,622.655Z" transform="translate(-194.188 -96.5)"/><path d="M558.868,622.878a4.121,4.121,0,0,0-2.249,1.674c-.823,1.2-.868,2.075-.89,13.379-.026,13.182.059,13.822,2.432,14.825,1.424.6,26.9.652,28.326.056,2.377-.994,2.465-1.593,2.491-15.055.024-11.823-.018-12.382-.837-13.383a5.9,5.9,0,0,0-2.5-1.483C583.611,622.368,560.812,622.363,558.868,622.878Z" transform="translate(-194.188 -96.5)"/><path d="M596.139,622.682a4.127,4.127,0,0,0-2.249,1.673c-.822,1.2-.867,2.076-.89,13.58l-.024,12.343,1.465,1.361L595.907,653l13.472.027c13.947.027,14.6-.051,16.067-1.726.692-.758.781-2.116.8-13.46.024-12.143-.018-12.663-.836-13.663a5.907,5.907,0,0,0-2.5-1.483C620.883,622.172,598.083,622.167,596.139,622.682Z" transform="translate(-194.188 -96.5)"/><path d="M633.615,622.523a4.708,4.708,0,0,0-3.2,2.471c-.347.758-.484,4.832-.415,13.38l.105,12.3,1.423,1.161L632.907,653l13.43.027c13.9.027,14.552-.052,16.023-1.726.692-.758.781-2.116.8-13.42.022-11.025-.061-12.7-.664-13.543-1.422-1.88-2.673-2.042-15.8-2.028C639.963,622.336,634.09,622.444,633.615,622.523Z" transform="translate(-194.188 -96.5)"/><path d="M669.976,623.924a5.074,5.074,0,0,0-3.375,3.469c-.174.679-.228,6.51-.155,12.942l.107,11.744,1.422,1.161,1.38,1.161,13.774.027,13.775.027,1.341-1.155,1.341-1.156.025-12.942c.026-12.942.026-12.982-.922-13.823-1.854-1.561-2.976-1.683-15.585-1.668C676.411,623.737,670.5,623.845,669.976,623.924Z" transform="translate(-194.188 -96.5)"/><path d="M708.564,624.993a5.66,5.66,0,0,0-2.162,1.353l-1.254,1.2L705,638.607c-.2,13.1-.071,14.18,1.7,15.741l1.294,1.121,13.731.028,13.732.027,1.34-1.156,1.341-1.156.026-12.942.025-12.942-1.336-1.2-1.293-1.161-13.04-.066C715.344,624.846,709.039,624.874,708.564,624.993Z" transform="translate(-194.188 -96.5)"/><path d="M745.936,623.22a8.782,8.782,0,0,0-2.032,1.235c-1,.836-1,.876-1.021,13.819l-.025,12.942,1.336,1.161,1.336,1.161,13.775.027,13.774.027,1.384-1.156,1.428-1.155.153-12.223c.15-10.385.068-12.423-.491-13.5-1.291-2.519-1.334-2.519-15.583-2.628C751.9,622.873,746.627,622.982,745.936,623.22Z" transform="translate(-194.188 -96.5)"/><path d="M839.927,620.372a5.367,5.367,0,0,0-2.249,1.394c-.865,1.037-.909,1.556-.933,13.42-.026,13.461.059,14.06,2.432,15.064.69.281,5.655.45,14.162.467s13.473-.133,14.164-.411c2.377-.994,2.465-1.633,2.491-14.935.023-11.7-.019-12.3-.837-13.423a5.215,5.215,0,0,0-2.5-1.563C864.67,619.9,841.871,619.857,839.927,620.372Z" transform="translate(-194.188 -96.5)"/><path d="M276.645,655.689a5.3,5.3,0,0,0-1.86,1.434c-.866,1.037-.91,1.4-.933,13.5-.027,13.621-.027,13.581,2.561,14.824,1.035.522,3.885.607,16.969.633,10.1.02,16.193-.128,17.057-.406,2.636-.833,2.679-1.033,2.707-15.014.027-13.781.027-13.7-2.432-14.864C309.592,655.274,278.071,655.132,276.645,655.689Z" transform="translate(-194.188 -96.5)"/><path d="M325.928,659.17A4.648,4.648,0,0,0,324.111,661c-.261.558-.444,6.11-.457,12.781-.026,12.982.059,13.541,2.561,14.745,1.122.561,3.281.605,14.724.548l13.429-.093,1.255-1.316,1.255-1.276.025-12.622.025-12.623-1.466-1.361L354,658.426l-13.3-.026C328.132,658.375,327.268,658.413,325.928,659.17Z" transform="translate(-194.188 -96.5)"/><path d="M364.2,658.28a5.334,5.334,0,0,0-1.86,1.434c-.865,1.037-.909,1.4-.933,13.54-.023,11.783.018,12.542.837,13.463,1.551,1.88,2.371,1.962,16.578,1.87l13.3-.093,1.255-1.316,1.255-1.276.025-12.583.025-12.582-1.25-1.281-1.25-1.321-13.558-.106C371.2,657.974,364.678,658.081,364.2,658.28Z" transform="translate(-194.188 -96.5)"/><path d="M403.793,657.842a5.314,5.314,0,0,0-1.859,1.435c-.866,1.036-.91,1.4-.934,13.579l-.025,12.543,1.25,1.28,1.25,1.321,13.558.147c12.911.1,13.559.066,14.942-.69a4.648,4.648,0,0,0,1.817-1.834c.26-.558.444-6.071.457-12.741s-.148-12.184-.406-12.744a4.657,4.657,0,0,0-1.81-1.841c-1.338-.761-2.158-.8-14.378-.787C410.53,657.5,404.269,657.643,403.793,657.842Z" transform="translate(-194.188 -96.5)"/><path d="M443.6,658.5c-2.377,1.194-2.377,1.114-2.4,14.935-.025,12.423.018,12.822.879,13.7a6.92,6.92,0,0,0,1.984,1.282c.561.2,6.693.373,13.558.386,13.818.028,14.9-.13,16.111-2.325,1-1.755,1.085-24.244.1-26-1.291-2.319-1.9-2.4-16.274-2.428C448.865,658.069,444.158,658.18,443.6,658.5Z" transform="translate(-194.188 -96.5)"/><path d="M480.029,658.215c-2.162,1.194-2.38,2.552-2.233,15.494.1,12.7.19,13.142,3,14.027,1.812.6,25.648.649,27.463.054,2.636-.834,2.679-1.033,2.707-15.014.022-11.424-.061-12.783-.751-13.543-1.465-1.681-2.112-1.762-15.714-1.789C482.276,657.42,481.326,657.458,480.029,658.215Z" transform="translate(-194.188 -96.5)"/><path d="M517.31,658.931c-2.421,1.194-2.508,1.833-2.534,14.815-.022,11.105.02,11.983.838,13.183,1.334,2.04,2.586,2.2,16.922,2.071l12.825-.094,1.3-1.156,1.341-1.2.025-12.782c-.016-13.582.027-13.382-2.13-14.744-.948-.6-2.5-.684-14.248-.707C520.852,658.339,518.261,658.414,517.31,658.931Z" transform="translate(-194.188 -96.5)"/><path d="M552.938,658.353a4.648,4.648,0,0,0-1.817,1.834c-.26.558-.444,6.07-.457,12.741s.149,12.184.407,12.743a4.646,4.646,0,0,0,1.81,1.842c1.38.761,2.028.8,14.939.748l13.559-.093,1.255-1.316,1.254-1.275.025-12.583.025-12.583-1.25-1.28-1.249-1.321-13.559-.147C554.969,657.558,554.322,657.6,552.938,658.353Z" transform="translate(-194.188 -96.5)"/><path d="M590.793,658.842a5.314,5.314,0,0,0-1.859,1.435c-.866,1.036-.91,1.4-.934,13.579l-.025,12.543,1.25,1.28,1.25,1.321,13.3.146c14.206.148,15.027.07,16.585-1.8.822-.917.867-1.676.89-13.419.027-13.622.027-13.582-2.561-14.825-1.036-.481-3.5-.606-14.119-.587C597.487,658.5,591.269,658.643,590.793,658.842Z" transform="translate(-194.188 -96.5)"/><path d="M627.188,659.12c-2.162,1.354-2.118,1.155-2.188,14.736l-.025,12.782,1.336,1.2L627.6,689l12.825.145c14.335.188,15.588.031,16.93-2,.823-1.2.868-2.075.89-13.18.019-9.866-.106-12.1-.622-13.063-1.291-2.319-1.895-2.4-16.274-2.429C629.694,658.446,628.139,658.523,627.188,659.12Z" transform="translate(-194.188 -96.5)"/><path d="M665,658.241c-2.377,1.193-2.377,1.114-2.4,14.815-.027,13.98.015,14.18,2.648,15.024.82.281,6.044.452,13.817.467,14.12.028,15.027-.13,16.111-2.525.911-2.035,1-23.565.094-25.6-1.161-2.519-1.722-2.6-16.317-2.629C670.266,657.812,665.559,657.922,665,658.241Z" transform="translate(-194.188 -96.5)"/><path d="M704.355,658.252c-2.378,1.194-2.509,1.833-2.534,14.735-.02,9.946.063,12.024.665,13.023,1.205,2.2,2.284,2.362,16.1,2.389,6.866.013,13-.134,13.559-.333a6.9,6.9,0,0,0,1.989-1.274c.865-.877.909-1.277.934-13.7.023-11.544-.061-12.9-.75-13.663-1.465-1.681-2.113-1.762-15.715-1.789C707.9,657.66,705.306,657.735,704.355,658.252Z" transform="translate(-194.188 -96.5)"/><path d="M748.022,656.7a4.648,4.648,0,0,0-1.817,1.834c-.26.559-.444,6.071-.457,12.741s.149,12.184.407,12.744a4.65,4.65,0,0,0,1.81,1.841c1.38.761,2.2.8,26.554.851,14.6.029,25.563-.109,26.168-.308a6.9,6.9,0,0,0,1.989-1.274c.866-.877.91-1.277.934-13.7.028-13.9.027-13.821-2.432-14.984-.647-.321-8.462-.457-26.339-.492C750.226,655.905,749.406,655.944,748.022,656.7Z" transform="translate(-194.188 -96.5)"/><path d="M810.538,654.928a4.648,4.648,0,0,0-1.817,1.834c-.26.558-.444,6.07-.457,12.741s.149,12.184.407,12.743a4.638,4.638,0,0,0,1.81,1.841c1.38.762,2.028.8,14.939.749l13.559-.093,1.255-1.316,1.254-1.276.025-12.582.025-12.583-1.25-1.28-1.249-1.321-13.559-.147C812.569,654.133,811.922,654.172,810.538,654.928Z" transform="translate(-194.188 -96.5)"/><path d="M852.544,656.144a5.329,5.329,0,0,0-1.86,1.435c-.865,1.037-.909,1.4-.933,13.5-.027,13.622-.027,13.582,2.561,14.825,1.855.882,26.209.931,28.068.055,2.593-1.233,2.593-1.193,2.62-14.854l.025-12.5-1.25-1.28L880.525,656l-13.558-.107C859.54,655.839,853.019,655.946,852.544,656.144Z" transform="translate(-194.188 -96.5)"/><path d="M281.878,693.65a4.837,4.837,0,0,0-1.6,1.555c-.65,1-.739,2.635-.76,13.38-.024,11.7.018,12.3.837,13.423a5.209,5.209,0,0,0,2.5,1.563c2.158.564,48.966.656,51.126.1a5.9,5.9,0,0,0,2.507-1.473c.823-1,.867-1.516.891-13.659.027-13.7.027-13.621-2.432-14.785C333.7,693.154,283.218,693.094,281.878,693.65Z" transform="translate(-194.188 -96.5)"/><path d="M346.977,694.487l-1.427,1.156-.154,12.223c-.106,10.345-.024,12.423.535,13.542,1.247,2.439,1.334,2.479,15.108,2.627,13.515.186,15.113-.011,16.585-1.765.866-1,.91-1.516.934-13.779l.025-12.783-1.336-1.161-1.336-1.161-13.775-.027-13.775-.027Z" transform="translate(-194.188 -96.5)"/><path d="M388.457,694.448l-1.341,1.156-.026,12.942c-.025,12.942-.026,12.982.966,13.822,1.767,1.562,2.976,1.684,15.455,1.709,12.868.025,13.948-.093,15.722-1.966.822-.838.866-1.437.891-13.66l.025-12.782-1.423-1.161-1.379-1.162-13.775-.027-13.775-.027Z" transform="translate(-194.188 -96.5)"/><path d="M426.05,694.6l-1.341,1.235-.026,12.783-.025,12.782,1.207,1.121c1.681,1.561,3.062,1.683,16.924,1.551,12.825-.094,13.041-.134,14.427-2.328.606-.918.7-2.755.717-13.34l.024-12.263-1.465-1.361-1.466-1.361-13.817-.028-13.818-.027Z" transform="translate(-194.188 -96.5)"/><path d="M476.918,694.222c-2.118,1.075-2.162,1.594-2.232,14.855-.023,11.944.019,12.463.837,13.463a5.887,5.887,0,0,0,2.5,1.483c2.287.564,167.108.89,168.793.294a9.909,9.909,0,0,0,2.205-1.234c.951-.837.951-.877.977-13.819l.026-12.942-1.25-1.161L647.526,694l-84.807-.168C493.2,693.735,477.782,693.785,476.918,694.222Z" transform="translate(-194.188 -96.5)"/><path d="M658.513,692.154l-1.341,1.155-.026,12.863-.025,12.862,1.207,1.121c1.681,1.561,3.062,1.683,16.924,1.551,13.04-.094,13.213-.134,14.47-2.568.564-1.117.654-3.194.588-13.54l-.1-12.223-1.423-1.162-1.379-1.161-13.775-.027L659.854,691Z" transform="translate(-194.188 -96.5)"/><path d="M697.949,691.436c-2.378,1.194-2.377,1.114-2.4,14.815l-.026,12.742,1.207,1.121c1.681,1.561,3.063,1.684,16.924,1.552,10.493-.1,12-.176,13-.814,2.032-1.234,2.12-1.913,2.145-14.895l.024-12.223-1.465-1.361-1.465-1.361-13.516-.027C703.347,691.008,698.511,691.118,697.949,691.436Z" transform="translate(-194.188 -96.5)"/><path d="M735.067,691.372a4.823,4.823,0,0,0-1.6,1.554c-.65,1-.739,2.635-.76,13.261-.023,11.264.019,12.183.837,13.383A3.94,3.94,0,0,0,736,721.252c2.244.6,31.175.661,32.817.065a9.83,9.83,0,0,0,2.205-1.234c.951-.837.951-.877.977-13.819l.026-12.942-1.337-1.161L769.353,691l-16.711.007C742.365,690.987,735.628,691.133,735.067,691.372Z" transform="translate(-194.188 -96.5)"/><path d="M776.331,692.264l-1.341,1.155-.026,12.982-.025,12.982,1.293,1.042a7.2,7.2,0,0,0,2.718,1.243c.777.162,6.909.214,13.688.147,13.516-.093,13.645-.133,14.946-2.607.563-1.077.654-3.114.545-13.5l-.106-12.223-1.422-1.162-1.38-1.161-13.775-.027-13.774-.027Z" transform="translate(-194.188 -96.5)"/><path d="M816.791,691.656c-2.377,1.193-2.377,1.113-2.4,14.814l-.025,12.743,1.207,1.121c1.681,1.561,3.062,1.683,16.923,1.551,10.494-.1,12-.176,13-.813,2.032-1.234,2.12-1.913,2.146-14.895l.024-12.223-1.466-1.361-1.465-1.362-13.516-.026C822.19,691.227,817.353,691.337,816.791,691.656Z" transform="translate(-194.188 -96.5)"/><path d="M861.146,691.794a4.847,4.847,0,0,0-1.6,1.555c-.649,1-.739,2.635-.76,13.38-.023,11.7.019,12.3.837,13.423a5.209,5.209,0,0,0,2.5,1.563c2.115.524,24.4.568,26.513.052a5.206,5.206,0,0,0,2.508-1.552c.822-1.117.867-1.716.89-13.42.026-13.3-.059-13.941-2.432-14.944C888.265,691.289,862.443,691.238,861.146,691.794Z" transform="translate(-194.188 -96.5)"/><rect class="cls-9" x="47.812" y="400.5" width="27" height="17"/><rect class="cls-9" x="579.812" y="399.5" width="27" height="17"/></g></g><g id="Taskleiste"><polyline id="HomeIcon" class="cls-10" points="18.698 374.683 72.674 374.683 612.408 374.683 661.859 374.683 662.045 393.379 18.698 393.379 18.698 374.683"/><g id="WindowsIcon"><polygon class="cls-11" points="21.6 381.44 21.6 384.293 25.52 384.293 25.52 380.669 21.6 381.44"/><polygon class="cls-11" points="25.52 384.293 29.583 384.365 29.583 380.025 25.52 380.669 25.52 384.293"/><polygon class="cls-11" points="21.6 386.731 21.6 384.097 25.52 384.097 25.52 387.443 21.6 386.731"/><polygon class="cls-11" points="25.52 384.097 29.583 384.031 29.583 388.037 25.52 387.443 25.52 384.097"/></g><g id="IllustratorIconaufLeiste"><polyline id="WordIconFeld" class="cls-12" points="47.884 375.217 61.473 375.217 61.473 392.311 47.884 392.311 47.884 375.217 61.473 375.217"/><rect class="cls-13" x="49.812" y="378.5" width="9" height="8" rx="1.913"/><text class="cls-14" transform="translate(51.159 384.709)">A<tspan class="cls-15" x="3.986" y="0">i</tspan></text></g><g id="WLAN"><path class="cls-16" d="M790.507,484.27h0a3.535,3.535,0,0,1,3.461-3.6h.7" transform="translate(-194.188 -96.5)"/><path class="cls-16" d="M787.171,484.27h0c0-3.983,2.791-7.211,6.234-7.211h1.265" transform="translate(-194.188 -96.5)"/><path class="cls-16" d="M788.9,484.27h0c0-2.987,2.147-5.408,4.795-5.408h.973" transform="translate(-194.188 -96.5)"/><ellipse class="cls-17" cx="599.276" cy="386.568" rx="1.049" ry="1.202"/></g><polyline id="Dropdown" class="cls-16" points="577.788 387.703 582.036 383.296 586.283 387.703"/><text class="cls-18" transform="translate(636.312 381.989) scale(0.906 1)">06:00<tspan x="-8.447" y="8.974">25.06.2021</tspan></text><g id="Lautstaerke"><polygon class="cls-16" points="613.602 389.373 607.255 386.125 607.255 383.342 613.602 380.559 613.602 389.373"/><path class="cls-16" d="M809.521,478.914h0a3.618,3.618,0,0,1,.248,3.449l-.248.552" transform="translate(-194.188 -96.5)"/><path class="cls-16" d="M810.093,477.593h0a4.512,4.512,0,0,1,.451,6.27l-.451.56" transform="translate(-194.188 -96.5)"/></g></g><g id="programm"><g id="Links"><rect id="SeitenleisteL" class="cls-19" x="19.312" y="39.5" width="23" height="335.5"/><polygon class="cls-20" points="26.849 87.226 24.464 72.774 37.812 80 31.138 80 26.849 87.226"/><polygon class="cls-21" points="26.492 62.452 24.464 49.548 35.812 56 30.138 56 26.492 62.452"/><rect class="cls-22" x="23.312" y="118.471" width="14" height="10.323"/><path class="cls-23" d="M227.334,194.19a3.957,3.957,0,0,0-.319-.857c-.16-.279-.26-.351-.81-.351h-1v5.031c0,.805.08.919,1.029.981v.289h-2.908v-.289c.929-.062,1.009-.165,1.009-.981v-5.031h-.909c-.55,0-.71.062-.88.372a4.783,4.783,0,0,0-.33.836h-.3c.061-.63.121-1.28.15-1.859h.23c.15.248.26.237.54.237H226.8a.5.5,0,0,0,.51-.237h.239c0,.485.04,1.229.09,1.828Z" transform="translate(-194.188 -96.5)"/><g id="PlatzhalterSeitenleisteL"><ellipse class="cls-23" cx="30.312" cy="148.408" rx="4.5" ry="4.645"/><ellipse class="cls-23" cx="30.312" cy="173.183" rx="4.5" ry="4.645"/><ellipse class="cls-23" cx="30.312" cy="198.991" rx="4.5" ry="4.645"/><ellipse class="cls-23" cx="30.312" cy="226.863" rx="4.5" ry="4.645"/></g><g id="DreiPunkte"><ellipse class="cls-23" cx="25.812" cy="264.542" rx="2" ry="2.065"/><ellipse class="cls-23" cx="30.812" cy="264.542" rx="2" ry="2.065"/><ellipse class="cls-23" cx="35.812" cy="264.542" rx="2" ry="2.065"/></g></g><g id="Rechts"><rect id="SeitenleisteR" class="cls-10" x="585.312" y="50" width="75" height="325"/></g><g id="Zeichenfläche"><rect id="Zeichenflaeche" class="cls-24" x="42.312" y="61" width="535" height="306"/><g id="THMungefaerbt"><polygon class="cls-25" points="144.677 266.607 163.94 266.607 163.312 163 214.312 164 214.091 142.5 98.312 141 98.553 163 144.312 163 144.677 266.607"/><polygon class="cls-25" points="236.725 141.5 252.725 141.5 252.725 196.102 284.725 196.102 284.725 141.5 300.312 141.5 300.312 267 284.312 267 283.312 214 252.725 213.311 252.029 266.5 236.725 266.5 236.725 141.5"/><polygon class="cls-25" points="339.204 267 340.195 141.5 350.994 141.5 375.102 177 391.213 177 417.772 141.5 427.812 141.5 427.812 266.607 415.312 266.607 415.798 162 393.312 196 372.225 195.475 351.312 161 352.087 267 339.204 267"/></g><g id="THMgefaerbt"><polygon class="cls-26" points="144.677 266.607 163.94 266.607 163.312 163 214.312 164 214.091 142.5 98.312 141 98.553 163 144.312 163 144.677 266.607"/><polygon class="cls-26" points="236.725 141.5 252.725 141.5 252.725 196.102 284.725 196.102 284.725 141.5 300.312 141.5 300.312 267 284.312 267 283.312 214 252.725 213.311 252.029 266.5 236.725 266.5 236.725 141.5"/><polygon class="cls-26" points="339.204 267 340.195 141.5 350.994 141.5 375.102 177 391.213 177 417.772 141.5 427.812 141.5 427.812 266.607 415.312 266.607 415.798 162 393.312 196 372.225 195.475 351.312 161 352.087 267 339.204 267"/></g></g><g id="ObereLeiste"><rect id="ObereLeiste-2" data-name="ObereLeiste" class="cls-19" x="18.812" y="14" width="643" height="25.5"/><rect class="cls-13" x="26.812" y="16.021" width="17.1" height="14.648" rx="1.913"/><text class="cls-27" transform="translate(29.373 27.39) scale(1.038 1)">A<tspan class="cls-28" x="7.041" y="0">i</tspan></text><polygon class="cls-23" points="58.312 18.021 66.812 22.418 64.93 22.418 64.93 28.431 60.437 28.431 60.437 22.903 56.187 22.903 56.187 28.431 52.231 28.431 52.231 22.418 49.812 22.418 58.312 18.021"/><text class="cls-29" transform="translate(79.768 25.587) scale(1.412 1)">D<tspan class="cls-30" x="3.955" y="0">at</tspan><tspan class="cls-31" x="8.313" y="0">e</tspan><tspan class="cls-32" x="11.322" y="0" xml:space="preserve">i            </tspan><tspan class="cls-33" x="28.748" y="0">B</tspan><tspan class="cls-34" x="32.404" y="0">e</tspan><tspan class="cls-35" x="35.411" y="0">a</tspan><tspan class="cls-36" x="38.409" y="0">r</tspan><tspan class="cls-37" x="40.229" y="0">b</tspan><tspan class="cls-31" x="43.247" y="0">e</tspan><tspan class="cls-38" x="46.255" y="0">i</tspan><tspan class="cls-39" x="47.36" y="0">t</tspan><tspan class="cls-40" x="48.748" y="0">e</tspan><tspan class="cls-41" x="51.755" y="0" xml:space="preserve">n           </tspan><tspan class="cls-42" x="69.709" y="0">O</tspan><tspan class="cls-43" x="74.03" y="0">b</tspan><tspan class="cls-44" x="77.03" y="0">j</tspan><tspan class="cls-45" x="78.15" y="0">e</tspan><tspan class="cls-46" x="81.154" y="0">k</tspan><tspan class="cls-41" x="83.949" y="0" xml:space="preserve">t             </tspan><tspan class="cls-47" x="103.055" y="0">S</tspan><tspan class="cls-48" x="106.705" y="0">c</tspan><tspan class="cls-49" x="109.442" y="0">h</tspan><tspan class="cls-50" x="112.437" y="0">r</tspan><tspan class="cls-51" x="114.254" y="0">i</tspan><tspan class="cls-52" x="115.38" y="0">f</tspan><tspan class="cls-32" x="116.971" y="0" xml:space="preserve">t              </tspan><tspan class="cls-53" x="137.442" y="0">A</tspan><tspan class="cls-54" x="141.055" y="0">u</tspan><tspan class="cls-55" x="144.049" y="0">s</tspan><tspan class="cls-56" x="146.706" y="0">w</tspan><tspan class="cls-57" x="150.609" y="0">a</tspan><tspan class="cls-58" x="153.605" y="0">h</tspan><tspan class="cls-32" x="156.605" y="0" xml:space="preserve">l           </tspan><tspan class="cls-59" x="172.666" y="0">E</tspan><tspan class="cls-60" x="176.197" y="0">f</tspan><tspan class="cls-61" x="177.81" y="0">f</tspan><tspan class="cls-45" x="179.215" y="0">e</tspan><tspan class="cls-62" x="182.219" y="0">k</tspan><tspan class="cls-32" x="185.014" y="0">t </tspan></text><g id="Platzhalter"><rect class="cls-23" x="377.812" y="20.021" width="46" height="7.083" rx="2.761"/><rect class="cls-23" x="454.812" y="20.021" width="46" height="7.083" rx="2.761"/><rect class="cls-23" x="531.812" y="20.021" width="46" height="7.083" rx="2.761"/></g><rect id="tableiste" class="cls-19" x="42.312" y="39.5" width="619.5" height="10"/><rect id="zusatzleiste" class="cls-19" x="18.812" y="31.5" width="643" height="7"/><polygon class="cls-19" points="42.312 50 42.312 39.5 166.812 39.5 166.812 49.5 42.312 50"/><text class="cls-63" transform="translate(43.812 46.297) scale(1.431 1)">L<tspan class="cls-64" x="2.649" y="0">o</tspan><tspan class="cls-65" x="5.349" y="0">g</tspan><tspan class="cls-66" x="8.036" y="0">o</tspan><tspan class="cls-67" x="10.632" y="0">.</tspan><tspan class="cls-68" x="11.923" y="0">a</tspan><tspan class="cls-69" x="14.58" y="0">i</tspan><tspan class="cls-70" x="15.562" y="0">* @ </tspan><tspan class="cls-71" x="24.621" y="0">6</tspan><tspan class="cls-72" x="27.388" y="0">6</tspan><tspan class="cls-73" x="30.059" y="0">,</tspan><tspan class="cls-74" x="31.323" y="0">6</tspan><tspan class="cls-68" x="33.957" y="0">7</tspan><tspan class="cls-66" x="36.615" y="0">% </tspan><tspan class="cls-75" x="42.08" y="0">(</tspan><tspan class="cls-76" x="43.614" y="0">R</tspan><tspan class="cls-77" x="47.067" y="0">G</tspan><tspan class="cls-78" x="50.92" y="0">B</tspan><tspan class="cls-79" x="54.167" y="0">/</tspan><tspan class="cls-80" x="55.682" y="0">V</tspan><tspan class="cls-81" x="58.706" y="0">o</tspan><tspan class="cls-82" x="61.391" y="0">r</tspan><tspan class="cls-83" x="62.995" y="0">s</tspan><tspan class="cls-84" x="65.383" y="0">c</tspan><tspan class="cls-85" x="67.816" y="0">h</tspan><tspan class="cls-86" x="70.48" y="0">a</tspan><tspan class="cls-87" x="73.123" y="0">u</tspan><tspan class="cls-70" x="75.523" y="0" xml:space="preserve">)    X</tspan></text><rect class="cls-19" x="585.812" y="262.5" width="73" height="112"/><g id="EbenenIcon"><rect class="cls-19" x="603.312" y="354" width="18" height="19"/><rect class="cls-19" x="601.812" y="271.5" width="18" height="19"/><rect class="cls-19" x="602.812" y="326.5" width="18" height="19"/><rect class="cls-19" x="602.312" y="299" width="18" height="19"/></g><g id="ezeichnungEbenen"><rect class="cls-88" x="629.312" y="275" width="20" height="6"/><rect class="cls-88" x="629.312" y="304" width="20" height="6"/><rect class="cls-88" x="629.312" y="333" width="20" height="6"/><rect class="cls-88" x="629.312" y="358" width="20" height="6"/></g><rect class="cls-89" x="586.312" y="103" width="73" height="141"/><path d="M853,200V340H781V200h72m1-1H780V341h74V199Z" transform="translate(-194.188 -96.5)"/><g id="TabsR"><rect class="cls-23" x="585.812" y="80.935" width="46.478" height="21.565"/><text class="cls-90" transform="translate(590.116 91.89)"><tspan class="cls-91">F</tspan><tspan x="2.652" y="0">a</tspan><tspan class="cls-92" x="5.544" y="0">r</tspan><tspan x="7.53" y="0">b</tspan><tspan class="cls-93" x="10.944" y="0">f</tspan><tspan x="12.618" y="0">elder</tspan></text><rect class="cls-94" x="591.937" y="108.625" width="7.75" height="7.75"/><path class="cls-17" d="M793.75,205.25v7.5h-7.5v-7.5h7.5M794,205h-8v8h8v-8Z" transform="translate(-194.188 -96.5)"/><path d="M797,210v6h-6v-6h6m1-1h-8v8h8v-8Z" transform="translate(-194.188 -96.5)"/><rect class="cls-17" x="588.812" y="125.5" width="4" height="4"/><rect class="cls-95" x="588.812" y="131.5" width="4" height="4"/><rect class="cls-96" x="588.812" y="137.5" width="4" height="4"/><rect class="cls-97" x="594.812" y="137.5" width="4" height="4"/><rect class="cls-98" x="600.812" y="137.5" width="4" height="4"/><rect class="cls-99" x="606.812" y="137.5" width="4" height="4"/><rect class="cls-100" x="612.812" y="137.5" width="4" height="4"/><rect class="cls-101" x="618.812" y="137.5" width="4" height="4"/><rect class="cls-102" x="624.812" y="137.5" width="4" height="4"/><rect class="cls-103" x="630.812" y="137.5" width="4" height="4"/><rect class="cls-104" x="636.812" y="137.5" width="4" height="4"/><rect class="cls-105" x="642.812" y="137.5" width="4" height="4"/><rect class="cls-106" x="648.812" y="137.5" width="4" height="4"/><rect class="cls-107" x="594.812" y="131.5" width="4" height="4"/><rect class="cls-108" x="600.812" y="131.5" width="4" height="4"/><rect class="cls-109" x="606.812" y="131.5" width="4" height="4"/><rect class="cls-110" x="612.812" y="131.5" width="4" height="4"/><rect class="cls-111" x="618.812" y="131.5" width="4" height="4"/><rect class="cls-112" x="624.812" y="131.5" width="4" height="4"/><rect class="cls-113" x="630.812" y="131.5" width="4" height="4"/><rect class="cls-114" x="636.812" y="131.5" width="4" height="4"/><rect class="cls-115" x="642.812" y="131.5" width="4" height="4"/><rect class="cls-116" x="648.812" y="131.5" width="4" height="4"/><rect x="594.812" y="125.5" width="4" height="4"/><rect class="cls-117" x="600.812" y="125.5" width="4" height="4"/><rect class="cls-118" x="606.812" y="125.5" width="4" height="4"/><rect class="cls-94" x="612.812" y="125.5" width="4" height="4"/><rect class="cls-119" x="618.812" y="125.5" width="4" height="4"/><rect class="cls-120" x="624.812" y="125.5" width="4" height="4"/><rect class="cls-121" x="630.812" y="125.5" width="4" height="4"/><rect class="cls-122" x="636.812" y="125.5" width="4" height="4"/><rect class="cls-123" x="642.812" y="125.5" width="4" height="4"/><rect class="cls-124" x="648.812" y="125.5" width="4" height="4"/><rect class="cls-88" x="585.812" y="244.761" width="46.478" height="17.739"/><text class="cls-125" transform="translate(590.551 252.515)">E<tspan class="cls-126" x="3.201" y="0">b</tspan><tspan class="cls-127" x="5.908" y="0">ene</tspan><tspan class="cls-128" x="14.004" y="0">n</tspan></text></g><g id="Menurechtsoben"><rect class="cls-129" x="651.812" y="14.5" width="9.5" height="3"/><rect class="cls-130" x="645.812" y="14.5" width="6" height="3"/><path class="cls-130" d="M639.812,14.5h6a0,0,0,0,1,0,0v3a0,0,0,0,1,0,0h-4.793a1.207,1.207,0,0,1-1.207-1.207V14.5A0,0,0,0,1,639.812,14.5Z"/><line class="cls-131" x1="642.073" y1="16" x2="643.638" y2="16"/><text class="cls-132" transform="translate(656.514 17.01)">x</text><rect class="cls-133" x="647.812" y="15.5" width="1" height="1"/><rect class="cls-133" x="648.312" y="15" width="1" height="1"/></g></g><g id="PlatzhalterR"><rect class="cls-88" x="590.312" y="162" width="23" height="4" rx="2"/><rect class="cls-88" x="625.312" y="162" width="23" height="4" rx="2"/><rect class="cls-88" x="590.312" y="177" width="23" height="4" rx="2"/><rect class="cls-88" x="625.312" y="177" width="23" height="4" rx="2"/><rect class="cls-88" x="591.312" y="224" width="23" height="4" rx="2"/><rect class="cls-88" x="626.312" y="224" width="23" height="4" rx="2"/><rect class="cls-88" x="590.312" y="192" width="23" height="4" rx="2"/><rect class="cls-88" x="625.312" y="192" width="23" height="4" rx="2"/><rect class="cls-88" x="590.312" y="207" width="23" height="4" rx="2"/><rect class="cls-88" x="625.312" y="207" width="23" height="4" rx="2"/></g></g></svg>