<?xml version="1.0" standalone="no"?>
<!DOCTYPE svg PUBLIC "-//W3C//DTD SVG 20010904//EN"
 "http://www.w3.org/TR/2001/REC-SVG-20010904/DTD/svg10.dtd">
<svg version="1.0" xmlns="http://www.w3.org/2000/svg"
 width="1920.000000pt" height="1080.000000pt" viewBox="0 0 1920.000000 1080.000000"
 preserveAspectRatio="xMidYMid meet">

<g transform="translate(0.000000,1080.000000) scale(0.100000,-0.100000)"
fill="#000000" stroke="none">
<path d="M6380 8404 c-467 -39 -833 -176 -1185 -444 -49 -37 -101 -80 -114
-94 l-24 -26 1312 0 c1154 0 1316 -2 1341 -15 53 -27 53 -103 0 -130 -26 -13
-184 -15 -1379 -13 -1234 3 -1352 4 -1367 19 -15 15 4 17 258 23 150 3 707 8
1238 12 659 4 969 9 978 17 7 5 12 20 10 31 l-3 21 -1220 -3 -1220 -4 -38 -36
c-58 -55 -193 -225 -260 -327 -73 -111 -185 -337 -232 -468 -128 -358 -155
-748 -78 -1146 l16 -84 601 7 c331 3 1269 13 2086 22 816 8 1485 16 1486 17 1
1 9 45 18 97 25 146 38 344 31 455 l-7 100 -1984 0 -1983 0 -22 22 c-28 28
-28 79 1 107 l21 21 1975 3 1976 2 -7 43 c-27 168 -93 363 -190 562 -181 372
-416 638 -765 867 -253 166 -558 281 -860 322 -111 16 -334 26 -410 20z"/>
<path d="M4722 6538 c-18 -18 -14 -46 7 -58 14 -7 624 -9 1946 -8 1699 3 1927
5 1935 18 13 21 12 26 -6 44 -14 14 -204 16 -1943 16 -1485 0 -1930 -3 -1939
-12z"/>
<path d="M4431 5678 c5 -18 9 -34 9 -35 0 -2 924 -3 2054 -3 1864 0 2054 1
2060 16 3 9 6 24 6 35 0 19 -36 19 -2069 19 l-2070 0 10 -32z"/>
<path d="M6035 5593 c-863 -8 -1571 -16 -1572 -17 -7 -6 57 -161 116 -281 115
-233 234 -399 425 -591 313 -314 741 -524 1206 -590 152 -22 418 -22 570 0
211 30 430 94 610 179 l75 35 -75 2 c-41 0 -412 5 -824 9 -722 8 -749 9 -775
28 -37 28 -37 88 0 115 26 20 41 20 980 11 l954 -9 75 55 c89 64 271 245 360
356 159 200 301 465 370 688 l9 27 -467 -2 c-257 0 -1173 -8 -2037 -15z"/>
<path d="M5861 4442 c-6 -11 -6 -24 0 -35 9 -16 66 -17 867 -17 l857 1 55 34
54 35 -912 0 c-863 0 -912 -1 -921 -18z"/>
</g>
</svg>
