<svg id="Wireframe" xmlns="http://www.w3.org/2000/svg" viewBox="0 0 676 676">
  <defs>
    <style>
      #Wireframe {
        position: absolute;
        display: block;
      }

      #Outline {
        fill: #2d2d2d;
        fill-opacity: 0;
      }

      #horizontalLines > path{
        transform-origin: center;
        transform: rotate(90deg);
      }

      .cls-1 {
        fill-opacity: 0%;
        stroke: #f6f6f6;
        stroke-opacity: 35%;
      }
    </style>
  </defs>

  <path id="Outline" d="M338,675.5a337.54,337.54,0,0,1-184.71-620A337.52,337.52,0,0,1,576.65,576.65,335.32,335.32,0,0,1,338,675.5Z"/>
  <g id="verticalLines">
    <path class="cls-1" d="M336.57,675.79c-87.63,0-170-35.11-232-98.85S8.5,428.44,8.5,338.29A345.49,345.49,0,0,1,27,226.43a339.46,339.46,0,0,1,51.14-96A333,333,0,0,1,157,55.76,320.26,320.26,0,0,1,336.57.79c87.63,0,170,35.1,232,98.84s96.09,148.5,96.09,238.66-34.12,174.9-96.09,238.65S424.2,675.79,336.57,675.79Z"/>
    <path class="cls-1" d="M336.57,675.79c-84.15,0-163.27-35.11-222.78-98.84S21.5,428.44,21.5,338.29A358.31,358.31,0,0,1,39.22,226.43a343.86,343.86,0,0,1,49.12-96,325.59,325.59,0,0,1,75.81-74.65c51.26-36,110.88-55,172.42-55,84.15,0,163.27,35.1,222.78,98.83s92.29,148.51,92.29,238.67S618.87,513.2,559.35,577,420.72,675.79,336.57,675.79Z"/>
    <path class="cls-1" d="M336.57,675.79c-77.47,0-150.3-35.1-205.08-98.83s-85-148.51-85-238.67c0-76.18,21.28-148.07,61.55-207.9a313.1,313.1,0,0,1,69.8-74.64c47.19-36,102.07-55,158.72-55,77.47,0,150.3,35.09,205.09,98.82s85,148.51,85,238.68-30.18,174.92-85,238.67S414,675.79,336.57,675.79Z"/>
    <path class="cls-1" d="M337.57,675.79c-65.7,0-127.47-35.09-173.95-98.8S91.5,428.46,91.5,338.29c0-76.19,18.06-148.09,52.24-207.93C160.42,101.14,180.35,76,203,55.72,243,19.78,289.53.79,337.57.79c65.7,0,127.47,35.08,174,98.79s72.12,148.53,72.12,238.71S558,513.24,511.52,577,403.27,675.79,337.57,675.79Z"/>
    <path class="cls-1" d="M339.57,675.79c-105.91,0-192.07-151.41-192.07-337.5,0-76.21,14.11-148.12,40.8-208,13-29.21,28.6-54.33,46.26-74.63C265.79,19.77,302.1.79,339.57.79c105.91,0,192.07,151.4,192.07,337.5S445.48,675.79,339.57,675.79Z"/>
    <path class="cls-1" d="M339.57,675.79c-68.41,0-124.07-151.41-124.07-337.5,0-76.23,9.13-148.17,26.4-208,8.44-29.23,18.51-54.35,29.93-74.66C292,19.74,315.43.79,339.57.79c68.41,0,124.07,151.4,124.07,337.5S408,675.79,339.57,675.79Z"/>
    <path class="cls-1" d="M337.57,675.79c-11.68,0-23.21-35.93-31.63-98.57-8.57-63.82-13.3-148.67-13.3-238.93,0-76.26,3.33-148.23,9.64-208.13,3.07-29.25,6.75-54.38,10.92-74.71C320.54,19.69,329,.79,337.57.79c11.68,0,23.21,35.92,31.63,98.56,8.58,63.82,13.3,148.67,13.3,238.94s-4.72,175.11-13.3,238.93C360.78,639.86,349.25,675.79,337.57,675.79Z"/>
  </g>
  <g id="horizontalLines">
    <path class="cls-1" d="M336.57,675.79c-87.63,0-170-35.11-232-98.85S8.5,428.44,8.5,338.29A345.49,345.49,0,0,1,27,226.43a339.46,339.46,0,0,1,51.14-96A333,333,0,0,1,157,55.76,320.26,320.26,0,0,1,336.57.79c87.63,0,170,35.1,232,98.84s96.09,148.5,96.09,238.66-34.12,174.9-96.09,238.65S424.2,675.79,336.57,675.79Z"/>
    <path class="cls-1" d="M336.57,675.79c-84.15,0-163.27-35.11-222.78-98.84S21.5,428.44,21.5,338.29A358.31,358.31,0,0,1,39.22,226.43a343.86,343.86,0,0,1,49.12-96,325.59,325.59,0,0,1,75.81-74.65c51.26-36,110.88-55,172.42-55,84.15,0,163.27,35.1,222.78,98.83s92.29,148.51,92.29,238.67S618.87,513.2,559.35,577,420.72,675.79,336.57,675.79Z"/>
    <path class="cls-1" d="M336.57,675.79c-77.47,0-150.3-35.1-205.08-98.83s-85-148.51-85-238.67c0-76.18,21.28-148.07,61.55-207.9a313.1,313.1,0,0,1,69.8-74.64c47.19-36,102.07-55,158.72-55,77.47,0,150.3,35.09,205.09,98.82s85,148.51,85,238.68-30.18,174.92-85,238.67S414,675.79,336.57,675.79Z"/>
    <path class="cls-1" d="M337.57,675.79c-65.7,0-127.47-35.09-173.95-98.8S91.5,428.46,91.5,338.29c0-76.19,18.06-148.09,52.24-207.93C160.42,101.14,180.35,76,203,55.72,243,19.78,289.53.79,337.57.79c65.7,0,127.47,35.08,174,98.79s72.12,148.53,72.12,238.71S558,513.24,511.52,577,403.27,675.79,337.57,675.79Z"/>
    <path class="cls-1" d="M339.57,675.79c-105.91,0-192.07-151.41-192.07-337.5,0-76.21,14.11-148.12,40.8-208,13-29.21,28.6-54.33,46.26-74.63C265.79,19.77,302.1.79,339.57.79c105.91,0,192.07,151.4,192.07,337.5S445.48,675.79,339.57,675.79Z"/>
    <path class="cls-1" d="M339.57,675.79c-68.41,0-124.07-151.41-124.07-337.5,0-76.23,9.13-148.17,26.4-208,8.44-29.23,18.51-54.35,29.93-74.66C292,19.74,315.43.79,339.57.79c68.41,0,124.07,151.4,124.07,337.5S408,675.79,339.57,675.79Z"/>
    <path class="cls-1" d="M337.57,675.79c-11.68,0-23.21-35.93-31.63-98.57-8.57-63.82-13.3-148.67-13.3-238.93,0-76.26,3.33-148.23,9.64-208.13,3.07-29.25,6.75-54.38,10.92-74.71C320.54,19.69,329,.79,337.57.79c11.68,0,23.21,35.92,31.63,98.56,8.58,63.82,13.3,148.67,13.3,238.94s-4.72,175.11-13.3,238.93C360.78,639.86,349.25,675.79,337.57,675.79Z"/>
  </g>
  
</svg>
