<svg id="Ebene_1" data-name="Ebene 1" xmlns="http://www.w3.org/2000/svg" viewBox="0 0 483 483"><defs><style>.cls-1{fill:#f1b075;}.cls-2{fill:#c34745;}.cls-3{fill:#3473af;}.cls-4{fill:#ffe7ef;}</style></defs><path class="cls-1" d="M1181.25,491.5a243.66,243.66,0,0,1-1.91,30.5,239.54,239.54,0,0,1-23.28,77,241.61,241.61,0,0,1-432.62,0,239.54,239.54,0,0,1-23.28-77,245,245,0,0,1-.25-59,241.52,241.52,0,0,1,479.68,0A246,246,0,0,1,1181.25,491.5Z" transform="translate(-698.25 -250)"/><path class="cls-2" d="M1157.05,386H722.45a242.53,242.53,0,0,1,59.12-77h316.36A242.53,242.53,0,0,1,1157.05,386Z" transform="translate(-698.25 -250)"/><path class="cls-3" d="M1179.59,463H699.91a240.14,240.14,0,0,1,22.54-77h434.6A240.14,240.14,0,0,1,1179.59,463Z" transform="translate(-698.25 -250)"/><path class="cls-4" d="M1179.34,522a239.54,239.54,0,0,1-23.28,77H723.44a239.54,239.54,0,0,1-23.28-77Z" transform="translate(-698.25 -250)"/><path class="cls-2" d="M1156.06,599a242.41,242.41,0,0,1-60.47,77H783.91a242.41,242.41,0,0,1-60.47-77Z" transform="translate(-698.25 -250)"/><path class="cls-3" d="M1095.59,676a241.54,241.54,0,0,1-311.68,0Z" transform="translate(-698.25 -250)"/></svg>