<svg id="Ebene_1" data-name="Ebene 1" xmlns="http://www.w3.org/2000/svg" viewBox="0 0 693 483"><defs><style>.cls-1{fill:#b8afab;}.cls-2{fill:#414580;}.cls-3{fill:#c1c1c1;}.cls-4{fill:#478888;}.cls-5{fill:#fff;}</style></defs><path class="cls-1" d="M1800.25,491.5a243.66,243.66,0,0,1-1.91,30.5,239.54,239.54,0,0,1-23.28,77,241.61,241.61,0,0,1-432.62,0,239.54,239.54,0,0,1-23.28-77,245,245,0,0,1-.25-59,241.52,241.52,0,0,1,479.68,0A246,246,0,0,1,1800.25,491.5Z" transform="translate(-1215 -250)"/><path class="cls-2" d="M1776.05,386h-434.6a242.53,242.53,0,0,1,59.12-77h316.36A242.53,242.53,0,0,1,1776.05,386Z" transform="translate(-1215 -250)"/><path class="cls-3" d="M1798.34,522a239.54,239.54,0,0,1-23.28,77H1342.44a239.54,239.54,0,0,1-23.28-77Z" transform="translate(-1215 -250)"/><path class="cls-4" d="M1775.06,599a242.41,242.41,0,0,1-60.47,77H1402.91a242.41,242.41,0,0,1-60.47-77Z" transform="translate(-1215 -250)"/><path class="cls-2" d="M1714.59,676a241.54,241.54,0,0,1-311.68,0Z" transform="translate(-1215 -250)"/><path class="cls-5" d="M1561.5,415c-191.37,0-346.5,32.46-346.5,72.5S1370.13,560,1561.5,560,1908,527.54,1908,487.5,1752.87,415,1561.5,415Zm4.5,127.23c-175.63,0-318-24.63-318-55,0-11.21,19.4-21.65,52.71-30.35C1357.64,442,1455.2,432.19,1566,432.19c175.63,0,318,24.64,318,55S1741.63,542.23,1566,542.23Z" transform="translate(-1215 -250)"/><path class="cls-4" d="M1798.59,463H1318.91a240.14,240.14,0,0,1,22.54-77h434.6A240.14,240.14,0,0,1,1798.59,463Z" transform="translate(-1215 -250)"/></svg>