<svg id="Ebene_1" data-name="Ebene 1" xmlns="http://www.w3.org/2000/svg" viewBox="0 0 676 676"><defs><style>.cls-1{fill:#ccc1aa;}.cls-2{fill:#bc7c52;}.cls-3{fill:#998c84;}.cls-4{fill:#ebdfc7;}.cls-5{fill:#bc8a4c;}</style></defs><g id="Planet_1" data-name="Planet 1"><path class="cls-1" d="M677.5,488.5a338,338,0,0,1-668.09,73c-.06-.29-.13-.57-.19-.86a337.58,337.58,0,0,1-7.48-59.5,0,0,0,0,1,0,0q-.24-6.28-.24-12.63a339.15,339.15,0,0,1,2.37-40.16A335.57,335.57,0,0,1,29.11,354.5a338.07,338.07,0,0,1,561.71-92q3.76,4.19,7.39,8.5A336.57,336.57,0,0,1,677.5,488.5Z" transform="translate(-1.5 -150.5)"/><path class="cls-2" d="M488.5,232.5a42.84,42.84,0,0,1-12.19,30l-.4.41A42.88,42.88,0,0,1,445.5,275.5H77.05a339.61,339.61,0,0,1,104.68-86H445.5A43,43,0,0,1,488.5,232.5Z" transform="translate(-1.5 -150.5)"/><path class="cls-2" d="M662.76,587.5a335.82,335.82,0,0,1-40.35,86H293.5a43,43,0,1,1,0-86Z" transform="translate(-1.5 -150.5)"/><path class="cls-3" d="M660.54,382.5h-302a60,60,0,0,1-37.3-107,58.39,58.39,0,0,1,6.51-4.5,59.64,59.64,0,0,1,30.79-8.5H590.82q3.76,4.19,7.39,8.5A337,337,0,0,1,660.54,382.5Z" transform="translate(-1.5 -150.5)"/><path class="cls-2" d="M455.5,382.5a28,28,0,0,1-28,28H10.55a334.83,334.83,0,0,1,18.56-56H427.5A28,28,0,0,1,455.5,382.5Z" transform="translate(-1.5 -150.5)"/><path class="cls-4" d="M595.66,709a335.82,335.82,0,0,1-27.06,28H305.18a13.85,13.85,0,0,1-11.31-21.88c.06-.09.13-.18.19-.28A13.85,13.85,0,0,1,305.38,709Z" transform="translate(-1.5 -150.5)"/><path class="cls-3" d="M488.5,694.5a28,28,0,0,1-28,28H95.6a339.29,339.29,0,0,1-43.49-56H460.5a28,28,0,0,1,28,28Z" transform="translate(-1.5 -150.5)"/><path class="cls-5" d="M499.5,520.75c0,23.61-26.86,42.75-60,42.75H27.5a82.65,82.65,0,0,1-18.28-2A175.47,175.47,0,0,1,1.5,510.06a173.14,173.14,0,0,1,2.37-28.61A80.89,80.89,0,0,1,27.5,478h412c16.57,0,31.57,4.79,42.43,12.52S499.5,508.94,499.5,520.75Z" transform="translate(-1.5 -150.5)"/><path class="cls-5" d="M598.21,271H222.5a19.5,19.5,0,1,1,0-39H559.6a337.91,337.91,0,0,1,31.22,30.5Q594.59,266.69,598.21,271Z" transform="translate(-1.5 -150.5)"/><rect class="cls-5" x="119.5" y="223.5" width="266" height="24" rx="12"/><rect class="cls-3" x="392.5" y="307.5" width="204" height="42" rx="21"/></g></svg>