<?xml version="1.0" encoding="UTF-8" standalone="no"?>
<!DOCTYPE svg PUBLIC "-//W3C//DTD SVG 1.1//EN" "http://www.w3.org/Graphics/SVG/1.1/DTD/svg11.dtd">
<svg width="100%" height="100%" viewBox="0 0 855 857" version="1.1" xmlns="http://www.w3.org/2000/svg" xmlns:xlink="http://www.w3.org/1999/xlink" xml:space="preserve" xmlns:serif="http://www.serif.com/" style="fill-rule:evenodd;clip-rule:evenodd;stroke-miterlimit:10;">
    <g id="Ebene_1_1_" transform="matrix(0.98869,0,0,0.98869,4.83185,4.86097)">
        <g>
            <path d="M401.6,226.8L186.4,10.9C179,3.5 166.8,3.5 159.4,10.9L5.6,164.7C-1.8,172.1 -1.8,184.3 5.6,191.7L220.8,406.9L401.6,226.8Z" style="fill:rgb(0,255,255);fill-rule:nonzero;stroke:white;stroke-width:1px;"/>
            <path d="M630.2,455.5L449.5,636.3L664.7,851.5C672.1,858.9 684.3,858.9 691.7,851.5L845.5,697.7C852.9,690.3 852.9,678.1 845.5,670.7L630.2,455.5Z" style="fill:rgb(0,255,255);fill-rule:nonzero;stroke:white;stroke-width:1px;"/>
            <path d="M642.4,368.4L579,305L627.6,256.4C693,308.3 788.8,304.3 848.9,243.6C856.3,236.2 856.3,224 848.9,216.6L758.5,126.2L805.7,79L832,105.3C853.6,83.7 853.6,48 832,25.7C809.7,4.1 774.7,4.1 752.4,25.7L778.8,52L731.6,99.2L640.5,8.1C633.1,0.7 620.9,0.7 613.5,8.1C552.8,68.8 548.7,163.9 600.7,229.4L552.1,278L488.7,214.6C481.3,207.2 469.1,207.2 461.7,214.6L208.7,467.6C201.3,475 201.3,487.2 208.7,494.6L362.5,648.4C369.9,655.8 382.1,655.8 389.5,648.4L642.5,395.4C649.8,388 649.8,375.9 642.4,368.4Z" style="fill:rgb(107,107,107);fill-rule:nonzero;"/>
        </g>
        <g transform="matrix(0.7067,-0.7075,0.7075,0.7067,-129.131,502.254)">
            <rect x="351.7" y="303.7" width="379" height="206.4" style="fill:none;"/>
        </g>
    </g>
    <g id="Ebene_2_1_" transform="matrix(0.98869,0,0,0.98869,4.83185,4.86097)">
        <g transform="matrix(0.7071,-0.7071,0.7071,0.7071,-17.455,227.169)">
            <rect x="255.4" y="-26.8" width="20.1" height="322.9" style="fill:rgb(0,255,255);stroke:white;stroke-width:1px;stroke-miterlimit:9.9998;"/>
        </g>
        <g transform="matrix(0.7071,-0.7071,0.7071,0.7071,-10.0679,230.229)">
            <rect x="264.2" y="-34.2" width="17.3" height="322.9" style="fill:rgb(0,255,255);stroke:white;stroke-width:1px;stroke-miterlimit:9.9998;"/>
        </g>
        <g transform="matrix(0.7071,-0.7071,0.7071,0.7071,-31.9798,221.086)">
            <rect x="240.8" y="-12.2" width="20.1" height="322.7" style="fill:rgb(0,255,255);stroke:white;stroke-width:1px;stroke-miterlimit:9.9998;"/>
        </g>
        <g transform="matrix(0.7071,-0.7071,0.7071,0.7071,-46.132,215.161)">
            <rect x="226.6" y="2" width="20.1" height="322.6" style="fill:rgb(0,255,255);stroke:white;stroke-width:1px;stroke-miterlimit:9.9998;"/>
        </g>
        <g transform="matrix(0.7071,-0.7071,0.7071,0.7071,-59.4061,209.654)">
            <rect x="213.3" y="15.3" width="20.1" height="322.5" style="fill:rgb(0,255,255);stroke:white;stroke-width:1px;stroke-miterlimit:9.9998;"/>
        </g>
        <g transform="matrix(0.7071,-0.7071,0.7071,0.7071,-73.6917,203.629)">
            <rect x="198.9" y="29.6" width="20.1" height="322.4" style="fill:rgb(0,255,255);stroke:white;stroke-width:1px;stroke-miterlimit:9.9998;"/>
        </g>
        <g transform="matrix(0.7071,-0.7071,0.7071,0.7071,-87.2387,198.101)">
            <rect x="185.5" y="43.2" width="20.1" height="322.4" style="fill:rgb(0,255,255);stroke:white;stroke-width:1px;stroke-miterlimit:9.9998;"/>
        </g>
        <g transform="matrix(0.7071,-0.7071,0.7071,0.7071,-101.451,192.238)">
            <rect x="171.3" y="57.4" width="20.1" height="322.4" style="fill:rgb(0,255,255);stroke:white;stroke-width:1px;stroke-miterlimit:9.9998;"/>
        </g>
        <g transform="matrix(0.7071,-0.7071,0.7071,0.7071,-115.462,186.273)">
            <rect x="157.1" y="71.5" width="20.1" height="322.1" style="fill:rgb(0,255,255);stroke:white;stroke-width:1px;stroke-miterlimit:9.9998;"/>
        </g>
        <g transform="matrix(0.7071,-0.7071,0.7071,0.7071,-130.348,180.106)">
            <rect x="142.2" y="86.4" width="20.1" height="322" style="fill:rgb(0,255,255);stroke:white;stroke-width:1px;stroke-miterlimit:9.9998;"/>
        </g>
        <g transform="matrix(0.7071,-0.7071,0.7071,0.7071,-145.168,174.051)">
            <rect x="127.5" y="101.2" width="20.1" height="322.2" style="fill:rgb(0,255,255);stroke:white;stroke-width:1px;stroke-miterlimit:9.9998;"/>
        </g>
        <g transform="matrix(0.7071,-0.7071,0.7071,0.7071,-159.508,168.029)">
            <rect x="113" y="115.5" width="20.1" height="322.2" style="fill:rgb(0,255,255);stroke:white;stroke-width:1px;stroke-miterlimit:9.9998;"/>
        </g>
        <g transform="matrix(0.7071,-0.7071,0.7071,0.7071,-46.4448,104.609)">
            <rect x="-24.8" y="101.2" width="255.8" height="14.3" style="fill:rgb(0,255,255);stroke:white;stroke-width:1px;stroke-miterlimit:9.9998;"/>
        </g>
        <g transform="matrix(0.7071,-0.7071,0.7071,0.7071,-56.3859,128.609)">
            <rect x="-0.8" y="125.2" width="255.8" height="14.3" style="fill:rgb(0,255,255);stroke:white;stroke-width:1px;stroke-miterlimit:9.9998;"/>
        </g>
        <g transform="matrix(0.7071,-0.7071,0.7071,0.7071,-68.1751,157.088)">
            <rect x="27.6" y="153.7" width="255.8" height="14.3" style="fill:rgb(0,255,255);stroke:white;stroke-width:1px;stroke-miterlimit:9.9998;"/>
        </g>
        <g transform="matrix(0.7071,-0.7071,0.7071,0.7071,-78.9839,183.193)">
            <rect x="53.7" y="179.8" width="255.8" height="14.3" style="fill:rgb(0,255,255);stroke:white;stroke-width:1px;stroke-miterlimit:9.9998;"/>
        </g>
        <g transform="matrix(0.7071,-0.7071,0.7071,0.7071,-90.2955,210.484)">
            <rect x="81" y="207.1" width="255.8" height="14.3" style="fill:rgb(0,255,255);stroke:white;stroke-width:1px;stroke-miterlimit:9.9998;"/>
        </g>
        <g transform="matrix(0.7071,-0.7071,0.7071,0.7071,-100.918,236.356)">
            <rect x="106.9" y="232.8" width="255.8" height="14.3" style="fill:rgb(0,255,255);stroke:white;stroke-width:1px;stroke-miterlimit:9.9998;"/>
        </g>
        <g transform="matrix(0.7071,-0.7071,0.7071,0.7071,-111.681,262.111)">
            <rect x="132.7" y="258.7" width="255.8" height="14.3" style="fill:rgb(0,255,255);stroke:white;stroke-width:1px;stroke-miterlimit:9.9998;"/>
        </g>
        <g transform="matrix(0.7071,-0.7071,0.7071,0.7071,-121.41,285.623)">
            <rect x="156.2" y="282.2" width="255.8" height="14.3" style="fill:rgb(0,255,255);stroke:white;stroke-width:1px;stroke-miterlimit:9.9998;"/>
        </g>
        <g transform="matrix(0.7071,-0.7071,0.7071,0.7071,-128.441,302.59)">
            <rect x="173.1" y="299.2" width="255.8" height="14.3" style="fill:rgb(0,255,255);stroke:white;stroke-width:1px;stroke-miterlimit:9.9998;"/>
        </g>
    </g>
    <g id="Ebene_2_2_" transform="matrix(0.98869,0,0,0.98869,4.83185,4.86097)">
        <g transform="matrix(0.706,-0.7082,0.7082,0.706,-342.978,629.547)">
            <rect x="576.7" y="566.4" width="20.1" height="322.9" style="fill:rgb(0,255,255);stroke:white;stroke-width:1px;stroke-miterlimit:9.9998;"/>
        </g>
        <g transform="matrix(0.706,-0.7082,0.7082,0.706,-350.353,626.535)">
            <rect x="570.8" y="573.8" width="17.3" height="322.9" style="fill:rgb(0,255,255);stroke:white;stroke-width:1px;stroke-miterlimit:9.9998;"/>
        </g>
        <g transform="matrix(0.706,-0.7082,0.7082,0.706,-328.398,635.628)">
            <rect x="591.3" y="552" width="20.1" height="322.7" style="fill:rgb(0,255,255);stroke:white;stroke-width:1px;stroke-miterlimit:9.9998;"/>
        </g>
        <g transform="matrix(0.706,-0.7082,0.7082,0.706,-314.197,641.55)">
            <rect x="605.6" y="537.9" width="20.1" height="322.6" style="fill:rgb(0,255,255);stroke:white;stroke-width:1px;stroke-miterlimit:9.9998;"/>
        </g>
        <g transform="matrix(0.706,-0.7082,0.7082,0.706,-300.844,646.997)">
            <rect x="618.8" y="524.6" width="20.1" height="322.5" style="fill:rgb(0,255,255);stroke:white;stroke-width:1px;stroke-miterlimit:9.9998;"/>
        </g>
        <g transform="matrix(0.706,-0.7082,0.7082,0.706,-286.483,653.041)">
            <rect x="633.3" y="510.4" width="20.1" height="322.4" style="fill:rgb(0,255,255);stroke:white;stroke-width:1px;stroke-miterlimit:9.9998;"/>
        </g>
        <g transform="matrix(0.706,-0.7082,0.7082,0.706,-272.911,658.56)">
            <rect x="646.7" y="496.8" width="20.1" height="322.4" style="fill:rgb(0,255,255);stroke:white;stroke-width:1px;stroke-miterlimit:9.9998;"/>
        </g>
        <g transform="matrix(0.706,-0.7082,0.7082,0.706,-258.76,664.445)">
            <rect x="660.9" y="482.7" width="20.1" height="322.4" style="fill:rgb(0,255,255);stroke:white;stroke-width:1px;stroke-miterlimit:9.9998;"/>
        </g>
        <g transform="matrix(0.706,-0.7082,0.7082,0.706,-244.627,670.354)">
            <rect x="675" y="468.8" width="20.1" height="322.1" style="fill:rgb(0,255,255);stroke:white;stroke-width:1px;stroke-miterlimit:9.9998;"/>
        </g>
        <g transform="matrix(0.706,-0.7082,0.7082,0.706,-229.748,676.507)">
            <rect x="689.9" y="454" width="20.1" height="322" style="fill:rgb(0,255,255);stroke:white;stroke-width:1px;stroke-miterlimit:9.9998;"/>
        </g>
        <g transform="matrix(0.706,-0.7082,0.7082,0.706,-214.811,682.513)">
            <rect x="704.6" y="438.9" width="20.1" height="322.2" style="fill:rgb(0,255,255);stroke:white;stroke-width:1px;stroke-miterlimit:9.9998;"/>
        </g>
        <g transform="matrix(0.706,-0.7082,0.7082,0.706,-200.374,688.476)">
            <rect x="719" y="424.5" width="20.1" height="322.2" style="fill:rgb(0,255,255);stroke:white;stroke-width:1px;stroke-miterlimit:9.9998;"/>
        </g>
        <g transform="matrix(0.706,-0.7082,0.7082,0.706,-313.64,752.173)">
            <rect x="621.2" y="746.7" width="255.8" height="14.3" style="fill:rgb(0,255,255);stroke:white;stroke-width:1px;stroke-miterlimit:9.9998;"/>
        </g>
        <g transform="matrix(0.706,-0.7082,0.7082,0.706,-303.652,728.153)">
            <rect x="597.3" y="722.7" width="255.8" height="14.3" style="fill:rgb(0,255,255);stroke:white;stroke-width:1px;stroke-miterlimit:9.9998;"/>
        </g>
        <g transform="matrix(0.706,-0.7082,0.7082,0.706,-291.95,699.604)">
            <rect x="568.8" y="694.3" width="255.8" height="14.3" style="fill:rgb(0,255,255);stroke:white;stroke-width:1px;stroke-miterlimit:9.9998;"/>
        </g>
        <g transform="matrix(0.706,-0.7082,0.7082,0.706,-281.206,673.463)">
            <rect x="542.7" y="668.3" width="255.8" height="14.3" style="fill:rgb(0,255,255);stroke:white;stroke-width:1px;stroke-miterlimit:9.9998;"/>
        </g>
        <g transform="matrix(0.706,-0.7082,0.7082,0.706,-269.903,646.089)">
            <rect x="515.3" y="641" width="255.8" height="14.3" style="fill:rgb(0,255,255);stroke:white;stroke-width:1px;stroke-miterlimit:9.9998;"/>
        </g>
        <g transform="matrix(0.706,-0.7082,0.7082,0.706,-259.304,620.199)">
            <rect x="489.5" y="615.3" width="255.8" height="14.3" style="fill:rgb(0,255,255);stroke:white;stroke-width:1px;stroke-miterlimit:9.9998;"/>
        </g>
        <g transform="matrix(0.706,-0.7082,0.7082,0.706,-248.589,594.226)">
            <rect x="463.5" y="589.4" width="255.8" height="14.3" style="fill:rgb(0,255,255);stroke:white;stroke-width:1px;stroke-miterlimit:9.9998;"/>
        </g>
        <g transform="matrix(0.706,-0.7082,0.7082,0.706,-238.938,570.704)">
            <rect x="440" y="566" width="255.8" height="14.3" style="fill:rgb(0,255,255);stroke:white;stroke-width:1px;stroke-miterlimit:9.9998;"/>
        </g>
        <g transform="matrix(0.706,-0.7082,0.7082,0.706,-231.945,553.723)">
            <rect x="423.1" y="549.1" width="255.8" height="14.3" style="fill:rgb(0,255,255);stroke:white;stroke-width:1px;stroke-miterlimit:9.9998;"/>
        </g>
    </g>
    <g transform="matrix(0.694753,-0.703453,0.703453,0.694753,-341.026,441.177)">
        <rect x="340.1" y="606.4" width="26.1" height="65.7" style="fill:none;"/>
    </g>
    <g transform="matrix(0.98869,0,0,0.98869,0.601421,-3.62142)">
        <path d="M334.6,614.6L339,606.9L339.8,607.7L336.8,612.6C336.5,613.1 336.2,613.6 335.8,614.1C336.6,613.6 337.1,613.3 337.2,613.2L342.4,610.2L343.4,611.2L341.2,615.2C340.7,616.2 340.1,617.1 339.5,617.8C340,617.5 340.5,617.1 341.1,616.8L345.9,613.8L346.7,614.6L339,619.1L338.2,618.3L341.5,612.4C341.8,611.9 341.9,611.6 342,611.5C341.7,611.7 341.4,611.9 341.1,612L335.2,615.4L334.6,614.6Z" style="fill:white;fill-rule:nonzero;"/>
        <path d="M344.3,624.1L344.9,623.4C344.1,623.6 343.3,623.3 342.8,622.8C342.5,622.5 342.3,622.3 342.2,621.9C342.1,621.5 342,621.3 342.1,621C342.1,620.7 342.2,620.5 342.4,620.2C342.5,620 342.7,619.8 343,619.5L345.7,616.8L346.5,617.5L344.1,620C343.7,620.4 343.5,620.7 343.4,620.8C343.3,621 343.2,621.3 343.2,621.6C343.2,621.9 343.4,622.1 343.6,622.3C343.8,622.5 344.1,622.7 344.4,622.8C344.7,622.9 345,622.9 345.3,622.7C345.6,622.6 345.9,622.3 346.3,622L348.6,619.6L349.4,620.3L345,624.7L344.3,624.1Z" style="fill:white;fill-rule:nonzero;"/>
        <path d="M346.2,626L352.2,619.9L353.4,621.1L350.6,626.9C350.3,627.4 350.1,627.8 350,628.1C350.3,627.9 350.7,627.7 351.3,627.4L357,624.6L358.1,625.7L352.1,631.8L351.3,631L356.4,625.9L349.6,629.3L348.9,628.6L352.3,621.7L347.2,626.9L346.2,626Z" style="fill:white;fill-rule:nonzero;"/>
        <path d="M357.4,633.2L358.2,633.9C357.9,634.2 357.8,634.6 357.7,634.9C357.6,635.2 357.7,635.6 357.8,636C358,636.4 358.2,636.8 358.6,637.1C358.9,637.4 359.2,637.6 359.6,637.8C359.9,637.9 360.2,638 360.5,637.9C360.8,637.9 361,637.7 361.2,637.5C361.4,637.3 361.5,637.1 361.5,636.8C361.5,636.5 361.5,636.2 361.3,635.9C361.2,635.7 360.9,635.2 360.5,634.5C360.1,633.8 359.8,633.3 359.7,633C359.6,632.6 359.5,632.2 359.6,631.8C359.7,631.4 359.9,631.1 360.1,630.8C360.4,630.5 360.8,630.3 361.2,630.2C361.6,630.1 362.1,630.2 362.6,630.3C363.1,630.5 363.5,630.8 363.9,631.2C364.4,631.6 364.7,632.1 364.9,632.6C365.1,633.1 365.2,633.6 365.1,634C365,634.4 364.8,634.9 364.4,635.3L363.6,634.6C363.9,634.2 364.1,633.7 364,633.3C363.9,632.9 363.7,632.4 363.2,632C362.7,631.5 362.3,631.3 361.9,631.2C361.5,631.2 361.2,631.3 360.9,631.5C360.7,631.7 360.6,632 360.6,632.3C360.6,632.6 360.9,633.1 361.4,633.9C361.9,634.7 362.2,635.3 362.4,635.6C362.6,636.1 362.7,636.6 362.6,637C362.5,637.4 362.3,637.8 362,638.1C361.7,638.4 361.3,638.6 360.8,638.7C360.3,638.8 359.8,638.8 359.3,638.6C358.8,638.4 358.3,638.1 357.9,637.7C357.3,637.2 357,636.6 356.7,636.1C356.5,635.6 356.4,635 356.5,634.5C356.7,634.1 357,633.6 357.4,633.2Z" style="fill:white;fill-rule:nonzero;"/>
        <path d="M363,638.8L363.8,639.5C363.5,639.8 363.4,640.2 363.3,640.5C363.2,640.8 363.3,641.2 363.4,641.6C363.6,642 363.8,642.4 364.2,642.7C364.5,643 364.8,643.2 365.2,643.4C365.5,643.5 365.8,643.6 366.1,643.5C366.4,643.4 366.6,643.3 366.8,643.1C367,642.9 367.1,642.7 367.1,642.4C367.1,642.1 367.1,641.8 366.9,641.5C366.8,641.3 366.5,640.8 366.1,640.1C365.7,639.4 365.4,638.9 365.3,638.6C365.2,638.2 365.1,637.8 365.2,637.4C365.3,637 365.5,636.7 365.7,636.4C366,636.1 366.4,635.9 366.8,635.8C367.2,635.7 367.7,635.8 368.2,635.9C368.7,636.1 369.1,636.4 369.5,636.8C370,637.2 370.3,637.7 370.5,638.2C370.7,638.7 370.8,639.2 370.7,639.6C370.6,640.1 370.4,640.5 370,640.9L369.2,640.2C369.5,639.8 369.7,639.3 369.6,638.9C369.6,638.5 369.3,638 368.8,637.6C368.3,637.1 367.9,636.9 367.5,636.8C367.1,636.8 366.8,636.9 366.5,637.1C366.3,637.3 366.2,637.6 366.2,637.9C366.2,638.2 366.5,638.7 367,639.5C367.5,640.3 367.8,640.9 368,641.2C368.2,641.7 368.3,642.2 368.2,642.6C368.1,643 367.9,643.4 367.6,643.7C367.3,644 366.9,644.2 366.4,644.3C365.9,644.4 365.4,644.4 364.9,644.2C364.4,644 363.9,643.7 363.5,643.3C362.9,642.8 362.6,642.2 362.3,641.7C362.1,641.2 362,640.6 362.1,640.1C362.4,639.7 362.7,639.2 363,638.8Z" style="fill:white;fill-rule:nonzero;"/>
        <path d="M371.4,649.6L370.7,650.3L366.7,646.3C366.9,646.1 367.1,646 367.3,645.9C367.7,645.7 368.1,645.6 368.6,645.6L370.5,645.6C371.7,645.7 372.6,645.7 373.1,645.6C373.6,645.5 374.1,645.3 374.3,645C374.6,644.7 374.7,644.3 374.7,643.9C374.7,643.5 374.5,643.1 374.2,642.8C373.8,642.4 373.4,642.3 373,642.3C372.6,642.3 372.2,642.5 371.8,642.9L371.1,642.1C371.7,641.6 372.4,641.3 373,641.4C373.6,641.5 374.3,641.7 374.8,642.3C375.4,642.9 375.7,643.5 375.7,644.2C375.7,644.9 375.5,645.4 375,645.9C374.8,646.1 374.5,646.3 374.1,646.5C373.8,646.6 373.4,646.7 372.9,646.8C372.4,646.9 371.7,646.8 370.7,646.7C369.9,646.6 369.3,646.6 369.1,646.6C368.8,646.6 368.6,646.6 368.4,646.7L371.4,649.6Z" style="fill:white;fill-rule:nonzero;"/>
        <path d="M374.3,653.9L373.5,653.2L378.2,648.4C377.8,648.4 377.4,648.3 377,648.2C376.5,648.1 376.1,648 375.8,647.8L376.5,647.1C377.1,647.3 377.7,647.4 378.3,647.5C378.9,647.5 379.4,647.5 379.8,647.3L380.3,647.8L374.3,653.9Z" style="fill:white;fill-rule:nonzero;"/>
    </g>
    <g id="qrplace" transform="matrix(0.98869,0,0,0.98869,4.83185,4.86097)">
        <path d="M173.881,8.579L3.007,180.248L221.406,398.397L396.313,226.834L173.881,8.579Z" style="fill:rgb(235,235,235);fill-opacity:0;"/>
    </g>
    <g transform="matrix(0.98869,0,0,0.98869,4.83185,4.86097)">
        <g>
            <g>
                <path d="M365.7,453.1L345.5,473.2L386.8,514.6L377.6,523.7L336.3,482.3L316.1,502.5L307,493.3L356.6,443.8L365.7,453.1Z" style="fill:rgb(57,181,74);fill-rule:nonzero;"/>
                <path d="M377.6,524.5L336.3,483.1L316.1,503.3L306.3,493.4L306.7,493L356.7,443.2L366.5,453.1L346.3,473.2L387.6,514.6L377.6,524.5ZM336.3,481.7L377.6,523.1L386.1,514.7L344.8,473.2L365,453.1L356.6,444.6L307.7,493.4L316.1,501.9L336.3,481.7Z" style="fill:rgb(107,107,107);fill-rule:nonzero;"/>
            </g>
            <g>
                <path d="M393.1,448.7L425.3,416.6L404.7,395.9L413.9,386.8L464.3,437.4L455.1,446.5L434.5,425.8L402.3,457.9L422.9,478.6L413.7,487.7L363.3,437.1L372.5,428L393.1,448.7Z" style="fill:rgb(57,181,74);fill-rule:nonzero;"/>
                <path d="M413.8,488.4L362.6,437.1L372.5,427.3L393.1,448L424.6,416.6L404,395.9L413.9,386.1L465,437.4L455.1,447.2L434.5,426.5L403,457.9L423.6,478.6L413.8,488.4ZM364,437.1L413.7,487L422.2,478.6L401.6,457.9L434.5,425.1L455.1,445.8L463.6,437.4L413.9,387.5L405.4,395.9L426,416.6L393.1,449.4L372.5,428.7L364,437.1Z" style="fill:rgb(107,107,107);fill-rule:nonzero;"/>
            </g>
            <g>
                <path d="M533.8,368L524.6,377.2L494.6,347.1L506.9,391.9C507.2,393 507.2,394.1 506.9,395.2C506.6,396.3 506,397.2 505.2,398.1C504.4,398.9 503.5,399.5 502.4,399.8C501.3,400.1 500.2,400.1 499.1,399.8L454.3,387.5L484.3,417.6L475.1,426.7L428.7,380C427.6,378.9 427,377.7 426.8,376.2C426.6,374.8 426.9,373.4 427.6,372.1C428,371.5 428.4,371 429,370.5C429.5,370 430.1,369.7 430.7,369.4C431.3,369.1 432,369 432.7,368.9C433.4,368.8 434.1,368.9 434.8,369.1L491.9,384.6L476.6,327.5C476.3,326.1 476.4,324.7 476.9,323.4C477.5,322.1 478.4,321 479.7,320.3C481,319.6 482.3,319.3 483.8,319.5C485.3,319.7 486.5,320.3 487.6,321.4L533.8,368Z" style="fill:rgb(57,181,74);fill-rule:nonzero;"/>
                <path d="M475,427.3L474.6,426.9L428.1,380.2C427,379.1 426.3,377.7 426.1,376.2C425.9,374.7 426.2,373.2 427,371.8C427.4,371.1 427.9,370.6 428.5,370.1C429.1,369.6 429.7,369.2 430.4,368.9C431.1,368.6 431.8,368.4 432.6,368.4C433.3,368.3 434.1,368.4 434.9,368.6L491.1,383.9L476,327.6C475.6,326.1 475.7,324.6 476.4,323.1C477,321.7 478,320.5 479.4,319.7C480.8,318.9 482.2,318.7 483.8,318.9C485.4,319.1 486.7,319.8 487.9,320.9L534.8,367.9L524.8,377.8L495.8,348.7L507.6,391.7C508,392.9 507.9,394.1 507.6,395.3C507.2,396.5 506.6,397.5 505.7,398.4C504.8,399.3 503.8,399.9 502.7,400.2C501.5,400.5 500.3,400.5 499.1,400.2L456.1,388.4L485.1,417.5L475,427.3ZM433,369.4L432.6,369.4C432,369.5 431.4,369.6 430.8,369.9C430.2,370.2 429.7,370.5 429.2,370.9C428.7,371.3 428.3,371.8 427.9,372.4C427.2,373.6 427,374.8 427.2,376.2C427.4,377.5 428,378.7 428.9,379.7L475.1,426L483.6,417.6L452.6,386.5L499.3,399.3C500.3,399.6 501.3,399.6 502.3,399.3C503.3,399 504.2,398.5 504.9,397.8C505.7,397 506.2,396.1 506.5,395.1C506.8,394.1 506.8,393.1 506.5,392.1L493.7,345.5L524.7,376.6L533.2,368.1L487,321.8C486,320.8 484.9,320.2 483.5,320.1C482.2,319.9 480.9,320.2 479.7,320.8C478.5,321.5 477.6,322.5 477.1,323.7C476.6,324.9 476.5,326.2 476.8,327.5L492.3,385.4L434.4,369.7C434,369.4 433.5,369.4 433,369.4Z" style="fill:rgb(107,107,107);fill-rule:nonzero;"/>
            </g>
        </g>
    </g>
</svg>
