<?xml version="1.0" encoding="utf-8"?>
<!-- Generator: Adobe Illustrator 25.2.3, SVG Export Plug-In . SVG Version: 6.00 Build 0)  -->
<svg version="1.1" id="Ebene_1" xmlns="http://www.w3.org/2000/svg" xmlns:xlink="http://www.w3.org/1999/xlink" x="0px" y="0px"
	 viewBox="0 0 1920 1080" style="enable-background:new 0 0 1920 1080;" xml:space="preserve">
<style type="text/css">
	.st0{fill:#00FFFF;stroke:#FFFFFF;stroke-miterlimit:10;}
	.st1{fill:#6B6B6B;}
	.st2{fill:none;}
	.st3{fill:#39B54A;}
	.st4{font-family:'ArialMT';}
	.st5{font-size:102px;}
	.st6{fill:none;stroke:#7F7373;stroke-width:1;stroke-miterlimit:9.9999;}
	.st7{font-size:72px;}
	.st8{fill:#FFFFFF;}
	.st9{font-family:'MyriadPro-Regular';}
	.st10{font-size:12px;}
</style>
<g id="Ebene_1_1_" xmlns:serif="http://www.serif.com/">
	<g>
		<path class="st0" d="M933.8,336.7L718.6,120.8c-7.4-7.4-19.6-7.4-27,0L537.8,274.6c-7.4,7.4-7.4,19.6,0,27L753,516.8L933.8,336.7
			L933.8,336.7z"/>
		<path class="st0" d="M1162.5,565.4L981.7,746.2l215.2,215.2c7.4,7.4,19.6,7.4,27,0l153.8-153.8c7.4-7.4,7.4-19.6,0-27
			L1162.5,565.4z"/>
		<path class="st1" d="M1174.7,478.3l-63.4-63.4l48.6-48.6c65.4,51.9,161.2,47.9,221.3-12.8c7.4-7.4,7.4-19.6,0-27l-90.4-90.4
			l47.2-47.2l26.3,26.3c21.6-21.6,21.6-57.3,0-79.6c-22.3-21.6-57.3-21.6-79.6,0l26.3,26.3l-47.2,47.2l-91.1-91.1
			c-7.4-7.4-19.6-7.4-27,0c-60.7,60.7-64.8,155.8-12.8,221.3l-48.6,48.6l-63.4-63.4c-7.4-7.4-19.6-7.4-27,0l-253,253
			c-7.4,7.4-7.4,19.6,0,27l153.8,153.8c7.4,7.4,19.6,7.4,27,0l253-253C1182.1,497.9,1182.1,485.8,1174.7,478.3z"/>
	</g>
	
		<rect x="884" y="413.6" transform="matrix(0.7067 -0.7075 0.7075 0.7067 -50.803 911.0903)" class="st2" width="379" height="206.4"/>
	<text transform="matrix(0.7067 -0.7075 0.7075 0.7067 917.8509 629.111)" class="st3 st4 st5">THM</text>
	<text transform="matrix(0.7067 -0.7075 0.7075 0.7067 917.8509 629.111)" class="st6 st4 st5">THM</text>
	<text transform="matrix(0.7067 -0.7075 0.7075 0.7067 1058.6255 488.1769)" class="st4 st7"> </text>
</g>
<g id="Ebene_2_1_">
	
		<rect x="636.3" y="234.5" transform="matrix(0.7071 0.7071 -0.7071 0.7071 406.5971 -492.4492)" class="st0" width="322.9" height="20.1"/>
	
		<rect x="643.7" y="228.5" transform="matrix(0.7071 0.7071 -0.7071 0.7071 403.541 -499.8272)" class="st0" width="322.9" height="17.3"/>
	
		<rect x="621.8" y="249" transform="matrix(0.7071 0.7071 -0.7071 0.7071 412.5611 -477.8765)" class="st0" width="322.7" height="20.1"/>
	
		<rect x="607.6" y="263.2" transform="matrix(0.7071 0.7071 -0.7071 0.7071 418.4287 -463.6714)" class="st0" width="322.6" height="20.1"/>
	
		<rect x="594.4" y="276.4" transform="matrix(0.7071 0.7071 -0.7071 0.7071 423.8636 -450.3952)" class="st0" width="322.5" height="20.1"/>
	
		<rect x="580" y="290.7" transform="matrix(0.7071 0.7071 -0.7071 0.7071 429.7632 -436.0294)" class="st0" width="322.4" height="20.1"/>
	
		<rect x="566.5" y="304.2" transform="matrix(0.7071 0.7071 -0.7071 0.7071 435.3677 -422.499)" class="st0" width="322.4" height="20.1"/>
	
		<rect x="552.4" y="318.4" transform="matrix(0.7071 0.7071 -0.7071 0.7071 441.2172 -408.3772)" class="st0" width="322.4" height="20.1"/>
	
		<rect x="538.3" y="332.4" transform="matrix(0.7071 0.7071 -0.7071 0.7071 446.9652 -394.2542)" class="st0" width="322.1" height="20.1"/>
	
		<rect x="523.5" y="347.2" transform="matrix(0.7071 0.7071 -0.7071 0.7071 453.0809 -379.3667)" class="st0" width="322" height="20.1"/>
	
		<rect x="508.6" y="362.1" transform="matrix(0.7071 0.7071 -0.7071 0.7071 459.327 -364.5331)" class="st0" width="322.2" height="20.1"/>
	
		<rect x="494.2" y="376.5" transform="matrix(0.7071 0.7071 -0.7071 0.7071 465.2701 -350.1853)" class="st0" width="322.2" height="20.1"/>
	
		<rect x="507.5" y="211.1" transform="matrix(0.7071 -0.7071 0.7071 0.7071 31.7228 513.2213)" class="st0" width="255.8" height="14.3"/>
	
		<rect x="531.5" y="235.1" transform="matrix(0.7071 -0.7071 0.7071 0.7071 21.7817 537.2213)" class="st0" width="255.8" height="14.3"/>
	
		<rect x="559.9" y="263.6" transform="matrix(0.7071 -0.7071 0.7071 0.7071 10.0036 565.6561)" class="st0" width="255.8" height="14.3"/>
	
		<rect x="586" y="289.7" transform="matrix(0.7071 -0.7071 0.7071 0.7071 -0.8037 591.7473)" class="st0" width="255.8" height="14.3"/>
	
		<rect x="613.3" y="317" transform="matrix(0.7071 -0.7071 0.7071 0.7071 -12.1181 619.0626)" class="st0" width="255.8" height="14.3"/>
	
		<rect x="639.2" y="342.8" transform="matrix(0.7071 -0.7071 0.7071 0.7071 -22.8156 644.8887)" class="st0" width="255.8" height="14.3"/>
	
		<rect x="665" y="368.6" transform="matrix(0.7071 -0.7071 0.7071 0.7071 -33.5131 670.7148)" class="st0" width="255.8" height="14.3"/>
	
		<rect x="688.5" y="392.1" transform="matrix(0.7071 -0.7071 0.7071 0.7071 -43.2381 694.1931)" class="st0" width="255.8" height="14.3"/>
	
		<rect x="705.4" y="409.1" transform="matrix(0.7071 -0.7071 0.7071 0.7071 -50.2617 711.1496)" class="st0" width="255.8" height="14.3"/>
</g>
<g id="Ebene_2_2_">
	
		<rect x="957.6" y="827.7" transform="matrix(-0.7082 -0.706 0.706 -0.7082 1320.146 2221.1306)" class="st0" width="322.9" height="20.1"/>
	
		<rect x="950.2" y="836.5" transform="matrix(-0.7082 -0.706 0.706 -0.7082 1302.3459 2228.5542)" class="st0" width="322.9" height="17.3"/>
	
		<rect x="972.3" y="813.2" transform="matrix(-0.7082 -0.706 0.706 -0.7082 1355.3044 2206.6426)" class="st0" width="322.7" height="20.1"/>
	
		<rect x="986.5" y="799" transform="matrix(-0.7082 -0.706 0.706 -0.7082 1389.5757 2192.3894)" class="st0" width="322.6" height="20.1"/>
	
		<rect x="999.9" y="785.8" transform="matrix(-0.7082 -0.706 0.706 -0.7082 1421.6062 2179.1863)" class="st0" width="322.5" height="20.1"/>
	
		<rect x="1014.3" y="771.5" transform="matrix(-0.7082 -0.706 0.706 -0.7082 1456.2654 2164.855)" class="st0" width="322.4" height="20.1"/>
	
		<rect x="1027.8" y="757.9" transform="matrix(-0.7082 -0.706 0.706 -0.7082 1488.9088 2151.241)" class="st0" width="322.4" height="20.1"/>
	
		<rect x="1041.9" y="743.8" transform="matrix(-0.7082 -0.706 0.706 -0.7082 1522.9789 2137.0322)" class="st0" width="322.4" height="20.1"/>
	
		<rect x="1056.2" y="729.8" transform="matrix(-0.7082 -0.706 0.706 -0.7082 1557.0525 2123.0681)" class="st0" width="322.1" height="20.1"/>
	
		<rect x="1071.1" y="714.9" transform="matrix(-0.7082 -0.706 0.706 -0.7082 1592.9705 2108.2119)" class="st0" width="322" height="20.1"/>
	
		<rect x="1085.8" y="699.9" transform="matrix(-0.7082 -0.706 0.706 -0.7082 1628.7572 2093.0408)" class="st0" width="322.2" height="20.1"/>
	
		<rect x="1100.1" y="685.6" transform="matrix(-0.7082 -0.706 0.706 -0.7082 1663.3727 2078.6045)" class="st0" width="322.2" height="20.1"/>
	
		<rect x="1153.6" y="856.6" transform="matrix(-0.706 0.7082 -0.7082 -0.706 2797.8638 566.0034)" class="st0" width="255.8" height="14.3"/>
	
		<rect x="1129.5" y="832.6" transform="matrix(-0.706 0.7082 -0.7082 -0.706 2739.8843 542.1514)" class="st0" width="255.8" height="14.3"/>
	
		<rect x="1101" y="804.3" transform="matrix(-0.706 0.7082 -0.7082 -0.706 2671.1909 513.8921)" class="st0" width="255.8" height="14.3"/>
	
		<rect x="1074.9" y="778.2" transform="matrix(-0.706 0.7082 -0.7082 -0.706 2608.1594 487.9618)" class="st0" width="255.8" height="14.3"/>
	
		<rect x="1047.5" y="750.9" transform="matrix(-0.706 0.7082 -0.7082 -0.706 2542.1707 460.815)" class="st0" width="255.8" height="14.3"/>
	
		<rect x="1021.7" y="725.1" transform="matrix(-0.706 0.7082 -0.7082 -0.706 2479.7795 435.1483)" class="st0" width="255.8" height="14.3"/>
	
		<rect x="995.8" y="699.4" transform="matrix(-0.706 0.7082 -0.7082 -0.706 2417.3884 409.4815)" class="st0" width="255.8" height="14.3"/>
	
		<rect x="972.3" y="675.9" transform="matrix(-0.706 0.7082 -0.7082 -0.706 2360.6694 386.1481)" class="st0" width="255.8" height="14.3"/>
	
		<rect x="955.3" y="659" transform="matrix(-0.706 0.7082 -0.7082 -0.706 2319.7056 369.2962)" class="st0" width="255.8" height="14.3"/>
</g>
<rect x="872.3" y="716.3" transform="matrix(0.7027 -0.7115 0.7115 0.7027 -269.7987 852.6047)" class="st2" width="26.1" height="65.7"/>
<text transform="matrix(0.7115 0.7027 -0.7027 0.7115 865.091 722.8193)" class="st8 st9 st10">WuM SS21</text>
</svg>
