<?xml version="1.0" encoding="utf-8"?>
<!-- Generator: Adobe Illustrator 25.2.3, SVG Export Plug-In . SVG Version: 6.00 Build 0)  -->
<svg version="1.1" id="Ebene_1" xmlns="http://www.w3.org/2000/svg" xmlns:xlink="http://www.w3.org/1999/xlink" x="0px" y="0px"
	 viewBox="0 0 854.5 857" style="enable-background:new 0 0 854.5 857;" xml:space="preserve">
<style type="text/css">
	.st0{fill:#00FFFF;stroke:#FFFFFF;stroke-miterlimit:10;}
	.st1{fill:#6B6B6B;}
	.st2{fill:none;}
	.st3{display:none;fill:#39B54A;enable-background:new    ;}
	.st4{font-family:'ArialMT';}
	.st5{font-size:102px;}
	.st6{display:none;fill:none;stroke:#7F7373;stroke-width:1;stroke-miterlimit:9.9997;enable-background:new    ;}
	.st7{font-size:72px;}
	.st8{fill:#00FFFF;stroke:#FFFFFF;stroke-width:1;stroke-miterlimit:9.9998;}
	.st9{enable-background:new    ;}
	.st10{fill:#FFFFFF;}
	.st11{fill:#39B54A;}
</style>
<g id="Ebene_1_1_" xmlns:serif="http://www.serif.com/">
	<g>
		<path class="st0" d="M401.6,226.8L186.4,10.9c-7.4-7.4-19.6-7.4-27,0L5.6,164.7c-7.4,7.4-7.4,19.6,0,27l215.2,215.2L401.6,226.8
			L401.6,226.8z"/>
		<path class="st0" d="M630.2,455.5L449.5,636.3l215.2,215.2c7.4,7.4,19.6,7.4,27,0l153.8-153.8c7.4-7.4,7.4-19.6,0-27L630.2,455.5z
			"/>
		<path class="st1" d="M642.4,368.4L579,305l48.6-48.6c65.4,51.9,161.2,47.9,221.3-12.8c7.4-7.4,7.4-19.6,0-27l-90.4-90.4L805.7,79
			l26.3,26.3c21.6-21.6,21.6-57.3,0-79.6c-22.3-21.6-57.3-21.6-79.6,0L778.8,52l-47.2,47.2L640.5,8.1c-7.4-7.4-19.6-7.4-27,0
			c-60.7,60.7-64.8,155.8-12.8,221.3L552.1,278l-63.4-63.4c-7.4-7.4-19.6-7.4-27,0l-253,253c-7.4,7.4-7.4,19.6,0,27l153.8,153.8
			c7.4,7.4,19.6,7.4,27,0l253-253C649.8,388,649.8,375.9,642.4,368.4z"/>
	</g>
	
		<rect x="351.7" y="303.7" transform="matrix(0.7067 -0.7075 0.7075 0.7067 -129.1306 502.2538)" class="st2" width="379" height="206.4"/>
	<text transform="matrix(0.7067 -0.7075 0.7075 0.7067 385.6008 519.1979)" class="st3 st4 st5">THM</text>
	<text transform="matrix(0.7067 -0.7075 0.7075 0.7067 385.6008 519.1979)" class="st6 st4 st5">THM</text>
	<text transform="matrix(0.7067 -0.7075 0.7075 0.7067 526.3755 378.2638)" class="st4 st7"> </text>
</g>
<g id="Ebene_2_1_">
	
		<rect x="255.4" y="-26.8" transform="matrix(0.7071 -0.7071 0.7071 0.7071 -17.455 227.1688)" class="st8" width="20.1" height="322.9"/>
	
		<rect x="264.2" y="-34.2" transform="matrix(0.7071 -0.7071 0.7071 0.7071 -10.0679 230.2286)" class="st8" width="17.3" height="322.9"/>
	
		<rect x="240.8" y="-12.2" transform="matrix(0.7071 -0.7071 0.7071 0.7071 -31.9798 221.0858)" class="st8" width="20.1" height="322.7"/>
	
		<rect x="226.6" y="2" transform="matrix(0.7071 -0.7071 0.7071 0.7071 -46.132 215.1606)" class="st8" width="20.1" height="322.6"/>
	
		<rect x="213.3" y="15.3" transform="matrix(0.7071 -0.7071 0.7071 0.7071 -59.4061 209.654)" class="st8" width="20.1" height="322.5"/>
	
		<rect x="198.9" y="29.6" transform="matrix(0.7071 -0.7071 0.7071 0.7071 -73.6917 203.6291)" class="st8" width="20.1" height="322.4"/>
	
		<rect x="185.5" y="43.2" transform="matrix(0.7071 -0.7071 0.7071 0.7071 -87.2387 198.1005)" class="st8" width="20.1" height="322.4"/>
	
		<rect x="171.3" y="57.4" transform="matrix(0.7071 -0.7071 0.7071 0.7071 -101.4515 192.2377)" class="st8" width="20.1" height="322.4"/>
	
		<rect x="157.1" y="71.5" transform="matrix(0.7071 -0.7071 0.7071 0.7071 -115.4615 186.2728)" class="st8" width="20.1" height="322.1"/>
	
		<rect x="142.2" y="86.4" transform="matrix(0.7071 -0.7071 0.7071 0.7071 -130.3477 180.1062)" class="st8" width="20.1" height="322"/>
	
		<rect x="127.5" y="101.2" transform="matrix(0.7071 -0.7071 0.7071 0.7071 -145.168 174.0513)" class="st8" width="20.1" height="322.2"/>
	
		<rect x="113" y="115.5" transform="matrix(0.7071 -0.7071 0.7071 0.7071 -159.5082 168.0286)" class="st8" width="20.1" height="322.2"/>
	
		<rect x="-24.8" y="101.2" transform="matrix(0.7071 -0.7071 0.7071 0.7071 -46.4448 104.6094)" class="st8" width="255.8" height="14.3"/>
	
		<rect x="-0.8" y="125.2" transform="matrix(0.7071 -0.7071 0.7071 0.7071 -56.3859 128.6091)" class="st8" width="255.8" height="14.3"/>
	
		<rect x="27.6" y="153.7" transform="matrix(0.7071 -0.7071 0.7071 0.7071 -68.1751 157.0882)" class="st8" width="255.8" height="14.3"/>
	
		<rect x="53.7" y="179.8" transform="matrix(0.7071 -0.7071 0.7071 0.7071 -78.9839 183.193)" class="st8" width="255.8" height="14.3"/>
	
		<rect x="81" y="207.1" transform="matrix(0.7071 -0.7071 0.7071 0.7071 -90.2955 210.4836)" class="st8" width="255.8" height="14.3"/>
	
		<rect x="106.9" y="232.8" transform="matrix(0.7071 -0.7071 0.7071 0.7071 -100.9178 236.3558)" class="st8" width="255.8" height="14.3"/>
	
		<rect x="132.7" y="258.7" transform="matrix(0.7071 -0.7071 0.7071 0.7071 -111.6815 262.1109)" class="st8" width="255.8" height="14.3"/>
	
		<rect x="156.2" y="282.2" transform="matrix(0.7071 -0.7071 0.7071 0.7071 -121.4103 285.6232)" class="st8" width="255.8" height="14.3"/>
	
		<rect x="173.1" y="299.2" transform="matrix(0.7071 -0.7071 0.7071 0.7071 -128.4413 302.5899)" class="st8" width="255.8" height="14.3"/>
</g>
<g id="Ebene_2_2_">
	
		<rect x="576.7" y="566.4" transform="matrix(0.706 -0.7082 0.7082 0.706 -342.9777 629.5471)" class="st8" width="20.1" height="322.9"/>
	
		<rect x="570.8" y="573.8" transform="matrix(0.706 -0.7082 0.7082 0.706 -350.3531 626.5351)" class="st8" width="17.3" height="322.9"/>
	
		<rect x="591.3" y="552" transform="matrix(0.706 -0.7082 0.7082 0.706 -328.3979 635.6276)" class="st8" width="20.1" height="322.7"/>
	
		<rect x="605.6" y="537.9" transform="matrix(0.706 -0.7082 0.7082 0.706 -314.1973 641.5497)" class="st8" width="20.1" height="322.6"/>
	
		<rect x="618.8" y="524.6" transform="matrix(0.706 -0.7082 0.7082 0.706 -300.8439 646.997)" class="st8" width="20.1" height="322.5"/>
	
		<rect x="633.3" y="510.4" transform="matrix(0.706 -0.7082 0.7082 0.706 -286.4834 653.0414)" class="st8" width="20.1" height="322.4"/>
	
		<rect x="646.7" y="496.8" transform="matrix(0.706 -0.7082 0.7082 0.706 -272.9112 658.5602)" class="st8" width="20.1" height="322.4"/>
	
		<rect x="660.9" y="482.7" transform="matrix(0.706 -0.7082 0.7082 0.706 -258.7604 664.4453)" class="st8" width="20.1" height="322.4"/>
	
		<rect x="675" y="468.8" transform="matrix(0.706 -0.7082 0.7082 0.706 -244.6269 670.3538)" class="st8" width="20.1" height="322.1"/>
	
		<rect x="689.9" y="454" transform="matrix(0.706 -0.7082 0.7082 0.706 -229.7479 676.507)" class="st8" width="20.1" height="322"/>
	
		<rect x="704.6" y="438.9" transform="matrix(0.706 -0.7082 0.7082 0.706 -214.8108 682.5129)" class="st8" width="20.1" height="322.2"/>
	
		<rect x="719" y="424.5" transform="matrix(0.706 -0.7082 0.7082 0.706 -200.3741 688.4765)" class="st8" width="20.1" height="322.2"/>
	
		<rect x="621.2" y="746.7" transform="matrix(0.706 -0.7082 0.7082 0.706 -313.6405 752.1732)" class="st8" width="255.8" height="14.3"/>
	
		<rect x="597.3" y="722.7" transform="matrix(0.706 -0.7082 0.7082 0.706 -303.6519 728.153)" class="st8" width="255.8" height="14.3"/>
	
		<rect x="568.8" y="694.3" transform="matrix(0.706 -0.7082 0.7082 0.706 -291.9496 699.6043)" class="st8" width="255.8" height="14.3"/>
	
		<rect x="542.7" y="668.3" transform="matrix(0.706 -0.7082 0.7082 0.706 -281.2057 673.4627)" class="st8" width="255.8" height="14.3"/>
	
		<rect x="515.3" y="641" transform="matrix(0.706 -0.7082 0.7082 0.706 -269.9026 646.0892)" class="st8" width="255.8" height="14.3"/>
	
		<rect x="489.5" y="615.3" transform="matrix(0.706 -0.7082 0.7082 0.706 -259.3044 620.1991)" class="st8" width="255.8" height="14.3"/>
	
		<rect x="463.5" y="589.4" transform="matrix(0.706 -0.7082 0.7082 0.706 -248.5887 594.2256)" class="st8" width="255.8" height="14.3"/>
	
		<rect x="440" y="566" transform="matrix(0.706 -0.7082 0.7082 0.706 -238.9378 570.7036)" class="st8" width="255.8" height="14.3"/>
	
		<rect x="423.1" y="549.1" transform="matrix(0.706 -0.7082 0.7082 0.706 -231.9447 553.7233)" class="st8" width="255.8" height="14.3"/>
</g>
<rect x="340.1" y="606.4" transform="matrix(0.7027 -0.7115 0.7115 0.7027 -349.8137 441.3069)" class="st2" width="26.1" height="65.7"/>
<g class="st9">
	<path class="st10" d="M334.6,614.6l4.4-7.7l0.8,0.8l-3,4.9c-0.3,0.5-0.6,1-1,1.5c0.8-0.5,1.3-0.8,1.4-0.9l5.2-3l1,1l-2.2,4
		c-0.5,1-1.1,1.9-1.7,2.6c0.5-0.3,1-0.7,1.6-1l4.8-3l0.8,0.8l-7.7,4.5l-0.8-0.8l3.3-5.9c0.3-0.5,0.4-0.8,0.5-0.9
		c-0.3,0.2-0.6,0.4-0.9,0.5l-5.9,3.4L334.6,614.6z"/>
	<path class="st10" d="M344.3,624.1l0.6-0.7c-0.8,0.2-1.6-0.1-2.1-0.6c-0.3-0.3-0.5-0.5-0.6-0.9s-0.2-0.6-0.1-0.9
		c0-0.3,0.1-0.5,0.3-0.8c0.1-0.2,0.3-0.4,0.6-0.7l2.7-2.7l0.8,0.7l-2.4,2.5c-0.4,0.4-0.6,0.7-0.7,0.8c-0.1,0.2-0.2,0.5-0.2,0.8
		s0.2,0.5,0.4,0.7s0.5,0.4,0.8,0.5s0.6,0.1,0.9-0.1c0.3-0.1,0.6-0.4,1-0.7l2.3-2.4l0.8,0.7l-4.4,4.4L344.3,624.1z"/>
	<path class="st10" d="M346.2,626l6-6.1l1.2,1.2l-2.8,5.8c-0.3,0.5-0.5,0.9-0.6,1.2c0.3-0.2,0.7-0.4,1.3-0.7l5.7-2.8l1.1,1.1l-6,6.1
		l-0.8-0.8l5.1-5.1l-6.8,3.4l-0.7-0.7l3.4-6.9l-5.1,5.2L346.2,626z"/>
	<path class="st10" d="M357.4,633.2l0.8,0.7c-0.3,0.3-0.4,0.7-0.5,1s0,0.7,0.1,1.1c0.2,0.4,0.4,0.8,0.8,1.1c0.3,0.3,0.6,0.5,1,0.7
		c0.3,0.1,0.6,0.2,0.9,0.1c0.3,0,0.5-0.2,0.7-0.4s0.3-0.4,0.3-0.7s0-0.6-0.2-0.9c-0.1-0.2-0.4-0.7-0.8-1.4c-0.4-0.7-0.7-1.2-0.8-1.5
		c-0.1-0.4-0.2-0.8-0.1-1.2s0.3-0.7,0.5-1c0.3-0.3,0.7-0.5,1.1-0.6s0.9,0,1.4,0.1c0.5,0.2,0.9,0.5,1.3,0.9c0.5,0.4,0.8,0.9,1,1.4
		s0.3,1,0.2,1.4s-0.3,0.9-0.7,1.3l-0.8-0.7c0.3-0.4,0.5-0.9,0.4-1.3s-0.3-0.9-0.8-1.3c-0.5-0.5-0.9-0.7-1.3-0.8
		c-0.4,0-0.7,0.1-1,0.3c-0.2,0.2-0.3,0.5-0.3,0.8s0.3,0.8,0.8,1.6s0.8,1.4,1,1.7c0.2,0.5,0.3,1,0.2,1.4s-0.3,0.8-0.6,1.1
		s-0.7,0.5-1.2,0.6s-1,0.1-1.5-0.1c-0.5-0.2-1-0.5-1.4-0.9c-0.6-0.5-0.9-1.1-1.2-1.6c-0.2-0.5-0.3-1.1-0.2-1.6
		C356.7,634.1,357,633.6,357.4,633.2z"/>
	<path class="st10" d="M363,638.8l0.8,0.7c-0.3,0.3-0.4,0.7-0.5,1s0,0.7,0.1,1.1c0.2,0.4,0.4,0.8,0.8,1.1c0.3,0.3,0.6,0.5,1,0.7
		c0.3,0.1,0.6,0.2,0.9,0.1s0.5-0.2,0.7-0.4s0.3-0.4,0.3-0.7s0-0.6-0.2-0.9c-0.1-0.2-0.4-0.7-0.8-1.4c-0.4-0.7-0.7-1.2-0.8-1.5
		c-0.1-0.4-0.2-0.8-0.1-1.2c0.1-0.4,0.3-0.7,0.5-1c0.3-0.3,0.7-0.5,1.1-0.6s0.9,0,1.4,0.1c0.5,0.2,0.9,0.5,1.3,0.9
		c0.5,0.4,0.8,0.9,1,1.4s0.3,1,0.2,1.4c-0.1,0.5-0.3,0.9-0.7,1.3l-0.8-0.7c0.3-0.4,0.5-0.9,0.4-1.3c0-0.4-0.3-0.9-0.8-1.3
		c-0.5-0.5-0.9-0.7-1.3-0.8c-0.4,0-0.7,0.1-1,0.3c-0.2,0.2-0.3,0.5-0.3,0.8s0.3,0.8,0.8,1.6s0.8,1.4,1,1.7c0.2,0.5,0.3,1,0.2,1.4
		s-0.3,0.8-0.6,1.1s-0.7,0.5-1.2,0.6s-1,0.1-1.5-0.1c-0.5-0.2-1-0.5-1.4-0.9c-0.6-0.5-0.9-1.1-1.2-1.6c-0.2-0.5-0.3-1.1-0.2-1.6
		C362.4,639.7,362.7,639.2,363,638.8z"/>
	<path class="st10" d="M371.4,649.6l-0.7,0.7l-4-4c0.2-0.2,0.4-0.3,0.6-0.4c0.4-0.2,0.8-0.3,1.3-0.3s1.1,0,1.9,0
		c1.2,0.1,2.1,0.1,2.6,0s1-0.3,1.2-0.6c0.3-0.3,0.4-0.7,0.4-1.1c0-0.4-0.2-0.8-0.5-1.1c-0.4-0.4-0.8-0.5-1.2-0.5s-0.8,0.2-1.2,0.6
		l-0.7-0.8c0.6-0.5,1.3-0.8,1.9-0.7s1.3,0.3,1.8,0.9c0.6,0.6,0.9,1.2,0.9,1.9s-0.2,1.2-0.7,1.7c-0.2,0.2-0.5,0.4-0.9,0.6
		c-0.3,0.1-0.7,0.2-1.2,0.3s-1.2,0-2.2-0.1c-0.8-0.1-1.4-0.1-1.6-0.1c-0.3,0-0.5,0-0.7,0.1L371.4,649.6z"/>
	<path class="st10" d="M374.3,653.9l-0.8-0.7l4.7-4.8c-0.4,0-0.8-0.1-1.2-0.2c-0.5-0.1-0.9-0.2-1.2-0.4l0.7-0.7
		c0.6,0.2,1.2,0.3,1.8,0.4c0.6,0,1.1,0,1.5-0.2l0.5,0.5L374.3,653.9z"/>
</g>
<g>
	<g>
		<g>
			<path class="st11" d="M365.7,453.1l-20.2,20.1l41.3,41.4l-9.2,9.1l-41.3-41.4l-20.2,20.2l-9.1-9.2l49.6-49.5L365.7,453.1z"/>
			<path class="st1" d="M377.6,524.5l-41.3-41.4l-20.2,20.2l-9.8-9.9l0.4-0.4l50-49.8l9.8,9.9l-20.2,20.1l41.3,41.4L377.6,524.5z
				 M336.3,481.7l41.3,41.4l8.5-8.4l-41.3-41.5l20.2-20.1l-8.4-8.5l-48.9,48.8l8.4,8.5L336.3,481.7z"/>
		</g>
		<g>
			<path class="st11" d="M393.1,448.7l32.2-32.1l-20.6-20.7l9.2-9.1l50.4,50.6l-9.2,9.1l-20.6-20.7l-32.2,32.1l20.6,20.7l-9.2,9.1
				l-50.4-50.6l9.2-9.1L393.1,448.7z"/>
			<path class="st1" d="M413.8,488.4l-51.2-51.3l9.9-9.8l20.6,20.7l31.5-31.4L404,395.9l9.9-9.8l51.1,51.3l-9.9,9.8l-20.6-20.7
				L403,457.9l20.6,20.7L413.8,488.4z M364,437.1l49.7,49.9l8.5-8.4l-20.6-20.7l32.9-32.8l20.6,20.7l8.5-8.4l-49.7-49.9l-8.5,8.4
				l20.6,20.7l-32.9,32.8l-20.6-20.7L364,437.1z"/>
		</g>
		<g>
			<path class="st11" d="M533.8,368l-9.2,9.2l-30-30.1l12.3,44.8c0.3,1.1,0.3,2.2,0,3.3c-0.3,1.1-0.9,2-1.7,2.9
				c-0.8,0.8-1.7,1.4-2.8,1.7c-1.1,0.3-2.2,0.3-3.3,0l-44.8-12.3l30,30.1l-9.2,9.1L428.7,380c-1.1-1.1-1.7-2.3-1.9-3.8
				c-0.2-1.4,0.1-2.8,0.8-4.1c0.4-0.6,0.8-1.1,1.4-1.6c0.5-0.5,1.1-0.8,1.7-1.1s1.3-0.4,2-0.5s1.4,0,2.1,0.2l57.1,15.5l-15.3-57.1
				c-0.3-1.4-0.2-2.8,0.3-4.1c0.6-1.3,1.5-2.4,2.8-3.1s2.6-1,4.1-0.8s2.7,0.8,3.8,1.9L533.8,368z"/>
			<path class="st1" d="M475,427.3l-0.4-0.4l-46.5-46.7c-1.1-1.1-1.8-2.5-2-4s0.1-3,0.9-4.4c0.4-0.7,0.9-1.2,1.5-1.7
				s1.2-0.9,1.9-1.2c0.7-0.3,1.4-0.5,2.2-0.5c0.7-0.1,1.5,0,2.3,0.2l56.2,15.3L476,327.6c-0.4-1.5-0.3-3,0.4-4.5
				c0.6-1.4,1.6-2.6,3-3.4s2.8-1,4.4-0.8c1.6,0.2,2.9,0.9,4.1,2l46.9,47l-10,9.9l-29-29.1l11.8,43c0.4,1.2,0.3,2.4,0,3.6
				c-0.4,1.2-1,2.2-1.9,3.1s-1.9,1.5-3,1.8c-1.2,0.3-2.4,0.3-3.6,0l-43-11.8l29,29.1L475,427.3z M433,369.4c-0.1,0-0.3,0-0.4,0
				c-0.6,0.1-1.2,0.2-1.8,0.5s-1.1,0.6-1.6,1s-0.9,0.9-1.3,1.5c-0.7,1.2-0.9,2.4-0.7,3.8c0.2,1.3,0.8,2.5,1.7,3.5l46.2,46.3l8.5-8.4
				l-31-31.1l46.7,12.8c1,0.3,2,0.3,3,0s1.9-0.8,2.6-1.5c0.8-0.8,1.3-1.7,1.6-2.7c0.3-1,0.3-2,0-3l-12.8-46.6l31,31.1l8.5-8.5
				l-46.2-46.3c-1-1-2.1-1.6-3.5-1.7c-1.3-0.2-2.6,0.1-3.8,0.7c-1.2,0.7-2.1,1.7-2.6,2.9c-0.5,1.2-0.6,2.5-0.3,3.8l15.5,57.9
				l-57.9-15.7C434,369.4,433.5,369.4,433,369.4z"/>
		</g>
	</g>
</g>
</svg>
