<svg id="Ebene_1" data-name="Ebene 1" xmlns="http://www.w3.org/2000/svg" viewBox="0 0 676 676">
<defs><style>.cls-1{opacity:0.38;}</style></defs>
<g id="Planet_1" data-name="Planet 1">
<path class="cls-1" d="M1900.11,372.76a337,337,0,0,0-62.33-111.5q-3.62-4.31-7.39-8.5a338.63,338.63,0,0,0-303.38-108c56.12,9.83,107.07,37.39,148.25,77.52a320.28,320.28,0,0,1,27.52,30.5q3.32,4.19,6.52,8.5a351.71,351.71,0,0,1,55,111.5,383.5,383.5,0,0,1,2,205,357.82,357.82,0,0,1-35.58,86,337.8,337.8,0,0,1-23.58,35.5,321.53,321.53,0,0,1-23.86,28c-42.48,44.45-96.41,75-156.19,85.51a341.1,341.1,0,0,0,52.07,4,338.24,338.24,0,0,0,321-444Z" transform="rotate(-90 338 338) translate(-1240, -140.76)"/></g></svg>