<svg id="Ebene_1" data-name="Ebene 1" xmlns="http://www.w3.org/2000/svg" viewBox="0 0 255 255"><defs><style>.cls-1,.cls-2{fill:#cecece;}.cls-1{opacity:0.21;}.cls-2{opacity:0.15;}.cls-3{fill:#e0ddd5;opacity:0.16;}.cls-4{fill:#ffcb17;}.cls-5{fill:#ffcb4a;}.cls-6{fill:#ffc431;}</style></defs><g id="Sonne"><circle class="cls-1" cx="127.5" cy="127.5" r="127.5"/><circle class="cls-2" cx="127.5" cy="127.5" r="118.04"/><circle class="cls-3" cx="127.3" cy="127.3" r="108.78"/><path class="cls-4" d="M1048.71,468.9a99.81,99.81,0,0,1-27.45,64.49,100.52,100.52,0,0,1-12.49,11.09,99.91,99.91,0,1,1-62.33-179.86C1001.72,366,1046.42,411.75,1048.71,468.9Z" transform="translate(-821 -337)"/><path class="cls-5" d="M1048.71,468.9a99.86,99.86,0,0,1-39.94,75.58l-4-4a10.73,10.73,0,0,1-3.24-7.54,8.1,8.1,0,0,1,2.08-5.57c3.18-3.44,2.66-9.31-1.16-13.12l-2.87-2.87c-3.82-3.8-9.49-4.1-12.67-.67l-10.55,11.42c-3.18,3.44-8.85,3.14-12.66-.67l-2.88-2.87c-3.82-3.8-9.49-4.1-12.67-.66l-10.07,10.89c-3.18,3.44-8.85,3.14-12.66-.67l-2.88-2.87c-3.82-3.8-4.33-9.67-1.16-13.11l19.66-21.27c3.18-3.44,2.66-9.31-1.16-13.12L937,475c-3.81-3.81-4.33-9.67-1.15-13.11l4.56-4.93c3.17-3.44,2.65-9.31-1.16-13.12l-2.16-2.15c-3.82-3.81-9.49-4.11-12.67-.67L897.6,470c-3.18,3.43-8.85,3.13-12.67-.67l-2.88-2.88c-3.81-3.8-4.33-9.67-1.15-13.11L903,429.51c3.18-3.44,2.67-9.31-1.15-13.12l-2.88-2.87c-3.82-3.8-9.49-4.1-12.67-.67l-3.11,3.38c-3.18,3.43-8.85,3.14-12.67-.67l-2.88-2.87a11.51,11.51,0,0,1-2.19-3.08,100.09,100.09,0,0,1,81-45C1001.72,366,1046.42,411.75,1048.71,468.9Z" transform="translate(-821 -337)"/><path class="cls-6" d="M1048.71,468.9a99.39,99.39,0,0,1-14.58,47.74l-3.71-3.71a10.73,10.73,0,0,1-3.24-7.54,8.12,8.12,0,0,1,2.08-5.57c3.18-3.44,2.66-9.31-1.16-13.11l-2.88-2.88c-3.81-3.8-9.48-4.1-12.66-.66L1002,494.58c-3.18,3.44-8.85,3.14-12.67-.67L986.47,491c-3.82-3.8-9.49-4.1-12.67-.66l-10.07,10.89c-3.18,3.44-8.85,3.14-12.66-.67l-2.88-2.87c-3.82-3.8-4.34-9.67-1.16-13.11l19.66-21.27c3.18-3.44,2.66-9.31-1.16-13.12l-2.88-2.87c-3.81-3.8-4.33-9.67-1.15-13.11l4.55-4.93c3.18-3.44,2.66-9.31-1.15-13.12l-2.16-2.15c-3.82-3.81-9.49-4.11-12.67-.67l-26.85,29.06c-3.18,3.43-8.85,3.13-12.67-.67l-2.88-2.88c-3.81-3.8-4.33-9.67-1.15-13.11l22.05-23.86c3.18-3.44,2.66-9.31-1.16-13.12l-2.87-2.87c-3.82-3.8-9.49-4.1-12.67-.67l-3.11,3.38c-3.18,3.44-8.85,3.14-12.67-.67l-2.88-2.87a11.31,11.31,0,0,1-1.79-2.33,99.32,99.32,0,0,1,55-18.15C1001.72,366,1046.42,411.75,1048.71,468.9Z" transform="translate(-821 -337)"/></g></svg>