<svg id="thmcar" xmlns="http://www.w3.org/2000/svg" viewBox="0 0 604.204 345.947">
  <defs>
    <style>
      .cls-1 {
        fill: #1a1a1a;
      }

      .cls-2 {
        fill: lime;
      }

      .cls-3, .cls-4 {
        fill: #4d4d4d;
      }

      .cls-4 {
        stroke: #1a1a1a;
      }

      .cls-4, .cls-6 {
        stroke-miterlimit: 10;
      }

      .cls-5 {
        fill: aqua;
      }

      .cls-6 {
        fill: none;
        stroke: #333;
      }

      .cls-7 {
        fill: #ff0;
      }

      .cls-8 {
        fill: gray;
      }
    </style>
  </defs>
  <rect x="426.217" y="0.627" width="40.889" height="276.337"/>
  <g>
    <polygon class="cls-1" points="451.138 1.515 451.138 285.494 0.946 285.687 0.946 1.515 451.138 1.515"/>
    <path d="M470.8,696.128V410.18H922.88V695.935h-.946Zm1.891-284.172v282.4l448.3-.193v-282.2Z" transform="translate(-470.796 -409.553)"/>
  </g>
  <g>
    <path class="cls-2" d="M580.661,499.5H549.6V486.767h75.609V499.5H594V602.7H580.661Z" transform="translate(-470.796 -409.553)"/>
    <path class="cls-2" d="M649.756,486.767v48.5H699.15v-48.5h13.334V602.7H699.15V548.343H649.756V602.7H636.574V486.767Z" transform="translate(-470.796 -409.553)"/>
    <path class="cls-2" d="M821.428,551.783c-.759-16.167-1.667-35.6-1.516-50.052h-.455c-3.485,13.588-7.726,28.036-12.878,44.032l-18.031,56.245h-10L762.032,546.8c-4.849-16.34-8.939-31.305-11.818-45.065h-.3c-.3,14.448-1.061,33.885-1.97,51.256L745.214,602.7H732.639l7.121-115.929h16.818L774,542.839c4.242,14.276,7.726,27,10.3,39.044h.455c2.576-11.7,6.213-24.423,10.758-39.044L813.7,486.767h16.818L836.882,602.7H824Z" transform="translate(-470.796 -409.553)"/>
  </g>
  <polygon class="cls-3" points="466.515 275.814 603.995 275.814 603.995 150.444 541.668 111.161 512.805 31.865 464.624 0 466.515 275.814"/>
  <ellipse class="cls-4" cx="64.831" cy="297.989" rx="47.503" ry="47.458"/>
  <ellipse class="cls-4" cx="396.753" cy="297.989" rx="47.503" ry="47.458"/>
  <polygon class="cls-5" points="464.624 0 493.563 111.161 541.668 111.161 512.805 31.865 464.624 0"/>
  <rect class="cls-6" x="569.328" y="242.121" width="33.673" height="7.209"/>
  <rect class="cls-6" x="569.328" y="251.733" width="33.673" height="7.209"/>
  <rect class="cls-6" x="569.328" y="232.509" width="33.673" height="7.209"/>
  <path class="cls-7" d="M1045.391,584.806v18.27a14.935,14.935,0,0,0,5.077,11.219h0a14.963,14.963,0,0,0,6.637,3.37L1075,621.638l-.209-35.209L1059.7,576.92A9.333,9.333,0,0,0,1045.391,584.806Z" transform="translate(-470.796 -409.553)"/>
  <g>
    <ellipse class="cls-8" cx="43.785" cy="267.352" rx="4.81" ry="4.806"/>
    <path d="M514.581,673.3a3.6,3.6,0,1,1-3.608,3.6,3.61,3.61,0,0,1,3.608-3.6m0-1.2a4.806,4.806,0,1,0,4.81,4.806,4.808,4.808,0,0,0-4.81-4.806Z" transform="translate(-470.796 -409.553)"/>
  </g>
  <g>
    <ellipse class="cls-8" cx="84.674" cy="267.352" rx="4.81" ry="4.806"/>
    <path d="M555.47,673.3a3.6,3.6,0,1,1-3.608,3.6,3.61,3.61,0,0,1,3.608-3.6m0-1.2a4.806,4.806,0,1,0,4.81,4.806,4.809,4.809,0,0,0-4.81-4.806Z" transform="translate(-470.796 -409.553)"/>
  </g>
  <g>
    <ellipse class="cls-8" cx="43.785" cy="332.231" rx="4.81" ry="4.806"/>
    <path d="M514.581,738.18a3.6,3.6,0,1,1-3.608,3.6,3.61,3.61,0,0,1,3.608-3.6m0-1.2a4.806,4.806,0,1,0,4.81,4.806,4.808,4.808,0,0,0-4.81-4.806Z" transform="translate(-470.796 -409.553)"/>
  </g>
  <g>
    <ellipse class="cls-8" cx="84.674" cy="332.231" rx="4.81" ry="4.806"/>
    <path d="M555.47,738.18a3.6,3.6,0,1,1-3.608,3.6,3.61,3.61,0,0,1,3.608-3.6m0-1.2a4.806,4.806,0,1,0,4.81,4.806,4.809,4.809,0,0,0-4.81-4.806Z" transform="translate(-470.796 -409.553)"/>
  </g>
  <g>
    <ellipse class="cls-8" cx="101.511" cy="284.172" rx="4.81" ry="4.806"/>
    <path d="M572.307,690.121a3.6,3.6,0,1,1-3.608,3.6,3.61,3.61,0,0,1,3.608-3.6m0-1.2a4.806,4.806,0,1,0,4.81,4.805,4.808,4.808,0,0,0-4.81-4.805Z" transform="translate(-470.796 -409.553)"/>
  </g>
  <g>
    <ellipse class="cls-8" cx="101.511" cy="313.007" rx="4.81" ry="4.806"/>
    <path d="M572.307,718.956a3.6,3.6,0,1,1-3.608,3.6,3.61,3.61,0,0,1,3.608-3.6m0-1.2a4.806,4.806,0,1,0,4.81,4.8,4.808,4.808,0,0,0-4.81-4.8Z" transform="translate(-470.796 -409.553)"/>
  </g>
  <g>
    <ellipse class="cls-8" cx="29.354" cy="284.172" rx="4.81" ry="4.806"/>
    <path d="M500.15,690.121a3.6,3.6,0,1,1-3.608,3.6,3.61,3.61,0,0,1,3.608-3.6m0-1.2a4.806,4.806,0,1,0,4.81,4.805,4.808,4.808,0,0,0-4.81-4.805Z" transform="translate(-470.796 -409.553)"/>
  </g>
  <g>
    <ellipse class="cls-8" cx="29.354" cy="313.007" rx="4.81" ry="4.806"/>
    <path d="M500.15,718.956a3.6,3.6,0,1,1-3.608,3.6,3.61,3.61,0,0,1,3.608-3.6m0-1.2a4.806,4.806,0,1,0,4.81,4.8,4.808,4.808,0,0,0-4.81-4.8Z" transform="translate(-470.796 -409.553)"/>
  </g>
  <g>
    <ellipse class="cls-8" cx="375.707" cy="264.949" rx="4.81" ry="4.806"/>
    <path d="M846.5,670.9a3.6,3.6,0,1,1-3.608,3.6,3.61,3.61,0,0,1,3.608-3.6m0-1.2a4.806,4.806,0,1,0,4.81,4.806,4.808,4.808,0,0,0-4.81-4.806Z" transform="translate(-470.796 -409.553)"/>
  </g>
  <g>
    <ellipse class="cls-8" cx="416.596" cy="264.949" rx="4.81" ry="4.806"/>
    <path d="M887.392,670.9a3.6,3.6,0,1,1-3.608,3.6,3.61,3.61,0,0,1,3.608-3.6m0-1.2a4.806,4.806,0,1,0,4.81,4.806,4.809,4.809,0,0,0-4.81-4.806Z" transform="translate(-470.796 -409.553)"/>
  </g>
  <g>
    <ellipse class="cls-8" cx="375.707" cy="329.828" rx="4.81" ry="4.806"/>
    <path d="M846.5,735.777a3.6,3.6,0,1,1-3.608,3.6,3.61,3.61,0,0,1,3.608-3.6m0-1.2a4.806,4.806,0,1,0,4.81,4.806,4.808,4.808,0,0,0-4.81-4.806Z" transform="translate(-470.796 -409.553)"/>
  </g>
  <g>
    <ellipse class="cls-8" cx="416.596" cy="329.828" rx="4.81" ry="4.806"/>
    <path d="M887.392,735.777a3.6,3.6,0,1,1-3.608,3.6,3.61,3.61,0,0,1,3.608-3.6m0-1.2a4.806,4.806,0,1,0,4.81,4.806,4.809,4.809,0,0,0-4.81-4.806Z" transform="translate(-470.796 -409.553)"/>
  </g>
  <g>
    <ellipse class="cls-8" cx="433.433" cy="281.769" rx="4.81" ry="4.806"/>
    <path d="M904.229,687.718a3.6,3.6,0,1,1-3.608,3.6,3.61,3.61,0,0,1,3.608-3.6m0-1.2a4.806,4.806,0,1,0,4.81,4.8,4.808,4.808,0,0,0-4.81-4.8Z" transform="translate(-470.796 -409.553)"/>
  </g>
  <g>
    <ellipse class="cls-8" cx="433.433" cy="310.604" rx="4.81" ry="4.806"/>
    <path d="M904.229,716.553a3.6,3.6,0,1,1-3.608,3.605,3.61,3.61,0,0,1,3.608-3.605m0-1.2a4.806,4.806,0,1,0,4.81,4.806,4.808,4.808,0,0,0-4.81-4.806Z" transform="translate(-470.796 -409.553)"/>
  </g>
  <g>
    <ellipse class="cls-8" cx="361.276" cy="281.769" rx="4.81" ry="4.806"/>
    <path d="M832.072,687.718a3.6,3.6,0,1,1-3.608,3.6,3.61,3.61,0,0,1,3.608-3.6m0-1.2a4.806,4.806,0,1,0,4.81,4.8,4.808,4.808,0,0,0-4.81-4.8Z" transform="translate(-470.796 -409.553)"/>
  </g>
  <g>
    <ellipse class="cls-8" cx="361.276" cy="310.604" rx="4.81" ry="4.806"/>
    <path d="M832.072,716.553a3.6,3.6,0,1,1-3.608,3.605,3.61,3.61,0,0,1,3.608-3.605m0-1.2a4.806,4.806,0,1,0,4.81,4.806,4.808,4.808,0,0,0-4.81-4.806Z" transform="translate(-470.796 -409.553)"/>
  </g>
</svg>
