<svg id="Ebene_1" data-name="Ebene 1" xmlns="http://www.w3.org/2000/svg" viewBox="0 0 1000 1000">
  <defs>
    <style>
      .cls-1 {
        opacity: 0.78;
      }

      .cls-2 {
        fill: #7face2;
      }

      .cls-3 {
        fill: #b738bf;
      }

      .cls-4 {
        fill: #8626d1;
      }
    </style>
  </defs>
  <g id="Ebene_1-2" data-name="Ebene 1" class="cls-1">
    <g id="Background">
      <g id="BG">
        <path class="cls-2" d="M500,999.5C224.056,999.307.516,775.455.709,499.511A499.64,499.64,0,0,1,305.57,39.75C559.759-67.631,852.87,51.381,960.25,305.57s-11.631,547.3-265.82,654.68A496.5,496.5,0,0,1,500,999.5Z"/>
        <path d="M500,1c275.662.168,498.994,223.772,498.826,499.434A499.131,499.131,0,0,1,694.23,959.79C440.3,1067.06,147.48,948.165,40.21,694.23S51.835,147.48,305.77,40.21A495.883,495.883,0,0,1,500,1m0-1C223.86,0,0,223.88,0,500s223.86,500,500,500,500-223.86,500-500S776.14,0,500,0Z"/>
      </g>
    </g>
    <g id="Spirals">
      <g id="Circle1">
        <path class="cls-3" d="M127.32,475.44A73,73,0,0,1,7.99,410.57c-25.4,140.91,9.59,291.64,108.68,410h0l.31.39a73,73,0,0,0,111.85-93.85h0c-.32-.37-.65-.72-1-1.09v-.11a353,353,0,0,1-74.94-294.77l-.26-1A72.73,72.73,0,0,1,127.32,475.44Z"/>
        <path class="cls-2" d="M198.59,720.55a73,73,0,0,1-133.13,27c71.12,124.33,194.86,217.27,346.78,244.22h0l.49.1a73,73,0,0,0,25.35-143.79l-1.44-.21-.09-.07c-108.98-19.75-197.23-87.52-246.89-177.64l-.85-.61A72.668,72.668,0,0,1,198.59,720.55Z"/>
        <path class="cls-4" d="M410.87,862.69a73,73,0,0,1-84.61,106.28c134.36,49.48,288.88,41.19,422.61-35.84h0l.45-.25a73,73,0,0,0-73-126.44h0c-.43.25-.83.51-1.25.76h-.11a353,353,0,0,1-303.31,22.68l-1.05.08A72.729,72.729,0,0,1,410.87,862.69Z"/>
        <path class="cls-3" d="M664.71,834.95a73,73,0,0,1,3.5,135.81C802.94,922.3,915.97,816.62,968.9,671.65h0c.06-.15.13-.3.19-.46a73,73,0,0,0-137.2-49.94c-.17.46-.3.93-.46,1.39l-.08.08A353,353,0,0,1,613.53,834.99l-.75.73A72.784,72.784,0,0,1,664.71,834.95Z"/>
        <path class="cls-2" d="M841.32,650.54a73,73,0,0,1,90,101.78c72-123.72,90.71-277.33,38.06-422.44h0a1.446,1.446,0,0,0-.16-.47,73.007,73.007,0,0,0-137.2,49.96c.17.46.36.91.53,1.36v.15c37.4,104.25,22.85,214.61-30.39,302.63l-.1,1A72.718,72.718,0,0,1,841.32,650.54Z"/>
        <path class="cls-4" d="M858.24,395.88a73,73,0,0,1,134.34,20.14C968.25,274.96,883.82,145.29,750.23,67.99h0c-.15-.09-.28-.18-.43-.26a73,73,0,1,0-73,126.44l1.29.7.06.09A353,353,0,0,1,849.39,446.33l.59.86A72.712,72.712,0,0,1,858.24,395.88Z"/>
        <path class="cls-3" d="M707.37,189.88a73,73,0,0,1,115.86-71C713.9,26.45,565.87-18.61,413.85,8.04h0l-.5.07a73,73,0,1,0,23.638,144.074h0q.863-.143,1.722-.3c.48-.08.95-.19,1.43-.29h.1a353,353,0,0,1,292.75,82.48l1,.29A72.762,72.762,0,0,1,707.37,189.88Z"/>
        <path class="cls-2" d="M459.48,129.1A73,73,0,0,1,502.64.29C359.46-.25,217.1,60.38,117.78,178.51h0c-.1.13-.22.25-.33.38a73.012,73.012,0,1,0,111.524,94.262q.174-.205.346-.412c.31-.37.6-.76.91-1.14h.1c71.58-84.51,174.43-127.09,277.27-125l1-.43A72.718,72.718,0,0,1,459.48,129.1Z"/>
        <path class="cls-4" d="M230.32,241.88a73,73,0,0,1-49.74-126.41A499.476,499.476,0,0,0,7.63,414.26a73,73,0,0,0,145,15.83l.26,1a355.51,355.51,0,0,0-6.71,73c.08-1.39.13-2.79.13-4.21v-1.56a353,353,0,0,1,132.06-274l.46-.94A72.73,72.73,0,0,1,230.32,241.88Z"/>
      </g>
      <g id="Circle2">
        <path class="cls-3" d="M267.52,625.34a51.59,51.59,0,0,1-95.82,6.08A352.622,352.622,0,0,0,390.92,835.88h0l.33.12a51.594,51.594,0,0,0,31.991-98.1l-.361-.116h0l-1-.29h-.06A249.48,249.48,0,0,1,266.12,589.3l-.54-.51A51.4,51.4,0,0,1,267.52,625.34Z"/>
        <path class="cls-2" d="M402.32,745.2a51.58,51.58,0,0,1-69.49,66.24,352.58,352.58,0,0,0,299.32,15.69h0l.33-.12a51.59,51.59,0,0,0-37.7-96.045q-.308.12-.613.245t-.595.242l-.94.41h-.08a249.46,249.46,0,0,1-214.52-13.43h-.74A51.451,51.451,0,0,1,402.32,745.2Z"/>
        <path class="cls-4" d="M582.8,750.42a51.58,51.58,0,0,1-10.65,95.46A352.67,352.67,0,0,0,811.53,665.44h0a3,3,0,0,0,.17-.31,51.59,51.59,0,1,0-91.23-48.2c-.16.31-.3.62-.46.93h-.06a249.455,249.455,0,0,1-173,127.61l-.59.44A51.278,51.278,0,0,1,582.8,750.42Z"/>
        <path class="cls-3" d="M724.25,638.36a51.57,51.57,0,0,1,53.16,79.93,352.619,352.619,0,0,0,67.43-292h0l-.06-.35a51.591,51.591,0,0,0-100.87,21.72c.07.34.16.67.24,1v.07a249.449,249.449,0,0,1-50.48,208.93l-.17.72A51.375,51.375,0,0,1,724.25,638.36Z"/>
        <path class="cls-2" d="M760.57,461.59a51.58,51.58,0,0,1,92.11,27.06A352.642,352.642,0,0,0,716.6,221.59h0l-.28-.22a51.6,51.6,0,1,0-63.3,81.51h0c.27.22.55.41.83.62v.07a249.478,249.478,0,0,1,95.63,192.5l.33.66A51.4,51.4,0,0,1,760.57,461.59Z"/>
        <path class="cls-4" d="M674.93,302.88a51.58,51.58,0,0,1,87.95-38.48,352.571,352.571,0,0,0-275.9-117.12h-.36a51.591,51.591,0,0,0,3.88,103.11c.34,0,.68-.05,1-.07h.07a249.45,249.45,0,0,1,197,86l.68.3A51.358,51.358,0,0,1,674.93,302.88Z"/>
        <path class="cls-3" d="M507.15,236.31a51.58,51.58,0,0,1,42.65-86,352.589,352.589,0,0,0-286.64,87.63h0l-.26.24a51.59,51.59,0,1,0,68.423,77.23q.413-.366.817-.74c.26-.23.5-.48.75-.71h.07a249.441,249.441,0,0,1,206.18-60.78l.71-.21A51.411,51.411,0,0,1,507.15,236.31Z"/>
        <path class="cls-2" d="M335.99,293.2a51.58,51.58,0,0,1-22.62-93.32,352.612,352.612,0,0,0-163.25,251.4h0l-.06.35a51.613,51.613,0,0,0,102.26,14.09h0a7.646,7.646,0,0,1,.11-1v-.06a249.492,249.492,0,0,1,118.89-179.1l.41-.62A51.38,51.38,0,0,1,335.99,293.2Z"/>
        <path class="cls-4" d="M241.32,446.88a51.58,51.58,0,0,1-77.3-56.94,353,353,0,0,0,8.89,243.83,51.58,51.58,0,0,0,92.71-45.07l.54.51a251.315,251.315,0,0,0,23.44,46.2c-.48-.87-1-1.73-1.51-2.57-.18-.3-.38-.58-.57-.86v-.1a249.48,249.48,0,0,1-24-213.6l-.08-.73A51.426,51.426,0,0,1,241.32,446.88Z"/>
      </g>
      <g id="Circle3">
        <path class="cls-3" d="M410.12,666.25a37.12,37.12,0,0,1-54.89,41.63,252,252,0,0,0,211.35,34.23h0l.24-.07a37.06,37.06,0,0,0,25.73-45.46,36.6,36.6,0,0,0-45.136-25.335h0l-.264.075c-.24.06-.48.14-.71.22h-.06a178.27,178.27,0,0,1-151.29-26.09l-.52-.09A36.2,36.2,0,0,1,410.12,666.25Z"/>
        <path class="cls-2" d="M537.8,683.88a36.56,36.56,0,0,1,9.662,50.793h0l-.142.207a37.151,37.151,0,0,1-25,15.73A254.933,254.933,0,0,0,707.38,641.28h0l.15-.2a36.57,36.57,0,0,0-9.218-50.89h0l-.262-.18a37.12,37.12,0,0,0-51.33,9.87l-.4.62h0A180.332,180.332,0,0,1,512.8,677.57l-.48.31A36.651,36.651,0,0,1,537.8,683.88Z"/>
        <path class="cls-4" d="M647.73,615.39a36.58,36.58,0,0,1,31.11,60.76c51-51.64,79.59-124.42,72.24-201.76h0a2.085,2.085,0,0,0,0-.25,36.52,36.52,0,0,0-39.88-32.818h0l-.37.038a37.17,37.17,0,0,0-33.23,40.38c0,.24.07.49.09.73v.05c5.08,55.53-16.05,107.67-53.27,144.17l-.18.49A37.137,37.137,0,0,1,647.73,615.39Z"/>
        <path class="cls-3" d="M688.26,492.93a37,37,0,0,1,52.19-.84,36.312,36.312,0,0,1,11,27.13c6-71.93-18.87-145.63-74.43-199.77h0l-.18-.18a37,37,0,0,0-51.76,52.85c.17.17.36.33.54.49v.06a176.172,176.172,0,0,1,51.91,143.8l.18.5A36.923,36.923,0,0,1,688.26,492.93Z"/>
        <path class="cls-2" d="M640.53,373.8a37.23,37.23,0,0,1,39.71-34.07,36.466,36.466,0,0,1,26,13.6A250,250,0,0,0,519.96,249.02h-.25A37.24,37.24,0,0,0,480,283.1a36.46,36.46,0,0,0,33.429,39.257q.221.018.441.033h.79a176.8,176.8,0,0,1,132.79,76.16l.46.26A36.307,36.307,0,0,1,640.53,373.8Z"/>
        <path class="cls-4" d="M526.99,313.71a37.05,37.05,0,0,1,37.46-57.66,254,254,0,0,0-210.95,40h0l-.21.14a36.68,36.68,0,1,0,41.972,60.167l.148-.1q.352-.247.7-.5l.59-.45h.06a179.682,179.682,0,0,1,151.56-27.17l.52-.09A36.336,36.336,0,0,1,526.99,313.71Z"/>
        <path class="cls-3" d="M400.54,340.76a36.44,36.44,0,0,1-26.577-44.152c.038-.153.077-.306.117-.458a37.089,37.089,0,0,1,18.16-23.27A254.46,254.46,0,0,0,255.32,438.43h0a1.119,1.119,0,0,1-.07.24,36.45,36.45,0,0,0,26.01,44.505h0c.15.039.3.078.45.115a37.23,37.23,0,0,0,45-26.74c.07-.24.12-.48.17-.72h0a180,180,0,0,1,99.44-117.75l.34-.41A37,37,0,0,1,400.54,340.76Z"/>
        <path class="cls-2" d="M320.57,442.31a36.57,36.57,0,0,1-50.18-46.32c-30.31,65.75-32.31,143.7,1.17,213.66h0c0,.08.07.16.11.23a37,37,0,0,0,66.65-32.17c-.1-.22-.22-.44-.33-.66h0c-23.84-50.29-21.83-106.35.73-153.23v-.52A37.132,37.132,0,0,1,320.57,442.31Z"/>
        <path class="cls-4" d="M324.32,570.88a37.21,37.21,0,0,1-48.9,18.58,36.3,36.3,0,0,1-19.68-21.68,248.879,248.879,0,0,0,101.1,141,37.12,37.12,0,0,0,53.27-42.5,36.2,36.2,0,0,0-15.55-21l.52.09a178.228,178.228,0,0,0,32.16,18.08c-.62-.32-1.26-.64-1.91-.93l-.68-.28h0a176,176,0,0,1-98.33-117.06l-.34-.4A36.557,36.557,0,0,1,324.32,570.88Z"/>
      </g>
      <g id="Circle4">
        <path class="cls-3" d="M488.32,634.33a26.5,26.5,0,0,1-24.13,42.84,180,180,0,0,0,148.13-37.66h0l.14-.12a26.46,26.46,0,0,0,3.93-37.08,26.131,26.131,0,0,0-36.76-3.771l-.16.131-.4.34h0a127.241,127.241,0,0,1-106.5,25.92l-.37.09A25.92,25.92,0,0,1,488.32,634.33Z"/>
        <path class="cls-2" d="M576.91,609.56a26.1,26.1,0,0,1,20.766,30.515h0c-.015.078-.03.156-.046.234a26.51,26.51,0,0,1-11.9,17.4,182,182,0,0,0,90.15-124.23h0a.965.965,0,0,0,0-.17,26.1,26.1,0,0,0-20.486-30.7l-.234-.046a26.5,26.5,0,0,0-30.81,21.05l-.09.52h0a128.758,128.758,0,0,1-65.54,88.43l-.22.3A26.142,26.142,0,0,1,576.91,609.56Z"/>
        <path class="cls-4" d="M629.46,533.48a26.11,26.11,0,0,1,37.64,30.95,180.4,180.4,0,0,0-10-152.67h0l-.09-.16a26.071,26.071,0,0,0-35.45-10.129h0c-.077.042-.153.085-.23.129a26.54,26.54,0,0,0-10.28,35.89l.27.46h0a127.62,127.62,0,0,1,6.09,109.56v.37A26.544,26.544,0,0,1,629.46,533.48Z"/>
        <path class="cls-3" d="M621.19,441.76a26.42,26.42,0,0,1,33.94-15.39,25.944,25.944,0,0,1,14.92,14.65A177.768,177.768,0,0,0,564.51,331.34h0l-.16-.07a26.41,26.41,0,0,0-18.88,49.33l.49.17h0a125.8,125.8,0,0,1,74.87,79.43l.26.27A26.31,26.31,0,0,1,621.19,441.76Z"/>
        <path class="cls-2" d="M556.07,377.3a26.57,26.57,0,0,1,16.32-33.6,26,26,0,0,1,20.93,1.52,178.48,178.48,0,0,0-151.69-15.34h-.17a26.59,26.59,0,0,0-16.32,33.61,26,26,0,0,0,33,16.224h0c.118-.04.236-.081.353-.123.17-.05.33-.12.5-.18h0A126.22,126.22,0,0,1,567.6,391.54h.38A25.85,25.85,0,0,1,556.07,377.3Z"/>
        <path class="cls-4" d="M464.62,370.22a26.46,26.46,0,0,1,8.15-48.41,181.348,181.348,0,0,0-126.8,86.14h0l-.1.15a26.2,26.2,0,1,0,44.686,27.366c.107-.174.211-.35.314-.526l.26-.46h0a128.249,128.249,0,0,1,91.54-60.84l.31-.21A25.936,25.936,0,0,1,464.62,370.22Z"/>
        <path class="cls-3" d="M389.49,423.88a26,26,0,0,1-29.942-21.341c-.02-.12-.04-.239-.058-.359a26.52,26.52,0,0,1,5.29-20.39,181.626,181.626,0,0,0-42.62,147.33h0v.18a26,26,0,0,0,29.64,21.758l.359-.058a26.591,26.591,0,0,0,21.86-30.3,3.386,3.386,0,0,0-.1-.52h0a128.523,128.523,0,0,1,31.63-105.35l.11-.36A26.437,26.437,0,0,1,389.49,423.88Z"/>
        <path class="cls-2" d="M365.99,513.13a26.11,26.11,0,0,1-46-16.08,178.892,178.892,0,0,0,61.5,139.6h0l.13.12a26.42,26.42,0,0,0,34.5-40c-.13-.12-.27-.22-.4-.33h0a126.572,126.572,0,0,1-43.13-100.56l-.15-.34A26.51,26.51,0,0,1,365.99,513.13Z"/>
        <path class="cls-4" d="M405,596.27a26.56,26.56,0,0,1-26.74,26.07,25.9,25.9,0,0,1-19.05-8.6,177.705,177.705,0,0,0,106.28,63.57,26.5,26.5,0,0,0,22.8-43,25.919,25.919,0,0,0-16.14-9.3l.37-.09a126.666,126.666,0,0,0,26.2,2.7c-.5,0-1-.06-1.51-.06h-.53a125.651,125.651,0,0,1-97.66-48.68l-.34-.17A26.131,26.131,0,0,1,405,596.27Z"/>
      </g>
      <g id="Circle5">
        <path class="cls-3" d="M544.81,584.47a18.82,18.82,0,0,1,2.17,34.85,127.811,127.811,0,0,0,73.74-79.71h0v-.12a18.809,18.809,0,0,0-12-23.62,18.57,18.57,0,0,0-23.365,11.99l-.035.11a1.231,1.231,0,0,1-.11.36h0a90.363,90.363,0,0,1-53.45,56.61l-.19.2A18.365,18.365,0,0,1,544.81,584.47Z"/>
        <path class="cls-2" d="M588.05,535.45a18.53,18.53,0,0,1,24.183,10.095h0c.03.071.058.143.087.215a18.889,18.889,0,0,1-.36,15,129.271,129.271,0,0,0,5.66-108.88h0v-.12a18.55,18.55,0,0,0-24.07-10.433h0l-.23.093a18.83,18.83,0,0,0-10.2,24.46c0,.11.1.22.14.34h0a91.43,91.43,0,0,1-4.88,78v.27A18.554,18.554,0,0,1,588.05,535.45Z"/>
        <path class="cls-4" d="M589.96,469.8a18.55,18.55,0,0,1,34.4,3.89,128.171,128.171,0,0,0-65-87.1h0l-.11-.06a18.52,18.52,0,0,0-25.052,7.641h0l-.088.168a18.84,18.84,0,0,0,7.75,25.36l.33.17h0a90.692,90.692,0,0,1,46,62.94l.16.22A18.861,18.861,0,0,1,589.96,469.8Z"/>
        <path class="cls-3" d="M549.58,418.33a18.77,18.77,0,0,1,14.28-22.29,18.441,18.441,0,0,1,14.55,3,126.29,126.29,0,0,0-105.29-24.61h-.13a18.761,18.761,0,1,0,7.7,36.724l.113-.024h0l.36-.09h0a89.338,89.338,0,0,1,75.32,18.4l.26.06A18.742,18.742,0,0,1,549.58,418.33Z"/>
        <path class="cls-2" d="M485.86,405.09a18.89,18.89,0,0,1-3.27-26.34,18.5,18.5,0,0,1,13-7.16,126.75,126.75,0,0,0-96.27,49.45h0l-.08.1a18.87,18.87,0,0,0,3.26,26.33,18.478,18.478,0,0,0,25.949-3.1h0c.051-.064.1-.128.15-.193l.22-.3h0a89.661,89.661,0,0,1,69.5-34.76l.24-.12A18.442,18.442,0,0,1,485.86,405.09Z"/>
        <path class="cls-4" d="M428.62,436.21a18.672,18.672,0,0,1-19.3-18.019v-.041a18.867,18.867,0,0,1,5.42-13.94,128.812,128.812,0,0,0-42.27,100.34h0v.13a18.6,18.6,0,1,0,37.18-1.39h0v-.37h0a91.059,91.059,0,0,1,31-71.64l.1-.25A18.4,18.4,0,0,1,428.62,436.21Z"/>
        <path class="cls-3" d="M404.59,497.23a18.48,18.48,0,0,1-26.108-1.171c-.055-.059-.109-.119-.162-.179a18.829,18.829,0,0,1-4.74-14.2,129,129,0,0,0,31.55,104.3h0l.08.1a18.49,18.49,0,0,0,26.106,1.487c.059-.052.116-.1.174-.157a18.88,18.88,0,0,0,1.32-26.5l-.26-.28h0a91.309,91.309,0,0,1-21.86-75l-.08-.26A18.741,18.741,0,0,1,404.59,497.23Z"/>
        <path class="cls-2" d="M425.07,559.5a18.54,18.54,0,0,1-33.64,8.21,127.061,127.061,0,0,0,90.6,59.43h.13a18.763,18.763,0,0,0,5.09-37.18h-.37a89.907,89.907,0,0,1-64.56-43.32l-.22-.15A18.843,18.843,0,0,1,425.07,559.5Z"/>
        <path class="cls-4" d="M480.46,593.97a18.88,18.88,0,0,1-5.87,25.91,18.369,18.369,0,0,1-14.67,2.23,126.241,126.241,0,0,0,87.91-3.23,18.82,18.82,0,0,0-3-34.42,18.359,18.359,0,0,0-13.22.69l.19-.2a90.845,90.845,0,0,0,16.66-8.51q-.469.25-.93.54l-.31.21h0a89.269,89.269,0,0,1-77,8.71h-.27A18.55,18.55,0,0,1,480.46,593.97Z"/>
      </g>
      <g id="Circle6">
        <path class="cls-3" d="M555.66,539.77a13.481,13.481,0,0,1,15.26,11.32,13.327,13.327,0,0,1-2.71,10.36,91.66,91.66,0,0,0,21.83-74.77h0v-.09a13.47,13.47,0,0,0-15.25-11.32,13.32,13.32,0,0,0-11.175,15.165h0l.015.095a.468.468,0,0,0,.05.26h0a64.848,64.848,0,0,1-16.19,53.45l-.06.18A13.188,13.188,0,0,1,555.66,539.77Z"/>
        <path class="cls-2" d="M567.73,494.47a13.31,13.31,0,0,1,18.784-1.207l.076.067a13.559,13.559,0,0,1,4.56,9.73,92.719,92.719,0,0,0-31.19-71.71h0l-.06-.07a13.31,13.31,0,0,0-18.793,1.064l-.067.076a13.5,13.5,0,0,0,1.26,19l.2.17h0a65.611,65.611,0,0,1,21.82,51.64l.08.18A13.352,13.352,0,0,1,567.73,494.47Z"/>
        <path class="cls-4" d="M547.95,451.72a13.3,13.3,0,0,1,23.37-8.51,91.888,91.888,0,0,0-69.6-35.11h-.09A13.28,13.28,0,0,0,488,421.021v.139a13.53,13.53,0,0,0,13.09,13.81h.23a65,65,0,0,1,49.66,25.68l.17.09A13.473,13.473,0,0,1,547.95,451.72Z"/>
        <path class="cls-3" d="M505.56,431.6a13.46,13.46,0,0,1,2-18.88,13.21,13.21,0,0,1,10.29-2.75,90.57,90.57,0,0,0-75.42,17.91h0l-.07.06a13.454,13.454,0,0,0,16.76,21.05l.2-.17h0a64.1,64.1,0,0,1,54.24-12.29h.18A13.39,13.39,0,0,1,505.56,431.6Z"/>
        <path class="cls-2" d="M460.41,443.5a13.54,13.54,0,0,1-10.52-15.86,13.294,13.294,0,0,1,6.07-8.78,90.939,90.939,0,0,0-46,62.57h0v.09a13.54,13.54,0,0,0,10.52,15.86,13.26,13.26,0,0,0,15.655-10.324h0c.012-.058.024-.117.035-.176v-.27h0a64.309,64.309,0,0,1,33.44-44.53l.11-.15A13.224,13.224,0,0,1,460.41,443.5Z"/>
        <path class="cls-4" d="M433.63,481.79a13.47,13.47,0,0,1-19.13-16.1,92.391,92.391,0,0,0,5,77.94h0a.534.534,0,0,1,0,.08,13.361,13.361,0,0,0,23.512-12.7l-.072-.131c0-.08-.09-.16-.14-.24h0a65.362,65.362,0,0,1-3-55.92v-.19A13.248,13.248,0,0,1,433.63,481.79Z"/>
        <path class="cls-3" d="M437.74,528.65a13.26,13.26,0,0,1-17.134,7.621l-.156-.061a13.512,13.512,0,0,1-7.58-7.6,92.53,92.53,0,0,0,53.62,56.84h.09a13.268,13.268,0,0,0,17.235-7.421v0l.054-.137a13.56,13.56,0,0,0-7.64-17.44l-.25-.09h0a65.511,65.511,0,0,1-38-41.15l-.13-.14A13.433,13.433,0,0,1,437.74,528.65Z"/>
        <path class="cls-2" d="M470.81,562.07a13.3,13.3,0,0,1-19,16,91.132,91.132,0,0,0,77.18,9.14h.08a13.46,13.46,0,0,0-8.62-25.5l-.26.09h0a64.5,64.5,0,0,1-55.29-7.13h-.19A13.441,13.441,0,0,1,470.81,562.07Z"/>
        <path class="cls-4" d="M517.4,566.47a13.53,13.53,0,0,1,4.52,18.48,13.2,13.2,0,0,1-8.71,6.14,90.546,90.546,0,0,0,55.41-30.21,13.34,13.34,0,0,0,2.3-9.81,13.481,13.481,0,0,0-15.26-11.32,13.193,13.193,0,0,0-8.26,4.67l.06-.18a64.96,64.96,0,0,0,8-10.8c-.15.21-.29.43-.42.65l-.13.23h0a64,64,0,0,1-46.65,30.24l-.16.1A13.269,13.269,0,0,1,517.4,566.47Z"/>
      </g>
      <g id="Circle7">
        <path class="cls-3" d="M548.13,504.02a9.56,9.56,0,0,1,15.46,8.67,64.9,64.9,0,0,0-13.68-53.41h0a9.54,9.54,0,0,0-13.419-1.4h0a9.43,9.43,0,0,0-1.332,13.269l.042.051.12.14h0a45.882,45.882,0,0,1,9.42,38.39v.13A9.308,9.308,0,0,1,548.13,504.02Z"/>
        <path class="cls-2" d="M539.13,472.07a9.431,9.431,0,0,1,11.019-7.512l.061.012a9.583,9.583,0,0,1,6.28,4.28,65.619,65.619,0,0,0-44.87-32.42h-.06a9.43,9.43,0,0,0-11.068,7.439l-.012.061a9.571,9.571,0,0,0,7.62,11.1h.18a46.439,46.439,0,0,1,31.94,23.57l.11.09A9.49,9.49,0,0,1,539.13,472.07Z"/>
        <path class="cls-4" d="M511.65,453.17a9.43,9.43,0,0,1,11.14-13.6,65.079,65.079,0,0,0-55.06,3.73h-.06a9.41,9.41,0,0,0-3.627,12.8l.037.066a9.57,9.57,0,0,0,12.95,3.71l.17-.1h0a46,46,0,0,1,39.51-2.27h.14A9.613,9.613,0,0,1,511.65,453.17Z"/>
        <path class="cls-3" d="M478.58,456.21A9.53,9.53,0,0,1,473,443.98a9.377,9.377,0,0,1,5.28-5.39,64.1,64.1,0,0,0-39.49,38.14h0a.152.152,0,0,0,0,.06,9.524,9.524,0,0,0,17.752,6.907l.048-.127.06-.18h0a45.4,45.4,0,0,1,28.6-27.06l.1-.09A9.488,9.488,0,0,1,478.58,456.21Z"/>
        <path class="cls-2" d="M455.37,479.75a9.59,9.59,0,0,1-12.13-5.87,9.4,9.4,0,0,1,.54-7.53,64.361,64.361,0,0,0-5.44,54.7h0v.06a9.591,9.591,0,0,0,12.13,5.87,9.391,9.391,0,0,0,5.811-11.941l-.021-.059-.07-.18h0a45.538,45.538,0,0,1,4.3-39.19v-.13A9.4,9.4,0,0,1,455.37,479.75Z"/>
        <path class="cls-4" d="M452.88,512.73a9.54,9.54,0,0,1-17.46-2.85,65.389,65.389,0,0,0,31.15,45.67h.06a9.46,9.46,0,0,0,9.766-16.2l-.076-.045h0l-.16-.1h0a46.269,46.269,0,0,1-22-33l-.07-.12A9.411,9.411,0,0,1,452.88,512.73Z"/>
        <path class="cls-3" d="M472.32,539.79a9.379,9.379,0,0,1-7.675,10.818h0l-.133.022a9.539,9.539,0,0,1-7.35-1.89,65.48,65.48,0,0,0,53.16,15.27h0a9.381,9.381,0,0,0,7.82-10.715c-.006-.042-.013-.083-.02-.125a9.58,9.58,0,0,0-10.94-7.86H507a46.377,46.377,0,0,1-38-11.34h-.13A9.516,9.516,0,0,1,472.32,539.79Z"/>
        <path class="cls-2" d="M504.49,548.21a9.41,9.41,0,0,1-5.76,16.61,64.479,64.479,0,0,0,50.3-22.27h0a9.53,9.53,0,0,0-14.41-12.47l-.12.15h0a45.63,45.63,0,0,1-36.25,15.65h-.12A9.62,9.62,0,0,1,504.49,548.21Z"/>
        <path class="cls-4" d="M534.45,534.08a9.581,9.581,0,0,1,9.42,9.63,9.348,9.348,0,0,1-3.08,6.88,64.139,64.139,0,0,0,22.85-38.38,9.56,9.56,0,0,0-15.51-8.19,9.311,9.311,0,0,0-3.35,5.82v-.13a46.243,46.243,0,0,0,1-9.45v.73h0a45.312,45.312,0,0,1-17.5,35.24l-.06.12A9.416,9.416,0,0,1,534.45,534.08Z"/>
      </g>
      <g id="Circle8">
        <path class="cls-3" d="M531.16,485.69a6.781,6.781,0,0,1,8.79-3.77,6.711,6.711,0,0,1,3.82,3.8,46.141,46.141,0,0,0-27-28.43h0a6.8,6.8,0,0,0-8.79,3.78,6.708,6.708,0,0,0,3.78,8.7l.04.016h.12a32.671,32.671,0,0,1,19.17,20.58l.06.07A6.631,6.631,0,0,1,531.16,485.69Z"/>
        <path class="cls-2" d="M514.49,468.97a6.72,6.72,0,0,1,4.266-8.492l.024-.008a6.819,6.819,0,0,1,5.38.48,46.721,46.721,0,0,0-39.11-4.58h0a6.7,6.7,0,0,0-4.3,8.443h0l.018.056a6.79,6.79,0,0,0,8.57,4.25h.13a33,33,0,0,1,28,3.57h.1A6.718,6.718,0,0,1,514.49,468.97Z"/>
        <path class="cls-4" d="M490.88,466.76a6.7,6.7,0,0,1,2.2-12.31,46.29,46.29,0,0,0-32.91,21.43h0a6.69,6.69,0,0,0,2.165,9.21l.065.04a6.81,6.81,0,0,0,9.32-2.21.411.411,0,0,0,.07-.11h0a32.744,32.744,0,0,1,23.75-15.11l.08-.05A6.768,6.768,0,0,1,490.88,466.76Z"/>
        <path class="cls-3" d="M471.39,480.12a6.79,6.79,0,0,1-7.71-5.67,6.63,6.63,0,0,1,1.41-5.17,45.6,45.6,0,0,0-11.3,37.38h0a6.78,6.78,0,0,0,13.41-2v-.13h0a32.27,32.27,0,0,1,8.36-26.65v-.09A6.76,6.76,0,0,1,471.39,480.12Z"/>
        <path class="cls-2" d="M465.13,502.78a6.8,6.8,0,0,1-9.56.56,6.62,6.62,0,0,1-2.25-4.86,45.76,45.76,0,0,0,15.59,35.86h0a6.82,6.82,0,0,0,9.57-.56,6.692,6.692,0,0,0-.53-9.446l-.05-.044-.11-.08h0a32.37,32.37,0,0,1-10.92-25.83v-.09A6.66,6.66,0,0,1,465.13,502.78Z"/>
        <path class="cls-4" d="M475.02,524.13a6.79,6.79,0,0,1-11.85,4.26,46.54,46.54,0,0,0,35.15,17.56h0a6.72,6.72,0,0,0,.752-13.419h-.019c-.124-.007-.249-.01-.373-.01h-.14a32.909,32.909,0,0,1-25.1-12.85h-.09A6.675,6.675,0,0,1,475.02,524.13Z"/>
        <path class="cls-3" d="M496.46,534.21a6.681,6.681,0,0,1-1.028,9.391l-.062.049a6.78,6.78,0,0,1-5.23,1.38,46.662,46.662,0,0,0,38.33-8.95h0a6.68,6.68,0,0,0,1.139-9.378l-.049-.062a6.81,6.81,0,0,0-9.52-1.09l-.11.08h0a33,33,0,0,1-27.54,6.14h-.1A6.793,6.793,0,0,1,496.46,534.21Z"/>
        <path class="cls-2" d="M519.38,528.27a6.7,6.7,0,0,1,2.18,12.32,45.867,45.867,0,0,0,23.52-31.28h0a6.78,6.78,0,0,0-13.28-2.7v.13h0A32.5,32.5,0,0,1,514.7,529l-.06.07A6.879,6.879,0,0,1,519.38,528.27Z"/>
        <path class="cls-4" d="M533.09,509.11a6.82,6.82,0,0,1,9.19,2.71,6.631,6.631,0,0,1,.47,5.35,45.644,45.644,0,0,0,.89-31.77,6.8,6.8,0,0,0-12.48.29,6.629,6.629,0,0,0-.06,4.78l-.06-.07a32.713,32.713,0,0,0-2.69-6.2l.18.35.07.11h0a32.27,32.27,0,0,1,1.35,28v.09A6.712,6.712,0,0,1,533.09,509.11Z"/>
      </g>
      <g id="Circle9">
        <path class="cls-3" d="M513.24,479.11a4.89,4.89,0,0,1,7.66-4.87,33.25,33.25,0,0,0-27.42-6.79h0a4.89,4.89,0,0,0-3.88,5.7,4.841,4.841,0,0,0,5.684,3.813h.106a23.522,23.522,0,0,1,19.62,5.07h.06A4.783,4.783,0,0,1,513.24,479.11Z"/>
        <path class="cls-2" d="M496.64,475.42a4.82,4.82,0,0,1-.735-6.777h0l.035-.043a5,5,0,0,1,3.46-1.8,33.68,33.68,0,0,0-25.53,12.38h0a4.832,4.832,0,0,0,.672,6.8l.028.022a4.9,4.9,0,0,0,6.85-.75l.06-.07h0a23.831,23.831,0,0,1,18.39-8.69h.06A4.829,4.829,0,0,1,496.64,475.42Z"/>
        <path class="cls-4" d="M481.44,483.23a4.82,4.82,0,0,1-4.939-4.7v-.044a4.881,4.881,0,0,1,1.5-3.59,33.359,33.359,0,0,0-11.68,25.76h0a4.83,4.83,0,0,0,4.908,4.751h.032a4.919,4.919,0,0,0,4.81-5,.272.272,0,0,0,0-.09h0a23.558,23.558,0,0,1,8.56-18.38v-.07A4.872,4.872,0,0,1,481.44,483.23Z"/>
        <path class="cls-3" d="M474.78,498.88a4.88,4.88,0,0,1-6.87-.46,4.781,4.781,0,0,1-1.15-3.68,32.837,32.837,0,0,0,7.63,27.14h0a4.881,4.881,0,0,0,7.38-6.39h0l-.07-.07h0a23.252,23.252,0,0,1-5.25-19.54v-.07A4.839,4.839,0,0,1,474.78,498.88Z"/>
        <path class="cls-2" d="M479.77,515.08a4.9,4.9,0,0,1-5.59,4,4.788,4.788,0,0,1-3.27-2.07,32.941,32.941,0,0,0,23.41,15.78h0a4.91,4.91,0,0,0,5.59-4,4.81,4.81,0,0,0-3.957-5.533l-.043-.007h-.11a23.372,23.372,0,0,1-16.64-11.45h-.05A4.816,4.816,0,0,1,479.77,515.08Z"/>
        <path class="cls-4" d="M494.06,524.21a4.89,4.89,0,0,1-5.55,7.18,33.519,33.519,0,0,0,28.17-3h0a4.841,4.841,0,1,0-4.887-8.358l-.113.068h-.08a23.69,23.69,0,0,1-20.22,1.93h-.06A4.825,4.825,0,0,1,494.06,524.21Z"/>
        <path class="cls-3" d="M510.98,522.02a4.81,4.81,0,0,1,3.02,6.1v0l-.019.054a4.914,4.914,0,0,1-2.64,2.86,33.57,33.57,0,0,0,19.79-20.29h0a4.8,4.8,0,0,0-2.927-6.125h0l-.073-.025a4.92,4.92,0,0,0-6.21,3v.09h0a23.769,23.769,0,0,1-14.35,14.4h-.05A4.92,4.92,0,0,1,510.98,522.02Z"/>
        <path class="cls-2" d="M522.59,509.53a4.82,4.82,0,0,1,6.1,6.63,33.071,33.071,0,0,0,2.16-28.11h0a4.881,4.881,0,0,0-9.11,3.51v.09h0a23.4,23.4,0,0,1-1.75,20.14v.09A4.909,4.909,0,0,1,522.59,509.53Z"/>
        <path class="cls-4" d="M523.49,492.58a4.9,4.9,0,0,1,6.63-1.92,4.8,4.8,0,0,1,2.35,3.07A32.787,32.787,0,0,0,520.7,474.1a4.89,4.89,0,0,0-7.46,5,4.782,4.782,0,0,0,1.81,2.92h-.06a23.53,23.53,0,0,0-4-2.73l.24.14.09.05h0a23.213,23.213,0,0,1,11.66,16.46v.05A4.793,4.793,0,0,1,523.49,492.58Z"/>
      </g>
    </g>
  </g>
</svg>
