<svg xmlns="http://www.w3.org/2000/svg" viewBox="0 0 1000 1000">
  <defs>
    <style>
      .cls-1 {
        fill: #cbc0d3;
      }

      .cls-2 {
        fill: #084b83;
      }

      .cls-3 {
        fill: #b084cc;
      }

      .cls-4 {
        fill: #c64191;
      }

      .cls-5 {
        fill: #12eaea;
      }
    </style>
  </defs>
  <g id="Background">
    <g id="BG">
      <path class="cls-1" d="M499.68,999.62A499.64,499.64,0,0,1,305.25,39.87a499.63,499.63,0,0,1,388.86,920.5A496.5,496.5,0,0,1,499.68,999.62Z" transform="translate(0.32 -0.12)"/>
      <path d="M499.68,1.12A499.13,499.13,0,0,1,693.91,959.91,499.13,499.13,0,0,1,305.45,40.33,495.88,495.88,0,0,1,499.68,1.12m0-1C223.54.12-.32,224-.32,500.12s223.86,500,500,500,500-223.86,500-500S775.82.12,499.68.12Z" transform="translate(0.32 -0.12)"/>
    </g>
  </g>
  <g id="Spirals">
    <g id="Circle1">
      <path class="cls-2" d="M127,475.56A73,73,0,0,1,7.67,410.69c-25.4,140.91,9.59,291.64,108.68,410h0l.31.39a73,73,0,0,0,111.85-93.85c-.32-.37-.65-.72-1-1.09l0-.11a353,353,0,0,1-74.94-294.77l-.26-1A72.73,72.73,0,0,1,127,475.56Z" transform="translate(0.32 -0.12)"/>
      <path class="cls-1" d="M198.27,720.67a73,73,0,0,1-133.13,27C136.26,872,260,964.94,411.92,991.89h0l.49.1a73,73,0,0,0,25.35-143.79l-1.44-.21-.09-.07C327.25,828.17,239,760.4,189.34,670.28l-.85-.61A72.67,72.67,0,0,1,198.27,720.67Z" transform="translate(0.32 -0.12)"/>
      <path class="cls-3" d="M410.55,862.81a73,73,0,0,1-84.61,106.28c134.36,49.48,288.88,41.19,422.61-35.84h0L749,933a73,73,0,0,0-73-126.44c-.43.25-.83.51-1.25.76h-.11A353,353,0,0,1,371.33,830l-1.05.08A72.73,72.73,0,0,1,410.55,862.81Z" transform="translate(0.32 -0.12)"/>
      <path class="cls-4" d="M664.39,835.07a73,73,0,0,1,3.5,135.81c134.73-48.46,247.76-154.14,300.69-299.11h0c.06-.15.13-.3.19-.46a73,73,0,0,0-137.2-49.94c-.17.46-.3.93-.46,1.39l-.08.08A353,353,0,0,1,613.21,835.11l-.75.73A72.78,72.78,0,0,1,664.39,835.07Z" transform="translate(0.32 -0.12)"/>
      <path class="cls-5" d="M841,650.66a73,73,0,0,1,90,101.78C1003,628.72,1021.71,475.11,969.06,330h0c0-.16-.1-.31-.16-.47A73,73,0,1,0,831.7,379.49c.17.46.36.91.53,1.36V381c37.4,104.25,22.85,214.61-30.39,302.63l-.1,1A72.72,72.72,0,0,1,841,650.66Z" transform="translate(0.32 -0.12)"/>
      <path class="cls-2" d="M857.92,396a73,73,0,0,1,134.34,20.14C967.93,275.08,883.5,145.41,749.91,68.11h0c-.15-.09-.28-.18-.43-.26a73,73,0,1,0-73,126.44l1.29.7.06.09A353,353,0,0,1,849.07,446.45l.59.86A72.71,72.71,0,0,1,857.92,396Z" transform="translate(0.32 -0.12)"/>
      <path class="cls-3" d="M707.05,190A73,73,0,0,1,822.91,119C713.58,26.57,565.55-18.49,413.53,8.16h0l-.5.07A73,73,0,1,0,438.39,152c.48-.08.95-.19,1.43-.29l.1,0a353,353,0,0,1,292.75,82.48l1,.29A72.76,72.76,0,0,1,707.05,190Z" transform="translate(0.32 -0.12)"/>
      <path class="cls-4" d="M459.16,129.22A73,73,0,0,1,502.32.41C359.14-.13,216.78,60.5,117.46,178.63h0c-.1.13-.22.25-.33.38A73,73,0,0,0,229,272.86c.31-.37.6-.76.91-1.14l.1,0c71.58-84.51,174.43-127.09,277.27-125l1-.43A72.72,72.72,0,0,1,459.16,129.22Z" transform="translate(0.32 -0.12)"/>
      <path class="cls-5" d="M230,242a73,73,0,0,1-49.74-126.41A499.48,499.48,0,0,0,7.31,414.38a73,73,0,0,0,145,15.83l.26,1a355.5,355.5,0,0,0-6.71,73c.08-1.39.13-2.79.13-4.21,0-.49,0-1,0-1.46l0-.1a353,353,0,0,1,132.06-274l.46-.94A72.73,72.73,0,0,1,230,242Z" transform="translate(0.32 -0.12)"/>
    </g>
    <g id="Circle2">
      <path class="cls-2" d="M267.2,625.46a51.59,51.59,0,0,1-95.82,6.08A352.62,352.62,0,0,0,390.6,836h0l.33.12a51.59,51.59,0,0,0,31.63-98.22l-1-.29-.06,0a249.48,249.48,0,0,1-155.7-148.19l-.54-.51A51.4,51.4,0,0,1,267.2,625.46Z" transform="translate(0.32 -0.12)"/>
      <path class="cls-1" d="M402,745.32a51.58,51.58,0,0,1-69.49,66.24,352.58,352.58,0,0,0,299.32,15.69h0l.33-.12a51.59,51.59,0,1,0-38.91-95.56l-.94.41h-.08a249.46,249.46,0,0,1-214.52-13.43l-.74,0A51.46,51.46,0,0,1,402,745.32Z" transform="translate(0.32 -0.12)"/>
      <path class="cls-3" d="M582.48,750.54A51.58,51.58,0,0,1,571.83,846,352.67,352.67,0,0,0,811.21,665.56h0a3.07,3.07,0,0,0,.17-.31,51.59,51.59,0,0,0-91.23-48.2c-.16.31-.3.62-.46.93l-.06,0a249.45,249.45,0,0,1-173,127.61l-.59.44A51.28,51.28,0,0,1,582.48,750.54Z" transform="translate(0.32 -0.12)"/>
      <path class="cls-4" d="M723.93,638.48a51.57,51.57,0,0,1,53.16,79.93,352.62,352.62,0,0,0,67.43-292h0l-.06-.35a51.59,51.59,0,0,0-100.87,21.72c.07.34.16.67.24,1l0,.07a249.45,249.45,0,0,1-50.48,208.93l-.17.72A51.38,51.38,0,0,1,723.93,638.48Z" transform="translate(0.32 -0.12)"/>
      <path class="cls-5" d="M760.25,461.71a51.58,51.58,0,0,1,92.11,27.06A352.64,352.64,0,0,0,716.28,221.71h0l-.28-.22A51.59,51.59,0,1,0,652.7,303c.27.22.55.41.83.62l0,.07a249.48,249.48,0,0,1,95.63,192.5l.33.66A51.4,51.4,0,0,1,760.25,461.71Z" transform="translate(0.32 -0.12)"/>
      <path class="cls-2" d="M674.61,303a51.58,51.58,0,0,1,87.95-38.48,352.57,352.57,0,0,0-275.9-117.12h-.36a51.59,51.59,0,0,0,3.88,103.11c.34,0,.68-.05,1-.07l.07,0a249.45,249.45,0,0,1,197,86l.68.3A51.36,51.36,0,0,1,674.61,303Z" transform="translate(0.32 -0.12)"/>
      <path class="cls-3" d="M506.83,236.43a51.58,51.58,0,0,1,42.65-86,352.59,352.59,0,0,0-286.64,87.63h0l-.26.24a51.59,51.59,0,1,0,69.24,76.49c.26-.23.5-.48.75-.71l.07,0A249.44,249.44,0,0,1,538.82,253.3l.71-.21A51.41,51.41,0,0,1,506.83,236.43Z" transform="translate(0.32 -0.12)"/>
      <path class="cls-4" d="M335.67,293.32A51.58,51.58,0,0,1,313.05,200,352.61,352.61,0,0,0,149.8,451.4h0l-.06.35A51.59,51.59,0,0,0,252,465.84c0-.35.07-.69.11-1l0-.06A249.49,249.49,0,0,1,371,285.68l.41-.62A51.38,51.38,0,0,1,335.67,293.32Z" transform="translate(0.32 -0.12)"/>
      <path class="cls-5" d="M241,447a51.58,51.58,0,0,1-77.3-56.94,353,353,0,0,0,8.89,243.83,51.58,51.58,0,0,0,92.71-45.07l.54.51a251.34,251.34,0,0,0,23.44,46.2c-.48-.87-1-1.73-1.51-2.57-.18-.3-.38-.58-.57-.86V632a249.48,249.48,0,0,1-24-213.6l-.08-.73A51.43,51.43,0,0,1,241,447Z" transform="translate(0.32 -0.12)"/>
    </g>
    <g id="Circle3">
      <path class="cls-2" d="M409.8,666.37A37.12,37.12,0,0,1,354.91,708a252,252,0,0,0,211.35,34.23h0l.24-.07a37.06,37.06,0,0,0,25.73-45.46,36.6,36.6,0,0,0-45.4-25.26c-.24.06-.48.14-.71.22h-.06a178.27,178.27,0,0,1-151.29-26.09l-.52-.09A36.2,36.2,0,0,1,409.8,666.37Z" transform="translate(0.32 -0.12)"/>
      <path class="cls-1" d="M537.48,684A36.56,36.56,0,0,1,547,735a37.15,37.15,0,0,1-25,15.73A254.93,254.93,0,0,0,707.06,641.4h0l.15-.2a36.57,36.57,0,0,0-9.48-51.07A37.12,37.12,0,0,0,646.4,600l-.4.62,0,0a180.33,180.33,0,0,1-133.52,77.07L512,678A36.65,36.65,0,0,1,537.48,684Z" transform="translate(0.32 -0.12)"/>
      <path class="cls-3" d="M647.41,615.51a36.58,36.58,0,0,1,31.11,60.76c51-51.64,79.59-124.42,72.24-201.76h0a2.09,2.09,0,0,0,0-.25,36.52,36.52,0,0,0-40.25-32.78,37.17,37.17,0,0,0-33.23,40.38c0,.24.07.49.09.73l0,.05c5.08,55.53-16.05,107.67-53.27,144.17l-.18.49A37.14,37.14,0,0,1,647.41,615.51Z" transform="translate(0.32 -0.12)"/>
      <path class="cls-4" d="M687.94,493.05a37,37,0,0,1,52.19-.84,36.31,36.31,0,0,1,11,27.13c6-71.93-18.87-145.63-74.43-199.77h0l-.18-.18a37,37,0,0,0-51.76,52.85c.17.17.36.33.54.49v.06a176.17,176.17,0,0,1,51.91,143.8l.18.5A36.92,36.92,0,0,1,687.94,493.05Z" transform="translate(0.32 -0.12)"/>
      <path class="cls-5" d="M640.21,373.92a37.23,37.23,0,0,1,39.71-34.07,36.47,36.47,0,0,1,26,13.6A250,250,0,0,0,519.64,249.14h0l-.25,0a37.24,37.24,0,0,0-39.71,34.08,36.46,36.46,0,0,0,33.87,39.29l.74,0,.05,0a176.8,176.8,0,0,1,132.79,76.16l.46.26A36.31,36.31,0,0,1,640.21,373.92Z" transform="translate(0.32 -0.12)"/>
      <path class="cls-2" d="M526.67,313.83a37.05,37.05,0,0,1,37.46-57.66,254,254,0,0,0-210.95,40h0l-.21.14a36.68,36.68,0,1,0,42.82,59.56l.59-.45h.06A179.68,179.68,0,0,1,548,328.25l.52-.09A36.34,36.34,0,0,1,526.67,313.83Z" transform="translate(0.32 -0.12)"/>
      <path class="cls-3" d="M400.22,340.88a36.44,36.44,0,0,1-26.46-44.61A37.09,37.09,0,0,1,391.92,273,254.46,254.46,0,0,0,255,438.55h0c0,.08-.05.16-.07.24a36.45,36.45,0,0,0,26.46,44.62,37.23,37.23,0,0,0,45-26.74c.07-.24.12-.48.17-.72l0,0A180,180,0,0,1,426,338.2l.34-.41A37,37,0,0,1,400.22,340.88Z" transform="translate(0.32 -0.12)"/>
      <path class="cls-4" d="M320.25,442.43a36.57,36.57,0,0,1-50.18-46.32c-30.31,65.75-32.31,143.7,1.17,213.66h0c0,.08.07.16.11.23A37,37,0,0,0,338,577.83c-.1-.22-.22-.44-.33-.66v0c-23.84-50.29-21.83-106.35.73-153.23v-.52A37.13,37.13,0,0,1,320.25,442.43Z" transform="translate(0.32 -0.12)"/>
      <path class="cls-5" d="M324,571a37.21,37.21,0,0,1-48.9,18.58,36.3,36.3,0,0,1-19.68-21.68,248.88,248.88,0,0,0,101.1,141,37.12,37.12,0,0,0,53.27-42.5,36.2,36.2,0,0,0-15.55-21l.52.09a178.22,178.22,0,0,0,32.16,18.08c-.62-.32-1.26-.64-1.91-.93l-.68-.28,0,0A176,176,0,0,1,326,545.3l-.34-.4A36.56,36.56,0,0,1,324,571Z" transform="translate(0.32 -0.12)"/>
    </g>
    <g id="Circle4">
      <path class="cls-2" d="M488,634.45a26.5,26.5,0,0,1-24.13,42.84A180,180,0,0,0,612,639.63h0l.14-.12a26.46,26.46,0,0,0,3.93-37.08,26.13,26.13,0,0,0-36.92-3.64l-.4.34h0a127.24,127.24,0,0,1-106.5,25.92l-.37.09A25.92,25.92,0,0,1,488,634.45Z" transform="translate(0.32 -0.12)"/>
      <path class="cls-1" d="M576.59,609.68a26.1,26.1,0,0,1,20.72,30.75,26.51,26.51,0,0,1-11.9,17.4A182,182,0,0,0,675.56,533.6h0a1,1,0,0,0,0-.17,26.1,26.1,0,0,0-20.72-30.75,26.5,26.5,0,0,0-30.81,21.05l-.09.52,0,0a128.76,128.76,0,0,1-65.54,88.43l-.22.3A26.14,26.14,0,0,1,576.59,609.68Z" transform="translate(0.32 -0.12)"/>
      <path class="cls-3" d="M629.14,533.6a26.11,26.11,0,0,1,37.64,30.95,180.4,180.4,0,0,0-10-152.67h0l-.09-.16a26.07,26.07,0,0,0-35.68-10,26.54,26.54,0,0,0-10.28,35.89l.27.46v0a127.62,127.62,0,0,1,6.09,109.56l0,.37A26.55,26.55,0,0,1,629.14,533.6Z" transform="translate(0.32 -0.12)"/>
      <path class="cls-4" d="M620.87,441.88a26.42,26.42,0,0,1,33.94-15.39,25.94,25.94,0,0,1,14.92,14.65A177.77,177.77,0,0,0,564.19,331.46h0l-.16-.07a26.41,26.41,0,0,0-18.88,49.33l.49.17,0,0a125.8,125.8,0,0,1,74.87,79.43l.26.27A26.31,26.31,0,0,1,620.87,441.88Z" transform="translate(0.32 -0.12)"/>
      <path class="cls-5" d="M555.75,377.42a26.57,26.57,0,0,1,16.32-33.6A26,26,0,0,1,593,345.34,178.48,178.48,0,0,0,441.31,330h0l-.17,0a26.59,26.59,0,0,0-16.32,33.61,26,26,0,0,0,33.35,16.1c.17-.05.33-.12.5-.18h0a126.22,126.22,0,0,1,108.61,12.13l.38,0A25.85,25.85,0,0,1,555.75,377.42Z" transform="translate(0.32 -0.12)"/>
      <path class="cls-2" d="M464.3,370.34a26.46,26.46,0,0,1,8.15-48.41,181.35,181.35,0,0,0-126.8,86.14h0l-.1.15a26.19,26.19,0,1,0,45,26.84l.26-.46,0,0a128.25,128.25,0,0,1,91.54-60.84l.31-.21A25.94,25.94,0,0,1,464.3,370.34Z" transform="translate(0.32 -0.12)"/>
      <path class="cls-3" d="M389.17,424a26,26,0,0,1-30-21.7,26.52,26.52,0,0,1,5.29-20.39,181.63,181.63,0,0,0-42.62,147.33h0l0,.18a26,26,0,0,0,30,21.7,26.59,26.59,0,0,0,21.86-30.3c0-.17-.07-.34-.1-.52l0,0a128.52,128.52,0,0,1,31.63-105.35l.11-.36A26.44,26.44,0,0,1,389.17,424Z" transform="translate(0.32 -0.12)"/>
      <path class="cls-4" d="M365.67,513.25a26.11,26.11,0,0,1-46-16.08,178.89,178.89,0,0,0,61.5,139.6h0l.13.12a26.42,26.42,0,0,0,34.5-40c-.13-.12-.27-.22-.4-.33l0,0A126.57,126.57,0,0,1,372.27,496l-.15-.34A26.51,26.51,0,0,1,365.67,513.25Z" transform="translate(0.32 -0.12)"/>
      <path class="cls-5" d="M404.68,596.39a26.56,26.56,0,0,1-26.74,26.07,25.9,25.9,0,0,1-19.05-8.6,177.71,177.71,0,0,0,106.28,63.57,26.5,26.5,0,0,0,22.8-43,25.92,25.92,0,0,0-16.14-9.3l.37-.09a126.64,126.64,0,0,0,26.2,2.7c-.5,0-1-.06-1.51-.06h-.53l0,0A125.65,125.65,0,0,1,398.7,579l-.34-.17A26.13,26.13,0,0,1,404.68,596.39Z" transform="translate(0.32 -0.12)"/>
    </g>
    <g id="Circle5">
      <path class="cls-2" d="M544.49,584.59a18.82,18.82,0,0,1,2.17,34.85,127.81,127.81,0,0,0,73.74-79.71h0l0-.12a18.81,18.81,0,0,0-12-23.62A18.57,18.57,0,0,0,585,528.09c0,.12-.07.24-.11.36l0,0a90.36,90.36,0,0,1-53.45,56.61l-.19.2A18.36,18.36,0,0,1,544.49,584.59Z" transform="translate(0.32 -0.12)"/>
      <path class="cls-1" d="M587.73,535.57A18.53,18.53,0,0,1,612,545.88a18.89,18.89,0,0,1-.36,15A129.27,129.27,0,0,0,617.3,452h0s0-.08,0-.12A18.55,18.55,0,0,0,593,441.54,18.83,18.83,0,0,0,582.8,466c0,.11.1.22.14.34v0a91.43,91.43,0,0,1-4.88,78v.27A18.55,18.55,0,0,1,587.73,535.57Z" transform="translate(0.32 -0.12)"/>
      <path class="cls-3" d="M589.64,469.92a18.55,18.55,0,0,1,34.4,3.89,128.17,128.17,0,0,0-65-87.1h0l-.11-.06a18.52,18.52,0,0,0-25.14,7.81,18.84,18.84,0,0,0,7.75,25.36l.33.17,0,0a90.69,90.69,0,0,1,46,62.94l.16.22A18.86,18.86,0,0,1,589.64,469.92Z" transform="translate(0.32 -0.12)"/>
      <path class="cls-4" d="M549.26,418.45a18.77,18.77,0,0,1,14.28-22.29,18.44,18.44,0,0,1,14.55,3A126.29,126.29,0,0,0,472.8,374.55h0l-.13,0a18.76,18.76,0,0,0,7.81,36.7l.36-.09h0a89.34,89.34,0,0,1,75.32,18.4l.26.06A18.74,18.74,0,0,1,549.26,418.45Z" transform="translate(0.32 -0.12)"/>
      <path class="cls-5" d="M485.54,405.21a18.89,18.89,0,0,1-3.27-26.34,18.49,18.49,0,0,1,13-7.16A126.75,126.75,0,0,0,399,421.16h0l-.08.1a18.87,18.87,0,0,0,3.26,26.33,18.48,18.48,0,0,0,26.1-3.29l.22-.3h0A89.66,89.66,0,0,1,498,409.24l.24-.12A18.44,18.44,0,0,1,485.54,405.21Z" transform="translate(0.32 -0.12)"/>
      <path class="cls-2" d="M428.3,436.33A18.67,18.67,0,0,1,409,418.27a18.87,18.87,0,0,1,5.42-13.94,128.81,128.81,0,0,0-42.27,100.34h0v.13a18.6,18.6,0,1,0,37.18-1.39c0-.13,0-.25,0-.37v0a91.06,91.06,0,0,1,31-71.64l.1-.25A18.4,18.4,0,0,1,428.3,436.33Z" transform="translate(0.32 -0.12)"/>
      <path class="cls-3" d="M404.27,497.35A18.48,18.48,0,0,1,378,496a18.83,18.83,0,0,1-4.74-14.2A129,129,0,0,0,404.81,586.1h0l.08.1a18.49,18.49,0,0,0,26.28,1.33,18.88,18.88,0,0,0,1.32-26.5l-.26-.28v0a91.31,91.31,0,0,1-21.86-75l-.08-.26A18.74,18.74,0,0,1,404.27,497.35Z" transform="translate(0.32 -0.12)"/>
      <path class="cls-4" d="M424.75,559.62a18.54,18.54,0,0,1-33.64,8.21,127.06,127.06,0,0,0,90.6,59.43h0l.13,0a18.76,18.76,0,0,0,5.09-37.18l-.37,0,0,0A89.91,89.91,0,0,1,422,546.76l-.22-.15A18.84,18.84,0,0,1,424.75,559.62Z" transform="translate(0.32 -0.12)"/>
      <path class="cls-5" d="M480.14,594.09A18.88,18.88,0,0,1,474.27,620a18.37,18.37,0,0,1-14.67,2.23A126.24,126.24,0,0,0,547.51,619a18.82,18.82,0,0,0-3-34.42,18.36,18.36,0,0,0-13.22.69l.19-.2a90.82,90.82,0,0,0,16.66-8.51q-.47.25-.93.54l-.31.21h0a89.27,89.27,0,0,1-77,8.71l-.27,0A18.55,18.55,0,0,1,480.14,594.09Z" transform="translate(0.32 -0.12)"/>
    </g>
    <g id="Circle6">
      <path class="cls-2" d="M555.34,539.89a13.48,13.48,0,0,1,15.26,11.32,13.33,13.33,0,0,1-2.71,10.36,91.66,91.66,0,0,0,21.83-74.77h0s0-.06,0-.09a13.47,13.47,0,0,0-15.25-11.32,13.32,13.32,0,0,0-11.16,15.26c0,.09,0,.18.05.26v0a64.85,64.85,0,0,1-16.19,53.45l-.06.18A13.19,13.19,0,0,1,555.34,539.89Z" transform="translate(0.32 -0.12)"/>
      <path class="cls-1" d="M567.41,494.59a13.31,13.31,0,0,1,18.86-1.14,13.56,13.56,0,0,1,4.56,9.73,92.72,92.72,0,0,0-31.19-71.71h0l-.06-.07a13.31,13.31,0,0,0-18.86,1.14,13.5,13.5,0,0,0,1.26,19l.2.17v0A65.61,65.61,0,0,1,564,503.35l.08.18A13.35,13.35,0,0,1,567.41,494.59Z" transform="translate(0.32 -0.12)"/>
      <path class="cls-3" d="M547.63,451.84A13.3,13.3,0,0,1,571,443.33a91.89,91.89,0,0,0-69.6-35.11h-.09a13.28,13.28,0,0,0-13.63,13.06,13.53,13.53,0,0,0,13.09,13.81H501a65,65,0,0,1,49.66,25.68l.17.09A13.47,13.47,0,0,1,547.63,451.84Z" transform="translate(0.32 -0.12)"/>
      <path class="cls-4" d="M505.24,431.72a13.46,13.46,0,0,1,2-18.88,13.21,13.21,0,0,1,10.29-2.75A90.57,90.57,0,0,0,442.11,428h0l-.07.06a13.45,13.45,0,0,0,16.76,21.05l.2-.17h0a64.1,64.1,0,0,1,54.24-12.29l.18,0A13.39,13.39,0,0,1,505.24,431.72Z" transform="translate(0.32 -0.12)"/>
      <path class="cls-5" d="M460.09,443.62a13.54,13.54,0,0,1-10.52-15.86,13.29,13.29,0,0,1,6.07-8.78,90.94,90.94,0,0,0-46,62.57h0s0,.06,0,.09a13.54,13.54,0,0,0,10.52,15.86A13.26,13.26,0,0,0,435.85,487c0-.09,0-.18,0-.27h0a64.31,64.31,0,0,1,33.44-44.53l.11-.15A13.22,13.22,0,0,1,460.09,443.62Z" transform="translate(0.32 -0.12)"/>
      <path class="cls-2" d="M433.31,481.91a13.47,13.47,0,0,1-19.13-16.1,92.39,92.39,0,0,0,5,77.94h0a.59.59,0,0,1,0,.08A13.34,13.34,0,1,0,442.62,531c0-.08-.09-.16-.14-.24v0a65.36,65.36,0,0,1-3-55.92v-.19A13.25,13.25,0,0,1,433.31,481.91Z" transform="translate(0.32 -0.12)"/>
      <path class="cls-3" d="M437.42,528.77a13.26,13.26,0,0,1-17.29,7.56,13.51,13.51,0,0,1-7.58-7.6,92.53,92.53,0,0,0,53.62,56.84h0l.09,0a13.27,13.27,0,0,0,17.29-7.56,13.56,13.56,0,0,0-7.64-17.44l-.25-.09h0a65.51,65.51,0,0,1-38-41.15l-.13-.14A13.43,13.43,0,0,1,437.42,528.77Z" transform="translate(0.32 -0.12)"/>
      <path class="cls-4" d="M470.49,562.19a13.3,13.3,0,0,1-19,16,91.13,91.13,0,0,0,77.18,9.14h0l.08,0a13.46,13.46,0,0,0-8.62-25.5l-.26.09h0a64.5,64.5,0,0,1-55.29-7.13l-.19,0A13.44,13.44,0,0,1,470.49,562.19Z" transform="translate(0.32 -0.12)"/>
      <path class="cls-5" d="M517.08,566.59a13.53,13.53,0,0,1,4.52,18.48,13.2,13.2,0,0,1-8.71,6.14A90.54,90.54,0,0,0,568.3,561a13.34,13.34,0,0,0,2.3-9.81,13.48,13.48,0,0,0-15.26-11.32,13.19,13.19,0,0,0-8.26,4.67l.06-.18a64.89,64.89,0,0,0,8-10.8c-.15.21-.29.43-.42.65l-.13.23h0a64,64,0,0,1-46.65,30.24l-.16.1A13.27,13.27,0,0,1,517.08,566.59Z" transform="translate(0.32 -0.12)"/>
    </g>
    <g id="Circle7">
      <path class="cls-2" d="M547.81,504.14a9.56,9.56,0,0,1,15.46,8.67,64.9,64.9,0,0,0-13.68-53.41h0l0,0A9.54,9.54,0,0,0,536.17,458a9.43,9.43,0,0,0-1.29,13.32l.12.14v0a45.88,45.88,0,0,1,9.42,38.39l0,.13A9.31,9.31,0,0,1,547.81,504.14Z" transform="translate(0.32 -0.12)"/>
      <path class="cls-1" d="M538.81,472.19a9.43,9.43,0,0,1,11.08-7.5,9.58,9.58,0,0,1,6.28,4.28,65.62,65.62,0,0,0-44.87-32.42h0l-.06,0a9.43,9.43,0,0,0-11.08,7.5,9.57,9.57,0,0,0,7.62,11.1l.18,0h0a46.44,46.44,0,0,1,31.94,23.57l.11.09A9.49,9.49,0,0,1,538.81,472.19Z" transform="translate(0.32 -0.12)"/>
      <path class="cls-3" d="M511.33,453.29a9.43,9.43,0,0,1,11.14-13.6,65.08,65.08,0,0,0-55.06,3.73h0l-.06,0a9.41,9.41,0,0,0-3.59,12.87A9.57,9.57,0,0,0,476.71,460l.17-.1h0a46,46,0,0,1,39.51-2.27h.14A9.61,9.61,0,0,1,511.33,453.29Z" transform="translate(0.32 -0.12)"/>
      <path class="cls-4" d="M478.26,456.33a9.53,9.53,0,0,1-5.58-12.23,9.38,9.38,0,0,1,5.28-5.39,64.1,64.1,0,0,0-39.49,38.14h0a.14.14,0,0,0,0,.06,9.52,9.52,0,0,0,17.8,6.78l.06-.18h0a45.4,45.4,0,0,1,28.6-27.06l.1-.09A9.49,9.49,0,0,1,478.26,456.33Z" transform="translate(0.32 -0.12)"/>
      <path class="cls-5" d="M455.05,479.87A9.59,9.59,0,0,1,442.92,474a9.4,9.4,0,0,1,.54-7.53,64.36,64.36,0,0,0-5.44,54.7h0s0,0,0,.06a9.59,9.59,0,0,0,12.13,5.87,9.39,9.39,0,0,0,5.79-12l-.07-.18h0a45.54,45.54,0,0,1,4.3-39.19l0-.13A9.4,9.4,0,0,1,455.05,479.87Z" transform="translate(0.32 -0.12)"/>
      <path class="cls-2" d="M452.56,512.85A9.54,9.54,0,0,1,435.1,510a65.39,65.39,0,0,0,31.15,45.67h0l.06,0A9.44,9.44,0,1,0,476,539.42l-.16-.1h0a46.27,46.27,0,0,1-22-33l-.07-.12A9.41,9.41,0,0,1,452.56,512.85Z" transform="translate(0.32 -0.12)"/>
      <path class="cls-3" d="M472,539.91a9.38,9.38,0,0,1-7.81,10.84,9.54,9.54,0,0,1-7.35-1.89A65.48,65.48,0,0,0,510,564.13H510a9.38,9.38,0,0,0,7.8-10.84,9.58,9.58,0,0,0-10.94-7.86l-.18,0h0a46.38,46.38,0,0,1-38-11.34l-.13,0A9.51,9.51,0,0,1,472,539.91Z" transform="translate(0.32 -0.12)"/>
      <path class="cls-4" d="M504.17,548.33a9.41,9.41,0,0,1-5.76,16.61,64.48,64.48,0,0,0,50.3-22.27h0l0,0A9.53,9.53,0,0,0,534.3,530.2l-.12.15h0A45.63,45.63,0,0,1,497.93,546l-.12,0A9.62,9.62,0,0,1,504.17,548.33Z" transform="translate(0.32 -0.12)"/>
      <path class="cls-5" d="M534.13,534.2a9.58,9.58,0,0,1,9.42,9.63,9.35,9.35,0,0,1-3.08,6.88,64.14,64.14,0,0,0,22.85-38.38,9.56,9.56,0,0,0-15.51-8.19,9.31,9.31,0,0,0-3.35,5.82l0-.13a46.19,46.19,0,0,0,1-9.45c0,.18,0,.36,0,.54s0,.13,0,.19v0a45.31,45.31,0,0,1-17.5,35.24l-.06.12A9.41,9.41,0,0,1,534.13,534.2Z" transform="translate(0.32 -0.12)"/>
    </g>
    <g id="Circle8">
      <path class="cls-2" d="M530.84,485.81a6.78,6.78,0,0,1,8.79-3.77,6.71,6.71,0,0,1,3.82,3.8,46.14,46.14,0,0,0-27-28.43h0l0,0a6.8,6.8,0,0,0-8.79,3.78,6.71,6.71,0,0,0,3.82,8.72l.12,0h0a32.67,32.67,0,0,1,19.17,20.58l.06.07A6.63,6.63,0,0,1,530.84,485.81Z" transform="translate(0.32 -0.12)"/>
      <path class="cls-1" d="M514.17,469.09a6.72,6.72,0,0,1,4.29-8.5,6.82,6.82,0,0,1,5.38.48,46.72,46.72,0,0,0-39.11-4.58h0a6.7,6.7,0,0,0-4.28,8.5,6.79,6.79,0,0,0,8.57,4.25l.13,0h0a33,33,0,0,1,28,3.57h.1A6.72,6.72,0,0,1,514.17,469.09Z" transform="translate(0.32 -0.12)"/>
      <path class="cls-3" d="M490.56,466.88a6.7,6.7,0,0,1,2.2-12.31A46.29,46.29,0,0,0,459.85,476h0l0,0a6.69,6.69,0,0,0,2.23,9.25,6.81,6.81,0,0,0,9.32-2.21.41.41,0,0,0,.07-.11h0a32.74,32.74,0,0,1,23.75-15.11l.08-.05A6.77,6.77,0,0,1,490.56,466.88Z" transform="translate(0.32 -0.12)"/>
      <path class="cls-4" d="M471.07,480.24a6.79,6.79,0,0,1-7.71-5.67,6.63,6.63,0,0,1,1.41-5.17,45.6,45.6,0,0,0-11.3,37.38h0v0a6.78,6.78,0,0,0,13.41-2c0-.05,0-.09,0-.13h0A32.27,32.27,0,0,1,475.24,478l0-.09A6.76,6.76,0,0,1,471.07,480.24Z" transform="translate(0.32 -0.12)"/>
      <path class="cls-5" d="M464.81,502.9a6.8,6.8,0,0,1-9.56.56A6.62,6.62,0,0,1,453,498.6a45.76,45.76,0,0,0,15.59,35.86h0l0,0a6.82,6.82,0,0,0,9.57-.56,6.69,6.69,0,0,0-.58-9.49l-.11-.08h0a32.37,32.37,0,0,1-10.92-25.83l0-.09A6.66,6.66,0,0,1,464.81,502.9Z" transform="translate(0.32 -0.12)"/>
      <path class="cls-2" d="M474.7,524.25a6.79,6.79,0,0,1-11.85,4.26A46.54,46.54,0,0,0,498,546.07h0a6.72,6.72,0,1,0,.36-13.43h-.14a32.91,32.91,0,0,1-25.1-12.85l-.09,0A6.67,6.67,0,0,1,474.7,524.25Z" transform="translate(0.32 -0.12)"/>
      <path class="cls-3" d="M496.14,534.33a6.68,6.68,0,0,1-1.09,9.44,6.78,6.78,0,0,1-5.23,1.38,46.66,46.66,0,0,0,38.33-8.95h0l0,0a6.68,6.68,0,0,0,1.09-9.44,6.81,6.81,0,0,0-9.52-1.09l-.11.08h0a33,33,0,0,1-27.54,6.14l-.1,0A6.79,6.79,0,0,1,496.14,534.33Z" transform="translate(0.32 -0.12)"/>
      <path class="cls-4" d="M519.06,528.39a6.7,6.7,0,0,1,2.18,12.32,45.87,45.87,0,0,0,23.52-31.28h0v0a6.78,6.78,0,0,0-13.28-2.7s0,.09,0,.13h0a32.5,32.5,0,0,1-17.1,22.26l-.06.07A6.88,6.88,0,0,1,519.06,528.39Z" transform="translate(0.32 -0.12)"/>
      <path class="cls-5" d="M532.77,509.23a6.82,6.82,0,0,1,9.19,2.71,6.63,6.63,0,0,1,.47,5.35,45.64,45.64,0,0,0,.89-31.77,6.8,6.8,0,0,0-12.48.29,6.63,6.63,0,0,0-.06,4.78l-.06-.07a32.75,32.75,0,0,0-2.69-6.2l.18.35.07.11h0a32.27,32.27,0,0,1,1.35,28v.09A6.71,6.71,0,0,1,532.77,509.23Z" transform="translate(0.32 -0.12)"/>
    </g>
    <g id="Circle9">
      <path class="cls-2" d="M512.92,479.23a4.89,4.89,0,0,1,7.66-4.87,33.25,33.25,0,0,0-27.42-6.79h0a4.89,4.89,0,0,0-3.88,5.7,4.84,4.84,0,0,0,5.7,3.81l.09,0h0a23.52,23.52,0,0,1,19.62,5.07h.06A4.78,4.78,0,0,1,512.92,479.23Z" transform="translate(0.32 -0.12)"/>
      <path class="cls-1" d="M496.32,475.54a4.82,4.82,0,0,1-.7-6.82,5,5,0,0,1,3.46-1.8,33.68,33.68,0,0,0-25.53,12.38h0l0,0a4.83,4.83,0,0,0,.7,6.82,4.9,4.9,0,0,0,6.85-.75l.06-.07h0a23.83,23.83,0,0,1,18.39-8.69l.06,0A4.83,4.83,0,0,1,496.32,475.54Z" transform="translate(0.32 -0.12)"/>
      <path class="cls-3" d="M481.12,483.35a4.82,4.82,0,0,1-4.94-4.74,4.88,4.88,0,0,1,1.5-3.59A33.36,33.36,0,0,0,466,500.78h0v0a4.83,4.83,0,0,0,4.94,4.75,4.92,4.92,0,0,0,4.81-5,.28.28,0,0,0,0-.09h0a23.56,23.56,0,0,1,8.56-18.38l0-.07A4.88,4.88,0,0,1,481.12,483.35Z" transform="translate(0.32 -0.12)"/>
      <path class="cls-4" d="M474.46,499a4.88,4.88,0,0,1-6.87-.46,4.78,4.78,0,0,1-1.15-3.68A32.84,32.84,0,0,0,474.07,522h0l0,0a4.88,4.88,0,0,0,7.38-6.39l-.07-.07h0A23.25,23.25,0,0,1,476.13,496l0-.07A4.84,4.84,0,0,1,474.46,499Z" transform="translate(0.32 -0.12)"/>
      <path class="cls-5" d="M479.45,515.2a4.9,4.9,0,0,1-5.59,4,4.79,4.79,0,0,1-3.27-2.07A32.94,32.94,0,0,0,494,532.91h0a4.91,4.91,0,0,0,5.59-4,4.81,4.81,0,0,0-4-5.54h-.11a23.37,23.37,0,0,1-16.64-11.45l-.05,0A4.82,4.82,0,0,1,479.45,515.2Z" transform="translate(0.32 -0.12)"/>
      <path class="cls-2" d="M493.74,524.33a4.89,4.89,0,0,1-5.55,7.18,33.52,33.52,0,0,0,28.17-3h0l0,0a4.84,4.84,0,1,0-5-8.29l-.08,0h0a23.69,23.69,0,0,1-20.22,1.93H491A4.82,4.82,0,0,1,493.74,524.33Z" transform="translate(0.32 -0.12)"/>
      <path class="cls-3" d="M510.66,522.14a4.81,4.81,0,0,1,3,6.15,4.91,4.91,0,0,1-2.64,2.86,33.57,33.57,0,0,0,19.79-20.29h0v0a4.8,4.8,0,0,0-3-6.15,4.92,4.92,0,0,0-6.21,3l0,.09h0a23.77,23.77,0,0,1-14.35,14.4l-.05,0A4.92,4.92,0,0,1,510.66,522.14Z" transform="translate(0.32 -0.12)"/>
      <path class="cls-4" d="M522.27,509.65a4.82,4.82,0,0,1,6.1,6.63,33.07,33.07,0,0,0,2.16-28.11h0l0,0a4.88,4.88,0,0,0-9.11,3.51l0,.09h0a23.4,23.4,0,0,1-1.75,20.14V512A4.91,4.91,0,0,1,522.27,509.65Z" transform="translate(0.32 -0.12)"/>
      <path class="cls-5" d="M523.17,492.7a4.9,4.9,0,0,1,6.63-1.92,4.8,4.8,0,0,1,2.35,3.07,32.79,32.79,0,0,0-11.77-19.63,4.89,4.89,0,0,0-7.46,5,4.78,4.78,0,0,0,1.81,2.92h-.06a23.48,23.48,0,0,0-4-2.73l.24.14.09.05h0a23.21,23.21,0,0,1,11.66,16.46l0,.05A4.79,4.79,0,0,1,523.17,492.7Z" transform="translate(0.32 -0.12)"/>
    </g>
  </g>
</svg>
