<svg id="Ebene_4" data-name="Ebene 4" xmlns="http://www.w3.org/2000/svg" viewBox="0 0 410.662 411.083">
  <defs>
    <style>
      .cls-1, .cls-2 {
        fill: #56c0f4;
        stroke: #7f01d5;
        stroke-miterlimit: 10;
      }

      .cls-1 {
        opacity: 0.89;
      }
    </style>
  </defs>
  <path class="cls-1" d="M1038.392,371.736l32.614,11.584a176.639,176.639,0,0,1,107.947,109.1l.716,2.086h-6.344a176.64,176.64,0,0,0-105.1-108.286l-29.838-11.2Z" transform="translate(-819.971 -156.143)"/>
  <path class="cls-1" d="M1036.52,375.143l29.975,17.3a176.637,176.637,0,0,1,86.394,126.851l.327,2.181-6.239-1.149h0a176.638,176.638,0,0,0-83.738-125.534l-27.314-16.418Z" transform="translate(-819.971 -156.143)"/>
  <path class="cls-1" d="M1030.943,375.482l27.152,21.461a176.637,176.637,0,0,1,67.1,138.03l.007,2.205-6.006-2.041h0A176.638,176.638,0,0,0,1054.533,398.8l-24.647-20.2Z" transform="translate(-819.971 -156.143)"/>
  <path class="cls-1" d="M1028.729,376.46l22.943,25.911a176.641,176.641,0,0,1,41.723,147.7l-.382,2.172-5.553-3.068h0a176.637,176.637,0,0,0-39.62-145.606l-20.7-24.23Z" transform="translate(-819.971 -156.143)"/>
  <path class="cls-1" d="M1025.563,379.528l19.4,28.663a176.641,176.641,0,0,1,22.253,151.855l-.66,2.1-5.109-3.761h0a176.638,176.638,0,0,0-20.439-149.509l-17.39-26.706Z" transform="translate(-819.971 -156.143)"/>
  <path class="cls-1" d="M1023.338,379.347l13.883,31.7a176.645,176.645,0,0,1-5.628,153.374l-1.03,1.949-4.343-4.624h0a176.64,176.64,0,0,0,6.987-150.738L1020.943,381.6Z" transform="translate(-819.971 -156.143)"/>
  <path class="cls-1" d="M1019.75,377.125l9.143,33.38a176.641,176.641,0,0,1-27.791,150.94l-1.3,1.78-3.627-5.2h0a176.64,176.64,0,0,0,28.754-148.136L1017.054,379Z" transform="translate(-819.971 -156.143)"/>
  <path class="cls-1" d="M1017.387,376.6l3.116,34.469a176.64,176.64,0,0,1-53.962,143.678l-1.6,1.523-2.653-5.763h0a176.634,176.634,0,0,0,54.415-140.747l-2.3-31.786Z" transform="translate(-819.971 -156.143)"/>
  <path class="cls-1" d="M1015.635,376.831,1012.5,411.3a176.641,176.641,0,0,1-78.93,131.626l-1.844,1.21-1.572-6.145h0A176.642,176.642,0,0,0,1009,409.328l3.451-31.682Z" transform="translate(-819.971 -156.143)"/>
  <path class="cls-1" d="M1014.027,375.283l-9.329,33.328A176.641,176.641,0,0,1,903.226,523.758l-2.032.856-.433-6.329h0a176.638,176.638,0,0,0,100.855-112.246l9.133-30.532Z" transform="translate(-819.971 -156.143)"/>
  <path class="cls-1" d="M1012.657,371.291,998.6,402.916a176.641,176.641,0,0,1-117.084,99.23l-2.135.553.488-6.325h0A176.641,176.641,0,0,0,995.92,399.925l13.461-28.887Z" transform="translate(-819.971 -156.143)"/>
  <path class="cls-1" d="M1011.16,369.389,991.746,398.04A176.636,176.636,0,0,1,859,475.077l-2.2.169,1.6-6.14h0a176.638,176.638,0,0,0,131.237-74.482l18.342-26.062Z" transform="translate(-819.971 -156.143)"/>
  <path class="cls-1" d="M1006.086,369.7l-24.246,24.7a176.643,176.643,0,0,1-144.424,51.933l-2.193-.23,2.673-5.753h0a176.637,176.637,0,0,0,142.484-49.69l22.726-22.342Z" transform="translate(-819.971 -156.143)"/>
  <path class="cls-1" d="M1005.822,367.479l-28.32,19.9A176.634,176.634,0,0,1,826.06,412.282l-2.115-.623,3.671-5.173h0a176.641,176.641,0,0,0,149.128-23.053l26.4-17.855Z" transform="translate(-819.971 -156.143)"/>
  <path class="cls-1" d="M1007.288,363.522l-30.9,15.582a176.634,176.634,0,0,1-153.453,2.7l-2-.922,4.382-4.588h0a176.64,176.64,0,0,0,150.9-1.2l28.707-13.842Z" transform="translate(-819.971 -156.143)"/>
  <path class="cls-1" d="M1007.333,361.1l-33.166,9.891A176.636,176.636,0,0,1,822.641,346.6l-1.809-1.261,5.121-3.743h0A176.638,176.638,0,0,0,974.7,367.014l30.7-8.565Z" transform="translate(-819.971 -156.143)"/>
  <path class="cls-1" d="M1002.544,358.921l-34.476,3.039a176.642,176.642,0,0,1-143.557-54.282l-1.519-1.6,5.768-2.64h0a176.643,176.643,0,0,0,140.626,54.728l31.791-2.235Z" transform="translate(-819.971 -156.143)"/>
  <path class="cls-1" d="M1002.412,356.378l-34.456-3.257a176.644,176.644,0,0,1-131.347-79.393l-1.2-1.847,6.151-1.551h0a176.643,176.643,0,0,0,128.383,79.3l31.67,3.561Z" transform="translate(-819.971 -156.143)"/>
  <path class="cls-1" d="M1006.1,354.321l-33.62-8.216a176.641,176.641,0,0,1-118.458-97.586l-.924-2,6.311-.644h0a176.64,176.64,0,0,0,115.539,97.066l30.819,8.113Z" transform="translate(-819.971 -156.143)"/>
  <path class="cls-1" d="M1007.7,352.51,976.057,338.5a176.639,176.639,0,0,1-99.4-116.938l-.556-2.134,6.325.479h0a176.636,176.636,0,0,0,96.619,115.912l28.907,13.418Z" transform="translate(-819.971 -156.143)"/>
  <path class="cls-1" d="M1013.425,351.214l-29.456-18.169a176.641,176.641,0,0,1-82.652-129.321l-.263-2.19,6.2,1.332h0a176.636,176.636,0,0,0,80.035,127.926L1014.115,348Z" transform="translate(-819.971 -156.143)"/>
  <path class="cls-1" d="M1018.47,348.739l-26.593-22.151a176.639,176.639,0,0,1-63.541-139.706l.049-2.2,5.952,2.194h0a176.64,176.64,0,0,0,61.148,137.956l24.121,20.828Z" transform="translate(-819.971 -156.143)"/>
  <path class="cls-1" d="M1022.672,349.122l-23.1-25.77a176.638,176.638,0,0,1-42.629-147.438l.368-2.174,5.572,3.033h0a176.637,176.637,0,0,0,40.513,145.36l20.849,24.1Z" transform="translate(-819.971 -156.143)"/>
  <path class="cls-1" d="M1025.02,348.535l-18.2-29.439A176.639,176.639,0,0,1,990.85,166.452l.746-2.075,4.949,3.968h0A176.641,176.641,0,0,0,1010.8,318.571l16.274,27.4Z" transform="translate(-819.971 -156.143)"/>
  <path class="cls-1" d="M1023.642,344.164l-12.51-32.269a176.638,176.638,0,0,1,12.2-152.991l1.113-1.9,4.141,4.806h0a176.637,176.637,0,0,0-13.445,150.3l10.991,29.914Z" transform="translate(-819.971 -156.143)"/>
  <path class="cls-1" d="M1025.77,344.837l-6.457-34a176.642,176.642,0,0,1,39.717-148.249l1.439-1.67,3.2,5.476h0a176.642,176.642,0,0,0-40.453,145.377l5.39,31.41Z" transform="translate(-819.971 -156.143)"/>
  <path class="cls-1" d="M1028.772,347.8l-1.462-34.579a176.638,176.638,0,0,1,60.777-140.93l1.666-1.445,2.374,5.883h0a176.639,176.639,0,0,0-61.09,137.982l.782,31.859Z" transform="translate(-819.971 -156.143)"/>
  <path class="cls-1" d="M1030.958,348.843l4.656-34.3a176.639,176.639,0,0,1,84.667-128.011l1.895-1.128,1.3,6.209h0a176.643,176.643,0,0,0-84.456,125.053l-4.846,31.5Z" transform="translate(-819.971 -156.143)"/>
  <path class="cls-1" d="M1036.184,346.278l9.64-33.24a176.642,176.642,0,0,1,102.542-114.194l2.04-.838.374,6.333h0a176.641,176.641,0,0,0-101.9,111.3l-9.418,30.446Z" transform="translate(-819.971 -156.143)"/>
  <path class="cls-1" d="M1037.467,348.1l15.5-30.943a176.64,176.64,0,0,1,121.535-93.726l2.157-.454-.779,6.3h0a176.637,176.637,0,0,0-120.377,91l-14.778,28.236Z" transform="translate(-819.971 -156.143)"/>
  <path class="cls-1" d="M1038.053,352.283l19.822-28.37a176.645,176.645,0,0,1,133.832-75.128l2.2-.136-1.683,6.116h0a176.639,176.639,0,0,0-132.291,72.594l-18.713,25.8Z" transform="translate(-819.971 -156.143)"/>
  <path class="cls-1" d="M1039.16,354.436,1063.673,330a176.643,176.643,0,0,1,144.979-50.361l2.191.254-2.735,5.723h0a176.642,176.642,0,0,0-143.016,48.139l-22.968,22.094Z" transform="translate(-819.971 -156.143)"/>
  <path class="cls-1" d="M1042.9,351.821l28.828-19.151a176.643,176.643,0,0,1,152.04-20.954l2.1.678-3.8,5.076h0a176.638,176.638,0,0,0-149.679,19.161l-26.854,17.161Z" transform="translate(-819.971 -156.143)"/>
  <path class="cls-1" d="M1042.7,354.045l31.821-13.611a176.639,176.639,0,0,1,153.32,6.938l1.941,1.047-4.661,4.3h0a176.639,176.639,0,0,0-150.673-8.275l-29.519,12.012Z" transform="translate(-819.971 -156.143)"/>
  <path class="cls-1" d="M1040.446,357.613l33.457-8.856a176.641,176.641,0,0,1,150.7,29.079l1.769,1.317-5.236,3.583h0a176.634,176.634,0,0,0-147.884-30.019l-30.947,7.608Z" transform="translate(-819.971 -156.143)"/>
  <path class="cls-1" d="M1039.9,359.972l34.495-2.821a176.641,176.641,0,0,1,143.211,55.188l1.509,1.608-5.785,2.6h0a176.641,176.641,0,0,0-140.277-55.616l-31.8,2.034Z" transform="translate(-819.971 -156.143)"/>
  <path class="cls-1" d="M1041.405,363.475l34.527,2.395a176.644,176.644,0,0,1,133.29,76.085l1.25,1.817-6.111,1.7h0a176.637,176.637,0,0,0-130.325-76.067l-31.748-2.769Z" transform="translate(-819.971 -156.143)"/>
  <path class="cls-1" d="M1040.129,367.383l33.564,8.444a176.638,176.638,0,0,1,117.791,98.388l.911,2.009-6.316.6h0A176.636,176.636,0,0,0,1071.2,378.976l-30.764-8.322Z" transform="translate(-819.971 -156.143)"/>
  <path class="cls-2" d="M1025.608,364.178l3.824,1.359a20.708,20.708,0,0,1,12.657,12.792l.084.244h-.744a20.713,20.713,0,0,0-12.322-12.7l-3.5-1.312Z" transform="translate(-819.971 -156.143)"/>
  <path class="cls-2" d="M1025.389,364.578l3.514,2.028a20.714,20.714,0,0,1,10.13,14.874l.039.256-.732-.135h0a20.711,20.711,0,0,0-9.818-14.719l-3.2-1.925Z" transform="translate(-819.971 -156.143)"/>
  <path class="cls-2" d="M1024.735,364.617l3.183,2.517a20.708,20.708,0,0,1,7.868,16.184v.259l-.7-.24h0a20.713,20.713,0,0,0-7.582-15.986l-2.89-2.369Z" transform="translate(-819.971 -156.143)"/>
  <path class="cls-2" d="M1024.475,364.732l2.69,3.038a20.708,20.708,0,0,1,4.892,17.318l-.044.255-.651-.36h0a20.714,20.714,0,0,0-4.646-17.073l-2.427-2.841Z" transform="translate(-819.971 -156.143)"/>
  <path class="cls-2" d="M1024.1,365.092l2.274,3.361a20.708,20.708,0,0,1,2.609,17.805l-.077.247-.6-.441h0a20.711,20.711,0,0,0-2.4-17.53l-2.039-3.132Z" transform="translate(-819.971 -156.143)"/>
  <path class="cls-2" d="M1023.843,365.071l1.628,3.717a20.709,20.709,0,0,1-.66,17.983l-.121.229-.509-.542h0a20.714,20.714,0,0,0,.819-17.675l-1.438-3.449Z" transform="translate(-819.971 -156.143)"/>
  <path class="cls-2" d="M1023.422,364.81l1.072,3.914a20.709,20.709,0,0,1-3.258,17.7l-.153.209-.425-.61h0a20.71,20.71,0,0,0,3.371-17.37l-.923-3.621Z" transform="translate(-819.971 -156.143)"/>
  <path class="cls-2" d="M1023.145,364.749l.366,4.041a20.713,20.713,0,0,1-6.328,16.847l-.187.178-.311-.675h0a20.712,20.712,0,0,0,6.381-16.5l-.271-3.727Z" transform="translate(-819.971 -156.143)"/>
  <path class="cls-2" d="M1022.94,364.776l-.368,4.041a20.708,20.708,0,0,1-9.255,15.433l-.216.142-.184-.72h0a20.715,20.715,0,0,0,9.245-15.086l.4-3.715Z" transform="translate(-819.971 -156.143)"/>
  <path class="cls-2" d="M1022.751,364.594l-1.094,3.908a20.709,20.709,0,0,1-11.9,13.5l-.239.1-.05-.742h0A20.713,20.713,0,0,0,1021.3,368.2l1.071-3.58Z" transform="translate(-819.971 -156.143)"/>
  <path class="cls-2" d="M1022.591,364.126l-1.649,3.708a20.71,20.71,0,0,1-13.728,11.635l-.251.065.058-.742h0a20.71,20.71,0,0,0,13.607-11.308l1.579-3.387Z" transform="translate(-819.971 -156.143)"/>
  <path class="cls-2" d="M1022.415,363.9l-2.276,3.36a20.712,20.712,0,0,1-15.564,9.032l-.258.02.187-.72h0a20.709,20.709,0,0,0,15.388-8.733l2.15-3.056Z" transform="translate(-819.971 -156.143)"/>
  <path class="cls-2" d="M1021.82,363.939l-2.843,2.9a20.71,20.71,0,0,1-16.934,6.089l-.257-.027.314-.674h0a20.709,20.709,0,0,0,16.706-5.827l2.665-2.619Z" transform="translate(-819.971 -156.143)"/>
  <path class="cls-2" d="M1021.789,363.679l-3.32,2.333a20.71,20.71,0,0,1-17.757,2.92l-.248-.073.43-.606h0a20.715,20.715,0,0,0,17.486-2.7l3.1-2.094Z" transform="translate(-819.971 -156.143)"/>
  <path class="cls-2" d="M1021.961,363.215l-3.623,1.827a20.71,20.71,0,0,1-17.993.317l-.235-.108.514-.538h0a20.711,20.711,0,0,0,17.693-.141l3.366-1.623Z" transform="translate(-819.971 -156.143)"/>
  <path class="cls-2" d="M1021.967,362.931l-3.889,1.16a20.71,20.71,0,0,1-17.767-2.86l-.212-.147.6-.439h0a20.717,20.717,0,0,0,17.441,2.98l3.6-1Z" transform="translate(-819.971 -156.143)"/>
  <path class="cls-2" d="M1021.244,362.6l-4.042.357a20.712,20.712,0,0,1-16.833-6.365l-.178-.187.677-.31h0a20.709,20.709,0,0,0,16.488,6.417l3.728-.262Z" transform="translate(-819.971 -156.143)"/>
  <path class="cls-2" d="M1021.389,362.378l-4.04-.382a20.716,20.716,0,0,1-15.4-9.309l-.141-.217.721-.182h0a20.709,20.709,0,0,0,15.053,9.3l3.713.418Z" transform="translate(-819.971 -156.143)"/>
  <path class="cls-2" d="M1021.821,362.136l-3.942-.963a20.71,20.71,0,0,1-13.889-11.442l-.108-.235.74-.075h0a20.711,20.711,0,0,0,13.547,11.381l3.613.951Z" transform="translate(-819.971 -156.143)"/>
  <path class="cls-2" d="M1022.01,361.924l-3.711-1.643a20.714,20.714,0,0,1-11.655-13.711l-.065-.251.742.057h0a20.708,20.708,0,0,0,11.329,13.59l3.389,1.574Z" transform="translate(-819.971 -156.143)"/>
  <path class="cls-2" d="M1022.681,361.772l-3.454-2.13a20.712,20.712,0,0,1-9.691-15.164l-.031-.256.727.156h0a20.713,20.713,0,0,0,9.385,15l3.145,2.017Z" transform="translate(-819.971 -156.143)"/>
  <path class="cls-2" d="M1023.272,361.482l-3.118-2.6a20.709,20.709,0,0,1-7.45-16.381l.006-.259.7.258h0a20.71,20.71,0,0,0,7.169,16.175l2.829,2.442Z" transform="translate(-819.971 -156.143)"/>
  <path class="cls-2" d="M1023.765,361.527l-2.709-3.022a20.712,20.712,0,0,1-5-17.287l.043-.255.653.355h0a20.711,20.711,0,0,0,4.751,17.044l2.444,2.826Z" transform="translate(-819.971 -156.143)"/>
  <path class="cls-2" d="M1024.04,361.458l-2.133-3.452a20.71,20.71,0,0,1-1.873-17.9l.087-.243.581.465h0a20.714,20.714,0,0,0,1.671,17.615l1.908,3.212Z" transform="translate(-819.971 -156.143)"/>
  <path class="cls-2" d="M1023.879,360.945l-1.467-3.783a20.712,20.712,0,0,1,1.43-17.939l.131-.223.485.564h0a20.711,20.711,0,0,0-1.576,17.623l1.289,3.507Z" transform="translate(-819.971 -156.143)"/>
  <path class="cls-2" d="M1024.128,361.024l-.757-3.986a20.713,20.713,0,0,1,4.657-17.383l.169-.2.375.642h0a20.713,20.713,0,0,0-4.743,17.046l.632,3.683Z" transform="translate(-819.971 -156.143)"/>
  <path class="cls-2" d="M1024.48,361.372l-.171-4.054a20.712,20.712,0,0,1,7.126-16.525l.2-.169.279.69h0a20.71,20.71,0,0,0-7.163,16.178l.091,3.736Z" transform="translate(-819.971 -156.143)"/>
  <path class="cls-2" d="M1024.737,361.494l.545-4.021a20.715,20.715,0,0,1,9.928-15.01l.222-.132.152.728h0a20.712,20.712,0,0,0-9.9,14.663l-.568,3.693Z" transform="translate(-819.971 -156.143)"/>
  <path class="cls-2" d="M1025.349,361.193l1.131-3.9a20.711,20.711,0,0,1,12.023-13.39l.239-.1.044.743h0a20.711,20.711,0,0,0-11.948,13.05l-1.1,3.57Z" transform="translate(-819.971 -156.143)"/>
  <path class="cls-2" d="M1025.5,361.407l1.818-3.628a20.708,20.708,0,0,1,14.25-10.989l.253-.054-.092.739h0a20.709,20.709,0,0,0-14.114,10.669l-1.733,3.311Z" transform="translate(-819.971 -156.143)"/>
  <path class="cls-2" d="M1025.568,361.9l2.325-3.326a20.711,20.711,0,0,1,15.692-8.809l.258-.016-.2.717h0a20.711,20.711,0,0,0-15.511,8.512L1025.94,362Z" transform="translate(-819.971 -156.143)"/>
  <path class="cls-2" d="M1025.7,362.15l2.874-2.865a20.711,20.711,0,0,1,17-5.905l.256.03-.32.671h0a20.712,20.712,0,0,0-16.769,5.644l-2.693,2.591Z" transform="translate(-819.971 -156.143)"/>
  <path class="cls-2" d="M1026.137,361.843l3.38-2.245a20.71,20.71,0,0,1,17.827-2.457l.246.079-.446.6h0a20.707,20.707,0,0,0-17.55,2.246l-3.149,2.012Z" transform="translate(-819.971 -156.143)"/>
  <path class="cls-2" d="M1026.113,362.1l3.731-1.6a20.71,20.71,0,0,1,17.977.814l.228.122-.547.5h0a20.71,20.71,0,0,0-17.666-.97l-3.462,1.408Z" transform="translate(-819.971 -156.143)"/>
  <path class="cls-2" d="M1025.849,362.522l3.923-1.038a20.712,20.712,0,0,1,17.67,3.41l.207.154-.614.42h0a20.712,20.712,0,0,0-17.34-3.52l-3.628.892Z" transform="translate(-819.971 -156.143)"/>
  <path class="cls-2" d="M1025.785,362.8l4.045-.331a20.713,20.713,0,0,1,16.792,6.471l.176.189-.678.305h0a20.709,20.709,0,0,0-16.448-6.521l-3.729.238Z" transform="translate(-819.971 -156.143)"/>
  <path class="cls-2" d="M1025.962,363.21l4.048.281a20.706,20.706,0,0,1,15.628,8.921l.147.213-.716.2h0a20.715,20.715,0,0,0-15.281-8.92l-3.723-.324Z" transform="translate(-819.971 -156.143)"/>
  <path class="cls-2" d="M1025.812,363.668l3.935.99a20.714,20.714,0,0,1,13.812,11.536l.106.236-.74.07h0a20.713,20.713,0,0,0-13.47-11.473l-3.607-.976Z" transform="translate(-819.971 -156.143)"/>
</svg>
