<svg xmlns="http://www.w3.org/2000/svg" viewBox="0 0 342.09 349.09"><defs><style>.cls-1{fill:#b3b3b3;opacity:0.86;}.cls-1,.cls-2{stroke:lime;stroke-miterlimit:10;}.cls-2{fill:#fff;}</style></defs><g id="Ebene_9" data-name="Ebene 9"><ellipse class="cls-1" cx="171.04" cy="174.5" rx="170.54" ry="174"/></g><g id="Ebene_11" data-name="Ebene 11"><path class="cls-2" d="M825.7,403,820,390.2V377.42l5.7-13.63,13.59-12.5,19.4-8.11,20.38-7.1L893.62,330h43.85l14.37,6.08,23.28,10.14,12.62,8.11,10.76,8.17,5,10-12.37-6-17-7.1L963,353.74l-9.22-2.45-12.61-3-15.53-2-10.67-2h-9.7l-21.35,8.12-12.61,7.09-11.8,7.1-8.58,4.06-11.66,6.86s-1.92,12.4-1.92,14.43S839.77,403,839.77,403Z" transform="translate(-676 -267)"/><path class="cls-2" d="M833.59,420.79l-2.91-13.62,2.8-12.28,8.73-11.8,16.39-8.9,21.28-3.35,22-2.14,16-2.51,17.1,3.9L947.69,373l14.24,3.25L975,385.4l21.17,15.09,10.89,10.69,9.41,10.32v10l-8.67-7.84-15.5-10.72-10-8-8.72-4.47-12-5.81-15.15-5.52-10.28-4.4-9.75-2.22-23.23,2.9L889,389.34l-13.41,4.11-9.51,1.93-13.23,3.93s-4.65,11.48-5.1,13.43,0,11.28,0,11.28Z" transform="translate(-676 -267)"/><path class="cls-2" d="M834.72,434.33l.47-13.92,5.71-11.24,11.33-9.33,18.06-4.65,21.46,1.93,21.89,3.26,16.09,1.45,15.64,7.94L957,415.68l13,6.61,10.48,12,16.87,19.79,8,13,7.07,12.22-1.92,11.13L1003,479.43,990.6,465.26l-7.72-10.18-7.38-6.46-10.23-8.56-13.36-9-8.9-6.76-8.92-4.53-23.24-2.83-14.76.36-14,.74-9.7-.44-13.79.59s-7.3,10-8.2,11.79-2.75,10.94-2.75,10.94Z" transform="translate(-676 -267)"/><path class="cls-2" d="M835.08,436.69l6-12.56,9.73-8,14.12-4,18.41,3,18.89,10.36L921,437.23,935.16,445l11.15,13.55,8.28,10.07,9.29,11.28,4.77,15.24L976.18,520l2.08,15.12,1.58,14-6.34,8.31-2.28-12-5.72-18-3-12.43-4.17-8.87-6-12-8.62-13.62-5.44-9.77L932,463.16l-20.15-11.9-13.67-5.59L885,440.73l-8.71-4.29-12.87-5s-10.7,6.24-12.25,7.51-6.9,8.92-6.9,8.92Z" transform="translate(-676 -267)"/><path class="cls-2" d="M830.33,437.33l10.15-9.54,12-4,14.6,1.36,16.1,9.43L897,451.12l13.23,17.75,10.4,12.36,5.5,16.66,4.09,12.38,4.58,13.88-1.06,15.94-2,25.92-3.52,14.85L925.5,595.5l-9,4L918,588l1.16-18.81,1.7-12.68-.68-9.77-1.23-13.29-3.12-15.82-1.54-11.07-3.14-9.5-14.49-18.38-10.73-10.15-10.45-9.35L868.87,452l-10.2-9.3s-12.23,2-14.13,2.58-9.67,5.83-9.67,5.83Z" transform="translate(-676 -267)"/><path class="cls-2" d="M836.36,431.67,849.48,427,862,428.13l12.84,7.09,11,15.08L892,471l5,21.55,4.6,15.49L900,525.46l-1.2,13L897.46,553l-7.33,14.18-12.17,23-9.16,12.21-8.3,12.13-10,1,6-10.75L865.11,588,871.73,577,875,567.8l4.18-12.67,3.46-15.75,3-10.77.92-10-6-22.64-5.77-13.59L869,469.68l-3.16-9.18-5.64-12.59s-12-3.1-14-3.28S835,446.11,835,446.11Z" transform="translate(-676 -267)"/><path class="cls-2" d="M843,428.24l13.77,2.1,10.49,7,7.93,12.34,2.5,18.49-4.43,21.08L867.4,510.6l-3.32,15.81L854.35,541l-7.23,10.86L839,564l-13.2,9L804.2,587.45l-13.87,6.39L777.5,600.5l-10-5,10.91-5.4,15.52-10.68,11-6.48,7.27-6.57,9.71-9.16L832.47,545l7.76-8,5.54-8.32,5.54-22.75,1.38-14.7.91-14,1.57-9.59,1-13.75s-9.08-8.43-10.75-9.54-10.54-4-10.54-4Z" transform="translate(-676 -267)"/><path class="cls-2" d="M845.3,423.46l12.33,6.48,7.64,10,3.48,14.25-3.66,18.29L854,491l-12.45,18.3-8.29,13.87L819.34,533.8,809,541.7l-11.62,8.86-15.41,4.21-25.15,6.6-15.19,1.52-14.1,2.61-11-12,15,2,18.16-5.05,12.53-2.53,9-3.84,12.16-5.5,13.94-8.11,10-5.08,8-6.06,12.64-19.7L834,486.15l5.42-12.93,4.61-8.55L849.48,452s-5.84-10.93-7.06-12.52-8.65-7.23-8.65-7.23Z" transform="translate(-676 -267)"/><path class="cls-2" d="M851.85,420l8.94,10.68,3.26,12.17-2.2,14.51-10.33,15.52-17.26,12.9L815.79,498l-12.94,9.67-16.94,4.54-12.6,3.37-14.12,3.78-15.85-2-25.77-3.46L703,509.53l-14.45-4-3-8,11,1.34,18.72,2.24,12.55,2.42,9.8-.13,13.33-.46,16-2.21,11.14-.91,9.66-2.59,19.18-13.41,10.75-10.13,9.93-9.9L835,457.6l9.86-9.64s-1.25-12.33-1.77-14.26-5.26-10-5.26-10Z" transform="translate(-676 -267)"/><path class="cls-2" d="M861.67,423.37l3.16,13.56-2.59,12.34-8.51,12-16.24,9.18-21.21,3.73-22,2.53-15.91,2.79-17.17-3.6-12.77-2.68-14.3-3-13.25-8.91-21.44-14.72L688.37,436,677.5,426.5l1-10,8.91,7.08L703.1,434l10.11,7.83,8.8,4.31,12.11,5.61L749.37,457l10.35,4.21,9.79,2.06L792.68,460l14.16-4.18,13.33-4.36,9.48-2.09,13.16-4.16s4.45-11.56,4.86-13.52-.19-11.28-.19-11.28Z" transform="translate(-676 -267)"/><path class="cls-2" d="M875.83,418.73l-3.05,13.59-7.69,10-12.86,7.07-18.62,1.22-20.72-5.87L792,437.45,776.43,433l-13.89-10.7-10.34-8-11.57-8.92-8.06-13.79L719.66,369.1l-5.42-14.27-5.92-13.66,5.18-7.67,5.29,9.69,9.59,16.23,5.7,11.44,6.06,7.71,8.46,10.31,11.46,11.35,7.49,8.3,7.92,6.1,22.31,7.09,14.57,2.39,13.9,1.87,9.45,2.23,13.66,2s9-8.49,10.25-10.07,4.73-10.24,4.73-10.24Z" transform="translate(-676 -267)"/><path class="cls-2" d="M869.54,442.78,859.1,452,847,455.55l-14.56-1.83-15.78-9.94-13.33-16.92-12.66-18.17-10-12.69-5-16.83L772,366.66l-4.14-14,1.57-15.9,2.81-25.84,4-14.74,3.23-14.54,9-3.13-1.71,10.92L785,308.19l-2.11,12.61.37,9.79.8,13.32,2.61,15.91,1.19,11.12,2.83,9.59,13.9,18.84L815,409.86l10.15,9.68,6.34,7.35,9.89,9.62s12.29-1.56,14.21-2.13,9.84-5.51,9.84-5.51Z" transform="translate(-676 -267)"/><path class="cls-2" d="M916.73,282.64l8.34,4.1L907.46,293l-19,8.5-12.67,8.89L854.5,323.5l-19.42,12.63-12.45,15.65s-8.13,15.72-8.13,16.72-1.71,18.25-1.71,18.25l-5.41,4.53-2.88-6.78V361.17l10-17.67L825.7,330l16.8-14.5L864.83,302,884.5,291.5Z" transform="translate(-676 -267)"/></g><g id="Ebene_10" data-name="Ebene 10"><ellipse class="cls-2" cx="174.14" cy="172.23" rx="63.39" ry="64.96"/></g></svg>