<?xml version="1.0" encoding="utf-8"?>
<!-- Generator: Adobe Illustrator 25.2.3, SVG Export Plug-In . SVG Version: 6.00 Build 0)  -->
<svg version="1.1" id="Ebene_1" xmlns="http://www.w3.org/2000/svg" xmlns:xlink="http://www.w3.org/1999/xlink" x="0px" y="0px"
	 viewBox="0 0 1000 1000" style="enable-background:new 0 0 1000 1000;" xml:space="preserve">
<style type="text/css">
	.st0{opacity:1;}
	.st1{fill:#909096;}
	.st2{fill:#FFFFFF;}
</style>
<g id="Ebene_1_1_" class="st0">
	<g id="Background">
		<g id="BG">
			<path d="M500,999.5c-275.9-0.2-499.5-224-499.3-500C0.8,299,120.9,117.9,305.6,39.8C559.8-67.6,852.9,51.4,960.2,305.6
				s-11.6,547.3-265.8,654.7C632.9,986.3,566.8,999.6,500,999.5z"/>
			<path d="M500,1c275.7,0.2,499,223.8,498.8,499.4c-0.1,200.4-120.1,381.3-304.6,459.4c-253.9,107.3-546.8-11.6-654-265.6
				s11.6-546.8,265.6-654C367.2,14.2,433.3,0.9,500,1 M500,0C223.9,0,0,223.9,0,500s223.9,500,500,500s500-223.9,500-500
				S776.1,0,500,0z"/>
		</g>
	</g>
	<g id="Spirals">
		<g id="Circle1">
			<path d="M127.3,475.4c-30.9,25.9-76.9,21.8-102.8-9.1c-13-15.5-19-35.7-16.5-55.8c-25.4,140.9,9.6,291.6,108.7,410l0,0l0.3,0.4
				c25.9,30.9,72,34.9,102.8,9s34.9-72,9-102.8l0,0l0,0c-0.3-0.4-0.6-0.7-1-1.1v-0.1c-68.2-81.9-95.7-190.2-74.9-294.8l-0.3-1
				C150.1,447.8,141,464,127.3,475.4z"/>
			<path class="st1" d="M198.6,720.5c-7,39.7-44.9,66.2-84.6,59.2c-19.9-3.5-37.5-15.2-48.5-32.2
				c71.1,124.3,194.9,217.3,346.8,244.2l0,0l0.5,0.1c39.7,7,77.6-19.5,84.6-59.2c7-39.7-19.5-77.6-59.2-84.6l-1.4-0.2l-0.1-0.1
				c-109-19.8-197.2-87.5-246.9-177.6l-0.9-0.6C198.2,684.8,201.7,702.9,198.6,720.5z"/>
			<path class="st2" d="M410.9,862.7c20.1,34.9,8.2,79.6-26.8,99.7c-17.5,10.1-38.5,12.5-57.9,6.6c134.4,49.5,288.9,41.2,422.6-35.8
				l0,0l0.5-0.2c34.9-20.2,46.9-64.8,26.7-99.7c-20.2-34.9-64.8-46.9-99.7-26.7l0,0c-0.4,0.2-0.8,0.5-1.2,0.8H675
				c-92.5,53-204,61.3-303.3,22.7l-1,0.1C387.6,835.5,401.9,847.2,410.9,862.7z"/>
			<path d="M664.7,835c37.9,13.8,57.4,55.7,43.6,93.6c-6.9,19-21.5,34.3-40.1,42.2C802.9,922.3,916,816.6,968.9,671.7l0,0
				c0.1-0.2,0.1-0.3,0.2-0.5c13.8-37.9-5.7-79.8-43.6-93.6s-79.8,5.7-93.6,43.6c-0.2,0.5-0.3,0.9-0.5,1.4l-0.1,0.1
				c-36.8,100-116.9,178-217.8,212.3l-0.8,0.7C629.4,829.1,647.9,828.8,664.7,835z"/>
			<path class="st1" d="M841.3,650.5c37.9-13.8,79.8,5.7,93.6,43.6c6.9,19,5.6,40.1-3.6,58.2c72-123.7,90.7-277.3,38.1-422.4l0,0
				c0-0.2-0.1-0.3-0.2-0.5c-13.9-37.8-55.9-57.2-93.7-43.3c-37.7,13.9-57.1,55.5-43.5,93.3c0.2,0.5,0.4,0.9,0.5,1.4v0.1
				c37.4,104.2,22.8,214.6-30.4,302.6l-0.1,1C810.5,668.7,824.5,656.6,841.3,650.5z"/>
			<path class="st2" d="M858.2,395.9c20.2-34.9,64.8-46.8,99.7-26.7c17.5,10.1,30.1,27.1,34.6,46.8C968.2,275,883.8,145.3,750.2,68
				l0,0c-0.2-0.1-0.3-0.2-0.4-0.3c-34.9-20.2-79.6-8.2-99.7,26.7c-20.2,34.9-8.2,79.6,26.7,99.7l1.3,0.7l0.1,0.1
				c92.1,53.6,155,146,171.2,251.4l0.6,0.9C846.3,429.7,849.3,411.4,858.2,395.9z"/>
			<path d="M707.4,189.9c-7-39.7,19.4-77.6,59.1-84.6c20-3.5,40.5,1.4,56.7,13.6C713.9,26.5,565.9-18.6,413.9,8l0,0l-0.5,0.1
				c-39.8,6.5-66.7,44.1-60.2,83.9c6.5,39.8,44.1,66.7,83.9,60.2l0,0c0.6-0.1,1.1-0.2,1.7-0.3c0.5-0.1,1-0.2,1.4-0.3h0.1
				c105-18.1,212.6,12.2,292.8,82.5l1,0.3C720,223.3,710.5,207.5,707.4,189.9z"/>
			<path class="st1" d="M459.5,129.1c-30.9-25.9-34.9-72-9-102.8c13-15.5,31.9-24.9,52.1-26C359.5-0.2,217.1,60.4,117.8,178.5l0,0
				c-0.1,0.1-0.2,0.2-0.3,0.4c-26,30.8-22.2,76.9,8.6,102.9s76.9,22.2,102.9-8.6c0.1-0.1,0.2-0.3,0.3-0.4c0.3-0.4,0.6-0.8,0.9-1.1
				h0.1c71.6-84.5,174.4-127.1,277.3-125l1-0.4C490.7,146.7,473.2,140.7,459.5,129.1z"/>
			<path class="st2" d="M230.3,241.9c-40.3,0-73-32.7-73-73c0-20.2,8.4-39.6,23.2-53.4C89.2,191.3,27.9,297.3,7.6,414.3
				c-2.6,40.2,27.9,75,68.1,77.6c37.8,2.5,71.2-24.4,76.9-61.8l0.3,1c-4.7,24-7,48.5-6.7,73c0.1-1.4,0.1-2.8,0.1-4.2v-1.6
				c0.4-106.6,48.9-207.3,132.1-274l0.5-0.9C265.5,235.3,248.2,241.9,230.3,241.9z"/>
		</g>
		<g id="Circle2">
			<path d="M267.5,625.3c-8.7,27.1-37.8,42-64.9,33.3c-13.6-4.4-24.8-14.2-30.9-27.2c39,97.4,119.4,172.3,219.2,204.5l0,0l0.3,0.1
				c27.1,8.8,56.2-6,65-33.1c8.8-27.1-6-56.2-33.1-65c-0.1,0-0.2-0.1-0.4-0.1l0,0l-1-0.3h-0.1c-71.6-23.4-128.8-77.8-155.7-148.2
				l-0.5-0.5C270.7,600.3,271.4,613.3,267.5,625.3z"/>
			<path class="st1" d="M402.3,745.2c10.7,26.4-1.9,56.5-28.3,67.2c-13.3,5.4-28.2,5-41.2-1c92.5,49.5,202.2,55.2,299.3,15.7l0,0
				l0.3-0.1c26.5-10.4,39.6-40.4,29.2-66.9s-40.4-39.6-66.9-29.2c-0.2,0.1-0.4,0.2-0.6,0.2c-0.2,0.1-0.4,0.2-0.6,0.2l-0.9,0.4h-0.1
				C522.7,760,443.8,755.1,378,718.4h-0.7C388.6,724,397.5,733.5,402.3,745.2z"/>
			<path class="st2" d="M582.8,750.4c25.2,13.3,34.9,44.5,21.6,69.7c-6.7,12.7-18.4,22.1-32.3,25.8
				c102.7-21.6,190.4-87.7,239.4-180.4l0,0c0.1-0.1,0.1-0.2,0.2-0.3c13.3-25.2,3.7-56.4-21.5-69.7c-25.2-13.3-56.4-3.7-69.7,21.5
				c-0.2,0.3-0.3,0.6-0.5,0.9H720c-35.4,66.5-99,113.4-173,127.6l-0.6,0.4C558.6,742.9,571.6,744.5,582.8,750.4z"/>
			<path d="M724.2,638.4c27.8-6,55.3,11.7,61.3,39.5c3,14,0.1,28.6-8.1,40.4c64.8-82.5,89.5-189.5,67.4-292l0,0l-0.1-0.4
				c-6-27.8-33.5-45.5-61.3-39.5c-27.8,6-45.5,33.4-39.5,61.2c0.1,0.3,0.2,0.7,0.2,1v0.1c15.6,73.7-3,150.5-50.5,208.9l-0.2,0.7
				C700.9,648.1,711.9,641,724.2,638.4z"/>
			<path class="st1" d="M760.6,461.6c17.5-22.5,49.9-26.6,72.4-9.1c11.3,8.8,18.5,21.9,19.7,36.2c-3.4-104.8-53.3-202.7-136.1-267.1
				l0,0l-0.3-0.2c-22.5-17.5-54.9-13.4-72.4,9.1c-17.5,22.5-13.4,54.9,9.1,72.4l0,0c0.3,0.2,0.5,0.4,0.8,0.6v0.1
				c59.3,46.4,94.4,117.2,95.6,192.5l0.3,0.7C748.9,484.1,752.8,471.6,760.6,461.6z"/>
			<path class="st2" d="M674.9,302.9c-1.1-28.5,21.1-52.4,49.6-53.5c14.3-0.5,28.2,4.9,38.3,15c-70-78.1-171.1-121.1-275.9-117.1
				h-0.4c-28.5,1.1-50.7,25-49.6,53.5s25,50.7,53.5,49.6c0.3,0,0.7-0.1,1-0.1h0.1c75.3-2.5,147.7,29.1,197,86l0.7,0.3
				C680.5,327.5,675.4,315.5,674.9,302.9z"/>
			<path d="M507.1,236.3c-19.1-21.1-17.5-53.7,3.6-72.9c10.6-9.6,24.7-14.4,39-13.1c-103.8-14.9-208.9,17.2-286.6,87.6l0,0l-0.3,0.2
				c-21.3,18.9-23.3,51.5-4.4,72.8s51.5,23.3,72.8,4.4c0.3-0.2,0.5-0.5,0.8-0.7c0.3-0.2,0.5-0.5,0.8-0.7h0.1
				c56-50.4,131.8-72.7,206.2-60.8l0.7-0.2C527.3,251.6,515.6,245.7,507.1,236.3z"/>
			<path class="st1" d="M336,293.2c-28.2-3.9-48-29.9-44.1-58.1c1.9-14.2,9.7-27,21.5-35.2c-89.1,55.3-148.9,147.5-163.2,251.4l0,0
				l-0.1,0.4c-3.9,28.2,15.8,54.3,44.1,58.2c28.2,3.9,54.3-15.8,58.2-44.1l0,0c0-0.3,0.1-0.7,0.1-1v-0.1
				c10.6-74.6,54.3-140.4,118.9-179.1l0.4-0.6C361.2,292,348.5,294.9,336,293.2z"/>
			<path class="st2" d="M241.3,446.9c-24.1,15.2-56,7.9-71.1-16.2c-7.6-12.1-9.9-26.9-6.2-40.7c-26.1,79.7-23,166.2,8.9,243.8
				c13.4,25.1,44.7,34.6,69.8,21.2c23.8-12.7,33.8-41.6,22.9-66.3l0.5,0.5c6.2,16.2,14.1,31.6,23.4,46.2c-0.5-0.9-1-1.7-1.5-2.6
				c-0.2-0.3-0.4-0.6-0.6-0.9v-0.1c-39.8-63.9-48.7-142.4-24-213.6l-0.1-0.7C259.9,429.7,252.1,440.2,241.3,446.9z"/>
		</g>
		<g id="Circle3">
			<path d="M410.1,666.2c5.4,19.8-6.2,40.2-26,45.6c-9.8,2.7-20.2,1.2-28.9-4c61.9,42.3,139.3,54.8,211.3,34.2l0,0l0.2-0.1
				c19.6-5.5,31.1-25.8,25.7-45.5c-5.5-19.5-25.7-30.8-45.1-25.3l0,0l-0.3,0.1c-0.2,0.1-0.5,0.1-0.7,0.2h-0.1
				c-51.8,14.6-107.4,5-151.3-26.1l-0.5-0.1C402.2,650.2,407.7,657.6,410.1,666.2z"/>
			<path class="st1" d="M537.8,683.9c16.7,11.4,21,34.1,9.7,50.8c0,0,0,0,0,0l-0.1,0.2c-5.8,8.5-14.9,14.2-25,15.7
				c74.8-7.4,142.5-47.4,185.1-109.3l0,0l0.2-0.2c11.5-16.6,7.4-39.4-9.2-50.9c0,0,0,0,0,0L698,590c-16.9-11.4-39.8-7-51.3,9.9
				l-0.4,0.6l0,0c-30.7,44.4-79.7,72.7-133.5,77.1l-0.5,0.3C521.3,676.7,530.3,678.8,537.8,683.9z"/>
			<path class="st2" d="M647.7,615.4c20.1-2.1,38.1,12.4,40.2,32.5c1.1,10.3-2.2,20.5-9.1,28.2c51-51.6,79.6-124.4,72.2-201.8l0,0
				c0-0.1,0-0.2,0-0.2c-2-20.1-19.8-34.8-39.9-32.8c0,0,0,0,0,0l-0.4,0c-20.3,2.1-35.1,20.1-33.2,40.4c0,0.2,0.1,0.5,0.1,0.7v0
				c5.1,55.5-16,107.7-53.3,144.2l-0.2,0.5C630.4,620.5,638.7,616.3,647.7,615.4z"/>
			<path d="M688.3,492.9c14.2-14.6,37.5-15,52.2-0.8c7.3,7.1,11.3,16.9,11,27.1c6-71.9-18.9-145.6-74.4-199.8l0,0l-0.2-0.2
				c-15-13.9-38.4-13.1-52.3,1.9c-13.4,14.4-13.2,36.8,0.5,50.9c0.2,0.2,0.4,0.3,0.5,0.5v0.1c38.3,37.5,57.4,90.5,51.9,143.8
				l0.2,0.5C678.2,507.9,681.9,499.4,688.3,492.9z"/>
			<path class="st1" d="M640.5,373.8c1.7-20.3,19.4-35.5,39.7-34.1c10.2,0.7,19.6,5.6,26,13.6C662.9,292.5,594.5,254.2,520,249h-0.2
				c-20.3-1.4-38,13.8-39.7,34.1c-1.6,20.1,13.4,37.6,33.4,39.3c0.1,0,0.3,0,0.4,0h0.8c53.5,3.9,102.4,31.9,132.8,76.2l0.5,0.3
				C642.4,391.7,639.8,382.8,640.5,373.8z"/>
			<path class="st2" d="M527,313.7c-11.8-16.7-7.7-39.8,9-51.6c8.3-5.8,18.5-8,28.5-6c-72.8-18.5-150-3.9-211,40l0,0l-0.2,0.1
				c-16.6,11.6-20.7,34.5-9.1,51.1c11.6,16.6,34.5,20.7,51.1,9.1c0,0,0.1-0.1,0.1-0.1c0.2-0.2,0.5-0.3,0.7-0.5l0.6-0.5h0.1
				c43.9-31.3,99.5-41.3,151.6-27.2l0.5-0.1C540,326.1,532.2,321,527,313.7z"/>
			<path d="M400.5,340.8c-19.5-4.9-31.4-24.6-26.6-44.2c0-0.2,0.1-0.3,0.1-0.5c2.6-9.9,9.1-18.4,18.2-23.3
				c-67.8,32.3-118,92.9-136.9,165.5l0,0c0,0.1,0,0.2-0.1,0.2c-5.1,19.5,6.5,39.4,26,44.5c0,0,0,0,0,0c0.1,0,0.3,0.1,0.5,0.1
				c19.8,4.9,39.9-7,45-26.7c0.1-0.2,0.1-0.5,0.2-0.7l0,0c13.8-52.2,50.3-95.4,99.4-117.8l0.3-0.4
				C418.6,341.9,409.3,343,400.5,340.8z"/>
			<path class="st1" d="M320.6,442.3c-18.1,9-40,1.5-49-16.6c-4.6-9.3-5-20.1-1.2-29.7c-30.3,65.8-32.3,143.7,1.2,213.7l0,0
				c0,0.1,0.1,0.2,0.1,0.2c8.9,18.4,31,26.1,49.4,17.2c18.4-8.9,26.1-31,17.2-49.4c-0.1-0.2-0.2-0.4-0.3-0.7l0,0
				c-23.8-50.3-21.8-106.4,0.7-153.2v-0.5C335.2,431.6,328.7,438.4,320.6,442.3z"/>
			<path class="st2" d="M324.3,570.9c-8.5,18.5-30.3,26.8-48.9,18.6c-9.3-4.1-16.5-12-19.7-21.7c15.7,57.6,51.6,107.6,101.1,141
				c18.1,9.6,40.6,2.8,50.2-15.3c4.4-8.3,5.5-18.1,3.1-27.2c-2.4-8.7-7.9-16.2-15.5-21l0.5,0.1c10.1,7.1,20.8,13.2,32.2,18.1
				c-0.6-0.3-1.3-0.6-1.9-0.9l-0.7-0.3l0,0c-48.9-22-85.1-65.1-98.3-117.1l-0.3-0.4C328.7,553.4,328.1,562.7,324.3,570.9z"/>
		</g>
		<g id="Circle4">
			<path d="M488.3,634.3c9.1,11.4,7.3,28.1-4.1,37.2c-5.6,4.5-12.9,6.5-20,5.6c52.5,10.1,106.8-3.7,148.1-37.7l0,0l0.1-0.1
				c11.3-9.2,13-25.7,3.9-37.1c-9.1-11.2-25.6-12.9-36.8-3.8l-0.2,0.1l-0.4,0.3l0,0c-29.8,24.3-68.9,33.8-106.5,25.9l-0.4,0.1
				C478.5,626,484.3,629.3,488.3,634.3z"/>
			<path class="st1" d="M576.9,609.6c14.2,2.7,23.5,16.4,20.8,30.5c0,0,0,0,0,0c0,0.1,0,0.2,0,0.2c-1.4,7.2-5.7,13.5-11.9,17.4
				c46.9-26.1,79.9-71.6,90.2-124.2l0,0c0-0.1,0-0.1,0-0.2c2.8-14.1-6.4-27.9-20.5-30.7l-0.2,0c-14.3-2.6-28.1,6.8-30.8,21.1
				l-0.1,0.5l0,0c-7.5,37.8-31.6,70.2-65.5,88.4l-0.2,0.3C564,609.5,570.6,608.4,576.9,609.6z"/>
			<path class="st2" d="M629.5,533.5c12.5-7.1,28.5-2.7,35.6,9.9c3.6,6.4,4.4,14.1,2.1,21.1c19.5-49.9,15.8-105.8-10-152.7l0,0
				l-0.1-0.2c-7-12.6-22.9-17.1-35.4-10.1c0,0,0,0,0,0c-0.1,0-0.2,0.1-0.2,0.1c-12.7,7.1-17.3,23.1-10.3,35.9l0.3,0.5l0,0
				c18.4,33.7,20.7,74,6.1,109.6v0.4C619.5,541.8,623.8,536.7,629.5,533.5z"/>
			<path d="M621.2,441.8c5.2-13.6,20.3-20.5,33.9-15.4c6.8,2.6,12.2,7.9,14.9,14.6c-17-50.5-55.7-90.8-105.5-109.7l0,0l-0.2-0.1
				c-13.6-5.2-28.9,1.7-34,15.4c-5.1,13.6,1.6,28.7,15.2,34l0.5,0.2l0,0c35.7,13.7,63.3,42.9,74.9,79.4l0.3,0.3
				C618.8,454.4,618.9,447.8,621.2,441.8z"/>
			<path class="st1" d="M556.1,377.3c-4.7-13.8,2.6-28.8,16.3-33.6c6.9-2.5,14.5-1.9,20.9,1.5c-45.7-27.5-101.4-33.2-151.7-15.3
				h-0.2c-13.7,4.8-21,19.8-16.3,33.6c4.6,13.6,19.4,20.9,33,16.2c0,0,0,0,0,0c0.1,0,0.2-0.1,0.4-0.1c0.2,0,0.3-0.1,0.5-0.2l0,0
				c36.2-12.7,76.1-8.2,108.6,12.1h0.4C562.4,388.4,558.1,383.4,556.1,377.3z"/>
			<path class="st2" d="M464.6,370.2c-12.5-7.6-16.4-23.9-8.7-36.4c3.8-6.1,9.9-10.5,16.9-12c-52.9,8.6-99.3,40.1-126.8,86.1l0,0
				l-0.1,0.1c-7.6,12.3-3.7,28.5,8.7,36s28.5,3.7,36-8.7c0.1-0.2,0.2-0.3,0.3-0.5l0.3-0.5l0,0c19.8-33,53.4-55.3,91.5-60.8l0.3-0.2
				C476.7,374.7,470.1,373.5,464.6,370.2z"/>
			<path d="M389.5,423.9c-14.2,2.4-27.6-7.2-29.9-21.3c0-0.1,0-0.2-0.1-0.4c-1.1-7.2,0.8-14.6,5.3-20.4
				c-35.3,40.4-50.9,94.3-42.6,147.3l0,0v0.2c2.2,14.2,15.4,23.9,29.6,21.8l0.4-0.1c14.4-2.4,24.1-15.9,21.9-30.3
				c0-0.2-0.1-0.3-0.1-0.5l0,0c-5.8-38.1,5.8-76.7,31.6-105.4l0.1-0.4C401.6,419.5,395.8,422.8,389.5,423.9z"/>
			<path class="st1" d="M366,513.1c-9.3,11-25.8,12.3-36.8,3c-5.6-4.8-9-11.7-9.2-19.1c-1.4,53.4,21.2,104.6,61.5,139.6l0,0l0.1,0.1
				c11.3,9.2,27.9,7.6,37.2-3.7c8.9-10.9,7.7-26.8-2.7-36.3c-0.1-0.1-0.3-0.2-0.4-0.3l0,0c-28.9-25.3-44.7-62.2-43.1-100.6l-0.1-0.3
				C372.5,502,370.2,508.2,366,513.1z"/>
			<path class="st2" d="M405,596.3c-0.3,14.5-12.2,26.2-26.7,26.1c-7.3-0.1-14.2-3.2-19-8.6c26.7,33.2,64.4,55.8,106.3,63.6
				c14.6,1.2,27.4-9.7,28.5-24.3c0.5-6.7-1.5-13.4-5.7-18.7c-4-5-9.8-8.3-16.1-9.3l0.4-0.1c8.6,1.8,17.4,2.7,26.2,2.7
				c-0.5,0-1-0.1-1.5-0.1h-0.5c-38.3-0.5-74.2-18.4-97.7-48.7l-0.3-0.2C402.9,583.6,405.1,589.8,405,596.3z"/>
		</g>
		<g id="Circle5">
			<path d="M544.8,584.5c9.9,3.3,15.2,13.9,11.9,23.8c-1.6,4.9-5.1,8.9-9.8,11.1c35.2-14.3,62.2-43.5,73.7-79.7l0,0v-0.1
				c3.2-9.8-2.2-20.4-12-23.6c-9.8-3.1-20.2,2.2-23.4,12l0,0.1c0,0.1-0.1,0.2-0.1,0.4l0,0c-8.4,26-28,46.8-53.5,56.6l-0.2,0.2
				C535.7,583.3,540.5,583,544.8,584.5z"/>
			<path class="st1" d="M588,535.5c9.5-3.9,20.3,0.6,24.2,10.1c0,0,0,0,0,0c0,0.1,0.1,0.1,0.1,0.2c2,4.8,1.8,10.3-0.4,15
				c17.8-33.7,19.9-73.5,5.7-108.9l0,0v-0.1c-3.8-9.5-14.5-14.2-24.1-10.4c0,0,0,0,0,0l-0.2,0.1c-9.5,4-14.1,14.9-10.2,24.5
				c0,0.1,0.1,0.2,0.1,0.3l0,0c10.1,25.4,8.3,54-4.9,78v0.3C580.4,540.4,583.8,537.2,588,535.5z"/>
			<path class="st2" d="M590,469.8c4.7-9.1,15.9-12.6,25-7.9c4.6,2.4,8.1,6.7,9.4,11.8c-7.7-37.2-31.5-69.1-65-87.1l0,0l-0.1-0.1
				c-9-4.8-20.2-1.4-25.1,7.6c0,0,0,0,0,0l-0.1,0.2c-4.8,9.1-1.4,20.5,7.8,25.4l0.3,0.2l0,0c24,13,40.9,36.1,46,62.9l0.2,0.2
				C587.3,478.6,587.8,473.9,590,469.8z"/>
			<path d="M549.6,418.3c-2.2-10.1,4.2-20.1,14.3-22.3c5.1-1.1,10.3,0,14.5,3c-29.6-23.6-68.3-32.6-105.3-24.6H473
				c-10.1,2.1-16.6,12.1-14.5,22.2s12.1,16.6,22.2,14.5c0,0,0.1,0,0.1,0l0,0l0.4-0.1l0,0c26.6-5.6,54.3,1.1,75.3,18.4l0.3,0.1
				C553.1,426.8,550.5,422.8,549.6,418.3z"/>
			<path class="st1" d="M485.9,405.1c-8.1-6.4-9.6-18.1-3.3-26.3c3.1-4.1,7.9-6.7,13-7.2c-37.9,1.3-73.2,19.4-96.3,49.5l0,0
				l-0.1,0.1c-6.3,8.2-4.9,19.9,3.3,26.3c8,6.3,19.6,4.9,25.9-3.1c0,0,0,0,0,0c0.1-0.1,0.1-0.1,0.1-0.2l0.2-0.3l0,0
				c16.7-21.5,42.3-34.3,69.5-34.8l0.2-0.1C494,409.3,489.5,407.9,485.9,405.1z"/>
			<path class="st2" d="M428.6,436.2c-10.3,0.4-18.9-7.7-19.3-18v0c-0.2-5.2,1.8-10.2,5.4-13.9c-28.2,25.6-43.7,62.3-42.3,100.3l0,0
				v0.1c0.4,10.3,9,18.3,19.3,17.9c10.3-0.4,18.3-9,17.9-19.3l0,0v-0.4l0,0c-0.9-27.3,10.4-53.6,31-71.6l0.1-0.2
				C437.5,434.2,433.2,436,428.6,436.2z"/>
			<path d="M404.6,497.2c-7.5,6.9-19.2,6.4-26.1-1.2c-0.1-0.1-0.1-0.1-0.2-0.2c-3.5-3.9-5.2-9-4.7-14.2
				c-5.4,37.7,6.1,75.9,31.5,104.3l0,0l0.1,0.1c6.8,7.6,18.5,8.3,26.1,1.5c0.1-0.1,0.1-0.1,0.2-0.2c7.6-7,8.2-18.8,1.3-26.5
				l-0.3-0.3l0,0c-18.2-20.5-26.2-48-21.9-75l-0.1-0.3C410.1,489.9,408,494.1,404.6,497.2z"/>
			<path class="st1" d="M425.1,559.5c-1.3,10.2-10.6,17.3-20.7,16.1c-5.2-0.7-9.9-3.5-12.9-7.8c19.8,32.3,53,54.1,90.6,59.4h0.1
				c10.3,1.4,19.7-5.8,21.1-16c1.4-10.3-5.8-19.7-16-21.1l0,0h-0.4c-27-3.9-50.7-19.8-64.6-43.3l-0.2-0.2
				C424.6,550.3,425.7,554.9,425.1,559.5z"/>
			<path class="st2" d="M480.5,594c5.5,8.8,2.9,20.3-5.9,25.9c-4.4,2.8-9.7,3.6-14.7,2.2c28.7,9.5,59.9,8.4,87.9-3.2
				c9.1-4.9,12.6-16.4,7.6-25.5c-2.3-4.2-6.1-7.4-10.6-8.9c-4.3-1.4-9.1-1.2-13.2,0.7l0.2-0.2c5.8-2.3,11.4-5.1,16.7-8.5
				c-0.3,0.2-0.6,0.3-0.9,0.5l-0.3,0.2l0,0c-23,14.5-51.3,17.7-77,8.7h-0.3C474.3,587.2,478.1,590.1,480.5,594z"/>
		</g>
		<g id="Circle6">
			<path d="M555.7,539.8c7.3-1.1,14.1,4,15.3,11.3c0.6,3.7-0.4,7.4-2.7,10.4c18-20.4,26-47.8,21.8-74.8l0,0v-0.1
				c-1.1-7.3-7.9-12.4-15.2-11.3c-7.3,1.1-12.3,7.9-11.2,15.2c0,0,0,0,0,0l0,0.1c0,0.1,0,0.2,0,0.3l0,0c2.9,19.3-3,39-16.2,53.5
				l-0.1,0.2C549.5,541.9,552.4,540.2,555.7,539.8z"/>
			<path class="st1" d="M567.7,494.5c4.9-5.5,13.3-6.1,18.8-1.2l0.1,0.1c2.8,2.5,4.4,6,4.6,9.7c0.7-27.3-10.7-53.6-31.2-71.7l0,0
				l-0.1-0.1c-5.5-4.9-13.9-4.4-18.8,1.1l-0.1,0.1c-4.9,5.6-4.3,14.1,1.3,19l0.2,0.2l0,0c14.6,13.1,22.6,32,21.8,51.6l0.1,0.2
				C564.4,500.1,565.6,496.9,567.7,494.5z"/>
			<path class="st2" d="M548,451.7c0.1-7.3,6.1-13.2,13.5-13.1c3.8,0.1,7.4,1.7,9.9,4.6c-16.8-21.5-42.3-34.3-69.6-35.1h-0.1
				c-7.3-0.2-13.4,5.6-13.6,12.9c0,0,0,0,0,0v0.1c-0.2,7.4,5.7,13.6,13.1,13.8h0.2c19.6,0.6,37.8,10.1,49.7,25.7l0.2,0.1
				C549,458.2,547.9,455,548,451.7z"/>
			<path d="M505.6,431.6c-4.6-5.8-3.7-14.2,2-18.9c2.9-2.3,6.6-3.3,10.3-2.8c-26.6-5.6-54.2,0.9-75.4,17.9l0,0l-0.1,0.1
				c-5.8,4.7-6.7,13.1-2,18.9c4.6,5.7,13,6.7,18.8,2.1l0.2-0.2l0,0c15.3-12.1,35.2-16.7,54.2-12.3h0.2
				C510.5,435.9,507.6,434.2,505.6,431.6z"/>
			<path class="st1" d="M460.4,443.5c-7.3-1.5-11.9-8.6-10.5-15.9c0.7-3.6,2.9-6.8,6.1-8.8c-23.9,12.9-40.8,35.9-46,62.6l0,0v0.1
				c-1.4,7.3,3.3,14.3,10.5,15.9c7.2,1.5,14.2-3.1,15.7-10.3c0,0,0,0,0,0c0-0.1,0-0.1,0-0.2v-0.3l0,0c3.8-19.2,16.1-35.5,33.4-44.5
				l0.1-0.1C466.9,443.6,463.6,444.1,460.4,443.5z"/>
			<path class="st2" d="M433.6,481.8c-6.6,3.5-14.7,1-18.2-5.6c-1.7-3.2-2.1-7.1-0.9-10.5c-9.9,25.4-8.1,54,5,77.9l0,0
				c0,0,0,0.1,0,0.1c3.5,6.5,11.6,8.9,18.1,5.4c6.5-3.5,8.9-11.6,5.4-18.1c0,0,0-0.1-0.1-0.1c0-0.1-0.1-0.2-0.1-0.2l0,0
				c-9.3-17.2-10.4-37.8-3-55.9v-0.2C438.7,477.6,436.5,480.2,433.6,481.8z"/>
			<path d="M437.7,528.7c-2.6,6.8-10.3,10.2-17.1,7.6l-0.2-0.1c-3.5-1.4-6.2-4.1-7.6-7.6c8.6,25.9,28.2,46.7,53.6,56.8h0.1
				c6.8,2.7,14.5-0.6,17.2-7.4c0,0,0,0,0,0l0.1-0.1c2.6-6.9-0.8-14.7-7.6-17.4l-0.2-0.1l0,0c-18.2-7.3-32.1-22.4-38-41.2l-0.1-0.1
				C439,522.2,439,525.6,437.7,528.7z"/>
			<path class="st1" d="M470.8,562.1c2.4,6.9-1.3,14.5-8.2,16.9c-3.6,1.2-7.5,0.9-10.8-0.9c23.1,14.4,51.4,17.8,77.2,9.1h0.1
				c7-2.5,10.7-10.2,8.2-17.2c-2.4-6.9-9.9-10.6-16.8-8.3l-0.3,0.1l0,0c-18.6,6.1-38.9,3.5-55.3-7.1h-0.2
				C467.6,556.3,469.8,558.9,470.8,562.1z"/>
			<path class="st2" d="M517.4,566.5c6.3,3.9,8.3,12.1,4.5,18.5c-1.9,3.2-5.1,5.4-8.7,6.1c21.5-3.1,41.2-13.8,55.4-30.2
				c2-2.8,2.8-6.4,2.3-9.8c-1.1-7.3-7.9-12.4-15.3-11.3c-3.2,0.5-6.2,2.1-8.3,4.7l0.1-0.2c3-3.3,5.7-6.9,8-10.8
				c-0.2,0.2-0.3,0.4-0.4,0.7l-0.1,0.2l0,0c-10.1,16.7-27.3,27.8-46.6,30.2l-0.2,0.1C511.3,564.1,514.6,564.7,517.4,566.5z"/>
		</g>
		<g id="Circle7">
			<path d="M548.1,504c4.1-3.3,10.1-2.6,13.4,1.5c1.6,2,2.3,4.6,2,7.2c3.6-19-1.4-38.5-13.7-53.4l0,0c-3.3-4.1-9.3-4.7-13.4-1.4
				c0,0,0,0,0,0l0,0c-4,3.3-4.6,9.2-1.3,13.3l0,0.1l0.1,0.1l0,0c8.8,10.7,12.2,24.8,9.4,38.4v0.1C545.1,507.6,546.3,505.5,548.1,504
				z"/>
			<path class="st1" d="M539.1,472.1c1-5.1,5.9-8.5,11-7.5l0.1,0c2.6,0.5,4.9,2,6.3,4.3c-9.4-16.9-25.9-28.8-44.9-32.4h-0.1
				c-5.1-1-10.1,2.3-11.1,7.4l0,0.1c-0.9,5.2,2.5,10.1,7.6,11.1h0.2c13.6,2.7,25.4,11.3,31.9,23.6l0.1,0.1
				C539.1,476.7,538.7,474.3,539.1,472.1z"/>
			<path class="st2" d="M511.6,453.2c-2.6-4.5-1-10.3,3.6-12.8c2.3-1.3,5-1.6,7.6-0.8c-18-7-38.2-5.6-55.1,3.7h-0.1
				c-4.5,2.5-6.2,8.3-3.6,12.8l0,0.1c2.6,4.6,8.3,6.2,13,3.7l0.2-0.1l0,0c12.2-6.7,26.7-7.5,39.5-2.3h0.1
				C514.6,456.7,512.8,455.2,511.6,453.2z"/>
			<path d="M478.6,456.2c-4.9-1.8-7.4-7.3-5.6-12.2c0.9-2.5,2.8-4.4,5.3-5.4c-18.2,6.1-32.7,20.1-39.5,38.1l0,0c0,0,0,0,0,0.1
				c-1.9,4.9,0.5,10.4,5.4,12.3c4.9,1.9,10.4-0.5,12.3-5.4c0,0,0-0.1,0-0.1l0.1-0.2l0,0c4.9-12.9,15.4-22.9,28.6-27.1l0.1-0.1
				C483.2,457.1,480.8,457.1,478.6,456.2z"/>
			<path class="st1" d="M455.4,479.8c-5,1.7-10.4-0.9-12.1-5.9c-0.9-2.5-0.7-5.2,0.5-7.5c-9.9,16.5-11.9,36.6-5.4,54.7l0,0v0.1
				c1.8,4.9,7.2,7.6,12.1,5.9c4.9-1.7,7.5-7,5.8-11.9l0-0.1l-0.1-0.2l0,0c-4.6-13-3-27.5,4.3-39.2v-0.1
				C459.4,477.5,457.5,479,455.4,479.8z"/>
			<path class="st2" d="M452.9,512.7c-2.7,4.5-8.6,5.9-13.1,3.2c-2.2-1.3-3.8-3.5-4.4-6.1c3.1,19.1,14.5,35.8,31.1,45.7h0.1
				c4.5,2.7,10.3,1.3,13-3.2c2.7-4.5,1.3-10.3-3.2-13c0,0-0.1,0-0.1,0l0,0l-0.2-0.1l0,0c-11.9-7.1-20-19.3-22-33l-0.1-0.1
				C454.5,508.4,454.1,510.7,452.9,512.7z"/>
			<path d="M472.3,539.8c0.9,5.1-2.6,9.9-7.7,10.8c0,0,0,0,0,0l-0.1,0c-2.6,0.4-5.3-0.3-7.4-1.9c14.6,12.7,34.1,18.3,53.2,15.3l0,0
				c5.1-0.8,8.6-5.6,7.8-10.7c0,0,0-0.1,0-0.1c-0.9-5.2-5.8-8.7-10.9-7.9H507c-13.7,2.1-27.7-2.1-38-11.3h-0.1
				C470.7,535.4,471.9,537.5,472.3,539.8z"/>
			<path class="st1" d="M504.5,548.2c4,3.3,4.5,9.3,1.2,13.3c-1.7,2-4.2,3.3-6.9,3.4c19.3,0.5,37.7-7.7,50.3-22.3l0,0
				c3.4-4,2.8-10.1-1.2-13.4c-3.9-3.3-9.8-2.9-13.2,1l-0.1,0.2l0,0c-9.1,10.4-22.4,16.2-36.2,15.7h-0.1
				C500.5,545.9,502.7,546.7,504.5,548.2z"/>
			<path class="st2" d="M534.5,534.1c5.2,0.1,9.4,4.4,9.4,9.6c0,2.6-1.1,5.1-3.1,6.9c12-9.6,20.1-23.3,22.8-38.4
				c0.4-5.3-3.5-9.9-8.8-10.3c-2.4-0.2-4.8,0.6-6.7,2.1c-1.8,1.5-3,3.5-3.3,5.8v-0.1c0.7-3.1,1-6.3,1-9.5v0.7l0,0
				c-0.2,13.8-6.6,26.8-17.5,35.2l-0.1,0.1C530,534.9,532.2,534.1,534.5,534.1z"/>
		</g>
		<g id="Circle8">
			<path d="M531.2,485.7c1.4-3.5,5.3-5.1,8.8-3.8c1.7,0.7,3.1,2.1,3.8,3.8c-4.3-13-14.2-23.4-27-28.4l0,0c-3.5-1.4-7.4,0.3-8.8,3.8
				c-1.4,3.4,0.3,7.3,3.8,8.7l0,0h0.1c9.2,3.6,16.2,11.2,19.2,20.6l0.1,0.1C530.6,488.9,530.6,487.2,531.2,485.7z"/>
			<path class="st1" d="M514.5,469c-1.2-3.5,0.7-7.3,4.3-8.5l0,0c1.8-0.6,3.7-0.4,5.4,0.5c-11.7-7.2-26-8.9-39.1-4.6l0,0
				c-3.5,1.1-5.4,4.9-4.3,8.4c0,0,0,0,0,0l0,0.1c1.2,3.5,5,5.4,8.6,4.2h0.1c9.4-3.1,19.7-1.8,28,3.6h0.1
				C516.1,471.9,515,470.5,514.5,469z"/>
			<path class="st2" d="M490.9,466.8c-3.2-1.9-4.2-6-2.3-9.2c1-1.6,2.6-2.7,4.5-3.1c-13.6,1.9-25.7,9.8-32.9,21.4l0,0
				c-1.9,3.1-1,7.3,2.2,9.2l0.1,0c3.2,1.9,7.3,1,9.3-2.2c0,0,0.1-0.1,0.1-0.1l0,0c5.2-8.4,14-13.9,23.8-15.1l0.1,0
				C494,467.9,492.3,467.6,490.9,466.8z"/>
			<path d="M471.4,480.1c-3.7,0.6-7.1-2-7.7-5.7c-0.3-1.8,0.2-3.7,1.4-5.2c-9.2,10.1-13.3,23.9-11.3,37.4l0,0
				c0.6,3.7,4.1,6.2,7.8,5.6c3.6-0.6,6.1-4,5.6-7.6v-0.1l0,0c-1.4-9.7,1.7-19.5,8.4-26.6v-0.1C474.5,479,473,479.9,471.4,480.1z"/>
			<path class="st1" d="M465.1,502.8c-2.5,2.8-6.8,3-9.6,0.6c-1.4-1.2-2.2-3-2.2-4.9c-0.4,13.7,5.3,26.8,15.6,35.9l0,0
				c2.8,2.5,7.1,2.2,9.6-0.6c2.5-2.8,2.2-7-0.5-9.4l0,0l-0.1-0.1l0,0c-7.4-6.5-11.4-16-10.9-25.8v-0.1
				C466.9,500,466.2,501.6,465.1,502.8z"/>
			<path class="st2" d="M475,524.1c-0.1,3.7-3.3,6.7-7,6.5c-1.8-0.1-3.6-0.9-4.8-2.3c8.6,10.8,21.4,17.2,35.1,17.6l0,0
				c3.7,0.2,6.9-2.6,7.1-6.3c0.2-3.7-2.6-6.9-6.3-7.1c0,0,0,0,0,0c-0.1,0-0.2,0-0.4,0h-0.1c-9.9-0.3-19.1-5-25.1-12.8h-0.1
				C474.4,520.9,475,522.5,475,524.1z"/>
			<path d="M496.5,534.2c2.3,2.9,1.8,7.1-1,9.4l-0.1,0c-1.5,1.2-3.4,1.7-5.2,1.4c13.5,2.8,27.5-0.5,38.3-9l0,0
				c2.9-2.3,3.4-6.5,1.1-9.4l0-0.1c-2.3-2.9-6.6-3.4-9.5-1.1l-0.1,0.1l0,0c-7.8,6.1-17.9,8.3-27.5,6.1h-0.1
				C493.9,532,495.4,532.9,496.5,534.2z"/>
			<path class="st1" d="M519.4,528.3c3.6,0.7,6,4.2,5.3,7.9c-0.4,1.9-1.5,3.5-3.1,4.5c12.1-6.4,20.7-17.9,23.5-31.3l0,0
				c0.6-3.7-1.9-7.2-5.6-7.8c-3.5-0.6-6.9,1.6-7.7,5.1v0.1l0,0c-2,9.6-8.3,17.8-17.1,22.3l-0.1,0.1
				C516.1,528.2,517.8,528,519.4,528.3z"/>
			<path class="st2" d="M533.1,509.1c3.3-1.8,7.4-0.6,9.2,2.7c0.9,1.6,1.1,3.6,0.5,5.4c4.1-10.1,4.4-21.4,0.9-31.8
				c-1.6-3.4-5.6-4.9-9-3.3c-1.6,0.7-2.8,2-3.5,3.6c-0.6,1.5-0.6,3.2-0.1,4.8l-0.1-0.1c-0.7-2.2-1.6-4.2-2.7-6.2l0.2,0.4l0.1,0.1
				l0,0c4.7,8.6,5.2,18.9,1.3,28v0.1C530.5,511.2,531.6,509.9,533.1,509.1z"/>
		</g>
		<g id="Circle9">
			<path d="M513.2,479.1c-0.5-2.7,1.3-5.2,3.9-5.7c1.3-0.2,2.7,0.1,3.8,0.8c-7.7-6.2-17.7-8.7-27.4-6.8l0,0
				c-2.6,0.5-4.4,3.1-3.9,5.7c0.5,2.6,3.1,4.3,5.7,3.8h0h0.1c7-1.4,14.2,0.5,19.6,5.1h0.1C514.1,481.3,513.5,480.3,513.2,479.1z"/>
			<path class="st1" d="M496.6,475.4c-2.1-1.7-2.4-4.7-0.7-6.8c0,0,0,0,0,0l0,0c0.9-1,2.1-1.7,3.5-1.8c-9.9,0.2-19.3,4.7-25.5,12.4
				l0,0c-1.7,2.1-1.4,5.1,0.7,6.8l0,0c2.1,1.7,5.2,1.3,6.9-0.8l0.1-0.1l0,0c4.5-5.5,11.3-8.7,18.4-8.7h0.1
				C498.7,476.6,497.6,476.2,496.6,475.4z"/>
			<path class="st2" d="M481.4,483.2c-2.7,0.1-4.9-2-4.9-4.7c0,0,0,0,0,0v0c0-1.4,0.5-2.7,1.5-3.6c-7.5,6.4-11.8,15.9-11.7,25.8l0,0
				c0,2.7,2.2,4.8,4.9,4.8c0,0,0,0,0,0h0c2.7-0.1,4.9-2.3,4.8-5c0,0,0-0.1,0-0.1l0,0c-0.1-7.1,3.1-13.9,8.6-18.4v-0.1
				C483.8,482.7,482.6,483.2,481.4,483.2z"/>
			<path d="M474.8,498.9c-2,1.8-5.1,1.6-6.9-0.5c-0.9-1-1.3-2.3-1.1-3.7c-1.7,9.7,1.1,19.7,7.6,27.1l0,0c1.8,2,4.8,2.3,6.9,0.5
				s2.3-4.8,0.5-6.9l0,0l-0.1-0.1l0,0c-4.6-5.4-6.6-12.6-5.2-19.5v-0.1C476.3,497,475.7,498.1,474.8,498.9z"/>
			<path class="st1" d="M479.8,515.1c-0.5,2.6-2.9,4.4-5.6,4c-1.3-0.2-2.5-1-3.3-2.1c5,8.5,13.6,14.3,23.4,15.8l0,0
				c2.6,0.4,5.1-1.4,5.6-4c0.4-2.6-1.3-5.1-4-5.5l0,0h-0.1c-7-1.1-13.1-5.3-16.6-11.5h0C479.7,512.8,479.9,513.9,479.8,515.1z"/>
			<path class="st2" d="M494.1,524.2c1.4,2.3,0.6,5.3-1.7,6.7c-1.1,0.7-2.5,0.9-3.8,0.5c9.4,3.2,19.7,2.1,28.2-3l0,0
				c2.3-1.3,3.1-4.3,1.7-6.6c-1.3-2.3-4.3-3.1-6.6-1.7c0,0-0.1,0-0.1,0.1h-0.1c-6.1,3.6-13.5,4.4-20.2,1.9h-0.1
				C492.5,522.4,493.5,523.2,494.1,524.2z"/>
			<path d="M511,522c2.5,0.8,3.9,3.6,3,6.1c0,0,0,0,0,0l0,0.1c-0.4,1.3-1.4,2.3-2.6,2.9c9.3-3.5,16.5-10.9,19.8-20.3l0,0
				c0.9-2.5-0.4-5.2-2.9-6.1c0,0,0,0,0,0l-0.1,0c-2.5-0.9-5.3,0.5-6.2,3v0.1l0,0c-2.4,6.7-7.7,12-14.4,14.4h0
				C508.6,521.6,509.9,521.6,511,522z"/>
			<path class="st1" d="M522.6,509.5c2.5-1,5.3,0.2,6.3,2.7c0.5,1.3,0.5,2.7-0.2,3.9c4.9-8.6,5.7-18.9,2.2-28.1l0,0
				c-1-2.5-3.8-3.8-6.3-2.8s-3.8,3.8-2.8,6.3v0.1l0,0c2.5,6.6,1.9,14-1.8,20.1v0.1C520.5,510.8,521.5,510,522.6,509.5z"/>
			<path class="st2" d="M523.5,492.6c1.3-2.4,4.3-3.2,6.6-1.9c1.2,0.6,2,1.8,2.3,3.1c-1.4-7.7-5.6-14.7-11.8-19.6
				c-2.3-1.5-5.3-0.8-6.8,1.5c-0.7,1-0.9,2.3-0.7,3.5c0.2,1.2,0.9,2.2,1.8,2.9H515c-1.2-1-2.6-2-4-2.7l0.2,0.1l0.1,0l0,0
				c6.2,3.4,10.5,9.5,11.7,16.5v0C522.7,494.8,522.9,493.6,523.5,492.6z"/>
		</g>
	</g>
</g>
</svg>
