<svg xmlns="http://www.w3.org/2000/svg">
<defs><style>.cls-1{fill:#fff;stroke:#000;stroke-linecap:round;stroke-linejoin:round;stroke-width:0.5px;}</style>
</defs>
    <g id="LogoLayer" data-name="LogoLayer">
        <g id="Background">
            <g id="THM">
                <path id="M_BG" data-name="M BG" class="cls-1" d="M1852.23,489.85v.9l-6.09,120.6c0,.9,0,.9-.87.9l-47,12.6-43.54-12.6-72.27,6.3h-1.74v-25.2l-6.09-151.2,12.19-123.3c-.87,0,0,0,0-.9l-11.32-33.3L1636.3,345a.87.87,0,0,1-.87.9v.9l-20,54-58.34,69.3-.87.9h-26.12c-.87,0-.87-.9-1.74-.9v-.9l-40-37.8-.88-.9L1436,371.05l-.87-.9-35.7-71.1L1383.79,273l-1.74,12.6,8.71,15.3-6.1,63v.9l-6.09,83.7,29.6,114.3,2.61,54.9a.87.87,0,0,1-.87.9H1386.4l-72.27,6.3h-1.74l-28.73-12.6-57.47,12.6h-.87l-.87-.9.87-108.9-6.09-36-6.1-72.9,17.42-72.9-17.42-180.9,6.1-120.6v-.9l46.14-18H1268l42.66,11.7,72.27-11.7h1.74l28.74,29.7.87.9-.87.9,29.6,58.5v.9l34.83,38.7,57.46,104.4,20-31.5a.86.86,0,0,1,.87-.9l10.45-8.1,29.6-70.2,11.32-5.4,34.83-81a.87.87,0,0,1,.87-.9L1679,6.55l73.14,6.3h.87l27.87,11.7,57.46-11.7c.87,0,.87-.9.87,0,.87-.9.87,0,.87,0,.87.9.87.9,0,.9v65.7l6.1,42.3v55.8l-11.32,71.1,23.51,115.2-23.51,90Z"/>
                <path id="H_BG" data-name="H BG" class="cls-1" d="M1143.49,160.45v1.8l-14.8,69.3,12.19,65.7-3.49,51.3v116.1l-11.32,89.1,8.71,60.3v.9a.87.87,0,0,0-.87.9l-61,5.4h-1.74l-68.79-5.4-34.83,5.4h-.87l-.87-.9,6.1-42.3-6.1-96.3,8.71-95.4-76.62,9-120.16-12.6-13.93,11.7,11.32,191.7V588l-11.32,29.7-.87.9H598.42l-.87-.9-5.22-18v-.9l14.8-153.9-6.1-31.5v-.9l-14.8-105.3v-.9l11.32-92.7-5.22-18v-1.8l5.22-137.7-8.71-42.3v-.9h.88c0-.9,0,0,.87,0L636.73.25h.87l36.57,12.6c.87-.9.87,0,.87,0l22.64-6.3h1.74l62.7,6.3c.87-.9.87,0,.87,0,.87,0,.87,0,.87.9l11.32,102.6v.9l-8.71,32.4a.87.87,0,0,1-.87.9L757.76,165l14.8,79.2,15.68-10.8c0-.9.87-.9.87,0l87.07,9,34.83-6.3h.87l54,9L978.05,138l-17.41-36c-.87-.9-.87-.9,0-1.8L972,16.45c0-.9,0-.9.87-.9L1019,3.85c0-.9,0-.9.87-.9l.87.9,31.34,11.7L1136.52,3l.87.9v1.8l-6.09,28.8c.87,0,.87.9,0,.9Z"/>
                <path id="T_BG" data-name="T BG" class="cls-1" d="M519.19,159.55l-20,9h-1.74L352,156.85l-13.93,20.7L352.89,282v85.5l-11.32,33.3,8.71,32.4-8.71,111.6L359,617.65a.86.86,0,0,1-.87.9H252.76l-49.63,6.3h-.88l-46.14-12.6h-.87v-1.8l.87-.9L170,569.05l-6.1-108v-1.8l17.42-35.1L170,270.25v-.9L181.36,192l-6.1-29.7-83.59,12.6-90.55-9L.25,165v-.9l11.32-57.6L.25,50.65v-1.8l12.19-30.6v-.9L67.29,6.55H69l51.37,13.5c.87-.9.87-.9,1.74,0l45.28-13.5h.87l142.79,10.8,128-8.1H440l47,12.6,28.73-6.3a.87.87,0,0,1,.87.9l8.71,111.6v.9Z"/>
            </g>
        </g>
    </g>
</svg>