<svg width="100%" height="100%" viewBox="0 0 526 622" version="1.1" xmlns="http://www.w3.org/2000/svg" xmlns:xlink="http://www.w3.org/1999/xlink" xml:space="preserve" xmlns:serif="http://www.serif.com/" style="fill-rule:evenodd;clip-rule:evenodd;stroke-linejoin:round;stroke-miterlimit:2">
    <g transform="matrix(1,0,0,1,-58.3244,-67.619)">
        <g id="Letter-T" transform="matrix(1.06506,0,0,1.09018,0,0)">
            <g id="T_Wireframe" transform="matrix(0.938912,0,0,0.917279,54.7615,58.5291)">
                <path d="M518.94,159.3L498.94,168.3L497.2,168.3L351.77,156.6L337.84,177.3L352.64,281.7L352.64,367.2L341.32,400.5L350,432.9L341.29,544.5L358.7,617.4C358.701,617.413 358.701,617.427 358.701,617.44C358.701,617.912 358.313,618.3 357.841,618.3C357.837,618.3 357.834,618.3 357.83,618.3L252.51,618.3L202.88,624.6L202,624.6L155.86,612L155,612L155,610.2L155.87,609.3L169.8,568.8L163.7,460.8L163.7,459L181.12,423.9L169.79,270L169.79,269.1L181.11,191.7L175,162L91.42,174.6L0.87,165.6L0,164.7L0,163.8L11.32,106.2L0,50.4L0,48.6L12.19,18L12.19,17.1L67,6.3L68.75,6.3L120.12,19.8C120.99,18.9 120.99,18.9 121.86,19.8L167.18,6.3L168.05,6.3L310.84,17.1L438.84,9L439.71,9L486.71,21.6L515.44,15.3C515.44,15.3 515.44,15.3 515.441,15.3C515.918,15.3 516.311,15.693 516.311,16.17C516.311,16.18 516.31,16.19 516.31,16.2L525,127.8L525,128.7L518.94,159.3ZM62.69,9L13.06,18.9L2.61,46.8L62.69,9ZM66.17,9.9L2.61,49.5L49.61,91.8L66.17,9.9ZM13.06,105.3L37.44,97.2L48.76,93.6L22.64,70.2L2.64,53.1L13.06,105.3ZM47.89,95.4L30.47,101.7L13.93,108L2.61,159.3L47.89,95.4ZM3.48,162L101,131.4L51.37,95.4L13.06,148.5L3.48,162ZM101.87,133.2L7,163.8L90.58,171.9L98.42,146.7L101.87,133.2ZM68.79,8.1L65.3,24.3L53.11,89.1L119.29,20.7L68.79,8.1ZM137.57,68.4L147.15,50.4L54.85,92.7L120.16,98.1L137.57,68.4ZM148,47.7L121,22.5L55.73,90L148,47.7ZM103.59,129.6L119.27,100.8L55.73,94.5L81,113.4L103.59,129.6ZM104.47,133.2L101,145.8L94,171.9L172.36,161.1L104.47,133.2ZM121,100.8L113.16,116.1L105.33,131.4L172.33,158.4L121,100.8ZM122.74,98.1L199.36,103.5L150.6,49.5L122.74,98.1ZM123.61,100.8L175.85,159.3L201.1,106.2L123.61,100.8ZM195,41.4L124.51,22.5L150.63,46.8L195,41.4ZM199.35,39.6L167.18,8.1L125.38,20.7L199.35,39.6ZM246.35,76.5L153.19,49.5L202.82,103.5L246.35,76.5ZM202,43.2L156.73,47.7L243.8,73.8L202,43.2ZM191.56,599.4L182,576.9L157.6,610.2L201.13,621.9L191.56,599.4ZM173.27,585L180.27,575.1L170.69,570.6L159.37,603.9L173.27,585ZM166.27,459L199.35,466.2L219.35,470.7L182,425.7L166.27,459ZM182.81,574.2L243.81,561.6L166.32,464.4L182.81,574.2ZM167.18,461.7L244.67,558L232.48,511.2L222,473.4L167.18,461.7ZM180.24,573.3L167.18,485.1L171.53,567.9L180.24,573.3ZM202.88,40.5L303,18.9L170.66,8.1L202.88,40.5ZM183.72,243.9L182,203.4L171.55,269.1L186.35,305.1L183.72,243.9ZM187.2,312.3L172.4,276.3L182,407.7L187.2,312.3ZM225.51,135L202.88,107.1L178.5,160.2L246.41,162.9L225.51,135ZM222.9,231.3L247.28,165.6L178.5,162L222.9,231.3ZM216.81,225.9L178.5,166.5L182.85,190.8L216.81,225.9ZM188.94,311.4L243.8,328.5L183.72,197.1L188.94,311.4ZM183.72,419.4L204.62,393.3L188.94,320.4L183.72,419.4ZM264.72,405.9L205.51,395.1L191.58,413.1L184.58,422.1L264.72,405.9ZM184.61,424.8L222.92,470.7L267.33,407.7L184.61,424.8ZM249,616.5L184.57,577.8L189.79,590.4L203.73,621.9L249,616.5ZM245.52,564.3L185.44,575.1L238.55,608.4L250.75,615.6L245.52,564.3ZM186.33,198L242.93,319.5L222,234L186.33,198ZM266.44,404.1L189.81,315.9L206.36,392.4L246.36,400.5L266.44,404.1ZM245.54,331.2L191.54,314.1L267.29,400.5L245.54,331.2ZM249.89,74.7L306.49,20.7L205.49,42.3L249.89,74.7ZM309.1,123.3L249.89,77.4L206.36,104.4L345.67,152.1L309.1,123.3ZM206.36,107.1L221.16,126L249.89,162.9L344.8,154.8L206.36,107.1ZM249,167.4L224.62,233.1L244.62,241.2L285.54,255.6L249,167.4ZM269,409.5L239.4,450.9L224.59,471.6L285.59,495L269,409.5ZM286.41,259.2L225.46,235.8L252.46,290.7L280.32,343.8L285.54,275.4L286.41,259.2ZM280.32,576.9L286.41,497.7L225.46,474.3L252.46,525.6L280.32,576.9ZM278.58,345.6L226.38,243L247.28,329.4L278.58,345.6ZM229,485.1L226.38,480.6L247.28,561.6L278.63,578.7L229,485.1ZM279.5,581.4L247.28,564.3L249.89,584.1L253.38,614.7L270.79,592.2L279.5,581.4ZM280.37,349.2L248.15,332.1L269.92,401.4L270.79,397.8L280.37,349.2ZM301.27,63L251.64,76.5L290.82,107.1L347.41,150.3L330.87,118.8L301.27,63ZM336.09,177.3L251.64,165.6L350,279L336.09,177.3ZM252.51,169.2L288.21,256.5L347.41,279L252.51,169.2ZM255.12,73.8L301.27,61.2L309.1,21.6L301.27,29.7L255.12,73.8ZM275.12,616.5L279.47,589.5L279.47,585L273.37,593.1L255.09,616.5L275.12,616.5ZM261.21,164.7L337,175.5L349.19,156.6L261.21,164.7ZM274.27,387L270.79,405L337,398.7L282.14,350.1L274.27,387ZM272.53,407.7L295.17,452.7L339.58,540.9L347.41,433.8L272.53,407.7ZM288.21,495.9L335.21,539.1L272.52,413.1L288.21,495.9ZM339.58,400.5L275.15,406.8L347.41,431.1L339.58,400.5ZM318.68,604.8L298.68,592.2L282.14,583.2L280.4,593.1L276.92,615.6L305.65,608.4L318.68,604.8ZM298.68,279L288.24,261L283,347.4L299.54,351.9L348.3,364.5L298.68,279ZM320.45,602.1L288.24,502.2L283,580.5L300.42,590.4L320.45,602.1ZM322.19,606.6L283.88,616.5L350.88,616.5L322.19,606.6ZM286.46,351L329.13,388.8L339.58,397.8L350,367.2L286.46,351ZM290,261L350.9,362.7L350.9,282.6L290,261ZM338.76,545.4L290,499.5L323,600.3L338.76,545.4ZM354.38,87.3L311.71,21.6L304.71,51.3L303,61.2L354.38,87.3ZM356.12,90.9L330,77.4L304.75,64.8L327.39,108L350.9,151.2L354.38,106.2L356.12,90.9ZM357.86,88.2L358.73,87.3L402.27,44.1L367.44,34.2L314.33,20.7L357.86,88.2ZM317.81,18.9L404,42.3L436.22,11.7L317.81,18.9ZM323.9,604.8L345.67,612L356.12,615.6L339.58,549.9L323.9,604.8ZM402.27,124.2L358.73,91.8L356.12,116.1L352.64,153L356.12,151.2L402.27,124.2ZM404.88,126L388.34,135L355.25,154.8L491.08,165.6L404.88,126ZM437.1,72.9L404,45L360.47,89.1L447.55,81.9L437.1,72.9ZM360.47,90.9L404,123.3L447.54,83.7L360.47,90.9ZM483.25,24.3L406.62,44.1L436.23,68.4L450.16,81L483.25,24.3ZM495.44,164.7L451,84.6L406.59,124.2L447.52,143.1L495.44,164.7ZM439.71,11.7L412.71,36L407.48,41.4L481.48,22.5L439.71,11.7ZM522.43,126L485.86,24.3L452.77,81.9L505,115.2L522.43,126ZM522.43,128.7L480.63,102.6L454.51,86.4L498.05,164.7L510.24,147.6L522.43,128.7ZM520.69,114.3L522.43,120.6L514.59,17.1L487.59,23.4L520.69,114.3ZM501.53,164.7L517.2,157.5L522.43,133.2L514.59,144.9L501.53,164.7Z" style="fill:rgb(255,255,255);fill-rule:nonzero;"/>
            </g>
            <g id="Points-T" transform="matrix(0.938912,0,0,0.917279,0,0)">
                <g transform="matrix(1,0,0,1,2.83203,1.90039)">
                    <circle class="point" cx="68.932" cy="79.609" r="2.488" style="opacity:0"/>
                </g>
                <g transform="matrix(1,0,0,1,-8.11945,33.7012)">
                    <circle class="point" cx="68.932" cy="79.609" r="2.488" style="opacity:0"/>
                </g>
                <g transform="matrix(1,0,0,1,0.34375,91.0801)">
                    <circle class="point" cx="68.932" cy="79.609" r="2.488" style="opacity:0"/>
                </g>
                <g transform="matrix(1,0,0,1,-8.11945,147.921)">
                    <circle class="point" cx="68.932" cy="79.609" r="2.488" style="opacity:0"/>
                </g>
                <g transform="matrix(1,0,0,1,40.819,77.7158)">
                    <circle class="point" cx="68.932" cy="79.609" r="2.488" style="opacity:0"/>
                </g>
                <g transform="matrix(1,0,0,1,56.9265,-7.01341)">
                    <circle class="point" cx="68.932" cy="79.609" r="2.488" style="opacity:0"/>
                </g>
                <g transform="matrix(1,0,0,1,111.298,4.38867)">
                    <circle class="point" cx="68.932" cy="79.609" r="2.488" style="opacity:0"/>
                </g>
                <g transform="matrix(1,0,0,1,140.049,32.388)">
                    <circle class="point" cx="68.932" cy="79.609" r="2.488" style="opacity:0"/>
                </g>
                <g transform="matrix(1,0,0,1,158.267,-9.50169)">
                    <circle class="point" cx="68.932" cy="79.609" r="2.488" style="opacity:0"/>
                </g>
                <g transform="matrix(1,0,0,1,192.697,25.1594)">
                    <circle class="point" cx="68.932" cy="79.609" r="2.488" style="opacity:0"/>
                </g>
                <g transform="matrix(1,0,0,1,238.601,59.8146)">
                    <circle class="point" cx="68.932" cy="79.609" r="2.488" style="opacity:0"/>
                </g>
                <g transform="matrix(1,0,0,1,192.697,89.6221)">
                    <circle class="point" cx="68.932" cy="79.609" r="2.488" style="opacity:0"/>
                </g>
                <g transform="matrix(1,0,0,1,165.634,145.099)">
                    <circle class="point" cx="68.932" cy="79.609" r="2.488" style="opacity:0"/>
                </g>
                <g transform="matrix(1,0,0,1,170.611,179.249)">
                    <circle class="point" cx="68.932" cy="79.609" r="2.488" style="opacity:0"/>
                </g>
                <g transform="matrix(1,0,0,1,80.5599,157.161)">
                    <circle class="point" cx="68.932" cy="79.609" r="2.488" style="opacity:0"/>
                </g>
                <g transform="matrix(1,0,0,1,110.919,84.4249)">
                    <circle class="point" cx="68.932" cy="79.609" r="2.488" style="opacity:0"/>
                </g>
                <g transform="matrix(1,0,0,1,299.617,2.88972)">
                    <circle class="point" cx="68.932" cy="79.609" r="2.488" style="opacity:0"/>
                </g>
                <g transform="matrix(1,0,0,1,290.113,46.3995)">
                    <circle class="point" cx="68.932" cy="79.609" r="2.488" style="opacity:0"/>
                </g>
                <g transform="matrix(1,0,0,1,339.429,138.511)">
                    <circle class="point" cx="68.932" cy="79.609" r="2.488" style="opacity:0"/>
                </g>
                <g transform="matrix(1,0,0,1,348.468,74.4014)">
                    <circle class="point" cx="68.932" cy="79.609" r="2.488" style="opacity:0"/>
                </g>
                <g transform="matrix(1,0,0,1,393.617,108.382)">
                    <circle class="point" cx="68.932" cy="79.609" r="2.488" style="opacity:0"/>
                </g>
                <g transform="matrix(1,0,0,1,239.269,148.47)">
                    <circle class="point" cx="68.932" cy="79.609" r="2.488" style="opacity:0"/>
                </g>
                <g transform="matrix(1,0,0,1,213.338,218.255)">
                    <circle class="point" cx="68.932" cy="79.609" r="2.488" style="opacity:0"/>
                </g>
                <g transform="matrix(1,0,0,1,160.17,254.466)">
                    <circle class="point" cx="68.932" cy="79.609" r="2.488" style="opacity:0"/>
                </g>
                <g transform="matrix(1,0,0,1,277.081,242.747)">
                    <circle class="point" cx="68.932" cy="79.609" r="2.488" style="opacity:0"/>
                </g>
                <g transform="matrix(1,0,0,1,340.706,265.161)">
                    <circle class="point" cx="68.932" cy="79.609" r="2.488" style="opacity:0"/>
                </g>
                <g transform="matrix(1,0,0,1,326.113,161.202)">
                    <circle class="point" cx="68.932" cy="79.609" r="2.488" style="opacity:0"/>
                </g>
                <g transform="matrix(1,0,0,1,271.074,331.892)">
                    <circle class="point" cx="68.932" cy="79.609" r="2.488" style="opacity:0"/>
                </g>
                <g transform="matrix(1,0,0,1,177.89,297.16)">
                    <circle class="point" cx="68.932" cy="79.609" r="2.488" style="opacity:0"/>
                </g>
                <g transform="matrix(1,0,0,1,340.838,349.44)">
                    <circle class="point" cx="68.932" cy="79.609" r="2.488" style="opacity:0"/>
                </g>
                <g transform="matrix(1,0,0,1,329.827,383.573)">
                    <circle class="point" cx="68.932" cy="79.609" r="2.488" style="opacity:0"/>
                </g>
                <g transform="matrix(1,0,0,1,258.89,388.549)">
                    <circle class="point" cx="68.932" cy="79.609" r="2.488" style="opacity:0"/>
                </g>
                <g transform="matrix(1,0,0,1,338.35,415.691)">
                    <circle class="point" cx="68.932" cy="79.609" r="2.488" style="opacity:0"/>
                </g>
                <g transform="matrix(1,0,0,1,194.725,378.596)">
                    <circle class="point" cx="68.932" cy="79.609" r="2.488" style="opacity:0"/>
                </g>
                <g transform="matrix(1,0,0,1,172.163,407.362)">
                    <circle class="point" cx="68.932" cy="79.609" r="2.488" style="opacity:0"/>
                </g>
                <g transform="matrix(1,0,0,1,212.374,456.418)">
                    <circle class="point" cx="68.932" cy="79.609" r="2.488" style="opacity:0"/>
                </g>
                <g transform="matrix(1,0,0,1,234.99,546.652)">
                    <circle class="point" cx="68.932" cy="79.609" r="2.488" style="opacity:0"/>
                </g>
                <g transform="matrix(1,0,0,1,277.809,481.857)">
                    <circle class="point" cx="68.932" cy="79.609" r="2.488" style="opacity:0"/>
                </g>
                <g transform="matrix(1,0,0,1,329.221,529.251)">
                    <circle class="point" cx="68.932" cy="79.609" r="2.488" style="opacity:0"/>
                </g>
                <g transform="matrix(1,0,0,1,311.357,589.824)">
                    <circle class="point" cx="68.932" cy="79.609" r="2.488" style="opacity:0"/>
                </g>
                <g transform="matrix(1,0,0,1,271.135,565.044)">
                    <circle class="point" cx="68.932" cy="79.609" r="2.488" style="opacity:0"/>
                </g>
                <g transform="matrix(1,0,0,1,159.615,553.299)">
                    <circle class="point" cx="68.932" cy="79.609" r="2.488" style="opacity:0"/>
                </g>
                <g transform="matrix(1,0,0,1,173.049,559.036)">
                    <circle class="point" cx="68.932" cy="79.609" r="2.488" style="opacity:0"/>
                </g>
                <g transform="matrix(1,0,0,1,146.226,595.454)">
                    <circle class="point" cx="68.932" cy="79.609" r="2.488" style="opacity:0"/>
                </g>
                <g transform="matrix(1,0,0,1,192.019,606.758)">
                    <circle class="point" cx="68.932" cy="79.609" r="2.488" style="opacity:0"/>
                </g>
                <g transform="matrix(1,0,0,1,240.98,601.319)">
                    <circle class="point" cx="68.932" cy="79.609" r="2.488" style="opacity:0"/>
                </g>
                <g transform="matrix(1,0,0,1,266.946,601.571)">
                    <circle class="point" cx="68.932" cy="79.609" r="2.488" style="opacity:0"/>
                </g>
                <g transform="matrix(1,0,0,1,346.876,601.073)">
                    <circle class="point" cx="68.932" cy="79.609" r="2.488" style="opacity:0"/>
                </g>
                <g transform="matrix(1,0,0,1,155.268,444.409)">
                    <circle class="point" cx="68.932" cy="79.609" r="2.488" style="opacity:0"/>
                </g>
                <g transform="matrix(1,0,0,1,235.437,314.982)">
                    <circle class="point" cx="68.932" cy="79.609" r="2.488" style="opacity:0"/>
                </g>
                <g transform="matrix(1,0,0,1,486.535,150.958)">
                    <circle class="point" cx="68.932" cy="79.609" r="2.488" style="opacity:0"/>
                </g>
                <g transform="matrix(1,0,0,1,507.445,143.493)">
                    <circle class="point" cx="68.932" cy="79.609" r="2.488" style="opacity:0"/>
                </g>
                <g transform="matrix(1,0,0,1,512.421,111.859)">
                    <circle class="point" cx="68.932" cy="79.609" r="2.488" style="opacity:0"/>
                </g>
                <g transform="matrix(1,0,0,1,504.956,0.572671)">
                    <circle class="point" cx="68.932" cy="79.609" r="2.488" style="opacity:0"/>
                </g>
                <g transform="matrix(1,0,0,1,475.247,5.54923)">
                    <circle class="point" cx="68.932" cy="79.609" r="2.488" style="opacity:0"/>
                </g>
                <g transform="matrix(1,0,0,1,440.439,67.5063)">
                    <circle class="point" cx="68.932" cy="79.609" r="2.488" style="opacity:0"/>
                </g>
                <g transform="matrix(1,0,0,1,393.493,27.5779)">
                    <circle class="point" cx="68.932" cy="79.609" r="2.488" style="opacity:0"/>
                </g>
                <g transform="matrix(1,0,0,1,427.343,-4.25155)">
                    <circle class="point" cx="68.932" cy="79.609" r="2.488" style="opacity:0"/>
                </g>
                <g transform="matrix(1,0,0,1,92.9584,116.396)">
                    <circle class="point" cx="68.932" cy="79.609" r="2.488" style="opacity:0"/>
                </g>
            </g>
        </g>
    </g>
</svg>
