<svg width="100%" height="100%" viewBox="0 0 659 654" version="1.1" xmlns="http://www.w3.org/2000/svg" xmlns:xlink="http://www.w3.org/1999/xlink" xml:space="preserve" xmlns:serif="http://www.serif.com/" style="fill-rule:evenodd;clip-rule:evenodd;stroke-linejoin:round;stroke-miterlimit:2;">
    <style>
        .wireframe {
            fill: rgba(255,255,255,1);
        }
    </style>
    <g transform="matrix(1,0,0,1,-1444,-48)">
        <g id="ArtBoard4" transform="matrix(1,0,0,1,-0.413437,-0.666522)">
            <rect x="1444.41" y="48.667" width="658.422" height="653.117" style="fill:none;"/>
            <g id="Letter-M" transform="matrix(1.06506,0,0,1.09018,178.961,0.666522)">
                <g id="M_Wireframe" class="wireframe" transform="matrix(0.938912,0,0,0.917279,54.7615,58.5291)">
                    <path d="M1852,489.6L1852,490.5L1845.91,611.1C1845.91,612 1845.91,612 1845.04,612L1798.04,624.6L1754.46,612L1682.19,618.3L1680.45,618.3L1680.45,593.1L1674.36,441.9L1686.55,318.6C1685.68,318.6 1686.55,318.6 1686.55,317.7L1675.23,284.4L1636.05,344.7C1636.05,344.71 1636.05,344.72 1636.05,344.73C1636.05,345.207 1635.66,345.6 1635.18,345.6C1635.18,345.6 1635.18,345.6 1635.18,345.6L1635.18,346.5L1615.18,400.5L1556.84,469.8L1555.97,470.7L1529.85,470.7C1528.98,470.7 1528.98,469.8 1528.11,469.8L1528.11,468.9L1488.11,431.1L1487.23,430.2L1435.86,370.8L1434.99,369.9L1399.29,298.8L1383.62,272.7L1381.88,285.3L1390.59,300.6L1384.49,363.6L1384.49,364.5L1378.4,448.2L1408,562.5L1410.61,617.4C1410.61,617.41 1410.61,617.42 1410.61,617.43C1410.61,617.907 1410.22,618.3 1409.74,618.3C1409.74,618.3 1409.74,618.3 1409.74,618.3L1386.23,618.3L1313.96,624.6L1312.22,624.6L1283.41,612L1225.94,624.6L1225.07,624.6L1224.2,623.7L1225.07,514.8L1218.98,478.8L1212.88,405.9L1230.3,333L1212.88,152.1L1219,31.5L1219,30.6L1265.14,12.6L1267.76,12.6L1310.42,24.3L1382.69,12.6L1384.43,12.6L1413.17,42.3L1414.04,43.2L1413.17,44.1L1442.77,102.6L1442.77,103.5L1477.6,142.2L1535,246.6L1555,215.1C1555,215.087 1555,215.073 1555,215.06C1555,214.588 1555.39,214.2 1555.86,214.2C1555.86,214.2 1555.87,214.2 1555.87,214.2L1566.32,206.1L1595.92,135.9L1607.24,130.5L1642.07,49.5C1642.07,49.49 1642.07,49.48 1642.07,49.47C1642.07,48.993 1642.46,48.6 1642.94,48.6C1642.94,48.6 1642.94,48.6 1642.94,48.6L1678.64,6.3L1751.78,12.6L1752.65,12.6L1780.52,24.3L1837.98,12.6C1838.85,12.6 1838.85,11.7 1838.85,12.6C1839.72,11.7 1839.72,12.6 1839.72,12.6L1839.72,79.2L1845.82,121.5L1845.82,177.3L1834.5,248.4L1858.01,363.6L1834.5,453.6L1852,489.6ZM1264.25,16.2L1220.72,32.4L1215.49,144.9L1264.25,16.2ZM1271.25,192.6L1265.15,20.7L1215.52,152.1L1271.25,192.6ZM1232,327.6L1271.18,195.3L1249.41,179.1L1215.41,154.8L1232,327.6ZM1293,451.8L1262.52,394.2L1232,336.6L1215.49,405L1293,451.8ZM1239,470.7L1293,453.6L1215.5,407.7L1220.73,477L1239,470.7ZM1269.48,476.1L1290.37,457.2L1220.72,479.7L1226.81,512.1L1269.48,476.1ZM1265.12,550.8L1226.81,517.5L1226.81,619.2L1265.12,550.8ZM1227.68,514.8L1266,549L1286,481.5L1293.84,458.1L1266,481.5L1227.68,514.8ZM1266,554.4L1227.69,621.9L1282.55,610.2L1266,554.4ZM1294.73,450L1294.73,275.4L1232.91,333.9L1294.73,450ZM1294.73,271.8L1281.67,229.5L1272.09,198L1233.78,330.3L1244.23,320.4L1294.73,271.8ZM1273,184.5L1277.35,158.4L1292.16,80.1L1267.78,20.7L1269.52,77.4L1273,184.5ZM1267.78,549.9L1311.31,543.6L1295.64,458.1L1283.45,497.7L1267.78,549.9ZM1311.31,546.3L1267.78,551.7L1284.32,608.4L1311.31,546.3ZM1293,76.5L1308.67,26.1L1268.62,14.4L1293,76.5ZM1295.61,268.2L1327.82,92.7L1273.82,194.4L1295.61,268.2ZM1274.71,186.3L1328.71,86.4L1293.86,81L1274.71,186.3ZM1312.15,621.9L1312.15,549.9L1302.57,570.6L1285.16,611.1L1312.15,621.9ZM1294.73,78.3L1329.56,84.6L1311.27,31.5L1310.4,28.8L1302.56,53.1L1294.73,78.3ZM1318.24,375.3L1304.31,315L1296.47,281.7L1296.47,447.3L1318.24,375.3ZM1326.07,339.3L1335.65,300.6L1297.34,275.4L1319.11,370.8L1326.07,339.3ZM1297.34,455.4L1310.4,522L1313.88,539.1L1332.17,484.2L1340.88,455.4L1297.34,455.4ZM1332.17,86.4L1309.53,203.4L1298.21,265.5L1409.66,45.9L1332.17,86.4ZM1382.67,155.7L1298.21,271.8L1382.67,269.1L1382.67,155.7ZM1320,377.1L1298.21,450L1380.06,365.4L1366.13,368.1L1320,377.1ZM1379.21,369.9L1298.21,452.7L1341.75,452.7L1379.21,369.9ZM1299.1,273.6L1336.54,298.8L1380.08,270.9L1299.1,273.6ZM1408.79,53.1L1302.56,261.9L1382.67,151.2L1408.79,53.1ZM1311.27,26.1L1317.37,45L1331.3,83.7L1355.68,48.6L1380.93,14.4L1311.27,26.1ZM1335.65,558.9L1347,529.2L1314.78,545.4L1314.78,554.4L1313.91,617.4L1335.65,558.9ZM1341.75,459.9L1315.62,541.8L1347,525.6L1341.75,459.9ZM1385.28,616.5L1383.54,595.8L1376.54,536.4L1346.07,578.7L1315.59,621.9L1385.28,616.5ZM1374.83,533.7L1348.71,528.3L1316.5,616.5L1329.56,598.5L1374.83,533.7ZM1380.93,362.7L1337.39,302.4L1320.85,374.4L1351.32,368.1L1380.93,362.7ZM1333.93,82.8L1410.55,43.2L1383.55,14.4L1333.93,82.8ZM1339.15,301.5L1383.56,360L1387.91,301.5L1339.15,301.5ZM1343.51,455.4L1348.73,521.1L1375.73,449.1L1353.97,453.6L1343.51,455.4ZM1344.38,296.1L1379.21,284.4L1381.82,271.8L1344.38,296.1ZM1380.08,286.2L1344.38,298.8L1387,298.8L1380.08,286.2ZM1353.94,432L1344.36,452.7L1366.13,449.1L1376.57,447.3L1381.8,369.9L1353.94,432ZM1350.45,525.6L1376.57,531L1376.57,453.6L1370.48,471.6L1350.45,525.6ZM1378.32,531.9L1404.44,559.8L1378.32,456.3L1378.32,531.9ZM1379.19,540L1387.02,616.5L1407.92,616.5L1379.19,540ZM1406.19,563.4L1380.94,538.2L1407.94,609.3L1406.19,563.4ZM1384.42,263.7L1439.28,107.1L1384.41,153L1384.42,263.7ZM1413.16,45.9L1385.29,148.5L1440.15,103.5L1413.16,45.9ZM1446.24,262.8L1385.24,270.9L1400.04,296.1L1446.24,262.8ZM1440.15,111.6L1400.09,225.9L1386.16,264.6L1437.53,203.4L1440.15,111.6ZM1449.72,260.1L1438.41,206.1L1409.67,241.2L1387.03,268.2L1449.72,260.1ZM1441.02,322.2L1448.85,263.7L1401,298.8L1435,365.4L1441.02,322.2ZM1451.47,266.4L1438.41,365.4L1472.36,330.3L1451.47,266.4ZM1483.68,346.5L1474.1,332.1L1438.4,369L1503.7,374.4L1483.68,346.5ZM1488.04,428.4L1503.71,377.1L1438.41,370.8L1488.04,428.4ZM1441.89,146.7L1440.15,199.8L1475.85,143.1L1442.76,106.2L1441.89,146.7ZM1441.02,203.4L1532.44,245.7L1476.72,144.9L1441.02,203.4ZM1475.02,262.8L1457.55,234L1441,208.8L1446.22,235.8L1451.45,260.1L1459.28,261L1475.02,262.8ZM1442.8,206.1L1478.5,262.8L1531.61,248.4L1442.8,206.1ZM1473.27,324.9L1475.89,273.6L1476.76,264.6L1452.38,262.8L1473.27,324.9ZM1478.5,266.4L1475.89,313.2L1475.02,329.4L1560.34,338.4L1478.5,266.4ZM1476.76,331.2L1507.23,373.5L1561.23,340.2L1476.76,331.2ZM1534.22,250.2L1516.81,254.7L1480.24,264.6L1562.96,335.7L1534.22,250.2ZM1506.36,379.8L1497.65,404.1L1489.82,429.3L1527.26,466.2L1506.36,379.8ZM1562.96,342L1507.23,376.2L1526.39,453.6L1529,463.5L1557.68,360L1562.96,342ZM1555.12,468L1562.96,350.1L1551.64,392.4L1531.64,468L1555.12,468ZM1536.84,249.3L1555.12,306.9L1562.96,330.3L1555.12,218.7L1536.84,249.3ZM1556.84,216.9L1559.45,250.2L1565.55,334.8L1570.77,319.5L1603.86,228.6L1572.51,220.5L1556.84,216.9ZM1565.55,342L1561.2,395.1L1556.84,466.2L1612.57,399.6L1565.55,342ZM1596,224.1L1598.62,225L1596,223.2L1567.27,207.9L1558.56,215.1L1596,224.1ZM1567.27,334.8L1601.27,299.7L1603.88,234.9L1567.27,334.8ZM1567.27,340.2L1613.42,396.9L1615.16,352.8L1616.03,323.1L1567.27,340.2ZM1569,206.1L1603.83,225.9L1596,141.3L1569,206.1ZM1602.09,301.5L1569,336.6L1614.28,320.4L1610.8,314.1L1602.09,301.5ZM1597.74,137.7L1604.74,209.7L1607.35,136.8L1607.35,132.3L1597.74,137.7ZM1672.62,249.3L1606.44,229.5L1605.57,245.7L1603.83,297.9L1638.66,273.6L1672.62,249.3ZM1603.83,300.6L1610.83,309.6L1616.92,319.5L1670,253.8L1603.83,300.6ZM1606.44,219.6L1638.66,124.2L1609.06,132.3L1606.44,219.6ZM1606.44,226.8L1629.08,234L1673.49,246.6L1640.4,125.1L1637.79,132.3L1606.44,226.8ZM1609.93,128.7L1639.53,120.6L1641.27,55.8L1609.93,128.7ZM1632.56,346.5L1617.76,324.9L1616.89,344.7L1615.15,392.4L1632.56,346.5ZM1671.75,286.2L1618.63,321.3L1626.47,332.1L1634.31,343.8L1671.75,286.2ZM1674.36,252L1622.12,316.8L1674.36,281.7L1674.36,252ZM1644.75,54.9L1641.27,119.7L1662.17,107.1L1667.39,103.5L1655.2,78.3L1644.75,54.9ZM1648.24,132.3L1668.24,160.2L1668.24,105.3L1642.12,122.4L1648.24,132.3ZM1643.01,127.8L1673.49,238.5L1673.49,231.3L1668.26,164.7L1668.26,163.8L1643.01,127.8ZM1644.75,49.5L1690.9,89.1L1684.81,49.5L1677.81,9.9L1644.75,49.5ZM1670,101.7L1690.9,91.8L1646.5,54L1657.81,77.4L1670,101.7ZM1670.88,104.4L1670.88,157.5L1690.88,94.5L1681.3,99L1670.88,104.4ZM1676.1,238.5L1691.77,160.2L1670.88,165.6L1676.1,238.5ZM1693.51,93.6L1672.62,159.3L1714.41,104.4L1693.51,93.6ZM1673.51,162L1691.79,157.5L1711.79,112.5L1673.51,162ZM1687.44,315L1699.63,297L1737.07,238.5L1710.95,243L1676.95,250.2L1687.44,315ZM1682.21,291.6L1677,263.7L1677,281.7L1684,305.1L1682.21,291.6ZM1709.21,463.5L1699.63,405.9L1687.44,326.7L1677,441.9L1709.21,463.5ZM1684.81,576L1709.19,467.1L1688.29,451.8L1677,443.7L1682.22,585.9L1684.81,576ZM1760.56,159.3L1694.38,159.3L1677.84,244.8L1760.56,159.3ZM1679.56,8.1L1683.92,35.1L1693.49,89.1L1721.36,51.3L1749.22,14.4L1679.56,8.1ZM1738.77,235.8L1747.48,208.8L1760.54,162.9L1679.54,246.6L1726.54,238.5L1738.77,235.8ZM1707.42,598.5L1728.32,583.2L1682.19,594L1682.19,615.6L1707.42,598.5ZM1732.68,579.6L1748.35,450.9L1683.04,591.3L1703.04,586.8L1732.68,579.6ZM1685.68,581.4L1719.68,509.4L1749.28,444.6L1711.84,467.1L1685.68,581.4ZM1752.68,610.2L1746.59,600.3L1734.4,582.3L1686.51,615.6L1752.68,610.2ZM1711.8,464.4L1750.11,441.9L1689.16,324L1696.16,367.2L1711.8,464.4ZM1690.9,315L1778.84,261L1740.53,238.5L1690.9,315ZM1814.54,340.2L1690.9,320.4L1791.9,427.5L1814.54,340.2ZM1832,251.1L1691.81,317.7L1814.58,338.4L1832,251.1ZM1751.85,441L1764.04,437.4L1790.16,429.3L1691.77,324L1712.67,364.5L1751.85,441ZM1694.38,91.8L1715.28,101.7L1730.08,65.7L1746.63,21.6L1709.19,72L1694.38,91.8ZM1696.13,156.6L1784.94,133.2L1771.88,115.2L1751,87.3L1737.07,104.4L1696.13,156.6ZM1697,152.1L1747.5,89.1L1717,105.3L1697,152.1ZM1701.35,157.5L1762.35,157.5L1783.25,135.9L1701.35,157.5ZM1781.46,261.9L1705.7,307.8L1821.51,252.9L1798,258.3L1781.46,261.9ZM1750.11,19.8L1717.89,101.7L1750.11,84.6L1750.11,19.8ZM1736.18,576.9L1791,514.8L1752.69,446.4L1736.18,576.9ZM1754.46,609.3L1770.14,587.7L1756.21,585.9L1736.21,582.3L1748.4,600.3L1754.46,609.3ZM1771.88,585.9L1778.88,558.9L1790.2,519.3L1780.63,530.1L1737.09,579.6L1771.88,585.9ZM1763.17,162.9L1741.4,235.8L1771.88,254.7L1779.71,259.2L1763.17,162.9ZM1752.72,14.4L1752.72,80.1L1765.78,54L1778.84,26.1L1752.72,14.4ZM1797.13,69.3L1752.72,86.4L1764,101.7L1785.77,131.4L1792.77,94.5L1797.13,69.3ZM1790.13,432L1764.88,439.2L1752.69,442.8L1790.13,509.4L1790.13,432ZM1780.56,27.9L1754.43,83.7L1797.1,66.6L1780.56,27.9ZM1779.68,599.4L1771.85,588.6L1756.18,610.2L1795.36,621.9L1779.68,599.4ZM1764.88,162.9L1781.43,259.2L1806.68,253.8L1831.06,247.5L1815.38,226.8L1764.88,162.9ZM1765.75,160.2L1791.87,194.4L1832.8,246.6L1844.12,177.3L1765.75,160.2ZM1767.49,157.5L1844.12,174.6L1844.12,123.3L1767.49,157.5ZM1787.49,135L1769.21,153.9L1801.42,140.4L1844.09,120.6L1837.99,81.9L1787.49,135ZM1797.07,620.1L1790.97,522.9L1787.49,534.6L1772.69,586.8L1797.07,620.1ZM1794.46,57.6L1797.94,65.7L1811,48.6L1836.25,14.4L1782.25,26.1L1794.46,57.6ZM1798.81,69.3L1788.36,130.5L1837.12,80.1L1823.19,76.5L1798.81,69.3ZM1831.03,451.8L1815.35,345.6L1793.59,429.3L1831.03,451.8ZM1831.9,454.5L1793.65,432L1793.65,511.2L1831.9,454.5ZM1849.31,492.3L1793.59,515.7L1798.81,618.3L1809.26,592.2L1849.31,492.3ZM1832.77,456.3L1795.33,512.1L1849.33,489.6L1832.77,456.3ZM1799.74,66.6L1825,74.7L1838.06,78.3L1838.06,16.2L1823.26,34.2L1799.74,66.6ZM1829.35,546.3L1799.74,621.9L1844.15,610.2L1849.37,496.8L1829.35,546.3ZM1833.7,253.8L1817.15,339.3L1855.47,361.8L1833.7,253.8ZM1825,345.6L1817.16,341.1L1833.71,448.2L1855.48,364.5L1825,345.6Z" style="fill-rule:nonzero;"/>
                </g>
                <g id="Points" transform="matrix(0.938912,0,0,0.917279,1168.72,0)">
                    <g opacity="0">
                        <g transform="matrix(1,0,0,1,-35.2559,15.3193)">
                            <circle cx="68.932" cy="79.609" r="2.488" style="fill:rgb(0,255,52);"/>
                        </g>
                        <g transform="matrix(1,0,0,1,10.9971,-1.11426)">
                            <circle cx="68.932" cy="79.609" r="2.488" style="fill:rgb(0,255,52);"/>
                        </g>
                        <g transform="matrix(1,0,0,1,-40.0771,135.76)">
                            <circle cx="68.932" cy="79.609" r="2.488" style="fill:rgb(0,255,52);"/>
                        </g>
                        <g transform="matrix(1,0,0,1,38.5303,62.998)">
                            <circle cx="68.932" cy="79.609" r="2.488" style="fill:rgb(0,255,52);"/>
                        </g>
                        <g transform="matrix(1,0,0,1,53.1016,9.9707)">
                            <circle cx="68.932" cy="79.609" r="2.488" style="fill:rgb(0,255,52);"/>
                        </g>
                        <g transform="matrix(1,0,0,1,128.184,-2.73242)">
                            <circle cx="68.932" cy="79.609" r="2.488" style="fill:rgb(0,255,52);"/>
                        </g>
                        <g transform="matrix(1,0,0,1,156.515,27.8721)">
                            <circle cx="68.932" cy="79.609" r="2.488" style="fill:rgb(0,255,52);"/>
                        </g>
                        <g transform="matrix(1,0,0,1,75.751,70.541)">
                            <circle cx="68.932" cy="79.609" r="2.488" style="fill:rgb(0,255,52);"/>
                        </g>
                        <g transform="matrix(1,0,0,1,187.015,90.8281)">
                            <circle cx="68.932" cy="79.609" r="2.488" style="fill:rgb(0,255,52);"/>
                        </g>
                        <g transform="matrix(1,0,0,1,222.514,128.558)">
                            <circle cx="68.932" cy="79.609" r="2.488" style="fill:rgb(0,255,52);"/>
                        </g>
                        <g transform="matrix(1,0,0,1,18.4805,176.302)">
                            <circle cx="68.932" cy="79.609" r="2.488" style="fill:rgb(0,255,52);"/>
                        </g>
                        <g transform="matrix(1,0,0,1,40.582,256.214)">
                            <circle cx="68.932" cy="79.609" r="2.488" style="fill:rgb(0,255,52);"/>
                        </g>
                        <g transform="matrix(1,0,0,1,129.547,136.821)">
                            <circle cx="68.932" cy="79.609" r="2.488" style="fill:rgb(0,255,52);"/>
                        </g>
                        <g transform="matrix(1,0,0,1,-23.4834,315.246)">
                            <circle cx="68.932" cy="79.609" r="2.488" style="fill:rgb(0,255,52);"/>
                        </g>
                        <g transform="matrix(1,0,0,1,82.5625,284.28)">
                            <circle cx="68.932" cy="79.609" r="2.488" style="fill:rgb(0,255,52);"/>
                        </g>
                        <g transform="matrix(1,0,0,1,128.892,253.609)">
                            <circle cx="68.932" cy="79.609" r="2.488" style="fill:rgb(0,255,52);"/>
                        </g>
                        <g transform="matrix(1,0,0,1,184.125,189.041)">
                            <circle cx="68.932" cy="79.609" r="2.488" style="fill:rgb(0,255,52);"/>
                        </g>
                        <g transform="matrix(1,0,0,1,280.197,232.205)">
                            <circle cx="68.932" cy="79.609" r="2.488" style="fill:rgb(0,255,52);"/>
                        </g>
                        <g transform="matrix(1,0,0,1,300.703,201.357)">
                            <circle cx="68.932" cy="79.609" r="2.488" style="fill:rgb(0,255,52);"/>
                        </g>
                        <g transform="matrix(1,0,0,1,222.705,248.831)">
                            <circle cx="68.932" cy="79.609" r="2.488" style="fill:rgb(0,255,52);"/>
                        </g>
                        <g transform="matrix(1,0,0,1,-40.6064,391.087)">
                            <circle cx="68.932" cy="79.609" r="2.488" style="fill:rgb(0,255,52);"/>
                        </g>
                        <g transform="matrix(1,0,0,1,133.341,286.724)">
                            <circle cx="68.932" cy="79.609" r="2.488" style="fill:rgb(0,255,52);"/>
                        </g>
                        <g transform="matrix(1,0,0,1,39.3164,437.656)">
                            <circle cx="68.932" cy="79.609" r="2.488" style="fill:rgb(0,255,52);"/>
                        </g>
                        <g transform="matrix(1,0,0,1,124.484,269.644)">
                            <circle cx="68.932" cy="79.609" r="2.488" style="fill:rgb(0,255,52);"/>
                        </g>
                        <g transform="matrix(1,0,0,1,151.845,546.283)">
                            <circle cx="68.932" cy="79.609" r="2.488" style="fill:rgb(0,255,52);"/>
                        </g>
                        <g transform="matrix(1,0,0,1,123.381,517.233)">
                            <circle cx="68.932" cy="79.609" r="2.488" style="fill:rgb(0,255,52);"/>
                        </g>
                        <g transform="matrix(1,0,0,1,94.084,511.549)">
                            <circle cx="68.932" cy="79.609" r="2.488" style="fill:rgb(0,255,52);"/>
                        </g>
                        <g transform="matrix(1,0,0,1,57.7354,529.782)">
                            <circle cx="68.932" cy="79.609" r="2.488" style="fill:rgb(0,255,52);"/>
                        </g>
                        <g transform="matrix(1,0,0,1,11.4287,534.342)">
                            <circle cx="68.932" cy="79.609" r="2.488" style="fill:rgb(0,255,52);"/>
                        </g>
                        <g transform="matrix(1,0,0,1,-28.957,497.901)">
                            <circle cx="68.932" cy="79.609" r="2.488" style="fill:rgb(0,255,52);"/>
                        </g>
                        <g transform="matrix(1,0,0,1,-29.0557,607.24)">
                            <circle cx="68.932" cy="79.609" r="2.488" style="fill:rgb(0,255,52);"/>
                        </g>
                        <g transform="matrix(1,0,0,1,28.3574,594.164)">
                            <circle cx="68.932" cy="79.609" r="2.488" style="fill:rgb(0,255,52);"/>
                        </g>
                        <g transform="matrix(1,0,0,1,57.8926,606.951)">
                            <circle cx="68.932" cy="79.609" r="2.488" style="fill:rgb(0,255,52);"/>
                        </g>
                        <g transform="matrix(1,0,0,1,131.142,601.51)">
                            <circle cx="68.932" cy="79.609" r="2.488" style="fill:rgb(0,255,52);"/>
                        </g>
                        <g transform="matrix(1,0,0,1,155.132,601.168)">
                            <circle cx="68.932" cy="79.609" r="2.488" style="fill:rgb(0,255,52);"/>
                        </g>
                        <g transform="matrix(1,0,0,1,194.433,244.681)">
                            <circle cx="68.932" cy="79.609" r="2.488" style="fill:rgb(0,255,52);"/>
                        </g>
                        <g transform="matrix(1,0,0,1,64.3438,360.402)">
                            <circle cx="68.932" cy="79.609" r="2.488" style="fill:rgb(0,255,52);"/>
                        </g>
                        <g transform="matrix(1,0,0,1,127.159,347.388)">
                            <circle cx="68.932" cy="79.609" r="2.488" style="fill:rgb(0,255,52);"/>
                        </g>
                        <g transform="matrix(1,0,0,1,122.473,432.123)">
                            <circle cx="68.932" cy="79.609" r="2.488" style="fill:rgb(0,255,52);"/>
                        </g>
                        <g transform="matrix(1,0,0,1,86.0811,438.46)">
                            <circle cx="68.932" cy="79.609" r="2.488" style="fill:rgb(0,255,52);"/>
                        </g>
                        <g transform="matrix(1,0,0,1,-36.3711,462.186)">
                            <circle cx="68.932" cy="79.609" r="2.488" style="fill:rgb(0,255,52);"/>
                        </g>
                        <g transform="matrix(1,0,0,1,181.886,351.907)">
                            <circle cx="68.932" cy="79.609" r="2.488" style="fill:rgb(0,255,52);"/>
                        </g>
                        <g transform="matrix(1,0,0,1,145.187,282.325)">
                            <circle cx="68.932" cy="79.609" r="2.488" style="fill:rgb(0,255,52);"/>
                        </g>
                        <g transform="matrix(1,0,0,1,249.488,358.788)">
                            <circle cx="68.932" cy="79.609" r="2.488" style="fill:rgb(0,255,52);"/>
                        </g>
                        <g transform="matrix(1,0,0,1,218.176,314.94)">
                            <circle cx="68.932" cy="79.609" r="2.488" style="fill:rgb(0,255,52);"/>
                        </g>
                        <g transform="matrix(1,0,0,1,232.769,413.193)">
                            <circle cx="68.932" cy="79.609" r="2.488" style="fill:rgb(0,255,52);"/>
                        </g>
                        <g transform="matrix(1,0,0,1,309.458,323.576)">
                            <circle cx="68.932" cy="79.609" r="2.488" style="fill:rgb(0,255,52);"/>
                        </g>
                        <g transform="matrix(1,0,0,1,312.465,190.337)">
                            <circle cx="68.932" cy="79.609" r="2.488" style="fill:rgb(0,255,52);"/>
                        </g>
                        <g transform="matrix(1,0,0,1,415.207,147.829)">
                            <circle cx="68.932" cy="79.609" r="2.488" style="fill:rgb(0,255,52);"/>
                        </g>
                        <g transform="matrix(1,0,0,1,273.303,452.011)">
                            <circle cx="68.932" cy="79.609" r="2.488" style="fill:rgb(0,255,52);"/>
                        </g>
                        <g transform="matrix(1,0,0,1,353.286,114.733)">
                            <circle cx="68.932" cy="79.609" r="2.488" style="fill:rgb(0,255,52);"/>
                        </g>
                        <g transform="matrix(1,0,0,1,350.313,211.767)">
                            <circle cx="68.932" cy="79.609" r="2.488" style="fill:rgb(0,255,52);"/>
                        </g>
                        <g transform="matrix(1,0,0,1,384.914,105.841)">
                            <circle cx="68.932" cy="79.609" r="2.488" style="fill:rgb(0,255,52);"/>
                        </g>
                        <g transform="matrix(1,0,0,1,437.154,76.1423)">
                            <circle cx="68.932" cy="79.609" r="2.488" style="fill:rgb(0,255,52);"/>
                        </g>
                        <g transform="matrix(1,0,0,1,460.742,87.445)">
                            <circle cx="68.932" cy="79.609" r="2.488" style="fill:rgb(0,255,52);"/>
                        </g>
                        <g transform="matrix(1,0,0,1,494.985,-2.30593)">
                            <circle cx="68.932" cy="79.609" r="2.488" style="fill:rgb(0,255,52);"/>
                        </g>
                        <g transform="matrix(1,0,0,1,423.226,-8.35769)">
                            <circle cx="68.932" cy="79.609" r="2.488" style="fill:rgb(0,255,52);"/>
                        </g>
                        <g transform="matrix(1,0,0,1,495.706,69.3679)">
                            <circle cx="68.932" cy="79.609" r="2.488" style="fill:rgb(0,255,52);"/>
                        </g>
                        <g transform="matrix(1,0,0,1,525.565,8.71652)">
                            <circle cx="68.932" cy="79.609" r="2.488" style="fill:rgb(0,255,52);"/>
                        </g>
                        <g transform="matrix(1,0,0,1,542.797,51.281)">
                            <circle cx="68.932" cy="79.609" r="2.488" style="fill:rgb(0,255,52);"/>
                        </g>
                        <g transform="matrix(1,0,0,1,413.516,88.2302)">
                            <circle cx="68.932" cy="79.609" r="2.488" style="fill:rgb(0,255,52);"/>
                        </g>
                        <g transform="matrix(1,0,0,1,439.343,142.47)">
                            <circle cx="68.932" cy="79.609" r="2.488" style="fill:rgb(0,255,52);"/>
                        </g>
                        <g transform="matrix(1,0,0,1,582.55,-1.86061)">
                            <circle cx="68.932" cy="79.609" r="2.488" style="fill:rgb(0,255,52);"/>
                        </g>
                        <g transform="matrix(1,0,0,1,347.855,284.641)">
                            <circle cx="68.932" cy="79.609" r="2.488" style="fill:rgb(0,255,52);"/>
                        </g>
                        <g transform="matrix(1,0,0,1,420.757,231.653)">
                            <circle cx="68.932" cy="79.609" r="2.488" style="fill:rgb(0,255,52);"/>
                        </g>
                        <g transform="matrix(1,0,0,1,420.124,268.369)">
                            <circle cx="68.932" cy="79.609" r="2.488" style="fill:rgb(0,255,52);"/>
                        </g>
                        <g transform="matrix(1,0,0,1,431.813,303.13)">
                            <circle cx="68.932" cy="79.609" r="2.488" style="fill:rgb(0,255,52);"/>
                        </g>
                        <g transform="matrix(1,0,0,1,483.867,221.338)">
                            <circle cx="68.932" cy="79.609" r="2.488" style="fill:rgb(0,255,52);"/>
                        </g>
                        <g transform="matrix(1,0,0,1,508.157,144.398)">
                            <circle cx="68.932" cy="79.609" r="2.488" style="fill:rgb(0,255,52);"/>
                        </g>
                        <g transform="matrix(1,0,0,1,530.985,117.463)">
                            <circle cx="68.932" cy="79.609" r="2.488" style="fill:rgb(0,255,52);"/>
                        </g>
                        <g transform="matrix(1,0,0,1,583.411,63.2488)">
                            <circle cx="68.932" cy="79.609" r="2.488" style="fill:rgb(0,255,52);"/>
                        </g>
                        <g transform="matrix(1,0,0,1,589.374,105.254)">
                            <circle cx="68.932" cy="79.609" r="2.488" style="fill:rgb(0,255,52);"/>
                        </g>
                        <g transform="matrix(1,0,0,1,589.008,159.301)">
                            <circle cx="68.932" cy="79.609" r="2.488" style="fill:rgb(0,255,52);"/>
                        </g>
                        <g transform="matrix(1,0,0,1,578.048,232.92)">
                            <circle cx="68.932" cy="79.609" r="2.488" style="fill:rgb(0,255,52);"/>
                        </g>
                        <g transform="matrix(1,0,0,1,525.111,244.262)">
                            <circle cx="68.932" cy="79.609" r="2.488" style="fill:rgb(0,255,52);"/>
                        </g>
                        <g transform="matrix(1,0,0,1,600.713,347.608)">
                            <circle cx="68.932" cy="79.609" r="2.488" style="fill:rgb(0,255,52);"/>
                        </g>
                        <g transform="matrix(1,0,0,1,560.726,323.655)">
                            <circle cx="68.932" cy="79.609" r="2.488" style="fill:rgb(0,255,52);"/>
                        </g>
                        <g transform="matrix(1,0,0,1,361.74,304.905)">
                            <circle cx="68.932" cy="79.609" r="2.488" style="fill:rgb(0,255,52);"/>
                        </g>
                        <g transform="matrix(1,0,0,1,359.237,383.698)">
                            <circle cx="68.932" cy="79.609" r="2.488" style="fill:rgb(0,255,52);"/>
                        </g>
                        <g transform="matrix(1,0,0,1,537.075,412.555)">
                            <circle cx="68.932" cy="79.609" r="2.488" style="fill:rgb(0,255,52);"/>
                        </g>
                        <g transform="matrix(1,0,0,1,379.687,329.754)">
                            <circle cx="68.932" cy="79.609" r="2.488" style="fill:rgb(0,255,52);"/>
                        </g>
                        <g transform="matrix(1,0,0,1,495.882,426.082)">
                            <circle cx="68.932" cy="79.609" r="2.488" style="fill:rgb(0,255,52);"/>
                        </g>
                        <g transform="matrix(1,0,0,1,456.074,448.934)">
                            <circle cx="68.932" cy="79.609" r="2.488" style="fill:rgb(0,255,52);"/>
                        </g>
                        <g transform="matrix(1,0,0,1,577.74,437.523)">
                            <circle cx="68.932" cy="79.609" r="2.488" style="fill:rgb(0,255,52);"/>
                        </g>
                        <g transform="matrix(1,0,0,1,420.347,427.19)">
                            <circle cx="68.932" cy="79.609" r="2.488" style="fill:rgb(0,255,52);"/>
                        </g>
                        <g transform="matrix(1,0,0,1,300.38,453.294)">
                            <circle cx="68.932" cy="79.609" r="2.488" style="fill:rgb(0,255,52);"/>
                        </g>
                        <g transform="matrix(1,0,0,1,477.849,565.151)">
                            <circle cx="68.932" cy="79.609" r="2.488" style="fill:rgb(0,255,52);"/>
                        </g>
                        <g transform="matrix(1,0,0,1,426.235,575.888)">
                            <circle cx="68.932" cy="79.609" r="2.488" style="fill:rgb(0,255,52);"/>
                        </g>
                        <g transform="matrix(1,0,0,1,589.52,595.496)">
                            <circle cx="68.932" cy="79.609" r="2.488" style="fill:rgb(0,255,52);"/>
                        </g>
                        <g transform="matrix(1,0,0,1,536.606,498.62)">
                            <circle cx="68.932" cy="79.609" r="2.488" style="fill:rgb(0,255,52);"/>
                        </g>
                        <g transform="matrix(1,0,0,1,595.507,475.143)">
                            <circle cx="68.932" cy="79.609" r="2.488" style="fill:rgb(0,255,52);"/>
                        </g>
                        <g transform="matrix(1,0,0,1,498.231,595.167)">
                            <circle cx="68.932" cy="79.609" r="2.488" style="fill:rgb(0,255,52);"/>
                        </g>
                        <g transform="matrix(1,0,0,1,425.353,599.97)">
                            <circle cx="68.932" cy="79.609" r="2.488" style="fill:rgb(0,255,52);"/>
                        </g>
                        <g transform="matrix(1,0,0,1,515.605,572.229)">
                            <circle cx="68.932" cy="79.609" r="2.488" style="fill:rgb(0,255,52);"/>
                        </g>
                        <g transform="matrix(1,0,0,1,542.323,605.514)">
                            <circle cx="68.932" cy="79.609" r="2.488" style="fill:rgb(0,255,52);"/>
                        </g>
                        <g transform="matrix(1,0,0,1,340.899,121.213)">
                            <circle cx="68.932" cy="79.609" r="2.488" style="fill:rgb(0,255,52);"/>
                        </g>
                        <g transform="matrix(1,0,0,1,387.827,35.0163)">
                            <circle cx="68.932" cy="79.609" r="2.488" style="fill:rgb(0,255,52);"/>
                        </g>
                    </g>
                </g>
            </g>
        </g>
    </g>
</svg>
