<svg width="100%" height="100%" viewBox="0 0 560 623" version="1.1" xmlns="http://www.w3.org/2000/svg" xmlns:xlink="http://www.w3.org/1999/xlink" xml:space="preserve" xmlns:serif="http://www.serif.com/" style="fill-rule:evenodd;clip-rule:evenodd;stroke-linejoin:round;stroke-miterlimit:2;">
    <g transform="matrix(1,0,0,1,-643.424,-62.6881)">
        <g id="Letter-H" transform="matrix(1.06506,0,0,1.09018,0,0)">
            <g id="H_Wireframe" transform="matrix(0.938912,0,0,0.917279,54.7615,58.5291)">
                <path d="M1143.24,160.2L1143.24,162L1128.44,231.3L1140.63,297L1137.14,348.3L1137.14,464.4L1125.82,553.5L1134.53,613.8L1134.53,614.7C1134.53,614.7 1134.53,614.7 1134.53,614.7C1134.05,614.7 1133.66,615.093 1133.66,615.57C1133.66,615.58 1133.66,615.59 1133.66,615.6L1072.66,621L1071,621L1002.21,615.6L967.35,621L966.48,621L965.61,620.1L971.71,577.8L965.61,481.5L974.32,386.1L897.7,395.1L777.54,382.5L763.61,394.2L774.93,585.9L774.93,587.7L763.61,617.4L762.74,618.3L598.17,618.3L597.3,617.4L592.08,599.4L592.08,598.5L606.88,444.6L600.78,413.1L600.78,412.2L586,306.9L586,306L597.32,213.3L592.1,195.3L592.1,193.5L597.3,55.8L588.59,13.5L588.59,12.6L589.47,12.6C589.47,11.7 589.47,12.6 590.34,12.6L636.48,0L637.35,0L673.92,12.6C674.79,11.7 674.79,12.6 674.79,12.6L697.43,6.3L699.17,6.3L761.87,12.6C762.74,11.7 762.74,12.6 762.74,12.6C763.61,12.6 763.61,12.6 763.61,13.5L774.93,116.1L774.93,117L766.22,149.4C766.22,149.41 766.221,149.42 766.221,149.43C766.221,149.907 765.828,150.3 765.351,150.3C765.35,150.3 765.35,150.3 765.35,150.3L757.51,164.7L772.31,243.9L788,233.1C788,232.2 788.87,232.2 788.87,233.1L875.94,242.1L910.77,235.8L911.64,235.8L965.64,244.8L977.8,137.7L960.39,101.7C959.52,100.8 959.52,100.8 960.39,99.9L971.71,16.2C971.71,15.3 971.71,15.3 972.58,15.3L1018.73,3.6C1018.73,2.7 1018.73,2.7 1019.6,2.7L1020.47,3.6L1051.81,15.3L1136.27,2.7L1137.14,3.6L1137.14,5.4L1131.05,34.2C1131.92,34.2 1131.92,35.1 1131.05,35.1L1143.24,160.2ZM588.59,304.2L592.95,300.6L603.4,293.4L598.17,223.2L588.59,304.2ZM644.32,340.2L597.32,313.2L588.61,307.8L602.55,408.6L644.32,340.2ZM639.1,333.9L632.1,326.7L604.24,296.1L589.44,306L639.1,333.9ZM604.27,27.9L615.59,40.5L634.74,2.7L592.08,13.5L604.27,27.9ZM606.88,48.6L614.72,43.2L592.08,17.1L599,54L606.88,48.6ZM599,210.6L612.06,193.5L643.41,153.9L593.78,195.3L599,210.6ZM654.73,573.3L638.19,580.5L593.78,600.3L599,615.6L654.73,573.3ZM594.69,189L615.59,150.3L667,55.8L641.75,50.4L617.33,45L594.69,189ZM614.69,45.9L605.11,52.2L599.88,55.8L594.66,176.4L614.69,45.9ZM660.83,472.5L608.59,447.3L594.69,594L660.83,472.5ZM661.7,567.9L661.7,476.1L595.56,596.7L661.7,567.9ZM597.3,189L650.42,144.9L666.09,63.9L616.46,153.9L597.3,189ZM605.14,291.6L666.14,225.9L633,219.6L599.91,214.2L601.66,244.8L605.14,291.6ZM601.66,210.6L690.47,188.1L651.29,147.6L639.1,163.8L601.66,210.6ZM672.18,594L662.6,570.6L601.66,616.5L681.76,616.5L672.18,594ZM603.4,212.4L667.83,223.2L675.67,212.4L689.6,189.9L603.4,212.4ZM653,414L650.39,395.1L603.39,412.2L660.85,469.8L653,414ZM608.59,444.6L639.07,459.9L656.48,468L633,444.6L603.4,415.8L608.59,444.6ZM650.39,392.4L649.51,383.4L644.29,342.9L604.24,409.5L631.24,399.6L650.39,392.4ZM662.6,251.1L667,227.7L606,294.3L645.18,336.6L662.6,251.1ZM627.78,22.5L619.07,40.5L672.18,13.5L637.35,2.7L627.78,22.5ZM667.83,54L673.05,15.3L619.05,43.2L632.11,45.9L667.83,54ZM646.93,339.3L679.15,372.6L668.7,233.1L646.93,339.3ZM652.16,392.4L679.16,375.3L646.94,342.9L652.16,392.4ZM662.6,464.4L678.28,378L667.83,385.2L652.16,395.1L658.25,436.5L662.6,464.4ZM691.34,186.3L707.88,124.2L680.88,135L653,146.7L691.34,186.3ZM653.9,138.6L700.9,40.5L669.57,56.7L653.9,138.6ZM708.75,120.6L703.53,42.3L670.44,109.8L653.9,144L667,138.6L708.75,120.6ZM714.85,420.3L664.35,472.5L741.84,523.8L714.85,420.3ZM742.71,526.5L664.35,474.3L664.35,567L742.71,526.5ZM694,576L664.4,570.6L683.55,613.8L686.16,603L694,576ZM665.22,468L714,417.6L681.78,378.9L665.22,468ZM695.69,574.2L739.23,531L667,568.8L695.69,574.2ZM691.34,191.7L669.57,225L680.89,247.5L701.79,289.8L695.69,231.3L691.34,191.7ZM675.67,15.3L670.44,54L701.79,36.9L675.67,15.3ZM670.44,230.4L675.67,305.1L680.89,368.1L702.66,297.9L670.44,230.4ZM676.54,13.5L685.24,20.7L701.79,35.1L698.3,15.3L697.43,8.1L676.54,13.5ZM682.63,374.4L726.17,374.4L744.45,319.5L767.09,254.7L722.68,317.7L682.63,374.4ZM725.3,377.1L682.63,377.1L699.17,396.9L714.85,415.8L720.94,396.9L725.3,377.1ZM705.3,297.9L683.53,369.9L765.38,251.1L705.3,297.9ZM703.56,590.4L695.72,578.7L687,606.6L684.39,616.5L719.2,616.5L703.56,590.4ZM693.08,190.8L704.4,294.3L768.83,245.7L743.58,227.7L693.08,190.8ZM697.43,171L694,184.5L732.31,151.2L769.7,117L710.49,123.3L697.43,171ZM755.77,165.6L734.87,173.7L694.87,189L746.24,225.9L769.7,243L755.77,165.6ZM720.94,613.8L742.71,530.1L696.56,575.1L704.4,588.6L720.94,613.8ZM699.17,9L702.66,27L704.4,36L740.1,19.8L727.91,16.2L699.17,9ZM700.92,181.8L764.48,148.5L772.31,119.7L700.92,181.8ZM742.71,22.5L718.33,32.4L705.27,38.7L706.14,51.3L710.49,116.1L742.71,22.5ZM725.3,171.9L707,181.8L709.61,180L755.76,162.9L762.76,152.1L725.3,171.9ZM744.45,23.4L719.2,98.1L711.36,120.6L772.31,115.2L746.19,28.8L744.45,23.4ZM713.11,9.9L744.45,18L757.51,13.5L713.11,9.9ZM760.11,396L716.58,418.5L724.42,449.1L744.42,521.1L760.11,396ZM759.24,393.3L727.9,377.1L717.45,414.9L759.24,393.3ZM772.3,586.8L763.6,567.9L745.32,531L723.55,613.8L755.77,595.8L772.3,586.8ZM725.3,616.5L761.87,616.5L772.31,589.5L725.3,616.5ZM766.22,342L741,364.5L728.81,375.3L761,391.5L766.22,342ZM767.09,338.4L768.83,253.8L760.12,281.7L729.65,371.7L767.09,338.4ZM746.19,19.8L770.57,102.6L761.87,14.4L746.19,19.8ZM761.87,406.8L746.19,526.5L764.48,564.3L772.31,581.4L761.87,406.8ZM768,347.4L764.48,378L763.61,391.5L775.8,381.6L768,347.4ZM772.35,247.5L768.87,337.5L851.59,285.3L772.35,247.5ZM777.61,379.8L870.78,340.2L769.78,340.2L777.61,379.8ZM874.26,338.4L869.9,327.6L852.49,287.1L771.49,338.4L874.26,338.4ZM844.65,279.9L788,234.9L773.2,245.7L844.65,279.9ZM896,392.4L890.77,369.9L888.16,359.1L783.63,381.6L896,392.4ZM887.29,356.4L875.97,341.1L813.28,367.2L788.86,378L887.29,356.4ZM853.29,283.5L874.19,243.9L792.34,234.9L853.29,283.5ZM855.03,284.4L880.28,301.5L924.69,328.5L875.93,244.8L873.32,249.3L855.03,284.4ZM876.8,338.4L924.69,333L856.77,288.9L869,318.6L876.8,338.4ZM877.67,243.9L926.43,326.7L909.89,237.6L877.67,243.9ZM889,356.4L923.83,335.7L890.74,338.4L877.68,340.2L889,356.4ZM970,384.3L890.76,359.1L898.6,392.4L970,384.3ZM971.74,382.5L929,335.7L928.13,334.8L891.6,357.3L971.74,382.5ZM940.36,243.9L912.5,237.6L929,329.4L944.68,294.3L964.68,246.6L963.81,246.6L940.36,243.9ZM930.78,333L968.23,351L971.71,352.8L966.48,251.1L943.85,302.4L930.78,333ZM971.71,360.9L971.71,355.5L956.91,348.3L934.27,337.5L973.45,380.7L971.71,360.9ZM978.71,135L1007.45,101.7L1026.6,79.2L962.17,101.7L978.71,135ZM984.81,60.3L1017,5.4L973.45,17.1L963,95.4L984.81,60.3ZM963.87,99L1030.05,75.6L1027.43,58.5L1018.73,7.2L963.87,99ZM998.7,263.7L1005.7,268.2L990.86,198L978.67,143.1L968.23,244.8L998.7,263.7ZM968.23,247.5L970,277.2L973.48,349.2L1005.7,270L968.23,247.5ZM1046.59,450.9L976.06,387L968.23,479.7L1046.59,450.9ZM1045.72,453.6L968.23,482.4L973.45,574.2L1045.72,453.6ZM1015.24,574.2L982.16,577.8L973.45,578.7L968.23,617.4L1015.24,574.2ZM1001.31,612.9L1012.63,584.1L1016.11,576L990,600.3L970,618.3L1001.31,612.9ZM1037.88,439.2L974.32,359.1L976.93,384.3L1037.88,439.2ZM975.19,352.8L1030.05,347.4L1037.88,317.7L1062.26,223.2L980.41,344.7L975.19,352.8ZM1030.05,349.2L975.19,355.5L1046.59,446.4L1030.05,349.2ZM1018.73,570.6L1029.18,509.4L975.18,576.9L1007.4,572.4L1018.73,570.6ZM978.67,343.8L1030.92,267.3L1060.52,222.3L1008.28,270.9L978.67,343.8ZM1030.05,176.4L1030.05,79.2L980.41,136.8L1030.05,176.4ZM1007.41,263.7L1019.6,217.8L1030.05,180L994.35,151.2L980.41,139.5L987.41,172.8L1007.41,263.7ZM1030.05,504.9L1044.85,459L983.9,562.5L1030.05,504.9ZM1054.43,556.2L1003.92,613.8L1070.1,619.2L1054.43,556.2ZM1005.67,608.4L1050.07,557.1L1020.47,573.3L1005.67,608.4ZM1064.87,215.1L1031.79,181.8L1011.79,260.1L1010.05,266.4L1064.87,215.1ZM1034.4,44.1L1042.24,30.6L1050.07,17.1L1021.34,6.3L1034.4,44.1ZM1052.68,553.5L1031.79,509.4L1026.56,539.1L1021.34,568.8L1052.68,553.5ZM1030.92,67.5L1032.66,46.8L1022.21,15.3L1023.08,24.3L1030.92,67.5ZM1053.56,119.7L1039.62,93.6L1031.79,81L1031.79,173.7L1053.56,119.7ZM1035.27,47.7L1032.66,74.7L1069.23,53.1L1049.23,49.5L1035.27,47.7ZM1070.1,54.9L1032.66,77.4L1054.43,116.1L1062.26,85.5L1070.1,54.9ZM1032.66,179.1L1064,211.5L1059.65,172.8L1053.56,124.2L1045.72,144.9L1032.66,179.1ZM1032.66,348.3L1071,370.8L1064.9,224.1L1064.03,227.7L1032.66,348.3ZM1049.2,445.5L1070.97,373.5L1040.49,354.6L1032.66,350.1L1047.46,435.6L1049.2,445.5ZM1032.66,503.1L1100.57,460.8L1115.38,451.8L1049.2,451.8L1032.66,503.1ZM1032.66,505.8L1054.43,551.7L1115.43,454.5L1032.66,505.8ZM1051.81,18.9L1036.14,45L1070.14,51.3L1051.81,18.9ZM1072.71,373.5L1050.94,446.4L1086.64,405L1131.92,351L1072.71,373.5ZM1134.53,351.9L1050.94,450L1117.94,450L1134.53,351.9ZM1053.53,17.1L1072.68,50.4L1120.57,14.4L1132.76,5.4L1053.53,17.1ZM1056.14,115.2L1125,37.8L1072.76,53.1L1056.14,115.2ZM1056.14,118.8L1089.22,176.4L1127.53,39.6L1056.14,118.8ZM1088.35,179.1L1056.14,124.2L1059.62,155.7L1066.62,211.5L1088.35,179.1ZM1088.35,537.3L1056.14,554.4L1071.81,615.6L1073.55,605.7L1088.35,537.3ZM1113.6,461.7L1077.03,520.2L1057.88,550.8L1088.35,534.6L1100.54,499.5L1113.6,461.7ZM1124.05,228.6L1089.22,180.9L1077.94,198L1067.49,214.2L1109.28,225L1124.05,228.6ZM1067.46,218.7L1069.2,263.7L1072.68,364.5L1094.45,258.3L1067.46,218.7ZM1125,231.3L1097.14,224.1L1069.28,217.8L1086.69,243L1096.27,256.5L1105.85,248.4L1125,231.3ZM1123.26,554.4L1090.17,537.3L1076.24,603.9L1073.63,615.6L1111,569.7L1123.26,554.4ZM1095.4,261.9L1091.05,279.9L1074.5,365.4L1111.07,302.4L1095.4,261.9ZM1112.81,305.1L1074.5,370.8L1134.58,348.3L1112.81,305.1ZM1124.13,556.2L1099.75,587.7L1074.5,619.2L1131.97,612.9L1124.13,556.2ZM1077.94,49.5L1129.31,33.3L1134.53,7.2L1077.94,49.5ZM1130.18,39.6L1091,177.3L1141.5,160.2L1130.18,39.6ZM1091,180L1103.19,196.2L1126.69,228.6L1140.63,162.9L1091,180ZM1091,535.5L1124.08,552.6L1134.53,468L1091,535.5ZM1119.73,452.7L1101.44,504.9L1093.61,527.4L1134.53,463.5L1119.73,452.7ZM1126.73,233.1L1113.67,243.9L1097.13,258.3L1138.05,294.3L1126.73,233.1ZM1098,261.9L1113.67,302.4L1137.18,297L1098,261.9ZM1114.54,304.2L1121.54,317.7L1135.47,344.7L1138.08,298.8L1114.54,304.2ZM1135.44,360.9L1119.73,450L1135.4,461.7L1135.44,360.9Z" style="fill:rgb(255,255,255);fill-rule:nonzero;"/>
            </g>
            <g id="Points-T" transform="matrix(0.938912,0,0,0.917279,556.264,0)">
                <g transform="matrix(1,0,0,1,-12.3457,-1.97754)">
                    <circle cx="68.932" cy="79.609" r="2.488" style="opacity:0"/>
                </g>
                <g transform="matrix(1,0,0,1,13.1357,26.2461)">
                    <circle cx="68.932" cy="79.609" r="2.488" style="opacity:0"/>
                </g>
                <g transform="matrix(1,0,0,1,-4.75879,38.3926)">
                    <circle cx="68.932" cy="79.609" r="2.488" style="opacity:0"/>
                </g>
                <g transform="matrix(1,0,0,1,32.2559,-14.4326)">
                    <circle cx="68.932" cy="79.609" r="2.488" style="opacity:0"/>
                </g>
                <g transform="matrix(1,0,0,1,70.415,-2.12109)">
                    <circle cx="68.932" cy="79.609" r="2.488" style="opacity:0"/>
                </g>
                <g transform="matrix(1,0,0,1,96.1231,-8.1377)">
                    <circle cx="68.932" cy="79.609" r="2.488" style="opacity:0"/>
                </g>
                <g transform="matrix(1,0,0,1,100.572,21.6318)">
                    <circle cx="68.932" cy="79.609" r="2.488" style="opacity:0"/>
                </g>
                <g transform="matrix(1,0,0,1,66.0557,39.7012)">
                    <circle cx="68.932" cy="79.609" r="2.488" style="opacity:0"/>
                </g>
                <g transform="matrix(1,0,0,1,139.309,4.9541)">
                    <circle cx="68.932" cy="79.609" r="2.488" style="opacity:0"/>
                </g>
                <g transform="matrix(1,0,0,1,159.653,-2.77832)">
                    <circle cx="68.932" cy="79.609" r="2.488" style="opacity:0"/>
                </g>
                <g transform="matrix(1,0,0,1,-9.29395,177.469)">
                    <circle cx="68.932" cy="79.609" r="2.488" style="opacity:0"/>
                </g>
                <g transform="matrix(1,0,0,1,48.8672,130.538)">
                    <circle cx="68.932" cy="79.609" r="2.488" style="opacity:0"/>
                </g>
                <g transform="matrix(1,0,0,1,106.863,106.705)">
                    <circle cx="68.932" cy="79.609" r="2.488" style="opacity:0"/>
                </g>
                <g transform="matrix(1,0,0,1,170.779,100.484)">
                    <circle cx="68.932" cy="79.609" r="2.488" style="opacity:0"/>
                </g>
                <g transform="matrix(1,0,0,1,89.6563,172.354)">
                    <circle cx="68.932" cy="79.609" r="2.488" style="opacity:0"/>
                </g>
                <g transform="matrix(1,0,0,1,-3.96582,196.368)">
                    <circle cx="68.932" cy="79.609" r="2.488" style="opacity:0"/>
                </g>
                <g transform="matrix(1,0,0,1,65.1133,210.104)">
                    <circle cx="68.932" cy="79.609" r="2.488" style="opacity:0"/>
                </g>
                <g transform="matrix(1,0,0,1,-15.4756,290.39)">
                    <circle cx="68.932" cy="79.609" r="2.488" style="opacity:0"/>
                </g>
                <g transform="matrix(1,0,0,1,1.65723,278.475)">
                    <circle cx="68.932" cy="79.609" r="2.488" style="opacity:0"/>
                </g>
                <g transform="matrix(1,0,0,1,100.58,279.591)">
                    <circle cx="68.932" cy="79.609" r="2.488" style="opacity:0"/>
                </g>
                <g transform="matrix(1,0,0,1,166.577,230.742)">
                    <circle cx="68.932" cy="79.609" r="2.488" style="opacity:0"/>
                </g>
                <g transform="matrix(1,0,0,1,185.837,218.181)">
                    <circle cx="68.932" cy="79.609" r="2.488" style="opacity:0"/>
                </g>
                <g transform="matrix(1,0,0,1,273.139,227.063)">
                    <circle cx="68.932" cy="79.609" r="2.488" style="opacity:0"/>
                </g>
                <g transform="matrix(1,0,0,1,308.245,220.876)">
                    <circle cx="68.932" cy="79.609" r="2.488" style="opacity:0"/>
                </g>
                <g transform="matrix(1,0,0,1,250.454,269.096)">
                    <circle cx="68.932" cy="79.609" r="2.488" style="opacity:0"/>
                </g>
                <g transform="matrix(1,0,0,1,42.1523,322.843)">
                    <circle cx="68.932" cy="79.609" r="2.488" style="opacity:0"/>
                </g>
                <g transform="matrix(1,0,0,1,77.6113,358.64)">
                    <circle cx="68.932" cy="79.609" r="2.488" style="opacity:0"/>
                </g>
                <g transform="matrix(1,0,0,1,-0.955078,395.691)">
                    <circle cx="68.932" cy="79.609" r="2.488" style="opacity:0"/>
                </g>
                <g transform="matrix(1,0,0,1,124.361,359.636)">
                    <circle cx="68.932" cy="79.609" r="2.488" style="opacity:0"/>
                </g>
                <g transform="matrix(1,0,0,1,141.137,511.779)">
                    <circle cx="68.932" cy="79.609" r="2.488" style="opacity:0"/>
                </g>
                <g transform="matrix(1,0,0,1,60.1133,553.532)">
                    <circle cx="68.932" cy="79.609" r="2.488" style="opacity:0"/>
                </g>
                <g transform="matrix(1,0,0,1,-10.1523,581.397)">
                    <circle cx="68.932" cy="79.609" r="2.488" style="opacity:0"/>
                </g>
                <g transform="matrix(1,0,0,1,-4.41016,600.009)">
                    <circle cx="68.932" cy="79.609" r="2.488" style="opacity:0"/>
                </g>
                <g transform="matrix(1,0,0,1,91.834,559.9)">
                    <circle cx="68.932" cy="79.609" r="2.488" style="opacity:0"/>
                </g>
                <g transform="matrix(1,0,0,1,79.7813,601.238)">
                    <circle cx="68.932" cy="79.609" r="2.488" style="opacity:0"/>
                </g>
                <g transform="matrix(1,0,0,1,118.677,599.747)">
                    <circle cx="68.932" cy="79.609" r="2.488" style="opacity:0"/>
                </g>
                <g transform="matrix(1,0,0,1,170.507,570.313)">
                    <circle cx="68.932" cy="79.609" r="2.488" style="opacity:0"/>
                </g>
                <g transform="matrix(1,0,0,1,164.845,323.208)">
                    <circle cx="68.932" cy="79.609" r="2.488" style="opacity:0"/>
                </g>
                <g transform="matrix(1,0,0,1,175.228,364.883)">
                    <circle cx="68.932" cy="79.609" r="2.488" style="opacity:0"/>
                </g>
                <g transform="matrix(1,0,0,1,158.702,377.316)">
                    <circle cx="68.932" cy="79.609" r="2.488" style="opacity:0"/>
                </g>
                <g transform="matrix(1,0,0,1,113.038,401.628)">
                    <circle cx="68.932" cy="79.609" r="2.488" style="opacity:0"/>
                </g>
                <g transform="matrix(1,0,0,1,59.8242,455.879)">
                    <circle cx="68.932" cy="79.609" r="2.488" style="opacity:0"/>
                </g>
                <g transform="matrix(1,0,0,1,5.33105,429.735)">
                    <circle cx="68.932" cy="79.609" r="2.488" style="opacity:0"/>
                </g>
                <g transform="matrix(1,0,0,1,286.052,341.545)">
                    <circle cx="68.932" cy="79.609" r="2.488" style="opacity:0"/>
                </g>
                <g transform="matrix(1,0,0,1,272.553,323.544)">
                    <circle cx="68.932" cy="79.609" r="2.488" style="opacity:0"/>
                </g>
                <g transform="matrix(1,0,0,1,325.259,316.556)">
                    <circle cx="68.932" cy="79.609" r="2.488" style="opacity:0"/>
                </g>
                <g transform="matrix(1,0,0,1,294.997,377.398)">
                    <circle cx="68.932" cy="79.609" r="2.488" style="opacity:0"/>
                </g>
                <g transform="matrix(1,0,0,1,370.651,368.2)">
                    <circle cx="68.932" cy="79.609" r="2.488" style="opacity:0"/>
                </g>
                <g transform="matrix(1,0,0,1,370.815,337.419)">
                    <circle cx="68.932" cy="79.609" r="2.488" style="opacity:0"/>
                </g>
                <g transform="matrix(1,0,0,1,362.978,230.773)">
                    <circle cx="68.932" cy="79.609" r="2.488" style="opacity:0"/>
                </g>
                <g transform="matrix(1,0,0,1,464.161,200.005)">
                    <circle cx="68.932" cy="79.609" r="2.488" style="opacity:0"/>
                </g>
                <g transform="matrix(1,0,0,1,404.307,251.154)">
                    <circle cx="68.932" cy="79.609" r="2.488" style="opacity:0"/>
                </g>
                <g transform="matrix(1,0,0,1,429.065,163.216)">
                    <circle cx="68.932" cy="79.609" r="2.488" style="opacity:0"/>
                </g>
                <g transform="matrix(1,0,0,1,375.993,119.931)">
                    <circle cx="68.932" cy="79.609" r="2.488" style="opacity:0"/>
                </g>
                <g transform="matrix(1,0,0,1,452.131,101.205)">
                    <circle cx="68.932" cy="79.609" r="2.488" style="opacity:0"/>
                </g>
                <g transform="matrix(1,0,0,1,427.746,61.9939)">
                    <circle cx="68.932" cy="79.609" r="2.488" style="opacity:0"/>
                </g>
                <g transform="matrix(1,0,0,1,469.306,36.4782)">
                    <circle cx="68.932" cy="79.609" r="2.488" style="opacity:0"/>
                </g>
                <g transform="matrix(1,0,0,1,431.433,29.6218)">
                    <circle cx="68.932" cy="79.609" r="2.488" style="opacity:0"/>
                </g>
                <g transform="matrix(1,0,0,1,416.14,-11.1497)">
                    <circle cx="68.932" cy="79.609" r="2.488" style="opacity:0"/>
                </g>
                <g transform="matrix(1,0,0,1,449.203,0.14133)">
                    <circle cx="68.932" cy="79.609" r="2.488" style="opacity:0"/>
                </g>
                <g transform="matrix(1,0,0,1,532.164,-12.0989)">
                    <circle cx="68.932" cy="79.609" r="2.488" style="opacity:0"/>
                </g>
                <g transform="matrix(1,0,0,1,526.773,18.7077)">
                    <circle cx="68.932" cy="79.609" r="2.488" style="opacity:0"/>
                </g>
                <g transform="matrix(1,0,0,1,486.134,162.768)">
                    <circle cx="68.932" cy="79.609" r="2.488" style="opacity:0"/>
                </g>
                <g transform="matrix(1,0,0,1,538.828,145.067)">
                    <circle cx="68.932" cy="79.609" r="2.488" style="opacity:0"/>
                </g>
                <g transform="matrix(1,0,0,1,524.323,214.528)">
                    <circle cx="68.932" cy="79.609" r="2.488" style="opacity:0"/>
                </g>
                <g transform="matrix(1,0,0,1,493.585,242.269)">
                    <circle cx="68.932" cy="79.609" r="2.488" style="opacity:0"/>
                </g>
                <g transform="matrix(1,0,0,1,536.06,280.913)">
                    <circle cx="68.932" cy="79.609" r="2.488" style="opacity:0"/>
                </g>
                <g transform="matrix(1,0,0,1,510.192,287.206)">
                    <circle cx="68.932" cy="79.609" r="2.488" style="opacity:0"/>
                </g>
                <g transform="matrix(1,0,0,1,469.013,355.117)">
                    <circle cx="68.932" cy="79.609" r="2.488" style="opacity:0"/>
                </g>
                <g transform="matrix(1,0,0,1,427.243,332.937)">
                    <circle cx="68.932" cy="79.609" r="2.488" style="opacity:0"/>
                </g>
                <g transform="matrix(1,0,0,1,533.21,332.431)">
                    <circle cx="68.932" cy="79.609" r="2.488" style="opacity:0"/>
                </g>
                <g transform="matrix(1,0,0,1,446.625,433.247)">
                    <circle cx="68.932" cy="79.609" r="2.488" style="opacity:0"/>
                </g>
                <g transform="matrix(1,0,0,1,514.873,435.705)">
                    <circle cx="68.932" cy="79.609" r="2.488" style="opacity:0"/>
                </g>
                <g transform="matrix(1,0,0,1,532.539,447.975)">
                    <circle cx="68.932" cy="79.609" r="2.488" style="opacity:0"/>
                </g>
                <g transform="matrix(1,0,0,1,428.241,490.929)">
                    <circle cx="68.932" cy="79.609" r="2.488" style="opacity:0"/>
                </g>
                <g transform="matrix(1,0,0,1,363.731,465.081)">
                    <circle cx="68.932" cy="79.609" r="2.488" style="opacity:0"/>
                </g>
                <g transform="matrix(1,0,0,1,369.94,560.756)">
                    <circle cx="68.932" cy="79.609" r="2.488" style="opacity:0"/>
                </g>
                <g transform="matrix(1,0,0,1,415.756,555.758)">
                    <circle cx="68.932" cy="79.609" r="2.488" style="opacity:0"/>
                </g>
                <g transform="matrix(1,0,0,1,451.884,537.6)">
                    <circle cx="68.932" cy="79.609" r="2.488" style="opacity:0"/>
                </g>
                <g transform="matrix(1,0,0,1,486.339,519.555)">
                    <circle cx="68.932" cy="79.609" r="2.488" style="opacity:0"/>
                </g>
                <g transform="matrix(1,0,0,1,521.41,537.81)">
                    <circle cx="68.932" cy="79.609" r="2.488" style="opacity:0"/>
                </g>
                <g transform="matrix(1,0,0,1,364.237,602.953)">
                    <circle cx="68.932" cy="79.609" r="2.488" style="opacity:0"/>
                </g>
                <g transform="matrix(1,0,0,1,400.006,597.927)">
                    <circle cx="68.932" cy="79.609" r="2.488" style="opacity:0"/>
                </g>
                <g transform="matrix(1,0,0,1,469.157,602.906)">
                    <circle cx="68.932" cy="79.609" r="2.488" style="opacity:0"/>
                </g>
                <g transform="matrix(1,0,0,1,531.022,598.28)">
                    <circle cx="68.932" cy="79.609" r="2.488" style="opacity:0"/>
                </g>
                <g transform="matrix(1,0,0,1,358.512,84.9245)">
                    <circle cx="68.932" cy="79.609" r="2.488" style="opacity:0"/>
                </g>
                <g transform="matrix(1,0,0,1,369.025,0.108127)">
                    <circle cx="68.932" cy="79.609" r="2.488" style="opacity:0"/>
                </g>
            </g>
        </g>
    </g>
</svg>
