<svg xmlns="http://www.w3.org/2000/svg" viewBox="0 0 1858.08 624.6"><defs><style>.cls-1{fill:#fff;}</style></defs><g id="Layer_2" data-name="Layer 2"><g id="Wireframe"><g id="THM"><path id="M_Wireframe" data-name="M Wireframe" class="cls-1" d="M1852,489.6v.9l-6.09,120.6c0,.9,0,.9-.87.9l-47,12.6L1754.46,612l-72.27,6.3h-1.74V593.1l-6.09-151.2,12.19-123.3c-.87,0,0,0,0-.9l-11.32-33.3-39.18,60.3a.87.87,0,0,1-.87.9v.9l-20,54-58.34,69.3-.87.9h-26.12c-.87,0-.87-.9-1.74-.9v-.9l-40-37.8-.88-.9-51.37-59.4-.87-.9-35.7-71.1-15.67-26.1-1.74,12.6,8.71,15.3-6.1,63v.9l-6.09,83.7,29.6,114.3,2.61,54.9a.87.87,0,0,1-.87.9h-23.51l-72.27,6.3h-1.74L1283.41,612l-57.47,12.6h-.87l-.87-.9.87-108.9-6.09-36-6.1-72.9L1230.3,333l-17.42-180.9L1219,31.5v-.9l46.14-18h2.62l42.66,11.7,72.27-11.7h1.74l28.74,29.7.87.9-.87.9,29.6,58.5v.9l34.83,38.7L1535,246.6l20-31.5a.86.86,0,0,1,.87-.9l10.45-8.1,29.6-70.2,11.32-5.4,34.83-81a.87.87,0,0,1,.87-.9l35.7-42.3,73.14,6.3h.87l27.87,11.7,57.46-11.7c.87,0,.87-.9.87,0,.87-.9.87,0,.87,0,.87.9.87.9,0,.9V79.2l6.1,42.3v55.8l-11.32,71.1,23.51,115.2-23.51,90ZM1264.25,16.2l-43.53,16.2-5.23,112.5Zm7,176.4-6.1-171.9-49.63,131.4ZM1232,327.6l39.18-132.3-21.77-16.2-34-24.3Zm61,124.2-30.48-57.6L1232,336.6,1215.49,405Zm-54,18.9,54-17.1-77.5-45.9,5.23,69.3Zm30.48,5.4,20.89-18.9-69.65,22.5,6.09,32.4Zm-4.36,74.7-38.31-33.3V619.2Zm-37.44-36L1266,549l20-67.5,7.84-23.4L1266,481.5ZM1266,554.4l-38.31,67.5,54.86-11.7ZM1294.73,450V275.4l-61.82,58.5Zm0-178.2-13.06-42.3-9.58-31.5-38.31,132.3,10.45-9.9ZM1273,184.5l4.35-26.1,14.81-78.3-24.38-59.4,1.74,56.7Zm-5.22,365.4,43.53-6.3-15.67-85.5-12.19,39.6Zm43.53-3.6-43.53,5.4,16.54,56.7ZM1293,76.5l15.67-50.4-40.05-11.7Zm2.61,191.7,32.21-175.5-54,101.7Zm-20.9-81.9,54-99.9L1293.86,81Zm37.44,435.6v-72l-9.58,20.7-17.41,40.5ZM1294.73,78.3l34.83,6.3-18.29-53.1-.87-2.7-7.84,24.3Zm23.51,297L1304.31,315l-7.84-33.3V447.3Zm7.83-36,9.58-38.7-38.31-25.2,21.77,95.4Zm-28.73,116.1L1310.4,522l3.48,17.1,18.29-54.9,8.71-28.8Zm34.83-369-22.64,117-11.32,62.1L1409.66,45.9Zm50.5,69.3-84.46,116.1,84.46-2.7ZM1320,377.1,1298.21,450l81.85-84.6-13.93,2.7Zm59.21-7.2-81,82.8h43.54Zm-80.11-96.3,37.44,25.2,43.54-27.9ZM1408.79,53.1,1302.56,261.9l80.11-110.7Zm-97.52-27,6.1,18.9,13.93,38.7,24.38-35.1,25.25-34.2Zm24.38,532.8L1347,529.2l-32.22,16.2v9l-.87,63Zm6.1-99-26.13,81.9L1347,525.6Zm43.53,156.6-1.74-20.7-7-59.4-30.47,42.3-30.48,43.2Zm-10.45-82.8-26.12-5.4-32.21,88.2,13.06-18Zm6.1-171-43.54-60.3-16.54,72,30.47-6.3Zm-47-279.9,76.62-39.6-27-28.8Zm5.22,218.7,44.41,58.5,4.35-58.5Zm4.36,153.9,5.22,65.7,27-72-21.76,4.5Zm.87-159.3,34.83-11.7,2.61-12.6Zm35.7-9.9-35.7,12.6H1387ZM1353.94,432l-9.58,20.7,21.77-3.6,10.44-1.8,5.23-77.4Zm-3.49,93.6,26.12,5.4V453.6l-6.09,18Zm27.87,6.3,26.12,27.9-26.12-103.5Zm.87,8.1,7.83,76.5h20.9Zm27,23.4-25.25-25.2,27,71.1Zm-21.77-299.7,54.86-156.6L1384.41,153Zm28.74-217.8-27.87,102.6,54.86-45Zm33.08,216.9-61,8.1,14.8,25.2Zm-6.09-151.2-40.06,114.3-13.93,38.7,51.37-61.2Zm9.57,148.5-11.31-54-28.74,35.1-22.64,27Zm-8.7,62.1,7.83-58.5L1401,298.8l34,66.6Zm10.45-55.8-13.06,99,33.95-35.1Zm32.21,80.1-9.58-14.4L1438.4,369l65.3,5.4Zm4.36,81.9,15.67-51.3-65.3-6.3Zm-46.15-281.7-1.74,53.1,35.7-56.7-33.09-36.9Zm-.87,56.7,91.42,42.3-55.72-100.8Zm34,59.4L1457.55,234,1441,208.8l5.22,27,5.23,24.3,7.83.9Zm-32.22-56.7,35.7,56.7,53.11-14.4Zm30.47,118.8,2.62-51.3.87-9-24.38-1.8Zm5.23-58.5-2.61,46.8-.87,16.2,85.32,9Zm-1.74,64.8,30.47,42.3,54-33.3Zm57.46-81-17.41,4.5-36.57,9.9,82.72,71.1Zm-27.86,129.6-8.71,24.3-7.83,25.2,37.44,36.9Zm56.6-37.8-55.73,34.2,19.16,77.4,2.61,9.9L1557.68,360Zm-7.84,126,7.84-117.9-11.32,42.3-20,75.6Zm-18.28-218.7,18.28,57.6,7.84,23.4-7.84-111.6Zm20-32.4,2.61,33.3,6.1,84.6,5.22-15.3,33.09-90.9-31.35-8.1Zm8.71,125.1-4.35,53.1-4.36,71.1,55.73-66.6ZM1596,224.1l2.62.9-2.62-1.8-28.73-15.3-8.71,7.2Zm-28.73,110.7,34-35.1,2.61-64.8Zm0,5.4,46.15,56.7,1.74-44.1.87-29.7ZM1569,206.1l34.83,19.8L1596,141.3Zm33.09,95.4L1569,336.6l45.28-16.2-3.48-6.3Zm-4.35-163.8,7,72,2.61-72.9v-4.5Zm74.88,111.6-66.18-19.8-.87,16.2-1.74,52.2,34.83-24.3Zm-68.79,51.3,7,9,6.09,9.9L1670,253.8Zm2.61-81,32.22-95.4-29.6,8.1Zm0,7.2,22.64,7.2,44.41,12.6L1640.4,125.1l-2.61,7.2Zm3.49-98.1,29.6-8.1,1.74-64.8Zm22.63,217.8-14.8-21.6-.87,19.8-1.74,47.7Zm39.19-60.3-53.12,35.1,7.84,10.8,7.84,11.7Zm2.61-34.2-52.24,64.8,52.24-35.1ZM1644.75,54.9l-3.48,64.8,20.9-12.6,5.22-3.6L1655.2,78.3Zm3.49,77.4,20,27.9V105.3l-26.12,17.1Zm-5.23-4.5,30.48,110.7v-7.2l-5.23-66.6v-.9Zm1.74-78.3,46.15,39.6-6.09-39.6-7-39.6ZM1670,101.7l20.9-9.9L1646.5,54l11.31,23.4Zm.88,2.7v53.1l20-63-9.58,4.5Zm5.22,134.1,15.67-78.3-20.89,5.4Zm17.41-144.9-20.89,65.7,41.79-54.9Zm-20,68.4,18.28-4.5,20-45Zm13.93,153,12.19-18,37.44-58.5-26.12,4.5-34,7.2Zm-5.23-23.4L1677,263.7v18l7,23.4Zm27,171.9-9.58-57.6-12.19-79.2L1677,441.9ZM1684.81,576l24.38-108.9-20.9-15.3L1677,443.7l5.22,142.2Zm75.75-416.7h-66.18l-16.54,85.5Zm-81-151.2,4.36,27,9.57,54,27.87-37.8,27.86-36.9Zm59.21,227.7,8.71-27,13.06-45.9-81,83.7,47-8.1Zm-31.35,362.7,20.9-15.3L1682.19,594v21.6Zm25.26-18.9,15.67-128.7-65.31,140.4,20-4.5Zm-47,1.8,34-72,29.6-64.8-37.44,22.5Zm67,28.8-6.09-9.9-12.19-18-47.89,33.3ZM1711.8,464.4l38.31-22.5L1689.16,324l7,43.2ZM1690.9,315l87.94-54-38.31-22.5Zm123.64,25.2L1690.9,320.4l101,107.1ZM1832,251.1l-140.19,66.6,122.77,20.7ZM1751.85,441l12.19-3.6,26.12-8.1L1691.77,324l20.9,40.5ZM1694.38,91.8l20.9,9.9,14.8-36,16.55-44.1L1709.19,72Zm1.75,64.8,88.81-23.4-13.06-18L1751,87.3l-13.93,17.1Zm.87-4.5,50.5-63L1717,105.3Zm4.35,5.4h61l20.9-21.6Zm80.11,104.4-75.76,45.9,115.81-54.9L1798,258.3ZM1750.11,19.8l-32.22,81.9,32.22-17.1Zm-13.93,557.1L1791,514.8l-38.31-68.4Zm18.28,32.4,7.84-10.8,7.84-10.8-13.93-1.8-20-3.6,12.19,18Zm17.42-23.4,7-27,11.32-39.6-9.57,10.8-43.54,49.5Zm-8.71-423-21.77,72.9,30.48,18.9,7.83,4.5ZM1752.72,14.4V80.1L1765.78,54l13.06-27.9Zm44.41,54.9-44.41,17.1L1764,101.7l21.77,29.7,7-36.9Zm-7,362.7-25.25,7.2-12.19,3.6,37.44,66.6Zm-9.57-404.1-26.13,55.8,42.67-17.1Zm-.88,571.5-7.83-10.8-15.67,21.6,39.18,11.7Zm-14.8-436.5,16.55,96.3,25.25-5.4,24.38-6.3-15.68-20.7Zm.87-2.7,26.12,34.2,40.93,52.2,11.32-69.3Zm1.74-2.7,76.63,17.1V123.3Zm20-22.5-18.28,18.9,32.21-13.5,42.67-19.8-6.1-38.7Zm9.58,485.1-6.1-97.2-3.48,11.7-14.8,52.2Zm-2.61-562.5,3.48,8.1,13.06-17.1,25.25-34.2-54,11.7Zm4.35,11.7-10.45,61.2,48.76-50.4-13.93-3.6Zm32.22,382.5-15.68-106.2-21.76,83.7Zm.87,2.7L1793.65,432v79.2Zm17.41,37.8-55.72,23.4.87,17.1,4.35,85.5,10.45-26.1Zm-16.54-36-37.44,55.8,54-22.5ZM1799.74,66.6,1825,74.7l13.06,3.6V16.2l-14.8,18Zm29.61,479.7-29.61,75.6,44.41-11.7,5.22-113.4Zm4.35-292.5-16.55,85.5,38.32,22.5ZM1825,345.6l-7.84-4.5,16.55,107.1,21.77-83.7Z"/><path id="H_Wireframe" data-name="H Wireframe" class="cls-1" d="M1143.24,160.2V162l-14.8,69.3,12.19,65.7-3.49,51.3V464.4l-11.32,89.1,8.71,60.3v.9a.87.87,0,0,0-.87.9l-61,5.4H1071l-68.79-5.4L967.35,621h-.87l-.87-.9,6.1-42.3-6.1-96.3,8.71-95.4-76.62,9L777.54,382.5l-13.93,11.7,11.32,191.7v1.8l-11.32,29.7-.87.9H598.17l-.87-.9-5.22-18v-.9l14.8-153.9-6.1-31.5v-.9L586,306.9V306l11.32-92.7-5.22-18v-1.8L597.3,55.8l-8.71-42.3v-.9h.88c0-.9,0,0,.87,0L636.48,0h.87l36.57,12.6c.87-.9.87,0,.87,0l22.64-6.3h1.74l62.7,6.3c.87-.9.87,0,.87,0,.87,0,.87,0,.87.9l11.32,102.6v.9l-8.71,32.4a.87.87,0,0,1-.87.9l-7.84,14.4,14.8,79.2L788,233.1c0-.9.87-.9.87,0l87.07,9,34.83-6.3h.87l54,9L977.8,137.7l-17.41-36c-.87-.9-.87-.9,0-1.8l11.32-83.7c0-.9,0-.9.87-.9l46.15-11.7c0-.9,0-.9.87-.9l.87.9,31.34,11.7,84.46-12.6.87.9V5.4l-6.09,28.8c.87,0,.87.9,0,.9Zm-554.65,144,4.36-3.6,10.45-7.2-5.23-70.2Zm55.73,36-47-27-8.71-5.4,13.94,100.8Zm-5.22-6.3-7-7.2-27.86-30.6-14.8,9.9Zm-34.83-306,11.32,12.6L634.74,2.7,592.08,13.5Zm2.61,20.7,7.84-5.4L592.08,17.1,599,54ZM599,210.6l13.06-17.1,31.35-39.6-49.63,41.4Zm55.73,362.7-16.54,7.2-44.41,19.8L599,615.6ZM594.69,189l20.9-38.7L667,55.8l-25.25-5.4L617.33,45Zm20-143.1-9.58,6.3-5.23,3.6-5.22,120.6Zm46.14,426.6-52.24-25.2L594.69,594Zm.87,95.4V476.1L595.56,596.7ZM597.3,189l53.12-44.1,15.67-81-49.63,90Zm7.84,102.6,61-65.7L633,219.6l-33.09-5.4,1.75,30.6Zm-3.48-81,88.81-22.5-39.18-40.5L639.1,163.8ZM672.18,594l-9.58-23.4-60.94,45.9h80.1ZM603.4,212.4l64.43,10.8,7.84-10.8,13.93-22.5ZM653,414l-2.61-18.9-47,17.1,57.46,57.6Zm-44.41,30.6,30.48,15.3,17.41,8.1L633,444.6l-29.6-28.8Zm41.8-52.2-.88-9-5.22-40.5-40.05,66.6,27-9.9ZM662.6,251.1,667,227.7l-61,66.6,39.18,42.3ZM627.78,22.5l-8.71,18,53.11-27L637.35,2.7ZM667.83,54l5.22-38.7-54,27.9,13.06,2.7Zm-20.9,285.3,32.22,33.3L668.7,233.1Zm5.23,53.1,27-17.1-32.22-32.4Zm10.44,72L678.28,378l-10.45,7.2-15.67,9.9,6.09,41.4Zm28.74-278.1,16.54-62.1-27,10.8L653,146.7ZM653.9,138.6l47-98.1L669.57,56.7Zm54.85-18-5.22-78.3-33.09,67.5L653.9,144,667,138.6Zm6.1,299.7-50.5,52.2,77.49,51.3Zm27.86,106.2-78.36-52.2V567ZM694,576l-29.6-5.4,19.15,43.2,2.61-10.8ZM665.22,468,714,417.6l-32.22-38.7Zm30.47,106.2L739.23,531,667,568.8Zm-4.35-382.5L669.57,225l11.32,22.5,20.9,42.3-6.1-58.5ZM675.67,15.3,670.44,54l31.35-17.1L688.73,26.1Zm-5.23,215.1,5.23,74.7,5.22,63,21.77-70.2Zm6.1-216.9,8.7,7.2,16.55,14.4L698.3,15.3l-.87-7.2Zm6.09,360.9h43.54l18.28-54.9,22.64-64.8-44.41,63Zm42.67,2.7H682.63l16.54,19.8,15.68,18.9,6.09-18.9Zm-20-79.2-21.77,72,81.85-118.8Zm-1.74,292.5-7.84-11.7L687,606.6l-2.61,9.9H719.2ZM693.08,190.8,704.4,294.3l64.43-48.6-25.25-18Zm4.35-19.8L694,184.5l38.31-33.3L769.7,117l-59.21,6.3Zm58.34-5.4-20.9,8.1-40,15.3,51.37,36.9L769.7,243ZM720.94,613.8l21.77-83.7-46.15,45,7.84,13.5ZM699.17,9l3.49,18,1.74,9,35.7-16.2-12.19-3.6Zm1.75,172.8,63.56-33.3,7.83-28.8ZM742.71,22.5l-24.38,9.9-13.06,6.3.87,12.6,4.35,64.8ZM725.3,171.9,707,181.8l2.61-1.8,46.15-17.1,7-10.8ZM744.45,23.4,719.2,98.1l-7.84,22.5,60.95-5.4L746.19,28.8ZM713.11,9.9,744.45,18l13.06-4.5Zm47,386.1-43.53,22.5,7.84,30.6,20,72Zm-.87-2.7-31.34-16.2-10.45,37.8Zm13.06,193.5-8.7-18.9L745.32,531l-21.77,82.8,32.22-18Zm-47,29.7h36.57l10.44-27ZM766.22,342,741,364.5l-12.19,10.8L761,391.5Zm.87-3.6,1.74-84.6-8.71,27.9-30.47,90ZM746.19,19.8l24.38,82.8-8.7-88.2Zm15.68,387L746.19,526.5l18.29,37.8,7.83,17.1ZM768,347.4,764.48,378l-.87,13.5,12.19-9.9Zm2.61-54.9-1.74,45,82.72-52.2-79.24-37.8Zm7,87.3,93.17-39.6h-101Zm96.65-41.4-4.36-10.8-17.41-40.5-81,51.3Zm-29.61-58.5L788,234.9l-14.8,10.8ZM896,392.4l-5.23-22.5-2.61-10.8L783.63,381.6Zm-8.71-36-11.32-15.3-62.69,26.1L788.86,378Zm-34-72.9,20.9-39.6-81.85-9Zm1.74.9,25.25,17.1,44.41,27-48.76-83.7-2.61,4.5Zm21.77,54,47.89-5.4-67.92-44.1L869,318.6Zm.87-94.5,12.19,20.7,36.57,62.1-16.54-89.1ZM889,356.4l34.83-20.7-33.09,2.7-13.06,1.8Zm81,27.9-79.24-25.2,7.84,33.3Zm1.74-1.8L929,335.7l-.87-.9L891.6,357.3ZM940.36,243.9l-27.86-6.3L929,329.4l15.68-35.1,20-47.7h-.87ZM930.78,333l37.45,18,3.48,1.8-5.23-101.7-22.63,51.3Zm40.93,27.9v-5.4l-14.8-7.2-22.64-10.8,39.18,43.2Zm7-225.9,28.74-33.3,19.15-22.5-64.43,22.5Zm6.1-74.7L1017,5.4,973.45,17.1,963,95.4ZM963.87,99l66.18-23.4-2.62-17.1-8.7-51.3ZM998.7,263.7l7,4.5L990.86,198l-12.19-54.9L968.23,244.8Zm-30.47-16.2L970,277.2l3.48,72,32.22-79.2Zm78.36,203.4L976.06,387l-7.83,92.7Zm-.87,2.7-77.49,28.8,5.22,91.8Zm-30.48,120.6-33.08,3.6-8.71.9-5.22,38.7Zm-13.93,38.7,11.32-28.8,3.48-8.1L990,600.3l-20,18Zm36.57-173.7-63.56-80.1,2.61,25.2Zm-62.69-86.4,54.86-5.4,7.83-29.7,24.38-94.5L980.41,344.7Zm54.86-3.6-54.86,6.3,71.4,90.9Zm-11.32,221.4,10.45-61.2-54,67.5,32.22-4.5ZM978.67,343.8l52.25-76.5,29.6-45-52.24,48.6Zm51.38-167.4V79.2l-49.64,57.6Zm-22.64,87.3,12.19-45.9,10.45-37.8-35.7-28.8-13.94-11.7,7,33.3Zm22.64,241.2,14.8-45.9L983.9,562.5Zm24.38,51.3-50.51,57.6,66.18,5.4Zm-48.76,52.2,44.4-51.3-29.6,16.2Zm59.2-393.3-33.08-33.3-20,78.3-1.74,6.3Zm-30.47-171,7.84-13.5,7.83-13.5L1021.34,6.3Zm18.28,509.4-20.89-44.1-5.23,29.7-5.22,29.7Zm-21.76-486,1.74-20.7-10.45-31.5.87,9Zm22.64,52.2-13.94-26.1L1031.79,81v92.7Zm-18.29-72-2.61,27,36.57-21.6-20-3.6Zm34.83,7.2-37.44,22.5,21.77,38.7,7.83-30.6Zm-37.44,124.2L1064,211.5l-4.35-38.7-6.09-48.6-7.84,20.7Zm0,169.2L1071,370.8l-6.1-146.7-.87,3.6Zm16.54,97.2,21.77-72-30.48-18.9-7.83-4.5,14.8,85.5Zm-16.54,57.6,67.91-42.3,14.81-9H1049.2Zm0,2.7,21.77,45.9,61-97.2Zm19.15-486.9L1036.14,45l34,6.3Zm20.9,354.6-21.77,72.9,35.7-41.4,45.28-54Zm61.82-21.6L1050.94,450h67Zm-81-334.8,19.15,33.3,47.89-36,12.19-9Zm2.61,98.1L1125,37.8l-52.24,15.3Zm0,3.6,33.08,57.6,38.31-136.8Zm32.21,60.3-32.21-54.9,3.48,31.5,7,55.8Zm0,358.2-32.21,17.1,15.67,61.2,1.74-9.9Zm25.25-75.6-36.57,58.5-19.15,30.6,30.47-16.2,12.19-35.1Zm10.45-233.1-34.83-47.7L1077.94,198l-10.45,16.2,41.79,10.8Zm-56.59-9.9,1.74,45,3.48,100.8,21.77-106.2ZM1125,231.3l-27.86-7.2-27.86-6.3,17.41,25.2,9.58,13.5,9.58-8.1Zm-1.74,323.1-33.09-17.1-13.93,66.6-2.61,11.7L1111,569.7Zm-27.86-292.5-4.35,18-16.55,85.5,36.57-63Zm17.41,43.2-38.31,65.7,60.08-22.5Zm11.32,251.1-24.38,31.5-25.25,31.5,57.47-6.3ZM1077.94,49.5l51.37-16.2,5.22-26.1Zm52.24-9.9L1091,177.3l50.5-17.1ZM1091,180l12.19,16.2,23.5,32.4,13.94-65.7Zm0,355.5,33.08,17.1,10.45-84.6Zm28.73-82.8-18.29,52.2-7.83,22.5,40.92-63.9Zm7-219.6-13.06,10.8-16.54,14.4,40.92,36ZM1098,261.9l15.67,40.5,23.51-5.4Zm16.54,42.3,7,13.5,13.93,27,2.61-45.9Zm20.9,56.7L1119.73,450l15.67,11.7Z"/><path id="T_Wireframe" data-name="T Wireframe" class="cls-1" d="M518.94,159.3l-20,9h-1.74L351.77,156.6l-13.93,20.7,14.8,104.4v85.5l-11.32,33.3L350,432.9l-8.71,111.6,17.41,72.9a.86.86,0,0,1-.87.9H252.51l-49.63,6.3H202L155.86,612H155v-1.8l.87-.9,13.93-40.5-6.1-108V459l17.42-35.1L169.79,270v-.9l11.32-77.4L175,162,91.42,174.6l-90.55-9L0,164.7v-.9l11.32-57.6L0,50.4V48.6L12.19,18v-.9L67,6.3h1.75l51.37,13.5c.87-.9.87-.9,1.74,0L167.18,6.3h.87L310.84,17.1l128-8.1h.87l47,12.6,28.73-6.3a.87.87,0,0,1,.87.9L525,127.8v.9ZM62.69,9,13.06,18.9,2.61,46.8Zm3.48.9L2.61,49.5l47,42.3ZM13.06,105.3l24.38-8.1,11.32-3.6L22.64,70.2l-20-17.1Zm34.83-9.9-17.42,6.3L13.93,108,2.61,159.3ZM3.48,162,101,131.4l-49.63-36L13.06,148.5Zm98.39-28.8L7,163.8l83.58,8.1,7.84-25.2ZM68.79,8.1,65.3,24.3,53.11,89.1l66.18-68.4Zm68.78,60.3,9.58-18L54.85,92.7l65.31,5.4ZM148,47.7,121,22.5,55.73,90Zm-44.41,81.9,7.84-14.4,7.84-14.4L55.73,94.5,81,113.4Zm.88,3.6L101,145.8l-7,26.1,78.36-10.8ZM121,100.8l-7.84,15.3-7.83,15.3,67,27Zm1.74-2.7,76.62,5.4-48.76-54Zm.87,2.7,52.24,58.5,25.25-53.1ZM195,41.4,124.51,22.5l26.12,24.3Zm4.35-1.8L167.18,8.1l-41.8,12.6Zm47,36.9-93.16-27,49.63,54ZM202,43.2l-45.27,4.5L243.8,73.8ZM191.56,599.4,182,576.9,157.6,610.2l43.53,11.7ZM173.27,585l7-9.9-9.58-4.5-11.32,33.3Zm-7-126,33.08,7.2,20,4.5L182,425.7Zm16.54,115.2,61-12.6-77.49-97.2ZM167.18,461.7,244.67,558l-12.19-46.8L222,473.4Zm13.06,111.6-13.06-88.2,4.35,82.8ZM202.88,40.5,303,18.9,170.66,8.1ZM183.72,243.9,182,203.4l-10.45,65.7,14.8,36Zm3.48,68.4-14.8-36L182,407.7ZM225.51,135l-22.63-27.9L178.5,160.2l67.91,2.7Zm-2.61,96.3,24.38-65.7L178.5,162Zm-6.09-5.4L178.5,166.5l4.35,24.3Zm-27.87,85.5,54.86,17.1L183.72,197.1Zm-5.22,108,20.9-26.1-15.68-72.9Zm81-13.5-59.21-10.8-13.93,18-7,9Zm-80.11,18.9,38.31,45.9,44.41-63ZM249,616.5l-64.43-38.7,5.22,12.6,13.94,31.5Zm-3.48-52.2-60.08,10.8,53.11,33.3,12.2,7.2ZM186.33,198l56.6,121.5L222,234Zm80.11,206.1-76.63-88.2,16.55,76.5,40,8.1Zm-20.9-72.9-54-17.1,75.75,86.4Zm4.35-256.5,56.6-54-101,21.6Zm59.21,48.6L249.89,77.4l-43.53,27,139.31,47.7ZM206.36,107.1l14.8,18.9,28.73,36.9,94.91-8.1ZM249,167.4l-24.38,65.7,20,8.1,40.92,14.4Zm20,242.1-29.6,41.4-14.81,20.7L285.59,495Zm17.41-150.3-60.95-23.4,27,54.9,27.86,53.1,5.22-68.4Zm-6.09,317.7,6.09-79.2-60.95-23.4,27,51.3Zm-1.74-231.3L226.38,243l20.9,86.4ZM229,485.1l-2.62-4.5,20.9,81,31.35,17.1Zm50.5,96.3-32.22-17.1,2.61,19.8,3.49,30.6,17.41-22.5Zm.87-232.2-32.22-17.1,21.77,69.3.87-3.6ZM301.27,63,251.64,76.5l39.18,30.6,56.59,43.2-16.54-31.5Zm34.82,114.3-84.45-11.7L350,279Zm-83.58-8.1,35.7,87.3,59.2,22.5Zm2.61-95.4,46.15-12.6,7.83-39.6-7.83,8.1Zm20,542.7,4.35-27V585l-6.1,8.1-18.28,23.4ZM261.21,164.7,337,175.5l12.19-18.9ZM274.27,387l-3.48,18L337,398.7l-54.86-48.6Zm-1.74,20.7,22.64,45,44.41,88.2,7.83-107.1Zm15.68,88.2,47,43.2-62.69-126Zm51.37-95.4-64.43,6.3,72.26,24.3Zm-20.9,204.3-20-12.6-16.54-9-1.74,9.9-3.48,22.5,28.73-7.2Zm-20-325.8-10.44-18L283,347.4l16.54,4.5,48.76,12.6Zm21.77,323.1-32.21-99.9L283,580.5l17.42,9.9Zm1.74,4.5-38.31,9.9h67ZM286.46,351l42.67,37.8,10.45,9L350,367.2ZM290,261,350.9,362.7V282.6Zm48.76,284.4L290,499.5,323,600.3ZM354.38,87.3,311.71,21.6l-7,29.7L303,61.2Zm1.74,3.6L330,77.4,304.75,64.8,327.39,108l23.51,43.2,3.48-45Zm1.74-2.7.87-.9,43.54-43.2-34.83-9.9L314.33,20.7ZM317.81,18.9,404,42.3l32.22-30.6Zm6.09,585.9,21.77,7.2,10.45,3.6-16.54-65.7Zm78.37-480.6L380.5,108,358.73,91.8l-2.61,24.3L352.64,153l3.48-1.8Zm2.61,1.8-16.54,9-33.09,19.8,135.83,10.8ZM437.1,72.9,404,45,360.47,89.1l87.08-7.2Zm-76.63,18L404,123.3l43.54-39.6ZM483.25,24.3,406.62,44.1l29.61,24.3L450.16,81Zm12.19,140.4L451,84.6l-44.41,39.6,40.93,18.9Zm-55.73-153-27,24.3-5.23,5.4,74-18.9ZM522.43,126,485.86,24.3,452.77,81.9,505,115.2Zm0,2.7-41.8-26.1L454.51,86.4l43.54,78.3,12.19-17.1Zm-1.74-14.4,1.74,6.3L514.59,17.1l-27,6.3Zm-19.16,50.4,15.67-7.2,5.23-24.3-7.84,11.7Z"/></g></g></g></svg>