<svg id="Ebene_1" data-name="Ebene 1" xmlns="http://www.w3.org/2000/svg" viewBox="0 0 498.13 498.13"><defs><style>.cls-1{fill:#b8afab;}.cls-2{fill:#414580;}.cls-3{fill:#478888;}.cls-4{fill:#54645c;}.cls-5{fill:#a6c3ed;}</style></defs><g id="Planet_1" data-name="Planet 1"><path class="cls-1" d="M556.13,481.94a248.31,248.31,0,0,1-70.83,174q-3,3.11-6.19,6.11a248.85,248.85,0,0,1-30.06,24.56q-3.94,2.74-8,5.34l-2,1.24c-1.79,1.12-3.61,2.23-5.44,3.31l-1,.57-.46.27-1.33.77-.51.29-2.17,1.23-2.32,1.27c-.48.27-1,.53-1.46.78-2.73,1.48-5.49,2.88-8.29,4.25-.92.45-1.84.9-2.77,1.33l-.14.07c-1.09.52-2.2,1-3.31,1.52-.12.07-.26.13-.39.19l-3.48,1.54c-1.6.69-3.22,1.37-4.84,2-.5.21-1,.42-1.51.61-.75.31-1.51.6-2.26.9l-2.91,1.11q-3.48,1.31-7,2.51l-2.29.77q-2.37.78-4.77,1.52l-1.69.51c-.23.08-.47.15-.71.21-1.08.33-2.17.65-3.26.94-.53.16-1.07.31-1.61.45-.81.23-1.63.45-2.45.66s-1.63.44-2.45.64l-2.47.61c-.83.2-1.65.4-2.48.58q-2.47.58-5,1.11A248.88,248.88,0,0,1,166,687.19c-.3-.19-.59-.39-.89-.61A248.41,248.41,0,0,1,58.76,501.51Q58,491.82,58,481.94t.76-19.57a247.09,247.09,0,0,1,9.85-52.53,244.35,244.35,0,0,1,10.2-27.7,247.79,247.79,0,0,1,21.61-39.28,249.2,249.2,0,0,1,429.76,28.28c1.78,3.56,3.47,7.19,5.08,10.86A248.17,248.17,0,0,1,556.13,481.94Z" transform="translate(-58 -232.87)"/><path class="cls-2" d="M556.13,481.94a248.31,248.31,0,0,1-70.83,174q-3,3.11-6.19,6.11a248.85,248.85,0,0,1-30.06,24.56q-3.94,2.74-8,5.34l-2,1.24c-1.79,1.12-3.61,2.23-5.44,3.31l-1,.57-.46.27-1.33.77-.51.29-2.17,1.23-2.32,1.27c-.48.27-1,.53-1.46.78-2.73,1.48-5.49,2.88-8.29,4.25-.92.45-1.84.9-2.77,1.33l-.14.07c-1.09.52-2.2,1-3.31,1.52-.12.07-.26.13-.39.19l-3.48,1.54c-1.6.69-3.22,1.37-4.84,2-.5.21-1,.42-1.51.61-.75.31-1.51.6-2.26.9l-2.91,1.11q-3.48,1.31-7,2.51l-2.29.77q-2.37.78-4.77,1.52l-1.69.51c-.23.08-.47.15-.71.21-1.08.33-2.17.65-3.26.94-.53.16-1.07.31-1.61.45-.81.23-1.63.45-2.45.66s-1.63.44-2.45.64l-2.47.61c-.83.2-1.65.4-2.48.58q-2.47.58-5,1.11A248.88,248.88,0,0,1,166,687.19c-.3-.19-.59-.39-.89-.61h59.4a11.19,11.19,0,0,0,8.68-4.49,17.34,17.34,0,0,0,3.6-10.85c0-8.46-5.5-15.33-12.28-15.33H128.83A248.75,248.75,0,0,1,64.46,538.52h80.37c6.79,0,12.29-6.86,12.29-15.34v-6.34c0-8.47-5.5-15.33-12.29-15.33H58.76Q58,491.82,58,481.94t.76-19.57H96.55c6.78,0,12.28-6.86,12.28-15.34V436.46c0-8.47-5.5-15.33-12.28-15.33H80.45c-5.66,0-10.43-4.79-11.84-11.29a244.35,244.35,0,0,1,10.2-27.7,8.86,8.86,0,0,1,1.64-.14h89.8c6.78,0,12.28-6.87,12.28-15.34V358.2c0-8.47-5.5-15.34-12.28-15.34H100.42a250.34,250.34,0,0,1,32.65-39.13h11.76c6.79,0,12.29-6.86,12.29-15.33v-1.06a18.94,18.94,0,0,0-.42-4,248.08,248.08,0,0,1,150.36-50.5A252.12,252.12,0,0,1,339.42,235,249.43,249.43,0,0,1,530.18,371.14c1.78,3.56,3.47,7.19,5.08,10.86A248.17,248.17,0,0,1,556.13,481.94Z" transform="translate(-58 -232.87)"/><path class="cls-3" d="M556.13,481.94a248.31,248.31,0,0,1-70.83,174q-3,3.11-6.19,6.11a248.85,248.85,0,0,1-30.06,24.56q-3.94,2.74-8,5.34l-2,1.24c-1.79,1.12-3.61,2.23-5.44,3.31l-1,.57-.46.27-1.33.77-.51.29-2.17,1.23-2.32,1.27c-.48.27-1,.53-1.46.78-2.73,1.48-5.49,2.88-8.29,4.25-.92.45-1.84.9-2.77,1.33l-.14.07c-1.09.52-2.2,1-3.31,1.52-.12.07-.26.13-.39.19l-3.48,1.54c-1.6.69-3.22,1.37-4.84,2-.5.21-1,.42-1.51.61-.75.31-1.51.6-2.26.9l-2.91,1.11q-3.48,1.31-7,2.51l-2.29.77q-2.37.78-4.77,1.52l-1.69.51c-.23.08-.47.15-.71.21-1.08.33-2.17.65-3.26.94-.53.16-1.07.31-1.61.45-.81.23-1.63.45-2.45.66s-1.63.44-2.45.64l-2.47.61c-.83.2-1.65.4-2.48.58q-2.47.58-5,1.11A248.88,248.88,0,0,1,166,687.19a10.21,10.21,0,0,1,3.44-.61h205a11.2,11.2,0,0,0,8.69-4.49,17.4,17.4,0,0,0,3.6-10.85c0-8.46-5.5-15.33-12.29-15.33H151.61c-6.79,0-12.28-6.86-12.28-15.34v-8.46c0-8.46,5.49-15.33,12.28-15.33h63.54c6.78,0,12.28-6.86,12.28-15.34V593c0-8.46-5.5-15.33-12.28-15.33h-33c-6.79,0-12.29-6.86-12.29-15.34v-8.46c0-8.47,5.5-15.33,12.29-15.33H294.78c6.79,0,12.28-6.86,12.28-15.34v-6.34c0-8.47-5.49-15.33-12.28-15.33H121.11c-6.78,0-12.28-6.87-12.28-15.35v-8.45c0-8.47,5.5-15.34,12.28-15.34H246.49c6.79,0,12.29-6.86,12.29-15.34V436.46c0-8.47-5.5-15.33-12.29-15.33H230.4c-6.79,0-12.29-6.87-12.29-15.34v-8.46c0-8.47,5.5-15.33,12.29-15.33h89.79c6.79,0,12.29-6.87,12.29-15.34V358.2c0-8.47-5.5-15.34-12.29-15.34H169.4c-6.79,0-12.28-6.86-12.28-15.33v-8.46c0-8.47,5.49-15.34,12.28-15.34H294.78c6.79,0,12.28-6.86,12.28-15.33v-1.06c0-8.47-5.49-15.34-12.28-15.34h-44c-6.79,0-12.29-6.86-12.29-15.33v-8.46a18.75,18.75,0,0,1,1-6,249,249,0,0,1,67.63-9.3A252.12,252.12,0,0,1,339.42,235,249.43,249.43,0,0,1,530.18,371.14c1.78,3.56,3.47,7.19,5.08,10.86A248.17,248.17,0,0,1,556.13,481.94Z" transform="translate(-58 -232.87)"/><path class="cls-4" d="M449.05,686.58q-3.94,2.74-8,5.34l-2,1.24c-1.79,1.12-3.61,2.23-5.44,3.31l-1,.57-.46.27-1.33.77-.51.29-2.17,1.23-2.32,1.27c-.48.27-1,.53-1.46.78-2.73,1.48-5.49,2.88-8.29,4.25-.92.45-1.84.9-2.77,1.33l-.14.07c-1.09.52-2.2,1-3.31,1.52-.12.07-.26.13-.39.19l-3.48,1.54c-1.6.69-3.22,1.37-4.84,2-.5.21-1,.42-1.51.61-.75.31-1.51.6-2.26.9l-2.91,1.11q-3.48,1.31-7,2.51l-2.29.77q-2.37.78-4.77,1.52l-1.69.51c-.23.08-.47.15-.71.21-1.08.33-2.17.65-3.26.94-.53.16-1.07.31-1.61.45-.81.23-1.63.45-2.45.66s-1.63.44-2.45.64l-2.47.61c-.83.2-1.65.4-2.48.58q-2.47.58-5,1.11a251.32,251.32,0,0,1-103.49-.19,17.61,17.61,0,0,1-2.87-9.85V701.92c0-8.47,5.5-15.34,12.28-15.34Z" transform="translate(-58 -232.87)"/><path class="cls-4" d="M556.13,481.94a248.31,248.31,0,0,1-70.83,174q-3,3.11-6.19,6.11c-2.24-3.71-5.8-6.11-9.82-6.11H246.49c-6.78,0-12.28-6.86-12.28-15.34v-8.46c0-8.46,5.5-15.33,12.28-15.33H310c6.78,0,12.28-6.86,12.28-15.34V593c0-8.46-5.5-15.33-12.28-15.33H277c-6.79,0-12.28-6.86-12.28-15.34v-8.46c0-8.47,5.49-15.33,12.28-15.33H389.66c6.79,0,12.28-6.86,12.28-15.34v-6.34c0-8.47-5.49-15.33-12.28-15.33H216c-6.78,0-12.28-6.87-12.28-15.35v-8.45c0-8.47,5.5-15.34,12.28-15.34H341.37c6.79,0,12.29-6.86,12.29-15.34V436.46c0-8.47-5.5-15.33-12.29-15.33H325.28c-6.79,0-12.29-6.87-12.29-15.34v-8.46c0-8.47,5.5-15.33,12.29-15.33h89.8c6.78,0,12.28-6.87,12.28-15.34V358.2c0-8.47-5.5-15.34-12.28-15.34H264.28c-6.78,0-12.28-6.86-12.28-15.33v-8.46c0-8.47,5.5-15.34,12.28-15.34H389.66c6.79,0,12.28-6.86,12.28-15.33v-1.06c0-8.47-5.49-15.34-12.28-15.34H345.61c-6.79,0-12.29-6.86-12.29-15.33v-8.46c0-5.66,2.45-10.59,6.1-13.25A249.43,249.43,0,0,1,530.18,371.14c1.78,3.56,3.47,7.19,5.08,10.86A248.17,248.17,0,0,1,556.13,481.94Z" transform="translate(-58 -232.87)"/><path class="cls-5" d="M513.71,342.86h-124c-6.79,0-12.28-6.86-12.28-15.33v-8.46c0-8.47,5.49-15.34,12.28-15.34h91.4A250.34,250.34,0,0,1,513.71,342.86Z" transform="translate(-58 -232.87)"/><path class="cls-5" d="M556.13,481.94a248.31,248.31,0,0,1-70.83,174H371.87c-6.79,0-12.28-6.86-12.28-15.34v-8.46c0-8.46,5.49-15.33,12.28-15.33h63.54c6.78,0,12.28-6.86,12.28-15.34V593c0-8.46-5.5-15.33-12.28-15.33h-33c-6.79,0-12.29-6.86-12.29-15.34v-8.46c0-8.47,5.5-15.33,12.29-15.33H515c6.79,0,12.28-6.86,12.28-15.34v-6.34c0-8.47-5.49-15.33-12.28-15.33H341.37c-6.78,0-12.28-6.87-12.28-15.35v-8.45c0-8.47,5.5-15.34,12.28-15.34H466.75c6.79,0,12.29-6.86,12.29-15.34V436.46c0-8.47-5.5-15.33-12.29-15.33H450.66c-6.79,0-12.29-6.87-12.29-15.34v-8.46c0-8.47,5.5-15.33,12.29-15.33h84.6A248.17,248.17,0,0,1,556.13,481.94Z" transform="translate(-58 -232.87)"/><path class="cls-5" d="M449.05,686.58q-3.94,2.74-8,5.34l-2,1.24c-1.79,1.12-3.61,2.23-5.44,3.31l-1,.57-.46.27-1.33.77-.51.29-2.17,1.23-2.32,1.27c-.48.27-1,.53-1.46.78-2.73,1.48-5.49,2.88-8.29,4.25-.92.45-1.84.9-2.77,1.33l-.14.07c-1.09.52-2.2,1-3.31,1.52-.12.07-.26.13-.39.19l-3.48,1.54c-1.6.69-3.22,1.37-4.84,2-.5.21-1,.42-1.51.61-.75.31-1.51.6-2.26.9l-2.91,1.11q-3.48,1.31-7,2.51l-2.29.77q-2.37.78-4.77,1.52l-1.69.51c-.23.08-.47.15-.71.21a18.44,18.44,0,0,1-.68-5.05V701.92c0-8.47,5.49-15.34,12.28-15.34Z" transform="translate(-58 -232.87)"/></g></svg>