<svg xmlns="http://www.w3.org/2000/svg" viewBox="0 0 680 680"><defs><style>.cls-1{fill:#2d3b45;}.cls-2{fill:#3473af;}.cls-3{fill:#1d1835;}</style></defs><g id="Ebene_4" data-name="Ebene 4"><path class="cls-1" d="M1378.5,493.5c0,187.78-152.22,340-340,340s-340-152.22-340-340a340,340,0,1,1,680,0Z" transform="translate(-698.5 -153.5)"/><polygon class="cls-2" points="76.85 124.68 602.36 123.73 624 153 631.91 165.58 48.09 165.58 61.69 144.66 76.85 124.68"/><polygon class="cls-2" points="11.17 253.24 668.83 253.24 671.42 263.78 675.32 283.45 678.83 311.7 680 330.46 679.81 351.38 0 351.38 0.85 315.77 5.11 280.95 11.17 253.24"/><polygon class="cls-2" points="43.42 506.38 636.58 506.38 619.44 533.74 598.69 560.63 81.31 560.63 64.61 539.43 50.6 518.54 43.42 506.38"/><polygon class="cls-3" points="71.89 144.66 77 135 83 130 607 130 617.83 144.66 624 153 71.89 148.89 71.89 144.66"/><polygon class="cls-3" points="5.11 280.95 596.76 280.95 611 286 618 293 618 302.31 610 307 597 312 0.85 315.77 5.11 280.95"/><polygon class="cls-3" points="627.29 521.2 101.11 521.2 88 529 88 538.11 102 544 611.52 544 627.29 521.2"/></g></svg>