<svg id="Ebene_1" data-name="Ebene 1" xmlns="http://www.w3.org/2000/svg" viewBox="0 0 474.5 474.5"><defs><style>.cls-1{fill:#414580;}.cls-2{fill:#478888;}.cls-3{fill:#54645c;}.cls-4{fill:#b8afab;}</style></defs><g id="_1" data-name="1"><circle class="cls-1" cx="237.25" cy="237.25" r="237.25"/><path class="cls-2" d="M493.52,421.18h-3.14A27.14,27.14,0,0,1,463.23,394V364.92a27.16,27.16,0,0,0-27.15-27.15H396a27.14,27.14,0,0,1-27.15-27.15h0a27.14,27.14,0,0,0-27.15-27.14h-66.1a27.15,27.15,0,0,0-27.15,27.14h0a27.14,27.14,0,0,1-27.14,27.15h-33a27.15,27.15,0,0,0-27.15,27.15V394a27.15,27.15,0,0,1-27.15,27.14H130a27.15,27.15,0,0,0-27.15,27.15v66.1A27.15,27.15,0,0,0,130,541.58h3.93a27.15,27.15,0,0,1,27.15,27.15v44.06a27.14,27.14,0,0,0,27.15,27.15h33a27.15,27.15,0,0,1,27.14,27.15v7.08a27.16,27.16,0,0,0,27.15,27.15h66.1a27.15,27.15,0,0,0,27.15-27.15v-7.08A27.15,27.15,0,0,1,396,639.94h40.13a27.15,27.15,0,0,0,27.15-27.15V568.73a27.14,27.14,0,0,1,27.15-27.15h3.14a27.15,27.15,0,0,0,27.15-27.15v-66.1A27.15,27.15,0,0,0,493.52,421.18Z" transform="translate(-74.5 -252)"/><path class="cls-3" d="M445.28,436.82H443a19.91,19.91,0,0,1-19.91-19.92V395.55a19.92,19.92,0,0,0-19.91-19.92H373.71a19.91,19.91,0,0,1-19.92-19.91h0a19.91,19.91,0,0,0-19.91-19.92H285.4a19.92,19.92,0,0,0-19.92,19.92h0a19.9,19.9,0,0,1-19.91,19.91H221.33a19.92,19.92,0,0,0-19.92,19.92V416.9a19.91,19.91,0,0,1-19.91,19.92h-2.89a19.9,19.9,0,0,0-19.91,19.91v48.49a19.91,19.91,0,0,0,19.91,19.91h2.89A19.9,19.9,0,0,1,201.41,545v32.33a19.92,19.92,0,0,0,19.92,19.91h24.24a19.91,19.91,0,0,1,19.91,19.91v5.2A19.91,19.91,0,0,0,285.4,642.3h48.48a19.9,19.9,0,0,0,19.91-19.91v-5.2a19.92,19.92,0,0,1,19.92-19.91h29.44a19.92,19.92,0,0,0,19.91-19.91V545A19.9,19.9,0,0,1,443,525.13h2.31a19.92,19.92,0,0,0,19.92-19.91V456.73A19.91,19.91,0,0,0,445.28,436.82Z" transform="translate(-74.5 -252)"/><path class="cls-4" d="M388.4,459.34h-1.33a11.48,11.48,0,0,1-11.47-11.48V435.55a11.48,11.48,0,0,0-11.48-11.48h-17a11.48,11.48,0,0,1-11.48-11.47h0a11.48,11.48,0,0,0-11.47-11.48H296.25a11.48,11.48,0,0,0-11.48,11.48h0a11.48,11.48,0,0,1-11.48,11.47h-14a11.48,11.48,0,0,0-11.48,11.48v12.31a11.48,11.48,0,0,1-11.47,11.48H234.7a11.48,11.48,0,0,0-11.48,11.48v27.94a11.48,11.48,0,0,0,11.48,11.48h1.67a11.48,11.48,0,0,1,11.47,11.48v18.63a11.48,11.48,0,0,0,11.48,11.48h14a11.48,11.48,0,0,1,11.48,11.47v3a11.48,11.48,0,0,0,11.48,11.48H324.2a11.48,11.48,0,0,0,11.47-11.48v-3a11.48,11.48,0,0,1,11.48-11.47h17a11.48,11.48,0,0,0,11.48-11.48V521.72a11.48,11.48,0,0,1,11.47-11.48h1.33a11.48,11.48,0,0,0,11.48-11.48V470.82A11.48,11.48,0,0,0,388.4,459.34Z" transform="translate(-74.5 -252)"/></g></svg>