<svg id="Ebene_1" data-name="Ebene 1" xmlns="http://www.w3.org/2000/svg" viewBox="0 0 498.13 498.13"><defs><style>.cls-1{fill:#251444;}.cls-2{fill:#af6293;}.cls-3{fill:#444a95;}.cls-4{fill:#406ec5;}.cls-5{fill:#56c0f4;}</style></defs><g id="Planet_3" data-name="Planet 3"><path class="cls-1" d="M1865.13,473.52a248.31,248.31,0,0,1-70.83,174q-3,3.11-6.19,6.11a249.53,249.53,0,0,1-30,24.56q-4,2.75-8,5.34l-2,1.24c-1.79,1.12-3.61,2.23-5.44,3.31l-1,.57-.46.27-1.33.77-.51.29c-.72.41-1.44.83-2.17,1.22s-1.54.86-2.32,1.27c-.48.28-1,.54-1.46.79-2.73,1.48-5.49,2.88-8.29,4.25l-2.77,1.33a.59.59,0,0,1-.14.06q-1.63.79-3.3,1.53l-.4.19c-1.15.52-2.32,1-3.48,1.54-1.6.69-3.22,1.37-4.84,2-.5.21-1,.42-1.51.61-.75.31-1.51.6-2.26.9l-2.91,1.11q-3.48,1.31-7,2.51l-2.29.77c-1.58.52-3.17,1-4.77,1.51l-1.68.52-.72.21c-1.08.33-2.16.65-3.26.94-.53.15-1.06.31-1.61.45-.81.23-1.63.45-2.45.66l-2.45.64-2.47.61c-.83.2-1.65.4-2.48.58q-2.47.59-5,1.1A248.82,248.82,0,0,1,1475,678.78l-.89-.61a249.52,249.52,0,0,1-100.61-148.06,247.77,247.77,0,0,1-5.7-37q-.75-9.68-.76-19.57t.76-19.56a247.59,247.59,0,0,1,9.85-52.53,243.65,243.65,0,0,1,10.2-27.7,249.33,249.33,0,0,1,54.26-78.41,249.21,249.21,0,0,1,397.11,67.41c1.78,3.56,3.47,7.19,5.08,10.86A248.16,248.16,0,0,1,1865.13,473.52Z" transform="translate(-1367 -224.46)"/><path class="cls-2" d="M1865.13,473.52a248.31,248.31,0,0,1-70.83,174q-3,3.11-6.19,6.11a249.53,249.53,0,0,1-30,24.56q-4,2.75-8,5.34l-2,1.24c-1.79,1.12-3.61,2.23-5.44,3.31l-1,.57-.46.27-1.33.77-.51.29c-.72.41-1.44.83-2.17,1.22s-1.54.86-2.32,1.27c-.48.28-1,.54-1.46.79-2.73,1.48-5.49,2.88-8.29,4.25l-2.77,1.33a.59.59,0,0,1-.14.06q-1.63.79-3.3,1.53l-.4.19c-1.15.52-2.32,1-3.48,1.54-1.6.69-3.22,1.37-4.84,2-.5.21-1,.42-1.51.61-.75.31-1.51.6-2.26.9l-2.91,1.11q-3.48,1.31-7,2.51l-2.29.77c-1.58.52-3.17,1-4.77,1.51l-1.68.52-.72.21c-1.08.33-2.16.65-3.26.94-.53.15-1.06.31-1.61.45-.81.23-1.63.45-2.45.66l-2.45.64-2.47.61c-.83.2-1.65.4-2.48.58q-2.47.59-5,1.1A248.82,248.82,0,0,1,1475,678.78l-.89-.61h59.4a11.16,11.16,0,0,0,8.68-4.5,17.31,17.31,0,0,0,3.6-10.84c0-8.46-5.5-15.33-12.28-15.33h-95.64a248.75,248.75,0,0,1-64.37-117.39h80.37c6.79,0,12.29-6.87,12.29-15.34v-6.34c0-8.47-5.5-15.34-12.29-15.34h-86.07q-.75-9.68-.76-19.57t.76-19.56h37.79c6.78,0,12.28-6.87,12.28-15.34V428.05c0-8.47-5.5-15.33-12.28-15.33h-16.1c-5.66,0-10.43-4.79-11.84-11.29a243.65,243.65,0,0,1,10.2-27.7,8.86,8.86,0,0,1,1.64-.14h89.8c6.78,0,12.28-6.87,12.28-15.35v-8.45c0-8.47-5.5-15.34-12.28-15.34h-69.83a249.88,249.88,0,0,1,32.65-39.13h11.76c6.79,0,12.29-6.86,12.29-15.34v-1.05a18.94,18.94,0,0,0-.42-4,249.24,249.24,0,0,1,373.48,87.77c1.78,3.56,3.47,7.19,5.08,10.86A248.16,248.16,0,0,1,1865.13,473.52Z" transform="translate(-1367 -224.46)"/><path class="cls-3" d="M1865.13,473.52a248.31,248.31,0,0,1-70.83,174q-3,3.11-6.19,6.11a249.53,249.53,0,0,1-30,24.56q-4,2.75-8,5.34l-2,1.24c-1.79,1.12-3.61,2.23-5.44,3.31l-1,.57-.46.27-1.33.77-.51.29c-.72.41-1.44.83-2.17,1.22s-1.54.86-2.32,1.27c-.48.28-1,.54-1.46.79-2.73,1.48-5.49,2.88-8.29,4.25l-2.77,1.33a.59.59,0,0,1-.14.06q-1.63.79-3.3,1.53l-.4.19c-1.15.52-2.32,1-3.48,1.54-1.6.69-3.22,1.37-4.84,2-.5.21-1,.42-1.51.61-.75.31-1.51.6-2.26.9l-2.91,1.11q-3.48,1.31-7,2.51l-2.29.77c-1.58.52-3.17,1-4.77,1.51l-1.68.52-.72.21c-1.08.33-2.16.65-3.26.94-.53.15-1.06.31-1.61.45-.81.23-1.63.45-2.45.66l-2.45.64-2.47.61c-.83.2-1.65.4-2.48.58q-2.47.59-5,1.1A248.82,248.82,0,0,1,1475,678.78a10,10,0,0,1,3.44-.61h205a11.18,11.18,0,0,0,8.69-4.5,17.37,17.37,0,0,0,3.6-10.84c0-8.46-5.5-15.33-12.29-15.33h-222.8c-6.78,0-12.28-6.87-12.28-15.34V623.7c0-8.46,5.5-15.33,12.28-15.33h63.54c6.78,0,12.28-6.87,12.28-15.34v-8.46c0-8.46-5.5-15.33-12.28-15.33h-33c-6.79,0-12.28-6.87-12.28-15.34v-8.46c0-8.47,5.49-15.33,12.28-15.33h112.67c6.79,0,12.28-6.87,12.28-15.34v-6.34c0-8.47-5.49-15.34-12.28-15.34H1430.11c-6.78,0-12.28-6.87-12.28-15.34V469.3c0-8.47,5.5-15.34,12.28-15.34h125.38c6.79,0,12.29-6.87,12.29-15.34V428.05c0-8.47-5.5-15.33-12.29-15.33H1539.4c-6.79,0-12.29-6.87-12.29-15.35v-8.45c0-8.47,5.5-15.33,12.29-15.33h89.8c6.78,0,12.28-6.87,12.28-15.35v-8.45c0-8.47-5.5-15.34-12.28-15.34H1478.4c-6.78,0-12.28-6.86-12.28-15.34v-8.45c0-8.47,5.5-15.34,12.28-15.34h125.38c6.79,0,12.28-6.86,12.28-15.34v-1.05c0-8.47-5.49-15.34-12.28-15.34h-44c-6.79,0-12.29-6.86-12.29-15.33v-8.47a18.57,18.57,0,0,1,1-6,249.37,249.37,0,0,1,290.74,129c1.78,3.56,3.47,7.19,5.08,10.86A248.16,248.16,0,0,1,1865.13,473.52Z" transform="translate(-1367 -224.46)"/><path class="cls-4" d="M1758.06,678.17q-4,2.75-8,5.34l-2,1.24c-1.79,1.12-3.61,2.23-5.44,3.31l-1,.57-.46.27-1.33.77-.51.29c-.72.41-1.44.83-2.17,1.22s-1.54.86-2.32,1.27c-.48.28-1,.54-1.46.79-2.73,1.48-5.49,2.88-8.29,4.25l-2.77,1.33a.59.59,0,0,1-.14.06q-1.63.79-3.3,1.53l-.4.19c-1.15.52-2.32,1-3.48,1.54-1.6.69-3.22,1.37-4.84,2-.5.21-1,.42-1.51.61-.75.31-1.51.6-2.26.9l-2.91,1.11q-3.48,1.31-7,2.51l-2.29.77c-1.58.52-3.17,1-4.77,1.51l-1.68.52-.72.21c-1.08.33-2.16.65-3.26.94-.53.15-1.06.31-1.61.45-.81.23-1.63.45-2.45.66l-2.45.64-2.47.61c-.83.2-1.65.4-2.48.58q-2.47.59-5,1.1a251.09,251.09,0,0,1-103.49-.18,17.7,17.7,0,0,1-2.87-9.86V693.5c0-8.47,5.5-15.33,12.28-15.33Z" transform="translate(-1367 -224.46)"/><path class="cls-4" d="M1865.13,473.52a248.31,248.31,0,0,1-70.83,174q-3,3.11-6.19,6.11c-2.24-3.71-5.8-6.11-9.82-6.11h-222.8c-6.78,0-12.28-6.87-12.28-15.34V623.7c0-8.46,5.5-15.33,12.28-15.33H1619c6.79,0,12.28-6.87,12.28-15.34v-8.46c0-8.46-5.49-15.33-12.28-15.33h-33c-6.79,0-12.28-6.87-12.28-15.34v-8.46c0-8.47,5.49-15.33,12.28-15.33h112.67c6.79,0,12.29-6.87,12.29-15.34v-6.34c0-8.47-5.5-15.34-12.29-15.34H1525c-6.79,0-12.29-6.87-12.29-15.34V469.3c0-8.47,5.5-15.34,12.29-15.34h125.37c6.79,0,12.29-6.87,12.29-15.34V428.05c0-8.47-5.5-15.33-12.29-15.33h-16.09c-6.79,0-12.29-6.87-12.29-15.35v-8.45c0-8.47,5.5-15.33,12.29-15.33h89.8c6.78,0,12.28-6.87,12.28-15.35v-8.45c0-8.47-5.5-15.34-12.28-15.34h-150.8c-6.78,0-12.28-6.86-12.28-15.34v-8.45c0-8.47,5.5-15.34,12.28-15.34h125.38c6.79,0,12.29-6.86,12.29-15.34v-1.05c0-8.47-5.5-15.34-12.29-15.34h-44.05c-6.79,0-12.28-6.86-12.28-15.33v-8.47c0-5.65,2.44-10.58,6.1-13.24a249.44,249.44,0,0,1,190.75,136.18c1.78,3.56,3.47,7.19,5.08,10.86A248.16,248.16,0,0,1,1865.13,473.52Z" transform="translate(-1367 -224.46)"/><path class="cls-5" d="M1822.71,334.45h-124c-6.78,0-12.28-6.86-12.28-15.34v-8.45c0-8.47,5.5-15.34,12.28-15.34h91.4A249.88,249.88,0,0,1,1822.71,334.45Z" transform="translate(-1367 -224.46)"/><path class="cls-5" d="M1865.13,473.52a248.31,248.31,0,0,1-70.83,174H1680.87c-6.78,0-12.28-6.87-12.28-15.34V623.7c0-8.46,5.5-15.33,12.28-15.33h63.54c6.78,0,12.28-6.87,12.28-15.34v-8.46c0-8.46-5.5-15.33-12.28-15.33h-33c-6.79,0-12.28-6.87-12.28-15.34v-8.46c0-8.47,5.49-15.33,12.28-15.33H1824c6.79,0,12.28-6.87,12.28-15.34v-6.34c0-8.47-5.49-15.34-12.28-15.34H1650.37c-6.78,0-12.28-6.87-12.28-15.34V469.3c0-8.47,5.5-15.34,12.28-15.34h125.38c6.79,0,12.29-6.87,12.29-15.34V428.05c0-8.47-5.5-15.33-12.29-15.33h-16.09c-6.79,0-12.29-6.87-12.29-15.35v-8.45c0-8.47,5.5-15.33,12.29-15.33h84.6A248.16,248.16,0,0,1,1865.13,473.52Z" transform="translate(-1367 -224.46)"/><path class="cls-5" d="M1758.06,678.17q-4,2.75-8,5.34l-2,1.24c-1.79,1.12-3.61,2.23-5.44,3.31l-1,.57-.46.27-1.33.77-.51.29c-.72.41-1.44.83-2.17,1.22s-1.54.86-2.32,1.27c-.48.28-1,.54-1.46.79-2.73,1.48-5.49,2.88-8.29,4.25l-2.77,1.33a.59.59,0,0,1-.14.06q-1.63.79-3.3,1.53l-.4.19c-1.15.52-2.32,1-3.48,1.54-1.6.69-3.22,1.37-4.84,2-.5.21-1,.42-1.51.61-.75.31-1.51.6-2.26.9l-2.91,1.11q-3.48,1.31-7,2.51l-2.29.77c-1.58.52-3.17,1-4.77,1.51l-1.68.52-.72.21a18.91,18.91,0,0,1-.68-5.06V693.5c0-8.47,5.5-15.33,12.28-15.33Z" transform="translate(-1367 -224.46)"/></g></svg>