<svg id="Ebene_1" data-name="Ebene 1" xmlns="http://www.w3.org/2000/svg" viewBox="0 0 676 676"><defs><style>.cls-1{fill:#b8afab;}.cls-2{fill:#414580;}.cls-3{fill:#3473af;}.cls-4{fill:#478888;}.cls-5{fill:#c34745;}</style></defs><g id="Planet_1" data-name="Planet 1"><path class="cls-1" d="M1919.7,477.16a338,338,0,0,1-668.09,73c-.06-.29-.13-.57-.19-.86a337.58,337.58,0,0,1-7.48-59.5,0,0,0,0,1,0,0q-.24-6.29-.24-12.63a339.15,339.15,0,0,1,2.37-40.16,335.57,335.57,0,0,1,25.24-93.84,338.07,338.07,0,0,1,561.71-92q3.76,4.18,7.39,8.5a336.57,336.57,0,0,1,79.29,217.5Z" transform="translate(-1243.7 -139.16)"/><path class="cls-2" d="M1730.7,222.16a42.84,42.84,0,0,1-12.19,30l-.4.41a42.88,42.88,0,0,1-30.41,12.59H1319.25a339.61,339.61,0,0,1,104.68-86H1687.7A43,43,0,0,1,1730.7,222.16Z" transform="translate(-1243.7 -139.16)"/><path class="cls-3" d="M1905,577.16a335.82,335.82,0,0,1-40.35,86H1535.7a43,43,0,1,1,0-86Z" transform="translate(-1243.7 -139.16)"/><path class="cls-4" d="M1902.74,372.16h-302a60,60,0,0,1-37.3-107,58.39,58.39,0,0,1,6.51-4.5,59.64,59.64,0,0,1,30.79-8.5H1833q3.76,4.18,7.39,8.5A337,337,0,0,1,1902.74,372.16Z" transform="translate(-1243.7 -139.16)"/><path class="cls-3" d="M1697.7,372.16a28,28,0,0,1-28,28H1252.75a334.83,334.83,0,0,1,18.56-56H1669.7A28,28,0,0,1,1697.7,372.16Z" transform="translate(-1243.7 -139.16)"/><path class="cls-4" d="M1837.86,698.66a335.82,335.82,0,0,1-27.06,28H1547.38a13.85,13.85,0,0,1-11.31-21.88c.06-.09.13-.18.19-.28a13.85,13.85,0,0,1,11.32-5.84Z" transform="translate(-1243.7 -139.16)"/><path class="cls-2" d="M1730.7,684.16a28,28,0,0,1-28,28H1337.8a339.29,339.29,0,0,1-43.49-56H1702.7a28,28,0,0,1,28,28Z" transform="translate(-1243.7 -139.16)"/><path class="cls-4" d="M1741.7,510.41c0,23.61-26.86,42.75-60,42.75h-412a82,82,0,0,1-17.85-1.94l-.43-.09a176,176,0,0,1-6.29-29.13,173.32,173.32,0,0,1-1.43-22.28c0-.57,0-1.15,0-1.72q0-3.84.24-7.65a171,171,0,0,1,2.11-19.24,80.56,80.56,0,0,1,23.63-3.45h412c16.57,0,31.57,4.78,42.43,12.52a47.93,47.93,0,0,1,10,9.48A33.5,33.5,0,0,1,1741.7,510.41Z" transform="translate(-1243.7 -139.16)"/><path class="cls-5" d="M1840.41,260.66H1464.7a19.5,19.5,0,1,1,0-39h337.1a337.91,337.91,0,0,1,31.22,30.5Q1836.79,256.34,1840.41,260.66Z" transform="translate(-1243.7 -139.16)"/><path class="cls-5" d="M1475,510a12,12,0,0,1-12,12H1245.13a173.32,173.32,0,0,1-1.43-22.28c0-.57,0-1.15,0-1.72H1463A12,12,0,0,1,1475,510Z" transform="translate(-1243.7 -139.16)"/><rect class="cls-2" x="392.5" y="308.5" width="204" height="42" rx="21"/></g></svg>