<svg id="Ebene_3_Bild" data-name="Ebene 3 Bild" xmlns="http://www.w3.org/2000/svg" viewBox="0 0 429 432"><defs><style>.cls-1{fill:#6c070f;}.cls-2{fill:#fefefe;}.cls-3{fill:#454972;}.cls-4{fill:#773948;}.cls-5{fill:#804a59;}.cls-6{fill:#743241;}.cls-7{fill:#454973;}.cls-8{fill:#6b070f;}.cls-9{fill:#010000;}</style></defs><path class="cls-1" d="M746.1,474v-7a72.74,72.74,0,0,0,1-12.32c.32-9.91,2.74-19.4,5.43-28.84.6-2.1,1.52-4.11,4-4.7,25-.38,50-.09,75-.16,16.65-.05,33.31-.13,50,.05,6,.07,11.29-.82,14.48-6.65a4,4,0,0,1,2-1.47c7.9-1.89,15.92-1.07,23.84-.63,4.64.26,9.27.75,13.93.66,34.62-.69,69.21,1,103.82,1.2,26.12.14,52.25.36,78.35,1.1,13.3.37,26.6.42,39.9.72a17,17,0,0,1,5.4.8,5.88,5.88,0,0,1,3.65,3.76,123.38,123.38,0,0,1,5.69,21.89,6.11,6.11,0,0,1-.79,4.29c-2.92,3.21-6.79,2.56-10.29,2-7.59-1.15-15.26-1.11-22.85-1.46-20.73-1-41.44-2.35-62.16-3.45-13.91-.74-27.88-1-41.74-2.68-.33,0-.66,0-1,0-7.39-.21-12.2,3.21-12.32,8.77-.11,5.31,4.25,8.44,11.52,9.18,24,2.42,48,2.47,72,4.07q25.85,1.72,51.7,3c4.47.21,8.9,1.07,13.41.94a6.48,6.48,0,0,1,5,2v3c-.61.55-.47,1.29-.5,2s-.11,1.44.5,2v22a1.31,1.31,0,0,0,0,2v7c-1.06,5.36-.91,10.83-1.43,16.24a129.75,129.75,0,0,1-7.23,31.43c-.68,1.88-1.48,3.74-3.57,4.55-4.58,1.39-9.36,1.2-13.88.55-10.92-1.57-21.92-.84-32.86-1.42-13.09-.69-26.25-1.08-39.37-1.56-11.77-.42-23.6-.16-35.34-1.61-7.16-.89-13.77,0-17.15,7.75a4.91,4.91,0,0,1-2.14,2.06c-2.14,1.22-4.51,1-6.82,1-12.48,0-25,.69-37.42-.14-22.28-1.49-44.59.21-66.81-1-22-1.23-43.92.24-65.81-1-22.45-1.25-44.88-.25-67.31-1a131.78,131.78,0,0,1-17.82-1.57,4.18,4.18,0,0,1-3.11-2.18c-2.65-5.76-5.72-11.42-4.81-18.13,1.7-3.33,4.87-3.06,7.83-3.07,16-.07,31.95,0,47.92,0h80.37a57,57,0,0,0,6-.12c4.81-.48,8.47-4,8.57-8.17.1-4.35-3.65-8-8.76-8.49-1.66-.16-3.32-.1-5-.1-10,0-20-.09-30,0-34.6.19-69.19-.86-103.79-.55-2.44,0-5.05.53-7.14-1.39-2.17-3.77-.74-8.14-2-12.07v-7a1.31,1.31,0,0,0,0-2V476A1.3,1.3,0,0,0,746.1,474Z" transform="translate(-746 -271)"/><path class="cls-2" d="M746.1,507c1.93,3.49,1.12,7.52,2.18,11.18a36,36,0,0,1,2.15,4.88c.56,2.48,1.11,5,1.44,7.48.72,3.64,2,7.24,1,11a83.82,83.82,0,0,0,6,18.58,6.73,6.73,0,0,1,3.08,3.71c2.62,7.3,6.25,14.17,9.36,21.25a25,25,0,0,0,2.83,6.28c1.64,3,3.39,5.82,5.19,8.67,1.47,2.53,3.29,4.81,5,7.21,7.53,11.33,16.59,21.41,25.58,31.55a24,24,0,0,0,3.18,3.43c3.3,3.63,7.22,6.56,10.91,9.74a130.67,130.67,0,0,0,11.86,9.09c8.7,6.37,18.3,11.26,27.55,16.73a221.92,221.92,0,0,0,68.73,21.53c3,.42,7.26-.9,8.87,3.56q-95.34,0-190.67.1c-3.6,0-4.35-.74-4.34-4.34Q746.21,602.83,746.1,507Z" transform="translate(-746 -271)"/><path class="cls-2" d="M755.79,422.07a183.59,183.59,0,0,0-8.66,42.44c-.07.92.25,2.05-1,2.5q0-95.83-.1-191.67c0-3.6.74-4.35,4.34-4.34q95.83.21,191.67.1c-.51,3.36-3.38,2.69-5.44,2.95a219.13,219.13,0,0,0-59.1,15.73c-3.81,1.64-7.8,2.88-11.3,5.2-2.35,1.32-5,2-7.3,3.46a126.52,126.52,0,0,0-19,11.56c-2.69,2.17-5.71,3.9-8.32,6.18-3.92,3.86-8.38,7.08-12.53,10.69-21.56,18.78-37.59,41.65-50.12,67.16-1.4,2.84-2.81,5.67-4.31,8.46a5.63,5.63,0,0,1-.51,1.33,89.5,89.5,0,0,0-4.84,12.68C758.47,418.58,758.24,421,755.79,422.07Z" transform="translate(-746 -271)"/><path class="cls-2" d="M1171.18,446.08c-1.65-9.56-3.79-19-7.45-28-4.9-5.2-5.91-12.29-8.9-18.42-.42-.87-.41-1.92-1-2.76a38.1,38.1,0,0,0-2.14-4.35c-1.93-3.61-3.35-7.5-5.72-10.88a45.3,45.3,0,0,0-3.17-5.26,261.71,261.71,0,0,0-30.72-40.26c-2.2-2.55-4.7-4.81-7.09-7.17-4.15-3-7.55-6.94-11.76-9.89-1.71-1.86-4.12-2.71-6.08-4.23-5.3-4.29-11.34-7.53-16.73-11.7-20.65-11.43-42.06-20.84-65.33-25.6-7-1.43-14.1-2.42-21.17-3.54-1.94-.3-4.54.16-5-2.9q96,0,191.91-.1c3.43,0,4.1.67,4.1,4.1q-.2,96-.1,191.91c-2.87-.36-2.53-2.56-2.6-4.53-.54-3.67-1.33-7.3-1.66-11C1170,449.6,1171,447.88,1171.18,446.08Z" transform="translate(-746 -271)"/><path class="cls-2" d="M1162.88,558c6.27-15.23,8.72-31.34,11-47.51.17-1.19-.6-2.72,1.06-3.48q0,95.84.1,191.67c0,3.6-.74,4.35-4.34,4.34q-95.84-.21-191.67-.1c.41-3,3-2.7,4.91-2.94a284.83,284.83,0,0,0,41.69-8.72,39.6,39.6,0,0,0,6.47-2.48,132.4,132.4,0,0,0,14.06-5.21c7-3.62,14.39-6.47,21.09-10.66,2.72-1.78,5.87-2.86,8.31-5.09A216,216,0,0,0,1149,586c1.15-2.22,2.29-4.44,3.53-6.6,1-2.34,2.24-4.59,3.23-6.94,1.79-3.55,3.28-7.23,4.73-10.92C1160.81,560,1161.89,559,1162.88,558Z" transform="translate(-746 -271)"/><path class="cls-1" d="M979,271.1c7.88,1.35,15.8,2.52,23.64,4.09A206.34,206.34,0,0,1,1072,302.47c-.61,1.93-2.3,2.23-3.94,2.53a21.16,21.16,0,0,1-3,.13c-33.72,1.32-67.45,1-101.18,1-8.64,0-17.2,1.63-25.86,1-2.31-.16-4.68.11-6.8-1.12-4.8-9-13-9.38-21.79-9a358.35,358.35,0,0,1-39.32-.95c-2-.14-4-.18-5.27-2.16,18.5-10,38.35-15.88,58.9-19.8,6.08-1.16,12.36-.93,18.28-3h5a1.31,1.31,0,0,0,2,0h23a1.31,1.31,0,0,0,2,0Z" transform="translate(-746 -271)"/><path class="cls-1" d="M1033,690.11c-16.07,6.42-32.86,9.77-50,11.77-1.36.16-3-.63-4,1h-5a1.31,1.31,0,0,0-2,0H949a1.31,1.31,0,0,0-2,0h-6c-7.4-2.25-15.17-2.4-22.7-4-19.74-4.21-38.68-10.55-56.48-20.14.84-2.65,3.12-2.7,5.27-2.83,2.83-.16,5.66-.07,8.49-.07q53.7,0,107.4,0c2.8,0,5.68-.42,8.35.9a7,7,0,0,1,3.21,3.68c2.22,4.92,6.22,6.69,11.29,6.43,7.34-.39,14.58.81,21.87,1.1C1029.67,688.06,1031.76,688.09,1033,690.11Z" transform="translate(-746 -271)"/><path class="cls-3" d="M1171.18,446.08c1.35,1.49.5,3.3.71,4.95-1.84,2.28-4.44,1.87-6.91,2-9.67.64-19.26-1.18-28.91-1-18.81.38-37.6-1-56.39-1.32l-34.42-.67a20.22,20.22,0,0,0-5,.32,2.79,2.79,0,0,0-2.5,2.69,2.74,2.74,0,0,0,2,2.62,16.6,16.6,0,0,0,6.83,1.24c19-.57,37.92.92,56.89,1.23,21.61.35,43.21,1.41,64.83,1.81,2,0,4,.34,5.45,2,.7,1.61-.87,3.73,1.14,5v2c-17-.13-33.84-1.67-50.75-2.66-13.6-.8-27.21-1.5-40.81-2.26-17.91-1-35.83-2-53.73-3.12A11.17,11.17,0,0,1,1019,449.8a11,11,0,0,1,11.59-10.66c13.94.49,27.87,1.46,41.8,2.29,7.13.42,14.24,1,21.37,1.45,22.89,1.35,45.77,2.7,68.66,3.92C1165.31,447,1168.38,447.76,1171.18,446.08Z" transform="translate(-746 -271)"/><path class="cls-4" d="M949,271.1c-.67.91-1.34,1-2,0Z" transform="translate(-746 -271)"/><path class="cls-4" d="M974,271.1c-.66,1-1.33.91-2,0Z" transform="translate(-746 -271)"/><path class="cls-5" d="M1174,474c0-.8,0-1.56.88-1.94v2C1174.56,474.64,1174.27,474.62,1174,474Z" transform="translate(-746 -271)"/><path class="cls-6" d="M746.1,474c1,.66.9,1.33,0,2Z" transform="translate(-746 -271)"/><path class="cls-6" d="M1174,474l.88.06v2A2,2,0,0,1,1174,474Z" transform="translate(-746 -271)"/><path class="cls-6" d="M746.1,498c.9.67,1,1.34,0,2Z" transform="translate(-746 -271)"/><path class="cls-6" d="M1174.9,500c-1-.66-.9-1.33,0-2Z" transform="translate(-746 -271)"/><path class="cls-4" d="M947,702.9c.66-1,1.33-.91,2,0Z" transform="translate(-746 -271)"/><path class="cls-4" d="M972,702.9c.67-.91,1.34-1,2,0Z" transform="translate(-746 -271)"/><path class="cls-7" d="M991.77,677.88q-61.85-.06-123.71-.1c-2.09,0-4.35-.65-6.23,1-9.19-5.17-18.66-9.89-26.84-16.7,2.06-2.7,5.07-2.11,7.82-2.13,20.29-.15,40.55,1.7,60.85,1,2.16-.08,4.34.12,6.43-.63,3.41-1.22,5.72-3.31,5.92-7.19s-1.51-6.77-5.2-8.19a27.16,27.16,0,0,0-10.24-1.9c-27.78.4-55.5-2.31-83.28-1.53-2.93.08-5.55-.91-8.27-1.62-9.58-9.88-18.6-20.21-25.91-31.93,2.06-2.76,5.17-3,8.12-2.89,12,.42,23.94-.74,35.87-1.32,15.93-.77,31.89-.43,47.79-1.79a27.91,27.91,0,0,0,6.33-1.3c4.24-1.4,6.83-5.27,6.3-9.09a8.56,8.56,0,0,0-8.22-7.37c-6-.37-12.06-.78-17.94.06-9.93,1.42-19.93.91-29.86,1.44-12.26.65-24.55,1.61-36.86,1.4-6-.1-11.89,1.29-17.91.93-2.36-.14-4.67-.13-6.54-1.86a156.36,156.36,0,0,1-11.27-26c25.62.92,51.26.49,76.87,1.17,13.81.38,27.62.49,41.43.7,30.12.45,60.25.39,90.36,1.28,18.14.54,36.27.41,54.41.86a3.78,3.78,0,0,1,2.68,2.06c2.77,5.2,7.31,6.46,12.88,6.8,20.89,1.3,41.81,1.7,62.71,2.62,13.92.61,27.87,1.69,41.85,1.36,4.08-.1,8.37-.23,11.73,2.93a213.47,213.47,0,0,1-66.8,81.65c-3.56,2.65-6.83,5.78-11.1,7.37-7.67,3.38-15.79,2.22-23.64,1.64-6.13-.45-12.31-1-18.39-.88-9.3.16-18.47-1.9-27.81-.94-5.22.53-9.36,1.91-11.75,6.88A4.14,4.14,0,0,1,991.77,677.88Z" transform="translate(-746 -271)"/><path class="cls-7" d="M931.45,305.1c31.42-1.06,62.85-.86,94.28-1.18,14.13-.14,28.25-.46,42.38-.75a24.86,24.86,0,0,0,3.86-.7c5.53,3.71,11.35,7,16.32,11.5-2.16,2.95-5.44,2.94-8.56,3-6.15.18-12.31.17-18.45,0-12-.27-23.87,1.55-35.85,1.18a9.34,9.34,0,0,0-9.29,5.52c-1.5,3.1-.83,5.89,1.06,8.42,2.15,2.88,5.31,3.77,8.79,3.86,6.32.17,12.63-.84,18.89-.77,20.28.21,40.51-1.52,60.78-1.24a21.82,21.82,0,0,1,7.32,1.24,198.77,198.77,0,0,1,31.16,40.58c-1,1.46-2.49,1.62-4,1.49-5.32-.47-10.65,0-16-.33-20.55-1.38-41.15-1.93-61.71-3.15-9.44-.57-19,.1-28.35-1.62a16.37,16.37,0,0,0-5,0c-5.17.66-8.7,4.1-8.85,8.59s3.45,8.54,8.89,9c4.31.36,8.62,1.05,12.91,1.09,18,.14,35.87,1.51,53.79,2.3,19.74.86,39.5,1.66,59.22,3.09,3.13,7.16,6.36,14.28,8.65,21.77l-265.84-4a6.44,6.44,0,0,1-2.54-3c-1.92-5.44-6.14-6.95-11.39-7-10.8,0-21.6-.13-32.39,0-27.56.26-55.11-.76-82.67-.55-1.95,0-4.06.45-5.55-1.41,10.22-24.32,24.84-45.8,42.58-65.19,7.5-8.21,16.29-15,25-21.94a66.56,66.56,0,0,1,12.38-1c23.43-.64,46.82,1.06,70.23,1.13,7.37,0,13.67-.83,16.36-8.92C930.09,305.61,930.8,305.3,931.45,305.1Z" transform="translate(-746 -271)"/><path class="cls-3" d="M749,523c-1.26-1.44-.92-3.12-.76-4.78,2.23,1,4.59.66,6.91.66H890.51c9.35,0,14.5,3.77,14.56,10.56s-5.13,10.72-14.39,10.72q-65.91,0-131.83,0c-2,0-4.42-1-5.93,1.4q-1.32-5.3-2.63-10.58a7.35,7.35,0,0,1,5.78-.88c6.61,1.28,13.28.86,19.92.79,26.45-.26,52.86,1.45,79.32,1.25,7.76-.06,15.59.83,23.4.78a35.38,35.38,0,0,0,4-.09c2.3-.26,5.23-.28,5.2-3.39s-2.94-3.23-5.25-3.32c-8.47-.34-16.94-.59-25.4-.88-20.1-.69-40.23-.29-60.35-1.1C781,523.5,765,524.38,749,523Z" transform="translate(-746 -271)"/><path d="M1153.84,579.93q-39.33-1.54-78.67-3.08c-13.44-.54-26.88-1.2-40.32-1.81-7.09-.32-10.18-2.94-12.86-10.88,2.84-9.06,6-11.47,15.54-11.13,26.53.92,53.07,2,79.6,3,15.25.6,30.5,1.27,45.75,1.91.28,1.53-.73,2.7-1.13,4a7.4,7.4,0,0,1-5.47,2c-29.1.61-58.17-1.24-87.26-1.31-6.76,0-13.6-.53-20.4-.65a16.86,16.86,0,0,0-3.48.19c-2,.39-4.23.87-4.06,3.47.14,2.22,2.18,2.68,4,3a9.55,9.55,0,0,0,2,.16c12.64-.47,25.21,1.41,37.86,1.1,21.94-.53,43.85,1.65,65.81,1,2.31-.07,4.72-.11,6.36,2.06A21.51,21.51,0,0,1,1153.84,579.93Z" transform="translate(-746 -271)"/><path d="M763.35,402.11c9.48-.08,19-.24,28.43-.25q46.17,0,92.34,0c9.17,0,12.46,3,13.77,12.18-2.38,7.07-7.52,9.21-14.67,9.18-40.57-.17-81.15-.07-121.72-.1-1.94,0-4,.54-5.71-1.06a18.36,18.36,0,0,1,2.1-6.31,8.85,8.85,0,0,1,5.59-1.76c29.14-.5,58.25,1.29,87.39,1.32,7.26,0,14.61.5,21.92.65a22.54,22.54,0,0,0,3.49-.12c2-.27,4.34-.66,4.39-3.18.06-2.87-2.43-3.17-4.62-3.47-1-.13-2-.07-3-.11-21-.82-41.94-.59-62.89-1.26-13.65-.44-27.28-.4-40.92-.84-2.62-.08-6.46.88-6.26-4A1.54,1.54,0,0,1,763.35,402.11Z" transform="translate(-746 -271)"/><path d="M749,523c.64-2.29,2.54-1.78,4.11-1.75q55.4,1.21,110.8,2.48c5.66.13,11.32.19,17,.28a37.9,37.9,0,0,1,4,.13c3.15.41,6.11,1.41,6.18,5.22.09,4.13-3,5.44-6.36,5.48-8.15.07-16.31-.15-24.46-.29-1.83,0-3.65-.26-5.48-.29-30.62-.5-61.25-.92-91.87-1.52-4.23-.09-8.65.46-12.64-1.7C749.87,528.31,749.46,525.63,749,523Z" transform="translate(-746 -271)"/><path class="cls-8" d="M770.19,586.11c20.09-.76,40.19-1.39,60.27-2.32,16.09-.74,32.16-2.19,48.29-1.89,8.3.16,13.35,7.63,10.21,14.76a10.59,10.59,0,0,1-6.9,6.06,26,26,0,0,1-6.36,1.12c-20.09.79-40.18,1.42-60.27,2.25-10.78.45-21.55,1.2-32.32,1.81-2.17-1.9-3.4-4.45-4.73-6.93,2.12-2.62,5.12-2,7.87-2q37.68-.07,75.36,0a27.63,27.63,0,0,0,6-.32c1.68-.38,3.35-1.05,3.41-3.08s-1.6-2.74-3.27-3.14a27.4,27.4,0,0,0-6.46-.35q-40.68,0-81.35,0a64.77,64.77,0,0,1-7-.27C771.83,590,770.37,588.34,770.19,586.11Z" transform="translate(-746 -271)"/><path class="cls-8" d="M809,639.83c2.91-1.71,5.85,0,8.77,0,27.13.26,54.25.69,81.38,1.15a65.79,65.79,0,0,1,9.91.91c6.07,1.05,9.66,5.47,9.32,11.09a10.13,10.13,0,0,1-10.53,9.9c-14.81,0-29.61.39-44.42-.63-9.45-.66-19-.2-28.46-.24a58.3,58.3,0,0,1-11.82-9c1.23-1.77,3.09-1.7,4.93-1.65,13.77.36,27.52,1.28,41.29,1.65,7.28.2,14.57.88,21.88.81a27.85,27.85,0,0,0,4-.19c1.58-.25,2.94-.85,3.07-2.69s-1.12-2.59-2.59-3.21a13.54,13.54,0,0,0-5.38-.82c-19.59-.06-39.12-1.76-58.7-2.29-6.52-.18-13.31.23-19.73-1.9A7.31,7.31,0,0,1,809,639.83Z" transform="translate(-746 -271)"/><path class="cls-9" d="M772.93,591.74c.72-2.18,2.58-1.73,4.18-1.73q44.64,0,89.3,0c3.67,0,7.52.68,7.59,5.29.06,5-4,5.56-7.81,5.57q-43.91.09-87.81.09A40.13,40.13,0,0,1,772.93,591.74Z" transform="translate(-746 -271)"/><path d="M811.92,642.79c4.51-1.78,9.2-.75,13.77-.61,10,.3,19.91,1.18,29.87,1.61,12.29.53,24.6.82,36.9,1.28a22,22,0,0,1,4.89.83c2.82.8,4,2.85,3.68,5.71s-2.26,4.38-5.11,4.38c-6.66,0-13.32,0-20-.29-12.63-.52-25.24-1.21-37.86-1.84l-14.92-.78A58.16,58.16,0,0,1,811.92,642.79Z" transform="translate(-746 -271)"/><path class="cls-3" d="M763,403c.66,2.61,2.83,1.87,4.51,1.91q32.44.66,64.88,1.25c14.48.28,29,.61,43.42.91.67,0,1.34,0,2,.09,3.28.4,6,1.78,6,5.43s-2.8,5.23-6.11,5.26c-8,.06-16-.1-24-.23-2.32,0-4.65-.32-7-.36q-44.43-.76-88.85-1.49A47.17,47.17,0,0,1,763,403Z" transform="translate(-746 -271)"/><path d="M931.45,305.1c-1.09,8.53-4.84,12.07-13.38,12-27.86-.26-55.71-.65-83.57-1-1.28,0-2.71.28-3.59-1.1l8.38-6.11A26.5,26.5,0,0,1,849.5,307c19-.6,37.92,1.64,56.9,1.05,2-.06,4,.13,6-.51,1.48-.49,2.8-1.33,2.71-3.13-.07-1.52-1.26-2.26-2.57-2.73a13.93,13.93,0,0,0-5.44-.54c-14.33.64-28.59-1.23-42.9-1.08-2.4,0-5.16.3-6.29-2.78a22.22,22.22,0,0,1,7-3.39c17.73,1.45,35.5,1,53.25,1.16C925.82,295.12,929.15,297.68,931.45,305.1Z" transform="translate(-746 -271)"/><path class="cls-8" d="M857.86,297.28c1.27,1.06,2.81.87,4.29.9l45.89.91c.67,0,1.33,0,2,0,3.85.18,7.9.72,7.77,5.65-.12,4.57-4,5.2-7.68,5.22-8.65,0-17.34.42-26-.16-15-1-29.94-.39-44.89-1A85.63,85.63,0,0,1,857.86,297.28Z" transform="translate(-746 -271)"/><path class="cls-8" d="M1155.08,396.29c-.75,2.59-2.91,1.83-4.58,1.74-24.07-1.21-48.14-2.51-72.21-3.75-8.63-.44-17.28-.75-25.91-1.14-7.81-.34-15.63-.6-23.43-1.1-6.59-.41-11.18-5.26-11-11.28s4.93-10.67,11.62-10.61c8.81.09,17.62.62,26.42,1.08,9.62.51,19.24,1.21,28.86,1.7,19.76,1,39.52,1.94,59.28,2.9a12.17,12.17,0,0,1,3,5.12c-3.66,3.54-8.19,2.13-12.34,1.87-10.78-.68-21.58-1.17-32.36-1.85-14.93-.94-29.89-1.27-44.8-2.7a100,100,0,0,0-14.48,0c-1.71.09-3.46.5-3.73,2.59s1.34,2.81,3,3.44a9.56,9.56,0,0,0,3.41.69c14.47.16,28.9,1.42,43.34,2.23,15.43.88,30.9,1.09,46.29,2.71a52,52,0,0,0,8,.11,17.9,17.9,0,0,1,9.59,2.06Z" transform="translate(-746 -271)"/><path d="M1173.76,462c-24.47,0-48.91-1.2-73.36-1.85-18.47-.5-37-.86-55.42-1.33a33.92,33.92,0,0,1-5.93-.7,4.76,4.76,0,0,1-4.17-5.35c.14-3,1.89-4.53,4.74-4.82a41.52,41.52,0,0,1,5-.1c33.28.8,66.56,1.5,99.84,2.51,9.14.27,18.28.8,27.44.7A28.62,28.62,0,0,1,1173.76,462Z" transform="translate(-746 -271)"/><path d="M1153.05,392.05c-6.1-.07-12.2.08-18.29-.23-16.74-.85-33.47-1.92-50.21-2.84-13.42-.74-26.86-1.37-40.28-2.11a14.38,14.38,0,0,1-3.88-.83c-2.62-.91-4.34-2.79-3.89-5.62a4.93,4.93,0,0,1,5.22-4.43c5.49,0,11,0,16.46.3,16.58.87,33.14,2,49.71,2.8,13.1.62,26.14,2.29,39.29,1.86C1149.87,384.26,1151.38,388.2,1153.05,392.05Z" transform="translate(-746 -271)"/><path class="cls-8" d="M1113,335.25c-1.31,1-2.85.77-4.33.8-20.79.39-41.59.66-62.38,1.22-7.3.2-14.6,1.1-21.92.76a11.19,11.19,0,0,1-10.3-6.7c-1.85-3.93-1.07-7.52,1.35-10.8s5.71-4.42,9.58-4.5c15.8-.35,31.6-.76,47.4-1,5.33-.09,10.64-.07,15.91-1a13.14,13.14,0,0,1,5.58,4.1c-3.57,3.11-8.1,2.81-12.26,2.89-12.44.21-24.89.1-37.3,1.15-2.86.25-7.17-.57-7.23,3.3-.06,4.35,4.5,3.82,7.39,3.54,15.22-1.5,30.52-.13,45.73-1.68,5.25-.53,10.62-.81,15.78,1Q1109.47,331.77,1113,335.25Z" transform="translate(-746 -271)"/><path class="cls-9" d="M1106,328.27c-7,1.81-14.19,1.05-21.27,1.44-13.42.75-26.91.39-40.35,1.26a23.91,23.91,0,0,1-3.49,0c-3.55-.27-6.93-1.15-6.88-5.52,0-4.05,3.26-5.09,6.6-5.32,6.13-.41,12.27-.79,18.41-.89,11.63-.2,23.27-.07,34.87-1.17A62.23,62.23,0,0,1,1106,328.27Z" transform="translate(-746 -271)"/><path class="cls-3" d="M1157.13,573q-26.46.07-52.89-.82c-19.12-.63-38.26-.81-57.39-1.25a21.16,21.16,0,0,1-5.39-.73,4.64,4.64,0,0,1-3.62-4.79c0-2.52,1.51-3.93,3.71-4.78s4.27-.59,6.42-.55l107.79,2.09c2,0,4-.11,6-.17A35,35,0,0,1,1157.13,573Z" transform="translate(-746 -271)"/><path d="M991.77,677.88c2-8.28,5.44-11.15,14-10.94,23.38.58,46.76,1.33,70.14,2-2.29,2.41-5.2,3.84-8.15,5.21a27.93,27.93,0,0,1-11.24,1.15c-13.9-1.13-27.77-2.65-41.7-3.31-2.76-.14-7.1-1-7,3.3.08,3.74,4.26,3.36,7.16,3.59,8.77.68,17.52,1.62,26.3,2.18,2.45.16,5.12.42,5.83,3.6-4.61,2.08-9.14,4.39-14.15,5.43-9.1-.37-18.19-.84-27.29-1.1C997.07,688.76,993.75,686.22,991.77,677.88Z" transform="translate(-746 -271)"/><path class="cls-8" d="M1047.14,684.67c-5.83-3.16-12.37-1.53-18.52-2.62-5.37-.95-10.93-.74-16.37-1.32-3.51-.38-7.43-1-7.17-5.83s3.85-5.32,7.62-5q27.54,2.1,55.09,4.3C1061.44,678.72,1054.06,681.25,1047.14,684.67Z" transform="translate(-746 -271)"/></svg>
