<svg id="Ebene_1" data-name="Ebene 1" xmlns="http://www.w3.org/2000/svg" viewBox="0 0 498.13 498.13"><defs><style>.cls-1{fill:#b8afab;}.cls-2{fill:#998c84;}.cls-3{fill:#685d56;}.cls-4{fill:#bc7c52;}.cls-5{fill:#bc8a4c;}</style></defs><g id="Planet_2" data-name="Planet 2"><path class="cls-1" d="M1191.06,473.38a248.27,248.27,0,0,1-70.83,174c-2,2.08-4.08,4.11-6.18,6.12A249.63,249.63,0,0,1,1084,678c-2.64,1.83-5.3,3.61-8,5.34-.65.41-1.3.83-2,1.23q-2.7,1.7-5.44,3.32l-1,.56q-.22.15-.45.27l-1.33.78-.51.28c-.72.42-1.45.83-2.18,1.23s-1.54.86-2.31,1.27c-.49.27-1,.54-1.47.79q-4.09,2.21-8.28,4.25l-2.77,1.33-.15.06q-1.64.79-3.3,1.53c-.13.07-.26.12-.4.18-1.15.53-2.31,1-3.47,1.55q-2.4,1-4.85,2l-1.51.61-2.26.9c-1,.38-1.94.74-2.9,1.11-2.33.87-4.66,1.71-7,2.5-.76.27-1.52.52-2.29.78-1.58.52-3.16,1-4.77,1.51l-1.68.52-.71.21c-1.09.33-2.17.64-3.26.94-.54.15-1.07.31-1.61.45l-2.45.66-2.46.64-2.46.61-2.49.58c-1.65.39-3.31.75-5,1.1A248.79,248.79,0,0,1,800.9,678.64c-.3-.19-.6-.4-.89-.61A249.55,249.55,0,0,1,699.39,530a246.34,246.34,0,0,1-5.69-37q-.76-9.68-.77-19.57t.77-19.57a247.85,247.85,0,0,1,41.65-119.5,250.15,250.15,0,0,1,56.29-59.49A247.9,247.9,0,0,1,942,224.32a252.13,252.13,0,0,1,32.36,2.08,249.53,249.53,0,0,1,190.75,136.18c1.78,3.57,3.48,7.2,5.08,10.86A248.21,248.21,0,0,1,1191.06,473.38Z" transform="translate(-692.93 -224.32)"/><path class="cls-2" d="M1191.06,473.38a248.27,248.27,0,0,1-70.83,174c-2,2.08-4.08,4.11-6.18,6.12A249.63,249.63,0,0,1,1084,678c-2.64,1.83-5.3,3.61-8,5.34-.65.41-1.3.83-2,1.23q-2.7,1.7-5.44,3.32l-1,.56q-.22.15-.45.27l-1.33.78-.51.28c-.72.42-1.45.83-2.18,1.23s-1.54.86-2.31,1.27c-.49.27-1,.54-1.47.79q-4.09,2.21-8.28,4.25l-2.77,1.33-.15.06q-1.64.79-3.3,1.53c-.13.07-.26.12-.4.18-1.15.53-2.31,1-3.47,1.55q-2.4,1-4.85,2l-1.51.61-2.26.9c-1,.38-1.94.74-2.9,1.11-2.33.87-4.66,1.71-7,2.5-.76.27-1.52.52-2.29.78-1.58.52-3.16,1-4.77,1.51l-1.68.52-.71.21c-1.09.33-2.17.64-3.26.94-.54.15-1.07.31-1.61.45l-2.45.66-2.46.64-2.46.61-2.49.58c-1.65.39-3.31.75-5,1.1A248.79,248.79,0,0,1,800.9,678.64c-.3-.19-.6-.4-.89-.61H859.4a11.16,11.16,0,0,0,8.68-4.5,17.33,17.33,0,0,0,3.6-10.84c0-8.47-5.49-15.34-12.28-15.34H763.76A248.74,248.74,0,0,1,699.39,530h80.38c6.78,0,12.28-6.86,12.28-15.33v-6.34c0-8.48-5.5-15.34-12.28-15.34H693.7q-.76-9.68-.77-19.57t.77-19.57h37.78c6.79,0,12.28-6.86,12.28-15.33V427.91c0-8.47-5.49-15.34-12.28-15.34h-16.1c-5.66,0-10.42-4.78-11.84-11.28a245.57,245.57,0,0,1,10.2-27.7,8.85,8.85,0,0,1,1.64-.15h89.8c6.79,0,12.29-6.87,12.29-15.34v-8.45c0-8.47-5.5-15.34-12.29-15.34H735.35A250.43,250.43,0,0,1,768,295.18h11.77c6.78,0,12.28-6.87,12.28-15.34v-1.06a18.92,18.92,0,0,0-.41-4A247.9,247.9,0,0,1,942,224.32a252.13,252.13,0,0,1,32.36,2.08,249.53,249.53,0,0,1,190.75,136.18c1.78,3.57,3.48,7.2,5.08,10.86A248.21,248.21,0,0,1,1191.06,473.38Z" transform="translate(-692.93 -224.32)"/><path class="cls-3" d="M1191.06,473.38a248.27,248.27,0,0,1-70.83,174c-2,2.08-4.08,4.11-6.18,6.12A249.63,249.63,0,0,1,1084,678c-2.64,1.83-5.3,3.61-8,5.34-.65.41-1.3.83-2,1.23q-2.7,1.7-5.44,3.32l-1,.56q-.22.15-.45.27l-1.33.78-.51.28c-.72.42-1.45.83-2.18,1.23s-1.54.86-2.31,1.27c-.49.27-1,.54-1.47.79q-4.09,2.21-8.28,4.25l-2.77,1.33-.15.06q-1.64.79-3.3,1.53c-.13.07-.26.12-.4.18-1.15.53-2.31,1-3.47,1.55q-2.4,1-4.85,2l-1.51.61-2.26.9c-1,.38-1.94.74-2.9,1.11-2.33.87-4.66,1.71-7,2.5-.76.27-1.52.52-2.29.78-1.58.52-3.16,1-4.77,1.51l-1.68.52-.71.21c-1.09.33-2.17.64-3.26.94-.54.15-1.07.31-1.61.45l-2.45.66-2.46.64-2.46.61-2.49.58c-1.65.39-3.31.75-5,1.1A248.79,248.79,0,0,1,800.9,678.64a9.91,9.91,0,0,1,3.43-.61h205a11.17,11.17,0,0,0,8.68-4.5,17.33,17.33,0,0,0,3.6-10.84c0-8.47-5.5-15.34-12.28-15.34H786.54c-6.78,0-12.28-6.86-12.28-15.33v-8.46c0-8.47,5.5-15.34,12.28-15.34h63.54c6.79,0,12.28-6.86,12.28-15.33v-8.46c0-8.47-5.49-15.34-12.28-15.34H817c-6.78,0-12.28-6.86-12.28-15.33V545.3c0-8.47,5.5-15.34,12.28-15.34H929.71c6.79,0,12.29-6.86,12.29-15.33v-6.34c0-8.48-5.5-15.34-12.29-15.34H756.05c-6.79,0-12.29-6.87-12.29-15.34v-8.45c0-8.48,5.5-15.35,12.29-15.35H881.43c6.78,0,12.28-6.86,12.28-15.33V427.91c0-8.47-5.5-15.34-12.28-15.34h-16.1c-6.79,0-12.28-6.87-12.28-15.34v-8.45c0-8.47,5.49-15.34,12.28-15.34h89.8c6.78,0,12.28-6.87,12.28-15.34v-8.45c0-8.47-5.5-15.34-12.28-15.34H804.33c-6.78,0-12.28-6.87-12.28-15.34v-8.45c0-8.47,5.5-15.34,12.28-15.34H929.71c6.79,0,12.29-6.87,12.29-15.34v-1.06c0-8.46-5.5-15.33-12.29-15.33H885.66c-6.78,0-12.28-6.86-12.28-15.33v-8.47a18.57,18.57,0,0,1,1-6A249.37,249.37,0,0,1,942,224.32a252.13,252.13,0,0,1,32.36,2.08,249.53,249.53,0,0,1,190.75,136.18c1.78,3.57,3.48,7.2,5.08,10.86A248.21,248.21,0,0,1,1191.06,473.38Z" transform="translate(-692.93 -224.32)"/><path class="cls-4" d="M1084,678c-2.64,1.83-5.3,3.61-8,5.34-.65.41-1.3.83-2,1.23q-2.7,1.7-5.44,3.32l-1,.56q-.22.15-.45.27l-1.33.78-.51.28c-.72.42-1.45.83-2.18,1.23s-1.54.86-2.31,1.27c-.49.27-1,.54-1.47.79q-4.09,2.21-8.28,4.25l-2.77,1.33-.15.06q-1.64.79-3.3,1.53c-.13.07-.26.12-.4.18-1.15.53-2.31,1-3.47,1.55q-2.4,1-4.85,2l-1.51.61-2.26.9c-1,.38-1.94.74-2.9,1.11-2.33.87-4.66,1.71-7,2.5-.76.27-1.52.52-2.29.78-1.58.52-3.16,1-4.77,1.51l-1.68.52-.71.21c-1.09.33-2.17.64-3.26.94-.54.15-1.07.31-1.61.45l-2.45.66-2.46.64-2.46.61-2.49.58c-1.65.39-3.31.75-5,1.1A251.09,251.09,0,0,1,889.8,717a17.7,17.7,0,0,1-2.87-9.86V693.36c0-8.47,5.5-15.33,12.29-15.33Z" transform="translate(-692.93 -224.32)"/><path class="cls-4" d="M1191.06,473.38a248.27,248.27,0,0,1-70.83,174c-2,2.08-4.08,4.11-6.18,6.12-2.25-3.71-5.81-6.12-9.82-6.12H881.43c-6.79,0-12.29-6.86-12.29-15.33v-8.46c0-8.47,5.5-15.34,12.29-15.34H945c6.79,0,12.29-6.86,12.29-15.33v-8.46c0-8.47-5.5-15.34-12.29-15.34h-33c-6.78,0-12.28-6.86-12.28-15.33V545.3c0-8.47,5.5-15.34,12.28-15.34h112.67c6.79,0,12.29-6.86,12.29-15.33v-6.34c0-8.48-5.5-15.34-12.29-15.34H850.93c-6.79,0-12.29-6.87-12.29-15.34v-8.45c0-8.48,5.5-15.35,12.29-15.35H976.31c6.78,0,12.28-6.86,12.28-15.33V427.91c0-8.47-5.5-15.34-12.28-15.34h-16.1c-6.78,0-12.28-6.87-12.28-15.34v-8.45c0-8.47,5.5-15.34,12.28-15.34H1050c6.78,0,12.28-6.87,12.28-15.34v-8.45c0-8.47-5.5-15.34-12.28-15.34H899.22c-6.79,0-12.29-6.87-12.29-15.34v-8.45c0-8.47,5.5-15.34,12.29-15.34h125.37c6.79,0,12.29-6.87,12.29-15.34v-1.06c0-8.46-5.5-15.33-12.29-15.33h-44c-6.78,0-12.28-6.86-12.28-15.33v-8.47c0-5.66,2.45-10.59,6.1-13.25a249.53,249.53,0,0,1,190.75,136.18c1.78,3.57,3.48,7.2,5.08,10.86A248.21,248.21,0,0,1,1191.06,473.38Z" transform="translate(-692.93 -224.32)"/><path class="cls-5" d="M1148.64,334.31H1024.59c-6.78,0-12.28-6.87-12.28-15.34v-8.45c0-8.47,5.5-15.34,12.28-15.34H1116A249.88,249.88,0,0,1,1148.64,334.31Z" transform="translate(-692.93 -224.32)"/><path class="cls-5" d="M1191.06,473.38a248.27,248.27,0,0,1-70.83,174H1006.8c-6.78,0-12.28-6.86-12.28-15.33v-8.46c0-8.47,5.5-15.34,12.28-15.34h63.54c6.79,0,12.28-6.86,12.28-15.33v-8.46c0-8.47-5.49-15.34-12.28-15.34h-33c-6.78,0-12.28-6.86-12.28-15.33V545.3c0-8.47,5.5-15.34,12.28-15.34H1150c6.79,0,12.29-6.86,12.29-15.33v-6.34c0-8.48-5.5-15.34-12.29-15.34H976.31c-6.79,0-12.29-6.87-12.29-15.34v-8.45c0-8.48,5.5-15.35,12.29-15.35h125.38c6.78,0,12.28-6.86,12.28-15.33V427.91c0-8.47-5.5-15.34-12.28-15.34h-16.1c-6.79,0-12.28-6.87-12.28-15.34v-8.45c0-8.47,5.49-15.34,12.28-15.34h84.6A248.21,248.21,0,0,1,1191.06,473.38Z" transform="translate(-692.93 -224.32)"/><path class="cls-5" d="M1084,678c-2.64,1.83-5.3,3.61-8,5.34-.65.41-1.3.83-2,1.23q-2.7,1.7-5.44,3.32l-1,.56q-.22.15-.45.27l-1.33.78-.51.28c-.72.42-1.45.83-2.18,1.23s-1.54.86-2.31,1.27c-.49.27-1,.54-1.47.79q-4.09,2.21-8.28,4.25l-2.77,1.33-.15.06q-1.64.79-3.3,1.53c-.13.07-.26.12-.4.18-1.15.53-2.31,1-3.47,1.55q-2.4,1-4.85,2l-1.51.61-2.26.9c-1,.38-1.94.74-2.9,1.11-2.33.87-4.66,1.71-7,2.5-.76.27-1.52.52-2.29.78-1.58.52-3.16,1-4.77,1.51l-1.68.52-.71.21a18.52,18.52,0,0,1-.69-5.06V693.36c0-8.47,5.5-15.33,12.28-15.33Z" transform="translate(-692.93 -224.32)"/></g></svg>