<svg id="Ebene_2_Bild" data-name="Ebene 2 Bild" xmlns="http://www.w3.org/2000/svg" viewBox="0 0 429 432"><defs><style>.cls-1{fill:#bb894c;}.cls-2{fill:#fefefe;}.cls-3{fill:#bb7c52;}.cls-4{fill:#bd8753;}.cls-5{fill:#c18a5f;}.cls-6{fill:#ccaa81;}.cls-7{fill:#938779;}.cls-8{fill:#d5b792;}.cls-9{fill:#d6b894;}.cls-10{fill:#e1cbb0;}.cls-11{fill:#070606;}.cls-12{fill:#ba894b;}.cls-13{fill:#b8854b;}</style></defs><path class="cls-1" d="M746.1,507v-3c2.08-1.83,4.65-1.54,7.13-1.61,32.63-1,65.28-.37,97.89-1.27,27.32-.75,54.65.33,81.91-.94,25.82-1.2,51.64.25,77.41-1,28-1.3,56,.23,83.91-1.06,24.16-1.11,48.28-.33,72.42-.75,2.79,0,5.72-.46,8.13,1.59v8a306.79,306.79,0,0,1-4.47,30.38c-2.43,11.29-6.53,21.94-10.52,32.67-.7,1.89-1.7,3.65-4.05,4-19.14-.88-38.28-.33-57.41-.4-48.42-.17-96.84-.73-145.25-1.36-33.77-.44-67.57.42-101.31-.84-26.13-1-52.23-.48-78.35-.82a44.52,44.52,0,0,0-9.44.6c-3.36.41-3.56-2.42-4.34-4.43-7.4-19-12.66-38.4-13.2-58.9A1.66,1.66,0,0,0,746.1,507Z" transform="translate(-746 -271)"/><path class="cls-2" d="M746.1,507c2.6,6.85,2.47,14.21,3.89,21.28A205.81,205.81,0,0,0,763.08,571c3.51,3.16,3.82,8,6.23,11.78,1.34,2.09,2.19,4.47,3.54,6.58,9.88,17,20.7,33.25,34.86,47.06a34.37,34.37,0,0,1,3.13,3.87c7.4,8.25,16.14,14.93,25.13,21.32,29.52,20.34,61.75,33.72,97.47,38.28,2.31.3,5.52-.39,6.57,3q-94.83,0-189.67.1c-3.6,0-4.35-.75-4.34-4.34Q746.21,602.83,746.1,507Z" transform="translate(-746 -271)"/><path class="cls-2" d="M1157,573c9.15-19.87,14-40.9,16.71-62.49.15-1.22-.39-2.74,1.16-3.52q0,95.84.1,191.67c0,3.6-.74,4.35-4.34,4.34q-95.34-.21-190.67-.1c.58-3,3.27-2.34,5.13-2.63,11.47-1.81,22.9-3.71,34.08-7A245.67,245.67,0,0,0,1072,670.41a164.19,164.19,0,0,0,27.22-20c6.53-5.52,12.91-11.19,18.08-18.06,6.22-5.57,11.09-12.26,15.85-19.05,4.39-6.64,8.7-13.32,12.81-20.14,3.36-5.08,5.81-10.63,8.39-16.11C1155.07,575.54,1155.58,574,1157,573Z" transform="translate(-746 -271)"/><path class="cls-2" d="M746.1,468q0-96.33-.1-192.67c0-3.59.74-4.35,4.34-4.34q95.34.21,190.67.1c-.49,2.84-2.93,2.23-4.68,2.45A228.31,228.31,0,0,0,887.91,285a223.87,223.87,0,0,0-24.6,10.88c-19.43,9.86-36.53,23-52.5,37.67-6.93,6.25-12.72,13.5-18.2,21-11.5,14.87-20.64,31.13-28.43,48.19-2.56,6.4-5.16,12.79-7.2,19.38-1,3.4-2,6.76-2.82,10.2-1.11,4.3-2.24,8.59-3.12,12.95a144.74,144.74,0,0,0-2.67,20.11,4.74,4.74,0,0,1-.81,2.35A1,1,0,0,1,746.1,468Z" transform="translate(-746 -271)"/><path class="cls-2" d="M980,271.1q95.46,0,190.91-.1c3.43,0,4.11.67,4.1,4.1q-.2,96-.1,191.91c-2.19,0-2.08-1.83-2.25-3.18a270.19,270.19,0,0,0-8.53-41.1c-1.73-6.87-4.73-13.29-7.28-19.87a239.81,239.81,0,0,0-32.35-53.23,99.36,99.36,0,0,0-18.75-19.89c-2.32-1.86-4.26-4.11-6.44-6.12-2.78-3-6.26-5.16-9.41-7.71-6.48-3.34-11.79-8.4-18-12.17-5-3.07-10.1-6.09-15.43-8.65-7-3.34-14-6.76-21.32-9.24a226.42,226.42,0,0,0-50.5-12.35C982.9,273.28,980.49,273.92,980,271.1Z" transform="translate(-746 -271)"/><path class="cls-3" d="M1174.9,499c-22.8,0-45.64-.79-68.4.21-27.94,1.23-55.89-.38-83.76,1-23.12,1.15-46.22-.1-69.29.86-30.09,1.26-60.2,0-90.25,1.16-26.78,1.06-53.54-.26-80.27,1-12.29.56-24.55.52-36.83.79v-2a7.6,7.6,0,0,0,0-6V483a6.5,6.5,0,0,1,3.62-1.53,74.13,74.13,0,0,1,10.92-1.09c48.28.68,96.55-.84,144.82-1.31,27.78-.27,55.61.38,83.36-.89,25.81-1.17,51.62.25,77.38-.95,27.64-1.28,55.26-.32,82.88-.94,6.81-.15,13.59-1.16,20.43-.94,1.82.06,3.68-.25,5.39.66Z" transform="translate(-746 -271)"/><path class="cls-1" d="M1174.9,476a10.17,10.17,0,0,1-4.81,1c-29.09,1.43-58.24.14-87.31,1.19-28,1-55.93-.35-83.83,1-26.46,1.26-52.92-.37-79.33,1-27.12,1.37-54.26-.34-81.32,1-26.46,1.34-52.9.27-79.34.79-4.31.09-8.5,1.66-12.86,1v-5c1.25-1.63-.24-3.84,1.16-5.45a4.7,4.7,0,0,1,1.64-.75,13.11,13.11,0,0,1,3.47-.34c22,.62,43.91-1.3,65.89-1.09,30.62.28,61.24-.73,91.85-1.27,21.46-.39,43,.32,64.38-.84s43,.14,64.38-1c19.65-1.07,39.27-.44,58.9-.79a72,72,0,0,0,11.91-1.28c9-1.66,15.9-10.17,15.47-18.82-.45-9-8.18-17.44-17.44-17.51-22.13-.17-44.27-1.06-66.39.54-2.83.21-5.65.28-8.48.23-37.46-.54-74.89,1-112.34,1.33-20.12.19-40.29-.26-60.38.83-22.48,1.22-45,.11-67.39,1-11,.46-21.94.79-32.92.79-2.29,0-4.71.31-6.64-1.47A38.66,38.66,0,0,1,756,422a17.69,17.69,0,0,1,5.93-.57q198.53,0,397.06,0a17.71,17.71,0,0,1,5.93.57,189.88,189.88,0,0,1,8.94,42c.12,1.07-.46,2.39,1,3Z" transform="translate(-746 -271)"/><path class="cls-1" d="M1073,670.92A217.86,217.86,0,0,1,1001.18,699c-7,1.44-14.36,1.3-21.19,3.87h-5a2.28,2.28,0,0,0-3,0H949c-.82-.81-1.86-.41-2.8-.51-.76,0-1.59-.16-2.2.51h-4c-4.49-2.42-9.56-2-14.36-2.82-32.58-5.47-62.18-18.06-89.31-36.73a11.55,11.55,0,0,1-1.42-1.38c2.36-2.22,5.37-1.9,8.07-1.51,12.08,1.76,24.27.92,36.4,1.52,13.43.67,26.94,1,40.4,1.51,22.43.88,44.9,1.18,67.31,2.63,10.62.69,21.29.71,31.93,1,14.14.37,28.25,1.69,42.42,1.36C1065.35,668.36,1069.47,668.46,1073,670.92Z" transform="translate(-746 -271)"/><path class="cls-3" d="M980,271.1c7.52,1.34,15.06,2.56,22.55,4,11.46,2.27,22.78,5.11,33.51,9.91-4.19,2.54-9,2.44-13.52,2.47-21,.09-41.87,1.6-62.8,2.29-23.59.79-47.16,2.19-70.76,2.79a32.73,32.73,0,0,0-21.24,8.53,3.13,3.13,0,0,1-1.43.14c.74-3.5-3-3.87-4.2-6,17.62-9.9,36.62-15.9,56.27-20.19,7.5-1.64,15.29-1.55,22.64-4h5a2.28,2.28,0,0,0,3,0h5a57.66,57.66,0,0,0,17,0Z" transform="translate(-746 -271)"/><path class="cls-4" d="M971,271.1a30.52,30.52,0,0,1-17,0Z" transform="translate(-746 -271)"/><path class="cls-5" d="M746.1,496a4.5,4.5,0,0,1,0,6Z" transform="translate(-746 -271)"/><path class="cls-6" d="M746.93,473.32c.07,1.62.77,3.36-.83,4.68v-5C746.53,472.7,746.81,472.79,746.93,473.32Z" transform="translate(-746 -271)"/><path class="cls-7" d="M746.93,473.32c-.28-.11-.55-.22-.83-.31v-5a.52.52,0,0,1,.82-.13c1.71,1.61,1.51,3.31.24,5.07Z" transform="translate(-746 -271)"/><path class="cls-8" d="M949,271.1c-1,1.25-2,1.43-3,0Z" transform="translate(-746 -271)"/><path class="cls-9" d="M946,702c1.13-.09,2.3-.33,3,.89h-3c-.32-.18-.43-.37-.34-.58S945.86,702,946,702Z" transform="translate(-746 -271)"/><path class="cls-9" d="M972,702.9c1-1.24,2-1.43,3,0Z" transform="translate(-746 -271)"/><path class="cls-10" d="M946,702a8.85,8.85,0,0,1,0,.89h-2C944.35,701.93,945.14,701.94,946,702Z" transform="translate(-746 -271)"/><path class="cls-3" d="M1157,573a88.56,88.56,0,0,1-10.45,20.94c-2.45,1.93-5.36,1.34-8.15,1.5-5.79.33-11.6-.7-17.38.31-12.56-2-25.24-.69-37.84-1.24-34.75-1.53-69.54,0-104.26-1.19-30.11-1-60.2-.2-90.29-.79-9.14-.18-18.24-1.29-27.4-1-12,.36-24-.73-35.84,1.39-15-1.28-30-1.59-45.09-1.4-2.8,0-5.68.3-8.11-1.6A77.85,77.85,0,0,1,763.08,571c.35-2.46,2.26-2,3.85-2,24.15,0,48.33-.85,72.42.25,21.63,1,43.22.33,64.82.71,47.07.84,94.17.42,141.23,1.34,34.6.67,69.18.14,103.77.63C1151.89,571.93,1154.37,573,1157,573Z" transform="translate(-746 -271)"/><path class="cls-11" d="M1079,549.91c-20.64,0-41.28.12-61.92,0-11.9-.1-19.85-5.9-22.27-15.57A19.73,19.73,0,0,1,1009.87,510a48.33,48.33,0,0,1,9.91-.87q58.18.49,116.37,1.16a62.36,62.36,0,0,1,8,.65,20.51,20.51,0,0,1,17.68,20.37A20.24,20.24,0,0,1,1143.37,551c-5.95.48-12,.19-18,.19q-23.23,0-46.46,0Z" transform="translate(-746 -271)"/><path class="cls-11" d="M848.53,554.31c-17,0-33.95,0-50.93,0-5.43,0-10.62-.68-15.21-3.88a20.29,20.29,0,0,1-8.16-21.08A20.67,20.67,0,0,1,791.4,514a64.24,64.24,0,0,1,8-.66q50.68-.63,101.35-1.14a41,41,0,0,1,8.91.87,19.44,19.44,0,0,1,15.63,18.83c.2,9.61-5.63,17.53-14.91,19.91a34.41,34.41,0,0,1-8.38,1.1c-17.81.1-35.61,0-53.42,0Z" transform="translate(-746 -271)"/><path class="cls-3" d="M1073,670.92c-19.37-1.09-38.77-1.5-58.16-2.17-17.72-.61-35.45-1.34-53.17-2-18.89-.68-37.78-1.3-56.67-2-17.89-.66-35.77-1.68-53.68-2-5.43-.08-10.86-1.22-16.35-.84a113,113,0,0,1-24.8-21.13c1.16-3.17,4-2.47,6.27-2.43,12,.18,24,.47,35.87,1.29s23.92.74,35.87,1.31c14.25.66,28.58,1,42.85,1.54,21.75.87,43.52,1.05,65.25,2.62,9.27.67,18.61.6,27.9.86,13.45.38,26.89,1.47,40.37,1.35,10.14-.09,20.23,1.36,30.4,1.07,1.93-.06,4.56-.51,5.11,2.6A125,125,0,0,1,1073,670.92Z" transform="translate(-746 -271)"/><path class="cls-1" d="M1100,651.05c-.78-1.13-2-1.18-3.13-1.11-12.48.72-24.89-1-37.35-1.1-21.24-.26-42.45-1.52-63.69-2.1-17.74-.48-35.47-1.32-53.21-2-18.91-.68-37.81-1.31-56.71-2-17.74-.65-35.46-1.62-53.21-2-5.94-.12-11.89-1-17.86-.84-1.61,0-3.37-.55-4.73.89a204,204,0,0,1-37.9-50.93c10.11,0,20.22-.19,30.32.12,7.52.23,15,1.13,22.52,1.74-.51,2.34-2.53,3.43-4.12,4.83-5.73,5-7.38,11.37-5.74,18.55s6.63,11.26,13.65,13.09a43.27,43.27,0,0,0,10.39,1.15c41.61.56,83.24.5,124.84,1.29,31.47.6,62.94-.29,94.37.89,18.81.7,37.6.76,56.4.6,1.17,0,2.35-.06,3.2,1A108.72,108.72,0,0,1,1100,651.05Z" transform="translate(-746 -271)"/><path class="cls-11" d="M1118.05,633.15c-17.27,1.43-34.57.33-51.85.34-12.15,0-24.29-.41-36.44-.53q-71.13-.69-142.26-1.32c-17-.17-33.94-.49-50.91-.74l-1,0c-11.65-.38-19.6-5.81-22.16-15.14-2.61-9.5,1.36-17.68,11.62-24a57.08,57.08,0,0,1,15.3-1.71c43,.45,85.93.77,128.9,1.23,45.79.5,91.58,1.13,137.38,1.63a60.93,60.93,0,0,1,15.29,1.82,15.42,15.42,0,0,1,12.09,19C1129.45,620.85,1124.39,627.53,1118.05,633.15Z" transform="translate(-746 -271)"/><path class="cls-1" d="M1134,613.77c.43-9.17-4.56-14.9-12.09-19,.2-.83.46-1.6,1.58-1.41,7.66,1.34,15.38.28,23.07.61A158.59,158.59,0,0,1,1134,613.77Z" transform="translate(-746 -271)"/><path class="cls-3" d="M1165,422c-1.43,1.71-3.4,1.05-5.15,1.05q-199.3,0-398.62,0c-1.75,0-3.72.66-5.15-1.05a90.47,90.47,0,0,1,7.45-19.89c2.92-2.27,6.37-1.63,9.64-1.63q120.92,0,241.83,0,66.7,0,133.41,0c3.12,0,6.38-.53,9.14,1.64C1160.61,408.45,1163.56,414.91,1165,422Z" transform="translate(-746 -271)"/><path class="cls-1" d="M747.22,466a60.87,60.87,0,0,1,3-21.05c5.41-2.74,11.44-1.27,17.07-2.5a11,11,0,0,1,2.5-.06c23.64.63,47.26-.84,70.89-1.23,28.62-.47,57.23-1.19,85.84-1.94,27.62-.71,55.23-1.28,82.85-2,28.44-.73,56.88-1.74,85.34-1.91,4.47,0,8.89-1.25,13.41,0,6.12,1.65,10,5.86,10.12,11.44s-3.63,10.12-9.61,11.87a19.83,19.83,0,0,1-5.91.89c-14.32-.24-28.62.95-42.92,1-22.48,0-44.94,1-67.4,1.35-27.62.44-55.24,1.2-82.85,1.91-28.78.74-57.56,1.26-86.34,2.05-22.78.62-45.57,1.11-68.35,1.76C752.24,467.65,749.46,468,747.22,466Z" transform="translate(-746 -271)"/><path class="cls-11" d="M747.22,466q54.18-1.14,108.37-2.3,63.92-1.44,127.83-3,59.42-1.43,118.84-2.86c9.56-.23,14.94-4.38,14.59-11.33-.34-6.72-6.08-10.48-15.11-10.17-16.64.55-33.28,1.06-49.92,1.44-37.46.86-74.91,1.6-112.37,2.44q-65.41,1.49-130.83,3.09c-19.47.47-38.94,1.1-58.41,1.66a43.57,43.57,0,0,1,3-12.88l223.73-3.44q62.69-1,125.35-2c7.49-.13,14.37,1.26,19.44,7.15,4.9,5.69,6.54,12.33,4,19.58-2.69,7.52-8.13,12.06-16,13.5a57.26,57.26,0,0,1-9.44.78q-55.44.82-110.88,1.57-66.66,1-133.34,2.05-54.42.84-108.86,1.62l-.24-5.07Z" transform="translate(-746 -271)"/><path class="cls-3" d="M1106.22,329a90.13,90.13,0,0,1,18.91,19.74c-.11,3-2.53,2.67-4.34,2.81a86.16,86.16,0,0,1-10.9.07c-27.56,1.33-55.17.31-82.73,1.15-8.94.28-17.92.84-26.86.66-26.77-.54-53.49,1.57-80.25,1.09-30.68.42-61.35,1-92,1.27-10.07.08-20.19,1-30.3.83-2.25,0-5.19.63-5.85-2.89,5.42-7.44,11-14.71,18.13-20.65,2.53-1.61,5.36-1.57,8.21-1.57,14.14,0,28.28-.05,42.42,0A87.78,87.78,0,0,0,876,330.08c16.29,1.45,32.53-.68,48.8-.6,5.8,0,11.55-1.77,17.39-.52a21.26,21.26,0,0,0,6.4.71c17.45.05,34.93.61,52.32-.27,23.75-1.19,47.49-.37,71.22-1.1,8.78-.27,17.56-.88,26.36-.86A17.24,17.24,0,0,1,1106.22,329Z" transform="translate(-746 -271)"/><path class="cls-1" d="M791.87,353.7c.67.43,1.35,1.24,2,1.23,9.62-.16,19.28.92,28.87-.59a29,29,0,0,1,4.47-.26c6.33,0,12.66-.16,19,0,24.62.66,49.2-1.25,73.81-1a1.11,1.11,0,0,1-.4,1.55,4.85,4.85,0,0,1-1.69.66c-6.47.39-12.94.11-19.42.17a20.51,20.51,0,0,0-5.89.78c-10.79.85-21.59.27-32.38.39-9,0-18-.83-27,.56-3.55.86-7.17,1.51-10.45,3.26-6.67,3.54-10.09,9.18-9.94,16.62.15,7.27,3.85,12.58,10.4,15.82a24.78,24.78,0,0,0,10.11,2.49c8.15.31,16.34.63,24.45-.09a199.46,199.46,0,0,1,20.44-.73c32.28.41,64.54-.87,96.81-1.34,21.12-.31,42.24-.27,63.36-.67q26.94.51,53.88,0c7.85-.13,15.45-1.57,20.68-8.81,6.32-8.74,4.42-21.62-4.4-27.92-1.94-1.38-4.68-1.8-5.83-4.49,2.24-1.66,5,.1,7.15-1.25,5-.68,10.35,1.48,15.2-1.36a210.22,210.22,0,0,1,32.38,53.35h-394A208.23,208.23,0,0,1,791.87,353.7Z" transform="translate(-746 -271)"/><path class="cls-1" d="M876.06,331a27.41,27.41,0,0,1-10.45,2q-27.81,0-55.61,0a220.46,220.46,0,0,1,44.25-33.56c2.58-1.48,5.23-2.83,7.85-4.24,1.77,1.74,4.2.13,6.16,1.24-.11,1.85-2.61,2.66-2.14,4.76,1.07,1.49.17,2.88-.26,4.26-2.84,9.27-.14,16.61,7.61,22.27C874.6,328.6,876.31,329.07,876.06,331Z" transform="translate(-746 -271)"/><path class="cls-1" d="M1057.14,294.16a147.14,147.14,0,0,1,16.14,9.2c6,3.7,11.21,8.43,17.34,11.85-1,1.57-2.57,2-4.26,2.25a22.49,22.49,0,0,1-3.48.19c-28.12-.65-56.21.83-84.31,1.23-33.41.47-66.82,1.67-100.24,1.84-4.8,0-9.54,1.37-14.39.06-6.12-1.66-10-5.83-10.21-11.35s3.74-10.36,10-12.08a35.13,35.13,0,0,1,9.91-.84c25.29.35,50.55-.91,75.83-1.32,16.11-.26,32.25-.38,48.37-.68,4.5-.08,8.9-1.14,13.43-1C1039.89,293.68,1048.54,293.11,1057.14,294.16Z" transform="translate(-746 -271)"/><path class="cls-11" d="M1057.14,294.16c-1.27,1.61-3.08.93-4.64,1q-61.14,1.17-122.26,2.27c-13.64.25-27.28.58-40.91.87-.34,0-.67,0-1,0-8.42.37-13.46,4.63-13.22,11.16.23,6.32,5.24,10.38,13.46,10.29,16.8-.18,33.6-.59,50.4-1,19.46-.44,38.91-1,58.37-1.43,28.78-.57,57.56-1,86.34-1.54,2.31,0,4.62-.37,6.94-.57,3.2,2.54,6.82,4.59,9.38,7.89-.62,2.71-3,2.46-4.78,2.44-8.48-.09-16.92.88-25.37,1-20.24.39-40.47,1.32-60.68,2.23-20.72.92-41.46.76-62.17,1.72a13.27,13.27,0,0,1-4.94-.27c-16.74.61-33.47,1.18-50.21,1.86-5.32.22-10.59.21-15.79-1.09-12.8-8.2-15.3-15.68-9.94-29.78,5.94-7.62,14.06-9.71,23.33-10.07,48.87-1.89,97.73-4.05,146.6-6.12C1043.47,287.19,1050.26,290.77,1057.14,294.16Z" transform="translate(-746 -271)"/><path class="cls-12" d="M942.06,330.26c14.45-.68,28.91-1.42,43.37-2q55.37-2.25,110.73-4.41c1.31-.06,2.69.17,3.84-.74l6.22,5.87c-21.42-.22-42.8,1.44-64.23,1.19-31.39-.37-62.77,1.65-94.17.89C945.89,331,943.81,331.71,942.06,330.26Z" transform="translate(-746 -271)"/><path class="cls-1" d="M1083,541.69c-16.8,0-33.59,0-50.38,0a43.06,43.06,0,0,1-8.42-.7,10.15,10.15,0,0,1-8.16-9.48,10.32,10.32,0,0,1,7.67-10.41,25,25,0,0,1,6.39-.86q52.38-.65,104.77-1.18a21.46,21.46,0,0,1,8.35,1.07c4.1,1.65,6.45,4.73,6.55,9.14.11,4.65-2.27,7.89-6.56,9.63a17.61,17.61,0,0,1-6.84,1.14q-26.69,0-53.37,0Z" transform="translate(-746 -271)"/><path class="cls-1" d="M848.19,539.92H803.8c-1.33,0-2.66,0-4,0-7.07-.4-11.69-4.55-11.67-10.46s4.65-10.19,11.74-10.39c15.45-.43,30.92-.65,46.38-.93s30.92-.52,46.38-.81a33,33,0,0,1,9.41.73,10.35,10.35,0,0,1,7.89,9.75A10.24,10.24,0,0,1,902,538a31.67,31.67,0,0,1-7.4.81c-15.46.07-30.93,0-46.39,0Z" transform="translate(-746 -271)"/><path class="cls-1" d="M965.53,601.27l126.38,1.65c.83,0,1.67,0,2.5.07,7.06.55,11.62,4.84,11.43,10.73-.18,5.73-4.67,10-11.52,10.06-18,.09-36-.14-54-.3-6.49-.06-13-.33-19.47-.4q-76.18-.75-152.37-1.48c-10.49-.11-21-.45-31.46-.64a16.3,16.3,0,0,1-6.81-1.3c-4-1.88-6.21-5.07-6.07-9.5s2.48-7.48,6.6-9.12c2.69-1.07,5.52-1,8.37-1H965.54Z" transform="translate(-746 -271)"/><path class="cls-13" d="M1109.93,350.07c-1.66,1.94-4.12.36-6.08,1.31,14.53,6.89,16,18,13,28.1-2.19,7.48-9.71,12.85-17.38,13.6-20.25,2-40.53.6-60.8.83,1.35-3,4.16-2.32,6.5-2.34,13.32-.13,26.65-.11,40,0a82.07,82.07,0,0,0,13.92-1.16c9.14-1.51,16.16-9.48,16.15-18.3s-7.09-16.68-16.28-18.18a49.29,49.29,0,0,0-7-.31c-35.63-.64-71.24.91-106.86,1.32-19.3.22-38.61.33-57.91.66-2.45,0-5,.42-7.19-1.36v-1.15c33.26,0,66.52-.72,99.76-1.34,23.27-.43,46.55.15,69.79-.82C1096.35,350.62,1103.13,350.1,1109.93,350.07Z" transform="translate(-746 -271)"/><path class="cls-11" d="M920,354.21q29.22-.29,58.44-.6c11.33-.13,22.65-.32,34-.5q39.21-.64,78.43-1.3c3.66-.06,7.32-.18,10.9.9,9.61,2.9,15.8,11.55,15,21a20.34,20.34,0,0,1-18.19,18.35c-14.77,1.51-29.63.46-44.43,1.11-5.13.23-10.31-.42-15.4.71-17.82.15-35.64.19-53.45.46q-58.71.88-117.41,2l-32.47.58A31.16,31.16,0,0,1,825,395.49a19.93,19.93,0,0,1-13.85-19.83,20.14,20.14,0,0,1,15.54-18.58c2.1-.51,4.25-.77,6.38-1.15,7.1-.81,14.23-.11,21.34-.37,2-.07,4,.4,5.89-.4l32.75-.25c6.94-.74,13.89-.12,20.83-.35,1.81-.06,3.65.38,5.4-.4A.51.51,0,0,0,920,354.21Z" transform="translate(-746 -271)"/><path class="cls-3" d="M860.33,355.16c-9.05,1.23-18.14.72-27.23.77,5.5-1.86,11.17-.53,16.75-.83C853.33,354.9,856.84,355.13,860.33,355.16Z" transform="translate(-746 -271)"/><path class="cls-3" d="M919.31,354.16c-8.71,1.21-17.48.73-26.23.75C901.78,353,910.57,354.43,919.31,354.16Z" transform="translate(-746 -271)"/><path class="cls-1" d="M959.44,387.93,839.62,390c-2.83,0-5.66.1-8.39-.88-4.39-1.57-6.91-4.67-7.05-9.3s2.28-7.85,6.53-9.68c2.68-1.16,5.52-1.11,8.35-1.16l118.32-2.13q57.42-1,114.83-2c4.64-.08,9.28-1,13.94-.05,6,1.17,9.67,4.95,9.68,10.3s-3.57,9.24-9.62,10.36a35.81,35.81,0,0,1-6,.46q-43.93.72-87.88,1.34c-11,.14-22,0-32.94,0Z" transform="translate(-746 -271)"/></svg>