<svg id="Ebene_1" data-name="Ebene 1" xmlns="http://www.w3.org/2000/svg" viewBox="0 0 473.5 473.5"><defs><style>.cls-1{fill:#56503e;}.cls-2{fill:#877258;}.cls-3{fill:#ac9e81;}.cls-4{fill:#ccc1aa;}</style></defs><g id="_3" data-name="3"><circle class="cls-1" cx="236.75" cy="236.75" r="236.75"/><path class="cls-2" d="M1636.64,401.33h-3.14a27.09,27.09,0,0,1-27.09-27.09V345.18a27.09,27.09,0,0,0-27.09-27.09h-40A27.09,27.09,0,0,1,1512.18,291h0a27.09,27.09,0,0,0-27.09-27.09h-66A27.09,27.09,0,0,0,1392,291h0A27.09,27.09,0,0,1,1365,318.09h-33a27.09,27.09,0,0,0-27.09,27.09v29.06a27.09,27.09,0,0,1-27.09,27.09h-3.93a27.09,27.09,0,0,0-27.09,27.09v66a27.09,27.09,0,0,0,27.09,27.09h3.93a27.09,27.09,0,0,1,27.09,27.09v44A27.09,27.09,0,0,0,1332,619.62h33A27.09,27.09,0,0,1,1392,646.71v7.07a27.09,27.09,0,0,0,27.09,27.09h66a27.09,27.09,0,0,0,27.09-27.09v-7.07a27.09,27.09,0,0,1,27.09-27.09h40a27.09,27.09,0,0,0,27.09-27.09v-44a27.09,27.09,0,0,1,27.09-27.09h3.14a27.09,27.09,0,0,0,27.09-27.09v-66A27.09,27.09,0,0,0,1636.64,401.33Z" transform="translate(-1218.5 -232.5)"/><path class="cls-3" d="M1588.5,416.93h-2.3a19.88,19.88,0,0,1-19.88-19.88V375.74a19.87,19.87,0,0,0-19.87-19.87h-29.37A19.87,19.87,0,0,1,1497.21,336h0a19.87,19.87,0,0,0-19.88-19.87H1429A19.87,19.87,0,0,0,1409.08,336h0a19.87,19.87,0,0,1-19.87,19.87H1365a19.88,19.88,0,0,0-19.88,19.87v21.31a19.87,19.87,0,0,1-19.87,19.88h-2.88a19.87,19.87,0,0,0-19.87,19.87v48.38a19.87,19.87,0,0,0,19.87,19.87h2.88a19.87,19.87,0,0,1,19.87,19.87v32.26A19.87,19.87,0,0,0,1365,577.05h24.19a19.87,19.87,0,0,1,19.87,19.87v5.19A19.87,19.87,0,0,0,1429,622h48.38a19.88,19.88,0,0,0,19.88-19.87v-5.19a19.87,19.87,0,0,1,19.87-19.87h29.37a19.86,19.86,0,0,0,19.87-19.87V524.92a19.88,19.88,0,0,1,19.88-19.87h2.3a19.86,19.86,0,0,0,19.87-19.87V436.8A19.86,19.86,0,0,0,1588.5,416.93Z" transform="translate(-1218.5 -232.5)"/><path class="cls-4" d="M1531.74,439.4h-1.32A11.46,11.46,0,0,1,1519,428V415.66a11.45,11.45,0,0,0-11.45-11.45h-16.93a11.46,11.46,0,0,1-11.46-11.45h0a11.46,11.46,0,0,0-11.45-11.46h-27.89a11.46,11.46,0,0,0-11.45,11.46h0a11.46,11.46,0,0,1-11.46,11.45h-13.94a11.45,11.45,0,0,0-11.45,11.45V428A11.46,11.46,0,0,1,1380,439.4h-1.66a11.45,11.45,0,0,0-11.45,11.45v27.89a11.46,11.46,0,0,0,11.45,11.46H1380a11.45,11.45,0,0,1,11.46,11.45v18.59a11.45,11.45,0,0,0,11.45,11.45h13.94a11.46,11.46,0,0,1,11.46,11.46v3a11.45,11.45,0,0,0,11.45,11.45h27.89a11.45,11.45,0,0,0,11.45-11.45v-3a11.46,11.46,0,0,1,11.46-11.46h16.93A11.45,11.45,0,0,0,1519,520.24V501.65a11.45,11.45,0,0,1,11.46-11.45h1.32a11.46,11.46,0,0,0,11.46-11.46V450.85A11.46,11.46,0,0,0,1531.74,439.4Z" transform="translate(-1218.5 -232.5)"/></g></svg>