<svg id="Ebene_1" data-name="Ebene 1" xmlns="http://www.w3.org/2000/svg" viewBox="0 0 676 676"><defs><style>.cls-1{fill:#f1b075;}.cls-2{fill:#3473af;}.cls-3{fill:#6f2359;}.cls-4{fill:#1d1835;}.cls-5{fill:#c34745;}</style></defs><g id="Planet_1" data-name="Planet 1"><path class="cls-1" d="M1282.49,487.45a338,338,0,0,1-668.09,73c-.06-.29-.13-.57-.19-.86a337.58,337.58,0,0,1-7.48-59.5,0,0,0,0,1,0,0q-.24-6.29-.24-12.63a339.15,339.15,0,0,1,2.37-40.16,335.57,335.57,0,0,1,25.24-93.84,338.07,338.07,0,0,1,561.71-92q3.76,4.19,7.39,8.5a336.57,336.57,0,0,1,79.29,217.5Z" transform="translate(-606.49 -149.45)"/><path class="cls-2" d="M1093.49,232.45a42.84,42.84,0,0,1-12.19,30l-.4.41a42.88,42.88,0,0,1-30.41,12.59H682a339.61,339.61,0,0,1,104.68-86h263.77A43,43,0,0,1,1093.49,232.45Z" transform="translate(-606.49 -149.45)"/><path class="cls-2" d="M1267.75,587.45a335.82,335.82,0,0,1-40.35,86H898.49a43,43,0,1,1,0-86Z" transform="translate(-606.49 -149.45)"/><path class="cls-3" d="M1265.53,382.45h-302a60,60,0,0,1-37.3-107,58.39,58.39,0,0,1,6.51-4.5,59.64,59.64,0,0,1,30.79-8.5h232.32q3.76,4.19,7.39,8.5A337,337,0,0,1,1265.53,382.45Z" transform="translate(-606.49 -149.45)"/><path class="cls-2" d="M1060.49,382.45a28,28,0,0,1-28,28H615.54a334.83,334.83,0,0,1,18.56-56h398.39A28,28,0,0,1,1060.49,382.45Z" transform="translate(-606.49 -149.45)"/><path class="cls-4" d="M1200.65,709a335.82,335.82,0,0,1-27.06,28H910.17a13.85,13.85,0,0,1-11.31-21.88c.06-.09.13-.18.19-.28A13.85,13.85,0,0,1,910.37,709Z" transform="translate(-606.49 -149.45)"/><path class="cls-5" d="M1093.49,694.45a28,28,0,0,1-28,28H700.59a339.29,339.29,0,0,1-43.49-56h408.39a28,28,0,0,1,28,28Z" transform="translate(-606.49 -149.45)"/><path class="cls-5" d="M1104.49,520.7c0,23.61-26.86,42.75-60,42.75h-412a82.05,82.05,0,0,1-18.28-2A175.36,175.36,0,0,1,606.49,510a173.14,173.14,0,0,1,2.37-28.61A80.56,80.56,0,0,1,632.49,478h412c16.57,0,31.57,4.79,42.43,12.52S1104.49,508.89,1104.49,520.7Z" transform="translate(-606.49 -149.45)"/><path class="cls-5" d="M1203.2,271H827.49a19.5,19.5,0,1,1,0-39h337.1a337.91,337.91,0,0,1,31.22,30.5Q1199.57,266.64,1203.2,271Z" transform="translate(-606.49 -149.45)"/><rect class="cls-3" x="119.5" y="224.5" width="266" height="24" rx="12"/><rect class="cls-4" x="392.5" y="308.5" width="204" height="42" rx="21"/></g></svg>