<svg xmlns="http://www.w3.org/2000/svg" viewBox="0 0 694 671"><defs><style>.cls-1{fill:#bc8a4c;}.cls-2{fill:#bc7c52;}.cls-3{fill:#070606;}</style></defs><g id="Ebene_6" data-name="Ebene 6"><path class="cls-1" d="M1261,509.5a327.34,327.34,0,0,1-3.31,46.5C1234.28,719.28,1089.32,845,914,845c-181.48,0-330.43-134.7-345.71-306.34Q567,524.24,567,509.5c0-138.73,87.08-257.79,211.28-308.87A356.26,356.26,0,0,1,914,174C1105.64,174,1261,324.21,1261,509.5Z" transform="translate(-567 -174)"/><polygon class="cls-2" points="130.05 73.64 563.95 73.64 553.54 65.88 529.58 50.14 502.42 35.45 471.15 22.11 451.73 15.55 435.45 11 417.16 6.86 397.77 3.57 377.94 1.32 362.26 0 338.51 0.1 317.61 1.19 299.02 3.18 285.04 5.33 269.19 8.47 253.02 12.45 232.53 18.68 213.16 25.87 196.33 33.19 181.98 40.29 166.93 48.65 154.13 56.56 145.48 62.22 137 68 130.05 73.64"/><polygon class="cls-2" points="92.71 107.23 601.3 107.23 616.55 124.21 623.56 132.85 74.16 128.19 92.71 107.23"/><polygon class="cls-2" points="16.18 233.98 677.83 233.98 683.81 254.49 687.23 269.26 6.77 269.26 11 252 16.18 233.98"/><path class="cls-1" d="M1259.62,539.61" transform="translate(-567 -174)"/><polygon class="cls-2" points="688.38 395.92 6.77 401.75 8.8 410.92 10.5 417.74 683.49 417.74 686.14 406.83 688.38 395.92"/><path class="cls-3" d="M652.1,357.79l2.35-12.55a9.48,9.48,0,0,1,.44-1.58l4.31-11.51a9.47,9.47,0,0,1,8.87-6.15H868.2a9.45,9.45,0,0,1,8.18,4.71l1.34,2.3a9.44,9.44,0,0,1,1.28,4.76v7.62a9.62,9.62,0,0,1-.89,4l-4.86,10.38-1.83,3.82a9.49,9.49,0,0,1-8.55,5.39H661.41A9.47,9.47,0,0,1,652.1,357.79Z" transform="translate(-567 -174)"/><polygon class="cls-2" points="70.67 538.45 623.34 538.45 595.82 569.34 577.53 586.26 116.47 586.26 91.35 562.35 70.67 538.45"/><path class="cls-1" d="M672.13,353l1.92-6.71a3.43,3.43,0,0,1,.36-.84l3.51-6.16c1.13-2,4-3.29,7.23-3.29H848.2a9,9,0,0,1,6.67,2.52l1.09,1.23a3.84,3.84,0,0,1,1,2.54v4.08a3.67,3.67,0,0,1-.73,2.15l-4,5.55-1.49,2.05c-1.28,1.76-4,2.88-7,2.88H679.72C674.89,359,671.24,356.12,672.13,353Z" transform="translate(-567 -174)"/><path class="cls-3" d="M961.1,357.79l2.35-12.55a9.48,9.48,0,0,1,.44-1.58l4.31-11.51a9.47,9.47,0,0,1,8.87-6.15H1177.2a9.45,9.45,0,0,1,8.18,4.71l1.34,2.3a9.44,9.44,0,0,1,1.28,4.76v7.62a9.62,9.62,0,0,1-.89,4l-4.86,10.38-1.83,3.82a9.49,9.49,0,0,1-8.55,5.39H970.41A9.47,9.47,0,0,1,961.1,357.79Z" transform="translate(-567 -174)"/><path class="cls-1" d="M988.13,350l1.92-6.71a3.43,3.43,0,0,1,.36-.84l3.51-6.16c1.13-2,4-3.29,7.23-3.29H1164.2a9,9,0,0,1,6.67,2.52l1.09,1.23a3.84,3.84,0,0,1,1,2.54v4.08a3.67,3.67,0,0,1-.73,2.15l-4,5.55-1.49,2.05c-1.28,1.76-4,2.88-7,2.88H995.72C990.89,356,987.24,353.12,988.13,350Z" transform="translate(-567 -174)"/><path class="cls-3" d="M652.4,513.79l5.75-12.55a6.18,6.18,0,0,1,1.08-1.58l10.54-11.51c3.38-3.7,12-6.15,21.67-6.15h489.15c8.25,0,15.87,1.79,20,4.71l3.26,2.3c2.05,1.44,3.13,3.08,3.13,4.76v7.62a5.49,5.49,0,0,1-2.18,4l-11.88,10.38-4.47,3.82c-3.85,3.29-12,5.39-20.89,5.39H675.15C660.66,525,649.73,519.61,652.4,513.79Z" transform="translate(-567 -174)"/><path class="cls-3" d="M961.17,654.79l2.4-12.55a8.64,8.64,0,0,1,.45-1.58l4.41-11.51a9.66,9.66,0,0,1,9.06-6.15H1182a9.71,9.71,0,0,1,8.37,4.71l1.36,2.3a9.27,9.27,0,0,1,1.31,4.76v7.62a9.34,9.34,0,0,1-.91,4l-5,10.38-1.87,3.82a9.69,9.69,0,0,1-8.73,5.39H970.68A9.53,9.53,0,0,1,961.17,654.79Z" transform="translate(-567 -174)"/><path class="cls-3" d="M652.17,654.79l2.4-12.55a8.64,8.64,0,0,1,.45-1.58l4.41-11.51a9.66,9.66,0,0,1,9.06-6.15H873a9.71,9.71,0,0,1,8.37,4.71l1.36,2.3a9.27,9.27,0,0,1,1.31,4.76v7.62a9.34,9.34,0,0,1-.91,4l-5,10.38-1.87,3.82a9.69,9.69,0,0,1-8.73,5.39H661.68A9.53,9.53,0,0,1,652.17,654.79Z" transform="translate(-567 -174)"/><path class="cls-1" d="M685.35,509l5.06-6.71a3.58,3.58,0,0,1,.94-.84l9.27-6.16c3-2,10.57-3.29,19.06-3.29h430.1c7.25,0,14,1,17.6,2.52l2.87,1.23c1.8.77,2.75,1.65,2.75,2.54v4.08c0,.75-.66,1.48-1.92,2.15l-10.45,5.55-3.93,2.05c-3.38,1.76-10.52,2.88-18.36,2.88h-433C692.62,515,683,512.12,685.35,509Z" transform="translate(-567 -174)"/><path class="cls-1" d="M679.13,650l1.92-6.71a3.43,3.43,0,0,1,.36-.84l3.51-6.16c1.13-2,4-3.29,7.23-3.29H855.2a9,9,0,0,1,6.67,2.52l1.09,1.23a3.84,3.84,0,0,1,1,2.54v4.08a3.67,3.67,0,0,1-.73,2.15l-4,5.55-1.49,2c-1.28,1.76-4,2.88-7,2.88H686.72C681.89,656,678.24,653.12,679.13,650Z" transform="translate(-567 -174)"/><path class="cls-1" d="M988.13,650l1.92-6.71a3.43,3.43,0,0,1,.36-.84l3.51-6.16c1.13-2,4-3.29,7.23-3.29H1164.2a9,9,0,0,1,6.67,2.52l1.09,1.23a3.84,3.84,0,0,1,1,2.54v4.08a3.67,3.67,0,0,1-.73,2.15l-4,5.55-1.49,2c-1.28,1.76-4,2.88-7,2.88H995.72C990.89,656,987.24,653.12,988.13,650Z" transform="translate(-567 -174)"/></g></svg>