<svg id="Ebene_1" data-name="Ebene 1" xmlns="http://www.w3.org/2000/svg" viewBox="0 0 474.5 473.5"><defs><style>.cls-1{fill:#251444;}.cls-2{fill:#406ec5;}.cls-3{fill:#743c69;}.cls-4{fill:#56c0f4;}</style></defs><g id="_2" data-name="2"><ellipse class="cls-1" cx="237.25" cy="236.75" rx="237.25" ry="236.75"/><path class="cls-2" d="M1040.52,421.33h-3.14a27.12,27.12,0,0,1-27.15-27.09V365.18a27.12,27.12,0,0,0-27.15-27.09H943A27.12,27.12,0,0,1,915.8,311h0a27.12,27.12,0,0,0-27.15-27.09h-66.1A27.12,27.12,0,0,0,795.4,311h0a27.12,27.12,0,0,1-27.14,27.09h-33a27.12,27.12,0,0,0-27.15,27.09v29.06a27.12,27.12,0,0,1-27.15,27.09H677a27.12,27.12,0,0,0-27.15,27.09v66A27.12,27.12,0,0,0,677,541.47h3.93a27.12,27.12,0,0,1,27.15,27.09v44a27.12,27.12,0,0,0,27.15,27.09h33a27.12,27.12,0,0,1,27.14,27.09v7.07a27.12,27.12,0,0,0,27.15,27.09h66.1a27.12,27.12,0,0,0,27.15-27.09v-7.07A27.12,27.12,0,0,1,943,639.62h40.13a27.12,27.12,0,0,0,27.15-27.09v-44a27.12,27.12,0,0,1,27.15-27.09h3.14a27.12,27.12,0,0,0,27.15-27.09v-66A27.12,27.12,0,0,0,1040.52,421.33Z" transform="translate(-621.5 -252.5)"/><path class="cls-3" d="M992.28,436.93H990a19.89,19.89,0,0,1-19.91-19.88V395.74a19.9,19.9,0,0,0-19.91-19.87H920.71A19.9,19.9,0,0,1,900.79,356h0a19.88,19.88,0,0,0-19.91-19.87H832.4A19.89,19.89,0,0,0,812.48,356h0a19.89,19.89,0,0,1-19.91,19.87H768.33a19.9,19.9,0,0,0-19.92,19.87v21.31a19.89,19.89,0,0,1-19.91,19.88h-2.89A19.88,19.88,0,0,0,705.7,456.8v48.38a19.88,19.88,0,0,0,19.91,19.87h2.89a19.89,19.89,0,0,1,19.91,19.87v32.26a19.89,19.89,0,0,0,19.92,19.87h24.24a19.89,19.89,0,0,1,19.91,19.87v5.19A19.9,19.9,0,0,0,832.4,642h48.48a19.89,19.89,0,0,0,19.91-19.87v-5.19a19.9,19.9,0,0,1,19.92-19.87h29.44a19.89,19.89,0,0,0,19.91-19.87V544.92A19.89,19.89,0,0,1,990,525.05h2.31a19.89,19.89,0,0,0,19.92-19.87V456.8A19.89,19.89,0,0,0,992.28,436.93Z" transform="translate(-621.5 -252.5)"/><path class="cls-4" d="M935.4,459.4h-1.33A11.47,11.47,0,0,1,922.6,448V435.66a11.47,11.47,0,0,0-11.48-11.45h-17a11.47,11.47,0,0,1-11.48-11.45h0A11.47,11.47,0,0,0,871.2,401.3h-28a11.47,11.47,0,0,0-11.48,11.46h0a11.47,11.47,0,0,1-11.48,11.45h-14a11.47,11.47,0,0,0-11.48,11.45V448a11.47,11.47,0,0,1-11.47,11.45H781.7a11.47,11.47,0,0,0-11.48,11.45v27.89A11.47,11.47,0,0,0,781.7,510.2h1.67a11.46,11.46,0,0,1,11.47,11.45v18.59a11.46,11.46,0,0,0,11.48,11.45h14a11.47,11.47,0,0,1,11.48,11.46v3a11.47,11.47,0,0,0,11.48,11.45h28a11.47,11.47,0,0,0,11.47-11.45v-3a11.47,11.47,0,0,1,11.48-11.46h17a11.46,11.46,0,0,0,11.48-11.45V521.65a11.46,11.46,0,0,1,11.47-11.45h1.33a11.47,11.47,0,0,0,11.48-11.46V470.85A11.47,11.47,0,0,0,935.4,459.4Z" transform="translate(-621.5 -252.5)"/></g></svg>