<svg id="Muster-planet_Bild" data-name="Muster-planet Bild" xmlns="http://www.w3.org/2000/svg" viewBox="0 0 429 432"><defs><style>.cls-1{fill:#3473ae;}.cls-2{fill:#fefefe;}.cls-3{fill:#efad74;}.cls-4{fill:#5c8fbe;}.cls-5{fill:#598cbd;}.cls-6{fill:#6292c0;}.cls-7{fill:#a9c4dd;}.cls-8{fill:#a5c1db;}.cls-9{fill:#c24745;}.cls-10{fill:#eec5a0;}.cls-11{fill:#e1c9b4;}.cls-12{fill:#f1c6a0;}.cls-13{fill:#f2caa6;}.cls-14{fill:#b3c8dc;}.cls-15{fill:#c3c8ce;}.cls-16{fill:#f1c093;}.cls-17{fill:#f1b884;}.cls-18{fill:#f3cca9;}.cls-19{fill:#efccac;}.cls-20{fill:#efd4bc;}.cls-21{fill:#f1d8c1;}.cls-22{fill:#f2d1b4;}.cls-23{fill:#f1cfaf;}.cls-24{fill:#ecded1;}.cls-25{fill:#e0d1c5;}.cls-26{fill:#dedbda;}.cls-27{fill:#d0ccca;}.cls-28{fill:#c0d1e0;}.cls-29{fill:#cfd6de;}.cls-30{fill:#efae74;}.cls-31{fill:#cda47f;}.cls-32{fill:#3a74ac;}.cls-33{fill:#ebae77;}.cls-34{fill:#f0ae74;}.cls-35{fill:#ecae76;}.cls-36{fill:#eeab73;}.cls-37{fill:#c34845;}</style></defs><path class="cls-1" d="M1174.9,481v12a7.87,7.87,0,0,0,0,6v8c-1.26,7.43-1.12,15-2.09,22.45-.27,2.15-.5,4.15-2.38,5.53-4.7,2-9.67,1.43-14.58,1.51h-61.33c-13.19,0-26.38-.08-39.56.06a41.43,41.43,0,0,0-7.37.78,21.49,21.49,0,0,1-2.78.15h-44.2c-13.05,0-26.09-.06-39.13,0a52.2,52.2,0,0,0-8.36.86c-5.7.2-11.4,0-17.09.1H876a65.18,65.18,0,0,0-11.92.91c-9,.19-18,0-27.05.09h-61.2a65,65,0,0,0-12.39.88c-4.08-.1-8.24.9-12.18-1-2.74-2.57-2.71-6.12-3.09-9.42-.87-7.65-.91-15.37-2.06-23v-8a7.87,7.87,0,0,0,0-6V481a7.87,7.87,0,0,0,0-6v-8c1.46-2-.78-4.81,1.55-6.57,8.82-1.23,17.63-1.73,26.39.44,4.39,4.29,9.6,5.7,15.75,5.7,124.93-.17,249.87.08,374.81-.12,3.41,0,7.29-1.67,10.3,1.55v2a1.32,1.32,0,0,0,0,2v3A7.87,7.87,0,0,0,1174.9,481Z" transform="translate(-746 -271)"/><path class="cls-1" d="M954,271.1h12a7.87,7.87,0,0,0,6,0h3a1.32,1.32,0,0,0,2,0h3c5.85,1.08,11.79,1.1,17.69,1.52,15.61,1.11,30.14,6.25,44.42,12.09,26.64,10.89,50.43,26.17,70.38,47.1,2,2.11,5.4,4.22,1.85,7.81-9.18,1.59-18.37,1.13-27.55.31a5.66,5.66,0,0,1-3.11-2.95c-1.36-3.67-4.1-5.31-7.9-5.44-21.69-3-43.49-1.91-65.24-1.94q-92.82-.12-185.65,0a54.6,54.6,0,0,1-7.46-.19c-4.08-2-2-4.32-.1-6.22a132.66,132.66,0,0,1,16.57-13.52,220.13,220.13,0,0,1,73.5-34.5c10.11-2.63,20.49-2.54,30.77-3.53,1-.09,2,.25,2.85-.5h7A7.87,7.87,0,0,0,954,271.1Z" transform="translate(-746 -271)"/><path class="cls-2" d="M1115.22,337.69c-34.48-36.05-76.51-57.39-125.8-64.66-3.16-.46-6.56,0-9.43-1.93q95.46,0,190.91-.1c3.43,0,4.11.67,4.1,4.1q-.2,96-.1,191.91c-4.08-1.17-3.79-4.89-4-7.82a38.14,38.14,0,0,0-.64-6.22c-4-19.23-9.22-38-17.6-55.91a229.93,229.93,0,0,0-34.11-52.42C1116.82,342.61,1115,340.68,1115.22,337.69Z" transform="translate(-746 -271)"/><path class="cls-2" d="M746.1,507c2.29,5,1.72,10.47,2.92,15.65,1.25,5.42,1.52,11.06,3.85,16.22.38.53.93.92,1.32,1.45a5.6,5.6,0,0,1,.49,1.25,14,14,0,0,1,2.29,7.1c0,2.18,1.69,3.82,1.82,6,5,10.33,8.6,21.25,14,31.4,18.55,34.6,43.68,63,77.58,83.28a9.42,9.42,0,0,1,1.85,1.65,275.25,275.25,0,0,0,32.88,15.49,219.56,219.56,0,0,0,47.73,12.2c2.69.38,6.76-.44,7.14,4.27q-94.83,0-189.67.1c-3.6,0-4.35-.75-4.34-4.34Q746.21,602.83,746.1,507Z" transform="translate(-746 -271)"/><path class="cls-2" d="M941,271.1c-5,2.23-10.56,2-15.84,2.9-41.85,7.43-78.56,25.19-109.73,54.2a3.43,3.43,0,0,1-.41,1.88c-1.29,1-1.68,2.52-2.54,3.77-2.6,2.74-6.5,4.25-7.76,8.26C775.59,374.79,757.4,412.68,750.61,456c-.34,2.16-.46,4.38-3,5.32-.81,1.82.39,4.19-1.56,5.71q0-95.83-.1-191.67c0-3.6.74-4.35,4.34-4.34Q845.68,271.21,941,271.1Z" transform="translate(-746 -271)"/><path class="cls-2" d="M1169.25,534.5c2.69-7.77,3.16-16,4.46-24,.19-1.22-.4-2.76,1.19-3.52q0,95.84.1,191.67c0,3.6-.74,4.35-4.34,4.34q-95.34-.21-190.67-.1c-.38-2.95,2-3,3.8-3.48,5.32-1.33,10.79-1.79,16.16-2.78a206.07,206.07,0,0,0,44.57-13.8c4-1.74,8.82-1.9,11.72-5.86,3.93-1.73,8.71-1.76,11.44-5.84,3.66-2,7.64-3.38,11.11-5.74,1.77-.79,2.22-2.94,3.93-3.79,35.47-25.3,60.36-58.69,75.93-99.22q2.24-5.8,4.62-11.54c.18-.93.33-1.86.45-2.8.48-2.54,2.26-4.65,2.4-7.3-.06-1.52.74-2.73,1.4-4A11,11,0,0,1,1169.25,534.5Z" transform="translate(-746 -271)"/><path class="cls-1" d="M1058.51,678.82c-23.47,12.65-48.65,19.74-75,22.92-1.2.15-2.75-.48-3.5,1.16h-8a5.55,5.55,0,0,0-5,0H955a7.87,7.87,0,0,0-6,0h-3a1.32,1.32,0,0,0-2,0h-4c-4.61-2.54-9.84-2-14.77-2.87a213.83,213.83,0,0,1-75.47-28.22,3.85,3.85,0,0,1,4.05-3c11.11-.21,22.25-1.24,33.31.7,6.64,5.48,14.48,5.45,22.57,5.55,42.24.48,84.48.39,126.72.44,6,0,11.9,1.18,17.89,1.2C1056,676.67,1057.65,677.06,1058.51,678.82Z" transform="translate(-746 -271)"/><path class="cls-3" d="M1172.16,452.21c2,4.74.71,10.07,2.74,14.8v1c-2.66.15-5.31.43-8,.43q-190.79,0-381.57,0c-5.52,0-10.91,0-12.71-6.85-2.76-3.67-.72-6.3,2.13-8.4a14.86,14.86,0,0,1,8-2.53c2.5-.17,5-.14,7.49-.14q184.85,0,369.68,0C1164.08,450.57,1168.31,450.05,1172.16,452.21Z" transform="translate(-746 -271)"/><path class="cls-4" d="M1174.9,499c-1.51-2-1.05-4,0-6Z" transform="translate(-746 -271)"/><path class="cls-4" d="M746.1,493c1,2,1.51,4,0,6Z" transform="translate(-746 -271)"/><path class="cls-4" d="M1174.9,481c-1.05-2-1.51-4,0-6Z" transform="translate(-746 -271)"/><path class="cls-4" d="M746.1,475c1.51,2,1,4,0,6Z" transform="translate(-746 -271)"/><path class="cls-5" d="M972,271.1c-2,1.47-4,1.1-6,0Z" transform="translate(-746 -271)"/><path class="cls-6" d="M954,271.1c-2,1.06-4,1.54-6,0Z" transform="translate(-746 -271)"/><path class="cls-5" d="M949,702.9c2-1.47,4-1.1,6,0Z" transform="translate(-746 -271)"/><path class="cls-6" d="M967,702.9c1.66-1,3.33-1.4,5,0Z" transform="translate(-746 -271)"/><path class="cls-7" d="M1174.9,472c-1-.67-1.22-1.34,0-2Z" transform="translate(-746 -271)"/><path class="cls-8" d="M977,271.1c-.66,1.2-1.33,1-2,0Z" transform="translate(-746 -271)"/><path class="cls-8" d="M944,702.9c.66-1.2,1.33-1,2,0Z" transform="translate(-746 -271)"/><path class="cls-9" d="M1172.16,452.21c-2.41,1.67-5.16,1-7.76,1q-187.7.06-375.39,0c-2.33,0-4.67-.08-7,.09-6,.43-8,2.28-9.37,8.32-8.33-.2-16.67.53-25-.32,5.32-46.56,24.75-86.63,55.72-121.42,1.45-.75,2.91-1.45,4.57-.58,2.66,2.75,6.09,2.79,9.57,2.77,83.79-.7,167.59-.44,251.39-.46,5.08,0,10-.38,14.26-3.55a3.12,3.12,0,0,1,2.87-.34l29.18,0c8.89,8.57,16.22,18.43,23,28.66C1155.65,392.53,1167.36,421,1172.16,452.21Z" transform="translate(-746 -271)"/><path class="cls-10" d="M762.62,538.83c9.57-1,19.19-.61,28.79-.71,15.24-.16,30.48-.08,45.72-.11a1.39,1.39,0,0,1-.54,1.7c-2,1.11-4.21.74-6.34.75q-28.62,0-57.23,0C769.55,539.94,765.7,541.79,762.62,538.83Z" transform="translate(-746 -271)"/><path class="cls-11" d="M863.59,537.84c18.47-1.1,37-.9,55.46-.77a1.33,1.33,0,0,1-.54,1.67c-3.7,1.37-7.58.75-11.34.75-10.43,0-20.85.11-31.28,0C871.81,538.79,867.34,541,863.59,537.84Z" transform="translate(-746 -271)"/><path class="cls-12" d="M936.07,537l16.66-.16a296.29,296.29,0,0,1,33.32,0c.11,2.11-1.53,2.51-2.95,2.49-15.39-.11-30.8.78-46.18-.42-.15,0-.29-.16-.44-.24A1.23,1.23,0,0,1,936.07,537Z" transform="translate(-746 -271)"/><path class="cls-13" d="M1045,536l1.75-.15c15.74-.75,31.5-.19,47.25-.3a1,1,0,0,1,1,1.31c-.82,2.32-3.15,2.27-4.75,2.24-13.72-.26-27.44.06-41.16-.14a5.29,5.29,0,0,1-3.87-1.17A1.42,1.42,0,0,1,1045,536Z" transform="translate(-746 -271)"/><path class="cls-14" d="M1095,535.75l-48.23.07c16-1,32.12-.78,48.18-.72Z" transform="translate(-746 -271)"/><path class="cls-15" d="M985.87,537.15l-33.13-.3c16.07-1.05,32.16-.81,48.25-.75a1.6,1.6,0,0,1-.48,1.79C995.55,539.27,990.61,540.23,985.87,537.15Z" transform="translate(-746 -271)"/><path class="cls-16" d="M863.59,537.84l12.23.33c-.26,2.36-2.15,2.22-3.71,2.24q-15.81.17-31.62,0a3.79,3.79,0,0,1-3.47-1.51c0-.3.07-.6.11-.9Z" transform="translate(-746 -271)"/><path class="cls-17" d="M762.62,538.83l10.24.29c.11.71-.1,1.54-.74,1.63-6.41.86-12.85,1.88-19.14-.73a5.94,5.94,0,0,1-.32-.79c0-.1.13-.25.2-.37Z" transform="translate(-746 -271)"/><path class="cls-18" d="M1169.25,534.5A2.37,2.37,0,0,1,1169,537c-4.41,1.46-8.81,2.52-13.07-.45a1.35,1.35,0,0,1,.09-1.68Z" transform="translate(-746 -271)"/><path class="cls-19" d="M936.07,537c0,.29-.07.57-.09.86a20.46,20.46,0,0,1-17,0c0-.27,0-.53.07-.79Z" transform="translate(-746 -271)"/><path class="cls-20" d="M1018,536.07l15-.06a1.65,1.65,0,0,1-.38,1.82,19.5,19.5,0,0,1-14.26,0A1.47,1.47,0,0,1,1018,536.07Z" transform="translate(-746 -271)"/><path class="cls-21" d="M1128,535l15-.06a1.65,1.65,0,0,1-.23,1.79,15.59,15.59,0,0,1-14.6,0A1.49,1.49,0,0,1,1128,535Z" transform="translate(-746 -271)"/><path class="cls-22" d="M1142.88,535.83c0-.29.06-.57.1-.86a65.87,65.87,0,0,1,13-.06c0,.31-.09.62-.12.94A9.47,9.47,0,0,1,1142.88,535.83Z" transform="translate(-746 -271)"/><path class="cls-23" d="M1032.93,536.84c0-.28,0-.55.08-.83l12,0c0,.3-.06.59-.08.89A9.17,9.17,0,0,1,1032.93,536.84Z" transform="translate(-746 -271)"/><path class="cls-24" d="M1128,535c0,.27-.06.54-.08.81-3.56,3.93-7.56,2.83-11.63,1a1.54,1.54,0,0,1-.31-1.8Z" transform="translate(-746 -271)"/><path class="cls-25" d="M1018,536.07l-.06.77c-2.86,3.32-6.19,2.29-9.54,1a1.51,1.51,0,0,1-.41-1.78Z" transform="translate(-746 -271)"/><path class="cls-26" d="M1116,535.07l-.06.78c-2.16,3.18-4.82,2.63-7.62,1a1.51,1.51,0,0,1-.33-1.77Z" transform="translate(-746 -271)"/><path class="cls-27" d="M1008,536.09c0,.25,0,.5,0,.74q-3.5,4.29-7,0c0-.24,0-.49,0-.73Z" transform="translate(-746 -271)"/><path class="cls-28" d="M1095,535.75c0-.21,0-.43,0-.65h7a1.56,1.56,0,0,1-.33,1.76c-2.48,1.75-4.76,1.73-6.78-.73Z" transform="translate(-746 -271)"/><path class="cls-29" d="M1101.89,535.87q0-.39.06-.78h6c0,.25,0,.51,0,.76Q1104.9,539.33,1101.89,535.87Z" transform="translate(-746 -271)"/><path class="cls-30" d="M1086,337.72c-2.67,5.59-7.59,6.19-13,6.19q-103.53-.09-207,0-24.69,0-49.39,0c-3.68,0-7.41-.06-9.87-3.56.65-1.92,2.3-2.22,4-2.44a46,46,0,0,1,5-.24c53.27-.76,106.53-.89,159.8-1.23,23.62-.15,47.25-.68,70.88-.8a16.64,16.64,0,0,0,5.4-.7c1.88-.63,2.16-2.32,2.29-3.91.15-1.86,1-2.59,2.8-2.4,7.12.25,14.24-.49,21.33.38C1083.75,329.22,1085.7,332.75,1086,337.72Z" transform="translate(-746 -271)"/><path class="cls-31" d="M1078.17,329l-23.06.42c-2.35,1.83-5.11,1.17-7.71,1.17q-111,0-222.1,0c-3.74,0-7.67,1.14-11.17-1.27l1.31-1c22.65.07,45.3.18,67.95.19q93.68,0,187.36,0C1073.22,328.41,1075.75,328,1078.17,329Z" transform="translate(-746 -271)"/><path class="cls-9" d="M886.79,670.75c-12.33.37-24.69-.13-37,1.06-27.87-16.22-49.86-38.59-67.72-65.17a203.92,203.92,0,0,1-25.1-52c.84-2.91,3.11-2.4,5.36-2.47,18.34-.62,36.68,0,55-.35,38.55-.81,77.13.67,115.63-.57,36.2-1.17,72.37-.11,108.55-.83,9.13-.18,18.24-1.45,27.4-1q44.43,0,88.88,0c2.43,0,5-.64,7.17,1.27-1.59,7.89-4.77,15.23-8,22.53-16.28,37-40.53,67.48-73.65,90.79-6.12,2.44-12.57,1.61-18.76,1-4.89-.45-9.75-.67-14.64-.69-28.61-.09-57.22.37-85.82-.18-20-.38-39.9,0-59.84-.42-6.13-.13-11.75.73-15.71,6.08A2.68,2.68,0,0,1,886.79,670.75Z" transform="translate(-746 -271)"/><path class="cls-32" d="M1167.83,541.27a17.74,17.74,0,0,1-1.85,7.21c-.43,1.14-1.49,1.24-2.46,1.38a29.41,29.41,0,0,1-4,.11c-132,.65-263.94.48-395.92.49-2.31,0-4.66.29-6.93-.49a5.16,5.16,0,0,1-1.49-1.3,22.34,22.34,0,0,1-2.1-7.68c8.75-1.14,17.57-.76,26.33-.88,27.63-.37,55.28.24,82.91-.22,40.27-.68,80.54.11,120.8-.59,36.5-.63,73,.22,109.49-.46,22.22-.41,44.43-.18,66.65-.26C1162.31,538.57,1165.76,537.91,1167.83,541.27Z" transform="translate(-746 -271)"/><path class="cls-33" d="M1167.83,541.27c-1.82-.13-3.64-.38-5.47-.38H756.59c-1.17,0-2.33.07-3.5.11a1.41,1.41,0,0,1-.11-1c6.62-.53,13.32.87,19.88-.9l64.16-.2L871,539a9.92,9.92,0,0,0,4.87-.78l43.17-.31h17c15.18,0,30.36,0,45.54,0a27.41,27.41,0,0,0,4.35-.72l15.08-.32h32l12,0c15.18,0,30.36,0,45.55,0a26.32,26.32,0,0,0,4.35-.72l7.05-.25,6,0h35l13,0c4.34.71,8.89-.94,13.1,1.19Z" transform="translate(-746 -271)"/><path class="cls-34" d="M755.19,548.67a1.74,1.74,0,0,1,.91.28c1.89,1,3.92.49,5.88.49q150.75,0,301.5.12c1.78,0,4.38-1.69,5.49,1.43-35.29,1.35-70.59.68-105.88,1.09-44.12.5-88.24.79-132.35,1.17q-34.22.3-68.43.65c-1.8,0-3.68-.31-5.34.76A10.57,10.57,0,0,1,755.19,548.67Z" transform="translate(-746 -271)"/><path class="cls-1" d="M1054.48,338q-81.93.63-163.86,1.26c-28,.25-55.94.72-83.92,1.08l-3.32-.41,7.69-7.84c3.25-2.16,6.95-1.43,10.45-1.45,24.67-.12,49.35.29,74-.25,13.77-.29,27.54-.17,41.3-.27q47.55,0,95.11,0a38.61,38.61,0,0,0,6.45-.2c4.45-.63,8.93-.12,13.39-.29a5.26,5.26,0,0,1,5.27,3.79C1057.78,335.33,1056.7,337.17,1054.48,338Z" transform="translate(-746 -271)"/><path class="cls-35" d="M1054.48,338c1.24-1.52,2.86-2.93,1.64-5.2-1.09-2-3-2.4-5.06-2.44-4-.07-7.9-.08-11.85-.11-1.77.71-3.63.35-5.44.35q-45.66,0-91.34,0c-1.8,0-3.66-.39-5.42.41q-63,1.23-125.94,1a6.69,6.69,0,0,1,3.07-2.81l237,0c1.33,0,2.66.08,4,.12C1058.87,334.4,1058.8,335.37,1054.48,338Z" transform="translate(-746 -271)"/><path class="cls-30" d="M886.79,670.75c1.1-6.87,3.3-8.79,10.85-8.74,23.8.16,47.6.43,71.4.65q54.42.52,108.85,1.06c1.82,0,3.64.24,5.46.37a7.5,7.5,0,0,1-3.36,2.58c-7.94,2.2-16.07,1.71-24.16,1.71q-71.68,0-143.35,0c-2.38,0-4.88-.45-7.7,1,2.91,1.39,5.42,1,7.84,1q71.67,0,143.35,0c2.66,0,5.33-.08,8,.16,2,.19,4.09.27,4.84,2.71a35.53,35.53,0,0,1-10.28,5.5c-35.29-1.05-70.59-.9-105.89-1.24-18.48-.17-37-.51-55.45-.71C892.47,676.82,888.63,675.55,886.79,670.75Z" transform="translate(-746 -271)"/><path class="cls-9" d="M1068.79,673.32c-2.32-.1-4.65-.28-7-.28q-78.45,0-156.9-.07c-3.18,0-8.26,1.45-8.18-3.74.08-4.7,4.94-3.41,8-3.42q84.45-.09,168.89,0c2.13,0,4.36-.42,6.32.89Z" transform="translate(-746 -271)"/><path class="cls-36" d="M1069,551c-2.46-1.48-5.19-1-7.82-1l-297.24,0c-2.63,0-5.36.49-7.81-1,6.49-.1,13-.29,19.45-.29l384,0c2.16,0,4.32-.1,6.48-.16-.34.76-.67,1.53-1,2.29q-44.28.18-88.55.36C1073.93,551.14,1071.45,551,1069,551Z" transform="translate(-746 -271)"/><path class="cls-37" d="M977.35,457h185.83a45.79,45.79,0,0,1,6,.24,3.57,3.57,0,0,1,3.46,3.62c0,2.2-1.46,3.32-3.39,3.7a26.57,26.57,0,0,1-5,.33q-187.08,0-374.16,0c-3.31,0-8.22,1-8.26-3.9S786.72,457,790,457Q883.69,457,977.35,457Z" transform="translate(-746 -271)"/><path class="cls-31" d="M937,331a22.36,22.36,0,0,1,4.36-.84q47.93-.15,95.85-.19a16.68,16.68,0,0,1,2,.23,41.33,41.33,0,0,1-4.43.47q-47.64.31-95.28.56C938.66,331.23,937.84,331.08,937,331Z" transform="translate(-746 -271)"/></svg>