<svg xmlns="http://www.w3.org/2000/svg" viewBox="0 0 666 666"><defs><style>.cls-1{fill:none;}.cls-1,.cls-5{stroke:#000;stroke-miterlimit:10;}.cls-2{fill:#f1b075;}.cls-3{fill:#3473af;}.cls-4{fill:#c34745;}.cls-5{fill:#ff0;}</style></defs><g id="test_ebene" data-name="test ebene"><path class="cls-1" d="M1369.5,501a331,331,0,0,1-53.83,181.46c-59.34,90.93-162,151-278.67,151-123.64,0-231.52-67.48-288.81-167.62a332.39,332.39,0,0,1,7-341.4c58.81-93.69,163-156,281.83-156,112,0,211.14,55.42,271.38,140.34A331.08,331.08,0,0,1,1369.5,501Z" transform="translate(-704 -168)"/><polygon class="cls-2" points="590.5 272.5 555.88 272.5 6 272.5 2.5 294.5 598.14 294.68 609.1 283.59 609.1 272.5 590.5 272.5"/><polygon class="cls-2" points="657.76 404.61 8.23 404.61 13.06 423.81 652.95 423.81 657.76 404.61"/><polygon class="cls-2" points="584.68 115.72 105.12 115.72 95.5 125.5 95.5 131.91 101.5 138.5 604.38 140.84 593.19 125.97 584.68 115.72"/><polygon class="cls-3" points="590.31 283.59 585.5 276.5 579.78 276.5 186.91 276.5 5.5 276.5 4.5 283.5 590.31 283.59"/><polygon class="cls-4" points="648.65 414.21 642.5 419.5 26.74 419.5 20.48 414.21 24.5 408.5 643.09 408.5 648.65 414.21"/><polyline class="cls-4" points="587.85 119.44 114.5 122.5 106.04 128.28 112.5 132.5 598.27 132.5"/><polygon class="cls-3" points="2.5 294.5 598.14 294.68 609.1 283.59 661.85 283.59 665.5 325.35 665.5 349.35 661.76 382.99 657.76 404.61 8.23 404.61 1.5 362.5 0.5 337.87 0.5 313.87 2.5 294.5"/><polygon class="cls-4" points="13.06 423.81 22.97 453.38 41.55 493.17 70.04 536.5 91.83 561.89 120.06 588.38 149.06 610.03 172.46 624.24 199.97 637.81 221.26 646.26 242.12 652.92 263.56 658.23 284.2 661.93 299.95 663.88 313.35 664.93 324.39 665.39 342.48 665.37 353.34 664.89 374.19 662.97 391.06 660.45 417.55 654.65 432.06 650.49 460.63 640.12 481.56 630.55 513.57 612.24 525.9 603.86 544.67 589.43 553.39 581.97 565 571.19 577.37 558.48 593.8 539.26 603.35 526.61 613.72 511.27 625.65 490.97 633.31 475.89 642.52 454.69 648.65 437.78 652.95 423.81 13.06 423.81"/><polygon class="cls-4" points="661.85 283.59 609.1 283.59 609.1 272.5 6 272.5 11.67 247.24 20.48 219.22 34.74 185.88 51.17 156.48 61.62 140.84 73.19 125.5 95.5 125.5 95.5 131.91 101.5 138.5 604.38 140.84 619.05 163.4 632.09 187.58 644.07 215.3 655.78 252.87 661.85 283.59"/><polygon class="cls-3" points="73.19 125.5 95.5 125.5 105.12 115.72 584.68 115.72 568.71 98.49 553.7 84.3 536.07 69.7 510.76 51.96 479.92 34.64 435.41 16.58 404.04 8.11 357.63 1.41 322.04 0.5 287.41 3.61 261.76 8.16 238.21 14.22 210.95 23.62 189.92 32.78 159.08 49.57 128.49 70.83 106.04 90.01 92.16 103.76 73.19 125.5"/><polygon class="cls-2" points="625.65 490.97 106.04 490.97 95.5 495.44 95.5 503.78 101 509 613.72 511.27 625.65 490.97"/><polygon class="cls-3" points="112 496 106.04 501.12 109.02 503.09 112 503.09 618.53 503.09 622.69 496 112 496"/><path class="cls-5" d="M748.19,665.88" transform="translate(-704 -168)"/><polygon class="cls-3" points="95.5 499.54 45.15 499.54 48.88 505.81 54.16 514.2 64.58 529.27 71.22 538.22 76.51 544.6 87.39 557.39 96.26 566.65 104.85 574.88 112.97 582.29 117.13 585.96 120.91 589.22 125.61 593 132.7 598.42 140.08 603.84 144.96 607.26 147.73 609.14 149.88 610.52 153.04 612.44 158.35 615.67 166.41 620.56 174.03 625.02 184.22 630.04 191.75 633.76 198.45 637.06 205.11 639.85 209.17 641.46 215.23 643.86 221.26 646.26 225.31 647.55 231.44 649.51 237.42 651.42 244.73 653.57 253.51 655.74 256 656.36 260.5 657.5 265.5 658.5 268.13 659 272.48 659.87 276.74 660.65 282.04 661.61 284.2 661.93 290.04 662.65 293.78 663 299.95 663.88 313.35 664.93 333 665.5 364.37 663.88 374.19 662.97 391.06 660.45 402.65 658.22 415.44 655.61 424.56 653 434.74 649.61 447.78 644.91 458.5 640.5 466.04 637.61 475.17 633.17 482.5 629.5 495 623.26 504.5 617.5 518.74 608.39 532.04 599 540.46 592.67 546.78 587.62 551.84 583.32 555.29 580.25 559.01 576.73 563.5 572.5 565.21 570.92 567.5 568.5 571.5 564.5 575.45 560.39 578.22 557.55 581.38 553.77 584.54 550.05 586.7 547.61 590.02 543.7 593.8 539.26 598.83 532.64 602.09 528.27 604.5 524.95 608.22 519.43 611.12 515.13 612.72 512.78 613.43 511.71 613.43 511.27 101 509 95.5 499.54"/></g></svg>