<svg id="Ebene_1_Bild" data-name="Ebene 1 Bild" xmlns="http://www.w3.org/2000/svg" viewBox="0 0 429 432"><defs><style>.cls-1{fill:#2d3b45;}.cls-2{fill:#3473ae;}.cls-3{fill:#fefefe;}.cls-4{fill:#1d1835;}.cls-5{fill:#47474e;}.cls-6{fill:#504b52;}.cls-7{fill:#3d4149;}.cls-8{fill:#5e7bb0;}.cls-9{fill:#303558;}</style></defs><path class="cls-1" d="M1174.9,501v6c-1.06,12.19-1.82,24.4-5,36.33a230.26,230.26,0,0,1-10.46,29.58c-.84,2-2,3.88-4.38,4.42a23.81,23.81,0,0,1-6.93.69c-26.63.54-53.24-.93-79.86-1.34-15.13-.23-30.31.23-45.39-.82-16.31-1.15-32.65.07-48.89-1.06-14.83-1-29.65.08-44.4-.93-16.48-1.12-33,0-49.39-1.08-14.83-1-29.65.12-44.4-.93-16.15-1.16-32.3-.1-48.39-1.06-8.12-.48-16.29-.15-24.36-1.36-3.61-.89-4.61-4-5.73-6.93-6.51-17-10.53-34.42-10.73-52.66,0-1,.23-2-.49-2.85V493c2.54-2.63,5.84-2,8.95-2,54.76,0,109.53-.73,164.27.14,82.37,1.32,164.73.43,247.09.85,2.32,0,4.69-.24,6.8,1.09C1175.74,495.27,1173.39,498.54,1174.9,501Z" transform="translate(-746 -271)"/><path class="cls-1" d="M969,702.9H954a7.78,7.78,0,0,0-6,0h-7c-9.18-1.21-18.49-1-27.58-3.22-44.86-10.65-83.24-32.19-113.85-67a166.58,166.58,0,0,1-12-14.66c-1.37-2-3.33-4-1.09-6.7,4.75-2.43,9.8-1.41,14.71-1,3.14.25,6.27.7,9.44.64,26.62-.57,53.23.92,79.84,1.32,15.45.24,31-.24,46.38.85,15.81,1.13,31.64-.09,47.38,1s31.3-.12,46.88,1,31.31-.09,46.88,1c14.82,1,29.6.5,44.4.84,2.5.05,5,0,6.89,2.12,1.5,3.49-1,5.69-2.82,7.91a208.53,208.53,0,0,1-55.69,47.77,215.86,215.86,0,0,1-68.63,26c-7.65,1.48-15.46,1-23.14,2.14h-5A5.49,5.49,0,0,0,969,702.9Z" transform="translate(-746 -271)"/><path class="cls-1" d="M952,271.1h15a7.78,7.78,0,0,0,6,0h6c8.85,1.19,17.82.9,26.63,2.79a215,215,0,0,1,95.58,47.52c4.56,3.89,9.26,7.65,13.1,12.28,1.37,1.64,3.67,3.63.25,5.68a13.53,13.53,0,0,1-5.91.72c-53.44-.69-106.87.91-160.3,1.24-44.11.28-88.22.72-132.33.75-4.13,0-8.21,1.81-12.36.37-3.81-2.09-1.29-4.24.22-5.95a153.79,153.79,0,0,1,17.44-16.41c28.69-23.93,61.21-39.9,98-46.93,7.5-1.43,15.17-1,22.7-2.06h4A7.78,7.78,0,0,0,952,271.1Z" transform="translate(-746 -271)"/><path class="cls-2" d="M1173.87,494.15c-23.62-.08-47.25-.21-70.88-.24-46.93,0-93.87.6-140.79-.17-72-1.18-144.07-.33-216.1-.74V479a7.78,7.78,0,0,0,0-6v-6c.84-4.07.65-8.21,1-12.32.21-2.47,0-5.06,2.5-6.69,2.15-1.2,4.51-1,6.83-1,12,0,24-.2,35.94,0,123.27,2.25,246.55.32,369.83,1,3.12,0,6.34-.51,9.32,1,3.69,4.05,2.93,8.82,2.15,13.59-3,2.21-6.42,1.43-9.68,1.43q-166.65.06-333.29,0h-36a19.89,19.89,0,0,0-8.75,1.68,7.12,7.12,0,0,0-4.33,6.76,7.19,7.19,0,0,0,4.3,6.79c3.25,1.6,6.72,1.69,10.24,1.69H912.1q126.67,0,253.34,0c3.26,0,6.75-.72,9.46,2v11C1174.63,494.51,1174.29,494.57,1173.87,494.15Z" transform="translate(-746 -271)"/><path class="cls-3" d="M1173.72,462a40.75,40.75,0,0,0-2-11.9c-2.42-2.63-2.47-6.08-3.17-9.29A213.19,213.19,0,0,0,1146.12,382c-7.6-14.25-17.45-26.93-27.6-39.39-1.13-1.39-2.65-2.57-2.71-4.6-28.58-30.57-63.39-50.53-103.82-60.84a166.63,166.63,0,0,0-30.9-5.17c-.79,0-1.7.05-2.1-.93q96,0,191.91-.1c3.43,0,4.1.67,4.1,4.1q-.2,96-.1,191.91C1171.61,466,1172.66,464,1173.72,462Z" transform="translate(-746 -271)"/><path class="cls-3" d="M749.27,449.15c-1.93,5.8-1,12.11-3.17,17.86q0-95.83-.1-191.67c0-3.6.74-4.35,4.34-4.34q95.83.21,191.67.1c-8.08,1.36-16.21,2.46-24.23,4.12-45.28,9.38-83.46,31.44-115.14,65a2.91,2.91,0,0,0-.41.87c-.2,3.58-3.5,5.23-5,8a175.09,175.09,0,0,0-15.12,20.59c-3.11,5.11-6.26,10.21-9,15.54a211.8,211.8,0,0,0-20.78,56.22C751.74,444.18,751.41,447,749.27,449.15Z" transform="translate(-746 -271)"/><path class="cls-3" d="M979,702.9c7.75-1.33,15.55-2.43,23.25-4,51.89-10.67,94.45-36.53,127.07-78.44a9.85,9.85,0,0,1,2.37-5.9,237.15,237.15,0,0,0,20.71-34.12,10.63,10.63,0,0,1,3.36-4.26c8-16.29,12.77-33.59,16.13-51.35,1.13-5.93.92-12.07,3-17.82q0,95.84.1,191.67c0,3.6-.74,4.35-4.34,4.34Q1074.82,702.79,979,702.9Z" transform="translate(-746 -271)"/><path class="cls-3" d="M785.81,612.5c34.3,47.86,80.53,76.78,138.35,87.49,5.61,1,11.44.76,16.85,2.91q-95.34,0-190.67.1c-3.6,0-4.35-.74-4.34-4.34q.21-95.83.1-191.67c2.1,5.73,1.85,11.86,3,17.77,2.94,14.87,6.25,29.61,12.83,43.39,4.1,3.5,4.58,9,7.22,13.26a172.67,172.67,0,0,0,12.07,21.42C782.74,606.06,786.09,608.43,785.81,612.5Z" transform="translate(-746 -271)"/><path class="cls-4" d="M1173.72,462c.75,1.57-.85,3.7,1.18,5v6a7.78,7.78,0,0,0,0,6v4l-379.15,0c-3.16,0-6.32.19-9.39-.9-4.62-1.64-7.2-4.89-7.14-9.73,0-4.62,2.57-7.77,7-9.35a22.59,22.59,0,0,1,7.88-1Q983.9,462.05,1173.72,462Z" transform="translate(-746 -271)"/><path class="cls-5" d="M1173.87,494.15l1-.15v7C1173.05,498.94,1174.27,496.43,1173.87,494.15Z" transform="translate(-746 -271)"/><path class="cls-6" d="M952,271.1c-2,1.4-4,1.55-6,0Z" transform="translate(-746 -271)"/><path class="cls-7" d="M973,271.1a4.61,4.61,0,0,1-6,0Z" transform="translate(-746 -271)"/><path class="cls-8" d="M746.1,473c1.55,2,1.4,4,0,6Z" transform="translate(-746 -271)"/><path class="cls-9" d="M1174.9,479c-1.36-2-1.57-4,0-6Z" transform="translate(-746 -271)"/><path class="cls-7" d="M948,702.9a4.61,4.61,0,0,1,6,0Z" transform="translate(-746 -271)"/><path class="cls-6" d="M969,702.9c1.66-1.34,3.33-1.48,5,0Z" transform="translate(-746 -271)"/><path class="cls-2" d="M785.81,612.5l-5.5-8.63c1.73-2,4.13-1.93,6.45-1.93,20.82,0,41.67-.82,62.44.19,26.31,1.28,52.62-.26,78.88.92,28.63,1.3,57.28-.2,85.86,1.08,26.48,1.18,52.93.34,79.39.71,4.85.07,9.57,1.14,14.42,1.08a25.42,25.42,0,0,0,8.8-1.53,7.37,7.37,0,0,0,5.14-7.25,7.49,7.49,0,0,0-5.24-7.68,24.19,24.19,0,0,0-8.82-1.47c-42.12.64-84.22-.93-126.33-1.24-31.79-.24-63.6.14-95.36-1-26-.94-51.93,0-77.87-.88-11.48-.41-22.94-.88-34.41-.89a7.77,7.77,0,0,1-5.51-2,56.43,56.43,0,0,1-6.2-13.87c21.77.31,43.57.18,65.32,1.13,9.8.44,19.59.43,29.38.68,20.61.54,41.24.69,61.83,1.33,16,.5,31.94-.11,47.85.93,15.47,1,30.95,0,46.36,1,15.79,1,31.61,0,47.35,1,15.47,1,31,0,46.35,1,16.46,1.1,32.92.4,49.36,1-6.73,16-16,30.53-26.44,44.29-1.19-2-3.18-1.45-4.94-1.48-6.49-.09-13-.1-19.48-.2-21.62-.32-43.26-.18-64.85-1.17-15.64-.71-31.29-.07-46.88-1-15.8-.91-31.62-.07-47.38-1-15.47-.92-30.95-.09-46.37-1-15.81-.92-31.62-.13-47.38-1-15.3-.86-30.6-.41-45.88-.93C799.36,612.46,792.61,611.25,785.81,612.5Z" transform="translate(-746 -271)"/><path class="cls-2" d="M772.22,384A70.35,70.35,0,0,1,781.11,369c2.45-2.32,5.53-2,8.51-2,41,0,82,.8,122.94-.19,63.78-1.55,127.56-.22,191.34-.8a29.07,29.07,0,0,0,8.86-1.24c3.71-1.2,5.92-3.68,5.92-7.71s-2.11-6.55-5.86-7.75a32.15,32.15,0,0,0-8.86-1.26c-14.66-.46-29.27,1-43.91,1-67,.1-133.94-.18-200.9.19-18.46.11-36.93,1-55.41.83-2.62,0-5.42.4-7.37-2.09l5.86-6.93c36.77-1.6,73.59-.18,110.35-1.17,35.63-1,71.26.06,106.86-1,32.13-1,64.25-.29,96.37-.85a185.84,185.84,0,0,1,31.24,42.79c-1,1.62-2.6,2-4.28,2.16a24.83,24.83,0,0,1-3,.09c-47.24.07-94.47.76-141.7,1.31-38.75.45-77.52-.36-116.24.93-33.77,1.13-67.52.24-101.27.74C777.66,386.1,774.47,386.74,772.22,384Z" transform="translate(-746 -271)"/><path class="cls-1" d="M772.22,384c33.3,0,66.61.68,99.88-.22,34.61-.94,69.22.14,103.81-.93,36.6-1.13,73.22.06,109.79-1.1,20.46-.66,40.91.07,61.35-.87,9.54,15.42,15.9,32.19,20.73,49.55,1.79,6.46,3.76,12.95,4,19.75-121.87-.06-243.75.08-365.62-.39-18.94-.07-37.91-.31-56.86-.59,3-20.9,10.28-40.41,19.5-59.27C769.77,387.83,770.46,385.57,772.22,384Z" transform="translate(-746 -271)"/><path class="cls-4" d="M796.37,348c88.24-1.11,176.48-.68,264.71-1.18,14.82-.08,29.63-.4,44.44-.52a32.94,32.94,0,0,1,7.41.75c5.18,1.15,8.12,4.9,8.16,9.9s-2.86,8.78-7.91,10.15a31.77,31.77,0,0,1-8.42.82c-58.77.12-117.55-.13-176.32.52-49.11.55-98.22.33-147.33.57C785.25,361.31,790.67,354.55,796.37,348Z" transform="translate(-746 -271)"/><path class="cls-4" d="M768.15,582c35.8.39,71.6.4,107.39,1.29,27.64.69,55.29.11,82.91,1,27.47.86,54.95.14,82.41,1,22.81.71,45.62.51,68.42.83a30.14,30.14,0,0,1,5.45.53c6.18,1.22,9.43,4.91,9.35,10.45s-3.44,9-9.67,10.22c-3.65.72-7.31.38-11,.31-7-.11-14-.52-21-.59-46.46-.48-92.92-.53-139.36-1.47-28.31-.58-56.62-.13-84.91-1-26-.79-51.94-.64-77.91-.73A101.61,101.61,0,0,1,768.15,582Z" transform="translate(-746 -271)"/></svg>
