<svg xmlns="http://www.w3.org/2000/svg" viewBox="0 0 799.762 730.625">
  <defs>
    <style>
      .cls-1, .cls-5 {
        fill: #333;
      }

      .cls-2 {
        fill: lime;
        stroke-width: 0.5px;
      }

      .cls-2, .cls-7, .cls-9 {
        stroke: #333;
      }

      .cls-10, .cls-11, .cls-12, .cls-13, .cls-14, .cls-16, .cls-18, .cls-19, .cls-2, .cls-4, .cls-5, .cls-7, .cls-9 {
        stroke-miterlimit: 10;
      }

      .cls-11, .cls-12, .cls-14, .cls-18, .cls-3 {
        fill: #fff;
      }

      .cls-4, .cls-6 {
        fill: #1a1a1a;
      }

      .cls-16, .cls-19, .cls-4, .cls-5 {
        stroke: #000;
      }

      .cls-10, .cls-11, .cls-12, .cls-13, .cls-14, .cls-19, .cls-4, .cls-5, .cls-7, .cls-9 {
        stroke-width: 0.25px;
      }

      .cls-8, .cls-9 {
        fill: #4d4d4d;
      }

      .cls-10, .cls-17 {
        fill: #0071bc;
      }

      .cls-10, .cls-11 {
        stroke: #4d4d4d;
      }

      .cls-12 {
        stroke: #0071bc;
      }

      .cls-13 {
        fill: #ed1c24;
        stroke: #666;
      }

      .cls-14 {
        stroke: #ed1c24;
      }

      .cls-15 {
        fill: #ccc;
      }

      .cls-16 {
        fill: none;
      }

      .cls-18 {
        stroke: #ccc;
      }

      .cls-19 {
        fill: red;
      }

      .cls-20 {
        opacity: 0.79;
      }
    </style>
  </defs>
  <g id="Bildschirm">
    <g id="Bildschirmrahmen">
      <g>
        <path id="Aussenrand" class="cls-1" d="M15.442.5H671.7a4.109,4.109,0,0,1,4.109,4.109V403.96a4.109,4.109,0,0,1-4.109,4.109H8.421a4.109,4.109,0,0,1-4.109-4.109V11.63A11.13,11.13,0,0,1,15.442.5Z"/>
        <path d="M865.891,505.068H202.609A4.613,4.613,0,0,1,198,500.46V108.13A11.643,11.643,0,0,1,209.63,96.5H865.891a4.613,4.613,0,0,1,4.609,4.609V500.46A4.613,4.613,0,0,1,865.891,505.068ZM209.63,97.5A10.643,10.643,0,0,0,199,108.13V500.46a3.612,3.612,0,0,0,3.609,3.608H865.891a3.612,3.612,0,0,0,3.609-3.608V101.109a3.613,3.613,0,0,0-3.609-3.609Z" transform="translate(-194.188 -96.5)"/>
      </g>
      <g>
        <path id="Innenrand" class="cls-1" d="M209.017,104.745h648.75a2.121,2.121,0,0,1,2.017,2.211v381.78a2.121,2.121,0,0,1-2.017,2.211H209.017A2.121,2.121,0,0,1,207,488.736V106.956A2.121,2.121,0,0,1,209.017,104.745Z" transform="translate(-194.188 -96.5)"/>
        <path d="M857.767,491.447H209.017a2.622,2.622,0,0,1-2.517-2.711V106.957a2.622,2.622,0,0,1,2.517-2.711h648.75a2.623,2.623,0,0,1,2.517,2.711V488.736A2.623,2.623,0,0,1,857.767,491.447Zm-648.75-386.2a1.625,1.625,0,0,0-1.517,1.711V488.736a1.625,1.625,0,0,0,1.517,1.711h648.75a1.625,1.625,0,0,0,1.517-1.711V106.957a1.625,1.625,0,0,0-1.517-1.711Z" transform="translate(-194.188 -96.5)"/>
      </g>
      <g>
        <path class="cls-2" d="M524.259,494.085h-2.6v-1.037h6.327v1.037h-2.611v8.4h-1.116Z" transform="translate(-194.188 -96.5)"/>
        <path class="cls-2" d="M530.041,493.048V497h4.133v-3.95h1.116v9.441h-1.116v-4.427h-4.133v4.427h-1.1v-9.441Z" transform="translate(-194.188 -96.5)"/>
        <path class="cls-2" d="M544.407,498.343c-.063-1.317-.139-2.9-.127-4.076h-.038c-.291,1.106-.646,2.283-1.077,3.586l-1.509,4.581h-.837l-1.382-4.5c-.406-1.331-.749-2.549-.989-3.67h-.026c-.025,1.176-.089,2.759-.165,4.174l-.228,4.048h-1.052l.6-9.441h1.407l1.458,4.566c.355,1.163.647,2.2.863,3.18h.037c.216-.952.52-1.988.9-3.18l1.521-4.566h1.408l.533,9.441h-1.078Z" transform="translate(-194.188 -96.5)"/>
      </g>
    </g>
    <g>
      <path class="cls-3" d="M218.1,501.931v-1.986h-3.07v-.65l2.948-4.654h.965v4.531h.925v.773h-.925v1.986Zm0-2.759v-2.434c0-.382.009-.762.03-1.144h-.03c-.2.427-.367.74-.549,1.077l-1.616,2.478v.023Z" transform="translate(-194.188 -96.5)"/>
      <path class="cls-3" d="M220.858,494.372h.884v3.645h.031c.183-.292.366-.561.539-.808l2.093-2.837h1.1l-2.479,3.207,2.672,4.352h-1.046l-2.256-3.712-.651.83v2.882h-.884Z" transform="translate(-194.188 -96.5)"/>
    </g>
  </g>
  <g id="Tastatur">
    <path class="cls-4" d="M205,504.568H850.893a10.685,10.685,0,0,1,9.9,6.666L983.03,812.3A10.685,10.685,0,0,1,973.13,827H264.463a10.683,10.683,0,0,1-10.482-8.615L194.519,517.324A10.686,10.686,0,0,1,205,504.568Z" transform="translate(-194.188 -96.5)"/>
    <path class="cls-5" d="M215,504.568H860.893a10.685,10.685,0,0,1,9.9,6.666L993.03,812.3A10.685,10.685,0,0,1,983.13,827H274.463a10.683,10.683,0,0,1-10.482-8.615L204.519,517.324A10.686,10.686,0,0,1,215,504.568Z" transform="translate(-194.188 -96.5)"/>
    <g>
      <polygon class="cls-1" points="707.812 630.5 80.812 628.5 37.812 428.5 655.812 426.5 707.812 630.5"/>
      <path d="M902.161,727.126H902l-627.1-2-.021-.1L231.845,524.875H232l618.1-2,.024.094ZM275.1,724.875l626.738,2L849.9,523.125l-617.748,2Z" transform="translate(-194.188 -96.5)"/>
    </g>
    <g id="Mauspad">
      <g>
        <path class="cls-6" d="M642.391,820H487.609A11.608,11.608,0,0,1,476,808.391V726H654v82.391A11.608,11.608,0,0,1,642.391,820Z" transform="translate(-194.188 -96.5)"/>
        <path class="cls-1" d="M642.391,820.125H487.609a11.747,11.747,0,0,1-11.734-11.733V725.875h178.25v82.517A11.747,11.747,0,0,1,642.391,820.125Zm-166.266-94v82.267a11.5,11.5,0,0,0,11.484,11.483H642.391a11.5,11.5,0,0,0,11.484-11.483V726.125Z" transform="translate(-194.188 -96.5)"/>
      </g>
      <g>
        <path class="cls-6" d="M476,796.3h89V820H487.957A11.957,11.957,0,0,1,476,808.043Z" transform="translate(-194.188 -96.5)"/>
        <path class="cls-1" d="M565.5,820.5H487.957A12.471,12.471,0,0,1,475.5,808.044V795.805h90Zm-89-23.7v11.239A11.47,11.47,0,0,0,487.957,819.5H564.5v-22.7Z" transform="translate(-194.188 -96.5)"/>
      </g>
      <g>
        <path class="cls-6" d="M565,796.3h89v11.739A11.957,11.957,0,0,1,642.043,820H565Z" transform="translate(-194.188 -96.5)"/>
        <path class="cls-1" d="M642.043,820.5H564.5v-24.7h90v12.239A12.471,12.471,0,0,1,642.043,820.5Zm-76.543-1h76.543A11.47,11.47,0,0,0,653.5,808.044V796.805h-88Z" transform="translate(-194.188 -96.5)"/>
      </g>
    </g>
    <g id="Tasten">
      <g>
        <path d="M239.135,525.749a4.908,4.908,0,0,0-2.248,1.514c-.866,1.077-.911,1.716-.927,10.224l-.018,9.067,1.465,1.361,1.466,1.361,12.781.026,12.781.025,1.385-1.156,1.427-1.155.147-8.948c.145-7.589.061-9.067-.541-10.107-1.334-2.359-1.507-2.4-14.461-2.5C245.872,525.4,239.913,525.551,239.135,525.749Z" transform="translate(-194.188 -96.5)"/>
        <path d="M272.485,525.934c-2.939,1.193-3.026,1.472-3.173,10.579-.191,9.147.065,10.706,2,11.988,1.208.8,1.855.842,13.644.866,12.824.025,13.559-.054,14.987-1.728.692-.718.781-1.916.8-10.065.017-8.708-.025-9.307-.843-10.268a5.9,5.9,0,0,0-2.5-1.482C294.94,525.22,274.084,525.3,272.485,525.934Z" transform="translate(-194.188 -96.5)"/>
        <path d="M308.888,525.447a5.36,5.36,0,0,0-2.248,1.394c-.866,1-.91,1.6-.927,10.024-.019,9.747.195,10.706,2.439,11.669.647.281,5.483.45,13.514.466l12.523.025,1.384-1.156L337,546.713l.147-8.827c.144-7.35.061-8.988-.5-10.107-1.291-2.479-1.42-2.519-14.5-2.625C315.625,525.1,309.666,525.249,308.888,525.447Z" transform="translate(-194.188 -96.5)"/>
        <path d="M347.019,525.677c-3.629,1.072-3.89,1.91-3.909,11.656-.018,8.669.282,10.107,2.179,11.389.863.561,2.633.644,13.428.666,7.989.016,12.782-.135,13.43-.413,2.248-.954,2.465-1.913,2.485-11.659.016-8.428-.026-9.028-.844-9.988a5.9,5.9,0,0,0-2.5-1.483C369.689,525.442,348.315,525.28,347.019,525.677Z" transform="translate(-194.188 -96.5)"/>
        <path d="M382.98,525.12a5.374,5.374,0,0,0-2.249,1.394c-.865,1-.909,1.556-.927,10.3-.016,8.149.068,9.347.758,10.068,1.421,1.68,2.155,1.761,14.98,1.787,11.788.023,12.436-.016,13.647-.812,1.945-1.275,2.207-2.832,2.053-11.98-.15-11.664.54-11.143-15.739-11.135C389.371,524.734,383.757,524.922,382.98,525.12Z" transform="translate(-194.188 -96.5)"/>
        <path d="M421.651,525.026a5.763,5.763,0,0,0-3.418,3.109c-.13.439-.182,4.753-.105,9.547l.113,8.708,1.422,1.161,1.38,1.162,12.781.025,12.782.025,1.471-1.355,1.47-1.355.018-8.948c.016-8.109-.068-9.028-.843-10.188a3.942,3.942,0,0,0-2.458-1.682C444.71,524.832,423.768,524.631,421.651,525.026Z" transform="translate(-194.188 -96.5)"/>
        <path d="M459.1,523.447a5.37,5.37,0,0,0-2.248,1.394c-.866,1-.91,1.556-.927,10.3-.016,8.149.068,9.347.757,10.068,1.422,1.68,2.156,1.761,15.11,1.787l12.522.025,1.341-1.156L487,544.713l.019-9.547c.025-12.9,1.017-12.1-15.435-12.093C465.5,523.061,459.882,523.249,459.1,523.447Z" transform="translate(-194.188 -96.5)"/>
        <path d="M496.623,523.486a4.794,4.794,0,0,0-3.244,2.47c-.3.759-.439,3.914-.365,9.986l.112,8.908,1.423,1.161,1.379,1.161,12.782.025,12.781.026,1.471-1.356,1.471-1.355.017-8.828c.019-9.387-.152-10.306-2.093-11.508-.992-.641-2.417-.724-13-.825C502.841,523.3,497.1,523.367,496.623,523.486Z" transform="translate(-194.188 -96.5)"/>
        <path d="M533.848,523.71A5.36,5.36,0,0,0,531.6,525.1c-.865,1-.91,1.6-.927,10.224-.011,5.512.154,9.467.412,9.947,1.076,1.8,2.242,1.962,15.11,1.987s14.034-.132,15.117-1.927c.26-.479.44-4.433.451-9.946.017-8.628-.025-9.227-.843-10.187a5.887,5.887,0,0,0-2.5-1.483C556.433,523.236,535.749,523.2,533.848,523.71Z" transform="translate(-194.188 -96.5)"/>
        <path d="M572.8,523.577c-3.76,1.231-3.89,1.63-3.911,12.176l-.017,8.827,1.465,1.361L571.8,547.3l12.781.026,12.782.025,1.384-1.156,1.427-1.155.147-8.908c.149-9.586-.022-10.585-2.006-11.827-.992-.642-2.374-.724-13-.825C578.8,523.429,573.143,523.458,572.8,523.577Z" transform="translate(-194.188 -96.5)"/>
        <path d="M608.046,523.473a8.813,8.813,0,0,0-2.032,1.234c-1,.837-1,1.037-1.014,10.424l-.019,9.547,1.336,1.161L607.654,547l12.522.025c12.954.025,13.689-.053,15.117-1.728.692-.718.781-1.916.8-10.065.017-8.707-.025-9.307-.843-10.267a5.9,5.9,0,0,0-2.5-1.483C630.673,522.959,609.515,522.957,608.046,523.473Z" transform="translate(-194.188 -96.5)"/>
        <path d="M645,523.453a4.122,4.122,0,0,0-2.248,1.673c-.78,1.157-.868,2.036-.884,10.185l-.018,8.947,1.466,1.361,1.465,1.361,12.782.026,12.781.025,1.384-1.156,1.427-1.155.148-8.948c.144-7.589.061-9.067-.542-10.107-1.334-2.359-1.506-2.4-14.46-2.5C651.567,523.107,645.823,523.215,645,523.453Z" transform="translate(-194.188 -96.5)"/>
        <path d="M683.468,523.638c-2.938,1.192-3.025,1.472-3.173,10.579-.19,9.147.066,10.705,2.006,11.987,1.208.8,1.855.843,13.644.866,12.824.025,13.558-.053,14.987-1.728.692-.718.781-1.916.8-10.065.017-8.708-.025-9.307-.843-10.267a5.9,5.9,0,0,0-2.5-1.483C705.924,522.923,685.067,523,683.468,523.638Z" transform="translate(-194.188 -96.5)"/>
        <path d="M720.175,523.583a5.358,5.358,0,0,0-2.248,1.393c-.865,1-.91,1.6-.927,10.025-.019,9.746.2,10.705,2.439,11.668.647.281,5.44.45,13.428.466,13.775.027,13.861.028,15.032-2.606.911-2,.9-16.935-.006-18.7-1.248-2.4-1.42-2.439-14.461-2.545C726.912,523.236,720.953,523.384,720.175,523.583Z" transform="translate(-194.188 -96.5)"/>
        <path d="M755.523,523.314a5.211,5.211,0,0,0-3.418,3.468c-.131.719-.182,5.033-.105,9.587l.113,8.309,1.423,1.161L754.915,547l12.523.025c8.031.016,12.868-.135,13.516-.413,2.247-.954,2.465-1.912,2.484-11.659.017-8.428-.025-9.028-.843-9.988a5.907,5.907,0,0,0-2.5-1.483C778.582,523.12,757.6,522.958,755.523,523.314Z" transform="translate(-194.188 -96.5)"/>
        <path d="M788.451,523.711A5.358,5.358,0,0,0,786.2,525.1c-.866,1-.91,1.557-.927,10.3-.016,8.149.068,9.348.757,10.068,1.422,1.681,2.156,1.762,14.98,1.787,11.789.024,12.436-.015,13.647-.812,1.946-1.274,2.208-2.831,2.053-11.979-.149-11.664.54-11.144-15.739-11.136C794.843,523.324,789.229,523.513,788.451,523.711Z" transform="translate(-194.188 -96.5)"/>
        <path d="M822.244,523.616a5.753,5.753,0,0,0-3.417,3.109c-.131.439-.182,4.753-.105,9.547l.112,8.708,1.423,1.161,1.379,1.161,12.782.025,12.781.026L848.67,546l1.471-1.355.018-9.067c.016-8.468-.025-9.148-.844-10.228a5.217,5.217,0,0,0-2.5-1.563C845.3,523.422,824.318,523.261,822.244,523.616Z" transform="translate(-194.188 -96.5)"/>
        <path d="M250.25,555.358l-1.471,1.355-.024,12.543c-.028,13.9-.028,13.821,2.82,14.945,2.038,1.226,25.432,1.4,27.549.054,2.852-1.113,2.852-1.033,2.88-14.934l.024-12.542-1.465-1.361-1.465-1.361-13.689-.027L251.721,554Z" transform="translate(-194.188 -96.5)"/>
        <path d="M288.014,554.993a6.646,6.646,0,0,0-1.73,1.235c-.822.837-.866,1.516-1.019,13.339-.114,13.7-.114,13.9,2.474,15.144,1.381.642,2.806.685,14.81.629l13.343-.094,1.255-1.315,1.255-1.276.025-12.623.025-12.622-1.466-1.361-1.465-1.361-13.3.013C294.88,554.687,288.489,554.834,288.014,554.993Z" transform="translate(-194.188 -96.5)"/>
        <path d="M323.283,555.244a4.648,4.648,0,0,0-1.817,1.834c-.261.559-.444,6.111-.458,12.861-.022,11.065.02,11.944.838,13.144,1.335,2.04,2.586,2.2,16.923,2.07l12.825-.094,1.3-1.156,1.341-1.2.026-12.782c.022-11.544-.061-12.9-.751-13.663-1.465-1.68-2.112-1.761-15.714-1.788C325.487,554.449,324.623,554.488,323.283,555.244Z" transform="translate(-194.188 -96.5)"/>
        <path d="M360.53,555.529a5.188,5.188,0,0,0-1.861,2.073c-.781,2.076-.694,23.566.123,25.365,1.074,2.4,1.981,2.561,16.144,2.589,6.866.013,13-.134,13.559-.333a6.917,6.917,0,0,0,1.989-1.274c.866-.877.91-1.277.934-13.7.023-11.544-.061-12.9-.75-13.662-1.465-1.681-2.112-1.762-15.714-1.789C362.863,554.774,361.783,554.852,360.53,555.529Z" transform="translate(-194.188 -96.5)"/>
        <path d="M397.835,555.076c-2.161,1.194-2.38,2.552-2.232,15.494.1,12.7.189,13.143,2.994,14.027,1.813.6,25.649.65,27.463.054,2.636-.834,2.68-1.033,2.707-14.934.016-7.909-.147-12.942-.4-13.422-1.076-1.84-2.155-1.962-16.06-1.989C400.082,554.282,399.132,554.32,397.835,555.076Z" transform="translate(-194.188 -96.5)"/>
        <path d="M436.679,554.827c-2.377,1.194-2.377,1.114-2.4,14.935-.025,12.423.018,12.822.88,13.7a6.9,6.9,0,0,0,1.983,1.282c.561.2,6.693.373,13.558.386,14.164.028,15.071-.13,16.155-2.524.911-2.036,1-23.566.094-25.605-1.161-2.519-1.722-2.6-16.317-2.629C441.948,554.4,437.241,554.509,436.679,554.827Z" transform="translate(-194.188 -96.5)"/>
        <path d="M478.4,554.921c-2.377,1.194-2.377,1.114-2.4,14.935l-.025,12.782,1.336,1.2L478.6,585l12.825.145c14.335.188,15.588.031,16.93-2,.823-1.2.868-2.075.89-13.14.013-6.75-.148-12.3-.406-12.863a4.657,4.657,0,0,0-1.81-1.841c-1.338-.761-2.2-.8-14.594-.828C483.673,554.492,478.966,554.6,478.4,554.921Z" transform="translate(-194.188 -96.5)"/>
        <path d="M514.762,555.17l-1.471,1.355-.025,12.623-.025,12.622,1.25,1.281,1.249,1.321,13.343.146c12,.1,13.429.066,14.812-.57a5.209,5.209,0,0,0,2.033-1.714c.693-1.237.825-24.165.18-25.724a4.637,4.637,0,0,0-1.81-1.841c-1.337-.761-2.2-.8-14.723-.828l-13.342-.026Z" transform="translate(-194.188 -96.5)"/>
        <path d="M553.209,554.239l-1.471,1.355-.025,12.543c-.027,13.9-.027,13.821,2.821,14.945,2.071.8,25.475.849,27.549.054,2.852-1.113,2.852-1.033,2.879-14.934l.025-12.542-1.465-1.361-1.466-1.361-13.688-.027-13.688-.027Z" transform="translate(-194.188 -96.5)"/>
        <path d="M595.544,553.345a5.325,5.325,0,0,0-1.86,1.434c-.865,1.037-.909,1.4-.933,13.5-.028,13.821-.027,13.741,2.82,14.865,2.158.843,26.037.85,27.809.015,2.593-1.233,2.593-1.193,2.62-14.894l.025-12.543-1.466-1.361L623.094,553l-13.3.014C602.453,553,596.019,553.146,595.544,553.345Z" transform="translate(-194.188 -96.5)"/>
        <path d="M635.05,554.091a4.647,4.647,0,0,0-1.817,1.833c-.26.559-.444,6.111-.457,12.862-.022,11.064.019,11.943.837,13.143,1.335,2.04,2.587,2.2,16.966,2.071l12.911-.094,1.255-1.316L666,581.314l.024-12.383c.016-8.029-.147-12.663-.448-13.3-1.075-2.2-1.766-2.281-16.016-2.309C637.254,553.3,636.39,553.334,635.05,554.091Z" transform="translate(-194.188 -96.5)"/>
        <path d="M673.31,554.931c-2.421,1.194-2.508,1.833-2.534,14.815-.022,11.105.02,11.983.838,13.183,1.334,2.04,2.586,2.2,16.922,2.071l12.825-.094,1.3-1.156,1.341-1.2.025-12.782c.023-11.544-.061-12.9-.75-13.663-1.465-1.681-2.112-1.762-15.714-1.789C676.852,554.339,674.261,554.414,673.31,554.931Z" transform="translate(-194.188 -96.5)"/>
        <path d="M714.739,555.575a5.18,5.18,0,0,0-1.861,2.073c-.3.839-.486,5.232-.5,12.622-.02,9.827.063,11.584.709,12.784,1.2,2.4,1.981,2.52,16.058,2.548,6.866.014,13-.134,13.559-.333A6.9,6.9,0,0,0,744.693,584c.865-.877.909-1.276.934-13.7.023-11.544-.061-12.9-.75-13.663-1.465-1.68-2.113-1.762-15.715-1.788C717.072,554.821,715.992,554.9,714.739,555.575Z" transform="translate(-194.188 -96.5)"/>
        <path d="M751.264,552.115c-2.377,1.233-2.377,1.153-2.4,14.974-.025,12.423.018,12.823.88,13.7a6.9,6.9,0,0,0,1.983,1.282c.605.2,13.429.386,31.133.421,27.808.055,30.226.02,31.61-.656,2.593-1.193,2.593-1.393,2.534-15.134l-.105-12.5-1.207-1.081L814.525,552l-31.22-.142C761.067,551.735,751.87,551.836,751.264,552.115Z" transform="translate(-194.188 -96.5)"/>
        <path d="M823.371,553.379l-1.471,1.355-.025,12.543c-.027,13.9-.027,13.821,2.821,14.945,2.071.8,25.475.849,27.549.054,2.852-1.113,2.852-1.033,2.879-14.934l.025-12.542-1.465-1.361-1.466-1.361-13.688-.027-13.688-.027Z" transform="translate(-194.188 -96.5)"/>
        <path d="M258.529,589.188c-2.075,1.075-2.162,1.594-2.231,14.536-.026,13.182.059,13.741,2.389,14.864,1.682.882,38.774.956,40.46.12,2.377-1.154,2.509-2.072,2.406-15.454l-.106-12.223-1.423-1.161-1.379-1.162-19.561-.038C263.712,588.679,259.35,588.791,258.529,589.188Z" transform="translate(-194.188 -96.5)"/>
        <path d="M307.389,590.067l-1.341,1.036-.026,13.061-.026,13.1.992.841a6.606,6.606,0,0,0,2.5,1.283c1.942.523,23.921.567,25.952.052a5.9,5.9,0,0,0,2.507-1.473c.822-1,.867-1.517.891-13.78l.025-12.782-1.25-1.161-1.25-1.161-13.818-.027-13.818-.027Z" transform="translate(-194.188 -96.5)"/>
        <path d="M343.652,590.365l-1.255,1.156-.026,12.942-.025,12.982.991.841a6.613,6.613,0,0,0,2.5,1.283c1.9.523,23.921.567,25.909.052a7.68,7.68,0,0,0,2.593-1.433l1.039-1.037.025-12.782.025-12.782-1.422-1.162-1.38-1.161-13.861-.027-13.861-.028Z" transform="translate(-194.188 -96.5)"/>
        <path d="M380.234,589.434l-1.341,1.156-.026,12.862-.025,12.862,1.207,1.121c1.681,1.561,3.062,1.684,16.708,1.551,12.868-.094,13.473-.213,14.686-2.527.607-1.158.654-3.075.588-13.58l-.105-12.224-1.423-1.161-1.379-1.161-13.775-.027-13.774-.028Z" transform="translate(-194.188 -96.5)"/>
        <path d="M418.632,589.583l-1.341,1.236-.026,12.782-.025,12.783,1.207,1.12c1.681,1.562,3.063,1.684,16.924,1.552,12.825-.1,13.041-.134,14.427-2.328.606-.918.7-2.755.717-13.341l.024-12.263-1.465-1.361-1.466-1.361-13.817-.027-13.818-.027Z" transform="translate(-194.188 -96.5)"/>
        <path d="M456.929,589.134c-1.816,1.355-1.9,1.954-1.929,14.856l-.025,12.463,1.207,1.121c1.681,1.561,3.063,1.683,16.924,1.551,10.493-.1,12-.176,13-.813,2.032-1.234,2.12-1.913,2.145-14.7.026-13.062-.1-13.7-2.432-14.7-.691-.281-5.7-.451-14.508-.468C459.176,588.42,457.751,588.5,456.929,589.134Z" transform="translate(-194.188 -96.5)"/>
        <path d="M495.137,588.925a4.823,4.823,0,0,0-1.6,1.554c-.65,1-.739,2.635-.76,13.141-.025,12.782.06,13.461,2.087,14.7.992.641,2.5.724,13,.864,13.99.188,15.07.07,16.843-1.524l1.3-1.236.024-12.3c.018-8.708-.147-12.663-.491-13.383-1.033-2.119-1.766-2.2-16.189-2.189C501.356,588.538,495.7,588.686,495.137,588.925Z" transform="translate(-194.188 -96.5)"/>
        <path d="M533.1,589.9l-1.471,1.355-.024,12.223c-.026,12.982.059,13.661,2.086,14.9.992.641,2.5.724,13,.864,13.86.187,15.242.07,16.929-1.484l1.212-1.116.025-12.783.025-12.782-1.336-1.241-1.336-1.241-13.818-.027-13.818-.027Z" transform="translate(-194.188 -96.5)"/>
        <path d="M569.7,589.765l-1.427,1.156-.154,12.223c-.106,10.345-.024,12.423.535,13.542,1.247,2.439,1.42,2.48,14.46,2.625,13.861.187,15.243.07,16.93-1.484l1.211-1.116.026-12.863.025-12.862-1.336-1.161-1.336-1.161-13.775-.027-13.775-.027Z" transform="translate(-194.188 -96.5)"/>
        <path d="M605.192,590.834l-1.427,1.156-.026,12.782-.025,12.782,1.035,1.041a7.687,7.687,0,0,0,2.588,1.443c2.071.523,23.964.567,26.037.051a5.889,5.889,0,0,0,2.508-1.473c.822-1,.866-1.516.891-13.779l.025-12.782-1.25-1.161-1.25-1.161-13.861-.027-13.861-.028Z" transform="translate(-194.188 -96.5)"/>
        <path d="M642.731,591.012l-1.255,1.156-.025,12.942-.026,12.982.992.841a6.615,6.615,0,0,0,2.5,1.283c1.9.523,23.922.567,25.909.051a7.691,7.691,0,0,0,2.594-1.432l1.038-1.037.151-11.024c.2-12.9.071-14.181-1.61-15.742l-1.206-1.121-13.9-.027-13.9-.028Z" transform="translate(-194.188 -96.5)"/>
        <path d="M686.275,591.08l-1.254,1.156L685,605.019c-.024,12.263.018,12.782.837,13.782a5.883,5.883,0,0,0,2.5,1.483c2.072.524,23.965.567,26.038.052a7.694,7.694,0,0,0,2.594-1.433L718,617.866l.026-12.782.025-12.782-1.423-1.162-1.379-1.161-13.861-.027-13.861-.027Z" transform="translate(-194.188 -96.5)"/>
        <path d="M725.906,590.149l-1.341,1.156-.025,12.862-.026,12.862,1.207,1.121c1.681,1.561,3.063,1.684,16.924,1.551,13.041-.094,13.214-.133,14.471-2.568.563-1.117.654-3.194.588-13.54L757.6,591.37l-1.422-1.161-1.38-1.161-13.774-.028-13.775-.027Z" transform="translate(-194.188 -96.5)"/>
        <path d="M769.69,586.824c-2.335,1.433-2.378,1.673-2.4,14.216-.068,12.462.018,12.822,2.217,14.344,1.078.761,1.941.843,7.468.974l6.218.132-.031,15.778-.031,15.738,1.25,1.281,1.249,1.321,15.933.271c17.618.314,18.265.276,19.867-1.958l1-1.356.057-28.721c.062-31.516.147-30.557-2.484-32-1.122-.6-3.41-.686-25.173-.729C771.937,586.07,770.9,586.107,769.69,586.824Z" transform="translate(-194.188 -96.5)"/>
        <path d="M830.232,585.736c-2.118,1.074-2.163,1.593-2.232,14.895l-.025,12.423,1.293,1.24c1.768,1.6,2.847,1.724,16.838,1.591,12.954-.094,13.473-.213,14.6-2.527.737-1.437.782-24.485.051-25.924-1.032-2.119-1.766-2.2-16.188-2.229C834.378,585.225,831.01,585.338,830.232,585.736Z" transform="translate(-194.188 -96.5)"/>
        <path d="M267.343,622.136a4.9,4.9,0,0,0-2.248,1.513c-.866,1.117-.91,1.676-.934,13.42-.026,13.3.059,13.941,2.432,14.944,1.467.642,51.643.7,52.94.1,2.463-1.153,2.463-1.073,2.49-14.774.024-12.144-.018-12.663-.837-13.663a5.893,5.893,0,0,0-2.5-1.483C316.656,621.674,269.287,621.62,267.343,622.136Z" transform="translate(-194.188 -96.5)"/>
        <path d="M329.23,625.429a5.818,5.818,0,0,0-3.417,3.069c-.13.479-.185,6.271-.112,12.942l.106,12.144,1.422,1.161,1.38,1.161,13.775.027,13.774.027,1.341-1.235,1.341-1.236.025-12.662c.022-11.025-.061-12.743-.664-13.583-1.421-1.88-2.673-2.043-15.8-2.029C335.665,625.242,329.749,625.35,329.23,625.429Z" transform="translate(-194.188 -96.5)"/>
        <path d="M365.693,623.5c-3.8,1.111-3.889,1.511-3.916,15.052-.024,12.263.146,13.462,2.173,14.784.906.561,2.762.644,14.68.668l13.688.027,1.341-1.156L395,651.716l.026-12.943c.025-12.942.025-12.982-.923-13.822a9.874,9.874,0,0,0-2.2-1.243C390.7,623.266,367.032,623.06,365.693,623.5Z" transform="translate(-194.188 -96.5)"/>
        <path d="M403.632,623.847c-2.852,1.193-2.765.793-2.836,14.734-.058,7.789.1,12.942.363,13.382,1.161,2,1.679,2.081,16.145,2.109,13.041.026,13.6-.013,14.683-.81,1.9-1.354,2.121-2.831,1.973-15.335-.1-12.263-.147-12.543-2.218-13.825C430.405,623.3,405.534,623.052,403.632,623.847Z" transform="translate(-194.188 -96.5)"/>
        <path d="M444.011,623.135c-2.766,1.153-2.765,1.073-2.793,15.134l-.025,12.742,1.336,1.161,1.336,1.161,13.775.027,13.775.027,1.384-1.155,1.427-1.156.154-12.223c.155-13.181.027-14.1-2.129-15.423C470.828,622.549,446.042,622.3,444.011,623.135Z" transform="translate(-194.188 -96.5)"/>
        <path d="M483.174,623.655a5.35,5.35,0,0,0-2.248,1.394c-.865,1.036-.91,1.516-.934,13.7-.022,11.344.062,12.7.751,13.463,1.465,1.68,2.112,1.762,16.017,1.789l13.429.027,1.384-1.156L513,651.715l.154-12.3c.155-13.182.071-13.941-2-15.223-.991-.642-2.373-.724-13.859-.827C490.257,623.309,483.952,623.417,483.174,623.655Z" transform="translate(-194.188 -96.5)"/>
        <path d="M520.958,622.655a5.362,5.362,0,0,0-2.249,1.393c-.865,1.037-.909,1.556-.933,13.42-.026,13.382.059,14.061,2.345,15.024.777.321,5.052.489,14.508.508l13.429.027,1.471-1.356L551,650.316l.024-12.343c.023-11.464-.018-12.383-.836-13.583a3.942,3.942,0,0,0-2.458-1.682C545.7,622.184,522.9,622.139,520.958,622.655Z" transform="translate(-194.188 -96.5)"/>
        <path d="M558.868,622.878a4.121,4.121,0,0,0-2.249,1.674c-.823,1.2-.868,2.075-.89,13.379-.026,13.182.059,13.822,2.432,14.825,1.424.6,26.9.652,28.326.056,2.377-.994,2.465-1.593,2.491-15.055.024-11.823-.018-12.382-.837-13.383a5.9,5.9,0,0,0-2.5-1.483C583.611,622.368,560.812,622.363,558.868,622.878Z" transform="translate(-194.188 -96.5)"/>
        <path d="M596.139,622.682a4.127,4.127,0,0,0-2.249,1.673c-.822,1.2-.867,2.076-.89,13.58l-.024,12.343,1.465,1.361L595.907,653l13.472.027c13.947.027,14.6-.051,16.067-1.726.692-.758.781-2.116.8-13.46.024-12.143-.018-12.663-.836-13.663a5.907,5.907,0,0,0-2.5-1.483C620.883,622.172,598.083,622.167,596.139,622.682Z" transform="translate(-194.188 -96.5)"/>
        <path d="M633.615,622.523a4.708,4.708,0,0,0-3.2,2.471c-.347.758-.484,4.832-.415,13.38l.105,12.3,1.423,1.161L632.907,653l13.43.027c13.9.027,14.552-.052,16.023-1.726.692-.758.781-2.116.8-13.42.022-11.025-.061-12.7-.664-13.543-1.422-1.88-2.673-2.042-15.8-2.028C639.963,622.336,634.09,622.444,633.615,622.523Z" transform="translate(-194.188 -96.5)"/>
        <path d="M669.976,623.924a5.074,5.074,0,0,0-3.375,3.469c-.174.679-.228,6.51-.155,12.942l.107,11.744,1.422,1.161,1.38,1.161,13.774.027,13.775.027,1.341-1.155,1.341-1.156.025-12.942c.026-12.942.026-12.982-.922-13.823-1.854-1.561-2.976-1.683-15.585-1.668C676.411,623.737,670.5,623.845,669.976,623.924Z" transform="translate(-194.188 -96.5)"/>
        <path d="M708.564,624.993a5.66,5.66,0,0,0-2.162,1.353l-1.254,1.2L705,638.607c-.2,13.1-.071,14.18,1.7,15.741l1.294,1.121,13.731.028,13.732.027,1.34-1.156,1.341-1.156.026-12.942.025-12.942-1.336-1.2-1.293-1.161-13.04-.066C715.344,624.846,709.039,624.874,708.564,624.993Z" transform="translate(-194.188 -96.5)"/>
        <path d="M745.936,623.22a8.782,8.782,0,0,0-2.032,1.235c-1,.836-1,.876-1.021,13.819l-.025,12.942,1.336,1.161,1.336,1.161,13.775.027,13.774.027,1.384-1.156,1.428-1.155.153-12.223c.15-10.385.068-12.423-.491-13.5-1.291-2.519-1.334-2.519-15.583-2.628C751.9,622.873,746.627,622.982,745.936,623.22Z" transform="translate(-194.188 -96.5)"/>
        <path d="M839.927,620.372a5.367,5.367,0,0,0-2.249,1.394c-.865,1.037-.909,1.556-.933,13.42-.026,13.461.059,14.06,2.432,15.064.69.281,5.655.45,14.162.467s13.473-.133,14.164-.411c2.377-.994,2.465-1.633,2.491-14.935.023-11.7-.019-12.3-.837-13.423a5.215,5.215,0,0,0-2.5-1.563C864.67,619.9,841.871,619.857,839.927,620.372Z" transform="translate(-194.188 -96.5)"/>
        <path d="M276.645,655.689a5.3,5.3,0,0,0-1.86,1.434c-.866,1.037-.91,1.4-.933,13.5-.027,13.621-.027,13.581,2.561,14.824,1.035.522,3.885.607,16.969.633,10.1.02,16.193-.128,17.057-.406,2.636-.833,2.679-1.033,2.707-15.014.027-13.781.027-13.7-2.432-14.864C309.592,655.274,278.071,655.132,276.645,655.689Z" transform="translate(-194.188 -96.5)"/>
        <path d="M325.928,659.17A4.648,4.648,0,0,0,324.111,661c-.261.558-.444,6.11-.457,12.781-.026,12.982.059,13.541,2.561,14.745,1.122.561,3.281.605,14.724.548l13.429-.093,1.255-1.316,1.255-1.276.025-12.622.025-12.623-1.466-1.361L354,658.426l-13.3-.026C328.132,658.375,327.268,658.413,325.928,659.17Z" transform="translate(-194.188 -96.5)"/>
        <path d="M364.2,658.28a5.334,5.334,0,0,0-1.86,1.434c-.865,1.037-.909,1.4-.933,13.54-.023,11.783.018,12.542.837,13.463,1.551,1.88,2.371,1.962,16.578,1.87l13.3-.093,1.255-1.316,1.255-1.276.025-12.583.025-12.582-1.25-1.281-1.25-1.321-13.558-.106C371.2,657.974,364.678,658.081,364.2,658.28Z" transform="translate(-194.188 -96.5)"/>
        <path d="M403.793,657.842a5.314,5.314,0,0,0-1.859,1.435c-.866,1.036-.91,1.4-.934,13.579l-.025,12.543,1.25,1.28,1.25,1.321,13.558.147c12.911.1,13.559.066,14.942-.69a4.648,4.648,0,0,0,1.817-1.834c.26-.558.444-6.071.457-12.741s-.148-12.184-.406-12.744a4.657,4.657,0,0,0-1.81-1.841c-1.338-.761-2.158-.8-14.378-.787C410.53,657.5,404.269,657.643,403.793,657.842Z" transform="translate(-194.188 -96.5)"/>
        <path d="M443.6,658.5c-2.377,1.194-2.377,1.114-2.4,14.935-.025,12.423.018,12.822.879,13.7a6.92,6.92,0,0,0,1.984,1.282c.561.2,6.693.373,13.558.386,13.818.028,14.9-.13,16.111-2.325,1-1.755,1.085-24.244.1-26-1.291-2.319-1.9-2.4-16.274-2.428C448.865,658.069,444.158,658.18,443.6,658.5Z" transform="translate(-194.188 -96.5)"/>
        <path d="M480.029,658.215c-2.162,1.194-2.38,2.552-2.233,15.494.1,12.7.19,13.142,3,14.027,1.812.6,25.648.649,27.463.054,2.636-.834,2.679-1.033,2.707-15.014.022-11.424-.061-12.783-.751-13.543-1.465-1.681-2.112-1.762-15.714-1.789C482.276,657.42,481.326,657.458,480.029,658.215Z" transform="translate(-194.188 -96.5)"/>
        <path d="M517.31,658.931c-2.421,1.194-2.508,1.833-2.534,14.815-.022,11.105.02,11.983.838,13.183,1.334,2.04,2.586,2.2,16.922,2.071l12.825-.094,1.3-1.156,1.341-1.2.025-12.782c-.016-13.582.027-13.382-2.13-14.744-.948-.6-2.5-.684-14.248-.707C520.852,658.339,518.261,658.414,517.31,658.931Z" transform="translate(-194.188 -96.5)"/>
        <path d="M552.938,658.353a4.648,4.648,0,0,0-1.817,1.834c-.26.558-.444,6.07-.457,12.741s.149,12.184.407,12.743a4.646,4.646,0,0,0,1.81,1.842c1.38.761,2.028.8,14.939.748l13.559-.093,1.255-1.316,1.254-1.275.025-12.583.025-12.583-1.25-1.28-1.249-1.321-13.559-.147C554.969,657.558,554.322,657.6,552.938,658.353Z" transform="translate(-194.188 -96.5)"/>
        <path d="M590.793,658.842a5.314,5.314,0,0,0-1.859,1.435c-.866,1.036-.91,1.4-.934,13.579l-.025,12.543,1.25,1.28,1.25,1.321,13.3.146c14.206.148,15.027.07,16.585-1.8.822-.917.867-1.676.89-13.419.027-13.622.027-13.582-2.561-14.825-1.036-.481-3.5-.606-14.119-.587C597.487,658.5,591.269,658.643,590.793,658.842Z" transform="translate(-194.188 -96.5)"/>
        <path d="M627.188,659.12c-2.162,1.354-2.118,1.155-2.188,14.736l-.025,12.782,1.336,1.2L627.6,689l12.825.145c14.335.188,15.588.031,16.93-2,.823-1.2.868-2.075.89-13.18.019-9.866-.106-12.1-.622-13.063-1.291-2.319-1.895-2.4-16.274-2.429C629.694,658.446,628.139,658.523,627.188,659.12Z" transform="translate(-194.188 -96.5)"/>
        <path d="M665,658.241c-2.377,1.193-2.377,1.114-2.4,14.815-.027,13.98.015,14.18,2.648,15.024.82.281,6.044.452,13.817.467,14.12.028,15.027-.13,16.111-2.525.911-2.035,1-23.565.094-25.6-1.161-2.519-1.722-2.6-16.317-2.629C670.266,657.812,665.559,657.922,665,658.241Z" transform="translate(-194.188 -96.5)"/>
        <path d="M704.355,658.252c-2.378,1.194-2.509,1.833-2.534,14.735-.02,9.946.063,12.024.665,13.023,1.205,2.2,2.284,2.362,16.1,2.389,6.866.013,13-.134,13.559-.333a6.9,6.9,0,0,0,1.989-1.274c.865-.877.909-1.277.934-13.7.023-11.544-.061-12.9-.75-13.663-1.465-1.681-2.113-1.762-15.715-1.789C707.9,657.66,705.306,657.735,704.355,658.252Z" transform="translate(-194.188 -96.5)"/>
        <path d="M748.022,656.7a4.648,4.648,0,0,0-1.817,1.834c-.26.559-.444,6.071-.457,12.741s.149,12.184.407,12.744a4.65,4.65,0,0,0,1.81,1.841c1.38.761,2.2.8,26.554.851,14.6.029,25.563-.109,26.168-.308a6.9,6.9,0,0,0,1.989-1.274c.866-.877.91-1.277.934-13.7.028-13.9.027-13.821-2.432-14.984-.647-.321-8.462-.457-26.339-.492C750.226,655.905,749.406,655.944,748.022,656.7Z" transform="translate(-194.188 -96.5)"/>
        <path d="M810.538,654.928a4.648,4.648,0,0,0-1.817,1.834c-.26.558-.444,6.07-.457,12.741s.149,12.184.407,12.743a4.638,4.638,0,0,0,1.81,1.841c1.38.762,2.028.8,14.939.749l13.559-.093,1.255-1.316,1.254-1.276.025-12.582.025-12.583-1.25-1.28-1.249-1.321-13.559-.147C812.569,654.133,811.922,654.172,810.538,654.928Z" transform="translate(-194.188 -96.5)"/>
        <path d="M852.544,656.144a5.329,5.329,0,0,0-1.86,1.435c-.865,1.037-.909,1.4-.933,13.5-.027,13.622-.027,13.582,2.561,14.825,1.855.882,26.209.931,28.068.055,2.593-1.233,2.593-1.193,2.62-14.854l.025-12.5-1.25-1.28L880.525,656l-13.558-.107C859.54,655.839,853.019,655.946,852.544,656.144Z" transform="translate(-194.188 -96.5)"/>
        <path d="M281.878,693.65a4.837,4.837,0,0,0-1.6,1.555c-.65,1-.739,2.635-.76,13.38-.024,11.7.018,12.3.837,13.423a5.209,5.209,0,0,0,2.5,1.563c2.158.564,48.966.656,51.126.1a5.9,5.9,0,0,0,2.507-1.473c.823-1,.867-1.516.891-13.659.027-13.7.027-13.621-2.432-14.785C333.7,693.154,283.218,693.094,281.878,693.65Z" transform="translate(-194.188 -96.5)"/>
        <path d="M346.977,694.487l-1.427,1.156-.154,12.223c-.106,10.345-.024,12.423.535,13.542,1.247,2.439,1.334,2.479,15.108,2.627,13.515.186,15.113-.011,16.585-1.765.866-1,.91-1.516.934-13.779l.025-12.783-1.336-1.161-1.336-1.161-13.775-.027-13.775-.027Z" transform="translate(-194.188 -96.5)"/>
        <path d="M388.457,694.448l-1.341,1.156-.026,12.942c-.025,12.942-.026,12.982.966,13.822,1.767,1.562,2.976,1.684,15.455,1.709,12.868.025,13.948-.093,15.722-1.966.822-.838.866-1.437.891-13.66l.025-12.782-1.423-1.161-1.379-1.162-13.775-.027-13.775-.027Z" transform="translate(-194.188 -96.5)"/>
        <path d="M426.05,694.6l-1.341,1.235-.026,12.783-.025,12.782,1.207,1.121c1.681,1.561,3.062,1.683,16.924,1.551,12.825-.094,13.041-.134,14.427-2.328.606-.918.7-2.755.717-13.34l.024-12.263-1.465-1.361-1.466-1.361-13.817-.028-13.818-.027Z" transform="translate(-194.188 -96.5)"/>
        <path d="M476.918,694.222c-2.118,1.075-2.162,1.594-2.232,14.855-.023,11.944.019,12.463.837,13.463a5.887,5.887,0,0,0,2.5,1.483c2.287.564,167.108.89,168.793.294a9.909,9.909,0,0,0,2.205-1.234c.951-.837.951-.877.977-13.819l.026-12.942-1.25-1.161L647.526,694l-84.807-.168C493.2,693.735,477.782,693.785,476.918,694.222Z" transform="translate(-194.188 -96.5)"/>
        <path d="M658.513,692.154l-1.341,1.155-.026,12.863-.025,12.862,1.207,1.121c1.681,1.561,3.062,1.683,16.924,1.551,13.04-.094,13.213-.134,14.47-2.568.564-1.117.654-3.194.588-13.54l-.1-12.223-1.423-1.162-1.379-1.161-13.775-.027L659.854,691Z" transform="translate(-194.188 -96.5)"/>
        <path d="M697.949,691.436c-2.378,1.194-2.377,1.114-2.4,14.815l-.026,12.742,1.207,1.121c1.681,1.561,3.063,1.684,16.924,1.552,10.493-.1,12-.176,13-.814,2.032-1.234,2.12-1.913,2.145-14.895l.024-12.223-1.465-1.361-1.465-1.361-13.516-.027C703.347,691.008,698.511,691.118,697.949,691.436Z" transform="translate(-194.188 -96.5)"/>
        <path d="M735.067,691.372a4.823,4.823,0,0,0-1.6,1.554c-.65,1-.739,2.635-.76,13.261-.023,11.264.019,12.183.837,13.383A3.94,3.94,0,0,0,736,721.252c2.244.6,31.175.661,32.817.065a9.83,9.83,0,0,0,2.205-1.234c.951-.837.951-.877.977-13.819l.026-12.942-1.337-1.161L769.353,691l-16.711.007C742.365,690.987,735.628,691.133,735.067,691.372Z" transform="translate(-194.188 -96.5)"/>
        <path d="M776.331,692.264l-1.341,1.155-.026,12.982-.025,12.982,1.293,1.042a7.2,7.2,0,0,0,2.718,1.243c.777.162,6.909.214,13.688.147,13.516-.093,13.645-.133,14.946-2.607.563-1.077.654-3.114.545-13.5l-.106-12.223-1.422-1.162-1.38-1.161-13.775-.027-13.774-.027Z" transform="translate(-194.188 -96.5)"/>
        <path d="M816.791,691.656c-2.377,1.193-2.377,1.113-2.4,14.814l-.025,12.743,1.207,1.121c1.681,1.561,3.062,1.683,16.923,1.551,10.494-.1,12-.176,13-.813,2.032-1.234,2.12-1.913,2.146-14.895l.024-12.223-1.466-1.361-1.465-1.362-13.516-.026C822.19,691.227,817.353,691.337,816.791,691.656Z" transform="translate(-194.188 -96.5)"/>
        <path d="M861.146,691.794a4.847,4.847,0,0,0-1.6,1.555c-.649,1-.739,2.635-.76,13.38-.023,11.7.019,12.3.837,13.423a5.209,5.209,0,0,0,2.5,1.563c2.115.524,24.4.568,26.513.052a5.206,5.206,0,0,0,2.508-1.552c.822-1.117.867-1.716.89-13.42.026-13.3-.059-13.941-2.432-14.944C888.265,691.289,862.443,691.238,861.146,691.794Z" transform="translate(-194.188 -96.5)"/>
      </g>
      <rect class="cls-7" x="47.812" y="400.5" width="27" height="17"/>
      <rect class="cls-7" x="579.812" y="399.5" width="27" height="17"/>
    </g>
  </g>
  <g id="Taskleiste">
    <g>
      <polygon id="TaskleisteBackground" class="cls-8" points="18.698 374.683 72.674 374.683 612.408 374.683 661.859 374.683 662.045 393.379 18.698 393.379 18.698 374.683"/>
      <path class="cls-6" d="M856.738,490.379H212.386v-19.7H856.542Zm-643.352-1H855.729l-.177-17.7H213.386Z" transform="translate(-194.188 -96.5)"/>
    </g>
    <g id="WindowsIcon">
      <polygon class="cls-3" points="21.6 380.44 21.6 383.293 25.52 383.293 25.52 379.669 21.6 380.44"/>
      <polygon class="cls-3" points="26.52 383.293 30.583 383.365 30.583 379.025 26.52 379.669 26.52 383.293"/>
      <polygon class="cls-3" points="21.6 386.731 21.6 384.097 25.52 384.097 25.52 387.443 21.6 386.731"/>
      <polygon class="cls-3" points="26.52 384.097 30.583 384.031 30.583 388.037 26.52 387.443 26.52 384.097"/>
    </g>
    <g id="WordIconaufLeiste">
      <polygon id="WordIconFeld" class="cls-9" points="33.854 375.217 47.442 375.217 47.442 392.311 33.854 392.311 33.854 375.217 47.442 375.217 33.854 375.217"/>
      <rect class="cls-10" x="38.05" y="379.223" width="5.564" height="7.211"/>
      <polygon class="cls-11" points="38.05 379.223 43.614 376.309 43.614 379.223 38.05 379.223"/>
      <rect class="cls-8" x="41.195" y="377.763" width="2.246" height="0.25"/>
      <rect class="cls-8" x="41.195" y="378.297" width="2.246" height="0.25"/>
      <rect class="cls-8" x="41.195" y="378.832" width="2.246" height="0.25"/>
      <path class="cls-12" d="M234.168,480.563l-.662-2.879h.356l.31,1.457c.078.359.148.717.194,1h.008c.043-.287.124-.629.213-1l.349-1.453h.353l.317,1.461c.074.341.144.683.183.987h.007c.055-.317.128-.637.21-1l.345-1.453h.345l-.74,2.879H235.6l-.33-1.5c-.081-.367-.135-.649-.17-.939H235.1c-.047.286-.1.568-.2.939l-.373,1.5Z" transform="translate(-194.188 -96.5)"/>
    </g>
    <g id="YoutubeIconLeiste">
      <path class="cls-13" d="M250.1,483.135H247.28c-3.28-.135-3.672-1.653-3.672-3.672h0c0-2.02.392-3.463,3.672-3.673H250.1c2.9.21,3.672,1.653,3.672,3.673h0C253.768,481.482,253,483,250.1,483.135Z" transform="translate(-194.188 -96.5)"/>
      <path class="cls-14" d="M247.63,478.157v2.523c0,.089.061.15.119.12l2.462-1.3a.164.164,0,0,0,0-.281l-2.473-1.172C247.683,478.023,247.63,478.078,247.63,478.157Z" transform="translate(-194.188 -96.5)"/>
      <path id="Kontur_Youtube" data-name="Kontur Youtube" class="cls-1" d="M255.786,488.936H241.947V471.592h13.839Zm-13.589-.25h13.339V471.842H242.2Z" transform="translate(-194.188 -96.5)"/>
    </g>
    <g id="WLAN">
      <path class="cls-3" d="M791.007,484.27h-1a4.039,4.039,0,0,1,3.961-4.1h.7v1h-.7A3.039,3.039,0,0,0,791.007,484.27Z" transform="translate(-194.188 -96.5)"/>
      <path class="cls-3" d="M787.671,484.27h-1c0-4.252,3.021-7.711,6.734-7.711h1.265v1h-1.265C790.243,477.559,787.671,480.57,787.671,484.27Z" transform="translate(-194.188 -96.5)"/>
      <path class="cls-3" d="M789.4,484.27h-1c0-3.258,2.376-5.908,5.3-5.908h.973v1H793.7C791.329,479.362,789.4,481.563,789.4,484.27Z" transform="translate(-194.188 -96.5)"/>
      <ellipse class="cls-3" cx="599.276" cy="386.568" rx="1.049" ry="1.202"/>
    </g>
    <polygon class="cls-3" points="578.148 388.05 577.429 387.356 582.036 382.576 586.643 387.356 585.923 388.05 582.036 384.017 578.148 388.05"/>
    <g id="Zeitangabe">
      <path class="cls-3" d="M833.731,476.007c0,1.652-.555,2.564-1.53,2.564-.861,0-1.444-.889-1.457-2.5,0-1.63.637-2.527,1.531-2.527C833.2,473.547,833.731,474.459,833.731,476.007Zm-2.391.075c0,1.264.352,1.981.894,1.981.61,0,.9-.785.9-2.026,0-1.2-.278-1.981-.894-1.981C831.72,474.056,831.34,474.759,831.34,476.082Z" transform="translate(-194.188 -96.5)"/>
      <path class="cls-3" d="M836.793,474.093a1.885,1.885,0,0,0-1.979,1.757h.021a1.272,1.272,0,0,1,1.063-.561,1.389,1.389,0,0,1,1.329,1.57,1.566,1.566,0,0,1-1.464,1.712c-.942,0-1.558-.807-1.558-2.071a3.237,3.237,0,0,1,.745-2.19,2.306,2.306,0,0,1,1.409-.718,2.6,2.6,0,0,1,.434-.037Zm-.169,2.8c0-.695-.359-1.114-.908-1.114a.978.978,0,0,0-.854.6.6.6,0,0,0-.068.292c.014.8.346,1.39.969,1.39C836.278,478.063,836.624,477.592,836.624,476.9Z" transform="translate(-194.188 -96.5)"/>
      <path class="cls-3" d="M837.8,475.469a.424.424,0,0,1,.406-.471c.237,0,.393.194.4.471a.407.407,0,1,1-.806,0Zm0,2.639a.424.424,0,0,1,.406-.471c.237,0,.393.194.4.471a.407.407,0,1,1-.806,0Z" transform="translate(-194.188 -96.5)"/>
      <path class="cls-3" d="M842.083,476.007c0,1.652-.556,2.564-1.531,2.564-.861,0-1.444-.889-1.457-2.5,0-1.63.637-2.527,1.531-2.527C841.554,473.547,842.083,474.459,842.083,476.007Zm-2.392.075c0,1.264.352,1.981.894,1.981.61,0,.9-.785.9-2.026,0-1.2-.277-1.981-.894-1.981C840.07,474.056,839.691,474.759,839.691,476.082Z" transform="translate(-194.188 -96.5)"/>
      <path class="cls-3" d="M845.557,476.007c0,1.652-.555,2.564-1.531,2.564-.86,0-1.443-.889-1.457-2.5,0-1.63.638-2.527,1.532-2.527C845.029,473.547,845.557,474.459,845.557,476.007Zm-2.391.075c0,1.264.352,1.981.894,1.981.61,0,.9-.785.9-2.026,0-1.2-.277-1.981-.894-1.981C843.545,474.056,843.166,474.759,843.166,476.082Z" transform="translate(-194.188 -96.5)"/>
      <path class="cls-3" d="M823.141,487.463v-.4l.468-.5c1.124-1.182,1.633-1.81,1.639-2.543a.831.831,0,0,0-.873-.95,1.433,1.433,0,0,0-.936.412l-.189-.463a1.823,1.823,0,0,1,1.246-.494,1.306,1.306,0,0,1,1.349,1.413c0,.9-.59,1.623-1.518,2.609l-.352.359v.015h1.978v.546Z" transform="translate(-194.188 -96.5)"/>
      <path class="cls-3" d="M829.245,483.156h-1.681l-.169,1.249a2.131,2.131,0,0,1,.359-.03,1.722,1.722,0,0,1,.949.262,1.418,1.418,0,0,1,.63,1.249,1.6,1.6,0,0,1-1.64,1.659,2,2,0,0,1-1.1-.3l.149-.5a1.829,1.829,0,0,0,.942.27,1.016,1.016,0,0,0,1.042-1.055c-.006-.628-.385-1.076-1.266-1.076a4.071,4.071,0,0,0-.61.052l.285-2.333h2.107Z" transform="translate(-194.188 -96.5)"/>
      <path class="cls-3" d="M830.138,487.074a.424.424,0,0,1,.406-.47.476.476,0,0,1-.006.941A.424.424,0,0,1,830.138,487.074Z" transform="translate(-194.188 -96.5)"/>
      <path class="cls-3" d="M834.419,484.98c0,1.653-.555,2.565-1.531,2.565-.861,0-1.443-.89-1.456-2.5,0-1.63.636-2.527,1.53-2.527C833.891,482.521,834.419,483.433,834.419,484.98Zm-2.392.076c0,1.263.353,1.981.895,1.981.61,0,.9-.785.9-2.026,0-1.2-.278-1.982-.894-1.982C832.407,483.029,832.027,483.732,832.027,485.056Z" transform="translate(-194.188 -96.5)"/>
      <path class="cls-3" d="M837.48,483.066a1.928,1.928,0,0,0-.447.031,1.9,1.9,0,0,0-1.531,1.726h.02a1.276,1.276,0,0,1,1.064-.56,1.388,1.388,0,0,1,1.328,1.57,1.566,1.566,0,0,1-1.463,1.712c-.942,0-1.558-.808-1.558-2.071a3.236,3.236,0,0,1,.745-2.191,2.311,2.311,0,0,1,1.409-.718,2.689,2.689,0,0,1,.433-.037Zm-.169,2.8c0-.695-.359-1.114-.908-1.114a.978.978,0,0,0-.853.6.606.606,0,0,0-.068.292c.014.8.345,1.391.969,1.391C836.966,487.037,837.311,486.565,837.311,485.87Z" transform="translate(-194.188 -96.5)"/>
      <path class="cls-3" d="M838.489,487.074a.424.424,0,0,1,.407-.47.476.476,0,0,1-.007.941A.423.423,0,0,1,838.489,487.074Z" transform="translate(-194.188 -96.5)"/>
      <path class="cls-3" d="M839.843,487.463v-.4l.468-.5c1.125-1.182,1.633-1.81,1.639-2.543a.831.831,0,0,0-.873-.95,1.428,1.428,0,0,0-.935.412l-.19-.463a1.823,1.823,0,0,1,1.246-.494,1.306,1.306,0,0,1,1.349,1.413c0,.9-.59,1.623-1.518,2.609l-.352.359v.015h1.978v.546Z" transform="translate(-194.188 -96.5)"/>
      <path class="cls-3" d="M846.245,484.98c0,1.653-.556,2.565-1.531,2.565-.86,0-1.443-.89-1.457-2.5,0-1.63.637-2.527,1.531-2.527C845.716,482.521,846.245,483.433,846.245,484.98Zm-2.391.076c0,1.263.352,1.981.894,1.981.609,0,.9-.785.9-2.026,0-1.2-.277-1.982-.894-1.982C844.232,483.029,843.854,483.732,843.854,485.056Z" transform="translate(-194.188 -96.5)"/>
      <path class="cls-3" d="M846.792,487.463v-.4l.468-.5c1.125-1.182,1.633-1.81,1.639-2.543,0-.494-.216-.95-.873-.95a1.428,1.428,0,0,0-.935.412l-.19-.463a1.825,1.825,0,0,1,1.246-.494,1.306,1.306,0,0,1,1.349,1.413c0,.9-.59,1.623-1.517,2.609l-.353.359v.015H849.6v.546Z" transform="translate(-194.188 -96.5)"/>
      <path class="cls-3" d="M851.562,483.216h-.014l-.766.456-.115-.5.962-.568h.508v4.86h-.575Z" transform="translate(-194.188 -96.5)"/>
    </g>
    <g id="Lautstaerke">
      <path class="cls-3" d="M808.29,486.69l-7.347-3.759v-3.415l7.347-3.222Zm-6.347-4.37,5.347,2.735v-7.231l-5.347,2.345Z" transform="translate(-194.188 -96.5)"/>
      <path class="cls-3" d="M809.977,483.12l-.912-.409.248-.553a3.1,3.1,0,0,0-.217-2.98l.85-.527a4.125,4.125,0,0,1,.279,3.916Z" transform="translate(-194.188 -96.5)"/>
      <path class="cls-3" d="M810.483,484.736l-.779-.627.45-.559a4.016,4.016,0,0,0-.41-5.6l.7-.716a5.035,5.035,0,0,1,.491,6.942Z" transform="translate(-194.188 -96.5)"/>
    </g>
  </g>
  <g id="word-Fenster">
    <g>
      <polygon class="cls-15" points="18.698 9.314 66.391 9.314 661.859 9.314 661.859 374.683 18.698 374.683 18.698 9.314"/>
      <path d="M856.547,471.683H212.386V105.314H856.547Zm-643.161-1H855.547V106.314H213.386Z" transform="translate(-194.188 -96.5)"/>
    </g>
    <g id="Dokument">
      <g>
        <rect id="Papier" class="cls-3" x="72.674" y="26.941" width="539.733" height="347.742"/>
        <path d="M807.1,471.683H266.362V122.941H807.1Zm-539.734-1H806.1V123.941H267.362Z" transform="translate(-194.188 -96.5)"/>
      </g>
      <g id="Schreibtext">
        <polyline class="cls-16" points="102.575 104.283 114.893 99 125.795 104.283 136.466 99 147.392 104.283 161.885 99 169.023 104 183.11 99 192.247 104.283 209.69 99 222.735 106.37 237.102 99 252.054 106.37 264.513 99 282.787 106.37 296.078 99 305.508 106.37 327.673 99 334.606 106.37 346.732 99 361.383 106.37 375.012 99 389.219 106.37 403.299 99 418.183 106.37 436.351 102.685 451.564 106.37 463.154 99 479.619 106.37 503.233 99 517.467 106.37 535.287 99 552.748 106.37 574.812 99"/>
        <polyline class="cls-16" points="103.575 131.283 113.702 126 122.665 131.283 131.437 126 140.42 131.283 152.335 126 158.204 131 169.784 126 177.296 131.283 191.637 126 202.362 133.37 214.173 126 226.465 133.37 236.708 126 251.732 133.37 262.658 126 270.411 133.37 288.634 126 294.333 133.37 304.302 126 316.347 133.37 327.552 126 339.231 133.37 350.807 126 363.044 133.37 377.98 129.685 390.487 133.37 400.016 126 413.552 133.37 432.965 126 444.667 133.37 459.317 126 473.673 133.37 491.812 126"/>
        <polyline class="cls-16" points="105.575 144.283 117.893 139 128.795 144.283 139.466 139 150.392 144.283 164.885 139 172.023 144 186.11 139 195.247 144.283 212.69 139 225.735 146.37 240.102 139 255.054 146.37 267.513 139 285.787 146.37 299.078 139 308.508 146.37 330.673 139 337.606 146.37 349.732 139 364.383 146.37 378.012 139 392.219 146.37 406.299 139 421.183 146.37 439.351 142.685 454.564 146.37 466.154 139 482.619 146.37 506.233 139 520.467 146.37 538.287 139 555.748 146.37 577.812 139"/>
        <polyline class="cls-16" points="104.575 176.283 115.119 171 124.451 176.283 133.586 171 142.938 176.283 155.344 171 161.455 176 173.513 171 181.334 176.283 196.266 171 207.433 178.37 219.731 171 232.529 178.37 243.195 171 258.838 178.37 270.214 171 278.286 178.37 297.26 171 303.195 178.37 313.574 171 326.116 178.37 337.782 171 349.943 178.37 361.996 171 374.737 178.37 390.289 174.685 403.311 178.37 413.233 171 427.326 178.37 447.54 171 459.725 178.37 474.978 171 489.925 178.37 508.812 171"/>
        <polyline class="cls-16" points="104.575 188.283 116.893 183 127.795 188.283 138.466 183 149.392 188.283 163.885 183 171.023 188 185.11 183 194.247 188.283 211.69 183 224.735 190.37 239.102 183 254.054 190.37 266.513 183 284.787 190.37 298.078 183 307.508 190.37 329.673 183 336.606 190.37 348.732 183 363.383 190.37 377.012 183 391.219 190.37 405.299 183 420.183 190.37 438.351 186.685 453.564 190.37 465.154 183 481.619 190.37 505.233 183 519.467 190.37 537.287 183 554.748 190.37 576.812 183"/>
      </g>
      <g>
        <path d="M426.228,159.6a39.847,39.847,0,0,0,1.37-6l2.09-.256a31.563,31.563,0,0,1-2.16,6.075Zm3.437,0a39.847,39.847,0,0,0,1.37-6l2.113-.256a31.362,31.362,0,0,1-2.183,6.075Z" transform="translate(-194.188 -96.5)"/>
        <path d="M435.8,139.3h2.021v15.406H444.5v1.872H435.8Z" transform="translate(-194.188 -96.5)"/>
        <path d="M448.962,140.685a1.271,1.271,0,0,1-1.3,1.384,1.286,1.286,0,0,1-1.231-1.384,1.315,1.315,0,0,1,1.277-1.41A1.284,1.284,0,0,1,448.962,140.685Zm-2.275,15.894V144.171h2.043v12.408Z" transform="translate(-194.188 -96.5)"/>
        <path d="M454.141,149.862h.046c.279-.435.674-.974,1-1.41l3.3-4.281h2.462l-4.343,5.1,4.946,7.307h-2.485l-3.878-5.948-1.045,1.282v4.666h-2.02v-18.2h2.02Z" transform="translate(-194.188 -96.5)"/>
        <path d="M464.15,150.785c.047,3.051,1.812,4.307,3.855,4.307a6.791,6.791,0,0,0,3.112-.641l.349,1.615a8.37,8.37,0,0,1-3.739.769c-3.461,0-5.528-2.512-5.528-6.255s2-6.69,5.272-6.69c3.67,0,4.645,3.563,4.645,5.844a9.407,9.407,0,0,1-.07,1.051Zm5.992-1.615c.023-1.436-.534-3.666-2.833-3.666-2.067,0-2.973,2.1-3.136,3.666Z" transform="translate(-194.188 -96.5)"/>
        <path d="M485.793,156.579l-.162-1.564h-.07a4.071,4.071,0,0,1-3.437,1.845,3.369,3.369,0,0,1-3.437-3.563c0-3,2.415-4.64,6.758-4.614v-.256c0-1.026-.256-2.871-2.554-2.871a5.22,5.22,0,0,0-2.927.923l-.464-1.487a6.483,6.483,0,0,1,3.692-1.1c3.437,0,4.273,2.589,4.273,5.075v4.64a19.3,19.3,0,0,0,.186,2.974Zm-.3-6.332c-2.229-.052-4.761.384-4.761,2.794a1.906,1.906,0,0,0,1.928,2.153,2.833,2.833,0,0,0,2.717-2.076,2.564,2.564,0,0,0,.116-.718Z" transform="translate(-194.188 -96.5)"/>
        <path d="M500.678,139.531a17.812,17.812,0,0,1,3.693-.358,6.032,6.032,0,0,1,4.3,1.256,3.77,3.77,0,0,1,1.3,3.05,4.067,4.067,0,0,1-2.648,3.794v.051a4.348,4.348,0,0,1,3.228,4.333,4.9,4.9,0,0,1-1.323,3.46c-1.092,1.1-2.857,1.615-5.412,1.615a21.375,21.375,0,0,1-3.135-.205Zm2.021,7.075h1.834c2.137,0,3.391-1.23,3.391-2.9,0-2.025-1.394-2.82-3.437-2.82a7.862,7.862,0,0,0-1.788.154Zm0,8.281a9.785,9.785,0,0,0,1.695.1c2.09,0,4.018-.845,4.018-3.358,0-2.359-1.835-3.332-4.041-3.332H502.7Z" transform="translate(-194.188 -96.5)"/>
        <path d="M523.459,150.272c0,4.589-2.879,6.588-5.6,6.588-3.043,0-5.388-2.461-5.388-6.382,0-4.153,2.462-6.588,5.573-6.588C521.277,143.89,523.459,146.479,523.459,150.272Zm-8.917.128c0,2.718,1.416,4.769,3.414,4.769,1.95,0,3.414-2.025,3.414-4.819,0-2.1-.953-4.769-3.368-4.769S514.542,148.042,514.542,150.4Z" transform="translate(-194.188 -96.5)"/>
        <path d="M525.758,154.271a5.005,5.005,0,0,0,2.694.9c1.486,0,2.183-.82,2.183-1.846,0-1.077-.581-1.666-2.09-2.281-2.021-.795-2.973-2.025-2.973-3.513a3.608,3.608,0,0,1,3.879-3.639,5.207,5.207,0,0,1,2.763.768L531.7,146.3a4.079,4.079,0,0,0-2.3-.718,1.7,1.7,0,0,0-1.881,1.692c0,1.026.673,1.487,2.137,2.1,1.95.82,2.949,1.9,2.949,3.743,0,2.179-1.533,3.717-4.2,3.717a5.936,5.936,0,0,1-3.158-.846Z" transform="translate(-194.188 -96.5)"/>
        <path d="M543.245,156.117a6.932,6.932,0,0,1-3.228.718c-3.391,0-5.6-2.538-5.6-6.332,0-3.819,2.369-6.588,6.038-6.588a6.292,6.292,0,0,1,2.834.641l-.465,1.743a4.381,4.381,0,0,0-2.369-.59c-2.578,0-3.971,2.1-3.971,4.691,0,2.871,1.672,4.641,3.9,4.641a5.362,5.362,0,0,0,2.508-.616Z" transform="translate(-194.188 -96.5)"/>
        <path d="M545.637,138.378h2.044v7.742h.046a4.008,4.008,0,0,1,1.463-1.59,3.918,3.918,0,0,1,2.09-.64c1.51,0,3.925,1.025,3.925,5.306v7.383h-2.044v-7.127c0-2-.673-3.691-2.6-3.691a3.218,3.218,0,0,0-2.879,3.332v7.486h-2.044Z" transform="translate(-194.188 -96.5)"/>
        <path d="M557.62,145.273a31.674,31.674,0,0,1,2.183-6.1l1.3-.154a38.864,38.864,0,0,0-1.371,6Zm3.46,0a31.878,31.878,0,0,1,2.16-6.1l1.3-.154a38.98,38.98,0,0,0-1.371,6Z" transform="translate(-194.188 -96.5)"/>
        <path d="M574.27,151.144l-1.625,5.435h-2.091l5.319-17.278h2.438l5.341,17.278h-2.159l-1.673-5.435ZM579.4,149.4l-1.532-4.973c-.349-1.128-.581-2.154-.813-3.154h-.047c-.232,1.026-.487,2.077-.789,3.128l-1.533,5Z" transform="translate(-194.188 -96.5)"/>
        <path d="M585.812,147.529c0-1.281-.023-2.332-.093-3.358h1.812l.115,2.051h.047a4.092,4.092,0,0,1,3.716-2.332c1.556,0,3.971,1.025,3.971,5.28v7.409h-2.044v-7.152c0-2-.673-3.666-2.6-3.666a2.967,2.967,0,0,0-2.74,2.307,3.55,3.55,0,0,0-.139,1.051v7.46h-2.044Z" transform="translate(-194.188 -96.5)"/>
        <path d="M604.925,156.579l-.163-1.564h-.07a4.071,4.071,0,0,1-3.437,1.845,3.369,3.369,0,0,1-3.437-3.563c0-3,2.415-4.64,6.758-4.614v-.256c0-1.026-.255-2.871-2.555-2.871a5.216,5.216,0,0,0-2.925.923l-.465-1.487a6.486,6.486,0,0,1,3.693-1.1c3.437,0,4.273,2.589,4.273,5.075v4.64a19.179,19.179,0,0,0,.186,2.974Zm-.3-6.332c-2.229-.052-4.761.384-4.761,2.794a1.906,1.906,0,0,0,1.928,2.153,2.834,2.834,0,0,0,2.717-2.076,2.6,2.6,0,0,0,.116-.718Z" transform="translate(-194.188 -96.5)"/>
        <path d="M609.894,138.378h2.044v18.2h-2.044Z" transform="translate(-194.188 -96.5)"/>
        <path d="M616.118,144.171l2.462,7.332c.255.82.534,1.794.719,2.538h.047c.209-.744.441-1.692.72-2.589l2.229-7.281h2.16l-3.065,8.845c-1.464,4.255-2.462,6.434-3.856,7.767a5.357,5.357,0,0,1-2.508,1.461l-.511-1.9a5.291,5.291,0,0,0,1.789-1.1,6.8,6.8,0,0,0,1.718-2.513,1.735,1.735,0,0,0,.163-.538,2.15,2.15,0,0,0-.14-.59l-4.157-11.433Z" transform="translate(-194.188 -96.5)"/>
        <path d="M625.9,154.271a5.005,5.005,0,0,0,2.694.9c1.486,0,2.182-.82,2.182-1.846,0-1.077-.58-1.666-2.089-2.281-2.021-.795-2.973-2.025-2.973-3.513a3.608,3.608,0,0,1,3.878-3.639,5.208,5.208,0,0,1,2.764.768l-.511,1.641a4.079,4.079,0,0,0-2.3-.718,1.7,1.7,0,0,0-1.881,1.692c0,1.026.673,1.487,2.136,2.1,1.951.82,2.95,1.9,2.95,3.743,0,2.179-1.533,3.717-4.2,3.717a5.933,5.933,0,0,1-3.158-.846Z" transform="translate(-194.188 -96.5)"/>
        <path d="M636.508,150.785c.046,3.051,1.811,4.307,3.855,4.307a6.794,6.794,0,0,0,3.112-.641l.348,1.615a8.367,8.367,0,0,1-3.739.769c-3.46,0-5.527-2.512-5.527-6.255s2-6.69,5.272-6.69c3.669,0,4.645,3.563,4.645,5.844a9.407,9.407,0,0,1-.07,1.051Zm5.992-1.615c.022-1.436-.535-3.666-2.834-3.666-2.067,0-2.973,2.1-3.135,3.666Z" transform="translate(-194.188 -96.5)"/>
      </g>
    </g>
    <g id="ObereLeisteWord">
      <rect id="blaueLeiste" class="cls-17" x="18.698" y="9.581" width="643.162" height="17.523"/>
      <g id="Suche">
        <g>
          <rect id="Suchefeld" class="cls-3" x="260.604" y="12.786" width="159.658" height="10.683"/>
          <path class="cls-17" d="M614.95,120.469H454.292V108.786H614.95Zm-159.658-1H613.95v-9.683H455.292Z" transform="translate(-194.188 -96.5)"/>
        </g>
        <g>
          <path class="cls-15" d="M464.6,114.935a1.668,1.668,0,0,0,.9.281.728.728,0,0,0,.818-.737c0-.4-.209-.634-.737-.858-.638-.25-1.032-.616-1.032-1.225a1.17,1.17,0,0,1,1.264-1.172,1.63,1.63,0,0,1,.864.212l-.139.454a1.442,1.442,0,0,0-.742-.2.657.657,0,0,0-.736.648c0,.4.237.6.776.833.662.282,1,.634,1,1.269a1.227,1.227,0,0,1-1.369,1.243,1.869,1.869,0,0,1-1-.276Z" transform="translate(-194.188 -96.5)"/>
          <path class="cls-15" d="M469.86,114.768c0,.32.006.6.024.846h-.452l-.03-.507h-.011a1.046,1.046,0,0,1-.928.577c-.441,0-.968-.269-.968-1.358v-1.814h.51v1.717c0,.59.162.987.626.987a.746.746,0,0,0,.673-.512.9.9,0,0,0,.046-.288v-1.9h.51Z" transform="translate(-194.188 -96.5)"/>
          <path class="cls-15" d="M472.711,115.5a1.741,1.741,0,0,1-.806.179,1.412,1.412,0,0,1-1.4-1.583,1.506,1.506,0,0,1,1.508-1.647,1.568,1.568,0,0,1,.707.16l-.116.436a1.092,1.092,0,0,0-.591-.148c-.644,0-.992.526-.992,1.173,0,.718.417,1.16.974,1.16a1.338,1.338,0,0,0,.627-.154Z" transform="translate(-194.188 -96.5)"/>
          <path class="cls-15" d="M473.312,111.063h.51V113h.012a1,1,0,0,1,.365-.4.971.971,0,0,1,.522-.161c.377,0,.98.257.98,1.327v1.846h-.511v-1.782c0-.5-.168-.923-.649-.923a.806.806,0,0,0-.719.833v1.872h-.51Z" transform="translate(-194.188 -96.5)"/>
          <path class="cls-15" d="M476.818,114.166c.012.762.453,1.076.963,1.076a1.707,1.707,0,0,0,.777-.16l.087.4a2.083,2.083,0,0,1-.934.193,1.38,1.38,0,0,1-1.38-1.564c0-.935.5-1.673,1.316-1.673.916,0,1.16.891,1.16,1.462a2.6,2.6,0,0,1-.017.263Zm1.5-.4c.006-.359-.133-.917-.707-.917-.516,0-.742.526-.783.917Z" transform="translate(-194.188 -96.5)"/>
        </g>
        <g id="Suchlinse">
          <path class="cls-15" d="M456.756,113.805a1.288,1.288,0,0,1-.271-.8h0v-.548l.027-.093a3.014,3.014,0,0,1,.447-.933h0a.377.377,0,0,1,.176-.136h0c.225-.139.318-.141.8-.141h.808a1.8,1.8,0,0,1,.949.992l.124.3.025.067a3.148,3.148,0,0,1,.17,1.407h0l-.195.515,1.5,2.267-.395.324-1.7-2.134-.2,0a1.831,1.831,0,0,1-.554-.077l-.008,0a1.78,1.78,0,0,1-.366-.155l-.354-.168-.557-.31h0A1.277,1.277,0,0,1,456.756,113.805Z" transform="translate(-194.188 -96.5)"/>
          <ellipse class="cls-18" cx="458.301" cy="112.968" rx="1.044" ry="1.573" transform="translate(-177.729 182.532) rotate(-34.445)"/>
        </g>
      </g>
      <g id="UeberschrifteninMenueLeiste">
        <g>
          <path class="cls-3" d="M224,118.232h-1.32l-.907-4.133c-.088-.4-.167-.766-.235-1.126-.079.358-.169.729-.275,1.135l-1.022,4.124h-1.32l-1.852-8.059h1.452l.855,4.022c.1.458.193.92.278,1.358.1-.449.211-.916.321-1.375l.961-4h1.323l.876,4.032c.1.465.189.891.265,1.29q.125-.575.262-1.175l.032-.139.951-4.008h1.424Zm-.918-.5h.53l1.812-7.059h-.384l-.89,3.758c-.2.9-.38,1.678-.515,2.461l-.035.207h-.432l-.047-.218c-.095-.744-.258-1.566-.474-2.57l-.791-3.638h-.526l-.869,3.621c-.217.907-.442,1.845-.555,2.6l-.031.213h-.427l-.055-.208c-.121-.723-.306-1.672-.507-2.6l-.771-3.627H217.7l1.623,7.059h.53l.928-3.747c.238-.914.4-1.645.525-2.447l.033-.21h.435l.047.22a24.809,24.809,0,0,0,.443,2.443Z" transform="translate(-194.188 -96.5)"/>
          <path class="cls-3" d="M229.27,118.355c-1.96,0-3.33-1.68-3.33-4.085,0-2.485,1.412-4.221,3.432-4.221,1.991,0,3.329,1.638,3.329,4.075C232.7,117.047,230.978,118.355,229.27,118.355Zm.1-7.806c-1.726,0-2.932,1.53-2.932,3.721,0,2.145,1.137,3.585,2.83,3.585,1.78,0,2.931-1.464,2.931-3.731C232.2,111.986,231.064,110.549,229.372,110.549Zm-.052,7.01c-1.6,0-2.434-1.666-2.434-3.312,0-1.693.756-3.4,2.445-3.4,1.672,0,2.435,1.722,2.435,3.323C231.766,116.165,230.76,117.559,229.32,117.559Zm.011-6.213c-1.344,0-1.945,1.457-1.945,2.9,0,1.4.664,2.812,1.934,2.812,1.344,0,1.946-1.452,1.946-2.89C231.266,112.809,230.66,111.346,229.331,111.346Z" transform="translate(-194.188 -96.5)"/>
          <path class="cls-3" d="M238.458,118.232h-1.465l-.071-.134a9.745,9.745,0,0,1-.481-1.871c-.2-1.042-.542-1.245-1.137-1.27h-.573v3.275h-1.384v-7.908l.195-.044a8.611,8.611,0,0,1,1.752-.163,2.852,2.852,0,0,1,2.159.69,2.4,2.4,0,0,1-.434,3.578,2.5,2.5,0,0,1,.755,1.471,13.422,13.422,0,0,0,.509,2.017Zm-1.147-.5h.39c-.12-.394-.25-.992-.416-1.773-.154-.745-.432-1.184-.85-1.344l-.161-.061v-.346l.163-.094a1.727,1.727,0,0,0,1.127-1.7,1.751,1.751,0,0,0-.463-1.257,2.4,2.4,0,0,0-1.807-.545,8.774,8.774,0,0,0-1.447.112v7h.384v-3.275h1.083c.929.039,1.394.523,1.618,1.671C237,116.483,237.183,117.353,237.311,117.732Zm-1.925-3.515h-1.155v-3.193l.175-.054a3.55,3.55,0,0,1,.949-.1c1.161.014,1.825.62,1.825,1.663A1.649,1.649,0,0,1,235.386,114.217Zm-.655-.5h.655a1.153,1.153,0,0,0,1.294-1.186c0-.761-.447-1.152-1.328-1.163a4.116,4.116,0,0,0-.621.041Z" transform="translate(-194.188 -96.5)"/>
          <path class="cls-3" d="M240.668,118.3a13.266,13.266,0,0,1-1.636-.091l-.219-.028v-7.868l.209-.035a11.773,11.773,0,0,1,1.921-.16,3.9,3.9,0,0,1,2.953,1.018,3.948,3.948,0,0,1,1.037,2.888,4.491,4.491,0,0,1-1.052,3.108A4.2,4.2,0,0,1,240.668,118.3Zm-1.355-.563a13.4,13.4,0,0,0,1.355.063,3.718,3.718,0,0,0,2.844-1.006,4,4,0,0,0,.921-2.77,3.089,3.089,0,0,0-3.49-3.406,11.08,11.08,0,0,0-1.63.121Zm1.528-.222a5.091,5.091,0,0,1-.944-.061l-.2-.04v-6.369l.191-.045a4.712,4.712,0,0,1,1.095-.108,2.98,2.98,0,0,1,2.2.8,3.246,3.246,0,0,1,.82,2.372C244.008,116.254,242.854,117.514,240.841,117.514Zm-.644-.523c.209.02.457.023.644.023,2.2,0,2.667-1.608,2.667-2.957a2.733,2.733,0,0,0-.675-2.019,2.5,2.5,0,0,0-1.85-.647,4.927,4.927,0,0,0-.786.056Z" transform="translate(-194.188 -96.5)"/>
        </g>
        <g>
          <rect class="cls-3" x="66.837" y="15.19" width="31.932" height="4.273" rx="2.137"/>
          <path class="cls-17" d="M290.82,116.213H263.162a2.387,2.387,0,1,1,0-4.774H290.82a2.387,2.387,0,1,1,0,4.774Zm-27.658-4.274a1.887,1.887,0,1,0,0,3.774H290.82a1.887,1.887,0,1,0,0-3.774Z" transform="translate(-194.188 -96.5)"/>
        </g>
        <g>
          <rect class="cls-3" x="125.862" y="15.19" width="31.932" height="4.273" rx="2.137"/>
          <path class="cls-17" d="M349.845,116.213H322.187a2.387,2.387,0,0,1,0-4.774h27.658a2.387,2.387,0,0,1,0,4.774Zm-27.658-4.274a1.887,1.887,0,0,0,0,3.774h27.658a1.887,1.887,0,0,0,0-3.774Z" transform="translate(-194.188 -96.5)"/>
        </g>
        <g>
          <rect class="cls-3" x="180.049" y="15.19" width="31.932" height="4.273" rx="2.137"/>
          <path class="cls-17" d="M404.032,116.213H376.374a2.387,2.387,0,0,1,0-4.774h27.658a2.387,2.387,0,0,1,0,4.774Zm-27.658-4.274a1.887,1.887,0,0,0,0,3.774h27.658a1.887,1.887,0,0,0,0-3.774Z" transform="translate(-194.188 -96.5)"/>
        </g>
        <g>
          <rect class="cls-3" x="466.466" y="15.19" width="31.932" height="4.273" rx="2.137"/>
          <path class="cls-17" d="M690.449,116.213H662.791a2.387,2.387,0,0,1,0-4.774h27.658a2.387,2.387,0,0,1,0,4.774Zm-27.658-4.274a1.887,1.887,0,0,0,0,3.774h27.658a1.887,1.887,0,0,0,0-3.774Z" transform="translate(-194.188 -96.5)"/>
        </g>
        <g>
          <rect class="cls-3" x="537.102" y="15.19" width="31.932" height="4.273" rx="2.137"/>
          <path class="cls-17" d="M761.085,116.213H733.427a2.387,2.387,0,0,1,0-4.774h27.658a2.387,2.387,0,0,1,0,4.774Zm-27.658-4.274a1.887,1.887,0,0,0,0,3.774h27.658a1.887,1.887,0,0,0,0-3.774Z" transform="translate(-194.188 -96.5)"/>
        </g>
        <g>
          <rect class="cls-3" x="607.739" y="15.19" width="31.932" height="4.273" rx="2.137"/>
          <path class="cls-17" d="M831.722,116.213H804.064a2.387,2.387,0,1,1,0-4.774h27.658a2.387,2.387,0,1,1,0,4.774Zm-27.658-4.274a1.887,1.887,0,1,0,0,3.774h27.658a1.887,1.887,0,1,0,0-3.774Z" transform="translate(-194.188 -96.5)"/>
        </g>
      </g>
      <g id="xButton">
        <path class="cls-19" d="M840.148,106.348v4.972c0,.763,1.128,1.383,2.526,1.388l12.956.05v-6.41Z" transform="translate(-194.188 -96.5)"/>
        <path class="cls-3" d="M848.991,112.208l-.582-1.115c-.237-.426-.387-.7-.529-.994h-.013c-.129.292-.258.561-.5,1l-.549,1.107h-.677l1.4-2.55-1.342-2.49h.684l.6,1.182c.17.329.3.583.42.852h.021c.129-.3.244-.531.413-.852l.623-1.182h.678l-1.389,2.453,1.423,2.587Z" transform="translate(-194.188 -96.5)"/>
      </g>
    </g>
    <g id="WordIconaufLeiste-2" data-name="WordIconaufLeiste">
      <g class="cls-20">
        <polygon id="FensterWordausgewaehlt" class="cls-3" points="33.854 375.217 47.484 375.217 47.484 392.311 33.854 392.311 33.854 375.217 47.484 375.217 33.854 375.217"/>
        <path class="cls-1" d="M241.923,489.061H227.792V471.467h14.131Zm-13.631-.5h13.131V471.967H228.292Z" transform="translate(-194.188 -96.5)"/>
      </g>
      <rect class="cls-17" x="38.05" y="379.223" width="5.564" height="7.211"/>
      <polygon class="cls-3" points="38.05 379.223 43.614 376.309 43.614 379.223 38.05 379.223"/>
      <rect class="cls-8" x="41.195" y="377.763" width="2.246" height="0.25"/>
      <rect class="cls-8" x="41.195" y="378.297" width="2.246" height="0.25"/>
      <rect class="cls-8" x="41.195" y="378.832" width="2.246" height="0.25"/>
      <path class="cls-12" d="M234.168,480.563l-.662-2.879h.356l.31,1.457c.078.359.148.717.194,1h.008c.043-.287.124-.629.213-1l.349-1.453h.353l.317,1.461c.074.341.144.683.183.987h.007c.055-.317.128-.637.21-1l.345-1.453h.345l-.74,2.879H235.6l-.33-1.5c-.081-.367-.135-.649-.17-.939H235.1c-.047.286-.1.568-.2.939l-.373,1.5Z" transform="translate(-194.188 -96.5)"/>
    </g>
  </g>
</svg>
