<svg id="Ebene_1" data-name="Ebene 1" xmlns="http://www.w3.org/2000/svg" viewBox="0 0 1082 504.5">
  <defs>
    <style>
      .cls-1 {
        fill: #478888;
      }

      .cls-2 {
        fill: #9ec3f2;
      }

      .cls-3 {
        fill: #1e1e1e;
      }

      .cls-4 {
        fill: #3d7271;
      }
    </style>
  </defs>
  <g id="karosserie">
    <path class="cls-1" d="M1442.23,731H618c-85.26,0-155-69.76-155-155V503c0-85.26,69.76-155,155-155h824.21c56.53,0,102.77,46.24,102.77,102.77V628.23C1545,684.76,1498.76,731,1442.23,731Z" transform="translate(-463 -287)"/>
  </g>
  <g id="spiegel">
    <g id="licht_rechts">
      <path class="cls-2" d="M482.1,430.58C565.41,420.75,626,390.85,626,355.5a31.19,31.19,0,0,0-.93-7.5H619C559.89,348,508.22,381.56,482.1,430.58Z" transform="translate(-463 -287)"/>
    </g>
    <g id="licht_links">
      <path class="cls-2" d="M481.1,648.42C564.41,658.25,625,688.15,625,723.5a31.19,31.19,0,0,1-.93,7.5H618C558.89,731,507.22,697.44,481.1,648.42Z" transform="translate(-463 -287)"/>
    </g>
  </g>
  <g id="fenster">
    <g id="fenster_vorne">
      <path class="cls-3" d="M703.22,383.4c-7.37-1.89-14.72,3.11-16.9,11.42C676.91,430.63,671,482.41,671,540s5.91,109.37,15.32,145.18c2.18,8.31,9.53,13.31,16.9,11.42l137.53-35.15c6.57-1.68,11.25-8.38,11.25-16.12V434.67c0-7.74-4.68-14.44-11.25-16.12Z" transform="translate(-463 -287)"/>
    </g>
    <g id="fenster_hinten">
      <path class="cls-3" d="M1450.78,383.6c7.37-1.88,14.72,3.12,16.9,11.42,9.41,35.79,15.32,87.53,15.32,145.08s-5.91,109.3-15.32,145.09c-2.18,8.3-9.53,13.3-16.9,11.41l-137.53-35.13c-6.57-1.68-11.25-8.37-11.25-16.1V434.84c0-7.73,4.68-14.43,11.25-16.11Z" transform="translate(-463 -287)"/>
    </g>
    <g id="fenster_links">
      <path class="cls-3" d="M1309.4,709.88c2.84,1.63-4.68,3.25-17.17,3.73C1238.4,715.69,1160.57,717,1074,717s-164.4-1.31-218.23-3.39c-12.49-.48-20-2.1-17.17-3.73l52.84-30.39C894,678,904,677,915.67,677h316.66c11.63,0,21.7,1,24.23,2.49Z" transform="translate(-463 -287)"/>
    </g>
    <g id="fenster_rechts">
      <path class="cls-3" d="M1309.4,370.12c2.84-1.63-4.68-3.25-17.17-3.73C1238.4,364.31,1160.57,363,1074,363s-164.4,1.31-218.23,3.39c-12.49.48-20,2.1-17.17,3.73l52.84,30.39C894,402,904,403,915.67,403h316.66c11.63,0,21.7-1,24.23-2.49Z" transform="translate(-463 -287)"/>
    </g>
  </g>
  <g id="lichter">
    <path id="spiegel-2" data-name="spiegel" class="cls-4" d="M721.68,348l34.84-53.36A17.74,17.74,0,0,1,771.45,287h22.07c3,0,5,2.9,3.46,5.25L761.5,348Z" transform="translate(-463 -287)"/>
    <path id="spiegel-3" data-name="spiegel" class="cls-4" d="M721.68,730.5l34.84,53.36a17.74,17.74,0,0,0,14.93,7.64h22.07c3,0,5-2.9,3.46-5.25L761.5,730.5Z" transform="translate(-463 -287)"/>
  </g>
</svg>
