<svg id="Ebene_1" data-name="Ebene 1" xmlns="http://www.w3.org/2000/svg" viewBox="0 0 1923.85 917.83">
  <defs>
    <style>
      .cls-1 {
      fill: none;
      }

      #thm {
      stroke: #000;
      stroke-miterlimit: 10;
      }

      .cls-2 {

      }

      .cls-3 {

      }
      #thm_overlay{
      fill: url(#pattern-checkers);
      opacity: 0;
      }
      .checker{
      fill: #222121;
      }
      #thm{
      fill: #4fe084;
      }
      #koord_system{
      stroke: black;
      }
    </style>
  </defs>

  <pattern id="pattern-checkers" x="0" y="0" width="200" height="200" patternUnits="userSpaceOnUse">
    <!-- Two instances of the same checker, only positioned apart on the `x` and `y` axis -->
    <!-- We will define the `fill` in the CSS for flexible use -->
    <rect class="checker" x="0" width="100" height="100" y="0"></rect>
    <rect class="checker" x="100" width="100" height="100" y="100"></rect>
  </pattern>

  <g id="koord_system">
    <polyline class="cls-1" points="187.35 0 187.35 719.5 1923.85 719.5"/>
    <line class="cls-1" x1="187.35" y1="719.5" x2="0.35" y2="906.5"/>
  </g>
  <g id="thm">
    <g id="t">
      <g id="t_l" style="opacity:0">
        <path class="cls-2" d="M264.75,508.42H119.5v88.9H265.06S263.72,509.45,264.75,508.42Z" transform="translate(2.85 75)"/>
        <polygon class="cls-2" points="122.35 583.42 176.82 528.95 323.95 528.95 268.55 584.36 122.35 583.42"/>
        <path class="cls-2" d="M264.75,597.32,321.1,541V453.32l-55.72,55.73S264.75,595.68,264.75,597.32Z" transform="translate(2.85 75)"/>
      </g>
      <g id="t_m" style="opacity:0">
        <rect class="cls-2" x="270.11" y="582.17" width="111.44" height="330.58"/>
        <path class="cls-2" d="M378.7,837.74l60.11-68.87V452.07S379.89,506,378.7,507.17l60.11-55.73H323l-55.72,55.73H378.7Z" transform="translate(2.85 75)"/>
      </g>
      <g id="t_r" style="opacity:0">
        <rect class="cls-2" x="381.56" y="580.91" width="162.78" height="87.65"/>
        <path class="cls-2" d="M378.7,505.91l58.85-53.84h154l-50.08,53.84,50.08-53.84v91.41l-50.08,50.09V505.91S378.17,506.44,378.7,505.91Z" transform="translate(2.85 75)"/>
      </g>
    </g>
    <g id="h">
      <g id="h_l" style="opacity:0">
        <rect class="cls-2" x="765.98" y="585.92" width="111.44" height="330.58"/>
        <path class="cls-2" d="M874.57,841.5l60.1-68.87V455.83s-58.91,53.9-60.1,55.09l60.1-55.72H818.84l-55.72,55.72H874.57Z" transform="translate(2.85 75)"/>
      </g>
      <g id="h_m" style="opacity:0">
        <rect class="cls-2" x="877.42" y="676.08" width="162.78" height="87.65"/>
        <path class="cls-2" d="M874.57,601.08l58.85-53.84h154l-50.09,53.84,50.09-53.84v91.41l-50.09,50.08V601.08S874,601.61,874.57,601.08Z" transform="translate(2.85 75)"/>
      </g>
      <g id="h_r" style="opacity:0">
        <rect class="cls-2" x="1040.2" y="584.67" width="111.44" height="330.58"/>
        <path class="cls-2" d="M1148.79,840.25l60.11-68.87V454.58s-58.91,53.9-60.11,55.09L1208.9,454H1093.07l-55.72,55.72h111.44Z" transform="translate(2.85 75)"/>
      </g>
    </g>
    <g id="m">
      <g id="m_l" style="opacity:0">
        <rect class="cls-2" x="1344.48" y="574.65" width="111.44" height="330.58"/>
        <path class="cls-2" d="M1453.08,830.23l60.1-68.87V444.56s-58.91,53.9-60.1,55.09l60.1-55.72H1397.35l-55.72,55.72h111.45Z" transform="translate(2.85 75)"/>
      </g>
      <g id="m_m1" style="opacity:0">
        <path class="cls-2" d="M1455.58,498.4l71.37,2,1.26,95H1453S1455,497.46,1455.58,498.4Z" transform="translate(2.85 75)"/>
        <path class="cls-2" d="M1528.21,539.72s-1.31-40.12,0-38.81" transform="translate(2.85 75)"/>
        <path class="cls-2" d="M1527,499.65l55.1-55.09h-68.87l-57.6,53.84S1528.12,500.82,1527,499.65Z" transform="translate(2.85 75)"/>
        <polygon class="cls-2" points="1530.43 671.7 1584.9 599.7 1584.9 520.81 1530.56 574.13 1530.43 671.7"/>
      </g>
      <g id="m_m2" style="opacity:0">
        <path class="cls-2" d="M1528.21,553.5l71.37,2,1.25,95h-75.16S1527.61,551.3,1528.21,553.5Z" transform="translate(2.85 75)"/>
        <path class="cls-2" d="M1600.83,593.57s-1.3-40.13,0-38.82" transform="translate(2.85 75)"/>
        <path class="cls-2" d="M1599.58,553.5l55.1-55.1h-68.87l-57.6,53.85C1524.75,552.13,1604.2,558.12,1599.58,553.5Z" transform="translate(2.85 75)"/>
        <polygon class="cls-2" points="1603.06 724.29 1657.53 652.29 1657.53 574.65 1603.19 627.98 1603.06 724.29"/>
      </g>
      <g id="m_m3" style="opacity:0">
        <path class="cls-2" d="M1595.82,503.41l71.38,2,1.25,95h-75.16S1595.23,502.47,1595.82,503.41Z" transform="translate(2.85 75)"/>
        <path class="cls-2" d="M1668.45,544.73s-1.31-40.12,0-38.82" transform="translate(2.85 75)"/>
        <path class="cls-2" d="M1667.2,504.66l55.09-55.09h-68.87l-57.6,53.84S1668.37,505.83,1667.2,504.66Z" transform="translate(2.85 75)"/>
        <polygon class="cls-2" points="1670.68 675.46 1725.15 603.45 1725.15 525.82 1670.8 579.14 1670.68 675.46"/>
      </g>
      <g id="m_r" style="opacity:0">
        <rect class="cls-2" x="1671.3" y="579.66" width="111.44" height="330.58"/>
        <path class="cls-2" d="M1779.9,835.24l60.1-68.87V449.57s-58.91,53.9-60.1,55.09l60.1-55.72H1724.17l-55.72,55.72H1779.9Z" transform="translate(2.85 75)"/>
      </g>
    </g>
  </g>

  <g id="thm_overlay">
    <g id="t_overlay">
      <g id="t_l_overlay">
        <path class="cls-3" d="M264.75,508.42H119.5v88.9H265.06S263.72,509.45,264.75,508.42Z" transform="translate(2.85 75)"/>
        <polygon class="cls-3" points="122.35 583.42 176.82 528.95 323.95 528.95 268.55 584.36 122.35 583.42"/>
        <path class="cls-3" d="M264.75,597.32,321.1,541V453.32l-55.72,55.73S264.75,595.68,264.75,597.32Z" transform="translate(2.85 75)"/>
      </g>
      <g id="t_m_overlay">
        <rect class="cls-3" x="270.11" y="582.17" width="111.44" height="330.58"/>
        <path class="cls-3" d="M378.7,837.74l60.11-68.87V452.07S379.89,506,378.7,507.17l60.11-55.73H323l-55.72,55.73H378.7Z" transform="translate(2.85 75)"/>
      </g>
      <g id="t_r_overlay">
        <rect class="cls-3" x="381.56" y="580.91" width="162.78" height="87.65"/>
        <path class="cls-3" d="M378.7,505.91l58.85-53.84h154l-50.08,53.84,50.08-53.84v91.41l-50.08,50.09V505.91S378.17,506.44,378.7,505.91Z" transform="translate(2.85 75)"/>
      </g>
    </g>
    <g id="h_overlay">
      <g id="h_l_overlay">
        <rect class="cls-3" x="765.98" y="585.92" width="111.44" height="330.58"/>
        <path class="cls-3" d="M874.57,841.5l60.1-68.87V455.83s-58.91,53.9-60.1,55.09l60.1-55.72H818.84l-55.72,55.72H874.57Z" transform="translate(2.85 75)"/>
      </g>
      <g id="h_m_overlay">
        <rect class="cls-3" x="877.42" y="676.08" width="162.78" height="87.65"/>
        <path class="cls-3" d="M874.57,601.08l58.85-53.84h154l-50.09,53.84,50.09-53.84v91.41l-50.09,50.08V601.08S874,601.61,874.57,601.08Z" transform="translate(2.85 75)"/>
      </g>
      <g id="h_r_overlay">
        <rect class="cls-3" x="1040.2" y="584.67" width="111.44" height="330.58"/>
        <path class="cls-3" d="M1148.79,840.25l60.11-68.87V454.58s-58.91,53.9-60.11,55.09L1208.9,454H1093.07l-55.72,55.72h111.44Z" transform="translate(2.85 75)"/>
      </g>
    </g>
    <g id="m__overlay">
      <g id="m_l__overlay">
        <rect class="cls-3" x="1344.48" y="574.65" width="111.44" height="330.58"/>
        <path class="cls-3" d="M1453.08,830.23l60.1-68.87V444.56s-58.91,53.9-60.1,55.09l60.1-55.72H1397.35l-55.72,55.72h111.45Z" transform="translate(2.85 75)"/>
      </g>
      <g id="m_m1_overlay">
        <path class="cls-3" d="M1455.58,498.4l71.37,2,1.26,95H1453S1455,497.46,1455.58,498.4Z" transform="translate(2.85 75)"/>
        <path class="cls-3" d="M1528.21,539.72s-1.31-40.12,0-38.81" transform="translate(2.85 75)"/>
        <path class="cls-3" d="M1527,499.65l55.1-55.09h-68.87l-57.6,53.84S1528.12,500.82,1527,499.65Z" transform="translate(2.85 75)"/>
        <polygon class="cls-3" points="1530.43 671.7 1584.9 599.7 1584.9 520.81 1530.56 574.13 1530.43 671.7"/>
      </g>
      <g id="m_m2_overlay">
        <path class="cls-3" d="M1528.21,553.5l71.37,2,1.25,95h-75.16S1527.61,551.3,1528.21,553.5Z" transform="translate(2.85 75)"/>
        <path class="cls-3" d="M1600.83,593.57s-1.3-40.13,0-38.82" transform="translate(2.85 75)"/>
        <path class="cls-3" d="M1599.58,553.5l55.1-55.1h-68.87l-57.6,53.85C1524.75,552.13,1604.2,558.12,1599.58,553.5Z" transform="translate(2.85 75)"/>
        <polygon class="cls-3" points="1603.06 724.29 1657.53 652.29 1657.53 574.65 1603.19 627.98 1603.06 724.29"/>
      </g>
      <g id="m_m3_overlay">
        <path class="cls-3" d="M1595.82,503.41l71.38,2,1.25,95h-75.16S1595.23,502.47,1595.82,503.41Z" transform="translate(2.85 75)"/>
        <path class="cls-3" d="M1668.45,544.73s-1.31-40.12,0-38.82" transform="translate(2.85 75)"/>
        <path class="cls-3" d="M1667.2,504.66l55.09-55.09h-68.87l-57.6,53.84S1668.37,505.83,1667.2,504.66Z" transform="translate(2.85 75)"/>
        <polygon class="cls-3" points="1670.68 675.46 1725.15 603.45 1725.15 525.82 1670.8 579.14 1670.68 675.46"/>
      </g>
      <g id="m_r_overlay">
        <rect class="cls-3" x="1671.3" y="579.66" width="111.44" height="330.58"/>
        <path class="cls-3" d="M1779.9,835.24l60.1-68.87V449.57s-58.91,53.9-60.1,55.09l60.1-55.72H1724.17l-55.72,55.72H1779.9Z" transform="translate(2.85 75)"/>
      </g>
    </g>
  </g>
</svg>
