<svg id="Layer_1" data-name="Layer 1" xmlns="http://www.w3.org/2000/svg" xmlns:xlink="http://www.w3.org/1999/xlink" viewBox="0 0 1406.25 964.92">
  <defs>
    <style>
      .cls-1, .cls-19, .cls-4, .cls-7 {
        fill: #231f20;
      }

      .cls-1, .cls-10, .cls-11, .cls-12, .cls-13, .cls-14, .cls-15, .cls-16, .cls-17, .cls-2, .cls-8 {
        stroke: #939598;
      }

      .cls-1, .cls-10, .cls-11, .cls-12, .cls-13, .cls-14, .cls-15, .cls-16, .cls-17, .cls-2, .cls-20, .cls-21, .cls-22, .cls-23, .cls-24, .cls-25, .cls-26, .cls-27, .cls-28, .cls-29, .cls-3, .cls-30, .cls-31, .cls-32, .cls-33, .cls-34, .cls-35, .cls-36, .cls-37, .cls-38, .cls-39, .cls-4, .cls-40, .cls-41, .cls-42, .cls-43, .cls-44, .cls-45, .cls-46, .cls-47, .cls-48, .cls-49, .cls-5, .cls-50, .cls-51, .cls-6, .cls-8 {
        stroke-miterlimit: 10;
      }

      .cls-2, .cls-3 {
        fill: #808285;
      }

      .cls-3, .cls-4, .cls-5, .cls-6 {
        stroke: #231f20;
      }

      .cls-5 {
        fill: #f7941d;
      }

      .cls-6 {
        fill: #6d6e71;
      }

      .cls-20, .cls-21, .cls-22, .cls-23, .cls-24, .cls-25, .cls-26, .cls-27, .cls-28, .cls-29, .cls-30, .cls-31, .cls-32, .cls-33, .cls-34, .cls-35, .cls-36, .cls-37, .cls-38, .cls-39, .cls-40, .cls-41, .cls-42, .cls-43, .cls-44, .cls-45, .cls-46, .cls-47, .cls-48, .cls-49, .cls-50, .cls-51, .cls-8 {
        fill: none;
      }

      .cls-9 {
        fill: #a7a9ac;
      }

      .cls-10 {
        fill: #fff;
      }

      .cls-11 {
        fill: #f15a29;
      }

      .cls-12 {
        fill: #009444;
      }

      .cls-13 {
        fill: #2e3192;
      }

      .cls-14 {
        fill: #754c29;
      }

      .cls-15 {
        fill: #fff200;
      }

      .cls-16 {
        fill: #3c2415;
      }

      .cls-17 {
        fill: #bcbec0;
      }

      .cls-18 {
        fill: #010101;
      }

      .cls-18, .cls-19 {
        fill-rule: evenodd;
      }

      .cls-20 {
        stroke: #c6168d;
      }

      .cls-20, .cls-21, .cls-22, .cls-23, .cls-24, .cls-25, .cls-26, .cls-27, .cls-28, .cls-29, .cls-30, .cls-31, .cls-32, .cls-33, .cls-34, .cls-35, .cls-36, .cls-37, .cls-38, .cls-39, .cls-40, .cls-41, .cls-42, .cls-43, .cls-44, .cls-45, .cls-46, .cls-47, .cls-48, .cls-49, .cls-50, .cls-51 {
        stroke-linecap: round;
        stroke-width: 10px;
      }

      .cls-21 {
        stroke: url(#linear-gradient);
      }

      .cls-22 {
        stroke: url(#linear-gradient-2);
      }

      .cls-23 {
        stroke: url(#linear-gradient-3);
      }

      .cls-24 {
        stroke: url(#linear-gradient-4);
      }

      .cls-25 {
        stroke: url(#linear-gradient-5);
      }

      .cls-26 {
        stroke: url(#linear-gradient-6);
      }

      .cls-27 {
        stroke: url(#linear-gradient-7);
      }

      .cls-28 {
        stroke: url(#linear-gradient-8);
      }

      .cls-29 {
        stroke: url(#linear-gradient-9);
      }

      .cls-30 {
        stroke: url(#linear-gradient-10);
      }

      .cls-31 {
        stroke: url(#linear-gradient-11);
      }

      .cls-32 {
        stroke: url(#linear-gradient-12);
      }

      .cls-33 {
        stroke: url(#linear-gradient-13);
      }

      .cls-34 {
        stroke: url(#linear-gradient-14);
      }

      .cls-35 {
        stroke: url(#linear-gradient-15);
      }

      .cls-36 {
        stroke: url(#linear-gradient-16);
      }

      .cls-37 {
        stroke: url(#linear-gradient-17);
      }

      .cls-38 {
        stroke: url(#linear-gradient-18);
      }

      .cls-39 {
        stroke: url(#linear-gradient-19);
      }

      .cls-40 {
        stroke: url(#linear-gradient-20);
      }

      .cls-41 {
        stroke: url(#linear-gradient-21);
      }

      .cls-42 {
        stroke: url(#linear-gradient-22);
      }

      .cls-43 {
        stroke: url(#linear-gradient-23);
      }

      .cls-44 {
        stroke: url(#linear-gradient-24);
      }

      .cls-45 {
        stroke: url(#linear-gradient-25);
      }

      .cls-46 {
        stroke: url(#linear-gradient-26);
      }

      .cls-47 {
        stroke: url(#linear-gradient-27);
      }

      .cls-48 {
        stroke: url(#linear-gradient-28);
      }

      .cls-49 {
        stroke: url(#linear-gradient-29);
      }

      .cls-50 {
        stroke: url(#linear-gradient-30);
      }

      .cls-51 {
        stroke: url(#linear-gradient-31);
      }
    </style>
    <linearGradient id="linear-gradient" x1="964.74" y1="410.39" x2="1277.23" y2="410.39" gradientUnits="userSpaceOnUse">
      <stop offset="0" stop-color="#ec008c"/>
      <stop offset="1" stop-color="#2e3192"/>
    </linearGradient>
    <linearGradient id="linear-gradient-2" x1="977.29" y1="404.13" x2="987.88" y2="404.13" xlink:href="#linear-gradient"/>
    <linearGradient id="linear-gradient-3" x1="996.81" y1="409.14" x2="1007.9" y2="409.14" xlink:href="#linear-gradient"/>
    <linearGradient id="linear-gradient-4" x1="986.56" y1="400.98" x2="997.65" y2="400.98" xlink:href="#linear-gradient"/>
    <linearGradient id="linear-gradient-5" x1="1015.12" y1="404.82" x2="1026.2" y2="404.82" xlink:href="#linear-gradient"/>
    <linearGradient id="linear-gradient-6" x1="1006.17" y1="404.82" x2="1017.64" y2="404.82" xlink:href="#linear-gradient"/>
    <linearGradient id="linear-gradient-7" x1="1025.49" y1="408.18" x2="1036.08" y2="408.18" xlink:href="#linear-gradient"/>
    <linearGradient id="linear-gradient-8" x1="1045.01" y1="413.19" x2="1056.1" y2="413.19" xlink:href="#linear-gradient"/>
    <linearGradient id="linear-gradient-9" x1="1034.76" y1="405.03" x2="1045.85" y2="405.03" xlink:href="#linear-gradient"/>
    <linearGradient id="linear-gradient-10" x1="1063.32" y1="408.86" x2="1074.41" y2="408.86" xlink:href="#linear-gradient"/>
    <linearGradient id="linear-gradient-11" x1="1054.38" y1="408.86" x2="1065.85" y2="408.86" xlink:href="#linear-gradient"/>
    <linearGradient id="linear-gradient-12" x1="1112.15" y1="413.55" x2="1122.72" y2="413.55" xlink:href="#linear-gradient"/>
    <linearGradient id="linear-gradient-13" x1="1092.15" y1="408.8" x2="1103.19" y2="408.8" xlink:href="#linear-gradient"/>
    <linearGradient id="linear-gradient-14" x1="1102.4" y1="416.55" x2="1113.43" y2="416.55" xlink:href="#linear-gradient"/>
    <linearGradient id="linear-gradient-15" x1="1073.84" y1="412.91" x2="1084.88" y2="412.91" xlink:href="#linear-gradient"/>
    <linearGradient id="linear-gradient-16" x1="1082.41" y1="412.91" x2="1093.81" y2="412.91" xlink:href="#linear-gradient"/>
    <linearGradient id="linear-gradient-17" x1="1120.27" y1="411.85" x2="1130.87" y2="411.85" xlink:href="#linear-gradient"/>
    <linearGradient id="linear-gradient-18" x1="1139.8" y1="416.86" x2="1150.89" y2="416.86" xlink:href="#linear-gradient"/>
    <linearGradient id="linear-gradient-19" x1="1129.54" y1="408.69" x2="1140.63" y2="408.69" xlink:href="#linear-gradient"/>
    <linearGradient id="linear-gradient-20" x1="1158.1" y1="412.53" x2="1169.19" y2="412.53" xlink:href="#linear-gradient"/>
    <linearGradient id="linear-gradient-21" x1="1149.16" y1="412.53" x2="1160.63" y2="412.53" xlink:href="#linear-gradient"/>
    <linearGradient id="linear-gradient-22" x1="1168.41" y1="407.68" x2="1179" y2="407.68" xlink:href="#linear-gradient"/>
    <linearGradient id="linear-gradient-23" x1="1187.93" y1="412.68" x2="1199.02" y2="412.68" xlink:href="#linear-gradient"/>
    <linearGradient id="linear-gradient-24" x1="1177.68" y1="404.52" x2="1188.77" y2="404.52" xlink:href="#linear-gradient"/>
    <linearGradient id="linear-gradient-25" x1="1206.24" y1="408.36" x2="1217.33" y2="408.36" xlink:href="#linear-gradient"/>
    <linearGradient id="linear-gradient-26" x1="1197.3" y1="408.36" x2="1208.77" y2="408.36" xlink:href="#linear-gradient"/>
    <linearGradient id="linear-gradient-27" x1="1254.09" y1="407.71" x2="1264.69" y2="407.71" xlink:href="#linear-gradient"/>
    <linearGradient id="linear-gradient-28" x1="1234.07" y1="402.71" x2="1245.16" y2="402.71" xlink:href="#linear-gradient"/>
    <linearGradient id="linear-gradient-29" x1="1244.33" y1="410.87" x2="1255.42" y2="410.87" xlink:href="#linear-gradient"/>
    <linearGradient id="linear-gradient-30" x1="1215.77" y1="407.03" x2="1226.86" y2="407.03" xlink:href="#linear-gradient"/>
    <linearGradient id="linear-gradient-31" x1="1224.33" y1="407.03" x2="1235.8" y2="407.03" xlink:href="#linear-gradient"/>
  </defs>
  <g>
    <g>
      <rect class="cls-1" x="163.78" y="0.5" width="1078.43" height="495.55"/>
      <rect class="cls-2" x="585.46" y="-231.44" width="457.54" height="1040.43" transform="translate(991.77 -565.96) rotate(90)"/>
      <rect class="cls-2" x="604.46" y="-212.44" width="419.54" height="1002.43" transform="translate(991.77 -565.96) rotate(90)"/>
    </g>
    <g>
      <g>
        <path class="cls-3" d="M1345.54,745.07,305.32,754.66c-.15,0-22.95.2-22.95,0l22.68-187.79c0-28.6,17.15-51.79,38.3-51.79h930c22.65,0,41,24.84,41,55.47Z" transform="translate(-111.24 -40.5)"/>
        <g>
          <rect class="cls-4" x="349.77" y="653.43" width="92.35" height="54.06" rx="21.82"/>
          <rect class="cls-4" x="337.99" y="747.88" width="132.61" height="162.48" rx="22.73"/>
          <rect class="cls-4" x="372.86" y="703.54" width="46.18" height="71.07"/>
          <path class="cls-4" d="M353.53,856.15H508.2a38.29,38.29,0,0,1,38.29,38.29v0a15.77,15.77,0,0,1-15.77,15.77H353.53a15.77,15.77,0,0,1-15.77-15.77V871.92A15.77,15.77,0,0,1,353.53,856.15Z"/>
          <rect class="cls-4" x="378.52" y="910.36" width="34.87" height="54.06"/>
        </g>
        <g>
          <rect class="cls-4" x="901.63" y="649.97" width="92.35" height="54.06" rx="21.82"/>
          <rect class="cls-4" x="889.85" y="744.43" width="132.61" height="162.48" rx="22.73"/>
          <rect class="cls-4" x="924.72" y="700.09" width="46.18" height="71.07"/>
          <path class="cls-4" d="M839.07,852.7h145.1A38.29,38.29,0,0,1,1022.46,891v0a15.77,15.77,0,0,1-15.77,15.77H829.5A15.77,15.77,0,0,1,813.73,891V878A25.34,25.34,0,0,1,839.07,852.7Z"/>
          <rect class="cls-4" x="930.37" y="906.91" width="34.87" height="54.06"/>
        </g>
        <rect class="cls-5" x="538.39" y="442.51" width="337.87" height="54.06" rx="21.66"/>
        <g>
          <path class="cls-6" d="M238,548.74h401.9A16.17,16.17,0,0,1,656,564.9v80.36a0,0,0,0,1,0,0H238a16.17,16.17,0,0,1-16.17-16.17V564.9A16.17,16.17,0,0,1,238,548.74Z"/>
          <g>
            <g>
              <g>
                <path class="cls-7" d="M359.89,666.86a7.52,7.52,0,1,0,15,0V601.15a7.52,7.52,0,1,0-15,0Z" transform="translate(-111.24 -40.5)"/>
                <path class="cls-8" d="M359.89,666.86a7.52,7.52,0,1,0,15,0V601.15a7.52,7.52,0,1,0-15,0Z" transform="translate(-111.24 -40.5)"/>
              </g>
              <g>
                <path class="cls-7" d="M405.85,668.68a6.56,6.56,0,1,0,13.12,0V601a6.56,6.56,0,0,0-13.12,0Z" transform="translate(-111.24 -40.5)"/>
                <path class="cls-8" d="M405.85,668.68a6.56,6.56,0,1,0,13.12,0V601a6.56,6.56,0,0,0-13.12,0Z" transform="translate(-111.24 -40.5)"/>
              </g>
              <g>
                <path class="cls-9" d="M358.34,627a8.29,8.29,0,1,0,16.57,0V601.58a8.29,8.29,0,1,0-16.57,0Z" transform="translate(-111.24 -40.5)"/>
                <path class="cls-8" d="M358.34,627a8.29,8.29,0,1,0,16.57,0V601.58a8.29,8.29,0,1,0-16.57,0Z" transform="translate(-111.24 -40.5)"/>
              </g>
              <g>
                <path class="cls-9" d="M405.5,651.33a6.91,6.91,0,1,0,13.82,0V620.8a6.91,6.91,0,1,0-13.82,0Z" transform="translate(-111.24 -40.5)"/>
                <path class="cls-8" d="M405.5,651.33a6.91,6.91,0,1,0,13.82,0V620.8a6.91,6.91,0,1,0-13.82,0Z" transform="translate(-111.24 -40.5)"/>
              </g>
              <g>
                <path class="cls-7" d="M472.92,668.92a7.52,7.52,0,0,0,15,0V603.21a7.52,7.52,0,0,0-15,0Z" transform="translate(-111.24 -40.5)"/>
                <path class="cls-8" d="M472.92,668.92a7.52,7.52,0,0,0,15,0V603.21a7.52,7.52,0,0,0-15,0Z" transform="translate(-111.24 -40.5)"/>
              </g>
              <g>
                <path class="cls-7" d="M518.87,670.75a6.57,6.57,0,0,0,13.13,0v-67.7a6.57,6.57,0,0,0-13.13,0Z" transform="translate(-111.24 -40.5)"/>
                <path class="cls-8" d="M518.87,670.75a6.57,6.57,0,0,0,13.13,0v-67.7a6.57,6.57,0,0,0-13.13,0Z" transform="translate(-111.24 -40.5)"/>
              </g>
              <g>
                <path class="cls-9" d="M472,671a8.65,8.65,0,1,0,17.3,0V648.13a8.65,8.65,0,0,0-17.3,0Z" transform="translate(-111.24 -40.5)"/>
                <path class="cls-8" d="M472,671a8.65,8.65,0,1,0,17.3,0V648.13a8.65,8.65,0,0,0-17.3,0Z" transform="translate(-111.24 -40.5)"/>
              </g>
              <g>
                <path class="cls-9" d="M518.53,644.91a6.91,6.91,0,0,0,13.81,0V614.38a6.91,6.91,0,1,0-13.81,0Z" transform="translate(-111.24 -40.5)"/>
                <path class="cls-8" d="M518.53,644.91a6.91,6.91,0,0,0,13.81,0V614.38a6.91,6.91,0,1,0-13.81,0Z" transform="translate(-111.24 -40.5)"/>
              </g>
            </g>
            <g>
              <g>
                <path class="cls-7" d="M569.5,668.9a7.52,7.52,0,1,0,15,0V603.19a7.52,7.52,0,1,0-15,0Z" transform="translate(-111.24 -40.5)"/>
                <path class="cls-8" d="M569.5,668.9a7.52,7.52,0,1,0,15,0V603.19a7.52,7.52,0,1,0-15,0Z" transform="translate(-111.24 -40.5)"/>
              </g>
              <g>
                <path class="cls-7" d="M615.46,670.72a6.57,6.57,0,0,0,13.13,0V603a6.57,6.57,0,0,0-13.13,0Z" transform="translate(-111.24 -40.5)"/>
                <path class="cls-8" d="M615.46,670.72a6.57,6.57,0,0,0,13.13,0V603a6.57,6.57,0,0,0-13.13,0Z" transform="translate(-111.24 -40.5)"/>
              </g>
              <g>
                <path class="cls-9" d="M568.92,628.76a8.29,8.29,0,1,0,16.57,0V603.39a8.29,8.29,0,1,0-16.57,0Z" transform="translate(-111.24 -40.5)"/>
                <path class="cls-8" d="M568.92,628.76a8.29,8.29,0,1,0,16.57,0V603.39a8.29,8.29,0,1,0-16.57,0Z" transform="translate(-111.24 -40.5)"/>
              </g>
              <g>
                <path class="cls-9" d="M615.12,653.37a6.91,6.91,0,1,0,13.81,0V622.84a6.91,6.91,0,1,0-13.81,0Z" transform="translate(-111.24 -40.5)"/>
                <path class="cls-8" d="M615.12,653.37a6.91,6.91,0,1,0,13.81,0V622.84a6.91,6.91,0,1,0-13.81,0Z" transform="translate(-111.24 -40.5)"/>
              </g>
              <g>
                <path class="cls-7" d="M682.53,671a7.52,7.52,0,0,0,15,0V605.25a7.52,7.52,0,0,0-15,0Z" transform="translate(-111.24 -40.5)"/>
                <path class="cls-8" d="M682.53,671a7.52,7.52,0,0,0,15,0V605.25a7.52,7.52,0,0,0-15,0Z" transform="translate(-111.24 -40.5)"/>
              </g>
              <g>
                <path class="cls-7" d="M728.49,672.78a6.56,6.56,0,0,0,13.12,0V605.09a6.56,6.56,0,1,0-13.12,0Z" transform="translate(-111.24 -40.5)"/>
                <path class="cls-8" d="M728.49,672.78a6.56,6.56,0,0,0,13.12,0V605.09a6.56,6.56,0,1,0-13.12,0Z" transform="translate(-111.24 -40.5)"/>
              </g>
              <g>
                <path class="cls-9" d="M682,673.24a8.47,8.47,0,1,0,16.93,0V649.11a8.47,8.47,0,1,0-16.93,0Z" transform="translate(-111.24 -40.5)"/>
                <path class="cls-8" d="M682,673.24a8.47,8.47,0,1,0,16.93,0V649.11a8.47,8.47,0,1,0-16.93,0Z" transform="translate(-111.24 -40.5)"/>
              </g>
              <g>
                <path class="cls-9" d="M728.14,646.94a6.91,6.91,0,0,0,13.82,0V616.41a6.91,6.91,0,0,0-13.82,0Z" transform="translate(-111.24 -40.5)"/>
                <path class="cls-8" d="M728.14,646.94a6.91,6.91,0,0,0,13.82,0V616.41a6.91,6.91,0,0,0-13.82,0Z" transform="translate(-111.24 -40.5)"/>
              </g>
            </g>
          </g>
        </g>
        <g>
          <rect class="cls-1" x="116.15" y="308.42" width="387.93" height="190.15"/>
          <rect class="cls-10" x="339.79" y="260.32" width="164.54" height="364.57" transform="translate(753.43 -19.96) rotate(90)"/>
          <rect class="cls-2" x="185.91" y="414.2" width="164.54" height="56.8" transform="translate(599.55 133.92) rotate(90)"/>
          <rect class="cls-1" x="258.82" y="484.37" width="84.06" height="56.2" rx="28.1"/>
        </g>
        <g>
          <rect class="cls-1" x="901.63" y="312.38" width="387.93" height="190.15"/>
          <rect class="cls-10" x="1125.27" y="264.28" width="164.54" height="364.57" transform="translate(1542.87 -801.48) rotate(90)"/>
          <rect class="cls-2" x="971.39" y="418.16" width="164.54" height="56.8" transform="translate(1388.98 -647.59) rotate(90)"/>
          <rect class="cls-1" x="1044.3" y="488.33" width="84.06" height="56.2" rx="28.1"/>
        </g>
        <g>
          <path class="cls-6" d="M741,549h401.9a16.17,16.17,0,0,1,16.17,16.17v80.36a0,0,0,0,1,0,0H741a16.17,16.17,0,0,1-16.17-16.17V565.16A16.17,16.17,0,0,1,741,549Z"/>
          <g>
            <g>
              <g>
                <path class="cls-7" d="M863,667.11a7.52,7.52,0,1,0,15,0V601.4a7.52,7.52,0,0,0-15,0Z" transform="translate(-111.24 -40.5)"/>
                <path class="cls-8" d="M863,667.11a7.52,7.52,0,1,0,15,0V601.4a7.52,7.52,0,0,0-15,0Z" transform="translate(-111.24 -40.5)"/>
              </g>
              <g>
                <path class="cls-7" d="M908.91,668.94a6.57,6.57,0,0,0,13.13,0V601.25a6.57,6.57,0,1,0-13.13,0Z" transform="translate(-111.24 -40.5)"/>
                <path class="cls-8" d="M908.91,668.94a6.57,6.57,0,0,0,13.13,0V601.25a6.57,6.57,0,1,0-13.13,0Z" transform="translate(-111.24 -40.5)"/>
              </g>
              <g>
                <path class="cls-9" d="M861.41,627.2a8.29,8.29,0,1,0,16.57,0V601.83a8.29,8.29,0,1,0-16.57,0Z" transform="translate(-111.24 -40.5)"/>
                <path class="cls-8" d="M861.41,627.2a8.29,8.29,0,1,0,16.57,0V601.83a8.29,8.29,0,1,0-16.57,0Z" transform="translate(-111.24 -40.5)"/>
              </g>
              <g>
                <path class="cls-9" d="M908.57,651.58a6.91,6.91,0,1,0,13.81,0V621.05a6.91,6.91,0,0,0-13.81,0Z" transform="translate(-111.24 -40.5)"/>
                <path class="cls-8" d="M908.57,651.58a6.91,6.91,0,1,0,13.81,0V621.05a6.91,6.91,0,0,0-13.81,0Z" transform="translate(-111.24 -40.5)"/>
              </g>
              <g>
                <path class="cls-7" d="M976,669.17a7.52,7.52,0,1,0,15,0V603.46a7.52,7.52,0,0,0-15,0Z" transform="translate(-111.24 -40.5)"/>
                <path class="cls-8" d="M976,669.17a7.52,7.52,0,1,0,15,0V603.46a7.52,7.52,0,0,0-15,0Z" transform="translate(-111.24 -40.5)"/>
              </g>
              <g>
                <path class="cls-7" d="M1021.94,671a6.56,6.56,0,0,0,13.12,0V603.31a6.56,6.56,0,1,0-13.12,0Z" transform="translate(-111.24 -40.5)"/>
                <path class="cls-8" d="M1021.94,671a6.56,6.56,0,0,0,13.12,0V603.31a6.56,6.56,0,1,0-13.12,0Z" transform="translate(-111.24 -40.5)"/>
              </g>
              <g>
                <path class="cls-9" d="M975,671.27a8.65,8.65,0,0,0,17.3,0V648.39a8.65,8.65,0,0,0-17.3,0Z" transform="translate(-111.24 -40.5)"/>
                <path class="cls-8" d="M975,671.27a8.65,8.65,0,0,0,17.3,0V648.39a8.65,8.65,0,0,0-17.3,0Z" transform="translate(-111.24 -40.5)"/>
              </g>
              <g>
                <path class="cls-9" d="M1021.59,645.16a6.91,6.91,0,0,0,13.82,0V614.63a6.91,6.91,0,0,0-13.82,0Z" transform="translate(-111.24 -40.5)"/>
                <path class="cls-8" d="M1021.59,645.16a6.91,6.91,0,0,0,13.82,0V614.63a6.91,6.91,0,0,0-13.82,0Z" transform="translate(-111.24 -40.5)"/>
              </g>
            </g>
            <g>
              <g>
                <path class="cls-7" d="M1072.57,669.15a7.52,7.52,0,0,0,15,0V603.44a7.52,7.52,0,1,0-15,0Z" transform="translate(-111.24 -40.5)"/>
                <path class="cls-8" d="M1072.57,669.15a7.52,7.52,0,0,0,15,0V603.44a7.52,7.52,0,1,0-15,0Z" transform="translate(-111.24 -40.5)"/>
              </g>
              <g>
                <path class="cls-7" d="M1118.53,671a6.56,6.56,0,1,0,13.12,0V603.28a6.56,6.56,0,0,0-13.12,0Z" transform="translate(-111.24 -40.5)"/>
                <path class="cls-8" d="M1118.53,671a6.56,6.56,0,1,0,13.12,0V603.28a6.56,6.56,0,0,0-13.12,0Z" transform="translate(-111.24 -40.5)"/>
              </g>
              <g>
                <path class="cls-9" d="M1072,629a8.29,8.29,0,1,0,16.57,0V603.64a8.29,8.29,0,1,0-16.57,0Z" transform="translate(-111.24 -40.5)"/>
                <path class="cls-8" d="M1072,629a8.29,8.29,0,1,0,16.57,0V603.64a8.29,8.29,0,1,0-16.57,0Z" transform="translate(-111.24 -40.5)"/>
              </g>
              <g>
                <path class="cls-9" d="M1118.18,653.62a6.91,6.91,0,0,0,13.82,0V623.09a6.91,6.91,0,1,0-13.82,0Z" transform="translate(-111.24 -40.5)"/>
                <path class="cls-8" d="M1118.18,653.62a6.91,6.91,0,0,0,13.82,0V623.09a6.91,6.91,0,1,0-13.82,0Z" transform="translate(-111.24 -40.5)"/>
              </g>
              <g>
                <path class="cls-7" d="M1185.59,671.21a7.52,7.52,0,0,0,15,0V605.5a7.52,7.52,0,0,0-15,0Z" transform="translate(-111.24 -40.5)"/>
                <path class="cls-8" d="M1185.59,671.21a7.52,7.52,0,0,0,15,0V605.5a7.52,7.52,0,0,0-15,0Z" transform="translate(-111.24 -40.5)"/>
              </g>
              <g>
                <path class="cls-7" d="M1231.55,673a6.57,6.57,0,1,0,13.13,0V605.34a6.57,6.57,0,0,0-13.13,0Z" transform="translate(-111.24 -40.5)"/>
                <path class="cls-8" d="M1231.55,673a6.57,6.57,0,1,0,13.13,0V605.34a6.57,6.57,0,0,0-13.13,0Z" transform="translate(-111.24 -40.5)"/>
              </g>
              <g>
                <path class="cls-9" d="M1185,673.49a8.47,8.47,0,0,0,16.94,0V649.36a8.47,8.47,0,0,0-16.94,0Z" transform="translate(-111.24 -40.5)"/>
                <path class="cls-8" d="M1185,673.49a8.47,8.47,0,0,0,16.94,0V649.36a8.47,8.47,0,0,0-16.94,0Z" transform="translate(-111.24 -40.5)"/>
              </g>
              <g>
                <path class="cls-9" d="M1231.21,647.2a6.91,6.91,0,0,0,13.81,0V616.66a6.91,6.91,0,0,0-13.81,0Z" transform="translate(-111.24 -40.5)"/>
                <path class="cls-8" d="M1231.21,647.2a6.91,6.91,0,0,0,13.81,0V616.66a6.91,6.91,0,0,0-13.81,0Z" transform="translate(-111.24 -40.5)"/>
              </g>
            </g>
          </g>
        </g>
      </g>
      <g>
        <rect class="cls-11" x="609.96" y="511.78" width="42.8" height="27.03"/>
        <rect class="cls-12" x="681.85" y="511.78" width="42.8" height="27.03"/>
        <rect class="cls-13" x="761.9" y="511.78" width="42.8" height="27.03"/>
      </g>
    </g>
    <g>
      <rect class="cls-14" x="0.5" y="512.47" width="128.04" height="353.11" rx="31.98"/>
      <g>
        <g>
          <circle class="cls-15" cx="64.52" cy="615.28" r="39.7"/>
          <circle class="cls-16" cx="64.52" cy="615.28" r="25.98"/>
          <circle class="cls-17" cx="64.52" cy="615.28" r="10.61"/>
        </g>
        <g>
          <circle class="cls-15" cx="64.52" cy="748.04" r="39.7"/>
          <circle class="cls-16" cx="64.52" cy="748.04" r="25.98"/>
          <circle class="cls-17" cx="64.52" cy="748.04" r="10.61"/>
        </g>
      </g>
    </g>
    <g>
      <rect class="cls-14" x="1277.71" y="512.47" width="128.04" height="353.11" rx="31.98"/>
      <g>
        <g>
          <circle class="cls-15" cx="1341.73" cy="615.28" r="39.7"/>
          <circle class="cls-16" cx="1341.73" cy="615.28" r="25.98"/>
          <circle class="cls-17" cx="1341.73" cy="615.28" r="10.61"/>
        </g>
        <g>
          <circle class="cls-15" cx="1341.73" cy="748.04" r="39.7"/>
          <circle class="cls-16" cx="1341.73" cy="748.04" r="25.98"/>
          <circle class="cls-17" cx="1341.73" cy="748.04" r="10.61"/>
        </g>
      </g>
    </g>
    <path id="rect11" class="cls-18" d="M1246.35,120.52c-5.46,0-11.16,0-16.42.07-1.58,0-3.13,6-4.62,6-8.58.07-15.28.12-16.69.07-5.16.2-4.52,11.67-4.58,11.81-.22,7.44.65,22.33,1.11,23a13.89,13.89,0,0,0,4.53,2.69c5.92.24,7.62-.18,8.43.46,0,.09,0,.19,0,.29a5.08,5.08,0,0,0-.59.35,3.49,3.49,0,0,0-1.72.34c-.55.33-.33,1.45-.42,1.93-1.4.65-.22,1,0,1.26.16.67-.25,1.89.94,2.12.39.08.8-.06,1.17.07-.08,1,.35.92.58,1.18.94,0,2.12-.21,2.38,0l-.45.09a3.31,3.31,0,0,0,.42.12,8.07,8.07,0,0,1,0,2,1.63,1.63,0,0,0,.11.81,2.77,2.77,0,0,1,0,.76c0,.15.09.35-.1.45l-.17-.08a7,7,0,0,0,1.43,4.08,1.93,1.93,0,0,0,.65.29c-1.15.36-1.87-.34-2.15.83a13.11,13.11,0,0,0-.05,1.8h0c0,1.1-.09,2.11-.2,3.28-1.25.37-27.52,2.9-27.67,2.64a5,5,0,0,0-.21-.48c0-.09.11-.2,0-.28s-.25-.43-.48-.58-.35,0-.53,0a1.71,1.71,0,0,0-1,.17,1,1,0,0,0-.6-.31,1.59,1.59,0,0,0-1.55.52c-.53.06-7,.81-7.66.87a6.27,6.27,0,0,1-.58-.29,1.28,1.28,0,0,0-1.4.36c-.24,0-.37-.23-.57-.33a9.51,9.51,0,0,0-1.42-.49c-5.08-1.51-5.15-1.73-7.65-1.61-27.13,2.57-43.32,6-43.32,6a4,4,0,0,0-2.21.16c-1.31.46-.2,0-2.43.12a5.17,5.17,0,0,0-1.28.41,5.67,5.67,0,0,0-2.67.07c-.25.07-.46.25-.74.22a4.36,4.36,0,0,0-2.92.3,12.72,12.72,0,0,0-2.42,0,3.06,3.06,0,0,0-.92.51l-.12,0a2.32,2.32,0,0,1,0,.46c0-.14,0-.32.07-.42-.09.52,1.2,8.12,1.19,8.15.48,2.45,3.16.85,3.78.88,1.74.33,1.71,0,3-.31.79-.07.75.45,3.09-.31.44-.18,1.39.28,1.49,0l0,.09a8.3,8.3,0,0,0,1.89-.54,3.32,3.32,0,0,0,2.69-.18,2.27,2.27,0,0,1,.68-.09c1.09.17,12.71-.25,12-.21,12.78-.63,21.83-1.51,22.48-1.59,11.8-1.15,9.47-.71,14.76-3.55.52-.31,1.07-.58,1.57-.91.34-.21.55-.52.9-.71a.78.78,0,0,0,.45.23,2.15,2.15,0,0,0,.91-.09c1-.53-1.59-.37,8-1.06a2.1,2.1,0,0,0,1,.3,11.11,11.11,0,0,0,1.17-.29c.49,0,1,0,1.46,0a3.25,3.25,0,0,0,.54-2.06l.15-.08c.1,0,9.38-1,9.66-1l.13,0c.94-.17,13.25-1.47,16.91-1.5a79.71,79.71,0,0,0-.41,8c0,.2.37.16.49.31-.07.29-.09.06-.08,6.16,0,.16.19.22.35.25a28.59,28.59,0,0,0,3.35.28c.07.2.08,41.23,0,41.45-7.27.07-7,.43-7.11,1.67s-.34,4-.47,4.27a3,3,0,0,0-1.13.39c-5.65-.17-4.1,0-4.64,1.12-.44-.16-.6-.58-1-.76-2.85-1.15-.38-.57-5.67-.64l0-.21c-.47-.2-16.71-3.22-17-3.54a.66.66,0,0,0-.41-.22c-2.59.16-2.22-.11-2.51.61,0,.08-.09.13-.19.13s-.18-.5-.47-1-1.1-.26-2.53-.33c-.18-.13-.31-.3-.49-.43-.38,0-4.42.3-8.59.5-.72,0-.83.64-.82,1.23a14.6,14.6,0,0,0,.53,4.88c.3.52,1.36.22,2.3.24a6.27,6.27,0,0,0,.75,0c6.6-.24,6.25,0,6.7-.78a6.76,6.76,0,0,0,2.41-.33c.46-.9,0-1.46.59-1.33.56,1.71.33,1.23,5.95,2.53,8.75,2.08,9.19,2.1,9.61,2.36.53.67.73,1.78,1.37,2.1a2,2,0,0,1,.2.82l-.25-.09a1.78,1.78,0,0,0,.07.39l.21-.07c0,.05,0,.11-.07.17a.63.63,0,0,0,.25.29.56.56,0,0,0-.56,0c-.08.14.11.19.22.25,8,0,7.77,0,8.11.06a8.76,8.76,0,0,1,0,2.05c-.47,1.86.06,1.42,0,2.08,0,2.3.67.89-3.93,8.06-20.16,31.29-16.27,27.38-19.11,26.24-2.59-1-3.19-.92-3.53-.33-.54.87-1.71,2.76-3.37,5.08a1.3,1.3,0,0,1-.15.6,2.8,2.8,0,0,0-.28.06,4.54,4.54,0,0,0-.73,1.2c.08.15.26.25.4.38-.09.13-.13.31-.29.4s-.38-.05-.57-.05-.73,1-.83,1.17c.11.16.31.27.43.42a.77.77,0,0,1-.28.39c-.21,0-.46-.13-.65,0a6.76,6.76,0,0,0-.69,1.12c0,.12.14.21.16.33-.32.31-.52-.05-1.21,1.26a.73.73,0,0,1-.4.41c.23.29-2.15,3.9-2.23,4a.54.54,0,0,0,.2.72c-1.09.49,0-.42-2.89,3.59a8.6,8.6,0,0,0-.49.74c.07.12.3.13.37.28a1.73,1.73,0,0,0-.56,0,6.37,6.37,0,0,0-.86,1.31,2,2,0,0,0,.06.48.4.4,0,0,1-.37.09,3.62,3.62,0,0,0-.82,1.2c.07.15.26.22.4.33a1.16,1.16,0,0,1-.31.53,2,2,0,0,1-.59-.1,4.63,4.63,0,0,0-.79,1.21,2.41,2.41,0,0,0,.44.33,3.1,3.1,0,0,1-.31.52l-.55-.1a2.64,2.64,0,0,0-.82,1.3l.21.15c-.26.39-.72.05-1.51,1.7.14.32-2,3.49-2.34,4-.49.73-.29.86,2.92,2.12.31.21,1.3.49,1.46.66a.81.81,0,0,0,.4.21,1.51,1.51,0,0,1,.12.26c-.1.12-1.06.54-6,7.48-1,1.42,0,2.38,1.35,3.43a10.19,10.19,0,0,0,6.35,1.91c4.61,0,5-1.63,5.72-2.88.49-1.87,2.53-4.68,2.39-6.23,1.62.47.82.12,3.56-3.71,9.55-15,9-13.53,8.55-14.34,1.07.2,1.63.76,2.31.28a9.84,9.84,0,0,0,1-1.21c9.37-11.07,7.29-10,9.48-9.61.83-.08,1.09-.84,1.64-1.58.11-.19,14.43-2.28,14.58-2.21s0,5.72.08,6.38a7.21,7.21,0,0,1,.11.92.92.92,0,0,0,.17.71c.87.94-2.84,4.71.23,6.57,2.12,1.29,6,.94,8.51,1,1.35,0,9.7-.13,10.5-1,.63-.69.16-1.82.28-5.43,0-.87.15-6.32,0-7.23-.06-.26.28-.39.42-.59a1.82,1.82,0,0,0,.33-.74c2.34-.76,1.42-1.21,1.79-1.81,1.69.22,22.49,2.61,22.49,2.61.55.62.81,1.54,1.92,1.44,1.94-.17-.69-2.5,10.8,9.83,1.08,1.29,1.29.47,2.69.11-.34,1.24,3.74,5.8,11.45,17,.42.56.66.31,1.19.33.07,2.21,2.7,4.33,2.7,6.15,0,3.42,11.59,3.45,12.77-1.95.18-.83-.21-.56-.71-1.31-.19-.19-5.63-6.62-5.65-6.68.84-.71,5.44-2.17,5.78-3,.1-.42-.23-.53-2.6-4-.15-.19-.08-.44-.24-.62-1.26-1.67-.7-.84-1.39-1.36.18-.34.28-.08-.37-1.05-.48-.66-.56-.15-.89-.3a2.2,2.2,0,0,1-.3-.4,1.42,1.42,0,0,1,.37-.31,4.94,4.94,0,0,0-.75-1.13c-.2-.15-.45.1-.66,0a2.55,2.55,0,0,1-.3-.43,1.44,1.44,0,0,0,.37-.41,10.69,10.69,0,0,0-.83-1.08c-.11,0-.24,0-.33-.07,0-.24,0-.49-.13-.7-1-1.28-.53-1-1.14-1.12l.29-.26c-3.42-4.56-2.75-3.8-3.42-4.11.47-.49.11-.66-.76-2-.19-.33-1.48-2.21-1.62-2.49l-.16,0a.6.6,0,0,0-.06-.37c-1-1.56-1-1-1.37-1.43,0-.08.09-.14.13-.21a7.72,7.72,0,0,0-.82-1.18c-.65.07-.29.38-.9-.4.14-.11.4-.18.38-.37a9.26,9.26,0,0,0-.73-1H1285c-.25.11-.34.28-.74-.45a.73.73,0,0,0,.42-.32c-.6-.79-.67-1.09-1-1.09s0-.29-.48-1a8.78,8.78,0,0,0-.6-.8c-.12-.12,0-.31-.24-.36-.26-.41-.59-.78-.87-1.18-.52-.74-1.43-2.73-2.64-2.67-.7,0-4.37,2.31-5.21,2.36-.64,0-.75-.6-1-.93s-8.67-12.38-9.25-13v-.14c-.35-.27-.44-.69-.78-1l0-.15s-5.53-7.85-5.58-7.91c-9-12.94-7.9-10.25-7.71-14.76,0-.24-.08-.57.23-.71,0-.17-.23-.33-.18-.52.84-.14.79-.64.68-1.41-.15-1.94.07-2.27-.47-2.67-.1-.09-.32-.11-.34-.25s.12-1.46-.18-1.83a9.05,9.05,0,0,0-.93-.25c-1.52,0-5.22,0-5.44-.2a2,2,0,0,1-.54-1.17c-.15-.53-.29-3.89-.41-4.9-.43-1.19-5.55-1-7-1.15,0-.17,0-41.21,0-41.37s1.14,0,3.27-.33c.15,0,.32,0,.46-.07.15-1.38,0-2.77.08-4.15a9.51,9.51,0,0,0,4.21-4.08,9,9,0,0,0,.65-2.34c-.09-3.57-.26-6.56-.34-10.75h0c0-1.5-.19-2.19-.9-2.36-.46-.24-.79-.09-1.31-.14.08-.1.19-.19.28-.29a6.46,6.46,0,0,0,.16-1.69c.8-.08,9.21,0,9.42,0s.16.06.18.12c.32,4.37-.15,3.47,4.11,3.5,7-.15,10.35-6.92,4.93-11-3-2.36-6.59-1.71-7.33-2a2.36,2.36,0,0,1,.57-.66v-.31h.18a.83.83,0,0,0-.55-.42c-.15-.05-.16-.08-.11-1.34l.16-.12a23.33,23.33,0,0,0,11.24-.39,10.79,10.79,0,0,0,3.41-1.44c.26,0,5.06,0,8.77.06,2.19.63,4.23-.42,6-1.5s1.56-3.84,1.8-4.29H1284l.07-.06a6.33,6.33,0,0,0,0-.87c0,.18,0,.36,0,.55a108.64,108.64,0,0,0-.13-12.85c-1-8.63,0-9.8-5.57-15.33-3.24-2.41-2.15-1.7-4.08-2.75-.15,0-1.38-.5-1.67-.55a28.78,28.78,0,0,0-3.94-.35c-.17,0-.33-1-.5-1-2.15-.09-4.9-.16-8-.2-.19,0-.38,1-.57,1-3,0-6.3-.06-9.76-.06C1248.7,126.52,1247.53,120.52,1246.35,120.52Zm-12.12,6.64h7.32a1.84,1.84,0,0,1,2,1.61v1.71a1.84,1.84,0,0,1-2,1.61h-7.32a1.84,1.84,0,0,1-2-1.61v-1.71A1.84,1.84,0,0,1,1234.23,127.16Zm16,44.92c.11.11.08.29.13.43a.51.51,0,0,0,0,.38c.07.09.11.24,0,.3s-.54,0-.81,0-2.56,0-2.69,0-3.34.05-3.47,0a2,2,0,0,1,.09-.74c2.2-.05,5.89-.32,5.89-.35C1249.6,172.05,1249.92,172.18,1250.23,172.08Zm-12.76,96.73c.2,0,.39,0,.58,0,.43,0,.86.07,1.29.06.16,0,11.57,16.06,11.5,16.46.45.19,12.86,18.08,13.16,18.52a16.42,16.42,0,0,1-2,.91c-4.39-.37-20.8-2.13-20.92-2.25s.08-.51-.11-.71c0,0-2.93-6.92-3.38-7.76a2.56,2.56,0,0,0-1.33-.64c-.19-.06-.49-.07-.56-.25,0-2.29.35-17.55,0-18.79,1.1-.76,1.58,1,1.42-5.54A.81.81,0,0,1,1237.47,268.81ZM1219.55,270a2,2,0,0,0,.65.19l.14.23c.06,3.65-.2,2.83.56,3.59h-.39c0,.13-1,10-1,10.27,0-.07,0-.15,0-.22,0,.29-.17,2.2-.17,2.47,0-.21,0-.41,0-.62-.19,3.13-.34,4.17-.34,4.17-4-.49-2.91,6.42-3,11A17.06,17.06,0,0,0,1216,303c-.79.31-12.91,1.88-13.58,2.06-.32,0-3,.39-3.17.43a4.74,4.74,0,0,1-1.45-.88C1197.85,304.49,1219.35,270.12,1219.55,270Z" transform="translate(-111.24 -40.5)"/>
    <g>
      <path class="cls-19" d="M679.12,219.6v-2c2.42-.47,2.16,1.43,2.27,3C680.47,220.41,680.26,219.6,679.12,219.6Z" transform="translate(-111.24 -40.5)"/>
      <path class="cls-19" d="M692.74,222.6a2.88,2.88,0,0,1-2.27-5C694.4,216.9,694.55,221.11,692.74,222.6Z" transform="translate(-111.24 -40.5)"/>
      <path class="cls-19" d="M689.34,222.6c-1.67-.87-3.6-1.5-3.41-4C687.59,219.47,689.53,220.1,689.34,222.6Z" transform="translate(-111.24 -40.5)"/>
      <path class="cls-19" d="M679.12,219.6c.62,2.22-2.17,1.42-2.27,3C674,222.19,676.78,218.72,679.12,219.6Z" transform="translate(-111.24 -40.5)"/>
      <path class="cls-19" d="M692.74,222.6q5.34-.69,4.54,4h-4.54Z" transform="translate(-111.24 -40.5)"/>
      <path class="cls-19" d="M681.39,223.6c4.49.32-.84,3.09,2.27,4C681.73,231.1,680.74,225.65,681.39,223.6Z" transform="translate(-111.24 -40.5)"/>
      <path class="cls-19" d="M1062.83,243.6c.39-1.21,3-.81,3.41,0C1067.27,245.76,1062.08,245.92,1062.83,243.6Z" transform="translate(-111.24 -40.5)"/>
      <path class="cls-19" d="M1048.07,246.6c3.31-1.47,3.31,4.47,0,3Z" transform="translate(-111.24 -40.5)"/>
      <path class="cls-19" d="M690.47,301.6c1.73,2.48,4.46,4.07,4.54,8C691.33,308.84,690.08,305.94,690.47,301.6Z" transform="translate(-111.24 -40.5)"/>
      <path class="cls-19" d="M685.93,308.6c1.52.66,2.11,2.14,2.27,4C686.2,312.36,685.61,310.88,685.93,308.6Z" transform="translate(-111.24 -40.5)"/>
      <path class="cls-19" d="M863,313.6c-2-.92-6.09,0-5.68-3C859,309.1,863.22,310.51,863,313.6Z" transform="translate(-111.24 -40.5)"/>
      <path class="cls-19" d="M861.89,318.6c-.36-1.77,6.36-1.79,4.54,1C864.4,319.73,864,318.38,861.89,318.6Z" transform="translate(-111.24 -40.5)"/>
      <path class="cls-19" d="M852.81,346.6c2.24.69,3,2.67,3.41,5-1.45,1.37-5.36,1.37-6.81,0-.49-2.09.77-2.65,1.13-4C853.48,349,854.11,350.83,852.81,346.6Z" transform="translate(-111.24 -40.5)"/>
      <path class="cls-19" d="M840.32,350.6c2.73-2.5,5.36,3.9,3.41-2,5.2-1.66,3.59,4.85,2.27,6C842.12,355,839.53,354.3,840.32,350.6Z" transform="translate(-111.24 -40.5)"/>
      <path class="cls-19" d="M1007.2,380.6c5.4,3.09-.79,10.58,0,16C1004.55,392.88,1008.75,386.65,1007.2,380.6Z" transform="translate(-111.24 -40.5)"/>
      <path class="cls-19" d="M731.34,388.6c-.83,1.78-2.06.14-3.41,0C728.76,386.82,730,388.46,731.34,388.6Z" transform="translate(-111.24 -40.5)"/>
      <path class="cls-19" d="M748.37,110.6c-1.51,1.67-4.39,2.13-3.41,6,5.48,1.49,2.36-4.59,6.81-4-1.53,3.78.46,4.86-2.27,8-2.92-.24,1.56-1.72,0-4-7.73,2.32,2,17.6-13.62,16-4.41,7.45-.22,13.48,4.54,18,2.58,3.59-3,2.76-4.54,5-2,2.86,0,8.41-5.67,9,1.49,4.92.87,10,0,15-3.59-.49-4,1.8-8,1,4.73,1.86,6.24,9.53,5.67,13-1.57-2.69-3.21-1.47-4.54,1-2-.73-.16-1.82,0-3-3.29.18-2.73,4.75,1.14,4a8.21,8.21,0,0,1-3.41,2c10.21,8.34,11.88,24.21,21.57,33,14.65-9.43,12.08-34,21.57-48-3.59-5.17-15.28-3.2-19.3-8,0-22.4,20.43-7.08,28.38-1,14.13-4.82,30,3.58,31.79,16,2-.13,2.4,1.22,4.54,1,1.08-8.23,1-24.75,8-31,7.39-1.06,18.42-10.2,23.84-1,2.73.41,2.47-1.83,5.68-1,3,4.05,5.22,8.73,10.21,11,2.33,13.4,6.08,29.61-4.54,37v5c3.24,3.16,10.8,7.79,9.08,12,2.76,4.23,7.76,6.5,9.09,12-5.26,0-3.65-6.12-6.82-8-1.34,8.2,3.76,19.35,6.82,27,.49-2.8-.35-13,0-19,4.27.9,4.29,5.55,4.54,10,6.2,7.87,7.7,19.88,11.35,30,9-8.06,14.55-19.18,25-26,.75-8.34-1.5-19.32,1.14-26-1.14-1.38-1.87.43-3.41-2-1.35-6.94,3.93-10.81,1.14-16-8.59-1.63-16.34,3.09-26.11,0a8.8,8.8,0,0,1,1.13-10c14.07-.72,20.76,5.05,35.2,4-.51,4.22-4.88,5-3.41,11,.17,1.85,3.85.61,4.54,2,1.53,11.12-2.72,22.12,0,31,4.82-3.12,11.72-3.38,13.62-10,2.53-8.75-5.75-20.38-1.13-30,3.72-7.76,13.06-6.4,23.84-11,4.15,1.77,7.78,4.21,11.35,4,2.09,4.65,5.26,10.94,1.14,17,.35,1.36,2.84.83,4.54,1-1.52,9-6.58,14.87-9.08,23,1,2.46,5,2.24,4.54,6,12.23,1.56,11.19,14.81,18.16,21-2.41,8.12,5.19,7.43,4.54,14,17.67-8.11,32.37-18.82,49.95-27,1.82-5.89-1.68-10.27,2.27-14,4.12,3.53,5.56.06,9.08-2,4.35,2,9.36-.6,13.63-4,5.72,2.29,10.54,5.38,13.62,10-1.15,2.65-1.87,5.69-5.68,6,1.06-2.4,4.57-2.65,3.41-7-1.48-2.76-6.14-2-9.08-1v-6c-2.37-.42-3,.69-4.54,1-1.65,3.78,3.12,1.92,2.27,5-3.88.42-6.47-.3-5.68-4-2.51.12-.48,4.24-1.13,6-3.21-.83-3,1.41-5.68,1v-5c-6.19-.47-1.33,5.81-3.41,7-4.94-1-5.22,2.07-7.94,3a5.12,5.12,0,0,1,1.13,4c-13.7,9.35-35.08,19.74-51.08,29-5.41,3.13-14.3,6.35-14.76,13-2.74-.41-2.47,1.83-5.68,1-.46,2.41,2.08,2.17,1.14,5-5,.16-8.25,4.73-11.35,1,1,7.75,8.76,9.61,12.48,15,1-2.45,5.53-1.79,6.81-4,2.64,1.5,1.74,2.44,1.14,5,2-.91,3.94-1.86,3.41-5-2.94-3.16-7.12,1-10.22,1-4.19-.65-6-3.42-6.81-7,15.4-9.1,29.06-19.73,45.41-28,.82-2.28,1-5.11,2.27-7,1.83-.28,2,.94,3.4,1,2.18-1.29-2.68-2.07,0-5,7.16-.57,5.33-3.35,11.36-4,2,2.22,4.47,4.06,3.4,9,2.07-1.24,2.27-9.27-2.27-8,8.24,1.54,14.49-11.81,23.84-6a72.7,72.7,0,0,0,10.22-10c4.8-.78,9.92,1.33,2.27,1a74.83,74.83,0,0,0-11.35,11c-9.51-3.55-22.08,1.73-20.44,14-5.88,2.16-6.43,9-9.08,14-14.14,7.21-25.75,16.65-48.82,16-1.85,2-2.38,5.23-4.54,7,4.94,0,6.33-3.09,12.49-2,4.1,8.51-6.27,11.4-12.49,14,2,9.27,10.47,12.78,12.49,22a8.21,8.21,0,0,0,3.41,2c5,11.29,10.26,22.29,14.75,34-4.87-3-4.45-10.74-9.08-14-.58-12.82-10.51-17.41-13.62-28-1.12-1.35-3-2-4.54-3v-4c-.17-1.85-3.85-.61-4.54-2,.91-3.47-1.69-3.84-1.14-7-7.92-.65-9.84,4-9.08,11,.3,3.74,9.4-.28,9.08,4-2.06-1.53-9.28-1.53-11.35,0-.5,5.11,8,2.26,12.49,3,5.33,1.24-14.34,2.29-14.76-1-5.29,11.22,10.56,12.5,12.49,18,3.24-.52-1.84-1.48-2.27-2,2.36-3,4.62,2.51,7.94,2-1.24.36-4.75,4.38,0,4-7.85,1.57-12.71-8.13-18.16-12-1.35,6.12,7.09,11.26,11.35,17,4.16,5.59,10.51,12,11.35,21,1,2.8,5.91,2.13,7.95,4-1.64.25-10.44.12-5.68,5-1.42-1.45-24.28-5.15-27.24,1-1-21.28-4.7-41.32,0-60-3.8,5.66-14.72,11.1-23.84,6-.67-3.51,5.37-3.29,2.27-6-6.19-1.58-1.2,4.15-3.41,4-5.52.53-5.31-4-9.08-5-2.61,5.13,3.64,6.84,4.54,10,.3,1-2.24,1.79-2.27,3-.09,4.09,5,7.4,5.68,13-1.32-.16-2,.22-2.27,1,2.79,9.2,5.76,18.25,4.54,31h-19.3c-2.61-14.7-.4-33.64-1.14-50-3.37,14.36,1.1,35.63-2.27,50-4.81.76-13.44-1.84-14.75,2-8.9-4.49-27.92-.08-38.6-3-1.33.16-1,1.82-1.14,3-5.81-.72-20.33-3.44-21.57,1-4.59-6.29-21.74-1.51-31.78-3-1.33.16-1,1.82-1.14,3-.1-1.78-9.48-3.09-6.81-1-3.28,2.83-5.31-3.94-6.81-6-5.9-7.47-12.22-14.57-17-23-5.55-5.11-11.49-9.88-13.62-18-7.24-1.38-17.89,3.24-26.11,1-2.58,1.06-.44,6.29-1.14,9,3.84-1.29,3.11-6.6,7.95-7-.34,2-3.07,2-3.41,4,1,2.7,2.74-2.11,3.41-3,4.65,3.84-5.37,3.21-3.41,8,5.61-2.4,8.88-6.84,13.62-10-2.09,6.94-15.07,9.4-19.29,16,5.69,4.47,14.25-4.38,25-2-6,3.47-17.92,7.51-25,4-1.88,1-1.24,4.25-2.28,6,2.57,3.4,7,5.17,11.36,7,1.29-.19.63-1,0-1,3.18-.77,12.83,1.34,17,3h10.21c3.62,1.38-4,1-5.67,1h-19.3c-4.09-3.06-10-4.53-13.63-8-4.42,4.95,3,8,4.55,11-2.08,2.4-3.36-4.31-6.82-4-4.09,2.39-2.27,10-5.67,13-6.28-1.47.54-6,1.13-8,2-6.91,3.6-16,5.68-23,7.44-1.6,2.11-8.24,3.41-15-3.28-2.78-9.91-2.6-15.9-3-2.61-.37-1.08-4.38-4.54-4-1.68.44.45,1.28,0,3-2.68-5.49-7.19.07-12.49-2a5.92,5.92,0,0,1,1.14-5c-4,.45-2.32,4.3-3.41,5-6.46.69-9.43-1.69-15.89-1-3,3.26-.94,5.61-5.68,8,4,.8,3.82,5.3,4.54,9-1.63-.23-.39-3-2.27-3,.89,5.2,5,14.44,0,20,.5,1.48,1.46-.4,3.41,0-.88,6.11,1.49,9.36,1.13,15-3.54-1.1-3.62-1-3.4,3-3.34-9.71-5.33-32.46-4.54-51-8.36,1-9.08,8.67-13.62,13,3.28,6.63.27,13.27,2.27,20,4.35.17,2.45-5.17,6.81-5,.18,7.33-8.75,10.26-4.54,18,2.42-1.54,3.28-4.44,4.54-7,2,3.42-3.77,8.65-4.54,13-10.36-3.73-32.54-2.52-43.14,0,17-26.64,40.21-47.91,56.76-75-6.84,1.24-9.17,7.94-12.49,12-3.64,4.46-8.8,8.3-10.22,14-15.21,13.6-23.76,33.07-39.73,46v-14c4.21-.62,11.68,1.63,12.49-2-1.94-2.29-8.67-.37-12.49-1v-9H636c-3.17-4.21-14.76-1-21.57-2v-6h25c12-8.74,17.76-23,23.84-37-30.14-12.82-63.3-19.51-85.15-41,.89-20.55,15.52-29,21.57-45,12.08-9.7,18.45-24.42,23.84-40-5-1.29-7-5.15-11.35-7-.38-3.67,1.74-5.13,4.54-6-1.77-1.44-3.95-2.52-4.54-5,3.61-6.73-1.46-10.38,1.14-18a5.82,5.82,0,0,0,3.4,1v-6a2.8,2.8,0,0,0-2.27,3c-3.44-4.74,7.48-5.39,6.81-11,2.4,1.33,3.36-.49,6.81,1-.64-.93-3.15-1.52-1.13-2-.13-2.45-3.75-.21-3.41,1-3.5-1.86,4-5.49,5.68-3,4.82-1.76,2.93-9.42,10.22-9,1.16-5.17.41-6.5,0-12,3.4-1,4.72-3.84,7.94-5,0-2.36-2-2.94-1.13-6,3.57-2,6.26-1.83,7.94-7q3.72-.27,3.41,3c3.21-11.51,16.53-14.1,26.11-20,9.4.61,17-.33,22.71-3,3.29,1.1,7.67,1.24,7.94,5,1.09-1.71,3.77-2,4.54-4,5.33,2,13.28,1.64,14.76,7,4.75-3.2,7.51,2.25,11.35,3C745.74,103.8,745.08,106.14,748.37,110.6Zm-4.54,14C739,130.08,746.67,128.29,743.83,124.6Zm-18.17,112c-2.49-13.47-4.12-27.7-10.21-38-3.86.06-6.24-1.17-8-3-2.94,1.28.87,6-1.13,6-4.32.8-1.45-4.73-2.28-7,5.81-3.56,3.25-14.48,9.09-18,4.06,1.42,8.11,2.86,13.62,3,.24-1.12,1.26-1.56,2.27-2-.42-4.62-1.4-5.76,0-10-2.9-1.72-4,1.15-5.68-1-.48-5.09.51-8.89,3.41-11,.19,1.5-.41,3.69,1.13,4-.19-2.17,4-.45,5.68-1,1.12-5.28,1.21-3.78-2.27-5,1.94-3,4.13-1.11,7.95-1-1.22-6.4-11.36-8.67-6.81-17-2.15-.22-2.51,1.13-4.55,1-1.64,3.78,3.12,1.92,2.28,5-3.58-.48-2.57,3.07-6.82,2a26,26,0,0,0-4.54-4c3.6-.83,5.77-2.92,7.95-5-3.83-1-7.76,3.06-10.22,0,2.7-1.62,6.53-2.25,9.08-4-6.47,1.79-11.48-1.34-14.75,3,3.41-.37-1.73,7.36-6.82,6,1.5,3.1-.3,2.85,0,7,1.34.16,3.23-.17,3.41,1-5.3.11.81,1.83,1.14,3-1.45,2.06-1.81,5.07-5.68,5-.17-1.33,4.62-3,1.13-4-.36,1.16-3.51,4.71-4.54,2-1.4-3.24,3.68-.76,2.27-4-4.13-3.35-10.81-4.47-12.48-10h-6.81c-.33,7.62,1,13.78,6.81,16a2.8,2.8,0,0,1,2.27-3,111.23,111.23,0,0,1,9.08,22c-2.7,2.61-4,8.4-9.08,6,.46,6.41-8.05,4.91-12.49,7,4.52,7.35,18.38,6.48,22.7,14-6.48-3.64-17.43-8.63-22.7-10C693.56,207.55,712.18,219.82,725.66,236.6Zm-21.57-87C700.22,144.33,701.74,151.5,704.09,149.6Zm-9.08,17c-1.17,2.81-.55,7.93,1.14,11C700,174.25,699.91,169.24,695,166.6Zm53.36,68c-.88-.22-2.24,0-2.27-1,4.84-2,12.76-8.8,7.95-13-3.67,4.44-7.73,8.53-10.22,14C745.94,233.64,747.62,237.6,748.37,234.6Zm18.16-54c1.33.17,1.24,1.58,1.14,3-3.57-1.15-2.76,1.57-4.54,2-.34,9.71-7.6,18.63-5.68,27,1.18-1.38,4.5-5.93,5.68-4,.85,3.08-3.92,1.22-2.27,5,3.4,2.71,5.67-1.65,6.81-4-1.69-1.18-5.07-.87-4.54-4,5.07-7.72,7.27-16.94,10.21-22,3.23,1.09,8.95,7.45,12.49,2-3.19-1.52-6.78-2.7-7.94-6C771,180.43,770.15,180.62,766.53,180.6Zm8-2c.17-4.62-5.78-6.25-6.81-2,2.31.3,3,2,4.54,3C772.46,178.82,773.16,178.44,774.48,178.6Zm78.33,35c.23,3.13-.76,7.34,1.14,9,3.7.26,3.28-3.11,5.67-4C856.83,217.39,856.59,213.94,852.81,213.6Zm36.33,75c-6.76-12.71-5.74-32.28-15.89-42,.81,6.51,3.92,10.94-1.14,15,3.7,9.07,7.07,18.44,11.35,27-5.22,2.75-10.55,10.68-6.81,18,11.18-3.82,24.64-5.63,35.19-10-4.56.09-9.11-4.2-18.16-3C895.17,289.29,890.46,290.44,889.14,288.6Zm72.65-93c-6.46-2.7-16.4,1.82-22.7,4-.15,7-7.14,11.67-3.41,19,3.44-1.17,6.09-3,10.22-1,1.06-11,11-10.12,17-15,4.82,1.14,5.27.49,6.81-3-2-.6-4.71,2.93-5.67,0,2.63.87,2.61-5.09,1.13-2C961.14,202.22,963.93,196.49,961.79,195.6Zm69.25,80c-1.56-1.29-1.12-4.34-1.13-7-2.82,1.3-5.51-2.23-5.68,0,2.5.8,4.53,2,4.54,5-.15,1.86-.74,3.34-2.27,4-2.31-.63-.32-5.05-4.54-4-.58,5,1.11,14.48-4.54,12,1.66,6.91,8.48-.78,12.49-1-.38-7.67,6.54-8.91,4.54-18-1.44-.2-5.56-2.91-5.68-1C1033.25,265,1033.21,273.62,1031,275.6ZM955,334.6c0,2.38-5.08,5.42-3.4,6C953.17,339.58,957.56,336,955,334.6Zm-22.7,0c-8.1-.86-9.27-7.84-14.76-11C920,328.46,925.55,340,932.28,334.6Zm-15.89-7v32h11.35C923.91,349,924.41,334.53,916.39,327.6Zm-299.71-137c-.48-1.91-.41-4.3-3.4-4C613,189.22,613.69,190.9,616.68,190.6Zm-1.13-21c-.51-1.89,1.54-6-2.27-5C613.11,167.08,613.06,169.45,615.55,169.6Zm32.92-57c-.36,1.35-1.62,1.91-1.14,4C650.49,118.2,650.47,112.28,648.47,112.6ZM737,97.6c1.5-2.77-4.49-3.43-1.14-2C735.79,97,736.13,99.42,737,97.6Zm-28.38,27c1.47-1.33,1.49-3.72-1.14-4C707.69,122.1,707.09,124.29,708.64,124.6Zm20.43-3C731.82,126.74,732,118.16,729.07,121.6Zm-6.81,1C718.43,119.56,718.82,126.3,722.26,122.6Zm-84,18c.27-1.43,1.87-1.69,2.27-3-2.15.22-2.5-1.13-4.54-1C635.66,138.88,636.25,140.36,638.25,140.6Zm3.41,1a3.13,3.13,0,0,0,3.4-2A3.13,3.13,0,0,0,641.66,141.6ZM821,180.6c1-3.81,7.56-2.68,10.22-5,1,2.44,2.65,4.34,2.27,8-4.51-1.48-7.8,2.13-13.62,0-2.52,5.6,1.32,8.78,5.68,11,3.15-4.56,5.77-9.58,13.62-10,.85,4.48,8.51,1.42,10.22,7,7.6-9.33-2.45-17.12-5.68-27-6.41,1.69-3.17,11.88-13.62,10,.16-1.18,2-2.27,0-3C828,174.8,818.86,177,821,180.6Zm-203.2-12c3.31,1.47,3.31-4.47,0-3Zm145.31,6c2.84.17,3.55-1.54,4.54-3a7,7,0,0,1-4.54-1Zm25,5c.46-1.93,4.4-.79,3.41-4-6.36,2.22-6.67-6.06-11.35-2,4.12,1.19-4.67,4.33,0,6C779.78,173.48,787.88,175.47,788.1,179.6Zm-141.9,4h2.27v-2H646.2Zm1.13-4c-1.21-1.16-5.23-.37-6.81,1,2.26,0,1.44,2.73,4.54,2C645.33,181.17,646.93,180.91,647.33,179.6Zm11.36,2c1.13,0,1.35.81,2.27,1,0-1,.92-1.19,1.13-2-1.14,0-1.35-.81-2.27-1C659.82,180.6,658.9,180.79,658.69,181.6Zm10.21-1C665.08,177.56,665.46,184.3,668.9,180.6Zm119.2,3c3.5-.7,2.18-.7,5.68,0a2.81,2.81,0,0,0-2.27-3C791.38,182.49,787.75,181.29,788.1,183.6Zm-147.58,16c1.66.87,3.6,1.5,3.41,4-5.81-1.61-6.78,7.28-12.49,5-1.3,4.15,2.39,3.9,2.27,7-1.14,0-1.35.81-2.27,1-1.62-.24-1.92-1.65-3.41-2-1.81.74.26,4.89-3.4,4-1.24,4.43,1.92,5,2.27,8-2.85.82-5.28,2-6.81,4,6.26.84-1.18,8.32-3.41,5,1.88,2.34,3.27,5.12,5.68,7,.35-3-1.26-7.78,2.27-8a2.78,2.78,0,0,1,2.27,3c-1.64-1.12-2.77-1.08-3.41,1a7,7,0,0,1,4.54,1c1.86-5.59-.4-8.71,4.54-11-2.2-4.73,2.19-3.25-1.13-7,5-.9,3.68-7.42,9.08-8-2.22.48-3.66-4.58-1.13-5s1.26,2.89,3.4,3c3.19-2.71.9-2.49,0-6,2.4-.89,3.36-3,6.81-3,.85-3.08-3.11-1.92-2.27-5,3.71.26,2.41-3.88,5.68-4,1.66,0,3.6,4.22,3.4,0,3.51-1-3.26-.95-2.27-3-.39-3,4.25-6.91,0-9,.15,1.79-1.12,2.34-3.4,2,2.37,5.13-3.15,3-4.54,4-2.86,2-2,5.34-3.41,7,2.68,0,3.34-1.72,6.81-1v2C646.41,196.78,643.11,197.88,640.52,199.6ZM804,186.6c-1.92-.73-5.22-5.3-8-2C798.8,184.59,800.73,190.37,804,186.6Zm50,5c3.23.14,4.34-5.07,1.13-5A5.89,5.89,0,0,1,854,191.6Zm-82.88,3c1.34.16,3.23-.17,3.41,1-3.7-.26-3.28,3.11-5.68,4,1.06,1.07,4.19.31,3.41,3-2.77-.65-5.84-2-5.68,2,2.85,2.39,3.81-2.53,8-2,0,2.65.63,5.89-2.27,6,1.09-3-5.58-.92-5.68-1,1.33,1.49,4.72,1.18,4.54,4-3.14,7.53-9.8,13-11.35,17,.34-.89,3.07-4.38,3.41-2-1.55,1.27-1.76,4.9,1.13,5,.21-1.48,2.75-.92,4.54-1a46.71,46.71,0,0,1,3.41-11C770,237,768.43,254.94,762,268.6c2.51.12.48,4.24,1.14,6-4.52,5-4,14.47-9.08,19,.6-2.9-4.43,1.53-1.14,1,2.66-.49.22,10.5-3.41,11h-9.08c6.07,11.66,9,26.11,13.63,39,3.74,1.7,8.17,2.8,7.94,8,13.2-3.37,22.17-10.47,32.92-16,.66-3.91-1-5.81-2.27-8,4.27-1.58,4.86-6.39,5.68-11-10.94,0-17.24-6.14-13.62-16-4.86-4.06-8.46-9.22-12.49-14,2.9-26,4.63-60.58,23.84-73,4.87-3.15,20.94-.87,18.16-9-9.21,4.43-12.26-5.18-18.16-7-9.68,1.14-9.74,10.75-19.3,12,.2,4.18-3.52,4.9-4.54,8,2.15-11.11,14.35-13.36,20.43-21-2.26-1-1.79-4.42-5.67-4-1.56,1.76-5.51,4-8,2,1,2.51,2.18,6.86-2.27,7-1.27-.21-1.77-1.11-2.27-2,.42-7.13,4.49-4.83,6.81-10-4.07-.59-5.49,1.16-7.95,2,.32-1.5,4.89-4.21,2.28-5A37.41,37.41,0,0,0,771.07,194.6Zm-139.63-2c2.62-.31,1.26,2.89,3.4,3-.52-3.94,2.38-5.19-1.13-7C635,191.75,631.93,191,631.44,192.6Zm186.18,0c-.34-.89-2.27-5.08-3.41-2C816.54,189.73,816.48,195.69,817.62,192.6Zm-19.3,3c-1.66,0-3.6-4.22-3.41,0,3.33.9,3.49.9,6.82,0,1,5.11,6.68,6.11,11.35,8-2.12.14-3.8.66-4.54,2,4.86.62,4.63-3.26,9.08-3,.71-3-1-9-3.41-6,2.48.15,2.44,2.52,2.27,5-1.45.05-1.57,1.28-3.4,1-.36-2.35-1.8-3.75-1.14-7-3.29-.77-6.53-1.58-7.94-4,.63,0,1.28-.81,0-1C801.4,191.64,800.84,194.49,798.32,195.6Zm46.54,1a7.08,7.08,0,0,0-2.27-3c-2.34,3.21-6.52,3.27-11.35,2,.38,2.33,1.17,4.31,3.41,5,1.38-3.12,6-3.37,9.08-5C843.68,196.66,844.26,198.14,844.86,196.6Zm-172.55,2c1.61,4-.64,4.56,2.27,5-.24,1.12-1.26,1.56-2.27,2-1.21-.93-.36-3.69-3.41-3,2.46,2.9-2.06,5.75,2.27,7-.08-3.41,3.34-3.73,5.68-5-.48-4-1.73-7.88-2.27-7C674.33,198.38,673.63,198.76,672.31,198.6Zm128.28,0Zm-165.75,3c.31-1.36-.7-3.9-1.13-2C633.4,201,634.41,203.5,634.84,201.6Zm1.14,1h2.27v-2H636Zm198.67,14c-1.35,7.18,3,9.34,4.54,14h12.49c1.9-2.17,1.82-9-1.14-10-.26,1.77,1.15,5-2.27,4-1.09-7.63,1.54-12,2.27-18-4.81,4.11-21,6.71-25,0C826.08,212.15,832.52,212.47,834.65,216.6Zm-17-11v2c-.69.06-1.35.15-1.14,1,4.89.69,5.23,5.39,9.09,7a5.92,5.92,0,0,0,1.13-5C822.11,210.31,822.4,205.73,817.62,205.6Zm136.23,5c-1.56,2.63-4.78,3.79-5.68,7,6.23-3.08,13.65-2.46,20.44-3-1.33-3.17-.91-7.87-4.54-9C963.46,209.56,955.78,214,953.85,210.6ZM703,219.6c1.32.17,1.23,1.58,1.13,3h-4.54c-.62-1.45,1.33-5.17-1.13-5-2.85,2.11-4.22-5.58-7.95-6,.61,3.54-1,5.15-3.4,6-.28-1.43-1.87-1.69-2.27-3h4.54a5.89,5.89,0,0,1,1.13-5c-4.22-1-2.22,3.37-4.54,4a2.8,2.8,0,0,0-2.27-3c-.13,2.55-2.08,3.5-3.41,5-.25-1.89,1.28-2.21,1.14-4-3.17,1.59-9.28,6-4.54,6-.73,2-5.31.66-5.68,3,3.31,2.06,4.28,3.22,9.08,2-5,5,5.2,7.87,1.14,12,5.2-3.69,6.56,1.34,10.22,0-2.55-2.09-4.17-5-5.68-8,3.87.4,1.87,3.08,4.54,0v4c4.53.55,3.42.55,7.95,0-.35-2.33-2.43-4.31,1.13-5,1.82,1.45,7.58,4.58,4.54,7-.12-1.22-.33-2.37-2.27-2-1.77,1.69,1.46,4.59,2.27,7,.26-.78,0-2,1.14-2a5.08,5.08,0,0,1-1.14,4h3.41c-.12-1.12,1.65-1.56,0-2-.06.61-.17,1.18-1.13,1,2.44-5.47,1.41-8,1.13-12-2-.4-2.91,1.48-3.41,0C706.88,226,704.9,216,703,219.6Zm212.29,0c-1.09-3,2.43-10.14-2.27-10C914.07,212.64,910.55,219.74,915.25,219.6Zm-107.85-5c3,.87,6.89-2.44,4.54-3C811.64,213.66,806.91,211.84,807.4,214.6Zm-131.69-1C669.24,211.86,671.57,217,675.71,213.6Zm245.22,4c.15-1.31.17-7.24-1.14-4C919.64,214.91,919.62,220.84,920.93,217.6Zm-160.07-2Zm28.38,10c7.1-1.75,7.34-9.53,14.76-11C795.62,215.22,793.09,221,789.24,225.6Zm11.35,7c-.85-3.29-7.29-6.86-10.22-5C795.05,228.15,797,231.08,800.59,232.6Zm7.95,9c-5.56-5.78-10.67-11.94-21.57-13-1.5,4.5-4.54,8.29-5.68,11-2.95,7-3.31,22.23-4.54,33-.51,4.44-2.66,9.7-2.27,12,1.35,8.1,11.63,17.39,20.43,17,7.22,5.2,23.44,10.1,34.06,6,1.35-3.15,2.23-6.71,4.54-9,.92,5.48-3.39,6.34-3.4,11,6.74-4.73,8.59,2.82,13.62,1-3-3.65,1.22-9.56,2.27-13-3.3-1.1-8.06-.9-11.35-2-2.75,2.28-7.42,8.09-12.49,5,2.07-2.6,11-.48,11.35-7-1.44-2.39-3.7-4.07-7.94-4-5,4.6-10,9.22-17,12-3,0-7.12.93-5.68-3,7.6,4.43,16.58-4.73,20.44-10-5.77-1.53-7.73-4.88-11.36-6,2.87-5.56-1.8-6-4.54-9C811.31,266.08,808.36,253.22,808.54,241.6ZM787,301.6c-1.18,2.63-1.36,6.14-1.14,10,2.85.55,7.48,4.67,9.08,3-3.67-1.15,3.05-1.13,4.55-1,.87-3.77-1.39-4.78-1.14-8C792.5,306.06,791.35,302.41,787,301.6Zm21.57,9c3.16.31,8.5,4.43,10.21,0C817.32,309.45,809.81,308.59,808.54,310.6Zm36.32-5C841.92,313.58,848.28,298.93,844.86,305.6Zm-26.11-20c12.09,2.68,21.64,7.61,31.79,12-1.09-16.71-.95-34.49-6.81-47-.68,2.07,1.4,6.57-1.14,7,0-4.52-5.25-.32-6.81,0,.33,6-1.38,13.89,3.41,16,8.78-1.07,2.3-9.39,5.67-15a94.52,94.52,0,0,0,2.28,13c-8.15,3.42-14.4,6-23.84,2h10.21c.51-5.78-.47-10.25-1.13-15-4.55.15-8.21-4-12.49-1-.2,5.2,3.46,12.25,1.13,16-1.2-6.94-2.85-13.49-2.27-22-5.9,2.13-5.5,9.82-9.08,14,5.11,1.36.82,10.9,4.54,9,.63-1,11.14,6,13.63,10-3.25-3.14-9.42-3.71-12.49-7a5.12,5.12,0,0,1-1.14,4C818,280.91,818.37,283.28,818.75,285.6Zm2.27-35c1-2-1-6.21-2.27-3,2.68,1,1,5.77,3.41,7-.68-6.16,5.73.49,9.08,0,1-5.91,3-.68,5.68,0,.25-.78,1-1.16,2.27-1,3.24-13.1-10.53-8.07-17-9,4.19-1.64,10.68-1.26,15.89-2-4.54-8.4-13.66-15-15.89-28-10.8-1.85-11.2,5.47-21.57,4-1,3.16-3.58,4.84-4.54,8,4.4,3.79,11.22,5.45,12.49,12,4.47,1.6.39-4.32,3.4-4,2,8.62-5.38,16.1,1.14,20,2.07-4.51,3-10,7.94-12C820.37,245.27,824.39,248.85,821,250.6Zm-63.57-32h2.27v-2h-2.27Zm81.74,20c.46-10.41-9.69-11.47-9.08-22-8.47,5.14,9,16.33,2.27,17C836.16,233.94,836.4,237.39,839.19,238.6Zm-198.67-18h2.27v-2h-2.27Zm303.11,8c1.27,4.79-2.8,4.87-3.4,8,4.76,7.68,3.2,10.11,3.4,20,4.15,2.79,19,3.62,21.57-1,.29-5.93-2.34-9.27-4.54-13,.17,2.48.21,4.85-2.27,5-3.09-3,.78-6,1.13-9-2.86-.81-4.51-2.69-6.81-4,4.52-.26,14.48,4.17,13.63-3-3.73,1.67-6.7.1-6.82-4h4.55c-.14-2.54-1.66-3.88-4.55-4,.32,2.28-.27,3.76-2.27,4-1.92-3.64-4.51-6.69-9.08-8-3.59-.49-.42,5-4.54,4,1-2.51,1.49-5.36-3.4-5,0,4.74,3.49,8,5.67,8,.93,3.52,3.12,5.92,5.68,8C946.25,235,946.45,230.45,943.63,228.6Zm21.57-5c2.52-.42,1.09-5.48-1.13-5C963.19,219.28,961.11,224.56,965.2,223.6Zm-236.13,3c3.79,1.86,4.78-3.6,2.27-4C732.17,225.33,729.08,224.61,729.07,226.6Zm-56.76-1h2.27v-2h-2.27Zm245.21,18c5.39-3.89.22-12.71,1.14-19-.26-.78-.95-1.16-2.27-1C917.13,229.94,914.89,238.92,917.52,243.6ZM712,230.6c-3.55-1.38,4.81-5-1.13-6C711.37,227.27,708,233.52,712,230.6ZM913,327.6c-.46,3.61,2.07,1.37,1.13-1v-6c4.26-5.17.73-10.48,0-15-3.8-23.67,2.8-54.86,1.14-79-.25-.78-1-1.16-2.27-1C913.51,259.88,912.17,296.22,913,327.6Zm-51.09-88c-1.63-3.23-2.17-7.42-3.4-11-1.46-3.1-1.46,2.84,0,3-1.57,3.18.89,10.21,3.4,13ZM670,235.6c.66-2.85,4.2-5.08-1.14-6C669.55,231.36,667.53,235.48,670,235.6Zm67-2c-.69-2.07-1.76-3.79-5.68-3C731.08,232.93,737.74,234.16,737,233.6Zm-119.2,37a122.47,122.47,0,0,0,52.22,32c3.13-5.24-.81-9.55-2.27-14-5.77-17.47-14.91-33.57-23.84-49-.25-.78-.95-1.16-2.27-1C636.3,251.54,622.94,257.44,617.82,270.6Zm122.6-30c-6.54,3.57-9.83,10-14.76,15-1-4.23,6.13-6.53,3.41-9-3,5.5-7.51,8.59-6.81,15-9.49,6.64-13.33,18.26-22.71,25,.08,5.73-6,6-5.67,12,2.38,1.8,6-1.38,5.67-5,4.59-2.11,7.48-7.66,9.09-11,.55-1.16,3.65-1.81,4.54-3,1.9-2.55,2.8-7,4.54-9,.53-.61,2.95-.44,3.4-1,1.33-1.66.93-4.16,2.27-6,.54-.73,2.83-.37,3.41-1s-.51-2.35,0-3c3.22-4.17,9.75-7.64,10.22-13,3.42-.69,7.07-6.38,5.67-8-1,.86-8.51.09-5.67,3C737.14,240.8,740.77,238.57,740.42,240.6Zm307.65,2c.32-2.28-.27-3.76-2.27-4C1046.06,240.37,1044.66,243.61,1048.07,242.6Zm-439.34,13c.14,1-4.89,2-1.13,3,.36-2.35,3.51-2.24,4.54-4-1.34-.16-3.22.17-3.41-1v-3h4.55c.15,1.86.74,3.34,2.27,4,2.27-2,.29-2.66-1.14-4,3.23.23,5.19-11.14,1.14-8,1.32.17,1.23,1.58,1.13,3-5.83,1.51-17.51,4.41-12.49,7,.17,2.81-2.78,2.88-5.67,3-.12-1.12,1.65-1.56,0-2-.24,1.21-1.26.61-2.27,0-.37,4,4.26,3.57,5.67,6-.79-3.36,2.34-3.28,3.41-5C606.66,254.76,608.55,254.43,608.73,255.6Zm0-11H611v-2h-2.27Zm156.67,6c-2.6-.45,4.3-6,0-8C767.06,246.52,760,252.6,765.4,250.6Zm76.06-6C845.51,253.27,838.75,238.79,841.46,244.6Zm-136.23,5h2.27v-2h-2.27Zm137.36,1c-1.87,0-.63-2.77-2.27-3C839.35,249.64,842.11,253.11,842.59,250.6Zm18.17,0c-1.43-4.81-.59-.52,0,2C862.43,259.79,861.64,253.57,860.76,250.6Zm-180.51,4c-3.57,1.15-2.75-1.57-4.54-2-2.77,2.36,1.7,1.86,1.14,5-1.45,0-1.57,1.28-3.41,1,0-1.46,4.79-3.17,0-3-1.87,0-.63,2.77-2.27,3-.12-2.56-2.08-3.5-3.4-5,.16,2.48.21,4.85-2.27,5-.18-1.18.19-2.84-1.14-3-2.66,2.68,2.24,4.75-3.4,3,4.49,3.43,2.65,3,3.4,7q-.32-3.27,3.41-3c.13,2.55.21,5.15,3.4,5,.85-3.08-3.11-1.92-2.27-5,2.42-2.2,7.18-2.35,11.35-3a4.42,4.42,0,0,0,1.14,3c.35,2.31-3.28,1.11-3.41,3a7,7,0,0,1,4.55,1q-.31-3.27,3.4-3c-1.26,4.3-.53,1.28,1.14,3-.32,2.32-3,2.3-4.54,1-1.42,4.47,3.21,8.78-2.28,9,.89.22,1.32.84,1.14,2a7,7,0,0,0,4.54-1c2.29,3.61-.11,4.84-1.13,8,5.08-.48,5.68,3,5.67,7-1.51,2.45-3.42-1.8-4.54,1,1.54.31,2.17,1.42,4.54,1,3.07-3.75.58-6.47,0-9-1.69-7.43,4.48-7.46,3.41-11-1,2.42-4.56,2.65-8,3-3.63-4.71,7.19-4,8-8-2.65.3-4.89,2.13-5.68-1,.27-1.43,1.87-1.69,2.27-3C686.12,262.77,680.44,261.11,680.25,254.6Zm9.09,8a2.81,2.81,0,0,0-2.27-3C687.17,261.17,686.91,263.07,689.34,262.6Zm180.5-4c-.88-2.22-.65-5.42-3.41-6C867.13,254.41,868.84,260.37,869.84,258.6Zm-1.14,13c-.3-7.07.49-15.09-5.67-17C863.39,261.62,861.54,270.57,868.7,271.6ZM737,258.6C731.22,265.88,739.88,257.71,737,258.6Zm26.11,4c-.2-1.5.4-3.69-1.14-4C760.52,259.93,760.49,262.32,763.13,262.6Zm183.91,5c-.2-1.5.4-3.69-1.14-4C944.43,264.93,944.4,267.32,947,267.6Zm3.4,2c-1.07-2.49,4.06-6-1.13-6C950,265.36,947.93,269.48,950.44,269.6Zm-358.73-1a5.82,5.82,0,0,0,3.4-1c.18,1.18-.19,2.84,1.14,3,1-4.63,5.85-.6,6.81-4-1.5,0-1-1.75-2.27-2C600.49,268.34,591.38,264.32,591.71,268.6Zm365.54-1c.78-2.69-2.34-1.93-3.4-3C953.64,266.78,954.78,267.78,957.25,267.6Zm-349.65-1C602.17,263.82,604.85,269.88,607.6,266.6Zm-19.3,7c2.25-.68,3.61-4.54,0-5C589.77,271.08,585.77,273.45,588.3,273.6Zm147.58-2c.31-1.36-.7-3.9-1.13-2C734.44,271,735.45,273.5,735.88,271.6Zm-128.28,2v-4c-2.35.59-7.46-1.24-8,1C603.1,272.69,604.17,271.07,607.6,273.6Zm260,12c-1.8-4.08.71-12-3.41-14C864.61,278,861.17,283.39,867.57,285.6Zm2.27-1c2.73.41,2.47-1.83,5.68-1,.38-5.34-2.42-7.88-4.54-11C866.68,275.39,870.59,279.36,869.84,284.6Zm-256.56-11h-4.55C606.93,278.25,614.6,277.07,613.28,273.6Zm1.13,8c.75-1.34,2.43-1.86,4.54-2-.06,1.28-1.45,1.38-1.13,3,3,.28,4.88-.37,4.54-3-4.17-.33-4-4.47-8-5,2.57,3.92-1.7,2.55-3.41,5,1.34.16,3.23-.17,3.41,1C613.78,280.6,613.12,281.41,614.41,281.6Zm57.9-5h2.27v-2h-2.27Zm291.76,4c5-2.7,5.7,1.61,11.35,1-.29-2.92,2.14-3.45,3.4-5C974.79,273.44,965.86,276,964.07,280.6Zm-15.9-3c-.35-1.5-1.12-.24-1.13,0C946.37,287.44,948.91,280.73,948.17,277.6Zm5.68,4C957.12,275.8,951,279,953.85,281.6Zm-247.48,14c-2.53,2.64-8.87,6-6.82,9,6-7.06,15.78-16.1,15.9-25C712.64,285.12,709.52,292.29,706.37,295.6Zm-26.12-12c.34-3.48,3.08.08,3.41-2C682.78,279.52,676.83,282.34,680.25,283.6Zm-47.68,5c-2.21,1.88-7.81-7.05-11.35-4,1.69,1.18,5.07.86,4.54,4-1.06-.61-4.18-2.33-3.4,1,3.88-.42,6.47.3,5.67,4,7.13,1.39,15.51,1.68,17,8h4.54c1.61-5.54-10.34-2.91-5.67-8-6.65.58-8.7-1.36-11.36-2C632.7,290.26,634.7,286.09,632.57,288.6Zm302,3c5.72-.29,8.48-3.2,11.35-6-3.49.7-2.18.7-5.67,0C939.84,288.93,935.92,289.14,934.55,291.6Zm15.89-2c2.94,1.08,4.22,3.61,7.95,4,5.28-2,8.91-5.28,13.62-3C967.47,284.33,957.53,287.08,950.44,289.6Zm-270.19-2C676.81,291,684.45,290.63,680.25,287.6Zm13.63,2C690.43,293,698.08,292.63,693.88,289.6Zm254.29,9c1.74,4.71.4-2.05,0-4a7,7,0,0,1-4.54-1C942.14,297.91,946.85,296.76,948.17,298.6Zm4.54-1H955v-4h-2.27Zm-261.1,20c4.73-.49,5.89-4.14,7.94-7-3.36-5.85-5.37-12.3-11.35-13s-15.5,9.44-23.84,9c-2.31-.12-1.82-2.72-5.67-1,7.35,3,2.92,5.85,2.27,12,1.41,3.42,5.3,4.66,11.35,4,1.57-.61.17-3.85,2.27-4,5,1.56,5.11,7.49,10.22,9,4-7-7.57-10.18-5.68-15,2.32,3.29,6.08,5.31,6.81,10C691.37,323.4,689.59,318.82,691.61,317.6Zm253.16-14c-7.08-4.25-17.31,3.39-26.11,4v8c4-1.8,3.91-7.22,11.35-6,.18-1.18-.2-2.84,1.13-3,6.35.88,15.83,2.19,17-4-1.94-1-2.29-3.32-4.54-4C942.69,301.43,945.23,301.19,944.77,303.6Zm-287.22,2c-2.31-.63-.32-5.05-4.54-4v4C655.6,304.23,657.28,308.18,657.55,305.6Zm186.18,8c4.95.64,7.55,3.35,11.35,5,0,1.32-2,.91-2.27,2,4.11.08,7.19,8.19,10.22,3-1.63-1.57-5.92-.79-5.68-4,3.14,1.24,5.77,2.92,10.22,3,1.66-1.27,7.45-4,4.54-6-1,1.42-5.85-2.11-6.81-4,2.32-2.14,4.49.28,6.81,1,1-1.77,2.74-2.92,3.41-5-3.47,1.13-9.29-.05-9.09-5a43.91,43.91,0,0,0-18.16-2C848.45,307.09,845.52,309.85,843.73,313.6Zm-103.31-3c-2-.91-1.87-3.68-4.54-4a19.15,19.15,0,0,0,1.14,9c-.88.22-2.24,0-2.27,1,2.61,2,1.26-.25,3.4-1,1.14,0,1.35.81,2.27,1,1.55-4.37-4.39-2.13-3.4-6C739,310.2,739.92,312.08,740.42,310.6Zm189.59,3a20.22,20.22,0,0,0,10.22,7c.44-1.72-1.69-2.56,0-3,3.64-.88,2.35,2.59,4.54,3,2.87-2.44-2.4-2.13-1.14-6,2.08-.05,3.84,5.12,5.68,2-1.69-.85-1.65-3.22-2.27-5,1.62.24,1.91,1.65,3.4,2,.85-3.08-3.11-1.92-2.27-5C940.34,310.06,931.8,306,930,313.6Zm-106.71-1c2.33.88,5.09-2.59,2.27-3C825.29,311,823.69,311.29,823.3,312.6Zm-113.53,0H712v-2h-2.27Zm197.53-2c-4.76,3.47-14.24,2.79-18.16,7,7,.45,14.09,5.9,20.43,1C908.64,316.09,911.78,310,907.3,310.6Zm-206.61,7c.13-1.89,3.75-.69,3.4-3-1.62-.24-1.91-1.65-3.4-2C700,313.21,698,317.34,700.69,317.6Zm177.1,2c.82,9.61,12.83,9.36,15.89,17-3.26,6-15.15.44-20.43,3-.2,5.36,5.69,13.51,7.94,20h29.52c1.76-12.55.41-28.08,0-40C900.54,326.75,884.22,316.14,877.79,319.6Zm53.35,2c1.44-1.17.91-4.16-2.27-4C928.55,319.88,929.15,321.36,931.14,321.6Zm-193,1c1.48-1.33,1.5-3.72-1.13-4C735.54,319.93,735.52,322.32,738.15,322.6Zm6.81-1a2.8,2.8,0,0,0-2.27-3A2.8,2.8,0,0,0,745,321.6Zm189.59,4c.32-2.28-.27-3.76-2.27-4C932,323.88,932.55,325.36,934.55,325.6Zm-230.46,0h2.28v-2h-2.28Zm38.6,1c-1.15-2.58-5.25-3.83-6.81-1C740,323.78,742.28,328.47,742.69,326.6Zm70.39,3c-.12-2.56-.64-4.77-2.27-6C808.88,325.29,811.47,328.09,813.08,329.6Zm-115.8-5C696.09,330.4,702.2,325,697.28,324.6Zm-4.54,3H695v-2h-2.27Zm139.64,14c-1.68,2.52-4,4.47-4.54,8,1.68,3.52,6.44,4.32,9.08,7,27.3,2.38,34.43-13,38.6-31-10.07,4.8-27,3.51-34.06,11,10.93,2.25,21.07-5.59,26.11-2-2.25,3.71-15.1,3.33-13.62,7,2.76-.84,10.76-3.34,11.35,0C857.08,346,838.92,346.71,832.38,341.6Zm13.62-15C845.09,332.65,851.2,327.27,846,326.6Zm-168,3c.88,3.77-1.38,4.78-1.13,8,4.22-1.05,2.23,3.37,4.54,4,3.08-3-2.48-4.46-1.14-9a8.19,8.19,0,0,0,5.68-1c.53-3.14-2.85-2.82-4.54-4C681.58,331.55,679.65,327.28,678,329.6Zm274.73,3c.76-2,3.92-4.27,0-5C954.19,330.08,949.39,331.75,952.71,332.6Zm-257.7-3c1.79,2.61-2.58,7.59,4.54,7-2-3.75,1.77-6.43-2.27-8C697,329.38,696.33,329.76,695,329.6Zm8,3c2.77-1.16-1.27-4.71-2.27-2C702.19,330.61,701.72,332.35,703,332.6Zm260,3c-1.08-2.49,4.05-6-1.14-6C962.45,331.36,960.42,335.48,962.93,335.6Zm-47.68,3c-.14-1.66.62-9.06-1.14-6C914.25,334.26,913.49,341.66,915.25,338.6Zm-88.55-4H829v-2H826.7Zm4.54-1v3c2.14-1.11,5.22-1.41,5.68-4C834.18,332.19,834.45,334.43,831.24,333.6Zm-137.36,2a8.19,8.19,0,0,1-5.68-1C686.45,337.62,694.07,337.23,693.88,335.6Zm122.6,4c-.34-2.64,1.58-3.28,4.54-3-.16,1.18-2,2.27,0,3a3.4,3.4,0,0,0,0-5c-2.73-.41-2.46,1.83-5.67,1-.07-.61-.17-1.18-1.14-1Q814,338.32,816.48,339.6Zm23.84,0c-1.62-.24-1.91-1.65-3.4-2C835.92,339.66,839.86,342.09,840.32,339.6Zm-136.23,0C702.9,345.4,709,340,704.09,339.6Zm244.08,2c-3.88-1-3.41.42-5.67-2-.47,1.26-1.47,2-3.41,2,.09-1.56-3.3-.69-1.14,0C939.4,342.75,946.9,343.61,948.17,341.6Zm-239.53,1a3.13,3.13,0,0,0,3.4-2C710.26,340.7,708.1,340.47,708.64,342.6Zm36.32,0h2.27v-2H745Zm4.54,2c2.83.94.34-5.72,0-2C749.61,344.24,747.61,347,749.5,344.6Zm42-3c-5.15,7.19-25.73,8.42-23.84,18h28.38C791.83,355.36,798.59,344.73,791.51,341.6Zm32.92,9v-2c.69-.06,1.34-.15,1.14-1-3.33,1.15-4.22-4.8-5.68-2C821.84,346.88,821.3,350.36,824.43,350.6Zm-6.81-4C819.44,352.32,823.32,348.91,817.62,346.6Zm-77.2,2h2.27v-2h-2.27Zm76.06-1c-1.65.55-5.86-1.17-5.67,1C812.45,348.05,816.68,349.77,816.48,347.6Zm-161.2,10c1.84-2.08,9.79-8.2,5.68-9C660.74,352.45,653.61,355.41,655.28,357.6Zm160.07-2c.27-1.43,1.87-1.69,2.27-3C815.28,351.72,812.52,355.19,815.35,355.6Zm6.81,0c2.82.94.33-5.72,0-2C822.26,355.24,820.26,358,822.16,355.6Zm137.36,4c3.32,1.47,3.32-4.47,0-3Zm-308.78,3c-.58-2,6.26-2.29,2.27-4C653.33,360.36,647.66,361.7,650.74,362.6Zm6.81,4c-1.46-1.38-4.93-1-7.95-1C648.21,368.92,657.28,368.05,657.55,366.6Zm119.2-1c-9,.47,22.44,4.45,21.57,1C793.34,364.91,777.83,365.54,776.75,365.6Zm120.34,2c4.77,0,13.12,1.48,13.62-2H884.6C884.94,369.11,892.48,367.57,897.09,367.6Zm31.78,0c-.14-4.21-8.71-1-12.48-2C916.52,369.81,925.09,366.59,928.87,367.6Zm39.74-1c-1.65-1.55-5.82-.88-9.09-1C958.37,369,968.05,368,968.61,366.6Zm-329.22,11c1.5,3.28,17.79,3.28,19.3,0C654.71,375.8,643.42,376.13,639.39,377.6Zm160.07-1h-17C782.05,381.3,799.83,381.3,799.46,376.6Zm39.73,2c.14,2.21,4.81.42,6.81,1C847.78,376.16,838.39,374.85,839.19,378.6Zm52.22,1c6.23-1.18,17.93,2.46,20.43-2-5.32-1.66-18.51-1.66-23.84,0C889.8,377.69,888.89,380.15,891.41,379.6Zm25-1c2.17,1.2,14.38,2.71,14.75-1C929,376.4,916.76,374.89,916.39,378.6Zm43.13,0c3.49,1.37,16.39,2.46,18.17-1C974.24,376.64,961.09,374.68,959.52,378.6Z" transform="translate(-111.24 -40.5)"/>
      <path class="cls-19" d="M732.48,388.6c3.43,1.31,5.34,4,7.94,6C736.56,393.87,729.25,392.42,732.48,388.6Z" transform="translate(-111.24 -40.5)"/>
      <path class="cls-19" d="M980,362.6c1-2.12,4.56,1.89,7.95,1C986,366.45,981.74,363.12,980,362.6Z" transform="translate(-111.24 -40.5)"/>
      <path class="cls-19" d="M998.12,388.6c4.48.57-3.13,6.12-4.54,8C991.23,394.46,998.76,392.54,998.12,388.6Z" transform="translate(-111.24 -40.5)"/>
      <path class="cls-19" d="M849.41,176.6a4.35,4.35,0,0,0-1.14,3c-3.92-.79-5,.93-5.68,3-2.87-2.14-7.65-2.59-7.94-7C838.92,175.07,845.26,173.2,849.41,176.6Z" transform="translate(-111.24 -40.5)"/>
      <path class="cls-19" d="M838.05,352.6a5.82,5.82,0,0,0-3.4-1c0-2.65-.63-5.89,2.27-6C842.37,345.13,840.19,351.41,838.05,352.6Z" transform="translate(-111.24 -40.5)"/>
    </g>
    <g>
      <g>
        <line class="cls-20" x1="200.28" y1="384.83" x2="200.87" y2="416.4"/>
        <line class="cls-20" x1="219.61" y1="374.7" x2="220.68" y2="432.87"/>
        <line class="cls-20" x1="209.46" y1="369.53" x2="210.54" y2="427.7"/>
        <line class="cls-20" x1="237.73" y1="371.96" x2="238.8" y2="430.13"/>
        <line class="cls-20" x1="228.88" y1="361.85" x2="230.33" y2="440.24"/>
        <line class="cls-20" x1="248" y1="387.4" x2="248.58" y2="418.96"/>
        <line class="cls-20" x1="267.32" y1="377.26" x2="268.4" y2="435.44"/>
        <line class="cls-20" x1="257.17" y1="372.1" x2="258.25" y2="430.27"/>
        <line class="cls-20" x1="285.44" y1="374.53" x2="286.52" y2="432.7"/>
        <line class="cls-20" x1="276.59" y1="364.42" x2="278.04" y2="442.81"/>
        <line class="cls-20" x1="334.33" y1="421.58" x2="333.78" y2="391.58"/>
        <line class="cls-20" x1="315" y1="431.22" x2="313.98" y2="375.92"/>
        <line class="cls-20" x1="325.14" y1="436.13" x2="324.12" y2="380.83"/>
        <line class="cls-20" x1="296.88" y1="433.83" x2="295.85" y2="378.52"/>
        <line class="cls-20" x1="305.72" y1="443.44" x2="304.34" y2="368.91"/>
        <line class="cls-20" x1="341.81" y1="389.72" x2="342.4" y2="421.29"/>
        <line class="cls-20" x1="361.14" y1="379.59" x2="362.22" y2="437.76"/>
        <line class="cls-20" x1="350.99" y1="374.42" x2="352.07" y2="432.59"/>
        <line class="cls-20" x1="379.26" y1="376.85" x2="380.34" y2="435.02"/>
        <line class="cls-20" x1="370.41" y1="366.74" x2="371.86" y2="445.13"/>
        <line class="cls-20" x1="389.46" y1="387.08" x2="390.04" y2="418.64"/>
        <line class="cls-20" x1="408.78" y1="376.95" x2="409.86" y2="435.12"/>
        <line class="cls-20" x1="398.63" y1="371.78" x2="399.71" y2="429.95"/>
        <line class="cls-20" x1="426.9" y1="374.21" x2="427.98" y2="432.38"/>
        <line class="cls-20" x1="418.05" y1="364.1" x2="419.51" y2="442.49"/>
        <line class="cls-20" x1="474.86" y1="418.67" x2="474.27" y2="387.1"/>
        <line class="cls-20" x1="455.53" y1="428.8" x2="454.45" y2="370.63"/>
        <line class="cls-20" x1="465.68" y1="433.97" x2="464.6" y2="375.8"/>
        <line class="cls-20" x1="437.41" y1="431.54" x2="436.34" y2="373.37"/>
        <line class="cls-20" x1="446.26" y1="441.65" x2="444.81" y2="363.26"/>
      </g>
      <line class="cls-20" x1="490.56" y1="401.18" x2="188.06" y2="401.18"/>
    </g>
    <g>
      <line class="cls-21" x1="1272.23" y1="410.39" x2="969.74" y2="410.39"/>
      <g>
        <line class="cls-22" x1="982.29" y1="379.21" x2="982.88" y2="429.05"/>
        <line class="cls-23" x1="1001.81" y1="363.21" x2="1002.9" y2="455.07"/>
        <line class="cls-24" x1="991.56" y1="355.05" x2="992.65" y2="446.91"/>
        <line class="cls-25" x1="1020.12" y1="358.88" x2="1021.2" y2="450.75"/>
        <line class="cls-26" x1="1011.17" y1="342.92" x2="1012.64" y2="466.71"/>
        <line class="cls-27" x1="1030.49" y1="383.26" x2="1031.08" y2="433.1"/>
        <line class="cls-28" x1="1050.01" y1="367.26" x2="1051.1" y2="459.12"/>
        <line class="cls-29" x1="1039.76" y1="359.09" x2="1040.85" y2="450.96"/>
        <line class="cls-30" x1="1068.32" y1="362.93" x2="1069.41" y2="454.79"/>
        <line class="cls-31" x1="1059.38" y1="346.97" x2="1060.85" y2="470.76"/>
        <line class="cls-32" x1="1117.72" y1="437.24" x2="1117.15" y2="389.86"/>
        <line class="cls-33" x1="1098.19" y1="452.46" x2="1097.15" y2="365.13"/>
        <line class="cls-34" x1="1108.43" y1="460.22" x2="1107.4" y2="372.89"/>
        <line class="cls-35" x1="1079.88" y1="456.58" x2="1078.84" y2="369.25"/>
        <line class="cls-36" x1="1088.81" y1="471.75" x2="1087.41" y2="354.07"/>
        <line class="cls-37" x1="1125.27" y1="386.93" x2="1125.87" y2="436.77"/>
        <line class="cls-38" x1="1144.8" y1="370.93" x2="1145.89" y2="462.79"/>
        <line class="cls-39" x1="1134.54" y1="362.76" x2="1135.63" y2="454.63"/>
        <line class="cls-40" x1="1163.1" y1="366.6" x2="1164.19" y2="458.46"/>
        <line class="cls-41" x1="1154.16" y1="350.64" x2="1155.63" y2="474.43"/>
        <line class="cls-42" x1="1173.41" y1="382.75" x2="1174" y2="432.6"/>
        <line class="cls-43" x1="1192.93" y1="366.75" x2="1194.02" y2="458.61"/>
        <line class="cls-44" x1="1182.68" y1="358.59" x2="1183.77" y2="450.45"/>
        <line class="cls-45" x1="1211.24" y1="362.43" x2="1212.33" y2="454.29"/>
        <line class="cls-46" x1="1202.3" y1="346.46" x2="1203.77" y2="470.25"/>
        <line class="cls-47" x1="1259.69" y1="432.64" x2="1259.09" y2="382.79"/>
        <line class="cls-48" x1="1240.16" y1="448.64" x2="1239.07" y2="356.78"/>
        <line class="cls-49" x1="1250.42" y1="456.8" x2="1249.33" y2="364.94"/>
        <line class="cls-50" x1="1221.86" y1="452.96" x2="1220.77" y2="361.1"/>
        <line class="cls-51" x1="1230.8" y1="468.93" x2="1229.33" y2="345.14"/>
      </g>
    </g>
  </g>
</svg>
