<?xml version="1.0" encoding="UTF-8" standalone="no"?>
<!DOCTYPE svg PUBLIC "-//W3C//DTD SVG 1.1//EN" "http://www.w3.org/Graphics/SVG/1.1/DTD/svg11.dtd">
<svg width="100%" height="100%" viewBox="0 0 2481 3508" version="1.1" xmlns="http://www.w3.org/2000/svg" xmlns:xlink="http://www.w3.org/1999/xlink" xml:space="preserve" xmlns:serif="http://www.serif.com/" style="fill-rule:evenodd;clip-rule:evenodd;stroke-linecap:round;stroke-linejoin:round;stroke-miterlimit:1.5;">
    <g id="PC">
        <g id="Bildschirm-" serif:id="Bildschirm ">
            <g transform="matrix(0.582472,0,0,1.39931,484.77,-974.747)">
                <path d="M1422.72,2403.91C1422.72,2376.6 1369.46,2354.43 1303.86,2354.43L1066.13,2354.43C1000.52,2354.43 947.261,2376.6 947.261,2403.91L947.261,2507.07C947.261,2534.38 1000.52,2556.55 1066.13,2556.55L1303.86,2556.55C1369.46,2556.55 1422.72,2534.38 1422.72,2507.07L1422.72,2403.91Z" style="fill:rgb(153,140,132);"/>
            </g>
            <g transform="matrix(1,0,0,0.644368,0,950.383)">
                <path d="M1712.83,2546.87C1712.83,2523.78 1700.75,2505.03 1685.87,2505.03L701.181,2505.03C686.303,2505.03 674.224,2523.78 674.224,2546.87L674.224,2630.54C674.224,2653.63 686.303,2672.38 701.181,2672.38L1685.87,2672.38C1700.75,2672.38 1712.83,2653.63 1712.83,2630.54L1712.83,2546.87Z" style="fill:rgb(69,73,115);"/>
            </g>
            <g transform="matrix(1.02855,0,0,1,-148.935,7.44564)">
                <path d="M1980.36,1567.13C1980.36,1509.57 1934.92,1462.83 1878.95,1462.83L712.005,1462.83C656.035,1462.83 610.595,1509.57 610.595,1567.13L610.595,2244.32C610.595,2301.89 656.035,2348.62 712.005,2348.62L1878.95,2348.62C1934.92,2348.62 1980.36,2301.89 1980.36,2244.32L1980.36,1567.13Z" style="fill:rgb(69,73,115);"/>
            </g>
            <g id="Bildschirm-1" serif:id="Bildschirm " transform="matrix(0.923957,0,0,0.846524,-13.5927,295.033)">
                <path d="M1980.36,1567.13C1980.36,1509.57 1937.54,1462.83 1884.79,1462.83L706.159,1462.83C653.416,1462.83 610.595,1509.57 610.595,1567.13L610.595,2244.32C610.595,2301.89 653.416,2348.62 706.159,2348.62L1884.79,2348.62C1937.54,2348.62 1980.36,2301.89 1980.36,2244.32L1980.36,1567.13Z" style="fill:white;"/>
            </g>
        </g>
    </g>
    <g id="Links">
        <g id="FensterLinks" transform="matrix(1,0,0,1,-81.2729,2.68725)">
            <path d="M1205.85,1666.81C1205.85,1638.63 1182.98,1615.75 1154.8,1615.75L740.943,1615.75C712.765,1615.75 689.888,1638.63 689.888,1666.81L689.888,2135.06C689.888,2163.24 712.765,2186.12 740.943,2186.12L1154.8,2186.12C1182.98,2186.12 1205.85,2163.24 1205.85,2135.06L1205.85,1666.81Z" style="fill:rgb(204,193,170);"/>
        </g>
        <text x="675.39px" y="1704.08px" style="font-family:'ArialMT', 'Arial', sans-serif;font-size:50px;">BOS</text>
        <g id="BosAusgabe">
            <rect id="AusgabeFenster" x="678.156" y="1737.87" width="388.773" height="396.428" style="fill:rgb(253,253,253);stroke:black;stroke-width:2.08px;"/>
            <g id="E">
                <g id="E13" transform="matrix(1,0,0,1,279.838,165.213)">
                    <ellipse cx="731.737" cy="1801.13" rx="22.553" ry="20.292" style="fill:rgb(150,150,150);"/>
                </g>
                <g id="E12" transform="matrix(1,0,0,1,278.994,108.663)">
                    <ellipse cx="731.737" cy="1801.13" rx="22.553" ry="20.292" style="fill:rgb(150,150,150);"/>
                </g>
                <g id="E11" transform="matrix(1,0,0,1,278.958,54.2629)">
                    <ellipse cx="731.737" cy="1801.13" rx="22.553" ry="20.292" style="fill:rgb(150,150,150);"/>
                </g>
                <g id="E10" transform="matrix(1,0,0,1,275.769,-5.50605)">
                    <ellipse cx="731.737" cy="1801.13" rx="22.553" ry="20.292" style="fill:rgb(150,150,150);"/>
                </g>
                <g id="E9" transform="matrix(1,0,0,1,212.72,52.6905)">
                    <ellipse cx="731.737" cy="1801.13" rx="22.553" ry="20.292" style="fill:rgb(150,150,150);"/>
                </g>
                <g id="E8" transform="matrix(1,0,0,1,210.008,-5.6276)">
                    <ellipse cx="731.737" cy="1801.13" rx="22.553" ry="20.292" style="fill:rgb(150,150,150);"/>
                </g>
                <g id="E7" transform="matrix(1,0,0,1,138.102,-6.46891)">
                    <ellipse cx="731.737" cy="1801.13" rx="22.553" ry="20.292" style="fill:rgb(150,150,150);"/>
                </g>
                <g id="E6" transform="matrix(1,0,0,1,72.6741,53.1094)">
                    <ellipse cx="731.737" cy="1801.13" rx="22.553" ry="20.292" style="fill:rgb(150,150,150);"/>
                </g>
                <g id="E5" transform="matrix(1,0,0,1,72.5904,-6.88402)">
                    <ellipse cx="731.737" cy="1801.13" rx="22.553" ry="20.292" style="fill:rgb(150,150,150);"/>
                </g>
                <g id="E4" transform="matrix(1,0,0,1,0.135563,171.026)">
                    <ellipse cx="731.737" cy="1801.13" rx="22.553" ry="20.292" style="fill:rgb(150,150,150);"/>
                </g>
                <g id="E3" transform="matrix(1,0,0,1,2.55581,112.812)">
                    <ellipse cx="731.737" cy="1801.13" rx="22.553" ry="20.292" style="fill:rgb(150,150,150);"/>
                </g>
                <g id="E2" transform="matrix(1,0,0,1,2.99696,54.5328)">
                    <ellipse cx="731.737" cy="1801.13" rx="22.553" ry="20.292" style="fill:rgb(150,150,150);"/>
                </g>
                <g id="E1" transform="matrix(1,0,0,1,3.64943,-6.76366)">
                    <ellipse cx="731.737" cy="1801.13" rx="22.553" ry="20.292" style="fill:rgb(150,150,150);"/>
                </g>
            </g>
            <g transform="matrix(1.35053,0,0,1.51256,508.485,-1028.57)">
                <path d="M271.504,1884.82L392.089,2069.43L150.918,2069.43L271.504,1884.82Z" style="fill:rgb(188,124,82);"/>
            </g>
        </g>
    </g>
    <g id="Rechts">
        <g id="FensterRechts" transform="matrix(1,0,0,1,540.529,2.98613)">
            <path d="M1205.85,1666.81C1205.85,1638.63 1182.98,1615.75 1154.8,1615.75L740.943,1615.75C712.765,1615.75 689.888,1638.63 689.888,1666.81L689.888,2135.06C689.888,2163.24 712.765,2186.12 740.943,2186.12L1154.8,2186.12C1182.98,2186.12 1205.85,2163.24 1205.85,2135.06L1205.85,1666.81Z" style="fill:rgb(204,193,170);"/>
            <clipPath id="_clip1">
                <path d="M1205.85,1666.81C1205.85,1638.63 1182.98,1615.75 1154.8,1615.75L740.943,1615.75C712.765,1615.75 689.888,1638.63 689.888,1666.81L689.888,2135.06C689.888,2163.24 712.765,2186.12 740.943,2186.12L1154.8,2186.12C1182.98,2186.12 1205.85,2163.24 1205.85,2135.06L1205.85,1666.81Z"/>
            </clipPath>
            <g clip-path="url(#_clip1)">
                <g transform="matrix(1,0,0,1,-573.69,-21.7193)">
                    <text x="1314.39px" y="1725.86px" style="font-family:'ArialMT', 'Arial', sans-serif;font-size:50px;">CodeV<tspan x="1466.37px 1477.48px " y="1725.86px 1725.86px ">ie</tspan>w</text>
                    <rect x="1314.39" y="1731.16" width="227.002" height="3.662"/>
                </g>
            </g>
        </g>
        <g id="CodeFenster">
            <g>
                <rect id="Code" x="1295.25" y="1752.38" width="364.992" height="368.288" style="fill:rgb(252,252,252);"/>
                <g id="C7" transform="matrix(1.00363,0,0,2.30135,709.904,1739.87)">
                    <path d="M845.15,126.208C845.15,125.265 843.395,124.5 841.234,124.5L664.066,124.5C661.905,124.5 660.15,125.265 660.15,126.208L660.15,131.792C660.15,132.735 661.905,133.5 664.066,133.5L841.234,133.5C843.395,133.5 845.15,132.735 845.15,131.792L845.15,126.208Z"/>
                </g>
                <g id="C6" transform="matrix(1.19734,0,0,2.30135,561.474,1702.54)">
                    <path d="M845.15,126.208C845.15,125.265 843.679,124.5 841.868,124.5L663.432,124.5C661.621,124.5 660.15,125.265 660.15,126.208L660.15,131.792C660.15,132.735 661.621,133.5 663.432,133.5L841.868,133.5C843.679,133.5 845.15,132.735 845.15,131.792L845.15,126.208Z"/>
                </g>
                <g id="C5" transform="matrix(1.46242,0,0,2.30135,356.572,1667.59)">
                    <path d="M845.15,126.208C845.15,125.265 843.946,124.5 842.463,124.5L662.837,124.5C661.354,124.5 660.15,125.265 660.15,126.208L660.15,131.792C660.15,132.735 661.354,133.5 662.837,133.5L842.463,133.5C843.946,133.5 845.15,132.735 845.15,131.792L845.15,126.208Z"/>
                </g>
                <g id="C1" transform="matrix(1.46242,0,0,2.30135,354.087,1496.71)">
                    <path d="M845.15,126.208C845.15,125.265 843.946,124.5 842.463,124.5L662.837,124.5C661.354,124.5 660.15,125.265 660.15,126.208L660.15,131.792C660.15,132.735 661.354,133.5 662.837,133.5L842.463,133.5C843.946,133.5 845.15,132.735 845.15,131.792L845.15,126.208Z"/>
                </g>
                <g id="C2" transform="matrix(1.19734,0,0,2.30135,553.495,1540.07)">
                    <path d="M845.15,126.208C845.15,125.265 843.679,124.5 841.868,124.5L663.432,124.5C661.621,124.5 660.15,125.265 660.15,126.208L660.15,131.792C660.15,132.735 661.621,133.5 663.432,133.5L841.868,133.5C843.679,133.5 845.15,132.735 845.15,131.792L845.15,126.208Z"/>
                </g>
                <g id="C3" transform="matrix(1.46242,0,0,2.30135,377.575,1585.36)">
                    <path d="M845.15,126.208C845.15,125.265 843.946,124.5 842.463,124.5L662.837,124.5C661.354,124.5 660.15,125.265 660.15,126.208L660.15,131.792C660.15,132.735 661.354,133.5 662.837,133.5L842.463,133.5C843.946,133.5 845.15,132.735 845.15,131.792L845.15,126.208Z"/>
                </g>
                <g id="C4" transform="matrix(1.00363,0,0,2.30135,710.526,1626.66)">
                    <path d="M845.15,126.208C845.15,125.265 843.395,124.5 841.234,124.5L664.066,124.5C661.905,124.5 660.15,125.265 660.15,126.208L660.15,131.792C660.15,132.735 661.905,133.5 664.066,133.5L841.234,133.5C843.395,133.5 845.15,132.735 845.15,131.792L845.15,126.208Z"/>
                </g>
            </g>
        </g>
    </g>
</svg>
