<?xml version="1.0" encoding="UTF-8" standalone="no"?>
<!DOCTYPE svg PUBLIC "-//W3C//DTD SVG 1.1//EN" "http://www.w3.org/Graphics/SVG/1.1/DTD/svg11.dtd">
<svg width="100%" height="100%" viewBox="0 0 6446 5365" version="1.1" xmlns="http://www.w3.org/2000/svg" xmlns:xlink="http://www.w3.org/1999/xlink" xml:space="preserve" xmlns:serif="http://www.serif.com/" style="fill-rule:evenodd;clip-rule:evenodd;stroke-linecap:round;stroke-linejoin:round;stroke-miterlimit:1.5;">
    <g id="ArtBoard1" transform="matrix(3.45335,0,0,4.00368,-908.954,-2762.4)">
        <rect x="263.21" y="689.965" width="1866.55" height="1339.92" style="fill:none;"/>
        <g id="Laptop" transform="matrix(0.289574,0,0,0.24977,506.495,737.116)">
            <g id="Bildschirm" transform="matrix(1.66186,0,0,1.64507,-1108.13,-2251.7)">
                <rect x="701.328" y="1610.85" width="2416.26" height="1297.22" style="fill:rgb(242,242,242);stroke:rgb(10,10,10);stroke-width:30.24px;"/>
            </g>
            <g id="Bildschirm-" serif:id="Bildschirm ">
                <g id="BOS">
                    <g id="CodeFenster" transform="matrix(1,0,0,1,-840.15,-188.776)">
                        <g id="BOS1" serif:id="BOS" transform="matrix(1,0,0,1.18096,875.043,-33.1446)">
                            <rect x="2323.82" y="662.504" width="1381.08" height="1550.78" style="fill:white;stroke:rgb(10,10,10);stroke-width:0.57px;"/>
                        </g>
                        <g id="Code" transform="matrix(1,-6.77626e-21,-2.71051e-20,3.18255,840.15,-5387.2)">
                            <rect x="2420.45" y="1942.02" width="1266.28" height="404.23" style="fill:white;stroke:rgb(10,10,10);stroke-width:0.26px;"/>
                        </g>
                        <g id="CompileFenster" transform="matrix(1,0,0,1,840.15,188.776)">
                            <rect x="2420.45" y="1942.02" width="1266.28" height="404.23" style="fill:white;stroke:rgb(10,10,10);stroke-width:0.63px;"/>
                            <g transform="matrix(1,0,0,1,-59.86,0)">
                                <text x="2557.7px" y="2064.03px" style="font-family:'ArialMT', 'Arial', sans-serif;font-size:83.333px;">Compile.....</text>
                            </g>
                        </g>
                        <g transform="matrix(1,0,0,1,868.203,84.005)">
                            <text x="2778.09px" y="776.836px" style="font-family:'ArialMT', 'Arial', sans-serif;font-size:83.333px;">CodeWindow</text>
                        </g>
                        <g transform="matrix(2.7224e-05,0.629907,-0.544041,2.35129e-05,4968.97,1403.93)">
                            <path d="M-890.849,2945.45L-812.208,3119.56L-969.491,3119.56L-890.849,2945.45Z" style="fill:rgb(128,186,54);stroke:rgb(10,10,10);stroke-width:1.06px;"/>
                        </g>
                        <g transform="matrix(1,0,0,1,2011.24,-2796.72)">
                            <rect x="1419.69" y="3606.74" width="63.327" height="64.027" style="fill:rgb(246,35,35);stroke:rgb(10,10,10);stroke-width:0.63px;"/>
                        </g>
                        <g id="Code1" serif:id="Code" transform="matrix(0.933601,0,0,0.933601,1017.22,265.103)">
                            <g id="BOSZ10" transform="matrix(1.91797,0,0,1.91797,2730.35,1889.36)">
                                <text x="0px" y="0px" style="font-family:'ArialMT', 'Arial', sans-serif;font-size:45.833px;">form2(x,y<tspan x="187.585px 200.319px " y="0px 0px ">,&quot;</tspan>trd&quot;); }</text>
                            </g>
                            <g id="BOSZ9" transform="matrix(1.91293,0,0,1.91293,-2369.13,-1672.02)">
                                <text x="2668.25px" y="1796.61px" style="font-family:'ArialMT', 'Arial', sans-serif;font-size:45.833px;">farbe2(x,y<tspan x="2868.64px 2881.37px " y="1796.61px 1796.61px ">,G</tspan>REEN);</text>
                            </g>
                            <g id="BOSZ8" transform="matrix(1.91654,0,0,1.91654,-2284.29,-1554.37)">
                                <text x="2617.96px" y="1678.8px" style="font-family:'ArialMT', 'Arial', sans-serif;font-size:45.833px;">int y=x;</text>
                            </g>
                            <g id="BOSZ7" transform="matrix(1.89681,0,0,1.89681,2600.03,1541.33)">
                                <text x="0px" y="0px" style="font-family:'ArialMT', 'Arial', sans-serif;font-size:45.833px;">for (int x=0;x&lt;10:x++){</text>
                            </g>
                            <g id="BOSZ6" transform="matrix(1.90645,0,0,1.90645,-2285.36,-1595.25)">
                                <text x="2635.96px" y="1582.43px" style="font-family:'ArialMT', 'Arial', sans-serif;font-size:45.833px;">form2(x,y<tspan x="2823.55px 2836.28px " y="1582.43px 1582.43px ">,&quot;</tspan>s&quot;); }</text>
                            </g>
                            <g id="BOSZ5" transform="matrix(1.92163,0,0,1.92163,2727.64,1303.77)">
                                <text x="0px" y="0px" style="font-family:'ArialMT', 'Arial', sans-serif;font-size:45.833px;">farbe2(x,y<tspan x="200.387px 213.121px " y="0px 0px ">,G</tspan>REEN);</text>
                            </g>
                            <g id="BOSZ4" transform="matrix(1.90622,0,0,1.90622,2597.82,1194.44)">
                                <text x="0px" y="0px" style="font-family:'ArialMT', 'Arial', sans-serif;font-size:45.833px;">for(int y=0;y&lt;hoehe; y++){</text>
                            </g>
                            <g id="BOSZ3" transform="matrix(1.80779,0,0,1.90578,2590.63,1070.8)">
                                <text x="0px" y="0px" style="font-family:'ArialMT', 'Arial', sans-serif;font-size:45.833px;">hoehe=hoehe+1;</text>
                            </g>
                            <g id="BOSZ2" transform="matrix(1.9086,0,0,1.9086,-2209.45,-862.926)">
                                <text x="2444.26px" y="955.086px" style="font-family:'ArialMT', 'Arial', sans-serif;font-size:45.833px;">for (int x=0; x&lt;7;x++) {</text>
                            </g>
                            <g id="BOSZ1" transform="matrix(1.90697,0,0,1.90697,-2428.51,-579.692)">
                                <text x="2561.13px" y="740.029px" style="font-family:'ArialMT', 'Arial', sans-serif;font-size:45.833px;">int hoehe=0;</text>
                            </g>
                        </g>
                    </g>
                    <g id="AusgabeFenster" transform="matrix(1,0,0,1,-840.15,-188.776)">
                        <g id="BOSAusgabeFeld-" serif:id="BOSAusgabeFeld " transform="matrix(1,0,0,1.09019,840.15,122.652)">
                            <rect x="399.019" y="733.142" width="1752.86" height="1392.97" style="fill:white;stroke:rgb(10,10,10);stroke-width:0.6px;"/>
                        </g>
                        <g id="BOSAusgabeCode-" serif:id="BOSAusgabeCode " transform="matrix(0.783088,0,0,0.851056,1133.41,520.396)">
                            <rect x="399.019" y="733.142" width="1752.86" height="1392.97" style="fill:white;stroke:rgb(38,22,210);stroke-width:1.78px;"/>
                        </g>
                        <g transform="matrix(1,0,0,1.27926,832.103,-64.0786)">
                            <path d="M710.024,1792.21L1886.23,1796.47L1885.06,989.28L710.024,1792.21Z" style="fill:rgb(128,186,36);stroke:rgb(128,186,54);stroke-width:1.27px;"/>
                        </g>
                        <g transform="matrix(1,0,0,1,1391.14,-1855.24)">
                            <ellipse cx="747.158" cy="3330.75" rx="65.76" ry="66.349" style="fill:rgb(210,210,210);stroke:rgb(212,212,212);stroke-width:1.46px;"/>
                        </g>
                        <g transform="matrix(1,0,0,1,1198.51,-1865.74)">
                            <ellipse cx="747.158" cy="3330.75" rx="65.76" ry="66.349" style="fill:rgb(210,210,210);stroke:rgb(212,212,212);stroke-width:1.46px;"/>
                        </g>
                        <g transform="matrix(1,0,0,1,1001.57,-1872.67)">
                            <ellipse cx="747.158" cy="3330.75" rx="65.76" ry="66.349" style="fill:rgb(210,210,210);stroke:rgb(212,212,212);stroke-width:1.46px;"/>
                        </g>
                        <g transform="matrix(1,0,0,1,823.674,-1870.64)">
                            <ellipse cx="747.158" cy="3330.75" rx="65.76" ry="66.349" style="fill:rgb(210,210,210);stroke:rgb(212,212,212);stroke-width:1.46px;"/>
                        </g>
                        <g transform="matrix(1,0,0,1,1584.33,-2027.28)">
                            <ellipse cx="747.158" cy="3330.75" rx="65.76" ry="66.349" style="fill:rgb(210,210,210);stroke:rgb(212,212,212);stroke-width:1.46px;"/>
                        </g>
                        <g transform="matrix(1,0,0,1,1391.84,-2027.73)">
                            <ellipse cx="747.158" cy="3330.75" rx="65.76" ry="66.349" style="fill:rgb(210,210,210);stroke:rgb(212,212,212);stroke-width:1.46px;"/>
                        </g>
                        <g transform="matrix(1,0,0,1,1197.05,-2028.05)">
                            <ellipse cx="747.158" cy="3330.75" rx="65.76" ry="66.349" style="fill:rgb(210,210,210);stroke:rgb(212,212,212);stroke-width:1.46px;"/>
                        </g>
                        <g transform="matrix(1,0,0,1,1003.76,-2030.31)">
                            <ellipse cx="747.158" cy="3330.75" rx="65.76" ry="66.349" style="fill:rgb(210,210,210);stroke:rgb(212,212,212);stroke-width:1.46px;"/>
                        </g>
                        <g transform="matrix(1,0,0,1,822.084,-2031.42)">
                            <ellipse cx="747.158" cy="3330.75" rx="65.76" ry="66.349" style="fill:rgb(210,210,210);stroke:rgb(212,212,212);stroke-width:1.46px;"/>
                        </g>
                        <g transform="matrix(1,0,0,1,830.862,-1512.97)">
                            <ellipse cx="747.158" cy="3330.75" rx="65.76" ry="66.349" style="fill:rgb(210,210,210);stroke:rgb(212,212,212);stroke-width:1.46px;"/>
                        </g>
                        <g transform="matrix(1,0,0,1,1200.2,-1691.79)">
                            <ellipse cx="747.158" cy="3330.75" rx="65.76" ry="66.349" style="fill:rgb(210,210,210);stroke:rgb(212,212,212);stroke-width:1.46px;"/>
                        </g>
                        <g transform="matrix(1,0,0,1,999.723,-1697.26)">
                            <ellipse cx="747.158" cy="3330.75" rx="65.76" ry="66.349" style="fill:rgb(210,210,210);stroke:rgb(212,212,212);stroke-width:1.46px;"/>
                        </g>
                        <g transform="matrix(1,0,0,1,827.491,-1690.04)">
                            <ellipse cx="747.158" cy="3330.75" rx="65.76" ry="66.349" style="fill:rgb(210,210,210);stroke:rgb(212,212,212);stroke-width:1.46px;"/>
                        </g>
                        <g transform="matrix(1,0,0,1,831.562,-1328.91)">
                            <ellipse cx="747.158" cy="3330.75" rx="65.76" ry="66.349" style="fill:rgb(210,210,210);stroke:rgb(212,212,212);stroke-width:1.46px;"/>
                        </g>
                        <g transform="matrix(1,0,0,1,997.624,-1506.55)">
                            <ellipse cx="747.158" cy="3330.75" rx="65.76" ry="66.349" style="fill:rgb(210,210,210);stroke:rgb(212,212,212);stroke-width:1.46px;"/>
                        </g>
                        <g transform="matrix(1,0,0,1,840.15,188.776)">
                            <text x="466.608px" y="846.269px" style="font-family:'ArialMT', 'Arial', sans-serif;font-size:83.333px;">Datei  Brett  Formen  Optionen             Hilfe</text>
                        </g>
                    </g>
                </g>
            </g>
            <g id="Tastatur">
                <g transform="matrix(1,0,0,1,-890.998,0)">
                    <rect x="218.444" y="4060.75" width="5437.41" height="45.1" style="fill:rgb(125,125,125);stroke:rgb(125,125,125);stroke-width:35.42px;"/>
                </g>
                <g transform="matrix(1,0,0,1,-902.002,38.2676)">
                    <path d="M231.682,4022.08L5665.91,4008.06L4970.23,2522.91L954.463,2508.92L231.682,4022.08Z" style="fill:rgb(243,243,243);stroke:rgb(125,125,125);stroke-width:35.42px;"/>
                </g>
                <g transform="matrix(1,0,0,1,-110.602,-964.212)">
                    <path d="M2513.51,4644.33C2513.51,4597.6 2475.57,4559.67 2428.85,4559.67L1627.15,4559.67C1580.43,4559.67 1542.49,4597.6 1542.49,4644.33L1542.49,4813.64C1542.49,4860.36 1580.43,4898.3 1627.15,4898.3L2428.85,4898.3C2475.57,4898.3 2513.51,4860.36 2513.51,4813.64L2513.51,4644.33Z" style="fill:rgb(235,235,235);stroke:rgb(235,235,235);stroke-width:35.42px;"/>
                </g>
                <g transform="matrix(1,0,0,1,1560.99,-1921.1)">
                    <rect x="953.173" y="4592.26" width="140.588" height="84.419" style="fill:rgb(1,1,1);stroke:rgb(4,4,4);stroke-width:35.42px;"/>
                </g>
                <g transform="matrix(1,0,0,1,1096.19,-1920.87)">
                    <rect x="953.173" y="4592.26" width="140.588" height="84.419" style="fill:rgb(1,1,1);stroke:rgb(4,4,4);stroke-width:35.42px;"/>
                </g>
                <g transform="matrix(1,0,0,1,1316.14,-1919.29)">
                    <rect x="953.173" y="4592.26" width="140.588" height="84.419" style="fill:rgb(1,1,1);stroke:rgb(4,4,4);stroke-width:35.42px;"/>
                </g>
                <g transform="matrix(1,0,0,1,1799,-1924.06)">
                    <rect x="953.173" y="4592.26" width="140.588" height="84.419" style="fill:rgb(1,1,1);stroke:rgb(4,4,4);stroke-width:35.42px;"/>
                </g>
                <g transform="matrix(1,0,0,1,876.177,-1919.36)">
                    <rect x="953.173" y="4592.26" width="140.588" height="84.419" style="fill:rgb(1,1,1);stroke:rgb(4,4,4);stroke-width:35.42px;"/>
                </g>
                <g transform="matrix(1,0,0,1,638.983,-1921.07)">
                    <rect x="953.173" y="4592.26" width="140.588" height="84.419" style="fill:rgb(1,1,1);stroke:rgb(4,4,4);stroke-width:35.42px;"/>
                </g>
                <g transform="matrix(1,0,0,1,-817.945,-1922.97)">
                    <rect x="953.173" y="4592.26" width="140.588" height="84.419" style="fill:rgb(1,1,1);stroke:rgb(4,4,4);stroke-width:35.42px;"/>
                </g>
                <g transform="matrix(1,0,0,1,-67.5056,-1925.01)">
                    <rect x="953.173" y="4592.26" width="140.588" height="84.419" style="fill:rgb(1,1,1);stroke:rgb(4,4,4);stroke-width:35.42px;"/>
                </g>
                <g transform="matrix(1,0,0,1,-307.425,-1916.5)">
                    <rect x="953.173" y="4592.26" width="140.588" height="84.419" style="fill:rgb(1,1,1);stroke:rgb(4,4,4);stroke-width:35.42px;"/>
                </g>
                <g transform="matrix(1,0,0,1,162.56,-1921.92)">
                    <rect x="953.173" y="4592.26" width="140.588" height="84.419" style="fill:rgb(1,1,1);stroke:rgb(4,4,4);stroke-width:35.42px;"/>
                </g>
                <g transform="matrix(1,0,0,1,-559.926,-1925.53)">
                    <rect x="953.173" y="4592.26" width="140.588" height="84.419" style="fill:rgb(1,1,1);stroke:rgb(4,4,4);stroke-width:35.42px;"/>
                </g>
                <g transform="matrix(1,0,0,1,502.567,-1701.18)">
                    <rect x="953.173" y="4592.26" width="140.588" height="84.419" style="fill:rgb(1,1,1);stroke:rgb(4,4,4);stroke-width:35.42px;"/>
                </g>
                <g transform="matrix(1,0,0,1,760.158,-1706.93)">
                    <rect x="953.173" y="4592.26" width="140.588" height="84.419" style="fill:rgb(1,1,1);stroke:rgb(4,4,4);stroke-width:35.42px;"/>
                </g>
                <g transform="matrix(1,0,0,1,-513.611,-1715.9)">
                    <rect x="953.173" y="4592.26" width="140.588" height="84.419" style="fill:rgb(1,1,1);stroke:rgb(4,4,4);stroke-width:35.42px;"/>
                </g>
                <g transform="matrix(1,0,0,1,275.129,-1702.46)">
                    <rect x="953.173" y="4592.26" width="140.588" height="84.419" style="fill:rgb(1,1,1);stroke:rgb(4,4,4);stroke-width:35.42px;"/>
                </g>
                <g transform="matrix(1,0,0,1,17.0116,-1706.21)">
                    <rect x="953.173" y="4592.26" width="140.588" height="84.419" style="fill:rgb(1,1,1);stroke:rgb(4,4,4);stroke-width:35.42px;"/>
                </g>
                <g transform="matrix(1,0,0,1,-252.176,-1710.74)">
                    <rect x="953.173" y="4592.26" width="140.588" height="84.419" style="fill:rgb(1,1,1);stroke:rgb(4,4,4);stroke-width:35.42px;"/>
                </g>
                <g transform="matrix(1.93692,0,0,1,1806.28,-1921.13)">
                    <rect x="953.173" y="4592.26" width="140.588" height="84.419" style="fill:rgb(1,1,1);stroke:rgb(4,4,4);stroke-width:22.98px;"/>
                </g>
                <g transform="matrix(1.98995,0,0,1,-1868.07,-1714.39)">
                    <rect x="953.173" y="4592.26" width="140.588" height="84.419" style="fill:rgb(1,1,1);stroke:rgb(4,4,4);stroke-width:22.49px;"/>
                </g>
                <g transform="matrix(1,0,0,1,2476.12,-1921.39)">
                    <rect x="953.173" y="4592.26" width="140.588" height="84.419" style="fill:rgb(1,1,1);stroke:rgb(4,4,4);stroke-width:35.42px;"/>
                </g>
                <g transform="matrix(1,0,0,1,2256.54,-1921.56)">
                    <rect x="953.173" y="4592.26" width="140.588" height="84.419" style="fill:rgb(1,1,1);stroke:rgb(4,4,4);stroke-width:35.42px;"/>
                </g>
                <g transform="matrix(1,0,0,1,2030.08,-1921.49)">
                    <rect x="953.173" y="4592.26" width="140.588" height="84.419" style="fill:rgb(1,1,1);stroke:rgb(4,4,4);stroke-width:35.42px;"/>
                </g>
                <g transform="matrix(1,0,0,1,2188.34,-1716.75)">
                    <rect x="953.173" y="4592.26" width="140.588" height="84.419" style="fill:rgb(1,1,1);stroke:rgb(4,4,4);stroke-width:35.42px;"/>
                </g>
                <g transform="matrix(1,0,0,1,-293.005,-1477.59)">
                    <rect x="953.173" y="4592.26" width="140.588" height="84.419" style="fill:rgb(1,1,1);stroke:rgb(4,4,4);stroke-width:35.42px;"/>
                </g>
                <g transform="matrix(1,0,0,1,888.724,-1481.96)">
                    <rect x="953.173" y="4592.26" width="140.588" height="84.419" style="fill:rgb(1,1,1);stroke:rgb(4,4,4);stroke-width:35.42px;"/>
                </g>
                <g transform="matrix(1,0,0,1,1828.24,-1479.72)">
                    <rect x="953.173" y="4592.26" width="140.588" height="84.419" style="fill:rgb(1,1,1);stroke:rgb(4,4,4);stroke-width:35.42px;"/>
                </g>
                <g transform="matrix(1,0,0,1,401.396,-1922.68)">
                    <rect x="953.173" y="4592.26" width="140.588" height="84.419" style="fill:rgb(1,1,1);stroke:rgb(4,4,4);stroke-width:35.42px;"/>
                </g>
                <g transform="matrix(1,0,0,1,1131.07,-1484.65)">
                    <rect x="953.173" y="4592.26" width="140.588" height="84.419" style="fill:rgb(1,1,1);stroke:rgb(4,4,4);stroke-width:35.42px;"/>
                </g>
                <g transform="matrix(1,0,0,1,1360.29,-1478.34)">
                    <rect x="953.173" y="4592.26" width="140.588" height="84.419" style="fill:rgb(1,1,1);stroke:rgb(4,4,4);stroke-width:35.42px;"/>
                </g>
                <g transform="matrix(1,0,0,1,648.312,-1475.36)">
                    <rect x="953.173" y="4592.26" width="140.588" height="84.419" style="fill:rgb(1,1,1);stroke:rgb(4,4,4);stroke-width:35.42px;"/>
                </g>
                <g transform="matrix(1,0,0,1,405.305,-1476.83)">
                    <rect x="953.173" y="4592.26" width="140.588" height="84.419" style="fill:rgb(1,1,1);stroke:rgb(4,4,4);stroke-width:35.42px;"/>
                </g>
                <g transform="matrix(1,0,0,1,173.827,-1476.24)">
                    <rect x="953.173" y="4592.26" width="140.588" height="84.419" style="fill:rgb(1,1,1);stroke:rgb(4,4,4);stroke-width:35.42px;"/>
                </g>
                <g transform="matrix(1,0,0,1,-516.238,-1484.09)">
                    <rect x="953.173" y="4592.26" width="140.588" height="84.419" style="fill:rgb(1,1,1);stroke:rgb(4,4,4);stroke-width:35.42px;"/>
                </g>
                <g transform="matrix(1,0,0,1,-62.0529,-1478.38)">
                    <rect x="953.173" y="4592.26" width="140.588" height="84.419" style="fill:rgb(1,1,1);stroke:rgb(4,4,4);stroke-width:35.42px;"/>
                </g>
                <g transform="matrix(2.64813,0,0,1,-2555.6,-1483.83)">
                    <rect x="953.173" y="4592.26" width="140.588" height="84.419" style="fill:rgb(1,1,1);stroke:rgb(4,4,4);stroke-width:17.69px;"/>
                </g>
                <g transform="matrix(1.33598,0,0,1,2331.58,-1713.93)">
                    <rect x="953.173" y="4592.26" width="140.588" height="84.419" style="fill:rgb(1,1,1);stroke:rgb(4,4,4);stroke-width:30.01px;"/>
                </g>
                <g transform="matrix(1,0,0,1,2424.85,-1714.36)">
                    <rect x="953.173" y="4592.26" width="140.588" height="84.419" style="fill:rgb(1,1,1);stroke:rgb(4,4,4);stroke-width:35.42px;"/>
                </g>
                <g transform="matrix(1,0,0,1,1943.86,-1710.45)">
                    <rect x="953.173" y="4592.26" width="140.588" height="84.419" style="fill:rgb(1,1,1);stroke:rgb(4,4,4);stroke-width:35.42px;"/>
                </g>
                <g transform="matrix(1,0,0,1,1714.45,-1708.18)">
                    <rect x="953.173" y="4592.26" width="140.588" height="84.419" style="fill:rgb(1,1,1);stroke:rgb(4,4,4);stroke-width:35.42px;"/>
                </g>
                <g transform="matrix(1,0,0,1,1474.53,-1710.58)">
                    <rect x="953.173" y="4592.26" width="140.588" height="84.419" style="fill:rgb(1,1,1);stroke:rgb(4,4,4);stroke-width:35.42px;"/>
                </g>
                <g transform="matrix(1,0,0,1,1237.93,-1713.47)">
                    <rect x="953.173" y="4592.26" width="140.588" height="84.419" style="fill:rgb(1,1,1);stroke:rgb(4,4,4);stroke-width:35.42px;"/>
                </g>
                <g transform="matrix(1,0,0,1,997.418,-1709.79)">
                    <rect x="953.173" y="4592.26" width="140.588" height="84.419" style="fill:rgb(1,1,1);stroke:rgb(4,4,4);stroke-width:35.42px;"/>
                </g>
                <g transform="matrix(1,0,0,1,1596.26,-1476.28)">
                    <rect x="953.173" y="4592.26" width="140.588" height="84.419" style="fill:rgb(1,1,1);stroke:rgb(4,4,4);stroke-width:35.42px;"/>
                </g>
                <g transform="matrix(1,0,0,1,2276.25,-1485.57)">
                    <rect x="953.173" y="4592.26" width="140.588" height="84.419" style="fill:rgb(1,1,1);stroke:rgb(4,4,4);stroke-width:35.42px;"/>
                </g>
                <g transform="matrix(1,0,0,1,2503.88,-1482.94)">
                    <rect x="953.173" y="4592.26" width="140.588" height="84.419" style="fill:rgb(1,1,1);stroke:rgb(4,4,4);stroke-width:35.42px;"/>
                </g>
                <g transform="matrix(1,0,0,1,-518.439,-1269.14)">
                    <rect x="953.173" y="4592.26" width="140.588" height="84.419" style="fill:rgb(1,1,1);stroke:rgb(4,4,4);stroke-width:35.42px;"/>
                </g>
                <g transform="matrix(1,0,0,1,2630.9,-1275.64)">
                    <rect x="953.173" y="4592.26" width="140.588" height="84.419" style="fill:rgb(1,1,1);stroke:rgb(4,4,4);stroke-width:35.42px;"/>
                </g>
                <g transform="matrix(2.38902,0,0,1,1536.66,-1267.59)">
                    <rect x="953.173" y="4592.26" width="140.588" height="84.419" style="fill:rgb(1,1,1);stroke:rgb(4,4,4);stroke-width:19.34px;"/>
                </g>
                <g transform="matrix(1,0,0,1,2052.49,-1487.15)">
                    <rect x="953.173" y="4592.26" width="140.588" height="84.419" style="fill:rgb(1,1,1);stroke:rgb(4,4,4);stroke-width:35.42px;"/>
                </g>
                <g transform="matrix(1,0,0,1,2149.98,-1273.51)">
                    <rect x="953.173" y="4592.26" width="140.588" height="84.419" style="fill:rgb(1,1,1);stroke:rgb(4,4,4);stroke-width:35.42px;"/>
                </g>
                <g transform="matrix(1,0,0,1,-268.139,-1265.13)">
                    <rect x="953.173" y="4592.26" width="140.588" height="84.419" style="fill:rgb(1,1,1);stroke:rgb(4,4,4);stroke-width:35.42px;"/>
                </g>
                <g transform="matrix(14.489,0,0,1,-12836.5,-1262.86)">
                    <rect x="953.173" y="4592.26" width="140.588" height="84.419" style="fill:rgb(1,1,1);stroke:rgb(4,4,4);stroke-width:3.45px;"/>
                </g>
                <g transform="matrix(1,0,0,1,-746.698,-1264.64)">
                    <rect x="953.173" y="4592.26" width="140.588" height="84.419" style="fill:rgb(1,1,1);stroke:rgb(4,4,4);stroke-width:35.42px;"/>
                </g>
                <g transform="matrix(1,0,0,1,2716.11,-1495.52)">
                    <rect x="953.173" y="4592.26" width="140.588" height="84.419" style="fill:rgb(1,1,1);stroke:rgb(4,4,4);stroke-width:35.42px;"/>
                </g>
                <g transform="matrix(1.51051,0,0,1,-1553.67,-1271.5)">
                    <rect x="953.173" y="4592.26" width="140.588" height="84.419" style="fill:rgb(1,1,1);stroke:rgb(4,4,4);stroke-width:27.65px;"/>
                </g>
                <g transform="matrix(0.998515,-0.0544762,0.185145,3.39359,2095.6,-12639.4)">
                    <rect x="953.173" y="4592.26" width="140.588" height="84.419" style="fill:rgb(1,1,1);stroke:rgb(4,4,4);stroke-width:14.14px;"/>
                </g>
                <g transform="matrix(1,0,0,1,2399.46,-1271.21)">
                    <rect x="953.173" y="4592.26" width="140.588" height="84.419" style="fill:rgb(1,1,1);stroke:rgb(4,4,4);stroke-width:35.42px;"/>
                </g>
            </g>
        </g>
    </g>
</svg>
