<?xml version="1.0" encoding="UTF-8" standalone="no"?>
<!DOCTYPE svg PUBLIC "-//W3C//DTD SVG 1.1//EN" "http://www.w3.org/Graphics/SVG/1.1/DTD/svg11.dtd">
<svg width="100%" height="100%" viewBox="0 0 3508 2481" version="1.1" xmlns="http://www.w3.org/2000/svg" xmlns:xlink="http://www.w3.org/1999/xlink" xml:space="preserve" xmlns:serif="http://www.serif.com/" style="fill-rule:evenodd;clip-rule:evenodd;stroke-linecap:round;stroke-linejoin:round;stroke-miterlimit:1.5;">
    <g id="wuerfel" transform="matrix(1,0,0,1,5.97722,-9.69505)" style="opacity:0">
        <g transform="matrix(0.838989,-0.484391,4.71605e-17,0.998206,721.947,780.953)">
            <rect x="735.698" y="702.629" width="981.107" height="860.718" style="fill:rgb(52,115,175);"/>
        </g>
        <g transform="matrix(0.731014,0.422051,-5.48571e-17,0.996246,87.7222,-294.937)">
            <rect x="735.698" y="702.629" width="981.107" height="860.718" style="fill:rgb(27,80,130);"/>
        </g>
        <g transform="matrix(0.841619,-0.485909,0.831822,0.480253,-581.149,734.775)">
            <rect x="735.698" y="702.629" width="981.107" height="860.718" style="fill:rgb(129,182,231);"/>
        </g>
    </g>
    <g id="schachbrett" transform="matrix(1,0,0,1,5.97722,-9.69505)" style="opacity:0">
        <g transform="matrix(0.838989,-0.484391,4.71605e-17,0.998206,721.947,780.953)">
            <rect x="735.698" y="702.629" width="981.107" height="860.718" style="fill:rgb(52,115,175);"/>
        </g>
        <g transform="matrix(0.731014,0.422051,-5.48571e-17,0.996246,87.7222,-294.937)">
            <rect x="735.698" y="702.629" width="981.107" height="860.718" style="fill:rgb(27,80,130);"/>
        </g>
        <g transform="matrix(0.841619,-0.485909,0.831822,0.480253,-581.149,734.775)">
            <rect x="735.698" y="702.629" width="981.107" height="860.718" style="fill:rgb(129,182,231);"/>
        </g>
        <g transform="matrix(1,0,0,1,-405.389,-219.003)">
            <path d="M1747.6,1346.79L1535.01,1226.28L1536.13,1476.35L1749.18,1599.15L1747.6,1346.79Z" style="fill:rgb(253,253,253);stroke:black;stroke-width:1px;"/>
        </g>
        <g transform="matrix(1,0,0,1,-405.389,-219.003)">
            <path d="M1749.18,1599.15L1749.7,1836.27L1534.73,1712.1L1535.74,1477.16L1749.18,1599.15Z" style="stroke:black;stroke-width:1px;"/>
        </g>
        <g transform="matrix(1,0,0,1,-405.389,-219.003)">
            <path d="M1749.7,1836.27L1749.91,2072.69L1536.02,1949.11L1535.68,1712.56L1749.7,1836.27Z" style="fill:white;stroke:black;stroke-width:1px;"/>
        </g>
        <g transform="matrix(1,0,0,1,-405.389,-219.003)">
            <path d="M1749.91,2072.69L1748.89,2202.36L1534.3,2080.52L1535.83,1948.1L1749.91,2072.69Z" style="stroke:black;stroke-width:1px;"/>
        </g>
        <g transform="matrix(1,0,0,1,-405.389,-219.003)">
            <path d="M1534.3,2080.52L1329.53,1963.78L1330.84,1830.86L1535.95,1947.77L1534.3,2080.52Z" style="fill:white;stroke:black;stroke-width:1px;"/>
        </g>
        <g transform="matrix(1,0,0,1,-405.389,-219.003)">
            <path d="M1329.53,1963.78L1125.7,1844.54L1124.9,1711.85L1331.41,1831.17L1329.53,1963.78Z" style="stroke:black;stroke-width:1px;"/>
        </g>
        <g transform="matrix(1,0,0,1,-405.389,-219.003)">
            <path d="M1124.9,1711.85L1031.76,1658.18L1030.78,1791.28L1125.15,1846.41L1124.9,1711.85Z" style="fill:white;stroke:black;stroke-width:1px;"/>
        </g>
        <g transform="matrix(1,0,0,1,-405.389,-219.003)">
            <path d="M1125.66,1474.97L1032.37,1421.63L1030.87,1656.98L1126.06,1712.42L1125.66,1474.97Z" style="stroke:black;stroke-width:1px;"/>
        </g>
        <g transform="matrix(1,0,0,1,-405.389,-219.003)">
            <path d="M1330.5,1594.12L1331.96,1831.03L1126.25,1712.64L1126.16,1475.96L1330.5,1594.12Z" style="fill:white;stroke:black;stroke-width:1px;"/>
        </g>
        <g transform="matrix(1,0,0,1,-405.389,-219.003)">
            <path d="M1535.64,1714.54L1535.99,1947.38L1331.65,1830.22L1330.92,1594.71L1535.64,1714.54Z" style="stroke:black;stroke-width:1px;"/>
        </g>
        <g transform="matrix(1,0,0,1,-405.389,-219.003)">
            <path d="M1535.8,1476.64L1330.21,1356.83L1329.73,1593.21L1534.37,1711.24L1535.8,1476.64Z" style="fill:white;stroke:black;stroke-width:1px;"/>
        </g>
        <g transform="matrix(1,0,0,1,-405.389,-219.003)">
            <path d="M1330.21,1356.83L1329.73,1593.21L1125.94,1475.02L1124.5,1238.96L1330.21,1356.83Z" style="stroke:black;stroke-width:1px;"/>
        </g>
        <g transform="matrix(1,0,0,1,-405.389,-219.003)">
            <path d="M1124.5,1238.96L1031.24,1185.86L1031.93,1421.25L1126.42,1475.13L1124.5,1238.96Z" style="fill:white;stroke:black;stroke-width:1px;"/>
        </g>
        <g transform="matrix(1,0,0,1,-405.389,-219.003)">
            <path d="M1031.24,1185.86L1124.5,1238.96L1125.76,989.815L1031.09,934.212L1031.24,1185.86Z" style="stroke:black;stroke-width:1px;"/>
        </g>
        <g transform="matrix(1,0,0,1,-405.389,-219.003)">
            <path d="M1125.76,989.815L1124.5,1238.96L1330.4,1356.53L1330.25,1106.76L1125.76,989.815Z" style="fill:white;stroke:black;stroke-width:1px;"/>
        </g>
        <g transform="matrix(1,0,0,1,-405.389,-219.003)">
            <path d="M1330.4,1356.53L1536.15,1475.74L1535.18,1225.64L1331.4,1107.58L1330.4,1356.53Z" style="stroke:black;stroke-width:1px;"/>
        </g>
        <g transform="matrix(1,0,0,1,-405.389,-219.003)">
            <path d="M1750.08,2201.41L1750.27,2072.31L1943.76,1958.86L1943.94,2088.59L1750.08,2201.41Z" style="stroke:black;stroke-width:1px;"/>
        </g>
        <g transform="matrix(1,0,0,1,-405.389,-219.003)">
            <path d="M1943.76,1958.86L1750.27,2072.31L1750.06,1837.16L1943.99,1723.82L1943.76,1958.86Z" style="fill:white;stroke:black;stroke-width:1px;"/>
        </g>
        <g transform="matrix(1,0,0,1,-405.389,-219.003)">
            <path d="M1943.99,1723.82L1750.06,1837.16L1750.24,1599.19L1944.03,1485.98L1943.99,1723.82Z" style="stroke:black;stroke-width:1px;"/>
        </g>
        <g transform="matrix(1,0,0,1,-405.389,-219.003)">
            <path d="M1944.03,1485.98L1750.24,1599.19L1748.66,1346.51L1944.08,1232.19L1944.03,1485.98Z" style="fill:white;stroke:black;stroke-width:1px;"/>
        </g>
        <g transform="matrix(1,0,0,1,-405.389,-219.003)">
            <path d="M1944.08,1232.19L1944.03,1485.98L2149.7,1364.54L2148.03,1112.87L1944.08,1232.19Z" style="stroke:black;stroke-width:1px;"/>
        </g>
        <g transform="matrix(1,0,0,1,-405.389,-219.003)">
            <path d="M2149.7,1364.54L1944.03,1485.98L1944.37,1723.46L2149.34,1604.65L2149.7,1364.54Z" style="fill:white;stroke:black;stroke-width:1px;"/>
        </g>
        <g transform="matrix(1,0,0,1,-405.389,-219.003)">
            <path d="M2149.34,1604.65L1944.37,1723.46L1944.03,1956.79L2149.12,1838.4L2149.34,1604.65Z" style="stroke:black;stroke-width:1px;"/>
        </g>
        <g transform="matrix(1,0,0,1,-405.389,-219.003)">
            <path d="M1944.03,1956.79L2149.12,1838.4L2148.84,1969.96L1944.33,2087.35L1944.03,1956.79Z" style="fill:white;stroke:black;stroke-width:1px;"/>
        </g>
        <g transform="matrix(1,0,0,1,-405.389,-219.003)">
            <path d="M2148.84,1969.96L2149.12,1838.4L2353.61,1719.28L2353.46,1851.7L2148.84,1969.96Z" style="stroke:black;stroke-width:1px;"/>
        </g>
        <g transform="matrix(1,0,0,1,-405.389,-219.003)">
            <path d="M2353.61,1719.28L2149.12,1838.4L2150.28,1603.69L2353.17,1483.19L2353.61,1719.28Z" style="fill:white;stroke:black;stroke-width:1px;"/>
        </g>
        <g transform="matrix(1,0,0,1,-405.389,-219.003)">
            <path d="M2150.28,1603.69L2353.17,1483.19L2353.7,1248.13L2150.39,1365.54L2150.28,1603.69Z" style="stroke:black;stroke-width:1px;"/>
        </g>
        <g transform="matrix(1,0,0,1,-405.389,-219.003)">
            <path d="M2353.7,1248.13L2150.39,1365.54L2147.74,1113.13L2353.04,994.615L2353.7,1248.13" style="fill:white;stroke:black;stroke-width:1px;"/>
        </g>
        <g transform="matrix(1,0,0,1,-405.389,-219.003)">
            <path d="M2353.7,1248.13L2353.04,994.615L2567.71,871.607L2567.71,1124.17L2353.7,1248.13Z" style="stroke:black;stroke-width:1px;"/>
        </g>
        <g transform="matrix(1,0,0,1,-405.389,-219.003)">
            <path d="M2567.55,1361.31L2353.18,1483.23L2355.3,1248.93L2567.65,1123.17L2567.55,1361.31Z" style="fill:rgb(251,251,251);stroke:black;stroke-width:1px;"/>
        </g>
        <g transform="matrix(1,0,0,1,-405.389,-219.003)">
            <path d="M2567.63,1360.67L2354.7,1481.71L2354.1,1718.18L2568.12,1593.94L2567.63,1360.67Z" style="stroke:black;stroke-width:1px;"/>
        </g>
        <g transform="matrix(1,0,0,1,-405.389,-219.003)">
            <path d="M2568.12,1593.94L2354.1,1718.18L2354.02,1850.85L2568.22,1728.21L2568.12,1593.94Z" style="fill:white;stroke:black;stroke-width:1px;"/>
        </g>
        <g transform="matrix(1,0,0,1,-405.389,-219.003)">
            <path d="M1748.68,1345.94L1537.17,1225.75L1738.79,1109.01L1946.28,1232.31L1748.68,1345.94Z" style="fill:white;stroke:black;stroke-width:1px;"/>
        </g>
        <g transform="matrix(1,0,0,1,-405.389,-219.003)">
            <path d="M1738.79,1109.01L1946.28,1232.31L2149.59,1109.55L1944.66,995.148L1738.79,1109.01Z" style="stroke:black;stroke-width:1px;"/>
        </g>
        <g transform="matrix(1,0,0,1,-405.389,-219.003)">
            <path d="M2149.59,1109.55L1944.66,995.148L2147.92,873.091L2352.97,994.086L2149.59,1109.55Z" style="fill:white;stroke:black;stroke-width:1px;"/>
        </g>
        <g transform="matrix(1,0,0,1,-405.389,-219.003)">
            <path d="M2352.97,994.086L2147.92,873.091L2364.4,751.3L2567.6,870.543L2352.97,994.086Z" style="stroke:black;stroke-width:1px;"/>
        </g>
        <g transform="matrix(1,0,0,1,-405.389,-219.003)">
            <path d="M1537.21,1225.81L1739.69,1108.88L1534.25,990.831L1331.53,1106.85L1537.21,1225.81Z" style="stroke:black;stroke-width:1px;"/>
        </g>
        <g transform="matrix(1,0,0,1,-405.389,-219.003)">
            <path d="M1739.69,1108.88L1534.25,990.831L1739.85,873.922L1946.45,993.304L1739.69,1108.88Z" style="fill:white;stroke:black;stroke-width:1px;"/>
        </g>
        <g transform="matrix(1,0,0,1,-405.389,-219.003)">
            <path d="M1946.45,993.304L1739.85,873.922L1943.73,756.14L2148.76,872.127L1946.45,993.304Z" style="stroke:black;stroke-width:1px;"/>
        </g>
        <g transform="matrix(1,0,0,1,-405.389,-219.003)">
            <path d="M2148.76,872.127L1943.73,756.14L2156.34,631.664L2364.84,751.353L2148.76,872.127Z" style="fill:white;stroke:black;stroke-width:1px;"/>
        </g>
        <g transform="matrix(1,0,0,1,-405.389,-219.003)">
            <path d="M1330.48,1106.14L1126.57,989.894L1329.99,875.277L1534.38,990.013L1330.48,1106.14Z" style="fill:white;stroke:black;stroke-width:1px;"/>
        </g>
        <g transform="matrix(1,0,0,1,-405.389,-219.003)">
            <path d="M1534.38,990.013L1329.99,875.277L1535.78,756.613L1739.27,873.742L1534.38,990.013Z" style="stroke:black;stroke-width:1px;"/>
        </g>
        <g transform="matrix(1,0,0,1,-405.389,-219.003)">
            <path d="M1739.27,873.742L1535.78,756.613L1739.12,640.951L1944.2,755.293L1739.27,873.742Z" style="fill:white;stroke:black;stroke-width:1px;"/>
        </g>
        <g transform="matrix(1,0,0,1,-405.389,-219.003)">
            <path d="M1944.2,755.293L1739.12,640.951L1953.47,515.167L2156.38,631.299L1944.2,755.293Z" style="stroke:black;stroke-width:1px;"/>
        </g>
        <g transform="matrix(1,0,0,1,-405.389,-219.003)">
            <path d="M1126.93,989.699L1031.88,932.886L1227.32,817.942L1330.84,874.59L1126.93,989.699Z" style="stroke:black;stroke-width:1px;"/>
        </g>
        <g transform="matrix(1,0,0,1,-405.389,-219.003)">
            <path d="M1330.84,874.59L1227.32,817.942L1432.58,699.659L1535.29,757.061L1330.84,874.59Z" style="fill:white;stroke:black;stroke-width:1px;"/>
        </g>
        <g transform="matrix(1,0,0,1,-405.389,-219.003)">
            <path d="M1535.29,757.061L1432.58,699.659L1637.5,582.123L1738.5,641.107L1535.29,757.061Z" style="stroke:black;stroke-width:1px;"/>
        </g>
        <g transform="matrix(1,0,0,1,-405.389,-219.003)">
            <path d="M1738.5,641.107L1637.5,582.123L1853.68,456.359L1953.62,513.951L1738.5,641.107Z" style="fill:white;stroke:black;stroke-width:1px;"/>
        </g>
    </g>
    <g id="texturWuerfel" transform="matrix(1,0,0,1,5.97722,-9.69505)"  style="opacity:0">
        <g transform="matrix(0.838989,-0.484391,4.71605e-17,0.998206,721.947,780.953)">
            <rect x="735.698" y="702.629" width="981.107" height="860.718" style="fill:rgb(52,115,175);"/>
        </g>
        <g transform="matrix(0.731014,0.422051,-5.48571e-17,0.996246,87.7222,-294.937)">
            <rect x="735.698" y="702.629" width="981.107" height="860.718" style="fill:rgb(27,80,130);"/>
        </g>
        <g transform="matrix(0.841619,-0.485909,0.831822,0.480253,-581.149,734.775)">
            <rect x="735.698" y="702.629" width="981.107" height="860.718" style="fill:rgb(129,182,231);"/>
        </g>
        <g transform="matrix(1,0,0,1,-405.389,-219.003)">
            <path d="M1747.6,1346.79L1535.01,1226.28L1536.13,1476.35L1749.18,1599.15L1747.6,1346.79Z" style="fill:rgb(253,253,253);stroke:black;stroke-width:1px;"/>
        </g>
        <g transform="matrix(1,0,0,1,-405.389,-219.003)">
            <path d="M1749.18,1599.15L1749.7,1836.27L1534.73,1712.1L1535.74,1477.16L1749.18,1599.15Z" style="stroke:black;stroke-width:1px;"/>
        </g>
        <g transform="matrix(1,0,0,1,-405.389,-219.003)">
            <path d="M1749.7,1836.27L1749.91,2072.69L1536.02,1949.11L1535.68,1712.56L1749.7,1836.27Z" style="fill:white;stroke:black;stroke-width:1px;"/>
        </g>
        <g transform="matrix(1,0,0,1,-405.389,-219.003)">
            <path d="M1749.91,2072.69L1748.89,2202.36L1534.3,2080.52L1535.83,1948.1L1749.91,2072.69Z" style="stroke:black;stroke-width:1px;"/>
        </g>
        <g transform="matrix(1,0,0,1,-405.389,-219.003)">
            <path d="M1534.3,2080.52L1329.53,1963.78L1330.84,1830.86L1535.95,1947.77L1534.3,2080.52Z" style="fill:white;stroke:black;stroke-width:1px;"/>
        </g>
        <g transform="matrix(1,0,0,1,-405.389,-219.003)">
            <path d="M1329.53,1963.78L1125.7,1844.54L1124.9,1711.85L1331.41,1831.17L1329.53,1963.78Z" style="stroke:black;stroke-width:1px;"/>
        </g>
        <g transform="matrix(1,0,0,1,-405.389,-219.003)">
            <path d="M1124.9,1711.85L1031.76,1658.18L1030.78,1791.28L1125.15,1846.41L1124.9,1711.85Z" style="fill:white;stroke:black;stroke-width:1px;"/>
        </g>
        <g transform="matrix(1,0,0,1,-405.389,-219.003)">
            <path d="M1125.66,1474.97L1032.37,1421.63L1030.87,1656.98L1126.06,1712.42L1125.66,1474.97Z" style="stroke:black;stroke-width:1px;"/>
        </g>
        <g transform="matrix(1,0,0,1,-405.389,-219.003)">
            <path d="M1330.5,1594.12L1331.96,1831.03L1126.25,1712.64L1126.16,1475.96L1330.5,1594.12Z" style="fill:white;stroke:black;stroke-width:1px;"/>
        </g>
        <g transform="matrix(1,0,0,1,-405.389,-219.003)">
            <path d="M1535.64,1714.54L1535.99,1947.38L1331.65,1830.22L1330.92,1594.71L1535.64,1714.54Z" style="stroke:black;stroke-width:1px;"/>
        </g>
        <g transform="matrix(1,0,0,1,-405.389,-219.003)">
            <path d="M1535.8,1476.64L1330.21,1356.83L1329.73,1593.21L1534.37,1711.24L1535.8,1476.64Z" style="fill:white;stroke:black;stroke-width:1px;"/>
        </g>
        <g transform="matrix(1,0,0,1,-405.389,-219.003)">
            <path d="M1330.21,1356.83L1329.73,1593.21L1125.94,1475.02L1124.5,1238.96L1330.21,1356.83Z" style="stroke:black;stroke-width:1px;"/>
        </g>
        <g transform="matrix(1,0,0,1,-405.389,-219.003)">
            <path d="M1124.5,1238.96L1031.24,1185.86L1031.93,1421.25L1126.42,1475.13L1124.5,1238.96Z" style="fill:white;stroke:black;stroke-width:1px;"/>
        </g>
        <g transform="matrix(1,0,0,1,-405.389,-219.003)">
            <path d="M1031.24,1185.86L1124.5,1238.96L1125.76,989.815L1031.09,934.212L1031.24,1185.86Z" style="stroke:black;stroke-width:1px;"/>
        </g>
        <g transform="matrix(1,0,0,1,-405.389,-219.003)">
            <path d="M1125.76,989.815L1124.5,1238.96L1330.4,1356.53L1330.25,1106.76L1125.76,989.815Z" style="fill:white;stroke:black;stroke-width:1px;"/>
        </g>
        <g transform="matrix(1,0,0,1,-405.389,-219.003)">
            <path d="M1330.4,1356.53L1536.15,1475.74L1535.18,1225.64L1331.4,1107.58L1330.4,1356.53Z" style="stroke:black;stroke-width:1px;"/>
        </g>
        <g transform="matrix(1,0,0,1,-405.389,-219.003)">
            <path d="M1750.08,2201.41L1750.27,2072.31L1943.76,1958.86L1943.94,2088.59L1750.08,2201.41Z" style="stroke:black;stroke-width:1px;"/>
        </g>
        <g transform="matrix(1,0,0,1,-405.389,-219.003)">
            <path d="M1943.76,1958.86L1750.27,2072.31L1750.06,1837.16L1943.99,1723.82L1943.76,1958.86Z" style="fill:white;stroke:black;stroke-width:1px;"/>
        </g>
        <g transform="matrix(1,0,0,1,-405.389,-219.003)">
            <path d="M1943.99,1723.82L1750.06,1837.16L1750.24,1599.19L1944.03,1485.98L1943.99,1723.82Z" style="stroke:black;stroke-width:1px;"/>
        </g>
        <g transform="matrix(1,0,0,1,-405.389,-219.003)">
            <path d="M1944.03,1485.98L1750.24,1599.19L1748.66,1346.51L1944.08,1232.19L1944.03,1485.98Z" style="fill:white;stroke:black;stroke-width:1px;"/>
        </g>
        <g transform="matrix(1,0,0,1,-405.389,-219.003)">
            <path d="M1944.08,1232.19L1944.03,1485.98L2149.7,1364.54L2148.03,1112.87L1944.08,1232.19Z" style="stroke:black;stroke-width:1px;"/>
        </g>
        <g transform="matrix(1,0,0,1,-405.389,-219.003)">
            <path d="M2149.7,1364.54L1944.03,1485.98L1944.37,1723.46L2149.34,1604.65L2149.7,1364.54Z" style="fill:white;stroke:black;stroke-width:1px;"/>
        </g>
        <g transform="matrix(1,0,0,1,-405.389,-219.003)">
            <path d="M2149.34,1604.65L1944.37,1723.46L1944.03,1956.79L2149.12,1838.4L2149.34,1604.65Z" style="stroke:black;stroke-width:1px;"/>
        </g>
        <g transform="matrix(1,0,0,1,-405.389,-219.003)">
            <path d="M1944.03,1956.79L2149.12,1838.4L2148.84,1969.96L1944.33,2087.35L1944.03,1956.79Z" style="fill:white;stroke:black;stroke-width:1px;"/>
        </g>
        <g transform="matrix(1,0,0,1,-405.389,-219.003)">
            <path d="M2148.84,1969.96L2149.12,1838.4L2353.61,1719.28L2353.46,1851.7L2148.84,1969.96Z" style="stroke:black;stroke-width:1px;"/>
        </g>
        <g transform="matrix(1,0,0,1,-405.389,-219.003)">
            <path d="M2353.61,1719.28L2149.12,1838.4L2150.28,1603.69L2353.17,1483.19L2353.61,1719.28Z" style="fill:white;stroke:black;stroke-width:1px;"/>
        </g>
        <g transform="matrix(1,0,0,1,-405.389,-219.003)">
            <path d="M2150.28,1603.69L2353.17,1483.19L2353.7,1248.13L2150.39,1365.54L2150.28,1603.69Z" style="stroke:black;stroke-width:1px;"/>
        </g>
        <g transform="matrix(1,0,0,1,-405.389,-219.003)">
            <path d="M2353.7,1248.13L2150.39,1365.54L2147.74,1113.13L2353.04,994.615L2353.7,1248.13" style="fill:white;stroke:black;stroke-width:1px;"/>
        </g>
        <g transform="matrix(1,0,0,1,-405.389,-219.003)">
            <path d="M2353.7,1248.13L2353.04,994.615L2567.71,871.607L2567.71,1124.17L2353.7,1248.13Z" style="stroke:black;stroke-width:1px;"/>
        </g>
        <g transform="matrix(1,0,0,1,-405.389,-219.003)">
            <path d="M2567.55,1361.31L2353.18,1483.23L2355.3,1248.93L2567.65,1123.17L2567.55,1361.31Z" style="fill:rgb(251,251,251);stroke:black;stroke-width:1px;"/>
        </g>
        <g transform="matrix(1,0,0,1,-405.389,-219.003)">
            <path d="M2567.63,1360.67L2354.7,1481.71L2354.1,1718.18L2568.12,1593.94L2567.63,1360.67Z" style="stroke:black;stroke-width:1px;"/>
        </g>
        <g transform="matrix(1,0,0,1,-405.389,-219.003)">
            <path d="M2568.12,1593.94L2354.1,1718.18L2354.02,1850.85L2568.22,1728.21L2568.12,1593.94Z" style="fill:white;stroke:black;stroke-width:1px;"/>
        </g>
        <g transform="matrix(1,0,0,1,-405.389,-219.003)">
            <path d="M1748.68,1345.94L1537.17,1225.75L1738.79,1109.01L1946.28,1232.31L1748.68,1345.94Z" style="fill:white;stroke:black;stroke-width:1px;"/>
        </g>
        <g transform="matrix(1,0,0,1,-405.389,-219.003)">
            <path d="M1738.79,1109.01L1946.28,1232.31L2149.59,1109.55L1944.66,995.148L1738.79,1109.01Z" style="stroke:black;stroke-width:1px;"/>
        </g>
        <g transform="matrix(1,0,0,1,-405.389,-219.003)">
            <path d="M2149.59,1109.55L1944.66,995.148L2147.92,873.091L2352.97,994.086L2149.59,1109.55Z" style="fill:white;stroke:black;stroke-width:1px;"/>
        </g>
        <g transform="matrix(1,0,0,1,-405.389,-219.003)">
            <path d="M2352.97,994.086L2147.92,873.091L2364.4,751.3L2567.6,870.543L2352.97,994.086Z" style="stroke:black;stroke-width:1px;"/>
        </g>
        <g transform="matrix(1,0,0,1,-405.389,-219.003)">
            <path d="M1537.21,1225.81L1739.69,1108.88L1534.25,990.831L1331.53,1106.85L1537.21,1225.81Z" style="stroke:black;stroke-width:1px;"/>
        </g>
        <g transform="matrix(1,0,0,1,-405.389,-219.003)">
            <path d="M1739.69,1108.88L1534.25,990.831L1739.85,873.922L1946.45,993.304L1739.69,1108.88Z" style="fill:white;stroke:black;stroke-width:1px;"/>
        </g>
        <g transform="matrix(1,0,0,1,-405.389,-219.003)">
            <path d="M1946.45,993.304L1739.85,873.922L1943.73,756.14L2148.76,872.127L1946.45,993.304Z" style="stroke:black;stroke-width:1px;"/>
        </g>
        <g transform="matrix(1,0,0,1,-405.389,-219.003)">
            <path d="M2148.76,872.127L1943.73,756.14L2156.34,631.664L2364.84,751.353L2148.76,872.127Z" style="fill:white;stroke:black;stroke-width:1px;"/>
        </g>
        <g transform="matrix(1,0,0,1,-405.389,-219.003)">
            <path d="M1330.48,1106.14L1126.57,989.894L1329.99,875.277L1534.38,990.013L1330.48,1106.14Z" style="fill:white;stroke:black;stroke-width:1px;"/>
        </g>
        <g transform="matrix(1,0,0,1,-405.389,-219.003)">
            <path d="M1534.38,990.013L1329.99,875.277L1535.78,756.613L1739.27,873.742L1534.38,990.013Z" style="stroke:black;stroke-width:1px;"/>
        </g>
        <g transform="matrix(1,0,0,1,-405.389,-219.003)">
            <path d="M1739.27,873.742L1535.78,756.613L1739.12,640.951L1944.2,755.293L1739.27,873.742Z" style="fill:white;stroke:black;stroke-width:1px;"/>
        </g>
        <g transform="matrix(1,0,0,1,-405.389,-219.003)">
            <path d="M1944.2,755.293L1739.12,640.951L1953.47,515.167L2156.38,631.299L1944.2,755.293Z" style="stroke:black;stroke-width:1px;"/>
        </g>
        <g transform="matrix(1,0,0,1,-405.389,-219.003)">
            <path d="M1126.93,989.699L1031.88,932.886L1227.32,817.942L1330.84,874.59L1126.93,989.699Z" style="stroke:black;stroke-width:1px;"/>
        </g>
        <g transform="matrix(1,0,0,1,-405.389,-219.003)">
            <path d="M1330.84,874.59L1227.32,817.942L1432.58,699.659L1535.29,757.061L1330.84,874.59Z" style="fill:white;stroke:black;stroke-width:1px;"/>
        </g>
        <g transform="matrix(1,0,0,1,-405.389,-219.003)">
            <path d="M1535.29,757.061L1432.58,699.659L1637.5,582.123L1738.5,641.107L1535.29,757.061Z" style="stroke:black;stroke-width:1px;"/>
        </g>
        <g transform="matrix(1,0,0,1,-405.389,-219.003)">
            <path d="M1738.5,641.107L1637.5,582.123L1853.68,456.359L1953.62,513.951L1738.5,641.107Z" style="fill:white;stroke:black;stroke-width:1px;"/>
        </g>
        <g transform="matrix(1,0,0,1,-399.411,-228.698)">
            <g transform="matrix(1.55464,-0.840731,0.475686,0.879615,-1930.81,1776.84)">
                <path d="M1968.08,1990.89C1968.08,1966.03 1956.67,1945.86 1942.61,1945.86L1773.67,1945.86C1759.61,1945.86 1748.19,1966.03 1748.19,1990.89L1748.19,2080.95C1748.19,2105.8 1759.61,2125.97 1773.67,2125.97L1942.61,2125.97C1956.67,2125.97 1968.08,2105.8 1968.08,2080.95L1968.08,1990.89Z" style="fill:rgb(195,71,69);"/>
            </g>
            <g transform="matrix(1.51094,-0.859875,0.494613,0.869113,-1419.33,1559.64)">
                <path d="M1968.08,1990.89C1968.08,1966.03 1956.48,1945.86 1942.18,1945.86L1774.09,1945.86C1759.8,1945.86 1748.19,1966.03 1748.19,1990.89L1748.19,2080.95C1748.19,2105.8 1759.8,2125.97 1774.09,2125.97L1942.18,2125.97C1956.48,2125.97 1968.08,2105.8 1968.08,2080.95L1968.08,1990.89Z" style="fill:rgb(195,71,69);"/>
            </g>
            <g transform="matrix(1.51094,-0.859875,0.494613,0.869113,-1888.45,1450.55)">
                <path d="M1968.08,1990.89C1968.08,1966.03 1956.48,1945.86 1942.18,1945.86L1774.09,1945.86C1759.8,1945.86 1748.19,1966.03 1748.19,1990.89L1748.19,2080.95C1748.19,2105.8 1759.8,2125.97 1774.09,2125.97L1942.18,2125.97C1956.48,2125.97 1968.08,2105.8 1968.08,2080.95L1968.08,1990.89Z" style="fill:rgb(195,71,69);"/>
            </g>
            <g transform="matrix(1.51094,-0.859875,0.494613,0.869113,-1563.35,1157.16)">
                <path d="M1968.08,1990.89C1968.08,1966.03 1956.48,1945.86 1942.18,1945.86L1774.09,1945.86C1759.8,1945.86 1748.19,1966.03 1748.19,1990.89L1748.19,2080.95C1748.19,2105.8 1759.8,2125.97 1774.09,2125.97L1942.18,2125.97C1956.48,2125.97 1968.08,2105.8 1968.08,2080.95L1968.08,1990.89Z" style="fill:rgb(195,71,69);"/>
            </g>
            <g transform="matrix(1.51094,-0.859875,0.494613,0.869113,-1408.49,1165.92)">
                <path d="M1968.08,1990.89C1968.08,1966.03 1956.48,1945.86 1942.18,1945.86L1774.09,1945.86C1759.8,1945.86 1748.19,1966.03 1748.19,1990.89L1748.19,2080.95C1748.19,2105.8 1759.8,2125.97 1774.09,2125.97L1942.18,2125.97C1956.48,2125.97 1968.08,2105.8 1968.08,2080.95L1968.08,1990.89Z" style="fill:rgb(195,71,69);"/>
            </g>
            <g transform="matrix(1.51094,-0.859875,0.494613,0.869113,-1676.91,1540.43)">
                <path d="M1968.08,1990.89C1968.08,1966.03 1956.48,1945.86 1942.18,1945.86L1774.09,1945.86C1759.8,1945.86 1748.19,1966.03 1748.19,1990.89L1748.19,2080.95C1748.19,2105.8 1759.8,2125.97 1774.09,2125.97L1942.18,2125.97C1956.48,2125.97 1968.08,2105.8 1968.08,2080.95L1968.08,1990.89Z" style="fill:rgb(195,71,69);"/>
            </g>
            <g transform="matrix(1.51094,-0.859875,0.494613,0.869113,-1627.97,1675.8)">
                <path d="M1968.08,1990.89C1968.08,1966.03 1956.48,1945.86 1942.18,1945.86L1774.09,1945.86C1759.8,1945.86 1748.19,1966.03 1748.19,1990.89L1748.19,2080.95C1748.19,2105.8 1759.8,2125.97 1774.09,2125.97L1942.18,2125.97C1956.48,2125.97 1968.08,2105.8 1968.08,2080.95L1968.08,1990.89Z" style="fill:rgb(241,176,117);"/>
            </g>
            <g transform="matrix(1.51094,-0.859875,0.494613,0.869113,-1886.26,1629.36)">
                <path d="M1968.08,1990.89C1968.08,1966.03 1956.48,1945.86 1942.18,1945.86L1774.09,1945.86C1759.8,1945.86 1748.19,1966.03 1748.19,1990.89L1748.19,2080.95C1748.19,2105.8 1759.8,2125.97 1774.09,2125.97L1942.18,2125.97C1956.48,2125.97 1968.08,2105.8 1968.08,2080.95L1968.08,1990.89Z" style="fill:rgb(241,176,117);"/>
            </g>
            <g transform="matrix(1.51094,-0.859875,0.494613,0.869113,-1427.8,914.535)">
                <path d="M1968.08,1990.89C1968.08,1966.03 1956.48,1945.86 1942.18,1945.86L1774.09,1945.86C1759.8,1945.86 1748.19,1966.03 1748.19,1990.89L1748.19,2080.95C1748.19,2105.8 1759.8,2125.97 1774.09,2125.97L1942.18,2125.97C1956.48,2125.97 1968.08,2105.8 1968.08,2080.95L1968.08,1990.89Z" style="fill:rgb(195,71,69);"/>
            </g>
            <g transform="matrix(1.51094,-0.859875,0.494613,0.869113,-1876.87,1362.61)">
                <path d="M1968.08,1990.89C1968.08,1966.03 1956.48,1945.86 1942.18,1945.86L1774.09,1945.86C1759.8,1945.86 1748.19,1966.03 1748.19,1990.89L1748.19,2080.95C1748.19,2105.8 1759.8,2125.97 1774.09,2125.97L1942.18,2125.97C1956.48,2125.97 1968.08,2105.8 1968.08,2080.95L1968.08,1990.89Z" style="fill:rgb(241,176,117);"/>
            </g>
            <g transform="matrix(1.73826,0.0275208,-0.0158304,0.999875,-1421.43,-832.606)">
                <path d="M1968.08,1990.89C1968.08,1966.03 1956.48,1945.86 1942.18,1945.86L1774.09,1945.86C1759.8,1945.86 1748.19,1966.03 1748.19,1990.89L1748.19,2080.95C1748.19,2105.8 1759.8,2125.97 1774.09,2125.97L1942.18,2125.97C1956.48,2125.97 1968.08,2105.8 1968.08,2080.95L1968.08,1990.89Z" style="fill:rgb(241,176,117);"/>
            </g>
            <g transform="matrix(1.51094,-0.859875,0.494613,0.869113,-1599.22,1314.63)">
                <path d="M1968.08,1990.89C1968.08,1966.03 1956.48,1945.86 1942.18,1945.86L1774.09,1945.86C1759.8,1945.86 1748.19,1966.03 1748.19,1990.89L1748.19,2080.95C1748.19,2105.8 1759.8,2125.97 1774.09,2125.97L1942.18,2125.97C1956.48,2125.97 1968.08,2105.8 1968.08,2080.95L1968.08,1990.89Z" style="fill:rgb(241,176,117);"/>
            </g>
            <g transform="matrix(1.5075,0.865881,-0.498068,0.867138,-187.356,-1560.83)">
                <path d="M1968.08,1990.89C1968.08,1966.03 1956.48,1945.86 1942.18,1945.86L1774.09,1945.86C1759.8,1945.86 1748.19,1966.03 1748.19,1990.89L1748.19,2080.95C1748.19,2105.8 1759.8,2125.97 1774.09,2125.97L1942.18,2125.97C1956.48,2125.97 1968.08,2105.8 1968.08,2080.95L1968.08,1990.89Z" style="fill:rgb(241,176,117);"/>
            </g>
            <g transform="matrix(1.51094,-0.859875,0.494613,0.869113,-1408.5,1353.18)">
                <path d="M1968.08,1990.89C1968.08,1966.03 1956.48,1945.86 1942.18,1945.86L1774.09,1945.86C1759.8,1945.86 1748.19,1966.03 1748.19,1990.89L1748.19,2080.95C1748.19,2105.8 1759.8,2125.97 1774.09,2125.97L1942.18,2125.97C1956.48,2125.97 1968.08,2105.8 1968.08,2080.95L1968.08,1990.89Z" style="fill:rgb(241,176,117);"/>
            </g>
            <g transform="matrix(1.51094,-0.859875,0.494613,0.869113,-1404.52,1056.33)">
                <path d="M1968.08,1990.89C1968.08,1966.03 1956.48,1945.86 1942.18,1945.86L1774.09,1945.86C1759.8,1945.86 1748.19,1966.03 1748.19,1990.89L1748.19,2080.95C1748.19,2105.8 1759.8,2125.97 1774.09,2125.97L1942.18,2125.97C1956.48,2125.97 1968.08,2105.8 1968.08,2080.95L1968.08,1990.89Z" style="fill:rgb(195,71,69);"/>
            </g>
            <g transform="matrix(1.73848,0.00397837,-0.00228842,0.999997,-1632.25,-925.837)">
                <path d="M1968.08,1990.89C1968.08,1966.03 1956.48,1945.86 1942.18,1945.86L1774.09,1945.86C1759.8,1945.86 1748.19,1966.03 1748.19,1990.89L1748.19,2080.95C1748.19,2105.8 1759.8,2125.97 1774.09,2125.97L1942.18,2125.97C1956.48,2125.97 1968.08,2105.8 1968.08,2080.95L1968.08,1990.89Z" style="fill:rgb(195,71,69);"/>
            </g>
            <g transform="matrix(1.7369,0.074079,-0.0426113,0.999092,-1852.72,-1212.64)">
                <path d="M1968.08,1990.89C1968.08,1966.03 1956.48,1945.86 1942.18,1945.86L1774.09,1945.86C1759.8,1945.86 1748.19,1966.03 1748.19,1990.89L1748.19,2080.95C1748.19,2105.8 1759.8,2125.97 1774.09,2125.97L1942.18,2125.97C1956.48,2125.97 1968.08,2105.8 1968.08,2080.95L1968.08,1990.89Z" style="fill:rgb(195,71,69);"/>
            </g>
            <g transform="matrix(1.47396,0.921827,-0.530248,0.847842,-453.176,-1642.94)">
                <path d="M1968.08,1990.89C1968.08,1966.03 1956.48,1945.86 1942.18,1945.86L1774.09,1945.86C1759.8,1945.86 1748.19,1966.03 1748.19,1990.89L1748.19,2080.95C1748.19,2105.8 1759.8,2125.97 1774.09,2125.97L1942.18,2125.97C1956.48,2125.97 1968.08,2105.8 1968.08,2080.95L1968.08,1990.89Z" style="fill:rgb(195,71,69);"/>
            </g>
            <g transform="matrix(1.51068,0.860336,-0.494878,0.868963,-601.153,-1826.34)">
                <path d="M1968.08,1990.89C1968.08,1966.03 1956.48,1945.86 1942.18,1945.86L1774.09,1945.86C1759.8,1945.86 1748.19,1966.03 1748.19,1990.89L1748.19,2080.95C1748.19,2105.8 1759.8,2125.97 1774.09,2125.97L1942.18,2125.97C1956.48,2125.97 1968.08,2105.8 1968.08,2080.95L1968.08,1990.89Z" style="fill:rgb(195,71,69);"/>
            </g>
            <g transform="matrix(1.51068,0.860336,-0.494878,0.868963,-209.173,-1346.15)">
                <path d="M1968.08,1990.89C1968.08,1966.03 1956.48,1945.86 1942.18,1945.86L1774.09,1945.86C1759.8,1945.86 1748.19,1966.03 1748.19,1990.89L1748.19,2080.95C1748.19,2105.8 1759.8,2125.97 1774.09,2125.97L1942.18,2125.97C1956.48,2125.97 1968.08,2105.8 1968.08,2080.95L1968.08,1990.89Z" style="fill:rgb(195,71,69);"/>
            </g>
            <g transform="matrix(1.51068,0.860336,-0.494878,0.868963,-594.627,-2106.65)">
                <path d="M1968.08,1990.89C1968.08,1966.03 1956.48,1945.86 1942.18,1945.86L1774.09,1945.86C1759.8,1945.86 1748.19,1966.03 1748.19,1990.89L1748.19,2080.95C1748.19,2105.8 1759.8,2125.97 1774.09,2125.97L1942.18,2125.97C1956.48,2125.97 1968.08,2105.8 1968.08,2080.95L1968.08,1990.89Z" style="fill:rgb(195,71,69);"/>
            </g>
            <g transform="matrix(1.51094,-0.859875,0.494613,0.869113,-1577.14,1008.65)">
                <path d="M1968.08,1990.89C1968.08,1966.03 1956.48,1945.86 1942.18,1945.86L1774.09,1945.86C1759.8,1945.86 1748.19,1966.03 1748.19,1990.89L1748.19,2080.95C1748.19,2105.8 1759.8,2125.97 1774.09,2125.97L1942.18,2125.97C1956.48,2125.97 1968.08,2105.8 1968.08,2080.95L1968.08,1990.89Z" style="fill:rgb(241,176,117);"/>
            </g>
            <g transform="matrix(1.51068,0.860336,-0.494878,0.868963,-357.967,-1508.38)">
                <path d="M1968.08,1990.89C1968.08,1966.03 1956.48,1945.86 1942.18,1945.86L1774.09,1945.86C1759.8,1945.86 1748.19,1966.03 1748.19,1990.89L1748.19,2080.95C1748.19,2105.8 1759.8,2125.97 1774.09,2125.97L1942.18,2125.97C1956.48,2125.97 1968.08,2105.8 1968.08,2080.95L1968.08,1990.89Z" style="fill:rgb(195,71,69);"/>
            </g>
            <g transform="matrix(1.51068,0.860336,-0.494878,0.868963,-284.221,-1892.35)">
                <path d="M1968.08,1990.89C1968.08,1966.03 1956.48,1945.86 1942.18,1945.86L1774.09,1945.86C1759.8,1945.86 1748.19,1966.03 1748.19,1990.89L1748.19,2080.95C1748.19,2105.8 1759.8,2125.97 1774.09,2125.97L1942.18,2125.97C1956.48,2125.97 1968.08,2105.8 1968.08,2080.95L1968.08,1990.89Z" style="fill:rgb(195,71,69);"/>
            </g>
            <g transform="matrix(1.51068,0.860336,-0.494878,0.868963,-314.151,-2087.56)">
                <path d="M1968.08,1990.89C1968.08,1966.03 1956.48,1945.86 1942.18,1945.86L1774.09,1945.86C1759.8,1945.86 1748.19,1966.03 1748.19,1990.89L1748.19,2080.95C1748.19,2105.8 1759.8,2125.97 1774.09,2125.97L1942.18,2125.97C1956.48,2125.97 1968.08,2105.8 1968.08,2080.95L1968.08,1990.89Z" style="fill:rgb(195,71,69);"/>
            </g>
            <g transform="matrix(1.73808,0.0373627,-0.0214916,0.999769,-1203.3,-986.411)">
                <path d="M1968.08,1990.89C1968.08,1966.03 1956.48,1945.86 1942.18,1945.86L1774.09,1945.86C1759.8,1945.86 1748.19,1966.03 1748.19,1990.89L1748.19,2080.95C1748.19,2105.8 1759.8,2125.97 1774.09,2125.97L1942.18,2125.97C1956.48,2125.97 1968.08,2105.8 1968.08,2080.95L1968.08,1990.89Z" style="fill:rgb(195,71,69);"/>
            </g>
            <g transform="matrix(1.73826,-0.0275561,0.0158506,0.999874,-1184.79,-1239.21)">
                <path d="M1968.08,1990.89C1968.08,1966.03 1956.48,1945.86 1942.18,1945.86L1774.09,1945.86C1759.8,1945.86 1748.19,1966.03 1748.19,1990.89L1748.19,2080.95C1748.19,2105.8 1759.8,2125.97 1774.09,2125.97L1942.18,2125.97C1956.48,2125.97 1968.08,2105.8 1968.08,2080.95L1968.08,1990.89Z" style="fill:rgb(195,71,69);"/>
            </g>
            <g transform="matrix(1.73826,-0.0275561,0.0158506,0.999874,-1195.33,-1121.68)">
                <path d="M1968.08,1990.89C1968.08,1966.03 1956.48,1945.86 1942.18,1945.86L1774.09,1945.86C1759.8,1945.86 1748.19,1966.03 1748.19,1990.89L1748.19,2080.95C1748.19,2105.8 1759.8,2125.97 1774.09,2125.97L1942.18,2125.97C1956.48,2125.97 1968.08,2105.8 1968.08,2080.95L1968.08,1990.89Z" style="fill:rgb(195,71,69);"/>
            </g>
            <g transform="matrix(1.73826,-0.0275561,0.0158506,0.999874,-1452.31,-1000.65)">
                <path d="M1968.08,1990.89C1968.08,1966.03 1956.48,1945.86 1942.18,1945.86L1774.09,1945.86C1759.8,1945.86 1748.19,1966.03 1748.19,1990.89L1748.19,2080.95C1748.19,2105.8 1759.8,2125.97 1774.09,2125.97L1942.18,2125.97C1956.48,2125.97 1968.08,2105.8 1968.08,2080.95L1968.08,1990.89Z" style="fill:rgb(195,71,69);"/>
            </g>
            <g transform="matrix(1.47662,0.917562,-0.527795,0.849372,-457.796,-2299.52)">
                <path d="M1968.08,1990.89C1968.08,1966.03 1956.48,1945.86 1942.18,1945.86L1774.09,1945.86C1759.8,1945.86 1748.19,1966.03 1748.19,1990.89L1748.19,2080.95C1748.19,2105.8 1759.8,2125.97 1774.09,2125.97L1942.18,2125.97C1956.48,2125.97 1968.08,2105.8 1968.08,2080.95L1968.08,1990.89Z" style="fill:rgb(241,176,117);"/>
            </g>
            <g transform="matrix(1.73838,-0.018794,0.0108106,0.999942,-913.906,-1095.3)">
                <path d="M1968.08,1990.89C1968.08,1966.03 1956.48,1945.86 1942.18,1945.86L1774.09,1945.86C1759.8,1945.86 1748.19,1966.03 1748.19,1990.89L1748.19,2080.95C1748.19,2105.8 1759.8,2125.97 1774.09,2125.97L1942.18,2125.97C1956.48,2125.97 1968.08,2105.8 1968.08,2080.95L1968.08,1990.89Z" style="fill:rgb(241,176,117);"/>
            </g>
            <g transform="matrix(1.73838,-0.018794,0.0108106,0.999942,-1165.73,-1000.3)">
                <path d="M1968.08,1990.89C1968.08,1966.03 1956.48,1945.86 1942.18,1945.86L1774.09,1945.86C1759.8,1945.86 1748.19,1966.03 1748.19,1990.89L1748.19,2080.95C1748.19,2105.8 1759.8,2125.97 1774.09,2125.97L1942.18,2125.97C1956.48,2125.97 1968.08,2105.8 1968.08,2080.95L1968.08,1990.89Z" style="fill:rgb(241,176,117);"/>
            </g>
            <g transform="matrix(1.73838,-0.018794,0.0108106,0.999942,-1563.36,-1126.5)">
                <path d="M1968.08,1990.89C1968.08,1966.03 1956.48,1945.86 1942.18,1945.86L1774.09,1945.86C1759.8,1945.86 1748.19,1966.03 1748.19,1990.89L1748.19,2080.95C1748.19,2105.8 1759.8,2125.97 1774.09,2125.97L1942.18,2125.97C1956.48,2125.97 1968.08,2105.8 1968.08,2080.95L1968.08,1990.89Z" style="fill:rgb(241,176,117);"/>
            </g>
            <g transform="matrix(1.99682,-0.00838894,0.00420111,0.999991,-1865.35,-1228.62)">
                <path d="M1968.08,1990.89C1968.08,1966.03 1957.98,1945.86 1945.53,1945.86L1770.74,1945.86C1758.29,1945.86 1748.19,1966.03 1748.19,1990.89L1748.19,2080.95C1748.19,2105.8 1758.29,2125.97 1770.74,2125.97L1945.53,2125.97C1957.98,2125.97 1968.08,2105.8 1968.08,2080.95L1968.08,1990.89Z" style="fill:rgb(255,231,239);"/>
            </g>
            <g transform="matrix(1.73838,-0.018794,0.0108106,0.999942,-1776.32,-1184.25)">
                <path d="M1968.08,1990.89C1968.08,1966.03 1956.48,1945.86 1942.18,1945.86L1774.09,1945.86C1759.8,1945.86 1748.19,1966.03 1748.19,1990.89L1748.19,2080.95C1748.19,2105.8 1759.8,2125.97 1774.09,2125.97L1942.18,2125.97C1956.48,2125.97 1968.08,2105.8 1968.08,2080.95L1968.08,1990.89Z" style="fill:rgb(241,176,117);"/>
            </g>
            <g transform="matrix(1.73838,-0.018794,0.0108106,0.999942,-1390.13,-1383.22)">
                <path d="M1968.08,1990.89C1968.08,1966.03 1956.48,1945.86 1942.18,1945.86L1774.09,1945.86C1759.8,1945.86 1748.19,1966.03 1748.19,1990.89L1748.19,2080.95C1748.19,2105.8 1759.8,2125.97 1774.09,2125.97L1942.18,2125.97C1956.48,2125.97 1968.08,2105.8 1968.08,2080.95L1968.08,1990.89Z" style="fill:rgb(241,176,117);"/>
            </g>
            <g transform="matrix(1.51987,0.843981,-0.48547,0.874253,-279.956,-1356.28)">
                <path d="M1968.08,1990.89C1968.08,1966.03 1956.48,1945.86 1942.18,1945.86L1774.09,1945.86C1759.8,1945.86 1748.19,1966.03 1748.19,1990.89L1748.19,2080.95C1748.19,2105.8 1759.8,2125.97 1774.09,2125.97L1942.18,2125.97C1956.48,2125.97 1968.08,2105.8 1968.08,2080.95L1968.08,1990.89Z" style="fill:rgb(241,176,117);"/>
            </g>
            <g transform="matrix(1.84354,1.14557,-0.527795,0.849372,-1101.91,-2422.1)">
                <path d="M1968.08,1990.89C1968.08,1966.03 1958.79,1945.86 1947.34,1945.86L1768.93,1945.86C1757.49,1945.86 1748.19,1966.03 1748.19,1990.89L1748.19,2080.95C1748.19,2105.8 1757.49,2125.97 1768.93,2125.97L1947.34,2125.97C1958.79,2125.97 1968.08,2105.8 1968.08,2080.95L1968.08,1990.89Z" style="fill:rgb(241,176,117);"/>
            </g>
            <g transform="matrix(1.51068,0.860336,-0.494878,0.868963,-272.972,-1679.29)">
                <path d="M1968.08,1990.89C1968.08,1966.03 1956.48,1945.86 1942.18,1945.86L1774.09,1945.86C1759.8,1945.86 1748.19,1966.03 1748.19,1990.89L1748.19,2080.95C1748.19,2105.8 1759.8,2125.97 1774.09,2125.97L1942.18,2125.97C1956.48,2125.97 1968.08,2105.8 1968.08,2080.95L1968.08,1990.89Z" style="fill:rgb(195,71,69);"/>
            </g>
            <g transform="matrix(1.47662,0.917562,-0.527795,0.849372,-81.984,-2066.85)">
                <path d="M1968.08,1990.89C1968.08,1966.03 1956.48,1945.86 1942.18,1945.86L1774.09,1945.86C1759.8,1945.86 1748.19,1966.03 1748.19,1990.89L1748.19,2080.95C1748.19,2105.8 1759.8,2125.97 1774.09,2125.97L1942.18,2125.97C1956.48,2125.97 1968.08,2105.8 1968.08,2080.95L1968.08,1990.89Z" style="fill:rgb(241,176,117);"/>
            </g>
            <g transform="matrix(1.47662,0.917562,-0.527795,0.849372,-440.611,-1748.33)">
                <path d="M1968.08,1990.89C1968.08,1966.03 1956.48,1945.86 1942.18,1945.86L1774.09,1945.86C1759.8,1945.86 1748.19,1966.03 1748.19,1990.89L1748.19,2080.95C1748.19,2105.8 1759.8,2125.97 1774.09,2125.97L1942.18,2125.97C1956.48,2125.97 1968.08,2105.8 1968.08,2080.95L1968.08,1990.89Z" style="fill:rgb(241,176,117);"/>
            </g>
            <g transform="matrix(0.978287,0.354514,-0.340701,0.940172,10.8549,-1537.87)">
                <path d="M1968.08,1990.89C1968.08,1966.03 1948.69,1945.86 1924.81,1945.86L1791.46,1945.86C1767.58,1945.86 1748.19,1966.03 1748.19,1990.89L1748.19,2080.95C1748.19,2105.8 1767.58,2125.97 1791.46,2125.97L1924.81,2125.97C1948.69,2125.97 1968.08,2105.8 1968.08,2080.95L1968.08,1990.89Z" style="fill:rgb(255,231,239);"/>
            </g>
            <g transform="matrix(1.73818,0.032464,-0.0186737,0.999826,-1741.3,-1064.73)">
                <path d="M1968.08,1990.89C1968.08,1966.03 1956.48,1945.86 1942.18,1945.86L1774.09,1945.86C1759.8,1945.86 1748.19,1966.03 1748.19,1990.89L1748.19,2080.95C1748.19,2105.8 1759.8,2125.97 1774.09,2125.97L1942.18,2125.97C1956.48,2125.97 1968.08,2105.8 1968.08,2080.95L1968.08,1990.89Z" style="fill:rgb(241,176,117);"/>
            </g>
            <g transform="matrix(0.891472,0.553956,-0.527795,0.849372,1055.13,-1175.67)">
                <path d="M1968.08,1990.89C1968.08,1966.03 1948.86,1945.86 1925.18,1945.86L1791.09,1945.86C1767.41,1945.86 1748.19,1966.03 1748.19,1990.89L1748.19,2080.95C1748.19,2105.8 1767.41,2125.97 1791.09,2125.97L1925.18,2125.97C1948.86,2125.97 1968.08,2105.8 1968.08,2080.95L1968.08,1990.89Z" style="fill:rgb(241,176,117);"/>
            </g>
            <g transform="matrix(1.73575,0.987183,-0.494373,0.86925,-788.23,-1986.3)">
                <path d="M1968.08,1990.89C1968.08,1966.03 1957.98,1945.86 1945.53,1945.86L1770.74,1945.86C1758.29,1945.86 1748.19,1966.03 1748.19,1990.89L1748.19,2080.95C1748.19,2105.8 1758.29,2125.97 1770.74,2125.97L1945.53,2125.97C1957.98,2125.97 1968.08,2105.8 1968.08,2080.95L1968.08,1990.89Z" style="fill:rgb(255,231,239);"/>
            </g>
            <g transform="matrix(1.51094,-0.859875,0.494613,0.869113,-1878.87,1179.76)">
                <path d="M1968.08,1990.89C1968.08,1966.03 1956.48,1945.86 1942.18,1945.86L1774.09,1945.86C1759.8,1945.86 1748.19,1966.03 1748.19,1990.89L1748.19,2080.95C1748.19,2105.8 1759.8,2125.97 1774.09,2125.97L1942.18,2125.97C1956.48,2125.97 1968.08,2105.8 1968.08,2080.95L1968.08,1990.89Z" style="fill:rgb(195,71,69);"/>
            </g>
            <g transform="matrix(1.73848,-0.00412623,0.00237347,0.999997,-1525.17,-1310.21)">
                <path d="M1968.08,1990.89C1968.08,1966.03 1956.48,1945.86 1942.18,1945.86L1774.09,1945.86C1759.8,1945.86 1748.19,1966.03 1748.19,1990.89L1748.19,2080.95C1748.19,2105.8 1759.8,2125.97 1774.09,2125.97L1942.18,2125.97C1956.48,2125.97 1968.08,2105.8 1968.08,2080.95L1968.08,1990.89Z" style="fill:rgb(195,71,69);"/>
            </g>
            <g transform="matrix(1.74067,-0.978478,0.490013,0.871715,-1916.67,1149.29)">
                <path d="M1968.08,1990.89C1968.08,1966.03 1957.98,1945.86 1945.53,1945.86L1770.74,1945.86C1758.29,1945.86 1748.19,1966.03 1748.19,1990.89L1748.19,2080.95C1748.19,2105.8 1758.29,2125.97 1770.74,2125.97L1945.53,2125.97C1957.98,2125.97 1968.08,2105.8 1968.08,2080.95L1968.08,1990.89Z" style="fill:rgb(255,231,239);"/>
            </g>
            <g transform="matrix(1.73848,-0.00412623,0.00237347,0.999997,-1525.17,-1310.21)">
                <path d="M1968.08,1990.89C1968.08,1966.03 1956.48,1945.86 1942.18,1945.86L1774.09,1945.86C1759.8,1945.86 1748.19,1966.03 1748.19,1990.89L1748.19,2080.95C1748.19,2105.8 1759.8,2125.97 1774.09,2125.97L1942.18,2125.97C1956.48,2125.97 1968.08,2105.8 1968.08,2080.95L1968.08,1990.89Z" style="fill:rgb(195,71,69);"/>
            </g>
            <g transform="matrix(1.74067,-0.978478,0.490013,0.871715,-2066.48,1645.41)">
                <path d="M1968.08,1990.89C1968.08,1966.03 1957.98,1945.86 1945.53,1945.86L1770.74,1945.86C1758.29,1945.86 1748.19,1966.03 1748.19,1990.89L1748.19,2080.95C1748.19,2105.8 1758.29,2125.97 1770.74,2125.97L1945.53,2125.97C1957.98,2125.97 1968.08,2105.8 1968.08,2080.95L1968.08,1990.89Z" style="fill:rgb(255,231,239);"/>
            </g>
        </g>
    </g>
    <g id="textur" serif:id="textur " transform="matrix(1,0,0,1,2340.74,-363.701)"  style="opacity:0">
        <g transform="matrix(1.73848,-0.00412623,0.00237347,0.999997,-2457.75,-1429.21)">
            <path d="M1968.08,1990.89C1968.08,1966.03 1956.48,1945.86 1942.18,1945.86L1774.09,1945.86C1759.8,1945.86 1748.19,1966.03 1748.19,1990.89L1748.19,2080.95C1748.19,2105.8 1759.8,2125.97 1774.09,2125.97L1942.18,2125.97C1956.48,2125.97 1968.08,2105.8 1968.08,2080.95L1968.08,1990.89Z" style="fill:rgb(195,71,69);"/>
        </g>
        <g transform="matrix(1.73848,-0.00412623,0.00237347,0.999997,-2964.61,-1466.8)">
            <path d="M1968.08,1990.89C1968.08,1966.03 1956.48,1945.86 1942.18,1945.86L1774.09,1945.86C1759.8,1945.86 1748.19,1966.03 1748.19,1990.89L1748.19,2080.95C1748.19,2105.8 1759.8,2125.97 1774.09,2125.97L1942.18,2125.97C1956.48,2125.97 1968.08,2105.8 1968.08,2080.95L1968.08,1990.89Z" style="fill:rgb(195,71,69);"/>
        </g>
        <g transform="matrix(1.73847,-0.00526572,0.00302892,0.999995,-2781.97,-1432.23)">
            <path d="M1968.08,1990.89C1968.08,1966.03 1956.48,1945.86 1942.18,1945.86L1774.09,1945.86C1759.8,1945.86 1748.19,1966.03 1748.19,1990.89L1748.19,2080.95C1748.19,2105.8 1759.8,2125.97 1774.09,2125.97L1942.18,2125.97C1956.48,2125.97 1968.08,2105.8 1968.08,2080.95L1968.08,1990.89Z" style="fill:rgb(241,176,117);"/>
        </g>
        <g transform="matrix(1.73848,-0.00412623,0.00237347,0.999997,-2954.84,-1321.78)">
            <path d="M1968.08,1990.89C1968.08,1966.03 1956.48,1945.86 1942.18,1945.86L1774.09,1945.86C1759.8,1945.86 1748.19,1966.03 1748.19,1990.89L1748.19,2080.95C1748.19,2105.8 1759.8,2125.97 1774.09,2125.97L1942.18,2125.97C1956.48,2125.97 1968.08,2105.8 1968.08,2080.95L1968.08,1990.89Z" style="fill:rgb(255,231,239);"/>
        </g>
        <g transform="matrix(1.73848,-0.00412623,0.00237347,0.999997,-2981.97,-1179.2)">
            <path d="M1968.08,1990.89C1968.08,1966.03 1956.48,1945.86 1942.18,1945.86L1774.09,1945.86C1759.8,1945.86 1748.19,1966.03 1748.19,1990.89L1748.19,2080.95C1748.19,2105.8 1759.8,2125.97 1774.09,2125.97L1942.18,2125.97C1956.48,2125.97 1968.08,2105.8 1968.08,2080.95L1968.08,1990.89Z" style="fill:rgb(195,71,69);"/>
        </g>
        <g transform="matrix(1.73848,-0.00412623,0.00237347,0.999997,-2954.14,-912.392)">
            <path d="M1968.08,1990.89C1968.08,1966.03 1956.48,1945.86 1942.18,1945.86L1774.09,1945.86C1759.8,1945.86 1748.19,1966.03 1748.19,1990.89L1748.19,2080.95C1748.19,2105.8 1759.8,2125.97 1774.09,2125.97L1942.18,2125.97C1956.48,2125.97 1968.08,2105.8 1968.08,2080.95L1968.08,1990.89Z" style="fill:rgb(195,71,69);"/>
        </g>
        <g transform="matrix(2.47466,-0.00587354,0.00237347,0.999997,-3943.5,-1183.17)">
            <path d="M1968.08,1990.89C1968.08,1966.03 1959.93,1945.86 1949.89,1945.86L1766.38,1945.86C1756.34,1945.86 1748.19,1966.03 1748.19,1990.89L1748.19,2080.95C1748.19,2105.8 1756.34,2125.97 1766.38,2125.97L1949.89,2125.97C1959.93,2125.97 1968.08,2105.8 1968.08,2080.95L1968.08,1990.89Z" style="fill:rgb(195,71,69);"/>
        </g>
        <g transform="matrix(1.73847,-0.00526572,0.00302892,0.999995,-2651.58,-1314.05)">
            <path d="M1968.08,1990.89C1968.08,1966.03 1956.48,1945.86 1942.18,1945.86L1774.09,1945.86C1759.8,1945.86 1748.19,1966.03 1748.19,1990.89L1748.19,2080.95C1748.19,2105.8 1759.8,2125.97 1774.09,2125.97L1942.18,2125.97C1956.48,2125.97 1968.08,2105.8 1968.08,2080.95L1968.08,1990.89Z" style="fill:rgb(241,176,117);"/>
        </g>
        <g transform="matrix(1.73847,-0.00526572,0.00302892,0.999995,-2933.35,-1038.17)">
            <path d="M1968.08,1990.89C1968.08,1966.03 1956.48,1945.86 1942.18,1945.86L1774.09,1945.86C1759.8,1945.86 1748.19,1966.03 1748.19,1990.89L1748.19,2080.95C1748.19,2105.8 1759.8,2125.97 1774.09,2125.97L1942.18,2125.97C1956.48,2125.97 1968.08,2105.8 1968.08,2080.95L1968.08,1990.89Z" style="fill:rgb(241,176,117);"/>
        </g>
        <g transform="matrix(1.73847,-0.00526572,0.00302892,0.999995,-2479.41,-753.216)">
            <path d="M1968.08,1990.89C1968.08,1966.03 1956.48,1945.86 1942.18,1945.86L1774.09,1945.86C1759.8,1945.86 1748.19,1966.03 1748.19,1990.89L1748.19,2080.95C1748.19,2105.8 1759.8,2125.97 1774.09,2125.97L1942.18,2125.97C1956.48,2125.97 1968.08,2105.8 1968.08,2080.95L1968.08,1990.89Z" style="fill:rgb(241,176,117);"/>
        </g>
        <g transform="matrix(1.73848,-0.00412623,0.00237347,0.999997,-2474.79,-918.289)">
            <path d="M1968.08,1990.89C1968.08,1966.03 1956.48,1945.86 1942.18,1945.86L1774.09,1945.86C1759.8,1945.86 1748.19,1966.03 1748.19,1990.89L1748.19,2080.95C1748.19,2105.8 1759.8,2125.97 1774.09,2125.97L1942.18,2125.97C1956.48,2125.97 1968.08,2105.8 1968.08,2080.95L1968.08,1990.89Z" style="fill:rgb(195,71,69);"/>
        </g>
        <g transform="matrix(1.6306,-0.00493898,0.00302892,0.999995,-2507.15,-827.459)">
            <path d="M1968.08,1990.89C1968.08,1966.03 1955.71,1945.86 1940.47,1945.86L1775.8,1945.86C1760.56,1945.86 1748.19,1966.03 1748.19,1990.89L1748.19,2080.95C1748.19,2105.8 1760.56,2125.97 1775.8,2125.97L1940.47,2125.97C1955.71,2125.97 1968.08,2105.8 1968.08,2080.95L1968.08,1990.89Z" style="fill:rgb(241,176,117);"/>
        </g>
        <g transform="matrix(1.19173,-0.00360967,0.00302892,0.999995,-1377.23,-1052.35)">
            <path d="M1968.08,1990.89C1968.08,1966.03 1951.15,1945.86 1930.3,1945.86L1785.97,1945.86C1765.12,1945.86 1748.19,1966.03 1748.19,1990.89L1748.19,2080.95C1748.19,2105.8 1765.12,2125.97 1785.97,2125.97L1930.3,2125.97C1951.15,2125.97 1968.08,2105.8 1968.08,2080.95L1968.08,1990.89Z" style="fill:rgb(241,176,117);"/>
        </g>
        <g transform="matrix(1.73848,-0.00412623,0.00237347,0.999997,-2483.39,-1244.92)">
            <path d="M1968.08,1990.89C1968.08,1966.03 1956.48,1945.86 1942.18,1945.86L1774.09,1945.86C1759.8,1945.86 1748.19,1966.03 1748.19,1990.89L1748.19,2080.95C1748.19,2105.8 1759.8,2125.97 1774.09,2125.97L1942.18,2125.97C1956.48,2125.97 1968.08,2105.8 1968.08,2080.95L1968.08,1990.89Z" style="fill:rgb(255,231,239);"/>
        </g>
        <g transform="matrix(1.73848,-0.00412623,0.00237347,0.999997,-2602.43,-1013.01)">
            <path d="M1968.08,1990.89C1968.08,1966.03 1956.48,1945.86 1942.18,1945.86L1774.09,1945.86C1759.8,1945.86 1748.19,1966.03 1748.19,1990.89L1748.19,2080.95C1748.19,2105.8 1759.8,2125.97 1774.09,2125.97L1942.18,2125.97C1956.48,2125.97 1968.08,2105.8 1968.08,2080.95L1968.08,1990.89Z" style="fill:rgb(255,231,239);"/>
        </g>
        <g transform="matrix(2.59513,-0.00615948,0.00237347,0.999997,-4439.17,-734.975)">
            <path d="M1968.08,1990.89C1968.08,1966.03 1960.31,1945.86 1950.73,1945.86L1765.54,1945.86C1755.96,1945.86 1748.19,1966.03 1748.19,1990.89L1748.19,2080.95C1748.19,2105.8 1755.96,2125.97 1765.54,2125.97L1950.73,2125.97C1960.31,2125.97 1968.08,2105.8 1968.08,2080.95L1968.08,1990.89Z" style="fill:rgb(255,231,239);"/>
        </g>
    </g>
</svg>
