<?xml version="1.0" encoding="UTF-8" standalone="no"?>
<!DOCTYPE svg PUBLIC "-//W3C//DTD SVG 1.1//EN" "http://www.w3.org/Graphics/SVG/1.1/DTD/svg11.dtd">
<svg width="100%" height="100%" viewBox="0 0 5677 2453" version="1.1" xmlns="http://www.w3.org/2000/svg" xmlns:xlink="http://www.w3.org/1999/xlink" xml:space="preserve" xmlns:serif="http://www.serif.com/" style="fill-rule:evenodd;clip-rule:evenodd;stroke-linecap:round;stroke-linejoin:round;stroke-miterlimit:1.5;">
    <g id="ArtBoard1" transform="matrix(2.51817,0,0,1.61592,-264.448,-1568.84)">
        <rect x="105.016" y="970.864" width="2254.17" height="1517.59" style="fill:none;"/>
        <g id="Wuerfel1" transform="matrix(0.397114,0,0,0.618842,105.016,970.864)">
            <g transform="matrix(1.01678,0,0,1,-827.042,-147.96)">
                <path d="M2184.01,866.721L2184.01,1511.87L1623.98,1804.8L1627.88,1184.7L2184.01,866.721" style="fill:rgb(96,124,172);stroke:black;stroke-width:0.99px;"/>
            </g>
            <g transform="matrix(1,0,0,1,-790.395,-147.96)">
                <path d="M1055.09,866.721L1055.09,1511.87L1616.15,1809.73L1616.97,1172.92L1055.09,866.721" style="fill:rgb(60,68,128);stroke:black;stroke-width:1px;"/>
            </g>
            <g transform="matrix(1,0,0,1,-790.395,-147.96)">
                <path d="M1619.55,544.147L1055.09,866.721L1622.71,1180.05L2191.02,862.325L1619.55,544.147Z" style="fill:rgb(51,116,175);stroke:black;stroke-width:1px;"/>
            </g>
        </g>
        <g id="Schachbrett" transform="matrix(0.397114,0,0,0.618842,105.016,970.864)">
            <g transform="matrix(1,0,0,1,-1045.24,50.4148)">
                <path d="M3275.39,1062.82L3375.9,1005.01L3273.27,944.489L3173.24,1003.06L3275.39,1062.82Z" style="fill:rgb(245,245,245);stroke:black;stroke-width:1px;"/>
            </g>
            <g transform="matrix(1,0,0,1,-1045.24,50.4148)">
                <path d="M3273.27,944.489L3375.93,885.402L3477.81,943.885L3376.14,1003.68L3273.27,944.489Z" style="stroke:black;stroke-width:1px;"/>
            </g>
            <g transform="matrix(1,0,0,1,-1045.24,50.4148)">
                <path d="M3375.93,885.402L3477.72,826.153L3580.03,885.082L3478.1,943.547L3375.93,885.402Z" style="fill:rgb(248,248,248);stroke:black;stroke-width:1px;"/>
            </g>
            <g transform="matrix(1,0,0,1,-1045.24,50.4148)">
                <path d="M3477.72,826.153L3580.75,767.185L3682.19,826.3L3581.24,884.679L3477.72,826.153Z" style="stroke:black;stroke-width:1px;"/>
            </g>
            <g transform="matrix(1,0,0,1,-1045.24,50.4148)">
                <path d="M3580.75,767.185L3682.09,707.192L3786.42,767.221L3682.99,826.421L3580.75,767.185Z" style="fill:rgb(250,250,250);stroke:black;stroke-width:1px;"/>
            </g>
            <g transform="matrix(1,0,0,1,-1045.24,50.4148)">
                <path d="M3171.98,1358.32L3172.93,1476.02L3275.1,1533.8L3274.82,1416.9L3171.98,1358.32Z" style="stroke:black;stroke-width:1px;"/>
            </g>
            <g transform="matrix(1,0,0,1,-1045.24,50.4148)">
                <path d="M3171.98,1358.32L3171.47,1239.62L3274.15,1298.75L3273.78,1413.69L3171.98,1358.32Z" style="fill:white;stroke:black;stroke-width:1px;"/>
            </g>
            <g transform="matrix(1,0,0,1,-1045.24,50.4148)">
                <path d="M3171.47,1239.62L3171.84,1122.71L3273.73,1181.15L3273.16,1297.32L3171.47,1239.62Z" style="stroke:black;stroke-width:1px;"/>
            </g>
            <g transform="matrix(1,0,0,1,-1045.24,50.4148)">
                <path d="M3171.84,1122.71L3172.63,1004.58L3273.04,1062.05L3275.1,1181.05L3171.84,1122.71Z" style="fill:rgb(241,241,241);stroke:black;stroke-width:1px;"/>
            </g>
            <g transform="matrix(1,0,0,1,-1045.24,50.4148)">
                <path d="M3273.04,1062.05L3375.94,1004.36L3376.66,1121.13L3276.41,1178.97L3273.04,1062.05Z" style="fill:rgb(244,244,244);stroke:black;stroke-width:1px;"/>
            </g>
            <g transform="matrix(1,0,0,1,-1045.24,50.4148)">
                <path d="M3376.66,1121.13L3374.82,1239.42L3274.91,1297.29L3276.03,1179.62L3376.66,1121.13Z" style="stroke:black;stroke-width:1px;"/>
            </g>
            <g transform="matrix(1,0,0,1,-1045.24,50.4148)">
                <path d="M3274.91,1297.29L3275.07,1414.86L3375.41,1357.46L3375.65,1239.19L3274.91,1297.29Z" style="fill:rgb(247,247,247);stroke:black;stroke-width:1px;"/>
            </g>
            <g transform="matrix(1,0,0,1,-1045.24,50.4148)">
                <path d="M3375.48,1476.04L3375.41,1357.46L3274.49,1416.7L3275.11,1533.14L3375.48,1476.04Z" style="stroke:black;stroke-width:1px;"/>
            </g>
            <g transform="matrix(1,0,0,1,-1045.24,50.4148)">
                <path d="M3376.42,1584.38L3275.68,1643.29L3274.72,1534.59L3376.12,1475.47L3376.42,1584.38Z" style="fill:rgb(244,244,244);stroke:black;stroke-width:1px;"/>
            </g>
            <g transform="matrix(1,0,0,1,-1045.24,50.4148)">
                <path d="M3477.47,1526.31L3477.97,1417.26L3376.85,1476.2L3376.35,1584.43L3477.47,1526.31Z" style="stroke:black;stroke-width:1px;"/>
            </g>
            <g transform="matrix(1,0,0,1,-1045.24,50.4148)">
                <path d="M3477.97,1417.26L3477.77,1298.18L3376.21,1356.73L3377.05,1475.73L3477.97,1417.26Z" style="fill:rgb(240,240,240);stroke:black;stroke-width:1px;"/>
            </g>
            <g transform="matrix(1,0,0,1,-1045.24,50.4148)">
                <path d="M3477.77,1298.18L3478.3,1181.04L3376.41,1239.85L3376,1356.56L3477.77,1298.18Z" style="fill:rgb(1,1,1);stroke:black;stroke-width:1px;"/>
            </g>
            <g transform="matrix(1,0,0,1,-1045.24,50.4148)">
                <path d="M3478.3,1181.04L3477.64,1063.01L3377.42,1121.3L3375.51,1238.75L3478.3,1181.04Z" style="fill:white;stroke:black;stroke-width:1px;"/>
            </g>
            <g transform="matrix(1,0,0,1,-1045.24,50.4148)">
                <path d="M3477.64,1063.01L3477.99,946.236L3376.63,1004L3378.01,1119.11L3477.64,1063.01Z" style="stroke:black;stroke-width:1px;"/>
            </g>
            <g transform="matrix(1,0,0,1,-1045.24,50.4148)">
                <path d="M3477.99,946.236L3580.3,885.056L3580,1003.15L3479.13,1062.43L3477.99,946.236Z" style="fill:rgb(254,254,254);stroke:black;stroke-width:1px;"/>
            </g>
            <g transform="matrix(1,0,0,1,-1045.24,50.4148)">
                <path d="M3580,1003.15L3580.2,1121.63L3479.17,1179.99L3478.65,1062.7L3580,1003.15Z" style="stroke:black;stroke-width:1px;"/>
            </g>
            <g transform="matrix(1,0,0,1,-1045.24,50.4148)">
                <path d="M3580.2,1121.63L3580.1,1239.12L3478.02,1297.48L3478.16,1180.35L3580.2,1121.63Z" style="fill:rgb(248,248,248);stroke:black;stroke-width:1px;"/>
            </g>
            <g transform="matrix(1,0,0,1,-1045.24,50.4148)">
                <path d="M3580.1,1239.12L3580.94,1357.51L3478.94,1415.43L3478.14,1298.6L3580.1,1239.12Z" style="stroke:black;stroke-width:1px;"/>
            </g>
            <g transform="matrix(1,0,0,1,-1045.24,50.4148)">
                <path d="M3580.94,1357.51L3580.32,1468.03L3479.02,1526.09L3479.11,1416.51L3580.94,1357.51Z" style="fill:white;stroke:black;stroke-width:1px;"/>
            </g>
            <g transform="matrix(1,0,0,1,-1045.24,50.4148)">
                <path d="M3580.32,1468.03L3683.14,1410.06L3683.04,1298.61L3581.86,1357.76L3580.32,1468.03Z" style="stroke:black;stroke-width:1px;"/>
            </g>
            <g transform="matrix(1,0,0,1,-1045.24,50.4148)">
                <path d="M3683.04,1298.61L3683.14,1410.06L3786.54,1351.97L3785.29,1238.32L3683.04,1298.61Z" style="fill:rgb(242,242,242);stroke:black;stroke-width:1px;"/>
            </g>
            <g transform="matrix(1,0,0,1,-1045.24,50.4148)">
                <path d="M3581.75,1355.96L3580.2,1238.62L3682.65,1180.94L3683.27,1297.9" style="fill:white;stroke:black;stroke-width:1px;"/>
            </g>
            <g transform="matrix(1,0,0,1,-1045.24,50.4148)">
                <path d="M3683.27,1297.9L3785.62,1237.34L3785.47,1121.33L3683.23,1180.86L3683.27,1297.9Z" style="stroke:black;stroke-width:1px;"/>
            </g>
            <g transform="matrix(1,0,0,1,-1045.24,50.4148)">
                <path d="M3786.09,1002.98L3682.28,1063.03L3682.77,1180.87L3786.15,1120.63L3786.09,1002.98Z" style="fill:rgb(252,252,252);stroke:black;stroke-width:1px;"/>
            </g>
            <g transform="matrix(1,0,0,1,-1045.24,50.4148)">
                <path d="M3682.28,1063.03L3682.77,1180.87L3579.95,1238.24L3581.23,1122.25L3682.28,1063.03Z" style="stroke:black;stroke-width:1px;"/>
            </g>
            <g transform="matrix(1,0,0,1,-1045.24,50.4148)">
                <path d="M3581.23,1122.25L3580.49,1002.27L3682.21,944.218L3683.21,1062.17L3581.23,1122.25Z" style="fill:rgb(253,253,253);stroke:black;stroke-width:1px;"/>
            </g>
            <g transform="matrix(1,0,0,1,-1045.24,50.4148)">
                <path d="M3682.21,944.218L3785.61,884.951L3786.34,1002.86L3683.85,1061.03L3682.21,944.218Z" style="stroke:black;stroke-width:1px;"/>
            </g>
            <g transform="matrix(1,0,0,1,-1045.24,50.4148)">
                <path d="M3785.61,884.951L3785.5,769.991L3683.13,828.217L3683.12,942.308L3785.61,884.951Z" style="fill:rgb(246,246,246);stroke:black;stroke-width:1px;"/>
            </g>
            <g transform="matrix(1,0,0,1,-1045.24,50.4148)">
                <path d="M3683.13,828.217L3580.49,885.879L3580.95,1002.06L3682.84,943.243L3683.13,828.217Z" style="fill:rgb(1,1,1);stroke:black;stroke-width:1px;"/>
            </g>
            <g transform="matrix(1,0,0,1,-1045.24,50.4148)">
                <path d="M3068.77,945.152L3069.24,1062.16L3172.75,1123.1L3172.27,1003.58L3068.77,945.152Z" style="stroke:black;stroke-width:1px;"/>
            </g>
            <g transform="matrix(1,0,0,1,-1045.24,50.4148)">
                <path d="M3068.77,945.152L3172.3,886.04L3273.33,943.671L3172.39,1002.55L3068.77,945.152Z" style="stroke:black;stroke-width:1px;"/>
            </g>
            <g transform="matrix(1,0,0,1,-1045.24,50.4148)">
                <path d="M3172.3,886.04L3275.15,826.916L3376.74,885.969L3273.21,943.813L3172.3,886.04Z" style="fill:rgb(249,249,249);stroke:black;stroke-width:1px;"/>
            </g>
            <g transform="matrix(1,0,0,1,-1045.24,50.4148)">
                <path d="M3275.15,826.916L3375.44,767.554L3477.61,825.89L3376.64,883.993L3275.15,826.916Z" style="stroke:black;stroke-width:1px;"/>
            </g>
            <g transform="matrix(1,0,0,1,-1045.24,50.4148)">
                <path d="M3375.44,767.554L3478.8,708.504L3580.99,766.67L3477.75,825.823L3375.44,767.554Z" style="fill:rgb(242,242,242);stroke:black;stroke-width:1px;"/>
            </g>
            <g transform="matrix(1,0,0,1,-1045.24,50.4148)">
                <path d="M3583.04,647.647L3682.56,706.442L3581.11,766.092L3478.61,707.758L3583.04,647.647Z" style="stroke:black;stroke-width:1px;"/>
            </g>
            <g transform="matrix(1,0,0,1,-1045.24,50.4148)">
                <path d="M3479.21,588.864L3375.72,649.102L3479.61,708.117L3580.84,646.43L3479.21,588.864Z" style="fill:white;stroke:black;stroke-width:1px;"/>
            </g>
            <g transform="matrix(1,0,0,1,-1045.24,50.4148)">
                <path d="M3375.72,649.102L3479.61,708.117L3376.74,767.547L3273.73,707.783L3375.72,649.102Z" style="fill:rgb(1,1,1);stroke:black;stroke-width:1px;"/>
            </g>
            <g transform="matrix(1,0,0,1,-1045.24,50.4148)">
                <path d="M3273.73,707.783L3376.74,767.547L3275.36,825.017L3172.09,767.177L3273.73,707.783Z" style="fill:rgb(241,241,241);stroke:black;stroke-width:1px;"/>
            </g>
            <g transform="matrix(1,0,0,1,-1045.24,50.4148)">
                <path d="M3172.09,767.177L3275.36,825.017L3173.25,885.224L3069.13,826.923L3172.09,767.177Z" style="stroke:black;stroke-width:1px;"/>
            </g>
            <g transform="matrix(1,0,0,1,-1045.24,50.4148)">
                <path d="M3069.13,826.923L3173.25,885.224L3070.51,944.97L2966.13,887.258L3069.13,826.923Z" style="fill:rgb(249,249,249);stroke:black;stroke-width:1px;"/>
            </g>
            <g transform="matrix(1,0,0,1,-1045.24,50.4148)">
                <path d="M2861,828.566L2966.13,887.258L3068.83,825.929L2967.81,767.344L2861,828.566Z" style="stroke:black;stroke-width:1px;"/>
            </g>
            <g transform="matrix(1,0,0,1,-1045.24,50.4148)">
                <path d="M2967.81,767.344L3068.83,825.929L3171.35,767.678L3069.39,708.142L2967.81,767.344Z" style="fill:rgb(248,248,248);stroke:black;stroke-width:1px;"/>
            </g>
            <g transform="matrix(1,0,0,1,-1045.24,50.4148)">
                <path d="M3069.39,708.142L3171.35,767.678L3273.7,707.631L3171.5,649.095L3069.39,708.142Z" style="stroke:black;stroke-width:1px;"/>
            </g>
            <g transform="matrix(1,0,0,1,-1045.24,50.4148)">
                <path d="M3171.5,649.095L3273.7,707.631L3375.91,648.868L3273.52,590.641L3171.5,649.095Z" style="fill:white;stroke:black;stroke-width:1px;"/>
            </g>
            <g transform="matrix(1,0,0,1,-1045.24,50.4148)">
                <path d="M3273.52,590.641L3375.91,648.868L3479.95,588.839L3377.2,529.249L3273.52,590.641Z" style="stroke:black;stroke-width:1px;"/>
            </g>
            <g transform="matrix(1,0,0,1,-1045.24,50.4148)">
                <path d="M3377.2,529.249L3279.41,472.847L3174.74,530.679L3273.74,590.123L3377.2,529.249Z" style="fill:rgb(248,248,248);stroke:black;stroke-width:1px;"/>
            </g>
            <g transform="matrix(1,0,0,1,-1045.24,50.4148)">
                <path d="M3174.74,530.679L3273.74,590.123L3173.55,647.775L3072.25,590.766L3174.74,530.679Z" style="fill:rgb(1,1,1);stroke:black;stroke-width:1px;"/>
            </g>
            <g transform="matrix(1,0,0,1,-1045.24,50.4148)">
                <path d="M3072.25,590.766L3173.55,647.775L3070.58,706.924L2968.98,649.156L3072.25,590.766Z" style="fill:white;stroke:black;stroke-width:1px;"/>
            </g>
            <g transform="matrix(1,0,0,1,-1045.24,50.4148)">
                <path d="M2968.98,649.156L3070.58,706.924L2966.97,765.715L2868.07,710.878L2968.98,649.156Z" style="fill:rgb(1,1,1);stroke:black;stroke-width:1px;"/>
            </g>
            <g transform="matrix(1,0,0,1,-1045.24,50.4148)">
                <path d="M2868.07,710.878L2966.97,765.715L2859.83,829.868L2761.44,771.358L2868.07,710.878Z" style="fill:rgb(241,241,241);stroke:black;stroke-width:1px;"/>
            </g>
            <g transform="matrix(1,0,0,1,-1045.24,50.4148)">
                <path d="M2761.44,771.358L2763.71,885.324L2864.8,944.019L2862.44,828.495L2761.44,771.358Z" style="fill:rgb(242,242,242);stroke:black;stroke-width:1px;"/>
            </g>
            <g transform="matrix(1,0,0,1,-1045.24,50.4148)">
                <path d="M2763.71,885.324L2864.8,944.019L2864.89,1062.95L2763.89,1003.76L2763.71,885.324Z" style="stroke:black;stroke-width:1px;"/>
            </g>
            <g transform="matrix(1,0,0,1,-1046.48,49.0415)">
                <path d="M2763.89,1003.76L2864.89,1062.95L2863.87,1180.74L2764.37,1122.79L2763.89,1003.76Z" style="fill:rgb(246,246,246);stroke:black;stroke-width:1px;"/>
            </g>
            <g transform="matrix(1,0,0,1,-1045.24,50.4148)">
                <path d="M2763.12,1121.41L2862.63,1179.36L2865.31,1300.08L2763.61,1239.38L2763.12,1121.41Z" style="fill:rgb(6,6,6);stroke:black;stroke-width:1px;"/>
            </g>
            <g transform="matrix(1,0,0,1,-1045.24,50.4148)">
                <path d="M2763.61,1239.38L2865.31,1300.08L2864.87,1416.67L2763.09,1357.76L2763.61,1239.38Z" style="fill:rgb(243,243,243);stroke:black;stroke-width:1px;"/>
            </g>
            <g transform="matrix(1,0,0,1,-1045.24,50.4148)">
                <path d="M2864.87,1416.67L2967.59,1474.38L2967.65,1358.33L2866.92,1299.67L2864.87,1416.67Z" style="stroke:black;stroke-width:1px;"/>
            </g>
            <g transform="matrix(1,0,0,1,-1045.24,50.4148)">
                <path d="M2866.92,1299.67L2967.65,1358.33L2966.01,1238.5L2864.29,1179.12L2866.92,1299.67Z" style="fill:rgb(245,245,245);stroke:black;stroke-width:1px;"/>
            </g>
            <g transform="matrix(1,0,0,1,-1045.24,50.4148)">
                <path d="M2864.29,1179.12L2966.01,1238.5L2966.78,1121.4L2864.67,1062.73L2864.29,1179.12Z" style="stroke:black;stroke-width:1px;"/>
            </g>
            <g transform="matrix(1,0,0,1,-1045.24,50.4148)">
                <path d="M2864.67,1062.73L2966.78,1121.4L2966.78,1004.16L2865.22,945.238L2864.67,1062.73Z" style="fill:rgb(244,244,244);stroke:black;stroke-width:1px;"/>
            </g>
            <g transform="matrix(1,0,0,1,-1045.24,50.4148)">
                <path d="M2865.22,945.238L2966.78,1004.16L2965.96,887.572L2863.82,830.146L2865.22,945.238Z" style="stroke:black;stroke-width:1px;"/>
            </g>
            <g transform="matrix(1,0,0,1,-1045.24,50.4148)">
                <path d="M2965.96,887.572L3069.53,944.707L3069.53,1062.49L2967.62,1004.42L2965.96,887.572Z" style="fill:rgb(251,251,251);stroke:black;stroke-width:1px;"/>
            </g>
            <g transform="matrix(1,0,0,1,-1045.24,50.4148)">
                <path d="M2967.62,1004.42L3069.53,1062.49L3069.47,1180.36L2966.69,1120.57L2967.62,1004.42Z" style="stroke:black;stroke-width:1px;"/>
            </g>
            <g transform="matrix(1,0,0,1,-1045.24,50.4148)">
                <path d="M2966.69,1120.57L3069.47,1180.36L3069.66,1298.73L2966.32,1239.2L2966.69,1120.57Z" style="fill:rgb(252,252,252);stroke:black;stroke-width:1px;"/>
            </g>
            <g transform="matrix(1,0,0,1,-1045.24,50.4148)">
                <path d="M2966.32,1239.2L3069.66,1298.73L3070.01,1417.13L2968.09,1356.92L2966.32,1239.2Z" style="stroke:black;stroke-width:1px;"/>
            </g>
            <g transform="matrix(1,0,0,1,-1045.24,50.4148)">
                <path d="M2968.09,1356.92L3070.01,1417.13L3069.5,1533.04L2967.08,1474.51L2968.09,1356.92Z" style="fill:rgb(249,249,249);stroke:black;stroke-width:1px;"/>
            </g>
            <g transform="matrix(1,0,0,1,-1045.24,50.4148)">
                <path d="M3069.24,1062.16L3069.44,1180.61L3171.05,1239.69L3173.46,1122.16L3069.24,1062.16Z" style="fill:rgb(253,253,253);stroke:black;stroke-width:1px;"/>
            </g>
            <g transform="matrix(1,0,0,1,-1045.24,50.4148)">
                <path d="M3069.44,1180.61L3069.76,1299.16L3172.44,1358.26L3171.37,1239.35L3069.44,1180.61Z" style="stroke:black;stroke-width:1px;"/>
            </g>
            <g transform="matrix(1,0,0,1,-1045.24,50.4148)">
                <path d="M3069.76,1299.16L3069.28,1416.4L3171.45,1476.08L3171.66,1358.08L3069.76,1299.16Z" style="fill:rgb(250,250,250);stroke:black;stroke-width:1px;"/>
            </g>
            <g transform="matrix(1,0,0,1,-1045.24,50.4148)">
                <path d="M3069.28,1416.4L3069.65,1533.23L3171.99,1589.26L3172.11,1475.73L3069.28,1416.4Z" style="fill:rgb(1,1,1);stroke:black;stroke-width:1px;"/>
            </g>
            <g transform="matrix(1,0,0,1,-1045.24,50.4148)">
                <path d="M3274.22,1649.31L3274.35,1534.38L3274.22,1649.31Z" style="fill:none;stroke:black;stroke-width:1px;"/>
            </g>
            <g transform="matrix(1,0,0,1,-1045.24,50.4148)">
                <path d="M3275.39,1062.82L3375.9,1005.01L3273.27,944.489L3173.24,1003.06L3275.39,1062.82Z" style="fill:rgb(245,245,245);stroke:black;stroke-width:1px;"/>
            </g>
            <g transform="matrix(1,0,0,1,-1045.24,50.4148)">
                <path d="M3273.27,944.489L3375.93,885.402L3477.81,943.885L3376.14,1003.68L3273.27,944.489Z" style="stroke:black;stroke-width:1px;"/>
            </g>
            <g transform="matrix(1,0,0,1,-1045.24,50.4148)">
                <path d="M3375.93,885.402L3477.72,826.153L3580.03,885.082L3478.1,943.547L3375.93,885.402Z" style="fill:rgb(248,248,248);stroke:black;stroke-width:1px;"/>
            </g>
            <g transform="matrix(1,0,0,1,-1045.24,50.4148)">
                <path d="M3477.72,826.153L3580.75,767.185L3682.19,826.3L3581.24,884.679L3477.72,826.153Z" style="stroke:black;stroke-width:1px;"/>
            </g>
            <g transform="matrix(1,0,0,1,-1045.24,50.4148)">
                <path d="M3580.75,767.185L3682.09,707.192L3786.42,767.221L3682.99,826.421L3580.75,767.185Z" style="fill:rgb(250,250,250);stroke:black;stroke-width:1px;"/>
            </g>
            <g id="_-Kurve-" serif:id="(Kurve)" transform="matrix(1,0,0,1,-1045.24,50.4148)">
                <path d="M3274.35,1534.38L3171.38,1476.03L3171.9,1590.91L3273.9,1648.3" style="fill:rgb(245,245,245);stroke:black;stroke-width:1px;"/>
            </g>
        </g>
        <g id="Textur-" serif:id="Textur " transform="matrix(0.397114,0,0,0.618842,105.016,970.864)">
            <g transform="matrix(0.7367,0,0,0.803211,2698.43,-118.795)">
                <rect x="477.339" y="955.972" width="1161.77" height="1163.11" style="fill:rgb(148,108,84);stroke:rgb(148,108,69);stroke-width:37.85px;"/>
            </g>
            <g transform="matrix(0.734866,0,0,0.803211,2908.91,-1359.18)">
                <path d="M1022.88,3255.01C1022.88,3230.74 1001.36,3211.05 974.839,3211.05L668.432,3211.05C641.915,3211.05 620.386,3230.74 620.386,3255.01L620.386,3342.92C620.386,3367.18 641.915,3386.88 668.432,3386.88L974.839,3386.88C1001.36,3386.88 1022.88,3367.18 1022.88,3342.92L1022.88,3255.01Z" style="fill:rgb(163,122,84);stroke:rgb(148,108,69);stroke-width:32.48px;"/>
            </g>
            <g transform="matrix(0.734866,0,0,0.803211,3120.11,-1244.42)">
                <path d="M1022.88,3255.01C1022.88,3230.74 1001.36,3211.05 974.839,3211.05L668.432,3211.05C641.915,3211.05 620.386,3230.74 620.386,3255.01L620.386,3342.92C620.386,3367.18 641.915,3386.88 668.432,3386.88L974.839,3386.88C1001.36,3386.88 1022.88,3367.18 1022.88,3342.92L1022.88,3255.01Z" style="fill:rgb(163,122,84);stroke:rgb(148,108,69);stroke-width:32.48px;"/>
            </g>
            <g transform="matrix(0.734866,0,0,0.803211,3154.88,-1929.65)">
                <path d="M1022.88,3255.01C1022.88,3230.74 1001.36,3211.05 974.839,3211.05L668.432,3211.05C641.915,3211.05 620.386,3230.74 620.386,3255.01L620.386,3342.92C620.386,3367.18 641.915,3386.88 668.432,3386.88L974.839,3386.88C1001.36,3386.88 1022.88,3367.18 1022.88,3342.92L1022.88,3255.01Z" style="fill:rgb(163,122,84);stroke:rgb(148,108,69);stroke-width:32.48px;"/>
            </g>
            <g transform="matrix(0.906555,0,0,0.803211,3016.32,-1518.89)">
                <path d="M1022.88,3255.01C1022.88,3230.74 1005.43,3211.05 983.939,3211.05L659.333,3211.05C637.838,3211.05 620.386,3230.74 620.386,3255.01L620.386,3342.92C620.386,3367.18 637.838,3386.88 659.333,3386.88L983.939,3386.88C1005.43,3386.88 1022.88,3367.18 1022.88,3342.92L1022.88,3255.01Z" style="fill:rgb(163,122,84);stroke:rgb(148,108,69);stroke-width:29.19px;"/>
            </g>
            <g transform="matrix(0.734866,0,0,0.803211,2620.75,-1248.1)">
                <path d="M1022.88,3255.01C1022.88,3230.74 1001.36,3211.05 974.839,3211.05L668.432,3211.05C641.915,3211.05 620.386,3230.74 620.386,3255.01L620.386,3342.92C620.386,3367.18 641.915,3386.88 668.432,3386.88L974.839,3386.88C1001.36,3386.88 1022.88,3367.18 1022.88,3342.92L1022.88,3255.01Z" style="fill:rgb(163,122,84);stroke:rgb(148,108,69);stroke-width:32.48px;"/>
            </g>
            <g transform="matrix(0.954358,0,0,0.803211,2967.6,-1125.24)">
                <path d="M1022.88,3255.01C1022.88,3230.74 1006.31,3211.05 985.889,3211.05L657.382,3211.05C636.964,3211.05 620.386,3230.74 620.386,3255.01L620.386,3342.92C620.386,3367.18 636.964,3386.88 657.382,3386.88L985.889,3386.88C1006.31,3386.88 1022.88,3367.18 1022.88,3342.92L1022.88,3255.01Z" style="fill:rgb(163,122,84);stroke:rgb(148,108,69);stroke-width:28.34px;"/>
            </g>
            <g transform="matrix(0.734866,0,0,0.803211,2394.04,-1461.55)">
                <path d="M1572.22,2816.22C1572.22,2787.14 1546.41,2763.53 1514.63,2763.53L1101.4,2763.53C1069.62,2763.53 1043.82,2787.14 1043.82,2816.22L1043.82,2921.6C1043.82,2950.68 1069.62,2974.28 1101.4,2974.28L1514.63,2974.28C1546.41,2974.28 1572.22,2950.68 1572.22,2921.6L1572.22,2816.22Z" style="fill:rgb(163,122,84);stroke:rgb(148,108,69);stroke-width:32.48px;"/>
            </g>
            <g transform="matrix(0.734866,0,0,0.803211,2203.04,-1664.18)">
                <path d="M1756.64,3442.24C1756.64,3412.83 1730.54,3388.95 1698.39,3388.95L1262.12,3388.95C1229.97,3388.95 1203.87,3412.83 1203.87,3442.24L1203.87,3548.82C1203.87,3578.24 1229.97,3602.11 1262.12,3602.11L1698.39,3602.11C1730.54,3602.11 1756.64,3578.24 1756.64,3548.82L1756.64,3442.24Z" style="fill:rgb(163,122,84);stroke:rgb(148,108,69);stroke-width:32.48px;"/>
            </g>
            <g transform="matrix(0.734866,0,0,0.803211,3074.44,-1348.65)">
                <path d="M871.161,2856.25C871.161,2828.62 846.639,2806.19 816.436,2806.19L498.874,2806.19C468.671,2806.19 444.15,2828.62 444.15,2856.25L444.15,2956.39C444.15,2984.02 468.671,3006.46 498.874,3006.46L816.436,3006.46C846.639,3006.46 871.161,2984.02 871.161,2956.39L871.161,2856.25Z" style="fill:rgb(163,122,84);stroke:rgb(148,108,69);stroke-width:32.48px;"/>
            </g>
            <g transform="matrix(0.734866,0,0,0.803211,2082.12,-1256.31)">
                <path d="M1745.3,2394.84C1745.3,2370.8 1723.96,2351.27 1697.68,2351.27L1342.24,2351.27C1315.95,2351.27 1294.62,2370.8 1294.62,2394.84L1294.62,2481.98C1294.62,2506.03 1315.95,2525.55 1342.24,2525.55L1697.68,2525.55C1723.96,2525.55 1745.3,2506.03 1745.3,2481.98L1745.3,2394.84Z" style="fill:rgb(163,122,84);stroke:rgb(148,108,69);stroke-width:32.48px;"/>
            </g>
            <g transform="matrix(0.830807,0,0,0.803211,2743.13,-1488.44)">
                <path d="M719.651,3419.51C719.651,3399.79 704.17,3383.78 685.102,3383.78L369.195,3383.78C350.127,3383.78 334.646,3399.79 334.646,3419.51L334.646,3490.98C334.646,3510.7 350.127,3526.72 369.195,3526.72L685.102,3526.72C704.17,3526.72 719.651,3510.7 719.651,3490.98L719.651,3419.51Z" style="fill:rgb(194,168,145);stroke:rgb(148,108,69);stroke-width:30.6px;"/>
            </g>
            <g transform="matrix(0.734866,0,0,0.803211,2551,-1767.09)">
                <path d="M1630.93,3053C1630.93,3029.82 1610.35,3010.99 1585.01,3010.99L1112.65,3010.99C1087.31,3010.99 1066.73,3029.82 1066.73,3053L1066.73,3137.03C1066.73,3160.22 1087.31,3179.04 1112.65,3179.04L1585.01,3179.04C1610.35,3179.04 1630.93,3160.22 1630.93,3137.03L1630.93,3053Z" style="fill:rgb(194,168,145);stroke:rgb(148,108,69);stroke-width:32.48px;"/>
            </g>
            <g transform="matrix(0.81777,0,0,0.803211,2774.42,-1492.09)">
                <path d="M759.414,3057.45C759.414,3035.75 742.105,3018.13 720.786,3018.13L337.473,3018.13C316.154,3018.13 298.845,3035.75 298.845,3057.45L298.845,3136.11C298.845,3157.82 316.154,3175.44 337.473,3175.44L720.786,3175.44C742.105,3175.44 759.414,3157.82 759.414,3136.11L759.414,3057.45Z" style="fill:rgb(194,168,145);stroke:rgb(148,108,69);stroke-width:30.84px;"/>
            </g>
            <g transform="matrix(0.876266,0,0,0.803211,2827.64,-1804.68)">
                <path d="M1266.36,3262.76C1266.36,3242.33 1251.15,3225.75 1232.43,3225.75L879.167,3225.75C860.443,3225.75 845.241,3242.33 845.241,3262.76L845.241,3336.79C845.241,3357.21 860.443,3373.8 879.167,3373.8L1232.43,3373.8C1251.15,3373.8 1266.36,3357.21 1266.36,3336.79L1266.36,3262.76Z" style="fill:rgb(194,168,145);stroke:rgb(148,108,69);stroke-width:29.74px;"/>
            </g>
            <g transform="matrix(0.734866,0,0,0.803211,3156.47,-1583.34)">
                <path d="M1035.49,3500.27C1035.49,3476.81 1014.67,3457.76 989.033,3457.76L647.317,3457.76C621.678,3457.76 600.863,3476.81 600.863,3500.27L600.863,3585.27C600.863,3608.73 621.678,3627.77 647.317,3627.77L989.033,3627.77C1014.67,3627.77 1035.49,3608.73 1035.49,3585.27L1035.49,3500.27Z" style="fill:rgb(194,168,145);stroke:rgb(148,108,69);stroke-width:32.48px;"/>
            </g>
            <g transform="matrix(0.734866,0,0,0.803211,2129.09,-1420.62)">
                <path d="M1792.01,3628.51C1792.01,3605.85 1771.9,3587.46 1747.14,3587.46L1275.76,3587.46C1251,3587.46 1230.89,3605.85 1230.89,3628.51L1230.89,3710.62C1230.89,3733.27 1251,3751.67 1275.76,3751.67L1747.14,3751.67C1771.9,3751.67 1792.01,3733.27 1792.01,3710.62L1792.01,3628.51Z" style="fill:rgb(194,168,145);stroke:rgb(148,108,69);stroke-width:32.48px;"/>
            </g>
            <g transform="matrix(0.404723,0,0,0.803211,2875.81,-1520.57)">
                <path d="M1792.01,3628.51C1792.01,3605.85 1755.51,3587.46 1710.54,3587.46L1312.36,3587.46C1267.39,3587.46 1230.89,3605.85 1230.89,3628.51L1230.89,3710.62C1230.89,3733.27 1267.39,3751.67 1312.36,3751.67L1710.54,3751.67C1755.51,3751.67 1792.01,3733.27 1792.01,3710.62L1792.01,3628.51Z" style="fill:rgb(194,168,145);stroke:rgb(148,108,69);stroke-width:39.31px;"/>
            </g>
            <g transform="matrix(0.734866,0,0,0.803211,2943.3,-1567.39)">
                <path d="M1292.97,3125.12C1292.97,3106.46 1276.4,3091.31 1256,3091.31L1070.26,3091.31C1049.86,3091.31 1033.29,3106.46 1033.29,3125.12L1033.29,3192.76C1033.29,3211.43 1049.86,3226.59 1070.26,3226.59L1256,3226.59C1276.4,3226.59 1292.97,3211.43 1292.97,3192.76L1292.97,3125.12Z" style="fill:rgb(194,168,145);stroke:rgb(148,108,69);stroke-width:32.48px;"/>
            </g>
            <g transform="matrix(0.734866,0,0,0.803211,2909.89,-1784.17)">
                <path d="M997.49,3607.84C997.49,3588.27 980.12,3572.38 958.725,3572.38L686.957,3572.38C665.562,3572.38 648.192,3588.27 648.192,3607.84L648.192,3678.78C648.192,3698.35 665.562,3714.24 686.957,3714.24L958.725,3714.24C980.12,3714.24 997.49,3698.35 997.49,3678.78L997.49,3607.84Z" style="fill:rgb(194,168,145);stroke:rgb(148,108,69);stroke-width:32.48px;"/>
            </g>
        </g>
        <g id="Ebene1" transform="matrix(0.397114,0,0,0.618842,86.8441,917.604)">
            <g transform="matrix(1.01678,0,0,1,3147.72,66.5327)">
                <path d="M2184.01,866.721L2184.01,1511.87L1623.98,1804.8L1627.88,1184.7L2184.01,866.721" style="fill:rgb(96,124,172);stroke:black;stroke-width:0.99px;"/>
            </g>
            <g transform="matrix(1,0,0,1,3184.36,66.5327)">
                <path d="M1055.09,866.721L1055.09,1511.87L1616.15,1809.73L1616.97,1172.92L1055.09,866.721" style="fill:rgb(60,68,128);stroke:black;stroke-width:1px;"/>
            </g>
            <g transform="matrix(1,0,0,1,3184.36,66.5327)">
                <path d="M1619.55,544.147L1055.09,866.721L1622.71,1180.05L2191.02,862.325L1619.55,544.147Z" style="fill:rgb(51,116,175);stroke:black;stroke-width:1px;"/>
            </g>
            <g transform="matrix(0.659135,0.324912,-0.355131,0.720437,5026.86,-1204.4)">
                <path d="M1022.88,3255.01C1022.88,3230.74 1001.36,3211.05 974.839,3211.05L668.432,3211.05C641.915,3211.05 620.386,3230.74 620.386,3255.01L620.386,3342.92C620.386,3367.18 641.915,3386.88 668.432,3386.88L974.839,3386.88C1001.36,3386.88 1022.88,3367.18 1022.88,3342.92L1022.88,3255.01Z" style="fill:rgb(163,122,84);stroke:rgb(148,108,69);stroke-width:32.48px;"/>
            </g>
            <g transform="matrix(0.659135,0.324912,-0.355131,0.720437,5026.86,-1204.4)">
                <path d="M1022.88,3255.01C1022.88,3230.74 1001.36,3211.05 974.839,3211.05L668.432,3211.05C641.915,3211.05 620.386,3230.74 620.386,3255.01L620.386,3342.92C620.386,3367.18 641.915,3386.88 668.432,3386.88L974.839,3386.88C1001.36,3386.88 1022.88,3367.18 1022.88,3342.92L1022.88,3255.01Z" style="fill:rgb(163,122,84);stroke:rgb(148,108,69);stroke-width:32.48px;"/>
            </g>
            <g transform="matrix(0.659135,0.324912,-0.355131,0.720437,5020.4,-1620.49)">
                <path d="M1022.88,3255.01C1022.88,3230.74 1001.36,3211.05 974.839,3211.05L668.432,3211.05C641.915,3211.05 620.386,3230.74 620.386,3255.01L620.386,3342.92C620.386,3367.18 641.915,3386.88 668.432,3386.88L974.839,3386.88C1001.36,3386.88 1022.88,3367.18 1022.88,3342.92L1022.88,3255.01Z" style="fill:rgb(163,122,84);stroke:rgb(148,108,69);stroke-width:32.48px;"/>
            </g>
            <g transform="matrix(0.734794,0.010275,-0.0112306,0.803133,4636.41,-1686.79)">
                <path d="M1022.88,3255.01C1022.88,3230.74 1001.36,3211.05 974.839,3211.05L668.432,3211.05C641.915,3211.05 620.386,3230.74 620.386,3255.01L620.386,3342.92C620.386,3367.18 641.915,3386.88 668.432,3386.88L974.839,3386.88C1001.36,3386.88 1022.88,3367.18 1022.88,3342.92L1022.88,3255.01Z" style="fill:rgb(163,122,84);stroke:rgb(148,108,69);stroke-width:32.48px;"/>
            </g>
            <g transform="matrix(0.652602,-0.337844,0.369265,0.713296,3459.08,-506.798)">
                <path d="M1022.88,3255.01C1022.88,3230.74 1001.36,3211.05 974.839,3211.05L668.432,3211.05C641.915,3211.05 620.386,3230.74 620.386,3255.01L620.386,3342.92C620.386,3367.18 641.915,3386.88 668.432,3386.88L974.839,3386.88C1001.36,3386.88 1022.88,3367.18 1022.88,3342.92L1022.88,3255.01Z" style="fill:rgb(163,122,84);stroke:rgb(148,108,69);stroke-width:32.48px;"/>
            </g>
            <g transform="matrix(0.655667,0.331856,-0.36272,0.716647,5233.75,-1271.47)">
                <path d="M1022.88,3255.01C1022.88,3230.74 1001.36,3211.05 974.839,3211.05L668.432,3211.05C641.915,3211.05 620.386,3230.74 620.386,3255.01L620.386,3342.92C620.386,3367.18 641.915,3386.88 668.432,3386.88L974.839,3386.88C1001.36,3386.88 1022.88,3367.18 1022.88,3342.92L1022.88,3255.01Z" style="fill:rgb(163,122,84);stroke:rgb(148,108,69);stroke-width:32.48px;"/>
            </g>
            <g transform="matrix(0.463775,0.259188,-0.413715,0.740275,5344.87,-1575.1)">
                <path d="M1022.88,3255.01C1022.88,3230.74 991.445,3211.05 952.72,3211.05L690.551,3211.05C651.826,3211.05 620.386,3230.74 620.386,3255.01L620.386,3342.92C620.386,3367.18 651.826,3386.88 690.551,3386.88L952.72,3386.88C991.445,3386.88 1022.88,3367.18 1022.88,3342.92L1022.88,3255.01Z" style="fill:rgb(163,122,84);stroke:rgb(148,108,69);stroke-width:35.33px;"/>
            </g>
            <g transform="matrix(0.548117,0.310152,-0.395561,0.699056,5227.2,-1372.83)">
                <path d="M1022.88,3255.01C1022.88,3230.74 997.764,3211.05 966.823,3211.05L676.449,3211.05C645.507,3211.05 620.386,3230.74 620.386,3255.01L620.386,3342.92C620.386,3367.18 645.507,3386.88 676.449,3386.88L966.823,3386.88C997.764,3386.88 1022.88,3367.18 1022.88,3342.92L1022.88,3255.01Z" style="fill:rgb(163,122,84);stroke:rgb(148,108,69);stroke-width:34.64px;"/>
            </g>
            <g transform="matrix(0.349515,0.204058,-0.404973,0.693646,5668.56,-1409.83)">
                <path d="M1792.01,3628.51C1792.01,3605.85 1755.51,3587.46 1710.54,3587.46L1312.36,3587.46C1267.39,3587.46 1230.89,3605.85 1230.89,3628.51L1230.89,3710.62C1230.89,3733.27 1267.39,3751.67 1312.36,3751.67L1710.54,3751.67C1755.51,3751.67 1792.01,3733.27 1792.01,3710.62L1792.01,3628.51Z" style="fill:rgb(194,168,145);stroke:rgb(148,108,69);stroke-width:39.31px;"/>
            </g>
            <g transform="matrix(0.509348,0.304102,-0.411747,0.689646,5378.8,-1411.86)">
                <path d="M1792.01,3628.51C1792.01,3605.85 1767.11,3587.46 1736.43,3587.46L1286.47,3587.46C1255.8,3587.46 1230.89,3605.85 1230.89,3628.51L1230.89,3710.62C1230.89,3733.27 1255.8,3751.67 1286.47,3751.67L1736.43,3751.67C1767.11,3751.67 1792.01,3733.27 1792.01,3710.62L1792.01,3628.51Z" style="fill:rgb(194,168,145);stroke:rgb(148,108,69);stroke-width:35.41px;"/>
            </g>
            <g transform="matrix(0.542375,-0.282288,0.370825,0.712486,2754.75,-461.584)">
                <path d="M1792.01,3628.51C1792.01,3605.85 1767.85,3587.46 1738.08,3587.46L1284.82,3587.46C1255.05,3587.46 1230.89,3605.85 1230.89,3628.51L1230.89,3710.62C1230.89,3733.27 1255.05,3751.67 1284.82,3751.67L1738.08,3751.67C1767.85,3751.67 1792.01,3733.27 1792.01,3710.62L1792.01,3628.51Z" style="fill:rgb(194,168,145);stroke:rgb(148,108,69);stroke-width:35.02px;"/>
            </g>
            <g transform="matrix(0.360594,0.183773,-0.364715,0.715633,5154.51,-1624.32)">
                <path d="M1792.01,3628.51C1792.01,3605.85 1755.51,3587.46 1710.54,3587.46L1312.36,3587.46C1267.39,3587.46 1230.89,3605.85 1230.89,3628.51L1230.89,3710.62C1230.89,3733.27 1267.39,3751.67 1312.36,3751.67L1710.54,3751.67C1755.51,3751.67 1792.01,3733.27 1792.01,3710.62L1792.01,3628.51Z" style="fill:rgb(194,168,145);stroke:rgb(148,108,69);stroke-width:39.31px;"/>
            </g>
            <g transform="matrix(0.662543,0.00127975,-0.00155145,0.80321,3827.25,-1787.84)">
                <path d="M1792.01,3628.51C1792.01,3605.85 1769.71,3587.46 1742.24,3587.46L1280.66,3587.46C1253.19,3587.46 1230.89,3605.85 1230.89,3628.51L1230.89,3710.62C1230.89,3733.27 1253.19,3751.67 1280.66,3751.67L1742.24,3751.67C1769.71,3751.67 1792.01,3733.27 1792.01,3710.62L1792.01,3628.51Z" style="fill:rgb(194,168,145);stroke:rgb(148,108,69);stroke-width:33.96px;"/>
            </g>
            <g transform="matrix(0.728624,0.338125,-0.338106,0.728582,5185.8,-964.201)">
                <path d="M1022.88,3255.01C1022.88,3230.74 1003.19,3211.05 978.93,3211.05L664.341,3211.05C640.082,3211.05 620.386,3230.74 620.386,3255.01L620.386,3342.92C620.386,3367.18 640.082,3386.88 664.341,3386.88L978.93,3386.88C1003.19,3386.88 1022.88,3367.18 1022.88,3342.92L1022.88,3255.01Z" style="fill:rgb(163,122,84);stroke:rgb(148,108,69);stroke-width:31.12px;"/>
            </g>
            <g transform="matrix(0.803219,-0.00778571,0.00778527,0.803173,4192.99,-1757.44)">
                <path d="M1022.88,3255.01C1022.88,3230.74 1003.19,3211.05 978.93,3211.05L664.341,3211.05C640.082,3211.05 620.386,3230.74 620.386,3255.01L620.386,3342.92C620.386,3367.18 640.082,3386.88 664.341,3386.88L978.93,3386.88C1003.19,3386.88 1022.88,3367.18 1022.88,3342.92L1022.88,3255.01Z" style="fill:rgb(163,122,84);stroke:rgb(148,108,69);stroke-width:31.12px;"/>
            </g>
            <g transform="matrix(0.760116,-0.259701,0.259686,0.760073,3208.87,-1509.3)">
                <path d="M1022.88,3255.01C1022.88,3230.74 1003.19,3211.05 978.93,3211.05L664.341,3211.05C640.082,3211.05 620.386,3230.74 620.386,3255.01L620.386,3342.92C620.386,3367.18 640.082,3386.88 664.341,3386.88L978.93,3386.88C1003.19,3386.88 1022.88,3367.18 1022.88,3342.92L1022.88,3255.01Z" style="fill:rgb(163,122,84);stroke:rgb(148,108,69);stroke-width:31.12px;"/>
            </g>
            <g transform="matrix(0.803219,-0.00778571,0.00778527,0.803173,3912.74,-1761.95)">
                <path d="M1022.88,3255.01C1022.88,3230.74 1003.19,3211.05 978.93,3211.05L664.341,3211.05C640.082,3211.05 620.386,3230.74 620.386,3255.01L620.386,3342.92C620.386,3367.18 640.082,3386.88 664.341,3386.88L978.93,3386.88C1003.19,3386.88 1022.88,3367.18 1022.88,3342.92L1022.88,3255.01Z" style="fill:rgb(163,122,84);stroke:rgb(148,108,69);stroke-width:31.12px;"/>
            </g>
            <g transform="matrix(0.773263,0.217453,-0.21744,0.773219,5052.38,-1926.17)">
                <path d="M1022.88,3255.01C1022.88,3230.74 1003.19,3211.05 978.93,3211.05L664.341,3211.05C640.082,3211.05 620.386,3230.74 620.386,3255.01L620.386,3342.92C620.386,3367.18 640.082,3386.88 664.341,3386.88L978.93,3386.88C1003.19,3386.88 1022.88,3367.18 1022.88,3342.92L1022.88,3255.01Z" style="fill:rgb(163,122,84);stroke:rgb(148,108,69);stroke-width:31.12px;"/>
            </g>
            <g transform="matrix(0.803253,-0.00257941,0.00257926,0.803207,3989.9,-1587.47)">
                <path d="M1022.88,3255.01C1022.88,3230.74 1003.19,3211.05 978.93,3211.05L664.341,3211.05C640.082,3211.05 620.386,3230.74 620.386,3255.01L620.386,3342.92C620.386,3367.18 640.082,3386.88 664.341,3386.88L978.93,3386.88C1003.19,3386.88 1022.88,3367.18 1022.88,3342.92L1022.88,3255.01Z" style="fill:rgb(163,122,84);stroke:rgb(148,108,69);stroke-width:31.12px;"/>
            </g>
            <g transform="matrix(0.725223,-0.345359,0.34534,0.725182,3199.41,-549.994)">
                <path d="M1022.88,3255.01C1022.88,3230.74 1003.19,3211.05 978.93,3211.05L664.341,3211.05C640.082,3211.05 620.386,3230.74 620.386,3255.01L620.386,3342.92C620.386,3367.18 640.082,3386.88 664.341,3386.88L978.93,3386.88C1003.19,3386.88 1022.88,3367.18 1022.88,3342.92L1022.88,3255.01Z" style="fill:rgb(163,122,84);stroke:rgb(148,108,69);stroke-width:31.12px;"/>
            </g>
            <g transform="matrix(0.374901,-0.178532,0.34534,0.725182,3403.86,-821.914)">
                <path d="M1022.88,3255.01C1022.88,3230.74 984.785,3211.05 937.857,3211.05L705.415,3211.05C658.486,3211.05 620.386,3230.74 620.386,3255.01L620.386,3342.92C620.386,3367.18 658.486,3386.88 705.415,3386.88L937.857,3386.88C984.785,3386.88 1022.88,3367.18 1022.88,3342.92L1022.88,3255.01Z" style="fill:rgb(163,122,84);stroke:rgb(148,108,69);stroke-width:39.1px;"/>
            </g>
            <g transform="matrix(0.441564,-0.210278,0.34534,0.725182,3760.9,-982.52)">
                <path d="M1022.88,3255.01C1022.88,3230.74 990.537,3211.05 950.693,3211.05L692.578,3211.05C652.734,3211.05 620.386,3230.74 620.386,3255.01L620.386,3342.92C620.386,3367.18 652.734,3386.88 692.578,3386.88L950.693,3386.88C990.537,3386.88 1022.88,3367.18 1022.88,3342.92L1022.88,3255.01Z" style="fill:rgb(163,122,84);stroke:rgb(148,108,69);stroke-width:37.6px;"/>
            </g>
            <g transform="matrix(0.725223,-0.345359,0.34534,0.725182,3226.99,-864.722)">
                <path d="M1022.88,3255.01C1022.88,3230.74 1003.19,3211.05 978.93,3211.05L664.341,3211.05C640.082,3211.05 620.386,3230.74 620.386,3255.01L620.386,3342.92C620.386,3367.18 640.082,3386.88 664.341,3386.88L978.93,3386.88C1003.19,3386.88 1022.88,3367.18 1022.88,3342.92L1022.88,3255.01Z" style="fill:rgb(163,122,84);stroke:rgb(148,108,69);stroke-width:31.12px;"/>
            </g>
            <g transform="matrix(0.4772,0.246401,-0.36851,0.713686,5032.77,-1411.17)">
                <path d="M1792.01,3628.51C1792.01,3605.85 1764.5,3587.46 1730.62,3587.46L1292.29,3587.46C1258.4,3587.46 1230.89,3605.85 1230.89,3628.51L1230.89,3710.62C1230.89,3733.27 1258.4,3751.67 1292.29,3751.67L1730.62,3751.67C1764.5,3751.67 1792.01,3733.27 1792.01,3710.62L1792.01,3628.51Z" style="fill:rgb(194,168,145);stroke:rgb(148,108,69);stroke-width:36.59px;"/>
            </g>
            <g transform="matrix(0.647913,0.346751,-0.431342,0.805975,5232.18,-2236.35)">
                <path d="M1792.01,3628.51C1792.01,3605.85 1769.13,3587.46 1740.94,3587.46L1281.96,3587.46C1253.77,3587.46 1230.89,3605.85 1230.89,3628.51L1230.89,3710.62C1230.89,3733.27 1253.77,3751.67 1281.96,3751.67L1740.94,3751.67C1769.13,3751.67 1792.01,3733.27 1792.01,3710.62L1792.01,3628.51Z" style="fill:rgb(194,168,145);stroke:rgb(148,108,69);stroke-width:30.14px;"/>
            </g>
            <g transform="matrix(0.734863,0.00181265,-0.00225485,0.914137,3838.98,-2319.12)">
                <path d="M1792.01,3628.51C1792.01,3605.85 1769.13,3587.46 1740.94,3587.46L1281.96,3587.46C1253.77,3587.46 1230.89,3605.85 1230.89,3628.51L1230.89,3710.62C1230.89,3733.27 1253.77,3751.67 1281.96,3751.67L1740.94,3751.67C1769.13,3751.67 1792.01,3733.27 1792.01,3710.62L1792.01,3628.51Z" style="fill:rgb(194,168,145);stroke:rgb(148,108,69);stroke-width:30.14px;"/>
            </g>
            <g transform="matrix(0.521248,0.00128573,-0.00225485,0.914137,4325.22,-2465.91)">
                <path d="M1792.01,3628.51C1792.01,3605.85 1759.75,3587.46 1720.02,3587.46L1302.88,3587.46C1263.15,3587.46 1230.89,3605.85 1230.89,3628.51L1230.89,3710.62C1230.89,3733.27 1263.15,3751.67 1302.88,3751.67L1720.02,3751.67C1759.75,3751.67 1792.01,3733.27 1792.01,3710.62L1792.01,3628.51Z" style="fill:rgb(194,168,145);stroke:rgb(148,108,69);stroke-width:33.6px;"/>
            </g>
            <g transform="matrix(0.521248,0.00128573,-0.00225485,0.914137,4043.34,-2612.29)">
                <path d="M1792.01,3628.51C1792.01,3605.85 1759.75,3587.46 1720.02,3587.46L1302.88,3587.46C1263.15,3587.46 1230.89,3605.85 1230.89,3628.51L1230.89,3710.62C1230.89,3733.27 1263.15,3751.67 1302.88,3751.67L1720.02,3751.67C1759.75,3751.67 1792.01,3733.27 1792.01,3710.62L1792.01,3628.51Z" style="fill:rgb(194,168,145);stroke:rgb(148,108,69);stroke-width:33.6px;"/>
            </g>
            <g transform="matrix(0.734863,0.00181265,-0.00225485,0.914137,3418.42,-2407.89)">
                <path d="M1792.01,3628.51C1792.01,3605.85 1769.13,3587.46 1740.94,3587.46L1281.96,3587.46C1253.77,3587.46 1230.89,3605.85 1230.89,3628.51L1230.89,3710.62C1230.89,3733.27 1253.77,3751.67 1281.96,3751.67L1740.94,3751.67C1769.13,3751.67 1792.01,3733.27 1792.01,3710.62L1792.01,3628.51Z" style="fill:rgb(194,168,145);stroke:rgb(148,108,69);stroke-width:30.14px;"/>
            </g>
            <g transform="matrix(0.560132,-0.275466,0.403418,0.820308,2862.41,-1172.57)">
                <path d="M1792.01,3628.51C1792.01,3605.85 1765.07,3587.46 1731.89,3587.46L1291.01,3587.46C1257.83,3587.46 1230.89,3605.85 1230.89,3628.51L1230.89,3710.62C1230.89,3733.27 1257.83,3751.67 1291.01,3751.67L1731.89,3751.67C1765.07,3751.67 1792.01,3733.27 1792.01,3710.62L1792.01,3628.51Z" style="fill:rgb(194,168,145);stroke:rgb(148,108,69);stroke-width:31.94px;"/>
            </g>
            <g transform="matrix(0.560132,-0.275466,0.403418,0.820308,2739.87,-1262.08)">
                <path d="M1792.01,3628.51C1792.01,3605.85 1765.07,3587.46 1731.89,3587.46L1291.01,3587.46C1257.83,3587.46 1230.89,3605.85 1230.89,3628.51L1230.89,3710.62C1230.89,3733.27 1257.83,3751.67 1291.01,3751.67L1731.89,3751.67C1765.07,3751.67 1792.01,3733.27 1792.01,3710.62L1792.01,3628.51Z" style="fill:rgb(194,168,145);stroke:rgb(148,108,69);stroke-width:31.94px;"/>
            </g>
            <g transform="matrix(0.560132,-0.275466,0.403418,0.820308,2866.31,-1459.63)">
                <path d="M1792.01,3628.51C1792.01,3605.85 1765.07,3587.46 1731.89,3587.46L1291.01,3587.46C1257.83,3587.46 1230.89,3605.85 1230.89,3628.51L1230.89,3710.62C1230.89,3733.27 1257.83,3751.67 1291.01,3751.67L1731.89,3751.67C1765.07,3751.67 1792.01,3733.27 1792.01,3710.62L1792.01,3628.51Z" style="fill:rgb(194,168,145);stroke:rgb(148,108,69);stroke-width:31.94px;"/>
            </g>
        </g>
    </g>
</svg>
