<?xml version="1.0" encoding="UTF-8" standalone="no"?>
<!DOCTYPE svg PUBLIC "-//W3C//DTD SVG 1.1//EN" "http://www.w3.org/Graphics/SVG/1.1/DTD/svg11.dtd">
<svg width="100%" height="100%" viewBox="0 0 763 562" version="1.1" xmlns="http://www.w3.org/2000/svg" xmlns:xlink="http://www.w3.org/1999/xlink" xml:space="preserve" xmlns:serif="http://www.serif.com/" style="fill-rule:evenodd;clip-rule:evenodd;stroke-linejoin:round;stroke-miterlimit:2;">
    <rect id="MIB7" x="0" y="0" width="762.919" height="561.796" style="fill:none;"/>
    <g id="Wires">
        <path d="M150.076,290.099C150.076,289.602 149.672,289.199 149.175,289.199L147.374,289.199C146.877,289.199 146.473,289.602 146.473,290.099L146.473,370.739C146.473,371.236 146.877,371.64 147.374,371.64L149.175,371.64C149.672,371.64 150.076,371.236 150.076,370.739L150.076,290.099Z" style="fill:rgb(77,77,77);"/>
        <path d="M306.417,371.64C306.915,371.64 307.318,371.236 307.318,370.739L307.318,368.938C307.318,368.441 306.915,368.037 306.417,368.037L147.374,368.037C146.877,368.037 146.473,368.441 146.473,368.938L146.473,370.739C146.473,371.236 146.877,371.64 147.374,371.64L306.417,371.64Z" style="fill:rgb(77,77,77);"/>
    </g>
    <g id="Laptop">
        <path id="CaseTop" d="M629.332,159.236C629.332,153.039 624.301,148.007 618.103,148.007C618.103,148.007 325.988,148.007 325.988,148.007C319.79,148.007 314.759,153.039 314.759,159.236C314.759,159.236 314.759,320.617 314.759,320.617C314.759,326.814 319.79,331.846 325.988,331.846C325.988,331.846 618.103,331.846 618.103,331.846C624.301,331.846 629.332,326.814 629.332,320.617C629.332,320.617 629.332,159.236 629.332,159.236ZM625.332,159.236C625.332,155.246 622.093,152.007 618.103,152.007L325.988,152.007C321.998,152.007 318.759,155.246 318.759,159.236L318.759,320.617C318.759,324.607 321.998,327.846 325.988,327.846L618.103,327.846C622.093,327.846 625.332,324.607 625.332,320.617L625.332,159.236Z"/>
        <path id="Screen" d="M621.065,162.739C621.065,158.924 617.914,155.828 614.034,155.828L329.892,155.828C326.011,155.828 322.86,158.924 322.86,162.739L322.86,317.026C322.86,320.84 326.011,323.937 329.892,323.937L614.034,323.937C617.914,323.937 621.065,320.84 621.065,317.026L621.065,162.739Z" style="fill:white;"/>
        <path id="CaseBottom" d="M629.304,336.214C629.136,334.311 628.216,332.517 626.6,331.074C624.674,329.356 621.606,328.122 618.103,328.122L325.988,328.122C322.485,328.122 319.417,329.356 317.491,331.074C315.893,332.5 314.976,334.27 314.793,336.149C314.793,336.148 290.051,418.12 290.051,418.12C289.938,418.495 289.88,418.884 289.88,419.276C289.88,421.413 290.817,423.45 292.612,425.053C294.538,426.771 297.606,428.005 301.109,428.005L640.693,428.005C644.196,428.005 647.264,426.771 649.19,425.053C650.986,423.45 651.922,421.413 651.922,419.276C651.922,418.919 651.874,418.563 651.78,418.218L629.304,336.209L629.304,336.214ZM625.332,336.851C625.332,334.241 622.093,332.122 618.103,332.122L325.988,332.122C321.998,332.122 318.759,334.241 318.759,336.851L293.88,419.276C293.88,421.886 297.119,424.005 301.109,424.005L640.693,424.005C644.683,424.005 647.922,421.886 647.922,419.276L625.332,336.851Z"/>
        <path id="Keyboard" d="M622.172,340.204C622.009,338.897 621.329,337.573 619.904,336.496C618.369,335.336 615.331,334.323 611.769,334.323L332.322,334.323C328.76,334.323 325.722,335.336 324.187,336.496C322.783,337.557 322.103,338.858 321.926,340.147C321.927,340.143 311.188,380.368 311.188,380.368C311.098,380.705 311.052,381.052 311.052,381.4C311.052,382.909 311.701,384.498 313.361,385.752C314.896,386.912 317.933,387.925 321.496,387.925L621.652,387.554C625.209,387.554 628.247,386.54 629.782,385.38C631.441,384.127 632.09,382.538 632.09,381.029C632.09,380.707 632.051,380.387 631.975,380.074L622.171,340.197L622.172,340.204ZM618.212,340.848C618.212,339.454 615.325,338.323 611.769,338.323L332.322,338.323C328.766,338.323 325.879,339.454 325.879,340.848L315.052,381.4C315.052,382.794 317.939,383.925 321.496,383.925L621.647,383.554C625.203,383.554 628.09,382.423 628.09,381.029L618.212,340.848Z"/>
        <path id="Touch" d="M514.568,398.211C514.403,397.39 514.008,396.601 513.34,395.906C512.481,395.013 510.842,394.151 508.85,394.151C508.85,394.151 435.813,394.151 435.813,394.151C433.821,394.151 432.182,395.013 431.323,395.906C430.68,396.576 430.288,397.333 430.114,398.123C430.115,398.118 424.029,414.748 424.029,414.748C423.867,415.188 423.785,415.653 423.785,416.122C423.785,417.266 424.19,418.392 425.103,419.342C425.961,420.235 427.601,421.098 429.592,421.098L514.499,421.098C516.49,421.098 518.13,420.235 518.988,419.342C519.901,418.392 520.306,417.266 520.306,416.122C520.306,415.694 520.237,415.268 520.102,414.861L514.567,398.205L514.568,398.211ZM510.658,399.126C510.658,398.588 509.848,398.151 508.85,398.151L435.813,398.151C434.815,398.151 434.005,398.588 434.005,399.126L427.785,416.122C427.785,416.661 428.595,417.098 429.592,417.098L514.499,417.098C515.496,417.098 516.306,416.661 516.306,416.122L510.658,399.126Z"/>
        <g id="Frames">
            <path id="editor" d="M478.889,164.797C478.889,161.535 476.241,158.887 472.979,158.887L337.054,158.887C333.793,158.887 331.144,161.535 331.144,164.797L331.144,314.423C331.144,317.685 333.793,320.333 337.054,320.333L472.979,320.333C476.241,320.333 478.889,317.685 478.889,314.423L478.889,164.797Z" style="fill:rgb(71,136,136);"/>
            <clipPath id="_clip1">
                <path d="M478.889,164.797C478.889,161.535 476.241,158.887 472.979,158.887L337.054,158.887C333.793,158.887 331.144,161.535 331.144,164.797L331.144,314.423C331.144,317.685 333.793,320.333 337.054,320.333L472.979,320.333C476.241,320.333 478.889,317.685 478.889,314.423L478.889,164.797Z"/>
            </clipPath>
            <g clip-path="url(#_clip1)">
                <g id="Lines">
                    <path d="M420.409,174.334C420.409,174.008 420.144,173.743 419.817,173.743L341.389,173.743C341.062,173.743 340.797,174.008 340.797,174.334L340.797,175.516C340.797,175.843 341.062,176.108 341.389,176.108L419.817,176.108C420.144,176.108 420.409,175.843 420.409,175.516L420.409,174.334Z" style="fill:rgb(235,235,235);"/>
                    <path d="M451.632,184.88C451.632,184.554 451.367,184.289 451.041,184.289L341.389,184.289C341.062,184.289 340.797,184.554 340.797,184.88L340.797,186.062C340.797,186.389 341.062,186.653 341.389,186.653L451.041,186.653C451.367,186.653 451.632,186.389 451.632,186.062L451.632,184.88Z" style="fill:rgb(235,235,235);"/>
                    <path d="M380.603,195.426C380.603,195.099 380.338,194.834 380.012,194.834L341.389,194.834C341.062,194.834 340.797,195.099 340.797,195.426L340.797,196.608C340.797,196.934 341.062,197.199 341.389,197.199L380.012,197.199C380.338,197.199 380.603,196.934 380.603,196.608L380.603,195.426Z" style="fill:rgb(235,235,235);"/>
                    <path d="M413.711,205.971C413.711,205.645 413.446,205.38 413.12,205.38L341.389,205.38C341.062,205.38 340.797,205.645 340.797,205.971L340.797,207.154C340.797,207.48 341.062,207.745 341.389,207.745L413.12,207.745C413.446,207.745 413.711,207.48 413.711,207.154L413.711,205.971Z" style="fill:rgb(235,235,235);"/>
                    <path d="M438.776,216.517C438.776,216.191 438.511,215.926 438.184,215.926L341.389,215.926C341.062,215.926 340.797,216.191 340.797,216.517L340.797,217.7C340.797,218.026 341.062,218.291 341.389,218.291L438.184,218.291C438.511,218.291 438.776,218.026 438.776,217.7L438.776,216.517Z" style="fill:rgb(235,235,235);"/>
                    <path d="M392.628,227.063C392.628,226.737 392.363,226.472 392.037,226.472L341.389,226.472C341.062,226.472 340.797,226.737 340.797,227.063L340.797,228.245C340.797,228.572 341.062,228.837 341.389,228.837L392.037,228.837C392.363,228.837 392.628,228.572 392.628,228.245L392.628,227.063Z" style="fill:rgb(235,235,235);"/>
                    <path d="M403.656,237.609C403.656,237.282 403.391,237.018 403.065,237.018L341.389,237.018C341.062,237.018 340.797,237.282 340.797,237.609L340.797,238.791C340.797,239.117 341.062,239.382 341.389,239.382L403.065,239.382C403.391,239.382 403.656,239.117 403.656,238.791L403.656,237.609Z" style="fill:rgb(235,235,235);"/>
                    <path d="M430.108,248.155C430.108,247.828 429.843,247.563 429.517,247.563L341.389,247.563C341.062,247.563 340.797,247.828 340.797,248.155L340.797,249.337C340.797,249.663 341.062,249.928 341.389,249.928L429.517,249.928C429.843,249.928 430.108,249.663 430.108,249.337L430.108,248.155Z" style="fill:rgb(235,235,235);"/>
                    <path d="M451.632,258.7C451.632,258.374 451.367,258.109 451.041,258.109L341.389,258.109C341.062,258.109 340.797,258.374 340.797,258.7L340.797,259.883C340.797,260.209 341.062,260.474 341.389,260.474L451.041,260.474C451.367,260.474 451.632,260.209 451.632,259.883L451.632,258.7Z" style="fill:rgb(235,235,235);"/>
                    <path d="M372.227,269.246C372.227,268.92 371.962,268.655 371.635,268.655L341.389,268.655C341.062,268.655 340.797,268.92 340.797,269.246L340.797,270.429C340.797,270.755 341.062,271.02 341.389,271.02L371.635,271.02C371.962,271.02 372.227,270.755 372.227,270.429L372.227,269.246Z" style="fill:rgb(235,235,235);"/>
                </g>
            </g>
            <path id="t1" d="M612.947,162.598C612.947,160.887 611.558,159.498 609.847,159.498L494.341,159.498C492.63,159.498 491.241,160.887 491.241,162.598L491.241,233.892C491.241,235.603 492.63,236.992 494.341,236.992L609.847,236.992C611.558,236.992 612.947,235.603 612.947,233.892L612.947,162.598Z" style="fill:rgb(96,124,172);"/>
            <g id="Checklist">
                <g id="Checklist-Point">
                    <g id="Tick1" serif:id="Tick">
                        <path d="M501.832,172.315L500.374,173.773L504.714,178.113L506.172,176.655L501.832,172.315Z" style="fill:rgb(235,235,235);"/>
                        <path d="M511.982,170.846L510.524,169.388L503.257,176.655L504.714,178.113L511.982,170.846Z" style="fill:rgb(235,235,235);"/>
                    </g>
                    <path d="M576.166,173.159C576.166,172.833 575.901,172.568 575.575,172.568L519.506,172.568C519.18,172.568 518.915,172.833 518.915,173.159L518.915,174.342C518.915,174.668 519.18,174.933 519.506,174.933L575.575,174.933C575.901,174.933 576.166,174.668 576.166,174.342L576.166,173.159Z" style="fill:rgb(235,235,235);"/>
                </g>
                <g id="Checklist-Point1" serif:id="Checklist-Point">
                    <g id="Tick">
                        <path d="M501.832,188.645L500.374,190.103L504.714,194.443L506.172,192.985L501.832,188.645Z" style="fill:rgb(235,235,235);"/>
                        <path d="M511.982,187.176L510.524,185.718L503.257,192.985L504.714,194.443L511.982,187.176Z" style="fill:rgb(235,235,235);"/>
                    </g>
                    <path d="M565.557,189.489C565.557,189.163 565.292,188.898 564.966,188.898L519.506,188.898C519.18,188.898 518.915,189.163 518.915,189.489L518.915,190.672C518.915,190.998 519.18,191.263 519.506,191.263L564.966,191.263C565.292,191.263 565.557,190.998 565.557,190.672L565.557,189.489Z" style="fill:rgb(235,235,235);"/>
                </g>
                <g id="Checklist-Point2" serif:id="Checklist-Point">
                    <g id="Tick2" serif:id="Tick">
                        <path d="M501.832,204.975L500.374,206.433L504.714,210.773L506.172,209.315L501.832,204.975Z" style="fill:rgb(235,235,235);"/>
                        <path d="M511.982,203.505L510.524,202.048L503.257,209.315L504.714,210.773L511.982,203.505Z" style="fill:rgb(235,235,235);"/>
                    </g>
                    <path d="M585.475,205.819C585.475,205.493 585.21,205.228 584.884,205.228L519.506,205.228C519.18,205.228 518.915,205.493 518.915,205.819L518.915,207.001C518.915,207.328 519.18,207.593 519.506,207.593L584.884,207.593C585.21,207.593 585.475,207.328 585.475,207.001L585.475,205.819Z" style="fill:rgb(235,235,235);"/>
                </g>
                <g id="Checklist-Point3" serif:id="Checklist-Point">
                    <g id="Tick3" serif:id="Tick">
                        <path d="M501.832,221.305L500.374,222.763L504.714,227.103L506.172,225.645L501.832,221.305Z" style="fill:rgb(235,235,235);"/>
                        <path d="M511.982,219.835L510.524,218.378L503.257,225.645L504.714,227.103L511.982,219.835Z" style="fill:rgb(235,235,235);"/>
                    </g>
                    <path d="M576.132,222.149C576.132,221.823 575.867,221.558 575.541,221.558L519.506,221.558C519.18,221.558 518.915,221.823 518.915,222.149L518.915,223.331C518.915,223.658 519.18,223.922 519.506,223.922L575.541,223.922C575.867,223.922 576.132,223.658 576.132,223.331L576.132,222.149Z" style="fill:rgb(235,235,235);"/>
                </g>
            </g>
        </g>
    </g>
    <g id="Rack">
        <g id="Server">
            <path d="M228.001,191.858C228.001,187.081 224.123,183.203 219.346,183.203L77.203,183.203C72.426,183.203 68.548,187.081 68.548,191.858L68.548,209.168C68.548,213.945 72.426,217.823 77.203,217.823L219.346,217.823C224.123,217.823 228.001,213.945 228.001,209.168L228.001,191.858Z" style="fill:rgb(69,73,115);"/>
            <circle cx="195.855" cy="200.906" r="4.392" style="fill:transparent"/>
            <circle cx="209.286" cy="200.906" r="4.392" style="fill:transparent"/>
            <path d="M143.693,198.593C143.693,197.317 142.657,196.28 141.38,196.28L82.128,196.28C80.852,196.28 79.815,197.317 79.815,198.593L79.815,203.219C79.815,204.496 80.852,205.532 82.128,205.532L141.38,205.532C142.657,205.532 143.693,204.496 143.693,203.219L143.693,198.593Z" style="fill:rgb(235,235,235);"/>
        </g>
        <g id="Server1" serif:id="Server">
            <path d="M228.001,229.584C228.001,224.807 224.123,220.929 219.346,220.929L77.203,220.929C72.426,220.929 68.548,224.807 68.548,229.584L68.548,246.894C68.548,251.67 72.426,255.548 77.203,255.548L219.346,255.548C224.123,255.548 228.001,251.67 228.001,246.894L228.001,229.584Z" style="fill:rgb(69,73,115);"/>
            <circle cx="195.855" cy="238.632" r="4.392" style="fill:transparent"/>
            <circle cx="209.286" cy="238.632" r="4.392" style="fill:transparent"/>
            <path d="M143.693,236.319C143.693,235.042 142.657,234.006 141.38,234.006L82.128,234.006C80.852,234.006 79.815,235.042 79.815,236.319L79.815,240.945C79.815,242.221 80.852,243.258 82.128,243.258L141.38,243.258C142.657,243.258 143.693,242.221 143.693,240.945L143.693,236.319Z" style="fill:rgb(235,235,235);"/>
        </g>
        <g id="Server2" serif:id="Server">
            <path d="M228.001,267.309C228.001,262.532 224.123,258.654 219.346,258.654L77.203,258.654C72.426,258.654 68.548,262.532 68.548,267.309L68.548,284.619C68.548,289.396 72.426,293.274 77.203,293.274L219.346,293.274C224.123,293.274 228.001,289.396 228.001,284.619L228.001,267.309Z" style="fill:rgb(69,73,115);"/>
            <circle cx="195.855" cy="276.357" r="4.392"  style="fill:transparent"/>
            <circle cx="209.286" cy="276.357" r="4.392" style="fill:transparent"/>
            <path d="M143.693,274.044C143.693,272.768 142.657,271.731 141.38,271.731L82.128,271.731C80.852,271.731 79.815,272.768 79.815,274.044L79.815,278.67C79.815,279.947 80.852,280.983 82.128,280.983L141.38,280.983C142.657,280.983 143.693,279.947 143.693,278.67L143.693,274.044Z" style="fill:rgb(235,235,235);"/>
        </g>
    </g>
</svg>
