<svg id="Layer_1" data-name="Layer 1" xmlns="http://www.w3.org/2000/svg" viewBox="0 0 983.3 823">
  <defs>
    <style>
      .cls-1 {
        fill: #777486;
      }

      .cls-2, .cls-20 {
        fill: #4a465d;
      }

      .cls-3 {
        fill: #f1f1f1;
      }

      .cls-11, .cls-4 {
        fill: #1d1835;
      }

      .cls-5 {
        opacity: 0.2;
      }

      .cls-14, .cls-6 {
        fill: #478888;
      }

      .cls-12, .cls-18, .cls-7 {
        fill: #c34745;
      }

      .cls-12, .cls-8, .cls-9 {
        font-size: 30px;
      }

      .cls-19, .cls-21, .cls-8, .cls-9 {
        fill: #f1b075;
      }

      .cls-8 {
        font-family: GillSansMT-Bold, Gill Sans MT;
        font-weight: 700;
      }

      .cls-12, .cls-14, .cls-18, .cls-21, .cls-9 {
        font-family: ArialRoundedMTBold, Arial Rounded MT Bold;
      }

      .cls-10 {
        letter-spacing: -0.01em;
      }

      .cls-11, .cls-20 {
        stroke: #f1f1f1;
        stroke-miterlimit: 10;
      }

      .cls-13 {
        opacity: 0;
      }

      .cls-14, .cls-18, .cls-21 {
        font-size: 20px;
      }

      .cls-15 {
        letter-spacing: -0.04em;
      }

      .cls-16 {
        letter-spacing: -0.13em;
      }

      .cls-17 {
        letter-spacing: -0.02em;
      }

      .cls-22 {
        letter-spacing: -0.09em;
      }
    </style>
  </defs>
  <g id="Laptop">
    <rect class="cls-1" x="53.11" width="877.09" height="524.79" rx="25.91"/>
    <path class="cls-1" d="M966,856H34.05c-17.41,0-28.62-13.16-25-29.39Q35.15,706.9,61.27,587.18C64.85,571,80,557.79,95,557.79H905c15.06,0,30.17,13.16,33.75,29.39Q964.86,706.9,991,826.61C994.57,842.84,983.36,856,966,856Z" transform="translate(-8.35 -33)"/>
    <path class="cls-2" d="M917.87,742H82.13c-11.89,0-19.59-9.25-17.19-20.67q12.6-60.46,25.19-120.93c2.4-11.41,13.21-20.66,24.14-20.66H885.73c10.93,0,21.74,9.25,24.14,20.66q12.6,60.47,25.19,120.93C937.46,732.73,929.76,742,917.87,742Z" transform="translate(-8.35 -33)"/>
    <path class="cls-2" d="M580.36,828.58H419.67a5.52,5.52,0,0,1-5.72-6.05l5.52-58.42a6.67,6.67,0,0,1,6.38-6.05H574.18a6.67,6.67,0,0,1,6.38,6.05l5.52,58.42A5.52,5.52,0,0,1,580.36,828.58Z" transform="translate(-8.35 -33)"/>
    <g id="Screen">
      <rect class="cls-3" x="68.77" y="19" width="845.76" height="488.25" rx="25.45"/>
    </g>
  </g>
  <g id="Left">
    <g id="LeftScreen">
      <path class="cls-4" d="M95.86,539.77a17.52,17.52,0,0,1-17.5-17.5V70a17.52,17.52,0,0,1,17.5-17.49H233.5v0h267v487H485.75a19.14,19.14,0,0,1-3,.27Z" transform="translate(-8.35 -33)"/>
      <path class="cls-3" d="M500,53V539H485.59a16.4,16.4,0,0,1-2.85.26H95.86a17,17,0,0,1-17-17V70a17,17,0,0,1,17-17H233l1,0H500m1-1H233v0H95.86a18,18,0,0,0-18,18V522.27a18,18,0,0,0,18,18H482.74a17.55,17.55,0,0,0,3-.27H501V52Z" transform="translate(-8.35 -33)"/>
    </g>
    <g id="Grid" class="cls-5">
      <circle class="cls-6" cx="173.46" cy="219.81" r="31.81"/>
      <circle class="cls-6" cx="173.46" cy="291.73" r="31.81"/>
      <circle class="cls-6" cx="173.46" cy="363.65" r="31.81"/>
      <circle class="cls-6" cx="173.46" cy="435.57" r="31.81"/>
      <circle class="cls-6" cx="245.38" cy="219.81" r="31.81"/>
      <circle class="cls-6" cx="245.38" cy="291.73" r="31.81"/>
      <circle class="cls-6" cx="245.38" cy="363.65" r="31.81"/>
      <circle class="cls-6" cx="245.38" cy="435.57" r="31.81"/>
      <circle class="cls-6" cx="315.92" cy="219.81" r="31.81"/>
      <circle class="cls-6" cx="315.92" cy="291.73" r="31.81"/>
      <circle class="cls-6" cx="315.92" cy="363.65" r="31.81"/>
      <circle class="cls-6" cx="315.92" cy="435.57" r="31.81"/>
      <circle class="cls-6" cx="387.84" cy="219.81" r="31.81"/>
      <circle class="cls-6" cx="387.84" cy="291.73" r="31.81"/>
      <circle class="cls-6" cx="387.84" cy="363.65" r="31.81"/>
      <circle class="cls-6" cx="387.84" cy="435.57" r="31.81"/>
    </g>
    <g id="Arrows">
      <path class="cls-7" d="M197.14,188H189V158H175v30h-7.14a2.28,2.28,0,0,0,0,3.24l13,13a2.28,2.28,0,0,0,3.24,0l13-13A2.28,2.28,0,0,0,197.14,188Z" transform="translate(-8.35 -33)"/>
      <path class="cls-7" d="M268.14,188H260V158H246v30h-7.14a2.28,2.28,0,0,0,0,3.24l13,13a2.28,2.28,0,0,0,3.24,0l13-13A2.28,2.28,0,0,0,268.14,188Z" transform="translate(-8.35 -33)"/>
      <path class="cls-7" d="M339.14,188H331V158H317v30h-7.14a2.28,2.28,0,0,0,0,3.24l13,13a2.28,2.28,0,0,0,3.24,0l13-13A2.28,2.28,0,0,0,339.14,188Z" transform="translate(-8.35 -33)"/>
      <path class="cls-7" d="M411.14,188H403V158H389v30h-7.14a2.28,2.28,0,0,0,0,3.24l13,13a2.28,2.28,0,0,0,3.24,0l13-13A2.28,2.28,0,0,0,411.14,188Z" transform="translate(-8.35 -33)"/>
    </g>
    <g>
      <g>
        <path class="cls-4" d="M78.5,88.5V67.87A17.48,17.48,0,0,1,95.86,52.53H233.5v0h267v36Z" transform="translate(-8.35 -33)"/>
        <path class="cls-3" d="M500,53V88H79V67.93A17,17,0,0,1,95.86,53H233l1,0H500m1-1H233v0H95.86A18,18,0,0,0,78,67.87V89H501V52Z" transform="translate(-8.35 -33)"/>
      </g>
      <text class="cls-8" transform="translate(245.1 48.43)">BOS</text>
    </g>
    <text class="cls-9" transform="translate(180.41 96.17)"><tspan class="cls-10">V</tspan><tspan x="20.24" y="0">ier G</tspan><tspan class="cls-10" x="90.6" y="0">e</tspan><tspan x="108.03" y="0">winnt!</tspan></text>
  </g>
  <g id="Right">
    <g id="RightScreen">
      <path class="cls-4" d="M518,539.75a17.91,17.91,0,0,1-2.78-.24H500.5V52.5H904.88A17.52,17.52,0,0,1,922.38,70V522.25a17.52,17.52,0,0,1-17.5,17.5Z" transform="translate(-8.35 -33)"/>
      <path class="cls-3" d="M709,53H904.88a17,17,0,0,1,17,17V522.25a17,17,0,0,1-17,17H518a17.07,17.07,0,0,1-2.71-.24H501V53H709m1-1H500V540h15.14a17.89,17.89,0,0,0,2.86.25H904.88a18,18,0,0,0,18-18V70a18,18,0,0,0-18-18Z" transform="translate(-8.35 -33)"/>
    </g>
    <path class="cls-11" d="M922.88,89V70a18,18,0,0,0-18-18H501V89Z" transform="translate(-8.35 -33)"/>
    <g>
      <rect class="cls-4" x="492.15" y="56.5" width="154" height="450"/>
      <path class="cls-3" d="M654,90V539H501V90H654m1-1H500V540H655V89Z" transform="translate(-8.35 -33)"/>
    </g>
    <text class="cls-12" transform="translate(670.4 48.08)">IDE</text>
    <g id="Controller">
      <g id="ControllerCode" class="cls-13">
        <rect class="cls-6" x="660.15" y="360.5" width="150" height="9" rx="3.54"/>
        <rect class="cls-6" x="660.15" y="373.5" width="116" height="9" rx="3.12"/>
        <rect class="cls-6" x="660.15" y="386.5" width="125" height="9" rx="3.23"/>
        <rect class="cls-6" x="660.15" y="399.5" width="119" height="9" rx="3.16"/>
        <rect class="cls-6" x="660.15" y="412.5" width="139" height="9" rx="3.41"/>
        <rect class="cls-6" x="660.15" y="425.5" width="88" height="9" rx="2.71"/>
        <rect class="cls-6" x="660.15" y="438.5" width="93" height="9" rx="2.79"/>
        <rect class="cls-6" x="660.15" y="451.5" width="90" height="9" rx="2.74"/>
        <rect class="cls-6" x="660.15" y="332.5" width="166" height="9" rx="3.73"/>
        <rect class="cls-6" x="660.15" y="318.5" width="111" height="9" rx="3.05"/>
        <rect class="cls-6" x="660.15" y="304.5" width="134" height="9" rx="3.35"/>
        <rect class="cls-6" x="660.15" y="290.5" width="164" height="9" rx="3.7"/>
        <rect class="cls-6" x="660.15" y="276.5" width="159" height="9" rx="3.65"/>
        <rect class="cls-6" x="660.15" y="262.5" width="120" height="9" rx="3.17"/>
        <rect class="cls-6" x="660.15" y="232.5" width="134" height="9" rx="3.35"/>
        <rect class="cls-6" x="660.15" y="219.5" width="115" height="9" rx="3.1"/>
        <rect class="cls-6" x="660.15" y="206.5" width="175" height="9" rx="3.83"/>
        <rect class="cls-6" x="660.15" y="192.5" width="171" height="9" rx="3.78"/>
        <rect class="cls-6" x="660.15" y="178.5" width="166" height="9" rx="3.73"/>
        <rect class="cls-6" x="660.15" y="164.5" width="147" height="9" rx="3.51"/>
        <rect class="cls-6" x="660.15" y="137.5" width="164" height="9" rx="3.7"/>
        <rect class="cls-6" x="660.15" y="151.5" width="175" height="9" rx="3.83"/>
        <rect class="cls-6" x="660.15" y="124.5" width="185" height="9" rx="3.93"/>
        <rect class="cls-6" x="660.15" y="94.5" width="155" height="9" rx="3.6"/>
        <rect class="cls-6" x="660.15" y="80.5" width="167" height="9" rx="3.74"/>
        <rect class="cls-6" x="660.15" y="66.5" width="183" height="9" rx="3.91"/>
      </g>
      <rect class="cls-11" x="492.15" y="124.5" width="154" height="34"/>
      <text class="cls-14" transform="translate(499.16 148.48)">Cont<tspan class="cls-15" x="46.04" y="0">r</tspan><tspan x="54.04" y="0">olle</tspan><tspan class="cls-16" x="88.85" y="0">r</tspan><tspan x="95.11" y="0">.j</tspan><tspan class="cls-17" x="106.79" y="0">a</tspan><tspan class="cls-10" x="118.17" y="0">v</tspan><tspan x="128.75" y="0">a</tspan></text>
    </g>
    <g id="Model">
      <g id="ModelCode" class="cls-13">
        <rect class="cls-7" x="660.15" y="346.5" width="134" height="9" rx="3.35"/>
        <rect class="cls-7" x="660.15" y="360.5" width="155" height="9" rx="3.6"/>
        <rect class="cls-7" x="660.15" y="373.5" width="142" height="9" rx="3.45"/>
        <rect class="cls-7" x="660.15" y="332.5" width="166" height="9" rx="3.73"/>
        <rect class="cls-7" x="660.15" y="318.5" width="111" height="9" rx="3.05"/>
        <rect class="cls-7" x="660.15" y="290.5" width="166" height="9" rx="3.73"/>
        <rect class="cls-7" x="660.15" y="276.5" width="175" height="9" rx="3.83"/>
        <rect class="cls-7" x="660.15" y="262.5" width="129" height="9" rx="3.29"/>
        <rect class="cls-7" x="660.15" y="232.5" width="127" height="9" rx="3.26"/>
        <rect class="cls-7" x="660.15" y="219.5" width="111" height="9" rx="3.05"/>
        <rect class="cls-7" x="660.15" y="206.5" width="166" height="9" rx="3.73"/>
        <rect class="cls-7" x="660.15" y="178.5" width="160" height="9" rx="3.66"/>
        <rect class="cls-7" x="660.15" y="164.5" width="154" height="9" rx="3.59"/>
        <rect class="cls-7" x="660.15" y="136.5" width="208" height="9" rx="4.17"/>
        <rect class="cls-7" x="660.15" y="124.5" width="169" height="9" rx="3.76"/>
        <rect class="cls-7" x="660.15" y="94.5" width="221" height="9" rx="4.3"/>
        <rect class="cls-7" x="660.15" y="80.5" width="194" height="9" rx="4.03"/>
        <rect class="cls-7" x="660.15" y="66.5" width="208" height="9" rx="4.17"/>
      </g>
      <rect class="cls-11" x="492.15" y="90.5" width="154" height="34"/>
      <text class="cls-18" transform="translate(499.16 115.48)">Model.j<tspan class="cls-17" x="70.22" y="0">a</tspan><tspan class="cls-10" x="81.61" y="0">v</tspan><tspan x="92.19" y="0">a</tspan></text>
    </g>
    <g id="View">
      <g id="ViewCode">
        <rect class="cls-19" x="660.15" y="346.5" width="90" height="9" rx="2.74"/>
        <rect class="cls-19" x="660.15" y="332.5" width="166" height="9" rx="3.73"/>
        <rect class="cls-19" x="660.15" y="318.5" width="111" height="9" rx="3.05"/>
        <rect class="cls-19" x="660.15" y="304.5" width="100" height="9" rx="2.89"/>
        <rect class="cls-19" x="660.15" y="290.5" width="140" height="9" rx="3.42"/>
        <rect class="cls-19" x="660.15" y="276.5" width="116" height="9" rx="3.12"/>
        <rect class="cls-19" x="660.15" y="262.5" width="129" height="9" rx="3.29"/>
        <rect class="cls-19" x="660.15" y="248.5" width="127" height="9" rx="3.26"/>
        <rect class="cls-19" x="660.15" y="234.5" width="111" height="9" rx="3.05"/>
        <rect class="cls-19" x="660.15" y="206.5" width="166" height="9" rx="3.73"/>
        <rect class="cls-19" x="660.15" y="192.5" width="137" height="9" rx="3.39"/>
        <rect class="cls-19" x="660.15" y="178.5" width="160" height="9" rx="3.66"/>
        <rect class="cls-19" x="660.15" y="164.5" width="154" height="9" rx="3.59"/>
        <rect class="cls-19" x="660.15" y="150.5" width="128" height="9" rx="3.27"/>
        <rect class="cls-19" x="660.15" y="136.5" width="208" height="9" rx="4.17"/>
        <rect class="cls-19" x="660.15" y="108.5" width="169" height="9" rx="3.76"/>
        <rect class="cls-19" x="660.15" y="94.5" width="221" height="9" rx="4.3"/>
        <rect class="cls-19" x="660.15" y="80.5" width="194" height="9" rx="4.03"/>
        <rect class="cls-19" x="660.15" y="66.5" width="208" height="9" rx="4.17"/>
      </g>
      <rect class="cls-20" x="492.15" y="56.5" width="154" height="34"/>
      <text class="cls-21" transform="translate(499.16 80.48)"><tspan class="cls-10">V</tspan><tspan x="13.5" y="0">i</tspan><tspan class="cls-10" x="18.92" y="0">e</tspan><tspan class="cls-22" x="30.54" y="0">w</tspan><tspan x="45.04" y="0">.j</tspan><tspan class="cls-17" x="56.72" y="0">a</tspan><tspan class="cls-10" x="68.11" y="0">v</tspan><tspan x="78.68" y="0">a</tspan></text>
    </g>
  </g>
</svg>
