<svg xmlns="http://www.w3.org/2000/svg" viewBox="0 0 850.5 926.05">
  <defs>
    <style>
      .cls-1 {
        fill: #777486;
      }

      .cls-2, .cls-8 {
        fill: #4a465d;
      }

      .cls-3, .cls-7 {
        fill: #f1f1f1;
      }

      .cls-4 {
        fill: #2e86ab;
      }

      .cls-10, .cls-5 {
        fill: #e44e58;
      }

      .cls-6 {
        fill: #f1b075;
      }

      .cls-7 {
        stroke: #4a465d;
      }

      .cls-15, .cls-7 {
        stroke-miterlimit: 10;
      }

      .cls-8 {
        font-size: 11.77px;
      }

      .cls-10, .cls-17, .cls-8 {
        font-family: MyriadPro-Regular, Myriad Pro;
      }

      .cls-9 {
        letter-spacing: -0.01em;
      }

      .cls-10 {
        font-size: 14.03px;
      }

      .cls-11 {
        letter-spacing: 0.01em;
      }

      .cls-12 {
        letter-spacing: 0em;
      }

      .cls-13 {
        fill: #df2935;
      }

      .cls-14 {
        opacity: 0;
      }

      .cls-15 {
        fill: #fff;
        stroke: #000;
      }

      .cls-16, .cls-17 {
        fill: #777486;
      }

      .cls-17 {
        font-size: 21px;
      }
    </style>
  </defs>
  <g id="AV3" opacity="0%">
    <g id="Laptop">
      <rect class="cls-1" x="344.8" y="292.48" width="447.59" height="267.81" rx="13.22"/>
      <path class="cls-1" d="M890.9,738.47H415.32c-8.89,0-14.61-6.71-12.76-15q13.32-61.08,26.65-122.18c1.82-8.26,9.55-15,17.21-15H859.77c7.69,0,15.4,6.72,17.23,15q13.32,61.1,26.66,122.18C905.48,731.76,899.76,738.47,890.9,738.47Z" transform="translate(-84.5 -26)"/>
      <path class="cls-2" d="M866.34,680.3H439.85c-6.07,0-10-4.72-8.77-10.55q6.44-30.86,12.85-61.71c1.23-5.83,6.75-10.55,12.32-10.55H849.94c5.58,0,11.1,4.72,12.32,10.55q6.43,30.86,12.85,61.71C876.34,675.57,872.41,680.3,866.34,680.3Z" transform="translate(-84.5 -26)"/>
      <path class="cls-2" d="M694.11,724.48h-82a2.83,2.83,0,0,1-2.93-2.7c0-.13,0-.26,0-.39L612,691.58a3.41,3.41,0,0,1,3.26-3.09H691a3.41,3.41,0,0,1,3.26,3.09L697,721.39a2.81,2.81,0,0,1-2.53,3.08Z" transform="translate(-84.5 -26)"/>
      <g id="Screen">
        <rect class="cls-3" x="352.79" y="302.18" width="431.6" height="249.16" rx="12.99"/>
      </g>
    </g>
    <g id="StageDudeL">
      <rect class="cls-4" x="587.5" y="480.5" width="7" height="60" rx="3.5" transform="translate(-172.38 98.49) rotate(-11.2)"/>
      <rect class="cls-4" x="567.5" y="480.5" width="7" height="60" rx="3.5" transform="translate(4.3 -110.59) rotate(9.18)"/>
      <ellipse class="cls-4" cx="496" cy="424.5" rx="17" ry="37"/>
      <path class="cls-4" d="M634.94,450.62l-27-9.5-15.56-23.39a2.77,2.77,0,0,0-3.85-.78l-1.2.8a2.77,2.77,0,0,0-.78,3.85l16.13,24.25a2.75,2.75,0,0,0,1.47,1.1,2.94,2.94,0,0,0,1,.61l27.47,9.66a2.77,2.77,0,0,0,3.54-1.7l.48-1.36A2.78,2.78,0,0,0,634.94,450.62Z" transform="translate(-84.5 -26)"/>
      <path class="cls-5" d="M636.46,450.46l-30.27,8.26a2.63,2.63,0,0,1-2.83-1.08,14.23,14.23,0,0,0-15.43-5.05,15.1,15.1,0,0,0-6.79,3.93,2.68,2.68,0,0,1-2.59.71,15.19,15.19,0,0,0-7.86.06c-7.62,2.08-12.25,9.43-10.34,16.41s9.63,11,17.24,8.88a15.13,15.13,0,0,0,6.8-3.93,2.65,2.65,0,0,1,2.59-.71,15.3,15.3,0,0,0,7.86-.06,14.38,14.38,0,0,0,10.57-11.12,2.72,2.72,0,0,1,1.94-2.18L638,456.2a2.68,2.68,0,0,0,1.88-3.28l-.17-.59A2.67,2.67,0,0,0,636.46,450.46ZM584,472.18c-4.76,1.3-9.18.3-9.88-2.24s2.61-5.65,7.37-6.95,9.18-.3,9.88,2.24S588.78,470.88,584,472.18Z" transform="translate(-84.5 -26)"/>
      <path id="Arm1" class="cls-4" d="M577.69,469.22l-17.1-20.28L570.67,423a2.78,2.78,0,0,0-1.58-3.6l-1.34-.52a2.78,2.78,0,0,0-3.6,1.58l-10.56,27.14a2.54,2.54,0,0,0-.1.37,2.77,2.77,0,0,0,.08,3.48l18.76,22.26a2.78,2.78,0,0,0,3.92.34l1.1-.93A2.78,2.78,0,0,0,577.69,469.22Z" transform="translate(-84.5 -26)"/>
      <circle class="cls-6" cx="496" cy="372.5" r="15"/>
      <ellipse class="cls-7" cx="490" cy="368.5" rx="4" ry="4.5"/>
      <ellipse class="cls-7" cx="502" cy="368.5" rx="4" ry="4.5"/>
      <ellipse class="cls-7" cx="496" cy="380.5" rx="7" ry="3"/>
    </g>
    <g id="StageDudeR">
      <rect class="cls-2" x="696.42" y="465.5" width="7" height="60" rx="3.5" transform="translate(1205.79 1091.49) rotate(-168.8)"/>
      <rect class="cls-2" x="716.42" y="465.5" width="7" height="60" rx="3.5" transform="matrix(-0.99, 0.16, -0.16, -0.99, 1425.19, 843.74)"/>
      <ellipse class="cls-2" cx="625.92" cy="409.5" rx="17" ry="37"/>
      <path class="cls-2" d="M656,435.62l27-9.5,15.55-23.39a2.79,2.79,0,0,1,3.86-.78l1.2.8a2.78,2.78,0,0,1,.77,3.85l-16.12,24.25a2.81,2.81,0,0,1-1.48,1.1,2.76,2.76,0,0,1-1,.61l-27.46,9.66a2.78,2.78,0,0,1-3.55-1.7l-.48-1.36A2.78,2.78,0,0,1,656,435.62Z" transform="translate(-84.5 -26)"/>
      <path class="cls-5" d="M651.17,437.33l-.16.59a2.66,2.66,0,0,0,1.87,3.28l30.69,8.38a2.71,2.71,0,0,1,1.93,2.18,14.38,14.38,0,0,0,10.58,11.12,15.26,15.26,0,0,0,7.85.06,2.65,2.65,0,0,1,2.59.71,15.19,15.19,0,0,0,6.8,3.93c7.62,2.08,15.34-1.89,17.25-8.88s-2.73-14.33-10.35-16.41a15.16,15.16,0,0,0-7.85-.06,2.68,2.68,0,0,1-2.59-.71,15.13,15.13,0,0,0-6.8-3.93,14.23,14.23,0,0,0-15.43,5.05,2.62,2.62,0,0,1-2.83,1.08l-30.27-8.26A2.67,2.67,0,0,0,651.17,437.33Zm48.36,12.9c.69-2.54,5.12-3.54,9.88-2.24s8.06,4.41,7.36,6.95-5.11,3.54-9.87,2.24S698.84,452.77,699.53,450.23Z" transform="translate(-84.5 -26)"/>
      <path id="Arm2" class="cls-2" d="M713.23,454.22l17.1-20.28L720.24,408a2.79,2.79,0,0,1,1.59-3.6l1.34-.52a2.78,2.78,0,0,1,3.6,1.58l10.56,27.14c0,.12.07.25.1.37a2.8,2.8,0,0,1-.08,3.48l-18.77,22.26a2.77,2.77,0,0,1-3.91.34l-1.11-.93A2.79,2.79,0,0,1,713.23,454.22Z" transform="translate(-84.5 -26)"/>
      <circle class="cls-6" cx="625.92" cy="357.5" r="15"/>
      <ellipse class="cls-7" cx="631.92" cy="353.5" rx="4" ry="2.5"/>
      <ellipse class="cls-7" cx="619.92" cy="353.5" rx="4" ry="2.5"/>
      <ellipse class="cls-7" cx="626" cy="364.5" rx="6" ry="2"/>
    </g>
    <g id="Overlays">
      <g id="Overlay1" opacity="0%">
        <rect class="cls-5" x="365" y="312.5" width="67" height="15" rx="4.61"/>
        <text class="cls-8" transform="translate(373.77 323.15)">@<tspan class="cls-9" x="8.67" y="0">C</tspan><tspan x="15.41" y="0">ampus</tspan></text>
      </g>
      <g id="Overlay2" opacity="0%">
        <path class="cls-2" d="M644.74,568.5H523.32a3,3,0,0,1-2.14-5.18l8.93-8.93a3,3,0,0,1,2.15-.89H653.68a3,3,0,0,1,2.14,5.18l-8.93,8.93A3,3,0,0,1,644.74,568.5Z" transform="translate(-84.5 -26)"/>
        <text class="cls-10" transform="translate(471.66 539.74)"><tspan class="cls-11">S</tspan><tspan x="7" y="0">ebastian</tspan></text>
      </g>
      <g id="Overlay3" opacity="0%">
        <path class="cls-2" d="M773.94,568.5H652.16a2.55,2.55,0,0,1-1.81-4.35l9.9-9.9a2.56,2.56,0,0,1,1.81-.75H783.84a2.55,2.55,0,0,1,1.81,4.35l-9.9,9.9A2.56,2.56,0,0,1,773.94,568.5Z" transform="translate(-84.5 -26)"/>
        <text class="cls-10" transform="translate(604.35 539.74)"><tspan class="cls-12">B</tspan><tspan x="7.66" y="0">enjamin</tspan></text>
      </g>
      <g id="Overlay4">
        <circle id="live" class="cls-13" cx="729.5" cy="320" r="5"/>
        <g>
          <path class="cls-2" d="M822.64,339.42h3.2v11.47h5.63v2.68h-8.83Z" transform="translate(-84.5 -26)"/>
          <path class="cls-2" d="M836.54,340.44a1.69,1.69,0,1,1-1.69-1.6A1.58,1.58,0,0,1,836.54,340.44Zm-3.29,13.13V343.29h3.2v10.28Z" transform="translate(-84.5 -26)"/>
          <path class="cls-2" d="M841.39,343.29l1.38,4.78c.25.87.43,1.68.59,2.5h.07c.16-.85.33-1.61.57-2.5l1.32-4.78h3.36l-3.83,10.28h-3.19l-3.73-10.28Z" transform="translate(-84.5 -26)"/>
          <path class="cls-2" d="M852.29,349.46c.09,1.33,1.4,2,2.89,2A8.58,8.58,0,0,0,858,351l.43,2.16a9.84,9.84,0,0,1-3.72.65c-3.48,0-5.48-2-5.48-5.23,0-2.61,1.63-5.5,5.18-5.5,3.33,0,4.59,2.59,4.59,5.13a5.85,5.85,0,0,1-.12,1.27Zm3.75-2.19a1.86,1.86,0,0,0-1.8-2.08,2.11,2.11,0,0,0-2,2.08Z" transform="translate(-84.5 -26)"/>
        </g>
      </g>
    </g>
    <path id="Mouse" class="cls-7" d="M449.87,554.91l2.56,10.24a.32.32,0,0,0,.54.15l2.2-2.2a.31.31,0,0,1,.45,0l3.06,3.06a1.35,1.35,0,0,0,1.91,0l.46-.46.46-.46a1.35,1.35,0,0,0,0-1.91l-3.06-3.06a.31.31,0,0,1,0-.45l2.2-2.2a.33.33,0,0,0-.15-.54l-10.24-2.56A.32.32,0,0,0,449.87,554.91Z" transform="translate(-84.5 -26)"/>
  </g>
  <g id="GD3">
    <g id="Street">
      <path class="cls-1" d="M904.73,27H215.23A121.22,121.22,0,0,0,94,148.23V840.36A21.64,21.64,0,0,0,115.64,862H261a27.08,27.08,0,0,0,27-27V226a20,20,0,0,1,20-20H904.73A23.27,23.27,0,0,0,928,182.73V50.27A23.27,23.27,0,0,0,904.73,27Z" transform="translate(-84.5 -26)"/>
      <g>
        <rect class="cls-6" x="102.5" y="713" width="14" height="95" rx="7"/>
        <rect class="cls-6" x="102.5" y="563" width="14" height="95" rx="7"/>
        <rect class="cls-6" x="102.5" y="413" width="14" height="95" rx="7"/>
        <rect class="cls-6" x="102.5" y="263" width="14" height="95" rx="7"/>
        <rect class="cls-6" x="102.5" y="113" width="14" height="95" rx="7"/>
        <rect class="cls-6" x="205.5" y="85" width="95" height="14" rx="7"/>
        <rect class="cls-6" x="356.5" y="85" width="95" height="14" rx="7"/>
        <rect class="cls-6" x="511.5" y="85" width="95" height="14" rx="7"/>
        <rect class="cls-6" x="670.5" y="85" width="95" height="14" rx="7"/>
      </g>
    </g>
    <g id="Car">
      <path class="cls-13" d="M148.75,841.33c.68,6.8,44.75,5.44,44.75,5.44s44.07,1.36,44.75-5.44c0,0,12.2-163.07-4.07-226.27-4.07-14.27-40.68-12.91-40.68-12.91s-36.61-1.36-40.68,12.91C136.55,678.26,148.75,841.33,148.75,841.33Z" transform="translate(-84.5 -26)"/>
      <g>
        <path class="cls-2" d="M220,814a147.05,147.05,0,0,1-53,0c-4.39-.8-7.25-4.33-6.43-7.6q2.53-10.53,5.06-21.08a6.46,6.46,0,0,1,7.48-4.66,113.14,113.14,0,0,0,40.78,0,6.46,6.46,0,0,1,7.48,4.66q2.53,10.54,5.06,21.08C227.25,809.71,224.39,813.24,220,814Z" transform="translate(-84.5 -26)"/>
        <path class="cls-2" d="M214,706.34a78,78,0,0,0-40.92,0,6.68,6.68,0,0,1-8-3.86l-7.35-20.4c-1.19-3.15,1.68-7.14,6.51-8.45a112,112,0,0,1,58.7,0c4.83,1.3,7.7,5.3,6.51,8.45L222,702.48A6.68,6.68,0,0,1,214,706.34Z" transform="translate(-84.5 -26)"/>
        <path class="cls-2" d="M149.43,681.11c5.82-3.23,11,26.8,11.49,29.62a3,3,0,0,1,0,.42V779.8a2.55,2.55,0,0,1-.66,1.7L153.56,789a2.56,2.56,0,0,1-4.46-1.57C147.92,764.32,144.21,684,149.43,681.11Z" transform="translate(-84.5 -26)"/>
        <path class="cls-2" d="M236.89,681.11c-5.81-3.23-11,26.8-11.49,29.62a3,3,0,0,0,0,.42V779.8a2.54,2.54,0,0,0,.65,1.7l6.74,7.54a2.56,2.56,0,0,0,4.46-1.57C238.4,764.32,242.11,684,236.89,681.11Z" transform="translate(-84.5 -26)"/>
      </g>
    </g>
    <g id="KeyPoints" class="cls-14">
      <circle id="Point1" class="cls-15" cx="65" cy="581.5" r="5"/>
      <circle id="Point2" class="cls-15" cx="65" cy="363.5" r="5"/>
      <circle id="Point3" class="cls-15" cx="65" cy="90.5" r="5"/>
      <circle id="Point4" class="cls-15" cx="188" cy="5.5" r="5"/>
      <circle id="Point5" class="cls-15" cx="305" cy="48.5" r="5"/>
      <circle id="Point6" class="cls-15" cx="564" cy="48.5" r="5"/>
      <circle id="Point7" class="cls-15" cx="845" cy="46.5" r="5"/>
    </g>
    <g id="Timeline">      
      <rect class="cls-16" x="9" y="883.5" width="4" height="11" rx="2"/>
      <rect class="cls-16" x="147" y="883.5" width="4" height="11" rx="2"/>
      <rect class="cls-16" x="285" y="883.5" width="4" height="11" rx="2"/>
      <rect class="cls-16" x="423" y="883.5" width="4" height="11" rx="2"/>
      <rect class="cls-16" x="561" y="883.5" width="4" height="11" rx="2"/>
      <rect class="cls-16" x="699" y="883.5" width="4" height="11" rx="2"/>
      <rect class="cls-16" x="837" y="883.5" width="4" height="11" rx="2"/>
      <circle id="Playhead" class="cls-13" cx="10.43" cy="889" r="7"/>
      <text class="cls-17" transform="translate(4.86 920.8) scale(1.16 1)">0</text>
      <text class="cls-17" transform="translate(133.98 920.8) scale(1.16 1)">0.5</text>
      <text class="cls-17" transform="translate(280.63 920.8) scale(1.16 1)">1</text>
      <text class="cls-17" transform="translate(409.76 920.8) scale(1.16 1)">1.5</text>
      <text class="cls-17" transform="translate(556.41 920.8) scale(1.16 1)">2</text>
      <text class="cls-17" transform="translate(686.69 920.8) scale(1.16 1)">2.5</text>
      <text class="cls-17" transform="translate(833.34 920.8) scale(1.16 1)">3</text>
    </g>
    <g id="KeyFrames">
      <ellipse id="Keyframe1" class="cls-4" cx="10.43" cy="868.5" rx="10.43" ry="9" opacity="0%"/>
      <ellipse id="Keyframe2" class="cls-4" cx="149.47" cy="868.5" rx="10.43" ry="9" opacity="0%"/>
      <ellipse id="Keyframe3" class="cls-4" cx="287.36" cy="868.5" rx="10.43" ry="9" opacity="0%"/>
      <ellipse id="Keyframe4" class="cls-4" cx="425.25" cy="868.5" rx="10.43" ry="9" opacity="0%"/>
      <ellipse id="Keyframe5" class="cls-4" cx="563.14" cy="868.5" rx="10.43" ry="9" opacity="0%"/>
      <ellipse id="Keyframe6" class="cls-4" cx="701.03" cy="868.5" rx="10.43" ry="9" opacity="0%"/>
      <ellipse id="Keyframe7" class="cls-4" cx="840.07" cy="868.5" rx="10.43" ry="9" opacity="0%"/>
    </g>
  </g>
</svg>
