<?xml version="1.0" encoding="UTF-8" standalone="no"?>
<!DOCTYPE svg PUBLIC "-//W3C//DTD SVG 1.1//EN" "http://www.w3.org/Graphics/SVG/1.1/DTD/svg11.dtd">
<svg width="100%" height="100%" viewBox="0 0 894 571" version="1.1" xmlns="http://www.w3.org/2000/svg" xmlns:xlink="http://www.w3.org/1999/xlink" xml:space="preserve" xmlns:serif="http://www.serif.com/" style="fill-rule:evenodd;clip-rule:evenodd;stroke-linejoin:round;stroke-miterlimit:2;">
    <g id="ArtBoard1" transform="matrix(0.899613,0,0,0.95078,0,0)">
        <rect x="0" y="0" width="993.547" height="600" style="fill:none;"/>
        <g id="Wires" transform="matrix(1.11159,0,0,1.05177,-13.6705,86.0686)">
            <g opacity="0">
                <g transform="matrix(1,0,0,1,-46.8229,-81.8324)">
                    <path id="to_lock" d="M199.214,417.833L199.219,417.834C199.256,417.838 199.293,417.841 199.331,417.841L336.011,417.841C336.508,417.841 336.911,417.437 336.911,416.94L336.911,415.139C336.911,414.642 336.508,414.238 336.011,414.238L202.034,414.238L202.034,188.464C202.034,187.967 201.63,187.564 201.133,187.564L199.331,187.564C198.834,187.564 198.431,187.967 198.431,188.464L198.431,416.94C198.431,417.397 198.772,417.775 199.214,417.833Z" style="fill:rgb(77,77,77);"/>
                </g>
                <g transform="matrix(-1,0,0,1,938.875,-81.8324)">
                    <path id="to_db" d="M199.214,417.833L199.219,417.834C199.256,417.838 199.293,417.841 199.331,417.841L336.011,417.841C336.508,417.841 336.911,417.437 336.911,416.94L336.911,415.139C336.911,414.642 336.508,414.238 336.011,414.238L202.034,414.238L202.034,188.464C202.034,187.967 201.63,187.564 201.133,187.564L199.331,187.564C198.834,187.564 198.431,187.967 198.431,188.464L198.431,416.94C198.431,417.397 198.772,417.775 199.214,417.833Z" style="fill:rgb(77,77,77);"/>
                </g>
            </g>
        </g>
        <g id="Laptop" transform="matrix(1.40368,0,0,1.32814,-378.479,179.295)">
            <g id="CaseTop" transform="matrix(0.791909,0,0,0.791909,222.814,-134.997)">
                <path d="M690.339,283.359C690.339,278.321 686.249,274.23 681.211,274.23L312.336,274.23C307.298,274.23 303.208,278.321 303.208,283.359L303.208,487.146C303.208,492.184 307.298,496.274 312.336,496.274L681.211,496.274C686.249,496.274 690.339,492.184 690.339,487.146L690.339,283.359Z" style="fill:white;"/>
                <path d="M694.339,283.359C694.339,276.113 688.457,270.23 681.211,270.23C681.211,270.23 312.336,270.23 312.336,270.23C305.09,270.23 299.208,276.113 299.208,283.359L299.208,487.146C299.208,494.392 305.09,500.274 312.336,500.274C312.336,500.274 681.211,500.274 681.211,500.274C688.457,500.274 694.339,494.392 694.339,487.146C694.339,487.146 694.339,283.359 694.339,283.359ZM690.339,283.359C690.339,278.321 686.249,274.23 681.211,274.23L312.336,274.23C307.298,274.23 303.208,278.321 303.208,283.359L303.208,487.146C303.208,492.184 307.298,496.274 312.336,496.274L681.211,496.274C686.249,496.274 690.339,492.184 690.339,487.146L690.339,283.359Z"/>
            </g>
            <g id="Frames" transform="matrix(1,0,0,1,-49.0131,-81.8324)">
                <g id="String" transform="matrix(1.51588,0,0,1.51588,36.5667,-206.609)">
                    <text x="325.39px" y="318.298px" style="font-family:'ArialMT', 'Arial', sans-serif;font-size:12px;">Dont roll out your own encryption.</text>
                </g>
                <g id="Status" transform="matrix(0.791909,0,0,0.791909,271.827,-53.1646)">
                    <g id="t1" transform="matrix(2.62027,0,0,0.353906,-1064.03,211.995)">
                        <path d="M669.536,199.241C669.536,186.333 668.12,175.853 666.377,175.853L524.95,175.853C523.206,175.853 521.791,186.333 521.791,199.241L521.791,326.791L669.536,326.791C669.478,327.22 669.536,199.241 669.536,199.241Z" style="fill:rgb(71,136,136);"/>
                    </g>
                    <g transform="matrix(0.684327,0,0,0.684327,113.015,91.5773)">
                        <text id="s5" x="312.693px" y="314.897px" style="font-family:'ArialMT', 'Arial', sans-serif;font-size:34.614px;fill:white;opacity:0;">Decrypt data...</text>
                    </g>
                    <g transform="matrix(0.684327,0,0,0.684327,113.015,91.5773)">
                        <text id="s4" x="312.693px" y="314.897px" style="font-family:'ArialMT', 'Arial', sans-serif;font-size:34.614px;fill:white;opacity:0;">Get encrypted data...</text>
                    </g>
                    <g transform="matrix(0.684327,0,0,0.684327,113.015,93.9252)">
                        <text id="s3" x="312.693px" y="314.897px" style="font-family:'ArialMT', 'Arial', sans-serif;font-size:34.614px;fill:white;opacity:0;">Insert into database...</text>
                    </g>
                    <g transform="matrix(0.684327,0,0,0.684327,113.015,91.5773)">
                        <text id="s2" x="312.693px" y="314.897px" style="font-family:'ArialMT', 'Arial', sans-serif;font-size:34.614px;fill:white;opacity:0;">Encrypt data...</text>
                    </g>
                    <g transform="matrix(0.684327,0,0,0.684327,113.015,91.5773)">
                        <text id="s1" x="312.693px" y="314.897px" style="font-family:'ArialMT', 'Arial', sans-serif;font-size:34.614px;fill:white;opacity:0;">Prepare string...</text>
                    </g>
                    <g transform="matrix(0.684327,0,0,0.684327,113.015,91.5773)">
                        <text id="s0" x="312.693px" y="314.897px" style="font-family:'ArialMT', 'Arial', sans-serif;font-size:34.614px;fill:white;opacity:0;"></text>
                    </g>
                </g>
            </g>
        </g>
        <g id="Lock" transform="matrix(0.228307,0,0,0.21602,110.735,93.8737)">
            <g id="ring" transform="matrix(1,0,0,1,-158.669,-32.7588)">
                <path d="M251,306L251,187.54C251,142.187 287.792,105 332.85,105L387.15,105C432.208,105 469,142.187 469,187.54L469,306L511,306L511,187.54C511,119.013 455.232,63 387.15,63C387.15,63 332.85,63 332.85,63C264.768,63 209,119.013 209,187.54C209,187.54 209,306 209,306L251,306Z" style="fill:rgb(58,58,58);"/>
            </g>
            <g id="body" transform="matrix(1,0,0,1,0.831057,0.448241)">
                <path d="M12,234L389,234C395.583,234 401,239.417 401,246L401,548C401,571.589 381.589,591 358,591L43,591C19.411,591 0,571.589 0,548L0,246C-0,239.417 5.417,234 12,234Z" style="fill:rgb(254,232,126);fill-rule:nonzero;"/>
            </g>
            <g id="hole" transform="matrix(1,0,0,1,-158.169,-39.6602)">
                <path d="M384.13,471.65C400.656,462.777 411.005,445.475 411.005,426.717C411.005,398.739 387.983,375.717 360.005,375.717C332.027,375.717 309.005,398.739 309.005,426.717C309.005,445.475 319.354,462.777 335.88,471.65L318.64,523.14C318.475,523.633 318.391,524.15 318.391,524.67C318.391,527.319 320.571,529.499 323.22,529.5L392.54,529.5C392.541,529.5 392.543,529.5 392.544,529.5C395.194,529.5 397.374,527.32 397.374,524.67C397.374,524.276 397.326,523.883 397.23,523.5L384.13,471.66L384.13,471.65Z" style="fill:rgb(242,203,42);fill-rule:nonzero;"/>
            </g>
        </g>
        <g id="DB" transform="matrix(0.566906,0,0,0.517703,720.749,69.0065)">
            <g id="Layer3" transform="matrix(0.921447,0,0,0.954721,-26.9519,122.774)">
                <path d="M352.02,183.395L351.821,186.19C347.725,214.897 280.799,237.761 198.957,237.761C114.479,237.761 45.893,213.4 45.893,183.395L352.02,183.395ZM45.893,107.299C45.893,137.305 114.479,161.666 198.957,161.666C241.745,161.666 280.456,155.416 308.247,145.347L308.392,145.399C308.568,145.464 308.744,145.528 308.92,145.592L309.445,145.786C335.813,155.556 352.02,168.808 352.02,183.395L45.893,183.395L45.893,107.299ZM352.02,107.299L352.02,183.395C352.02,168.808 335.813,155.556 309.445,145.786C309.047,145.638 308.647,145.492 308.247,145.347C335.317,135.54 352.02,122.107 352.02,107.299Z" style="fill:rgb(114,143,186);"/>
                <g transform="matrix(1.00185,0,0,2.41579,-0.618165,-191.019)">
                    <ellipse cx="199.206" cy="123.487" rx="152.781" ry="22.505" style="fill:rgb(142,165,200);"/>
                </g>
            </g>
            <g id="Layer2" transform="matrix(0.921447,0,0,0.954721,-26.9519,50.5032)">
                <path d="M352.02,183.395L351.821,186.19C347.725,214.897 280.799,237.761 198.957,237.761C114.479,237.761 45.893,213.4 45.893,183.395L352.02,183.395ZM45.893,107.299C45.893,137.305 114.479,161.666 198.957,161.666C241.745,161.666 280.456,155.416 308.247,145.347L308.392,145.399C308.568,145.464 308.744,145.528 308.92,145.592L309.445,145.786C335.813,155.556 352.02,168.808 352.02,183.395L45.893,183.395L45.893,107.299ZM352.02,107.299L352.02,183.395C352.02,168.808 335.813,155.556 309.445,145.786C309.047,145.638 308.647,145.492 308.247,145.347C335.317,135.54 352.02,122.107 352.02,107.299Z" style="fill:rgb(132,166,206);"/>
                <g transform="matrix(1.00185,0,0,2.41579,-0.618165,-191.019)">
                    <ellipse cx="199.206" cy="123.487" rx="152.781" ry="22.505" style="fill:rgb(146,176,211);"/>
                </g>
            </g>
            <g id="Layer1" transform="matrix(0.921447,0,0,0.954721,-26.9519,-21.4805)">
                <path d="M352.02,183.395L351.821,186.19C347.725,214.897 280.799,237.761 198.957,237.761C114.479,237.761 45.893,213.4 45.893,183.395L352.02,183.395ZM45.893,107.299C45.893,137.305 114.479,161.666 198.957,161.666C241.745,161.666 280.456,155.416 308.247,145.347L308.392,145.399C308.568,145.464 308.744,145.528 308.92,145.592L309.445,145.786C335.813,155.556 352.02,168.808 352.02,183.395L45.893,183.395L45.893,107.299ZM352.02,107.299L352.02,183.395C352.02,168.808 335.813,155.556 309.445,145.786C309.047,145.638 308.647,145.492 308.247,145.347C335.317,135.54 352.02,122.107 352.02,107.299Z" style="fill:rgb(123,158,186);"/>
                <g transform="matrix(1.00185,0,0,2.41579,-0.618165,-191.019)">
                    <ellipse cx="199.206" cy="123.487" rx="152.781" ry="22.505" style="fill:rgb(156,193,229);"/>
                </g>
            </g>
        </g>
    </g>
</svg>
